M48
METRIC
T1C0.500
%
G90
G05
T1
X162.2Y-68.046
X162.2Y-68.82
X162.2Y-69.57
X162.2Y-70.32
X162.2Y-71.082
X162.2Y-82.226
X162.2Y-83.0
X162.2Y-83.75
X162.2Y-84.5
X162.2Y-85.262
X162.22Y-96.98
X162.22Y-97.754
X162.22Y-98.504
X162.22Y-99.254
X162.22Y-100.016
X165.2Y-68.046
X165.2Y-68.82
X165.2Y-69.57
X165.2Y-70.332
X165.2Y-71.082
X165.2Y-82.226
X165.2Y-83.0
X165.2Y-83.75
X165.2Y-84.512
X165.2Y-85.262
X165.22Y-96.98
X165.22Y-97.754
X165.22Y-98.504
X165.22Y-99.266
X165.22Y-100.016
M30
