%TF.GenerationSoftware,KiCad,Pcbnew,8.0.3*%
%TF.CreationDate,2026-06-15T17:10:43-07:00*%
%TF.ProjectId,Panelize_TestBoard_Final,50616e65-6c69-47a6-955f-54657374426f,rev?*%
%TF.SameCoordinates,Original*%
%TF.FileFunction,Paste,Top*%
%TF.FilePolarity,Positive*%
%FSLAX46Y46*%
G04 Gerber Fmt 4.6, Leading zero omitted, Abs format (unit mm)*
G04 Created by KiCad (PCBNEW 8.0.3) date 2026-06-15 17:10:43*
%MOMM*%
%LPD*%
G01*
G04 APERTURE LIST*
G04 Aperture macros list*
%AMRoundRect*
0 Rectangle with rounded corners*
0 $1 Rounding radius*
0 $2 $3 $4 $5 $6 $7 $8 $9 X,Y pos of 4 corners*
0 Add a 4 corners polygon primitive as box body*
4,1,4,$2,$3,$4,$5,$6,$7,$8,$9,$2,$3,0*
0 Add four circle primitives for the rounded corners*
1,1,$1+$1,$2,$3*
1,1,$1+$1,$4,$5*
1,1,$1+$1,$6,$7*
1,1,$1+$1,$8,$9*
0 Add four rect primitives between the rounded corners*
20,1,$1+$1,$2,$3,$4,$5,0*
20,1,$1+$1,$4,$5,$6,$7,0*
20,1,$1+$1,$6,$7,$8,$9,0*
20,1,$1+$1,$8,$9,$2,$3,0*%
%AMRotRect*
0 Rectangle, with rotation*
0 The origin of the aperture is its center*
0 $1 length*
0 $2 width*
0 $3 Rotation angle, in degrees counterclockwise*
0 Add horizontal line*
21,1,$1,$2,0,0,$3*%
%AMFreePoly0*
4,1,5,0.110000,-0.125000,-0.110000,-0.125000,-0.110000,0.125000,0.360000,0.125000,0.110000,-0.125000,0.110000,-0.125000,$1*%
%AMFreePoly1*
4,1,6,0.290000,-0.055000,0.290000,-0.125000,-0.110000,-0.125000,-0.110000,0.125000,0.110000,0.125000,0.290000,-0.055000,0.290000,-0.055000,$1*%
%AMFreePoly2*
4,1,7,0.110000,-0.125000,-0.110000,-0.125000,-0.290000,-0.125000,-0.290000,-0.055000,-0.110000,0.125000,0.110000,0.125000,0.110000,-0.125000,0.110000,-0.125000,$1*%
%AMFreePoly3*
4,1,6,0.110000,-0.125000,-0.110000,-0.125000,-0.290000,0.055000,-0.290000,0.125000,0.110000,0.125000,0.110000,-0.125000,0.110000,-0.125000,$1*%
%AMFreePoly4*
4,1,153,0.406581,1.254743,0.408810,1.254000,0.410000,1.254000,0.411581,1.253743,0.413810,1.253000,0.415000,1.253000,0.416581,1.252743,0.419581,1.251743,0.420236,1.251472,0.421920,1.250630,0.424581,1.249743,0.426536,1.248536,0.427964,1.247108,0.429236,1.246472,0.430536,1.245536,0.431964,1.244108,0.433236,1.243472,0.434536,1.242536,0.442536,1.234536,0.443472,1.233236,
0.444108,1.231964,0.445536,1.230536,0.446472,1.229236,0.447108,1.227964,0.448536,1.226536,0.449743,1.224581,0.450630,1.221920,0.451472,1.220236,0.451743,1.219581,0.452743,1.216581,0.453000,1.215000,0.453000,1.213810,0.453743,1.211581,0.454000,1.210000,0.454000,1.208810,0.454743,1.206581,0.455000,1.205000,0.455000,-0.205000,0.454743,-0.206581,0.454000,-0.208810,
0.454000,-0.210000,0.453743,-0.211581,0.453000,-0.213810,0.453000,-0.215000,0.452743,-0.216581,0.451743,-0.219581,0.451472,-0.220236,0.450630,-0.221920,0.449743,-0.224581,0.448536,-0.226536,0.447108,-0.227964,0.446472,-0.229236,0.445536,-0.230536,0.444108,-0.231964,0.443472,-0.233236,0.442536,-0.234536,0.434536,-0.242536,0.433236,-0.243472,0.431964,-0.244108,0.430536,-0.245536,
0.429236,-0.246472,0.427964,-0.247108,0.426536,-0.248536,0.424581,-0.249743,0.421920,-0.250630,0.420236,-0.251472,0.419581,-0.251743,0.416581,-0.252743,0.415000,-0.253000,0.413810,-0.253000,0.411581,-0.253743,0.410000,-0.254000,0.408810,-0.254000,0.406581,-0.254743,0.405000,-0.255000,-0.405000,-0.255000,-0.406581,-0.254743,-0.408810,-0.254000,-0.410000,-0.254000,-0.411581,-0.253743,
-0.413810,-0.253000,-0.415000,-0.253000,-0.416581,-0.252743,-0.419581,-0.251743,-0.420236,-0.251472,-0.421920,-0.250630,-0.424581,-0.249743,-0.426536,-0.248536,-0.427964,-0.247108,-0.429236,-0.246472,-0.430536,-0.245536,-0.431964,-0.244108,-0.433236,-0.243472,-0.434536,-0.242536,-0.442536,-0.234536,-0.443472,-0.233236,-0.444108,-0.231964,-0.445536,-0.230536,-0.446472,-0.229236,-0.447108,-0.227964,
-0.448536,-0.226536,-0.449743,-0.224581,-0.450630,-0.221920,-0.451472,-0.220236,-0.451743,-0.219581,-0.452743,-0.216581,-0.453000,-0.215000,-0.453000,-0.213810,-0.453743,-0.211581,-0.454000,-0.210000,-0.454000,-0.208810,-0.454743,-0.206581,-0.455000,-0.205000,-0.455000,1.205000,-0.454743,1.206581,-0.454000,1.208810,-0.454000,1.210000,-0.453743,1.211581,-0.453000,1.213810,-0.453000,1.215000,
-0.452743,1.216581,-0.451743,1.219581,-0.451472,1.220236,-0.450630,1.221920,-0.449743,1.224581,-0.448536,1.226536,-0.447108,1.227964,-0.446472,1.229236,-0.445536,1.230536,-0.444108,1.231964,-0.443472,1.233236,-0.442536,1.234536,-0.434536,1.242536,-0.433236,1.243472,-0.431964,1.244108,-0.430536,1.245536,-0.429236,1.246472,-0.427964,1.247108,-0.426536,1.248536,-0.424581,1.249743,
-0.421920,1.250630,-0.420236,1.251472,-0.419581,1.251743,-0.416581,1.252743,-0.415000,1.253000,-0.413810,1.253000,-0.411581,1.253743,-0.410000,1.254000,-0.408810,1.254000,-0.406581,1.254743,-0.405000,1.255000,0.405000,1.255000,0.406581,1.254743,0.406581,1.254743,$1*%
%AMFreePoly5*
4,1,18,-0.125000,0.225000,-0.123097,0.234567,-0.117678,0.242678,-0.109567,0.248097,-0.100000,0.250000,0.062500,0.250000,0.125000,0.187500,0.125000,-0.225000,0.123097,-0.234567,0.117678,-0.242678,0.109567,-0.248097,0.100000,-0.250000,-0.100000,-0.250000,-0.109567,-0.248097,-0.117678,-0.242678,-0.123097,-0.234567,-0.125000,-0.225000,-0.125000,0.225000,-0.125000,0.225000,$1*%
G04 Aperture macros list end*
%ADD10C,0.010000*%
%ADD11RoundRect,0.135000X0.135000X0.185000X-0.135000X0.185000X-0.135000X-0.185000X0.135000X-0.185000X0*%
%ADD12RoundRect,0.135000X0.185000X-0.135000X0.185000X0.135000X-0.185000X0.135000X-0.185000X-0.135000X0*%
%ADD13RoundRect,0.079500X0.079500X0.100500X-0.079500X0.100500X-0.079500X-0.100500X0.079500X-0.100500X0*%
%ADD14RoundRect,0.079500X0.100500X-0.079500X0.100500X0.079500X-0.100500X0.079500X-0.100500X-0.079500X0*%
%ADD15R,0.300000X0.270000*%
%ADD16RoundRect,0.079500X-0.079500X-0.100500X0.079500X-0.100500X0.079500X0.100500X-0.079500X0.100500X0*%
%ADD17RoundRect,0.150000X0.512500X0.150000X-0.512500X0.150000X-0.512500X-0.150000X0.512500X-0.150000X0*%
%ADD18FreePoly0,270.000000*%
%ADD19FreePoly1,270.000000*%
%ADD20FreePoly2,270.000000*%
%ADD21FreePoly3,270.000000*%
%ADD22RotRect,0.480000X0.480000X315.000000*%
%ADD23RoundRect,0.225000X0.225000X0.375000X-0.225000X0.375000X-0.225000X-0.375000X0.225000X-0.375000X0*%
%ADD24RoundRect,0.140000X-0.140000X-0.170000X0.140000X-0.170000X0.140000X0.170000X-0.140000X0.170000X0*%
%ADD25RoundRect,0.140000X0.170000X-0.140000X0.170000X0.140000X-0.170000X0.140000X-0.170000X-0.140000X0*%
%ADD26C,0.290000*%
%ADD27RoundRect,0.135000X-0.135000X-0.185000X0.135000X-0.185000X0.135000X0.185000X-0.135000X0.185000X0*%
%ADD28RoundRect,0.225000X0.225000X0.250000X-0.225000X0.250000X-0.225000X-0.250000X0.225000X-0.250000X0*%
%ADD29R,0.270000X0.300000*%
%ADD30RoundRect,0.225000X-0.375000X0.225000X-0.375000X-0.225000X0.375000X-0.225000X0.375000X0.225000X0*%
%ADD31RoundRect,0.225000X-0.225000X-0.250000X0.225000X-0.250000X0.225000X0.250000X-0.225000X0.250000X0*%
%ADD32RoundRect,0.140000X0.140000X0.170000X-0.140000X0.170000X-0.140000X-0.170000X0.140000X-0.170000X0*%
%ADD33RoundRect,0.112500X0.237500X-0.112500X0.237500X0.112500X-0.237500X0.112500X-0.237500X-0.112500X0*%
%ADD34RoundRect,0.050000X-0.200000X-0.050000X0.200000X-0.050000X0.200000X0.050000X-0.200000X0.050000X0*%
%ADD35FreePoly4,0.000000*%
%ADD36RoundRect,0.070000X0.280000X-0.530000X0.280000X0.530000X-0.280000X0.530000X-0.280000X-0.530000X0*%
%ADD37RoundRect,0.080000X0.320000X-0.520000X0.320000X0.520000X-0.320000X0.520000X-0.320000X-0.520000X0*%
%ADD38RoundRect,0.090000X0.360000X-0.510000X0.360000X0.510000X-0.360000X0.510000X-0.360000X-0.510000X0*%
%ADD39RoundRect,0.079500X-0.100500X0.079500X-0.100500X-0.079500X0.100500X-0.079500X0.100500X0.079500X0*%
%ADD40RoundRect,0.037500X-0.087500X-0.212500X0.087500X-0.212500X0.087500X0.212500X-0.087500X0.212500X0*%
%ADD41FreePoly5,0.000000*%
%ADD42RoundRect,0.218750X-0.256250X0.218750X-0.256250X-0.218750X0.256250X-0.218750X0.256250X0.218750X0*%
%ADD43RoundRect,0.050000X0.200000X0.050000X-0.200000X0.050000X-0.200000X-0.050000X0.200000X-0.050000X0*%
%ADD44FreePoly4,180.000000*%
%ADD45RoundRect,0.112500X-0.112500X0.187500X-0.112500X-0.187500X0.112500X-0.187500X0.112500X0.187500X0*%
%ADD46RoundRect,0.218750X0.256250X-0.218750X0.256250X0.218750X-0.256250X0.218750X-0.256250X-0.218750X0*%
%ADD47R,0.800000X0.400000*%
%ADD48RoundRect,0.037500X0.087500X0.212500X-0.087500X0.212500X-0.087500X-0.212500X0.087500X-0.212500X0*%
%ADD49FreePoly5,180.000000*%
%ADD50RoundRect,0.070000X-0.280000X0.530000X-0.280000X-0.530000X0.280000X-0.530000X0.280000X0.530000X0*%
%ADD51RoundRect,0.080000X-0.320000X0.520000X-0.320000X-0.520000X0.320000X-0.520000X0.320000X0.520000X0*%
%ADD52RoundRect,0.090000X-0.360000X0.510000X-0.360000X-0.510000X0.360000X-0.510000X0.360000X0.510000X0*%
%ADD53RoundRect,0.225000X0.250000X-0.225000X0.250000X0.225000X-0.250000X0.225000X-0.250000X-0.225000X0*%
%ADD54RoundRect,0.140000X-0.170000X0.140000X-0.170000X-0.140000X0.170000X-0.140000X0.170000X0.140000X0*%
%ADD55RoundRect,0.112500X-0.187500X-0.112500X0.187500X-0.112500X0.187500X0.112500X-0.187500X0.112500X0*%
%ADD56RoundRect,0.075000X-0.540000X-0.225000X0.540000X-0.225000X0.540000X0.225000X-0.540000X0.225000X0*%
%ADD57R,0.600000X0.850000*%
%ADD58R,0.700000X1.000000*%
%ADD59RoundRect,0.150000X0.150000X-0.512500X0.150000X0.512500X-0.150000X0.512500X-0.150000X-0.512500X0*%
%ADD60R,0.900000X0.800000*%
%ADD61RoundRect,0.150000X-0.587500X-0.150000X0.587500X-0.150000X0.587500X0.150000X-0.587500X0.150000X0*%
%ADD62R,1.100000X3.700000*%
%ADD63RoundRect,0.135000X-0.185000X0.135000X-0.185000X-0.135000X0.185000X-0.135000X0.185000X0.135000X0*%
%ADD64RoundRect,0.225000X0.375000X-0.225000X0.375000X0.225000X-0.375000X0.225000X-0.375000X-0.225000X0*%
%ADD65R,2.700000X1.400000*%
%ADD66R,0.850000X0.600000*%
%ADD67R,1.000000X0.700000*%
%ADD68RoundRect,0.027500X-0.082500X0.377500X-0.082500X-0.377500X0.082500X-0.377500X0.082500X0.377500X0*%
%ADD69RoundRect,0.027500X-0.377500X0.082500X-0.377500X-0.082500X0.377500X-0.082500X0.377500X0.082500X0*%
%ADD70RoundRect,0.027500X0.082500X-0.377500X0.082500X0.377500X-0.082500X0.377500X-0.082500X-0.377500X0*%
%ADD71RoundRect,0.027500X0.377500X-0.082500X0.377500X0.082500X-0.377500X0.082500X-0.377500X-0.082500X0*%
%ADD72R,3.700000X1.100000*%
G04 APERTURE END LIST*
D10*
%TO.C,U2*%
X197810491Y-83907007D02*
X197812491Y-83907007D01*
X197815491Y-83908007D01*
X197817491Y-83908007D01*
X197820491Y-83909007D01*
X197822491Y-83910007D01*
X197825491Y-83911007D01*
X197827491Y-83913007D01*
X197829491Y-83914007D01*
X197831491Y-83916007D01*
X197833491Y-83917007D01*
X197835491Y-83919007D01*
X197837491Y-83921007D01*
X197839491Y-83923007D01*
X197841491Y-83925007D01*
X197842491Y-83927007D01*
X197844491Y-83929007D01*
X197845491Y-83931007D01*
X197847491Y-83933007D01*
X197848491Y-83936007D01*
X197849491Y-83938007D01*
X197850491Y-83941007D01*
X197850491Y-83943007D01*
X197851491Y-83946007D01*
X197851491Y-83948007D01*
X197852491Y-83951007D01*
X197852491Y-83953007D01*
X197852491Y-83956007D01*
X197852491Y-85236007D01*
X197852491Y-85239007D01*
X197852491Y-85241007D01*
X197851491Y-85244007D01*
X197851491Y-85246007D01*
X197850491Y-85249007D01*
X197850491Y-85251007D01*
X197849491Y-85254007D01*
X197848491Y-85256007D01*
X197847491Y-85259007D01*
X197845491Y-85261007D01*
X197844491Y-85263007D01*
X197842491Y-85265007D01*
X197841491Y-85267007D01*
X197839491Y-85269007D01*
X197837491Y-85271007D01*
X197835491Y-85273007D01*
X197833491Y-85275007D01*
X197831491Y-85276007D01*
X197829491Y-85278007D01*
X197827491Y-85279007D01*
X197825491Y-85281007D01*
X197822491Y-85282007D01*
X197820491Y-85283007D01*
X197817491Y-85284007D01*
X197815491Y-85284007D01*
X197812491Y-85285007D01*
X197810491Y-85285007D01*
X197807491Y-85286007D01*
X197805491Y-85286007D01*
X197802491Y-85286007D01*
X197052491Y-85286007D01*
X197049491Y-85286007D01*
X197047491Y-85286007D01*
X197044491Y-85285007D01*
X197042491Y-85285007D01*
X197039491Y-85284007D01*
X197037491Y-85284007D01*
X197034491Y-85283007D01*
X197032491Y-85282007D01*
X197029491Y-85281007D01*
X197027491Y-85279007D01*
X197025491Y-85278007D01*
X197023491Y-85276007D01*
X197021491Y-85275007D01*
X197019491Y-85273007D01*
X197017491Y-85271007D01*
X197015491Y-85269007D01*
X197013491Y-85267007D01*
X197012491Y-85265007D01*
X197010491Y-85263007D01*
X197009491Y-85261007D01*
X197007491Y-85259007D01*
X197006491Y-85256007D01*
X197005491Y-85254007D01*
X197004491Y-85251007D01*
X197004491Y-85249007D01*
X197003491Y-85246007D01*
X197003491Y-85244007D01*
X197002491Y-85241007D01*
X197002491Y-85239007D01*
X197002491Y-85236007D01*
X197002491Y-83956007D01*
X197002491Y-83953007D01*
X197002491Y-83951007D01*
X197003491Y-83948007D01*
X197003491Y-83946007D01*
X197004491Y-83943007D01*
X197004491Y-83941007D01*
X197005491Y-83938007D01*
X197006491Y-83936007D01*
X197007491Y-83933007D01*
X197009491Y-83931007D01*
X197010491Y-83929007D01*
X197012491Y-83927007D01*
X197013491Y-83925007D01*
X197015491Y-83923007D01*
X197017491Y-83921007D01*
X197019491Y-83919007D01*
X197021491Y-83917007D01*
X197023491Y-83916007D01*
X197025491Y-83914007D01*
X197027491Y-83913007D01*
X197029491Y-83911007D01*
X197032491Y-83910007D01*
X197034491Y-83909007D01*
X197037491Y-83908007D01*
X197039491Y-83908007D01*
X197042491Y-83907007D01*
X197044491Y-83907007D01*
X197047491Y-83906007D01*
X197049491Y-83906007D01*
X197052491Y-83906007D01*
X197802491Y-83906007D01*
X197805491Y-83906007D01*
X197807491Y-83906007D01*
X197810491Y-83907007D01*
G36*
X197810491Y-83907007D02*
G01*
X197812491Y-83907007D01*
X197815491Y-83908007D01*
X197817491Y-83908007D01*
X197820491Y-83909007D01*
X197822491Y-83910007D01*
X197825491Y-83911007D01*
X197827491Y-83913007D01*
X197829491Y-83914007D01*
X197831491Y-83916007D01*
X197833491Y-83917007D01*
X197835491Y-83919007D01*
X197837491Y-83921007D01*
X197839491Y-83923007D01*
X197841491Y-83925007D01*
X197842491Y-83927007D01*
X197844491Y-83929007D01*
X197845491Y-83931007D01*
X197847491Y-83933007D01*
X197848491Y-83936007D01*
X197849491Y-83938007D01*
X197850491Y-83941007D01*
X197850491Y-83943007D01*
X197851491Y-83946007D01*
X197851491Y-83948007D01*
X197852491Y-83951007D01*
X197852491Y-83953007D01*
X197852491Y-83956007D01*
X197852491Y-85236007D01*
X197852491Y-85239007D01*
X197852491Y-85241007D01*
X197851491Y-85244007D01*
X197851491Y-85246007D01*
X197850491Y-85249007D01*
X197850491Y-85251007D01*
X197849491Y-85254007D01*
X197848491Y-85256007D01*
X197847491Y-85259007D01*
X197845491Y-85261007D01*
X197844491Y-85263007D01*
X197842491Y-85265007D01*
X197841491Y-85267007D01*
X197839491Y-85269007D01*
X197837491Y-85271007D01*
X197835491Y-85273007D01*
X197833491Y-85275007D01*
X197831491Y-85276007D01*
X197829491Y-85278007D01*
X197827491Y-85279007D01*
X197825491Y-85281007D01*
X197822491Y-85282007D01*
X197820491Y-85283007D01*
X197817491Y-85284007D01*
X197815491Y-85284007D01*
X197812491Y-85285007D01*
X197810491Y-85285007D01*
X197807491Y-85286007D01*
X197805491Y-85286007D01*
X197802491Y-85286007D01*
X197052491Y-85286007D01*
X197049491Y-85286007D01*
X197047491Y-85286007D01*
X197044491Y-85285007D01*
X197042491Y-85285007D01*
X197039491Y-85284007D01*
X197037491Y-85284007D01*
X197034491Y-85283007D01*
X197032491Y-85282007D01*
X197029491Y-85281007D01*
X197027491Y-85279007D01*
X197025491Y-85278007D01*
X197023491Y-85276007D01*
X197021491Y-85275007D01*
X197019491Y-85273007D01*
X197017491Y-85271007D01*
X197015491Y-85269007D01*
X197013491Y-85267007D01*
X197012491Y-85265007D01*
X197010491Y-85263007D01*
X197009491Y-85261007D01*
X197007491Y-85259007D01*
X197006491Y-85256007D01*
X197005491Y-85254007D01*
X197004491Y-85251007D01*
X197004491Y-85249007D01*
X197003491Y-85246007D01*
X197003491Y-85244007D01*
X197002491Y-85241007D01*
X197002491Y-85239007D01*
X197002491Y-85236007D01*
X197002491Y-83956007D01*
X197002491Y-83953007D01*
X197002491Y-83951007D01*
X197003491Y-83948007D01*
X197003491Y-83946007D01*
X197004491Y-83943007D01*
X197004491Y-83941007D01*
X197005491Y-83938007D01*
X197006491Y-83936007D01*
X197007491Y-83933007D01*
X197009491Y-83931007D01*
X197010491Y-83929007D01*
X197012491Y-83927007D01*
X197013491Y-83925007D01*
X197015491Y-83923007D01*
X197017491Y-83921007D01*
X197019491Y-83919007D01*
X197021491Y-83917007D01*
X197023491Y-83916007D01*
X197025491Y-83914007D01*
X197027491Y-83913007D01*
X197029491Y-83911007D01*
X197032491Y-83910007D01*
X197034491Y-83909007D01*
X197037491Y-83908007D01*
X197039491Y-83908007D01*
X197042491Y-83907007D01*
X197044491Y-83907007D01*
X197047491Y-83906007D01*
X197049491Y-83906007D01*
X197052491Y-83906007D01*
X197802491Y-83906007D01*
X197805491Y-83906007D01*
X197807491Y-83906007D01*
X197810491Y-83907007D01*
G37*
X148379211Y-74266174D02*
X148381211Y-74266174D01*
X148384211Y-74267174D01*
X148386211Y-74267174D01*
X148389211Y-74268174D01*
X148391211Y-74269174D01*
X148394211Y-74270174D01*
X148396211Y-74272174D01*
X148398211Y-74273174D01*
X148400211Y-74275174D01*
X148402211Y-74276174D01*
X148404211Y-74278174D01*
X148406211Y-74280174D01*
X148408211Y-74282174D01*
X148410211Y-74284174D01*
X148411211Y-74286174D01*
X148413211Y-74288174D01*
X148414211Y-74290174D01*
X148416211Y-74292174D01*
X148417211Y-74295174D01*
X148418211Y-74297174D01*
X148419211Y-74300174D01*
X148419211Y-74302174D01*
X148420211Y-74305174D01*
X148420211Y-74307174D01*
X148421211Y-74310174D01*
X148421211Y-74312174D01*
X148421211Y-74315174D01*
X148421211Y-75595174D01*
X148421211Y-75598174D01*
X148421211Y-75600174D01*
X148420211Y-75603174D01*
X148420211Y-75605174D01*
X148419211Y-75608174D01*
X148419211Y-75610174D01*
X148418211Y-75613174D01*
X148417211Y-75615174D01*
X148416211Y-75618174D01*
X148414211Y-75620174D01*
X148413211Y-75622174D01*
X148411211Y-75624174D01*
X148410211Y-75626174D01*
X148408211Y-75628174D01*
X148406211Y-75630174D01*
X148404211Y-75632174D01*
X148402211Y-75634174D01*
X148400211Y-75635174D01*
X148398211Y-75637174D01*
X148396211Y-75638174D01*
X148394211Y-75640174D01*
X148391211Y-75641174D01*
X148389211Y-75642174D01*
X148386211Y-75643174D01*
X148384211Y-75643174D01*
X148381211Y-75644174D01*
X148379211Y-75644174D01*
X148376211Y-75645174D01*
X148374211Y-75645174D01*
X148371211Y-75645174D01*
X147621211Y-75645174D01*
X147618211Y-75645174D01*
X147616211Y-75645174D01*
X147613211Y-75644174D01*
X147611211Y-75644174D01*
X147608211Y-75643174D01*
X147606211Y-75643174D01*
X147603211Y-75642174D01*
X147601211Y-75641174D01*
X147598211Y-75640174D01*
X147596211Y-75638174D01*
X147594211Y-75637174D01*
X147592211Y-75635174D01*
X147590211Y-75634174D01*
X147588211Y-75632174D01*
X147586211Y-75630174D01*
X147584211Y-75628174D01*
X147582211Y-75626174D01*
X147581211Y-75624174D01*
X147579211Y-75622174D01*
X147578211Y-75620174D01*
X147576211Y-75618174D01*
X147575211Y-75615174D01*
X147574211Y-75613174D01*
X147573211Y-75610174D01*
X147573211Y-75608174D01*
X147572211Y-75605174D01*
X147572211Y-75603174D01*
X147571211Y-75600174D01*
X147571211Y-75598174D01*
X147571211Y-75595174D01*
X147571211Y-74315174D01*
X147571211Y-74312174D01*
X147571211Y-74310174D01*
X147572211Y-74307174D01*
X147572211Y-74305174D01*
X147573211Y-74302174D01*
X147573211Y-74300174D01*
X147574211Y-74297174D01*
X147575211Y-74295174D01*
X147576211Y-74292174D01*
X147578211Y-74290174D01*
X147579211Y-74288174D01*
X147581211Y-74286174D01*
X147582211Y-74284174D01*
X147584211Y-74282174D01*
X147586211Y-74280174D01*
X147588211Y-74278174D01*
X147590211Y-74276174D01*
X147592211Y-74275174D01*
X147594211Y-74273174D01*
X147596211Y-74272174D01*
X147598211Y-74270174D01*
X147601211Y-74269174D01*
X147603211Y-74268174D01*
X147606211Y-74267174D01*
X147608211Y-74267174D01*
X147611211Y-74266174D01*
X147613211Y-74266174D01*
X147616211Y-74265174D01*
X147618211Y-74265174D01*
X147621211Y-74265174D01*
X148371211Y-74265174D01*
X148374211Y-74265174D01*
X148376211Y-74265174D01*
X148379211Y-74266174D01*
G36*
X148379211Y-74266174D02*
G01*
X148381211Y-74266174D01*
X148384211Y-74267174D01*
X148386211Y-74267174D01*
X148389211Y-74268174D01*
X148391211Y-74269174D01*
X148394211Y-74270174D01*
X148396211Y-74272174D01*
X148398211Y-74273174D01*
X148400211Y-74275174D01*
X148402211Y-74276174D01*
X148404211Y-74278174D01*
X148406211Y-74280174D01*
X148408211Y-74282174D01*
X148410211Y-74284174D01*
X148411211Y-74286174D01*
X148413211Y-74288174D01*
X148414211Y-74290174D01*
X148416211Y-74292174D01*
X148417211Y-74295174D01*
X148418211Y-74297174D01*
X148419211Y-74300174D01*
X148419211Y-74302174D01*
X148420211Y-74305174D01*
X148420211Y-74307174D01*
X148421211Y-74310174D01*
X148421211Y-74312174D01*
X148421211Y-74315174D01*
X148421211Y-75595174D01*
X148421211Y-75598174D01*
X148421211Y-75600174D01*
X148420211Y-75603174D01*
X148420211Y-75605174D01*
X148419211Y-75608174D01*
X148419211Y-75610174D01*
X148418211Y-75613174D01*
X148417211Y-75615174D01*
X148416211Y-75618174D01*
X148414211Y-75620174D01*
X148413211Y-75622174D01*
X148411211Y-75624174D01*
X148410211Y-75626174D01*
X148408211Y-75628174D01*
X148406211Y-75630174D01*
X148404211Y-75632174D01*
X148402211Y-75634174D01*
X148400211Y-75635174D01*
X148398211Y-75637174D01*
X148396211Y-75638174D01*
X148394211Y-75640174D01*
X148391211Y-75641174D01*
X148389211Y-75642174D01*
X148386211Y-75643174D01*
X148384211Y-75643174D01*
X148381211Y-75644174D01*
X148379211Y-75644174D01*
X148376211Y-75645174D01*
X148374211Y-75645174D01*
X148371211Y-75645174D01*
X147621211Y-75645174D01*
X147618211Y-75645174D01*
X147616211Y-75645174D01*
X147613211Y-75644174D01*
X147611211Y-75644174D01*
X147608211Y-75643174D01*
X147606211Y-75643174D01*
X147603211Y-75642174D01*
X147601211Y-75641174D01*
X147598211Y-75640174D01*
X147596211Y-75638174D01*
X147594211Y-75637174D01*
X147592211Y-75635174D01*
X147590211Y-75634174D01*
X147588211Y-75632174D01*
X147586211Y-75630174D01*
X147584211Y-75628174D01*
X147582211Y-75626174D01*
X147581211Y-75624174D01*
X147579211Y-75622174D01*
X147578211Y-75620174D01*
X147576211Y-75618174D01*
X147575211Y-75615174D01*
X147574211Y-75613174D01*
X147573211Y-75610174D01*
X147573211Y-75608174D01*
X147572211Y-75605174D01*
X147572211Y-75603174D01*
X147571211Y-75600174D01*
X147571211Y-75598174D01*
X147571211Y-75595174D01*
X147571211Y-74315174D01*
X147571211Y-74312174D01*
X147571211Y-74310174D01*
X147572211Y-74307174D01*
X147572211Y-74305174D01*
X147573211Y-74302174D01*
X147573211Y-74300174D01*
X147574211Y-74297174D01*
X147575211Y-74295174D01*
X147576211Y-74292174D01*
X147578211Y-74290174D01*
X147579211Y-74288174D01*
X147581211Y-74286174D01*
X147582211Y-74284174D01*
X147584211Y-74282174D01*
X147586211Y-74280174D01*
X147588211Y-74278174D01*
X147590211Y-74276174D01*
X147592211Y-74275174D01*
X147594211Y-74273174D01*
X147596211Y-74272174D01*
X147598211Y-74270174D01*
X147601211Y-74269174D01*
X147603211Y-74268174D01*
X147606211Y-74267174D01*
X147608211Y-74267174D01*
X147611211Y-74266174D01*
X147613211Y-74266174D01*
X147616211Y-74265174D01*
X147618211Y-74265174D01*
X147621211Y-74265174D01*
X148371211Y-74265174D01*
X148374211Y-74265174D01*
X148376211Y-74265174D01*
X148379211Y-74266174D01*
G37*
%TO.C,J7*%
X179159991Y-91401007D02*
X178509991Y-91401007D01*
X178509991Y-91151007D01*
X179159991Y-91151007D01*
X179159991Y-91401007D01*
G36*
X179159991Y-91401007D02*
G01*
X178509991Y-91401007D01*
X178509991Y-91151007D01*
X179159991Y-91151007D01*
X179159991Y-91401007D01*
G37*
X179159991Y-91901007D02*
X178509991Y-91901007D01*
X178509991Y-91651007D01*
X179159991Y-91651007D01*
X179159991Y-91901007D01*
G36*
X179159991Y-91901007D02*
G01*
X178509991Y-91901007D01*
X178509991Y-91651007D01*
X179159991Y-91651007D01*
X179159991Y-91901007D01*
G37*
X179159991Y-92401007D02*
X178509991Y-92401007D01*
X178509991Y-92151007D01*
X179159991Y-92151007D01*
X179159991Y-92401007D01*
G36*
X179159991Y-92401007D02*
G01*
X178509991Y-92401007D01*
X178509991Y-92151007D01*
X179159991Y-92151007D01*
X179159991Y-92401007D01*
G37*
X179159991Y-92901007D02*
X178509991Y-92901007D01*
X178509991Y-92651007D01*
X179159991Y-92651007D01*
X179159991Y-92901007D01*
G36*
X179159991Y-92901007D02*
G01*
X178509991Y-92901007D01*
X178509991Y-92651007D01*
X179159991Y-92651007D01*
X179159991Y-92901007D01*
G37*
X179159991Y-93401007D02*
X178509991Y-93401007D01*
X178509991Y-93151007D01*
X179159991Y-93151007D01*
X179159991Y-93401007D01*
G36*
X179159991Y-93401007D02*
G01*
X178509991Y-93401007D01*
X178509991Y-93151007D01*
X179159991Y-93151007D01*
X179159991Y-93401007D01*
G37*
X179159991Y-93901007D02*
X178509991Y-93901007D01*
X178509991Y-93651007D01*
X179159991Y-93651007D01*
X179159991Y-93901007D01*
G36*
X179159991Y-93901007D02*
G01*
X178509991Y-93901007D01*
X178509991Y-93651007D01*
X179159991Y-93651007D01*
X179159991Y-93901007D01*
G37*
X179159991Y-94401007D02*
X178509991Y-94401007D01*
X178509991Y-94151007D01*
X179159991Y-94151007D01*
X179159991Y-94401007D01*
G36*
X179159991Y-94401007D02*
G01*
X178509991Y-94401007D01*
X178509991Y-94151007D01*
X179159991Y-94151007D01*
X179159991Y-94401007D01*
G37*
X179159991Y-94901007D02*
X178509991Y-94901007D01*
X178509991Y-94651007D01*
X179159991Y-94651007D01*
X179159991Y-94901007D01*
G36*
X179159991Y-94901007D02*
G01*
X178509991Y-94901007D01*
X178509991Y-94651007D01*
X179159991Y-94651007D01*
X179159991Y-94901007D01*
G37*
X179159991Y-95401007D02*
X178509991Y-95401007D01*
X178509991Y-95151007D01*
X179159991Y-95151007D01*
X179159991Y-95401007D01*
G36*
X179159991Y-95401007D02*
G01*
X178509991Y-95401007D01*
X178509991Y-95151007D01*
X179159991Y-95151007D01*
X179159991Y-95401007D01*
G37*
X179159991Y-95901007D02*
X178509991Y-95901007D01*
X178509991Y-95651007D01*
X179159991Y-95651007D01*
X179159991Y-95901007D01*
G36*
X179159991Y-95901007D02*
G01*
X178509991Y-95901007D01*
X178509991Y-95651007D01*
X179159991Y-95651007D01*
X179159991Y-95901007D01*
G37*
X179159991Y-96401007D02*
X178509991Y-96401007D01*
X178509991Y-96151007D01*
X179159991Y-96151007D01*
X179159991Y-96401007D01*
G36*
X179159991Y-96401007D02*
G01*
X178509991Y-96401007D01*
X178509991Y-96151007D01*
X179159991Y-96151007D01*
X179159991Y-96401007D01*
G37*
X179159991Y-96901007D02*
X178509991Y-96901007D01*
X178509991Y-96651007D01*
X179159991Y-96651007D01*
X179159991Y-96901007D01*
G36*
X179159991Y-96901007D02*
G01*
X178509991Y-96901007D01*
X178509991Y-96651007D01*
X179159991Y-96651007D01*
X179159991Y-96901007D01*
G37*
X179159991Y-97401007D02*
X178509991Y-97401007D01*
X178509991Y-97151007D01*
X179159991Y-97151007D01*
X179159991Y-97401007D01*
G36*
X179159991Y-97401007D02*
G01*
X178509991Y-97401007D01*
X178509991Y-97151007D01*
X179159991Y-97151007D01*
X179159991Y-97401007D01*
G37*
X179159991Y-97901007D02*
X178509991Y-97901007D01*
X178509991Y-97651007D01*
X179159991Y-97651007D01*
X179159991Y-97901007D01*
G36*
X179159991Y-97901007D02*
G01*
X178509991Y-97901007D01*
X178509991Y-97651007D01*
X179159991Y-97651007D01*
X179159991Y-97901007D01*
G37*
X179159991Y-98401007D02*
X178509991Y-98401007D01*
X178509991Y-98151007D01*
X179159991Y-98151007D01*
X179159991Y-98401007D01*
G36*
X179159991Y-98401007D02*
G01*
X178509991Y-98401007D01*
X178509991Y-98151007D01*
X179159991Y-98151007D01*
X179159991Y-98401007D01*
G37*
X179159991Y-98901007D02*
X178509991Y-98901007D01*
X178509991Y-98651007D01*
X179159991Y-98651007D01*
X179159991Y-98901007D01*
G36*
X179159991Y-98901007D02*
G01*
X178509991Y-98901007D01*
X178509991Y-98651007D01*
X179159991Y-98651007D01*
X179159991Y-98901007D01*
G37*
X179159991Y-99401007D02*
X178509991Y-99401007D01*
X178509991Y-99151007D01*
X179159991Y-99151007D01*
X179159991Y-99401007D01*
G36*
X179159991Y-99401007D02*
G01*
X178509991Y-99401007D01*
X178509991Y-99151007D01*
X179159991Y-99151007D01*
X179159991Y-99401007D01*
G37*
X179159991Y-99901007D02*
X178509991Y-99901007D01*
X178509991Y-99651007D01*
X179159991Y-99651007D01*
X179159991Y-99901007D01*
G36*
X179159991Y-99901007D02*
G01*
X178509991Y-99901007D01*
X178509991Y-99651007D01*
X179159991Y-99651007D01*
X179159991Y-99901007D01*
G37*
X179159991Y-100401007D02*
X178509991Y-100401007D01*
X178509991Y-100151007D01*
X179159991Y-100151007D01*
X179159991Y-100401007D01*
G36*
X179159991Y-100401007D02*
G01*
X178509991Y-100401007D01*
X178509991Y-100151007D01*
X179159991Y-100151007D01*
X179159991Y-100401007D01*
G37*
X179159991Y-100901007D02*
X178509991Y-100901007D01*
X178509991Y-100651007D01*
X179159991Y-100651007D01*
X179159991Y-100901007D01*
G36*
X179159991Y-100901007D02*
G01*
X178509991Y-100901007D01*
X178509991Y-100651007D01*
X179159991Y-100651007D01*
X179159991Y-100901007D01*
G37*
X179159991Y-101401007D02*
X178509991Y-101401007D01*
X178509991Y-101151007D01*
X179159991Y-101151007D01*
X179159991Y-101401007D01*
G36*
X179159991Y-101401007D02*
G01*
X178509991Y-101401007D01*
X178509991Y-101151007D01*
X179159991Y-101151007D01*
X179159991Y-101401007D01*
G37*
X179159991Y-101901007D02*
X178509991Y-101901007D01*
X178509991Y-101651007D01*
X179159991Y-101651007D01*
X179159991Y-101901007D01*
G36*
X179159991Y-101901007D02*
G01*
X178509991Y-101901007D01*
X178509991Y-101651007D01*
X179159991Y-101651007D01*
X179159991Y-101901007D01*
G37*
X179159991Y-102401007D02*
X178509991Y-102401007D01*
X178509991Y-102151007D01*
X179159991Y-102151007D01*
X179159991Y-102401007D01*
G36*
X179159991Y-102401007D02*
G01*
X178509991Y-102401007D01*
X178509991Y-102151007D01*
X179159991Y-102151007D01*
X179159991Y-102401007D01*
G37*
X179159991Y-102901007D02*
X178509991Y-102901007D01*
X178509991Y-102651007D01*
X179159991Y-102651007D01*
X179159991Y-102901007D01*
G36*
X179159991Y-102901007D02*
G01*
X178509991Y-102901007D01*
X178509991Y-102651007D01*
X179159991Y-102651007D01*
X179159991Y-102901007D01*
G37*
X179159991Y-103401007D02*
X178509991Y-103401007D01*
X178509991Y-103151007D01*
X179159991Y-103151007D01*
X179159991Y-103401007D01*
G36*
X179159991Y-103401007D02*
G01*
X178509991Y-103401007D01*
X178509991Y-103151007D01*
X179159991Y-103151007D01*
X179159991Y-103401007D01*
G37*
X179159991Y-103901007D02*
X178509991Y-103901007D01*
X178509991Y-103651007D01*
X179159991Y-103651007D01*
X179159991Y-103901007D01*
G36*
X179159991Y-103901007D02*
G01*
X178509991Y-103901007D01*
X178509991Y-103651007D01*
X179159991Y-103651007D01*
X179159991Y-103901007D01*
G37*
X179159991Y-104401007D02*
X178509991Y-104401007D01*
X178509991Y-104151007D01*
X179159991Y-104151007D01*
X179159991Y-104401007D01*
G36*
X179159991Y-104401007D02*
G01*
X178509991Y-104401007D01*
X178509991Y-104151007D01*
X179159991Y-104151007D01*
X179159991Y-104401007D01*
G37*
X179159991Y-104901007D02*
X178509991Y-104901007D01*
X178509991Y-104651007D01*
X179159991Y-104651007D01*
X179159991Y-104901007D01*
G36*
X179159991Y-104901007D02*
G01*
X178509991Y-104901007D01*
X178509991Y-104651007D01*
X179159991Y-104651007D01*
X179159991Y-104901007D01*
G37*
X179159991Y-105401007D02*
X178509991Y-105401007D01*
X178509991Y-105151007D01*
X179159991Y-105151007D01*
X179159991Y-105401007D01*
G36*
X179159991Y-105401007D02*
G01*
X178509991Y-105401007D01*
X178509991Y-105151007D01*
X179159991Y-105151007D01*
X179159991Y-105401007D01*
G37*
X179159991Y-105901007D02*
X178509991Y-105901007D01*
X178509991Y-105651007D01*
X179159991Y-105651007D01*
X179159991Y-105901007D01*
G36*
X179159991Y-105901007D02*
G01*
X178509991Y-105901007D01*
X178509991Y-105651007D01*
X179159991Y-105651007D01*
X179159991Y-105901007D01*
G37*
X179159991Y-106401007D02*
X178509991Y-106401007D01*
X178509991Y-106151007D01*
X179159991Y-106151007D01*
X179159991Y-106401007D01*
G36*
X179159991Y-106401007D02*
G01*
X178509991Y-106401007D01*
X178509991Y-106151007D01*
X179159991Y-106151007D01*
X179159991Y-106401007D01*
G37*
X179159991Y-106901007D02*
X178509991Y-106901007D01*
X178509991Y-106651007D01*
X179159991Y-106651007D01*
X179159991Y-106901007D01*
G36*
X179159991Y-106901007D02*
G01*
X178509991Y-106901007D01*
X178509991Y-106651007D01*
X179159991Y-106651007D01*
X179159991Y-106901007D01*
G37*
X179159991Y-107401007D02*
X178509991Y-107401007D01*
X178509991Y-107151007D01*
X179159991Y-107151007D01*
X179159991Y-107401007D01*
G36*
X179159991Y-107401007D02*
G01*
X178509991Y-107401007D01*
X178509991Y-107151007D01*
X179159991Y-107151007D01*
X179159991Y-107401007D01*
G37*
X179159991Y-107901007D02*
X178509991Y-107901007D01*
X178509991Y-107651007D01*
X179159991Y-107651007D01*
X179159991Y-107901007D01*
G36*
X179159991Y-107901007D02*
G01*
X178509991Y-107901007D01*
X178509991Y-107651007D01*
X179159991Y-107651007D01*
X179159991Y-107901007D01*
G37*
X179159991Y-108401007D02*
X178509991Y-108401007D01*
X178509991Y-108151007D01*
X179159991Y-108151007D01*
X179159991Y-108401007D01*
G36*
X179159991Y-108401007D02*
G01*
X178509991Y-108401007D01*
X178509991Y-108151007D01*
X179159991Y-108151007D01*
X179159991Y-108401007D01*
G37*
X179159991Y-108901007D02*
X178509991Y-108901007D01*
X178509991Y-108651007D01*
X179159991Y-108651007D01*
X179159991Y-108901007D01*
G36*
X179159991Y-108901007D02*
G01*
X178509991Y-108901007D01*
X178509991Y-108651007D01*
X179159991Y-108651007D01*
X179159991Y-108901007D01*
G37*
X179159991Y-109401007D02*
X178509991Y-109401007D01*
X178509991Y-109151007D01*
X179159991Y-109151007D01*
X179159991Y-109401007D01*
G36*
X179159991Y-109401007D02*
G01*
X178509991Y-109401007D01*
X178509991Y-109151007D01*
X179159991Y-109151007D01*
X179159991Y-109401007D01*
G37*
X179159991Y-109901007D02*
X178509991Y-109901007D01*
X178509991Y-109651007D01*
X179159991Y-109651007D01*
X179159991Y-109901007D01*
G36*
X179159991Y-109901007D02*
G01*
X178509991Y-109901007D01*
X178509991Y-109651007D01*
X179159991Y-109651007D01*
X179159991Y-109901007D01*
G37*
X179159991Y-110401007D02*
X178509991Y-110401007D01*
X178509991Y-110151007D01*
X179159991Y-110151007D01*
X179159991Y-110401007D01*
G36*
X179159991Y-110401007D02*
G01*
X178509991Y-110401007D01*
X178509991Y-110151007D01*
X179159991Y-110151007D01*
X179159991Y-110401007D01*
G37*
X179159991Y-110901007D02*
X178509991Y-110901007D01*
X178509991Y-110651007D01*
X179159991Y-110651007D01*
X179159991Y-110901007D01*
G36*
X179159991Y-110901007D02*
G01*
X178509991Y-110901007D01*
X178509991Y-110651007D01*
X179159991Y-110651007D01*
X179159991Y-110901007D01*
G37*
X179159991Y-111401007D02*
X178509991Y-111401007D01*
X178509991Y-111151007D01*
X179159991Y-111151007D01*
X179159991Y-111401007D01*
G36*
X179159991Y-111401007D02*
G01*
X178509991Y-111401007D01*
X178509991Y-111151007D01*
X179159991Y-111151007D01*
X179159991Y-111401007D01*
G37*
X179159991Y-111901007D02*
X178509991Y-111901007D01*
X178509991Y-111651007D01*
X179159991Y-111651007D01*
X179159991Y-111901007D01*
G36*
X179159991Y-111901007D02*
G01*
X178509991Y-111901007D01*
X178509991Y-111651007D01*
X179159991Y-111651007D01*
X179159991Y-111901007D01*
G37*
X179159991Y-112401007D02*
X178509991Y-112401007D01*
X178509991Y-112151007D01*
X179159991Y-112151007D01*
X179159991Y-112401007D01*
G36*
X179159991Y-112401007D02*
G01*
X178509991Y-112401007D01*
X178509991Y-112151007D01*
X179159991Y-112151007D01*
X179159991Y-112401007D01*
G37*
X179159991Y-112901007D02*
X178509991Y-112901007D01*
X178509991Y-112651007D01*
X179159991Y-112651007D01*
X179159991Y-112901007D01*
G36*
X179159991Y-112901007D02*
G01*
X178509991Y-112901007D01*
X178509991Y-112651007D01*
X179159991Y-112651007D01*
X179159991Y-112901007D01*
G37*
X179159991Y-113401007D02*
X178509991Y-113401007D01*
X178509991Y-113151007D01*
X179159991Y-113151007D01*
X179159991Y-113401007D01*
G36*
X179159991Y-113401007D02*
G01*
X178509991Y-113401007D01*
X178509991Y-113151007D01*
X179159991Y-113151007D01*
X179159991Y-113401007D01*
G37*
X179159991Y-113901007D02*
X178509991Y-113901007D01*
X178509991Y-113651007D01*
X179159991Y-113651007D01*
X179159991Y-113901007D01*
G36*
X179159991Y-113901007D02*
G01*
X178509991Y-113901007D01*
X178509991Y-113651007D01*
X179159991Y-113651007D01*
X179159991Y-113901007D01*
G37*
X179159991Y-114401007D02*
X178509991Y-114401007D01*
X178509991Y-114151007D01*
X179159991Y-114151007D01*
X179159991Y-114401007D01*
G36*
X179159991Y-114401007D02*
G01*
X178509991Y-114401007D01*
X178509991Y-114151007D01*
X179159991Y-114151007D01*
X179159991Y-114401007D01*
G37*
X179159991Y-114901007D02*
X178509991Y-114901007D01*
X178509991Y-114651007D01*
X179159991Y-114651007D01*
X179159991Y-114901007D01*
G36*
X179159991Y-114901007D02*
G01*
X178509991Y-114901007D01*
X178509991Y-114651007D01*
X179159991Y-114651007D01*
X179159991Y-114901007D01*
G37*
X179159991Y-115401007D02*
X178509991Y-115401007D01*
X178509991Y-115151007D01*
X179159991Y-115151007D01*
X179159991Y-115401007D01*
G36*
X179159991Y-115401007D02*
G01*
X178509991Y-115401007D01*
X178509991Y-115151007D01*
X179159991Y-115151007D01*
X179159991Y-115401007D01*
G37*
X179159991Y-115901007D02*
X178509991Y-115901007D01*
X178509991Y-115651007D01*
X179159991Y-115651007D01*
X179159991Y-115901007D01*
G36*
X179159991Y-115901007D02*
G01*
X178509991Y-115901007D01*
X178509991Y-115651007D01*
X179159991Y-115651007D01*
X179159991Y-115901007D01*
G37*
%TO.C,J1*%
X127986211Y-95680174D02*
X127336211Y-95680174D01*
X127336211Y-95430174D01*
X127986211Y-95430174D01*
X127986211Y-95680174D01*
G36*
X127986211Y-95680174D02*
G01*
X127336211Y-95680174D01*
X127336211Y-95430174D01*
X127986211Y-95430174D01*
X127986211Y-95680174D01*
G37*
X127986211Y-96180174D02*
X127336211Y-96180174D01*
X127336211Y-95930174D01*
X127986211Y-95930174D01*
X127986211Y-96180174D01*
G36*
X127986211Y-96180174D02*
G01*
X127336211Y-96180174D01*
X127336211Y-95930174D01*
X127986211Y-95930174D01*
X127986211Y-96180174D01*
G37*
X127986211Y-96680174D02*
X127336211Y-96680174D01*
X127336211Y-96430174D01*
X127986211Y-96430174D01*
X127986211Y-96680174D01*
G36*
X127986211Y-96680174D02*
G01*
X127336211Y-96680174D01*
X127336211Y-96430174D01*
X127986211Y-96430174D01*
X127986211Y-96680174D01*
G37*
X127986211Y-97180174D02*
X127336211Y-97180174D01*
X127336211Y-96930174D01*
X127986211Y-96930174D01*
X127986211Y-97180174D01*
G36*
X127986211Y-97180174D02*
G01*
X127336211Y-97180174D01*
X127336211Y-96930174D01*
X127986211Y-96930174D01*
X127986211Y-97180174D01*
G37*
X127986211Y-97680174D02*
X127336211Y-97680174D01*
X127336211Y-97430174D01*
X127986211Y-97430174D01*
X127986211Y-97680174D01*
G36*
X127986211Y-97680174D02*
G01*
X127336211Y-97680174D01*
X127336211Y-97430174D01*
X127986211Y-97430174D01*
X127986211Y-97680174D01*
G37*
X127986211Y-98180174D02*
X127336211Y-98180174D01*
X127336211Y-97930174D01*
X127986211Y-97930174D01*
X127986211Y-98180174D01*
G36*
X127986211Y-98180174D02*
G01*
X127336211Y-98180174D01*
X127336211Y-97930174D01*
X127986211Y-97930174D01*
X127986211Y-98180174D01*
G37*
X127986211Y-98680174D02*
X127336211Y-98680174D01*
X127336211Y-98430174D01*
X127986211Y-98430174D01*
X127986211Y-98680174D01*
G36*
X127986211Y-98680174D02*
G01*
X127336211Y-98680174D01*
X127336211Y-98430174D01*
X127986211Y-98430174D01*
X127986211Y-98680174D01*
G37*
X127986211Y-99180174D02*
X127336211Y-99180174D01*
X127336211Y-98930174D01*
X127986211Y-98930174D01*
X127986211Y-99180174D01*
G36*
X127986211Y-99180174D02*
G01*
X127336211Y-99180174D01*
X127336211Y-98930174D01*
X127986211Y-98930174D01*
X127986211Y-99180174D01*
G37*
X127986211Y-99680174D02*
X127336211Y-99680174D01*
X127336211Y-99430174D01*
X127986211Y-99430174D01*
X127986211Y-99680174D01*
G36*
X127986211Y-99680174D02*
G01*
X127336211Y-99680174D01*
X127336211Y-99430174D01*
X127986211Y-99430174D01*
X127986211Y-99680174D01*
G37*
X127986211Y-100180174D02*
X127336211Y-100180174D01*
X127336211Y-99930174D01*
X127986211Y-99930174D01*
X127986211Y-100180174D01*
G36*
X127986211Y-100180174D02*
G01*
X127336211Y-100180174D01*
X127336211Y-99930174D01*
X127986211Y-99930174D01*
X127986211Y-100180174D01*
G37*
X127986211Y-100680174D02*
X127336211Y-100680174D01*
X127336211Y-100430174D01*
X127986211Y-100430174D01*
X127986211Y-100680174D01*
G36*
X127986211Y-100680174D02*
G01*
X127336211Y-100680174D01*
X127336211Y-100430174D01*
X127986211Y-100430174D01*
X127986211Y-100680174D01*
G37*
X127986211Y-101180174D02*
X127336211Y-101180174D01*
X127336211Y-100930174D01*
X127986211Y-100930174D01*
X127986211Y-101180174D01*
G36*
X127986211Y-101180174D02*
G01*
X127336211Y-101180174D01*
X127336211Y-100930174D01*
X127986211Y-100930174D01*
X127986211Y-101180174D01*
G37*
X127986211Y-101680174D02*
X127336211Y-101680174D01*
X127336211Y-101430174D01*
X127986211Y-101430174D01*
X127986211Y-101680174D01*
G36*
X127986211Y-101680174D02*
G01*
X127336211Y-101680174D01*
X127336211Y-101430174D01*
X127986211Y-101430174D01*
X127986211Y-101680174D01*
G37*
X127986211Y-102180174D02*
X127336211Y-102180174D01*
X127336211Y-101930174D01*
X127986211Y-101930174D01*
X127986211Y-102180174D01*
G36*
X127986211Y-102180174D02*
G01*
X127336211Y-102180174D01*
X127336211Y-101930174D01*
X127986211Y-101930174D01*
X127986211Y-102180174D01*
G37*
X127986211Y-102680174D02*
X127336211Y-102680174D01*
X127336211Y-102430174D01*
X127986211Y-102430174D01*
X127986211Y-102680174D01*
G36*
X127986211Y-102680174D02*
G01*
X127336211Y-102680174D01*
X127336211Y-102430174D01*
X127986211Y-102430174D01*
X127986211Y-102680174D01*
G37*
X127986211Y-103180174D02*
X127336211Y-103180174D01*
X127336211Y-102930174D01*
X127986211Y-102930174D01*
X127986211Y-103180174D01*
G36*
X127986211Y-103180174D02*
G01*
X127336211Y-103180174D01*
X127336211Y-102930174D01*
X127986211Y-102930174D01*
X127986211Y-103180174D01*
G37*
X127986211Y-103680174D02*
X127336211Y-103680174D01*
X127336211Y-103430174D01*
X127986211Y-103430174D01*
X127986211Y-103680174D01*
G36*
X127986211Y-103680174D02*
G01*
X127336211Y-103680174D01*
X127336211Y-103430174D01*
X127986211Y-103430174D01*
X127986211Y-103680174D01*
G37*
X127986211Y-104180174D02*
X127336211Y-104180174D01*
X127336211Y-103930174D01*
X127986211Y-103930174D01*
X127986211Y-104180174D01*
G36*
X127986211Y-104180174D02*
G01*
X127336211Y-104180174D01*
X127336211Y-103930174D01*
X127986211Y-103930174D01*
X127986211Y-104180174D01*
G37*
X127986211Y-104680174D02*
X127336211Y-104680174D01*
X127336211Y-104430174D01*
X127986211Y-104430174D01*
X127986211Y-104680174D01*
G36*
X127986211Y-104680174D02*
G01*
X127336211Y-104680174D01*
X127336211Y-104430174D01*
X127986211Y-104430174D01*
X127986211Y-104680174D01*
G37*
X127986211Y-105180174D02*
X127336211Y-105180174D01*
X127336211Y-104930174D01*
X127986211Y-104930174D01*
X127986211Y-105180174D01*
G36*
X127986211Y-105180174D02*
G01*
X127336211Y-105180174D01*
X127336211Y-104930174D01*
X127986211Y-104930174D01*
X127986211Y-105180174D01*
G37*
X127986211Y-105680174D02*
X127336211Y-105680174D01*
X127336211Y-105430174D01*
X127986211Y-105430174D01*
X127986211Y-105680174D01*
G36*
X127986211Y-105680174D02*
G01*
X127336211Y-105680174D01*
X127336211Y-105430174D01*
X127986211Y-105430174D01*
X127986211Y-105680174D01*
G37*
X127986211Y-106180174D02*
X127336211Y-106180174D01*
X127336211Y-105930174D01*
X127986211Y-105930174D01*
X127986211Y-106180174D01*
G36*
X127986211Y-106180174D02*
G01*
X127336211Y-106180174D01*
X127336211Y-105930174D01*
X127986211Y-105930174D01*
X127986211Y-106180174D01*
G37*
X127986211Y-106680174D02*
X127336211Y-106680174D01*
X127336211Y-106430174D01*
X127986211Y-106430174D01*
X127986211Y-106680174D01*
G36*
X127986211Y-106680174D02*
G01*
X127336211Y-106680174D01*
X127336211Y-106430174D01*
X127986211Y-106430174D01*
X127986211Y-106680174D01*
G37*
X127986211Y-107180174D02*
X127336211Y-107180174D01*
X127336211Y-106930174D01*
X127986211Y-106930174D01*
X127986211Y-107180174D01*
G36*
X127986211Y-107180174D02*
G01*
X127336211Y-107180174D01*
X127336211Y-106930174D01*
X127986211Y-106930174D01*
X127986211Y-107180174D01*
G37*
%TO.C,U3*%
X199249991Y-102006007D02*
X197789991Y-102006007D01*
X197789991Y-100546007D01*
X199249991Y-100546007D01*
X199249991Y-102006007D01*
G36*
X199249991Y-102006007D02*
G01*
X197789991Y-102006007D01*
X197789991Y-100546007D01*
X199249991Y-100546007D01*
X199249991Y-102006007D01*
G37*
X199249991Y-104306007D02*
X197789991Y-104306007D01*
X197789991Y-102846007D01*
X199249991Y-102846007D01*
X199249991Y-104306007D01*
G36*
X199249991Y-104306007D02*
G01*
X197789991Y-104306007D01*
X197789991Y-102846007D01*
X199249991Y-102846007D01*
X199249991Y-104306007D01*
G37*
X201549991Y-102006007D02*
X200089991Y-102006007D01*
X200089991Y-100546007D01*
X201549991Y-100546007D01*
X201549991Y-102006007D01*
G36*
X201549991Y-102006007D02*
G01*
X200089991Y-102006007D01*
X200089991Y-100546007D01*
X201549991Y-100546007D01*
X201549991Y-102006007D01*
G37*
X201549991Y-104306007D02*
X200089991Y-104306007D01*
X200089991Y-102846007D01*
X201549991Y-102846007D01*
X201549991Y-104306007D01*
G36*
X201549991Y-104306007D02*
G01*
X200089991Y-104306007D01*
X200089991Y-102846007D01*
X201549991Y-102846007D01*
X201549991Y-104306007D01*
G37*
X127245410Y-77267010D02*
X125785410Y-77267010D01*
X125785410Y-75807010D01*
X127245410Y-75807010D01*
X127245410Y-77267010D01*
G36*
X127245410Y-77267010D02*
G01*
X125785410Y-77267010D01*
X125785410Y-75807010D01*
X127245410Y-75807010D01*
X127245410Y-77267010D01*
G37*
X127245410Y-79567010D02*
X125785410Y-79567010D01*
X125785410Y-78107010D01*
X127245410Y-78107010D01*
X127245410Y-79567010D01*
G36*
X127245410Y-79567010D02*
G01*
X125785410Y-79567010D01*
X125785410Y-78107010D01*
X127245410Y-78107010D01*
X127245410Y-79567010D01*
G37*
X129545410Y-77267010D02*
X128085410Y-77267010D01*
X128085410Y-75807010D01*
X129545410Y-75807010D01*
X129545410Y-77267010D01*
G36*
X129545410Y-77267010D02*
G01*
X128085410Y-77267010D01*
X128085410Y-75807010D01*
X129545410Y-75807010D01*
X129545410Y-77267010D01*
G37*
X129545410Y-79567010D02*
X128085410Y-79567010D01*
X128085410Y-78107010D01*
X129545410Y-78107010D01*
X129545410Y-79567010D01*
G36*
X129545410Y-79567010D02*
G01*
X128085410Y-79567010D01*
X128085410Y-78107010D01*
X129545410Y-78107010D01*
X129545410Y-79567010D01*
G37*
%TD*%
D11*
%TO.C,R15*%
X181379991Y-89376007D03*
X180359991Y-89376007D03*
%TD*%
D12*
%TO.C,R9*%
X190899991Y-73116007D03*
X190899991Y-72096007D03*
%TD*%
D13*
%TO.C,C20*%
X203917792Y-106388251D03*
X203227792Y-106388251D03*
%TD*%
D14*
%TO.C,C23*%
X126395410Y-73687010D03*
X126395410Y-72997010D03*
%TD*%
D15*
%TO.C,L3*%
X199873581Y-109083167D03*
X199873581Y-109653157D03*
%TD*%
D16*
%TO.C,C20*%
X123410410Y-73707010D03*
X124100410Y-73707010D03*
%TD*%
D12*
%TO.C,R3*%
X187829991Y-96746007D03*
X187829991Y-95726007D03*
%TD*%
D17*
%TO.C,U6*%
X206054991Y-82766007D03*
X206054991Y-80866007D03*
X203779991Y-81816007D03*
%TD*%
D18*
%TO.C,U4*%
X189919991Y-73056007D03*
D19*
X189269991Y-73056007D03*
D20*
X189269991Y-74136007D03*
D21*
X189919991Y-74136007D03*
D22*
X189594991Y-73596007D03*
%TD*%
D23*
%TO.C,D3*%
X190209991Y-103526007D03*
X186909991Y-103526007D03*
%TD*%
D15*
%TO.C,C1*%
X126970781Y-73208524D03*
X126970781Y-73778514D03*
%TD*%
D24*
%TO.C,C3*%
X180259991Y-91076007D03*
X181219991Y-91076007D03*
%TD*%
D25*
%TO.C,C31*%
X200209991Y-90136007D03*
X200209991Y-89176007D03*
%TD*%
D26*
%TO.C,U5*%
X203049991Y-89296007D03*
X202549991Y-89296007D03*
X202049991Y-89296007D03*
X203049991Y-88796007D03*
X202549991Y-88796007D03*
X202049991Y-88796007D03*
X203049991Y-88296007D03*
X202549991Y-88296007D03*
X202049991Y-88296007D03*
%TD*%
D27*
%TO.C,R8*%
X149926211Y-74355174D03*
X150946211Y-74355174D03*
%TD*%
D28*
%TO.C,C7*%
X182204991Y-99376007D03*
X180654991Y-99376007D03*
%TD*%
D29*
%TO.C,C8*%
X127326211Y-69935174D03*
X126756221Y-69935174D03*
%TD*%
D30*
%TO.C,D4*%
X187179991Y-87276007D03*
X187179991Y-90576007D03*
%TD*%
D31*
%TO.C,C5*%
X180654991Y-96356007D03*
X182204991Y-96356007D03*
%TD*%
D14*
%TO.C,C22*%
X123695410Y-80522010D03*
X123695410Y-79832010D03*
%TD*%
D32*
%TO.C,C15*%
X181189991Y-110886007D03*
X180229991Y-110886007D03*
%TD*%
D33*
%TO.C,Q1*%
X122856211Y-108035174D03*
X122856211Y-106735174D03*
X120856211Y-107385174D03*
%TD*%
D15*
%TO.C,L2*%
X199873581Y-107427337D03*
X199873581Y-107997327D03*
%TD*%
D34*
%TO.C,U2*%
X196477491Y-83796007D03*
X196477491Y-84196007D03*
X196477491Y-84596007D03*
X196477491Y-84996007D03*
X196477491Y-85396007D03*
X198377491Y-85396007D03*
X198377491Y-84996007D03*
X198377491Y-84596007D03*
X198377491Y-84196007D03*
X198377491Y-83796007D03*
D35*
X197427491Y-85096007D03*
%TD*%
D36*
%TO.C,J2*%
X174139991Y-69476007D03*
D37*
X172119991Y-69476007D03*
D38*
X170889991Y-69476007D03*
D36*
X173139991Y-69476007D03*
D37*
X175159991Y-69476007D03*
D38*
X176389991Y-69476007D03*
%TD*%
D24*
%TO.C,C13*%
X180239991Y-109926007D03*
X181199991Y-109926007D03*
%TD*%
D39*
%TO.C,C17*%
X199052792Y-106408251D03*
X199052792Y-107098251D03*
%TD*%
D32*
%TO.C,C14*%
X181169991Y-108956007D03*
X180209991Y-108956007D03*
%TD*%
D40*
%TO.C,U1*%
X149950000Y-108286000D03*
D41*
X150600000Y-108286000D03*
%TD*%
D12*
%TO.C,R1*%
X189239991Y-89956007D03*
X189239991Y-88936007D03*
%TD*%
D28*
%TO.C,C9*%
X182214991Y-100926007D03*
X180664991Y-100926007D03*
%TD*%
%TO.C,C11*%
X182214991Y-103996007D03*
X180664991Y-103996007D03*
%TD*%
D42*
%TO.C,L5*%
X205309991Y-99588507D03*
X205309991Y-101163507D03*
%TD*%
D13*
%TO.C,C28*%
X206129991Y-103516007D03*
X205439991Y-103516007D03*
%TD*%
D43*
%TO.C,U2*%
X148946211Y-75755174D03*
X148946211Y-75355174D03*
X148946211Y-74955174D03*
X148946211Y-74555174D03*
X148946211Y-74155174D03*
X147046211Y-74155174D03*
X147046211Y-74555174D03*
X147046211Y-74955174D03*
X147046211Y-75355174D03*
X147046211Y-75755174D03*
D44*
X147996211Y-74455174D03*
%TD*%
D12*
%TO.C,R12*%
X204889991Y-89056007D03*
X204889991Y-88036007D03*
%TD*%
D15*
%TO.C,L2*%
X127454621Y-72667924D03*
X127454621Y-72097934D03*
%TD*%
D27*
%TO.C,R4*%
X154505000Y-108586000D03*
X155525000Y-108586000D03*
%TD*%
D45*
%TO.C,D2*%
X116346211Y-104655174D03*
X116346211Y-106755174D03*
%TD*%
D32*
%TO.C,C15*%
X117866211Y-111715174D03*
X116906211Y-111715174D03*
%TD*%
D11*
%TO.C,R16*%
X178489991Y-87946007D03*
X177469991Y-87946007D03*
%TD*%
D46*
%TO.C,L5*%
X122025410Y-80524510D03*
X122025410Y-78949510D03*
%TD*%
D47*
%TO.C,J7*%
X176259991Y-116776007D03*
X176259991Y-90276007D03*
%TD*%
D18*
%TO.C,U4*%
X145526211Y-86235174D03*
D19*
X144876211Y-86235174D03*
D20*
X144876211Y-87315174D03*
D21*
X145526211Y-87315174D03*
D22*
X145201211Y-86775174D03*
%TD*%
D39*
%TO.C,R5*%
X128975410Y-72997010D03*
X128975410Y-73687010D03*
%TD*%
D11*
%TO.C,R6*%
X150966211Y-75355174D03*
X149946211Y-75355174D03*
%TD*%
D39*
%TO.C,C23*%
X200932792Y-106408251D03*
X200932792Y-107098251D03*
%TD*%
D14*
%TO.C,C19*%
X203669991Y-102021007D03*
X203669991Y-101331007D03*
%TD*%
D48*
%TO.C,U1*%
X177484991Y-71856007D03*
D49*
X176834991Y-71856007D03*
%TD*%
D32*
%TO.C,C6*%
X126136211Y-98955174D03*
X125176211Y-98955174D03*
%TD*%
D28*
%TO.C,C10*%
X182214991Y-102476007D03*
X180664991Y-102476007D03*
%TD*%
D29*
%TO.C,C2*%
X199867491Y-108531157D03*
X199297501Y-108531157D03*
%TD*%
D13*
%TO.C,C27*%
X123685410Y-77317010D03*
X122995410Y-77317010D03*
%TD*%
D27*
%TO.C,R14*%
X181759991Y-115576007D03*
X182779991Y-115576007D03*
%TD*%
D24*
%TO.C,C24*%
X147096211Y-87465174D03*
X148056211Y-87465174D03*
%TD*%
D32*
%TO.C,C26*%
X205329991Y-98366007D03*
X204369991Y-98366007D03*
%TD*%
%TO.C,C12*%
X181329991Y-116566007D03*
X180369991Y-116566007D03*
%TD*%
D27*
%TO.C,R7*%
X199437491Y-83916007D03*
X200457491Y-83916007D03*
%TD*%
D25*
%TO.C,C29*%
X202389991Y-81776007D03*
X202389991Y-80816007D03*
%TD*%
D50*
%TO.C,J2*%
X153295000Y-110666000D03*
D51*
X155315000Y-110666000D03*
D52*
X156545000Y-110666000D03*
D50*
X154295000Y-110666000D03*
D51*
X152275000Y-110666000D03*
D52*
X151045000Y-110666000D03*
%TD*%
D53*
%TO.C,C37*%
X190209991Y-101451007D03*
X190209991Y-99901007D03*
%TD*%
D54*
%TO.C,C30*%
X207539991Y-80976007D03*
X207539991Y-81936007D03*
%TD*%
D31*
%TO.C,C39*%
X184279991Y-101526007D03*
X185829991Y-101526007D03*
%TD*%
D55*
%TO.C,D3*%
X119826211Y-105015174D03*
X121926211Y-105015174D03*
%TD*%
D31*
%TO.C,C38*%
X182779991Y-94546007D03*
X184329991Y-94546007D03*
%TD*%
D56*
%TO.C,Q1*%
X189239991Y-91396007D03*
X189239991Y-93296007D03*
X191359991Y-92346007D03*
%TD*%
D32*
%TO.C,C9*%
X126136211Y-99875174D03*
X125176211Y-99875174D03*
%TD*%
D15*
%TO.C,C1*%
X200357421Y-106886737D03*
X200357421Y-106316747D03*
%TD*%
D32*
%TO.C,C11*%
X125856211Y-105785174D03*
X124896211Y-105785174D03*
%TD*%
%TO.C,C10*%
X126116211Y-97085174D03*
X125156211Y-97085174D03*
%TD*%
%TO.C,C4*%
X126116211Y-96135174D03*
X125156211Y-96135174D03*
%TD*%
D16*
%TO.C,C27*%
X203649991Y-102796007D03*
X204339991Y-102796007D03*
%TD*%
D57*
%TO.C,J3*%
X195859991Y-70176007D03*
X197059991Y-70176007D03*
D58*
X198159991Y-73776007D03*
X194759991Y-73776007D03*
%TD*%
D28*
%TO.C,C6*%
X182204991Y-97866007D03*
X180654991Y-97866007D03*
%TD*%
D59*
%TO.C,U6*%
X139146211Y-83342674D03*
X141046211Y-83342674D03*
X140096211Y-81067674D03*
%TD*%
D60*
%TO.C,Y2*%
X202951581Y-108959077D03*
X204351581Y-108959077D03*
X204351581Y-107859077D03*
X202951581Y-107859077D03*
%TD*%
D11*
%TO.C,R2*%
X152735000Y-108546000D03*
X151715000Y-108546000D03*
%TD*%
D16*
%TO.C,C25*%
X195019991Y-103826007D03*
X195709991Y-103826007D03*
%TD*%
D61*
%TO.C,Q2*%
X183064991Y-86846007D03*
X183064991Y-88746007D03*
X184939991Y-87796007D03*
%TD*%
D24*
%TO.C,C4*%
X180259991Y-92076007D03*
X181219991Y-92076007D03*
%TD*%
%TO.C,C26*%
X122005410Y-81747010D03*
X122965410Y-81747010D03*
%TD*%
D27*
%TO.C,R10*%
X202649991Y-91126007D03*
X203669991Y-91126007D03*
%TD*%
D13*
%TO.C,C25*%
X132317000Y-76450080D03*
X131627000Y-76450080D03*
%TD*%
D54*
%TO.C,C33*%
X180339991Y-111786007D03*
X180339991Y-112746007D03*
%TD*%
D28*
%TO.C,C41*%
X190679991Y-87396007D03*
X189129991Y-87396007D03*
%TD*%
D11*
%TO.C,R7*%
X146066211Y-75455174D03*
X145046211Y-75455174D03*
%TD*%
D62*
%TO.C,L6*%
X193359991Y-96676007D03*
X190359991Y-96676007D03*
%TD*%
D39*
%TO.C,C19*%
X123665410Y-78092010D03*
X123665410Y-78782010D03*
%TD*%
D11*
%TO.C,R4*%
X172929991Y-71556007D03*
X171909991Y-71556007D03*
%TD*%
D32*
%TO.C,C3*%
X126116211Y-93335174D03*
X125156211Y-93335174D03*
%TD*%
D16*
%TO.C,C21*%
X197434991Y-98466007D03*
X198124991Y-98466007D03*
%TD*%
D63*
%TO.C,R3*%
X124756211Y-107165174D03*
X124756211Y-108185174D03*
%TD*%
D15*
%TO.C,L1*%
X199873581Y-106324857D03*
X199873581Y-106894847D03*
%TD*%
D32*
%TO.C,C30*%
X141026211Y-84742674D03*
X140066211Y-84742674D03*
%TD*%
D47*
%TO.C,J1*%
X130236211Y-94555174D03*
X130236211Y-108055174D03*
%TD*%
D64*
%TO.C,D2*%
X185249991Y-99396007D03*
X185249991Y-96096007D03*
%TD*%
D11*
%TO.C,R8*%
X195329991Y-85026007D03*
X194309991Y-85026007D03*
%TD*%
D65*
%TO.C,L4*%
X121296211Y-112705174D03*
X121296211Y-114805174D03*
%TD*%
D24*
%TO.C,C18*%
X146546211Y-76755174D03*
X147506211Y-76755174D03*
%TD*%
%TO.C,C16*%
X195887491Y-82816007D03*
X196847491Y-82816007D03*
%TD*%
D27*
%TO.C,R2*%
X174699991Y-71596007D03*
X175719991Y-71596007D03*
%TD*%
%TO.C,R13*%
X202079991Y-86496007D03*
X203099991Y-86496007D03*
%TD*%
D11*
%TO.C,R11*%
X201779991Y-91136007D03*
X200759991Y-91136007D03*
%TD*%
D32*
%TO.C,C34*%
X181369991Y-113686007D03*
X180409991Y-113686007D03*
%TD*%
D13*
%TO.C,FB1*%
X206119991Y-102766007D03*
X205429991Y-102766007D03*
%TD*%
D32*
%TO.C,C13*%
X126116211Y-98025174D03*
X125156211Y-98025174D03*
%TD*%
D15*
%TO.C,L1*%
X127454621Y-73770404D03*
X127454621Y-73200414D03*
%TD*%
D32*
%TO.C,C29*%
X140026211Y-79642674D03*
X139066211Y-79642674D03*
%TD*%
%TO.C,C40*%
X183949991Y-90076007D03*
X182989991Y-90076007D03*
%TD*%
%TO.C,C16*%
X149406211Y-76755174D03*
X148446211Y-76755174D03*
%TD*%
D54*
%TO.C,C35*%
X180799991Y-114636007D03*
X180799991Y-115596007D03*
%TD*%
D14*
%TO.C,C17*%
X128275410Y-73687010D03*
X128275410Y-72997010D03*
%TD*%
D16*
%TO.C,FB1*%
X121215410Y-77347010D03*
X121905410Y-77347010D03*
%TD*%
D14*
%TO.C,R5*%
X198352792Y-107098251D03*
X198352792Y-106408251D03*
%TD*%
D27*
%TO.C,R6*%
X194299991Y-84026007D03*
X195319991Y-84026007D03*
%TD*%
D25*
%TO.C,C36*%
X194989991Y-98166007D03*
X194989991Y-97206007D03*
%TD*%
D45*
%TO.C,D1*%
X118846211Y-107155174D03*
X118846211Y-109255174D03*
%TD*%
D66*
%TO.C,J3*%
X149126211Y-81165174D03*
X149126211Y-82365174D03*
D67*
X145526211Y-83465174D03*
X145526211Y-80065174D03*
%TD*%
D32*
%TO.C,C18*%
X198767491Y-82806007D03*
X197807491Y-82806007D03*
%TD*%
D15*
%TO.C,L3*%
X127454621Y-71012094D03*
X127454621Y-70442104D03*
%TD*%
D25*
%TO.C,C32*%
X200269991Y-88246007D03*
X200269991Y-87286007D03*
%TD*%
D29*
%TO.C,C2*%
X127460711Y-71564104D03*
X128030701Y-71564104D03*
%TD*%
D12*
%TO.C,R9*%
X147126211Y-86375174D03*
X147126211Y-85355174D03*
%TD*%
%TO.C,R1*%
X123056211Y-105585174D03*
X123056211Y-104565174D03*
%TD*%
D16*
%TO.C,C28*%
X121205410Y-76597010D03*
X121895410Y-76597010D03*
%TD*%
D68*
%TO.C,U3*%
X201869991Y-99476007D03*
X201469991Y-99476007D03*
X201069991Y-99476007D03*
X200669991Y-99476007D03*
X200269991Y-99476007D03*
X199869991Y-99476007D03*
X199469991Y-99476007D03*
X199069991Y-99476007D03*
X198669991Y-99476007D03*
X198269991Y-99476007D03*
X197869991Y-99476007D03*
X197469991Y-99476007D03*
D69*
X196719991Y-100226007D03*
X196719991Y-100626007D03*
X196719991Y-101026007D03*
X196719991Y-101426007D03*
X196719991Y-101826007D03*
X196719991Y-102226007D03*
X196719991Y-102626007D03*
X196719991Y-103026007D03*
X196719991Y-103426007D03*
X196719991Y-103826007D03*
X196719991Y-104226007D03*
X196719991Y-104626007D03*
D68*
X197469991Y-105376007D03*
X197869991Y-105376007D03*
X198269991Y-105376007D03*
X198669991Y-105376007D03*
X199069991Y-105376007D03*
X199469991Y-105376007D03*
X199869991Y-105376007D03*
X200269991Y-105376007D03*
X200669991Y-105376007D03*
X201069991Y-105376007D03*
X201469991Y-105376007D03*
X201869991Y-105376007D03*
D69*
X202619991Y-104626007D03*
X202619991Y-104226007D03*
X202619991Y-103826007D03*
X202619991Y-103426007D03*
X202619991Y-103026007D03*
X202619991Y-102626007D03*
X202619991Y-102226007D03*
X202619991Y-101826007D03*
X202619991Y-101426007D03*
X202619991Y-101026007D03*
X202619991Y-100626007D03*
X202619991Y-100226007D03*
%TD*%
D70*
%TO.C,U3*%
X125465410Y-80637010D03*
X125865410Y-80637010D03*
X126265410Y-80637010D03*
X126665410Y-80637010D03*
X127065410Y-80637010D03*
X127465410Y-80637010D03*
X127865410Y-80637010D03*
X128265410Y-80637010D03*
X128665410Y-80637010D03*
X129065410Y-80637010D03*
X129465410Y-80637010D03*
X129865410Y-80637010D03*
D71*
X130615410Y-79887010D03*
X130615410Y-79487010D03*
X130615410Y-79087010D03*
X130615410Y-78687010D03*
X130615410Y-78287010D03*
X130615410Y-77887010D03*
X130615410Y-77487010D03*
X130615410Y-77087010D03*
X130615410Y-76687010D03*
X130615410Y-76287010D03*
X130615410Y-75887010D03*
X130615410Y-75487010D03*
D70*
X129865410Y-74737010D03*
X129465410Y-74737010D03*
X129065410Y-74737010D03*
X128665410Y-74737010D03*
X128265410Y-74737010D03*
X127865410Y-74737010D03*
X127465410Y-74737010D03*
X127065410Y-74737010D03*
X126665410Y-74737010D03*
X126265410Y-74737010D03*
X125865410Y-74737010D03*
X125465410Y-74737010D03*
D71*
X124715410Y-75487010D03*
X124715410Y-75887010D03*
X124715410Y-76287010D03*
X124715410Y-76687010D03*
X124715410Y-77087010D03*
X124715410Y-77487010D03*
X124715410Y-77887010D03*
X124715410Y-78287010D03*
X124715410Y-78687010D03*
X124715410Y-79087010D03*
X124715410Y-79487010D03*
X124715410Y-79887010D03*
%TD*%
D72*
%TO.C,L4*%
X177659991Y-85716007D03*
X177659991Y-82716007D03*
%TD*%
D60*
%TO.C,Y2*%
X124376621Y-71136184D03*
X122976621Y-71136184D03*
X122976621Y-72236184D03*
X124376621Y-72236184D03*
%TD*%
D54*
%TO.C,C14*%
X116326211Y-108165174D03*
X116326211Y-109125174D03*
%TD*%
D64*
%TO.C,D1*%
X187689991Y-101506007D03*
X187689991Y-98206007D03*
%TD*%
D32*
%TO.C,C5*%
X125856211Y-104785174D03*
X124896211Y-104785174D03*
%TD*%
%TO.C,C7*%
X126116211Y-94275174D03*
X125156211Y-94275174D03*
%TD*%
D13*
%TO.C,C21*%
X129900410Y-81647010D03*
X129210410Y-81647010D03*
%TD*%
D25*
%TO.C,C24*%
X190899991Y-75026007D03*
X190899991Y-74066007D03*
%TD*%
D29*
%TO.C,C8*%
X200001991Y-110160087D03*
X200571981Y-110160087D03*
%TD*%
D39*
%TO.C,C22*%
X203639991Y-99591007D03*
X203639991Y-100281007D03*
%TD*%
D32*
%TO.C,C12*%
X126116211Y-95205174D03*
X125156211Y-95205174D03*
%TD*%
M02*
