M48
METRIC
T1C0.200
T2C0.300
T3C0.500
T4C1.000
%
G90
G05
T1
X125.779Y-73.045
X128.275Y-73.022
X145.226Y-86.765
X201.59Y-107.026
X202.55Y-88.796
T2
X115.554Y-69.862
X116.226Y-103.865
X116.276Y-111.715
X116.304Y-69.862
X116.404Y-75.781
X116.404Y-78.321
X116.404Y-80.861
X116.404Y-83.401
X116.404Y-85.941
X116.404Y-88.481
X116.404Y-91.021
X116.404Y-93.561
X116.404Y-96.101
X116.404Y-98.641
X116.404Y-113.881
X116.404Y-116.421
X117.054Y-69.862
X117.804Y-69.862
X118.287Y-110.312
X118.554Y-69.862
X118.587Y-106.012
X118.944Y-75.781
X118.944Y-78.321
X118.944Y-80.861
X118.944Y-83.401
X118.944Y-85.941
X118.944Y-88.481
X118.944Y-91.021
X118.944Y-93.561
X118.944Y-96.101
X118.944Y-98.641
X118.944Y-116.421
X119.176Y-111.185
X119.304Y-69.862
X119.636Y-106.245
X120.054Y-69.862
X120.587Y-103.512
X120.804Y-69.862
X121.177Y-75.916
X121.387Y-81.706
X121.446Y-103.275
X121.484Y-116.421
X121.554Y-69.862
X122.077Y-71.126
X122.304Y-69.862
X122.387Y-84.512
X122.737Y-75.956
X122.747Y-73.746
X122.907Y-77.976
X123.001Y-83.89
X123.027Y-74.982
X123.054Y-69.862
X123.174Y-103.892
X123.527Y-76.516
X123.777Y-81.166
X123.804Y-69.862
X123.887Y-106.412
X123.966Y-105.545
X124.024Y-113.881
X124.024Y-116.421
X124.536Y-98.025
X124.554Y-69.862
X124.614Y-93.335
X124.654Y-94.275
X124.694Y-95.205
X124.724Y-96.135
X124.744Y-97.072
X124.744Y-106.382
X125.126Y-92.315
X125.304Y-69.862
X125.676Y-108.215
X125.804Y-75.612
X125.804Y-77.862
X125.804Y-79.612
X126.117Y-69.902
X126.287Y-72.092
X126.314Y-70.542
X126.564Y-91.021
X126.564Y-113.881
X126.564Y-116.421
X126.644Y-106.332
X126.784Y-71.682
X126.794Y-71.062
X126.824Y-72.422
X127.665Y-77.687
X127.804Y-75.862
X127.804Y-79.612
X128.104Y-71.112
X128.104Y-72.012
X128.287Y-69.482
X128.287Y-70.142
X128.404Y-71.576
X128.587Y-94.012
X128.596Y-103.535
X128.656Y-99.045
X128.696Y-94.955
X128.776Y-97.065
X128.787Y-98.212
X128.817Y-70.622
X129.104Y-111.341
X129.104Y-113.881
X129.104Y-116.421
X129.137Y-71.482
X129.164Y-99.742
X129.167Y-72.232
X129.297Y-69.962
X129.554Y-75.862
X129.554Y-79.612
X129.704Y-73.802
X129.797Y-69.962
X129.814Y-72.932
X129.987Y-82.212
X129.987Y-99.212
X130.024Y-72.192
X130.226Y-95.765
X130.226Y-107.065
X130.537Y-74.842
X130.644Y-73.292
X130.804Y-70.112
X131.287Y-87.912
X131.364Y-74.732
X131.554Y-69.612
X131.587Y-77.412
X131.644Y-93.561
X131.644Y-96.101
X131.644Y-103.721
X131.644Y-106.261
X131.644Y-108.801
X131.644Y-111.341
X131.644Y-113.881
X131.644Y-116.421
X131.787Y-82.712
X132.387Y-77.242
X132.804Y-69.612
X132.826Y-83.365
X133.587Y-82.812
X133.804Y-69.612
X134.184Y-78.321
X134.184Y-103.721
X134.184Y-106.261
X134.184Y-108.801
X134.184Y-111.341
X134.184Y-113.881
X134.184Y-116.421
X134.804Y-69.612
X135.826Y-76.915
X135.856Y-73.545
X135.886Y-71.905
X135.886Y-74.325
X135.886Y-76.025
X135.976Y-70.905
X136.187Y-87.012
X136.226Y-86.215
X136.724Y-78.321
X136.724Y-80.861
X136.724Y-83.401
X136.724Y-88.481
X136.724Y-91.021
X136.724Y-103.721
X136.724Y-106.261
X136.724Y-108.801
X136.724Y-111.341
X136.724Y-113.881
X136.724Y-116.421
X138.987Y-80.412
X139.026Y-82.265
X139.264Y-88.481
X139.264Y-91.021
X139.264Y-103.721
X139.264Y-106.261
X139.264Y-108.801
X139.264Y-111.341
X139.264Y-113.881
X139.264Y-116.421
X139.287Y-84.812
X141.804Y-70.701
X141.804Y-73.241
X141.804Y-80.861
X141.804Y-85.941
X141.804Y-88.481
X141.804Y-91.021
X141.804Y-93.561
X141.804Y-96.101
X141.804Y-98.641
X141.804Y-101.181
X141.804Y-103.721
X141.804Y-106.261
X141.804Y-108.801
X141.804Y-111.341
X141.804Y-113.881
X141.804Y-116.421
X144.326Y-75.565
X144.344Y-65.621
X144.344Y-68.161
X144.344Y-70.701
X144.344Y-73.241
X144.344Y-91.021
X144.344Y-93.561
X144.344Y-96.101
X144.344Y-98.641
X144.344Y-106.261
X144.344Y-108.801
X144.344Y-111.341
X144.344Y-113.881
X144.344Y-116.421
X146.126Y-87.765
X146.884Y-65.621
X146.884Y-68.161
X146.884Y-70.701
X146.884Y-91.021
X146.884Y-93.561
X146.884Y-96.101
X146.884Y-98.641
X146.884Y-101.181
X146.884Y-106.261
X146.884Y-108.801
X146.884Y-111.341
X146.884Y-113.881
X146.884Y-116.421
X147.576Y-77.515
X148.026Y-73.465
X148.426Y-77.565
X149.424Y-65.621
X149.424Y-68.161
X149.424Y-70.701
X149.424Y-73.241
X149.424Y-85.941
X149.424Y-88.481
X149.424Y-91.021
X149.424Y-93.561
X149.424Y-96.101
X149.424Y-98.641
X149.424Y-101.181
X149.424Y-103.721
X149.926Y-110.615
X151.026Y-108.865
X151.676Y-75.415
X151.726Y-74.365
X151.964Y-65.621
X151.964Y-68.161
X151.964Y-70.701
X151.964Y-106.261
X152.426Y-109.515
X154.504Y-65.621
X154.504Y-68.161
X154.504Y-70.701
X154.504Y-73.241
X154.504Y-75.781
X154.504Y-78.321
X154.504Y-80.861
X154.504Y-83.401
X154.504Y-85.941
X154.504Y-88.481
X154.504Y-91.021
X154.504Y-93.561
X154.504Y-96.101
X154.504Y-98.641
X154.504Y-101.181
X154.504Y-106.261
X154.926Y-109.515
X155.826Y-109.315
X157.044Y-65.621
X157.044Y-68.161
X157.044Y-70.701
X157.044Y-73.241
X157.044Y-75.781
X157.044Y-78.321
X157.044Y-80.861
X157.044Y-83.401
X157.044Y-85.941
X157.044Y-88.481
X157.044Y-91.021
X157.044Y-93.561
X157.044Y-96.101
X157.044Y-98.641
X157.044Y-106.261
X157.626Y-110.615
X159.584Y-65.621
X159.584Y-68.161
X159.584Y-70.701
X159.584Y-73.241
X159.584Y-75.781
X159.584Y-78.321
X159.584Y-80.861
X159.584Y-83.401
X159.584Y-85.941
X159.584Y-88.481
X159.584Y-91.021
X159.584Y-93.561
X159.584Y-96.101
X159.584Y-98.641
X159.584Y-101.181
X159.584Y-103.721
X159.584Y-106.261
X159.584Y-108.801
X167.851Y-71.341
X167.851Y-73.881
X167.851Y-76.421
X167.851Y-78.961
X167.851Y-81.501
X167.851Y-84.041
X167.851Y-86.581
X167.851Y-89.121
X167.851Y-91.661
X167.851Y-94.201
X167.851Y-96.741
X167.851Y-109.441
X167.851Y-111.981
X167.851Y-114.521
X170.07Y-69.566
X170.391Y-73.881
X170.391Y-81.501
X170.391Y-84.041
X170.391Y-86.581
X170.391Y-89.121
X170.391Y-91.661
X170.391Y-94.201
X170.391Y-96.741
X170.391Y-109.441
X170.391Y-111.981
X170.391Y-114.521
X171.08Y-71.516
X171.37Y-70.666
X171.61Y-99.706
X171.66Y-102.446
X171.66Y-105.166
X171.68Y-107.236
X172.26Y-70.516
X172.931Y-73.881
X172.931Y-78.961
X172.931Y-81.501
X172.931Y-84.041
X172.931Y-86.581
X172.931Y-89.121
X172.931Y-91.661
X172.931Y-94.201
X172.931Y-96.741
X172.931Y-109.441
X172.931Y-111.981
X172.931Y-114.521
X173.85Y-71.726
X174.84Y-70.716
X175.471Y-73.881
X175.471Y-76.421
X175.471Y-78.961
X175.471Y-84.041
X175.471Y-89.121
X175.471Y-94.201
X175.471Y-99.281
X175.471Y-111.981
X175.471Y-114.521
X175.77Y-72.396
X176.23Y-116.096
X176.31Y-90.926
X176.37Y-97.626
X176.37Y-101.676
X176.56Y-108.986
X176.83Y-72.606
X176.89Y-98.776
X177.16Y-97.376
X177.3Y-69.456
X177.32Y-101.676
X177.46Y-108.796
X177.59Y-96.446
X177.69Y-110.306
X177.71Y-98.526
X177.89Y-103.746
X177.89Y-104.296
X178.011Y-76.421
X178.011Y-78.961
X178.011Y-84.041
X179.27Y-87.946
X179.76Y-103.226
X179.9Y-115.486
X180.22Y-94.496
X180.551Y-63.721
X180.551Y-66.261
X180.551Y-68.801
X180.551Y-71.341
X180.551Y-73.881
X180.551Y-78.961
X180.551Y-81.501
X180.551Y-84.041
X180.551Y-86.581
X180.91Y-94.446
X181.47Y-112.886
X181.72Y-94.666
X181.77Y-114.556
X181.98Y-91.026
X181.98Y-92.056
X182.03Y-109.926
X182.05Y-116.606
X182.08Y-110.986
X182.09Y-108.926
X182.12Y-95.486
X182.2Y-113.636
X182.77Y-114.396
X183.01Y-95.566
X183.02Y-96.306
X183.08Y-99.236
X183.09Y-97.996
X183.091Y-63.721
X183.091Y-66.261
X183.091Y-68.801
X183.091Y-71.341
X183.091Y-81.501
X183.12Y-102.326
X183.13Y-103.916
X183.19Y-100.926
X183.56Y-97.056
X183.81Y-97.826
X184.33Y-102.556
X184.68Y-90.076
X185.34Y-90.326
X185.41Y-89.126
X185.46Y-109.056
X185.631Y-63.721
X185.631Y-66.261
X185.631Y-68.801
X185.631Y-71.341
X185.631Y-78.961
X185.631Y-81.501
X185.631Y-84.041
X185.631Y-94.201
X185.76Y-100.626
X185.81Y-90.976
X185.86Y-109.776
X186.05Y-88.566
X188.06Y-103.276
X188.171Y-63.721
X188.171Y-66.261
X188.171Y-68.801
X188.171Y-71.341
X188.171Y-81.501
X188.171Y-84.041
X188.98Y-76.536
X189.51Y-75.696
X189.97Y-74.486
X190.04Y-88.936
X190.711Y-63.721
X190.711Y-66.261
X190.711Y-68.801
X190.711Y-81.501
X190.711Y-84.041
X190.81Y-86.256
X191.0Y-76.176
X191.26Y-102.776
X191.47Y-76.916
X191.59Y-113.056
X191.62Y-115.336
X191.7Y-110.026
X191.88Y-73.046
X191.97Y-108.906
X192.02Y-72.166
X192.03Y-73.966
X192.07Y-110.786
X192.88Y-90.806
X192.89Y-89.926
X192.96Y-75.086
X193.251Y-63.721
X193.251Y-66.261
X193.251Y-76.421
X193.251Y-86.581
X193.49Y-85.046
X193.52Y-84.026
X193.99Y-105.626
X194.16Y-110.716
X194.21Y-69.956
X194.49Y-98.526
X194.69Y-99.426
X194.69Y-100.226
X194.69Y-103.626
X194.73Y-70.826
X194.89Y-104.826
X195.05Y-94.726
X195.48Y-99.516
X195.63Y-101.196
X195.791Y-63.721
X195.791Y-66.261
X195.791Y-68.801
X195.791Y-76.421
X195.791Y-78.961
X195.791Y-86.581
X195.791Y-89.121
X195.89Y-94.226
X196.16Y-98.206
X196.29Y-106.826
X196.69Y-105.326
X196.83Y-97.736
X196.89Y-81.996
X196.89Y-106.126
X197.01Y-107.826
X197.39Y-84.686
X197.39Y-106.826
X197.49Y-110.226
X197.69Y-81.976
X197.69Y-96.946
X197.99Y-100.886
X197.99Y-107.726
X197.99Y-110.226
X198.03Y-103.816
X198.06Y-108.676
X198.07Y-102.326
X198.09Y-97.726
X198.331Y-63.721
X198.331Y-66.261
X198.331Y-68.801
X198.331Y-71.341
X198.331Y-76.421
X198.331Y-78.961
X198.331Y-91.661
X198.39Y-109.426
X198.89Y-109.826
X198.92Y-108.536
X198.99Y-110.526
X199.07Y-107.156
X199.26Y-108.056
X199.26Y-108.996
X199.31Y-88.166
X199.35Y-90.246
X199.99Y-100.866
X200.0Y-102.406
X200.13Y-103.736
X200.49Y-92.926
X200.55Y-108.566
X200.55Y-109.186
X200.57Y-107.866
X200.87Y-85.246
X200.871Y-63.721
X200.871Y-66.261
X200.871Y-71.341
X200.871Y-73.881
X200.871Y-76.421
X200.871Y-78.961
X201.01Y-92.006
X201.09Y-109.526
X201.18Y-83.956
X201.19Y-87.676
X201.22Y-90.076
X201.28Y-107.816
X201.39Y-110.126
X201.39Y-110.726
X201.5Y-102.376
X201.54Y-84.886
X201.54Y-100.856
X201.54Y-103.776
X201.58Y-80.726
X202.54Y-87.336
X203.28Y-92.016
X203.39Y-96.226
X203.411Y-63.721
X203.411Y-66.261
X203.411Y-73.881
X203.411Y-76.421
X203.411Y-78.961
X203.58Y-89.896
X203.61Y-105.116
X203.63Y-98.936
X203.71Y-88.246
X203.78Y-87.296
X204.2Y-96.036
X204.29Y-102.036
X204.29Y-103.546
X204.582Y-106.349
X204.7Y-89.816
X204.99Y-102.226
X205.05Y-87.296
X205.252Y-108.969
X205.951Y-63.721
X205.951Y-66.261
X205.951Y-68.801
X205.951Y-71.341
X205.951Y-73.881
X205.951Y-76.421
X205.951Y-78.961
X205.951Y-106.901
X206.13Y-98.296
X206.73Y-103.526
X207.25Y-82.996
X208.07Y-82.736
X208.491Y-63.721
X208.491Y-66.261
X208.491Y-68.801
X208.491Y-71.341
X208.491Y-73.881
X208.491Y-86.581
X208.491Y-89.121
X208.491Y-99.281
X208.491Y-101.821
X208.491Y-104.361
X211.031Y-63.721
X211.031Y-66.261
X211.031Y-68.801
X211.031Y-71.341
X211.031Y-73.881
X211.031Y-81.501
X211.031Y-96.741
X211.031Y-99.281
X211.031Y-101.821
X211.031Y-104.361
T4
X132.836Y-85.33
X132.836Y-87.87
X132.836Y-90.41
X137.669Y-70.975
X137.669Y-73.515
X137.669Y-76.055
X139.001Y-93.115
X139.001Y-95.655
X139.001Y-98.195
X139.001Y-100.735
X169.34Y-98.496
X169.34Y-101.036
X169.34Y-103.576
X169.34Y-106.116
X189.75Y-110.566
X189.75Y-113.106
X189.75Y-115.646
X205.82Y-93.766
X208.36Y-93.766
X210.38Y-84.706
X210.38Y-87.246
X210.9Y-93.766
T3
X148.22Y-111.536G85X148.22Y-112.236
G05
X148.22Y-114.986G85X148.22Y-115.986
G05
X159.37Y-111.536G85X159.37Y-112.236
G05
X159.4Y-114.986G85X159.4Y-115.986
G05
X168.035Y-65.156G85X168.035Y-64.156
G05
X168.065Y-68.606G85X168.065Y-67.906
G05
X179.215Y-65.156G85X179.215Y-64.156
G05
X179.215Y-68.606G85X179.215Y-67.906
G05
M30
