%TF.GenerationSoftware,KiCad,Pcbnew,8.0.3*%
%TF.CreationDate,2026-06-15T17:10:43-07:00*%
%TF.ProjectId,Panelize_TestBoard_Final,50616e65-6c69-47a6-955f-54657374426f,rev?*%
%TF.SameCoordinates,Original*%
%TF.FileFunction,Copper,L2,Inr*%
%TF.FilePolarity,Positive*%
%FSLAX46Y46*%
G04 Gerber Fmt 4.6, Leading zero omitted, Abs format (unit mm)*
G04 Created by KiCad (PCBNEW 8.0.3) date 2026-06-15 17:10:43*
%MOMM*%
%LPD*%
G01*
G04 APERTURE LIST*
%TA.AperFunction,ComponentPad*%
%ADD10R,1.700000X1.700000*%
%TD*%
%TA.AperFunction,ComponentPad*%
%ADD11O,1.700000X1.700000*%
%TD*%
%TA.AperFunction,ComponentPad*%
%ADD12O,1.000000X1.700000*%
%TD*%
%TA.AperFunction,ComponentPad*%
%ADD13O,1.000000X2.000000*%
%TD*%
%TA.AperFunction,ViaPad*%
%ADD14C,0.600000*%
%TD*%
%TA.AperFunction,ViaPad*%
%ADD15C,0.450000*%
%TD*%
%TA.AperFunction,ViaPad*%
%ADD16C,0.500000*%
%TD*%
G04 APERTURE END LIST*
D10*
%TO.N,SWDIO*%
%TO.C,J5*%
X189749991Y-110566007D03*
D11*
%TO.N,SWDCLK*%
X189749991Y-113106007D03*
%TO.N,NRESET*%
X189749991Y-115646007D03*
%TD*%
D12*
%TO.N,VSS_PA*%
%TO.C,J2*%
X179214991Y-68256007D03*
D13*
X179214991Y-64656007D03*
D12*
X168064991Y-68256007D03*
D13*
X168034991Y-64656007D03*
%TD*%
D10*
%TO.N,3V3*%
%TO.C,J6*%
X132836211Y-85330174D03*
D11*
%TO.N,VSS_PA*%
X132836211Y-87870174D03*
%TO.N,TX*%
X132836211Y-90410174D03*
%TD*%
D10*
%TO.N,MOSI*%
%TO.C,J4*%
X139001211Y-93115174D03*
D11*
%TO.N,SCK*%
X139001211Y-95655174D03*
%TO.N,CS*%
X139001211Y-98195174D03*
%TO.N,DC*%
X139001211Y-100735174D03*
%TD*%
D10*
%TO.N,Net-(J6-Pin_1)*%
%TO.C,J6*%
X210379991Y-84706007D03*
D11*
%TO.N,3V3*%
X210379991Y-87246007D03*
%TD*%
D12*
%TO.N,VSS_PA*%
%TO.C,J2*%
X148220000Y-111886000D03*
D13*
X148220000Y-115486000D03*
D12*
X159370000Y-111886000D03*
D13*
X159400000Y-115486000D03*
%TD*%
D10*
%TO.N,SWDIO*%
%TO.C,J5*%
X137668711Y-76055174D03*
D11*
%TO.N,SWDCLK*%
X137668711Y-73515174D03*
%TO.N,NRESET*%
X137668711Y-70975174D03*
%TD*%
D10*
%TO.N,3V3*%
%TO.C,J1*%
X210899991Y-93766007D03*
D11*
%TO.N,VSS_PA*%
X208359991Y-93766007D03*
%TO.N,TX*%
X205819991Y-93766007D03*
%TD*%
D10*
%TO.N,DC*%
%TO.C,J4*%
X169339991Y-98496007D03*
D11*
%TO.N,CS*%
X169339991Y-101036007D03*
%TO.N,SCK*%
X169339991Y-103576007D03*
%TO.N,MOSI*%
X169339991Y-106116007D03*
%TD*%
D14*
%TO.N,VSS_PA*%
X201179991Y-83956007D03*
X188171417Y-84041007D03*
X198331417Y-91661007D03*
X122076621Y-71126184D03*
X159583574Y-101181000D03*
X147576211Y-77515174D03*
X188171417Y-68801007D03*
X171609991Y-99706007D03*
X131287000Y-87911780D03*
X144343574Y-108801000D03*
X120053574Y-69861780D03*
X129137000Y-71481780D03*
X172931417Y-111981007D03*
X141803574Y-85941000D03*
X182029991Y-109926007D03*
X118943574Y-88481000D03*
X201389991Y-110126007D03*
X170391417Y-89121007D03*
X157043574Y-80861000D03*
X131643574Y-111341000D03*
X170391417Y-114521007D03*
X208491417Y-66261007D03*
X194159991Y-110716007D03*
X176309991Y-90926007D03*
X157043574Y-98641000D03*
X118943574Y-116421000D03*
X157043574Y-65621000D03*
X177589991Y-96446007D03*
X185631417Y-68801007D03*
X130226211Y-95765174D03*
X180551417Y-86581007D03*
X133587000Y-82811780D03*
X116403574Y-88481000D03*
X205951417Y-106901007D03*
X129297000Y-69961780D03*
X149926211Y-110615174D03*
X199309991Y-88166007D03*
X183129991Y-103916007D03*
X175471417Y-78961007D03*
X170391417Y-91661007D03*
X200549991Y-109186007D03*
X120803574Y-69861780D03*
X200871417Y-71341007D03*
X192889991Y-89926007D03*
X126783574Y-71681780D03*
X131643574Y-93561000D03*
X183809991Y-97826007D03*
X191259991Y-102776007D03*
X124023574Y-116421000D03*
X175471417Y-76421007D03*
X120587000Y-103511780D03*
X128287000Y-70141780D03*
X181979991Y-91026007D03*
X171659991Y-105166007D03*
X200871417Y-66261007D03*
X154503574Y-70701000D03*
X139263574Y-116421000D03*
X185459991Y-109056007D03*
X211031417Y-101821007D03*
X128103574Y-72011780D03*
X204699991Y-89816007D03*
X200489991Y-92926007D03*
X139263574Y-113881000D03*
X201539991Y-103776007D03*
X157043574Y-78321000D03*
X141803574Y-80861000D03*
X183091417Y-63721007D03*
X154503574Y-75781000D03*
X149423574Y-73241000D03*
X183189991Y-100926007D03*
X195791417Y-63721007D03*
X154503574Y-88481000D03*
X128403574Y-71576184D03*
X196829991Y-97736007D03*
X135886211Y-71905174D03*
X146883574Y-106261000D03*
X192069991Y-110786007D03*
X180551417Y-81501007D03*
X159583574Y-68161000D03*
X125803574Y-75611780D03*
X171659991Y-102446007D03*
X130226211Y-107065174D03*
X198029991Y-103816007D03*
X134183574Y-113881000D03*
X182089991Y-108926007D03*
X144343574Y-96101000D03*
X211031417Y-63721007D03*
X182199991Y-113636007D03*
X197389991Y-84686007D03*
X175471417Y-99281007D03*
X205951417Y-78961007D03*
X121483574Y-116421000D03*
X159583574Y-65621000D03*
X132803574Y-69611780D03*
X117053574Y-69861780D03*
X139263574Y-111341000D03*
X203411417Y-76421007D03*
X116403574Y-85941000D03*
X141803574Y-70701000D03*
X200871417Y-78961007D03*
X195791417Y-89121007D03*
X211031417Y-71341007D03*
X195791417Y-68801007D03*
X180909991Y-94446007D03*
X141803574Y-103721000D03*
X123803574Y-69861780D03*
X124723574Y-96135174D03*
X125303574Y-69861780D03*
X159583574Y-73241000D03*
X149423574Y-93561000D03*
X201499991Y-102376007D03*
X134183574Y-108801000D03*
X170391417Y-86581007D03*
X179269991Y-87946007D03*
X131643574Y-113881000D03*
X195791417Y-86581007D03*
X185631417Y-71341007D03*
X175471417Y-89121007D03*
X146883574Y-91021000D03*
X197689991Y-81976007D03*
X129987000Y-99211780D03*
X121553574Y-69861780D03*
X183119991Y-102326007D03*
X182079991Y-110986007D03*
X195791417Y-78961007D03*
X191469991Y-76916007D03*
X159583574Y-80861000D03*
X144343574Y-65621000D03*
X139263574Y-88481000D03*
X159583574Y-93561000D03*
X136723574Y-103721000D03*
X129103574Y-111341000D03*
X131643574Y-103721000D03*
X176369991Y-97626007D03*
X128103574Y-71111780D03*
X199069991Y-107156007D03*
X190809991Y-86256007D03*
X159583574Y-85941000D03*
X198059991Y-108676007D03*
X146883574Y-93561000D03*
X178011417Y-76421007D03*
X167851417Y-76421007D03*
X200549991Y-108566007D03*
X115553574Y-69861780D03*
X194689991Y-100226007D03*
X121176621Y-75916184D03*
X124536211Y-98025174D03*
X175471417Y-73881007D03*
X183091417Y-68801007D03*
X128787000Y-98211780D03*
X149423574Y-91021000D03*
X176559991Y-108986007D03*
X188979991Y-76536007D03*
X172931417Y-73881007D03*
X157043574Y-68161000D03*
D15*
X202549991Y-88796007D03*
D14*
X130643574Y-73291780D03*
X183089991Y-97996007D03*
X171079991Y-71516007D03*
X197989991Y-100886007D03*
X167851417Y-91661007D03*
X193251417Y-76421007D03*
X128587000Y-94011780D03*
X116276211Y-111715174D03*
X134803574Y-69611780D03*
X159583574Y-96101000D03*
X146883574Y-68161000D03*
X129103574Y-113881000D03*
X203411417Y-66261007D03*
X182769991Y-114396007D03*
X205951417Y-63721007D03*
X133803574Y-69611780D03*
X180551417Y-84041007D03*
X180551417Y-78961007D03*
X131643574Y-106261000D03*
X172931417Y-89121007D03*
X146883574Y-98641000D03*
X116303574Y-69861780D03*
X185339991Y-90326007D03*
X154503574Y-106261000D03*
X196289991Y-106826007D03*
X118943574Y-85941000D03*
X116403574Y-93561000D03*
X171679991Y-107236007D03*
X151026211Y-108865174D03*
X144343574Y-93561000D03*
X131553574Y-69611780D03*
X172931417Y-78961007D03*
X205951417Y-68801007D03*
X199259991Y-108056007D03*
X157626211Y-110615174D03*
X188171417Y-66261007D03*
X134183574Y-78321000D03*
X118587000Y-106011780D03*
X154503574Y-68161000D03*
X193519991Y-84026007D03*
D16*
X145226211Y-86765174D03*
D14*
X170391417Y-84041007D03*
X177889991Y-104296007D03*
X116226211Y-103865174D03*
X172931417Y-84041007D03*
X178011417Y-78961007D03*
X126563574Y-116421000D03*
X211031417Y-73881007D03*
X136723574Y-106261000D03*
X144343574Y-106261000D03*
X180551417Y-68801007D03*
X157043574Y-73241000D03*
X170069991Y-69566007D03*
X128287000Y-69481780D03*
X190711417Y-81501007D03*
X167851417Y-73881007D03*
X129167000Y-72231780D03*
X208491417Y-104361007D03*
X197009991Y-107826007D03*
X126563574Y-113881000D03*
X203411417Y-63721007D03*
X159583574Y-70701000D03*
X204581581Y-106349077D03*
X141803574Y-101181000D03*
X173849991Y-71726007D03*
X141803574Y-111341000D03*
X154503574Y-85941000D03*
X206129991Y-98296007D03*
X146883574Y-111341000D03*
X167851417Y-78961007D03*
X205951417Y-73881007D03*
X211031417Y-104361007D03*
X126823574Y-72421780D03*
X124743574Y-97071780D03*
X167851417Y-96741007D03*
X129553574Y-79611780D03*
X123173574Y-103891780D03*
X135886211Y-74325174D03*
X116403574Y-83401000D03*
X116403574Y-80861000D03*
X203629991Y-98936007D03*
X119303574Y-69861780D03*
X118943574Y-98641000D03*
X149423574Y-68161000D03*
X182049991Y-116606007D03*
X185631417Y-66261007D03*
X157043574Y-85941000D03*
X199989991Y-100866007D03*
X171369991Y-70666007D03*
X172931417Y-86581007D03*
X151963574Y-70701000D03*
X205951417Y-76421007D03*
X118553574Y-69861780D03*
X128817000Y-70621780D03*
X146883574Y-65621000D03*
X116403574Y-91021000D03*
X208491417Y-68801007D03*
X185631417Y-94201007D03*
X141803574Y-73241000D03*
X139026211Y-82265174D03*
X159583574Y-75781000D03*
X118943574Y-91021000D03*
X141803574Y-93561000D03*
X211031417Y-68801007D03*
X170391417Y-109441007D03*
X116403574Y-116421000D03*
X184329991Y-102556007D03*
X159583574Y-78321000D03*
X172931417Y-94201007D03*
X185631417Y-84041007D03*
X180551417Y-66261007D03*
X144343574Y-91021000D03*
X208491417Y-99281007D03*
X159583574Y-103721000D03*
X200871417Y-63721007D03*
X175471417Y-111981007D03*
X151676211Y-75415174D03*
X131363574Y-74731780D03*
X199259991Y-108996007D03*
X205251581Y-108969077D03*
X138987000Y-80411780D03*
X134183574Y-106261000D03*
X155826211Y-109315174D03*
X127803574Y-79611780D03*
X183091417Y-71341007D03*
X201219991Y-90076007D03*
X144343574Y-111341000D03*
X186049991Y-88566007D03*
X183079991Y-99236007D03*
X176889991Y-98776007D03*
X154503574Y-73241000D03*
X203779991Y-87296007D03*
X183091417Y-81501007D03*
X190039991Y-88936007D03*
X159583574Y-91021000D03*
X208069991Y-82736007D03*
X193989991Y-105626007D03*
X199349991Y-90246007D03*
X146883574Y-101181000D03*
X139263574Y-91021000D03*
X124553574Y-69861780D03*
X146883574Y-116421000D03*
X175471417Y-114521007D03*
X118287000Y-110311780D03*
X144343574Y-70701000D03*
X211031417Y-99281007D03*
X193251417Y-66261007D03*
X135826211Y-76915174D03*
X200129991Y-103736007D03*
X122387000Y-84511780D03*
X118943574Y-80861000D03*
X149423574Y-103721000D03*
X136723574Y-108801000D03*
X205951417Y-66261007D03*
X167851417Y-71341007D03*
X198331417Y-78961007D03*
X157043574Y-91021000D03*
X198331417Y-66261007D03*
X180551417Y-63721007D03*
X197489991Y-110226007D03*
X167851417Y-111981007D03*
X183091417Y-66261007D03*
X188171417Y-63721007D03*
X194689991Y-103626007D03*
X132387000Y-77241780D03*
X208491417Y-63721007D03*
X146883574Y-70701000D03*
X185631417Y-78961007D03*
X129987000Y-82211780D03*
X170391417Y-81501007D03*
X121386621Y-81706184D03*
X116403574Y-98641000D03*
X116403574Y-75781000D03*
X198331417Y-68801007D03*
X201389991Y-110726007D03*
X203411417Y-73881007D03*
X149423574Y-65621000D03*
X208491417Y-71341007D03*
X154503574Y-96101000D03*
X127803574Y-75861780D03*
X130803574Y-70111780D03*
X190711417Y-66261007D03*
X177689991Y-110306007D03*
X194489991Y-98526007D03*
X124023574Y-113881000D03*
X208491417Y-86581007D03*
X167851417Y-81501007D03*
X194689991Y-99426007D03*
X130023574Y-72191780D03*
X141803574Y-106261000D03*
X159583574Y-98641000D03*
X180219991Y-94496007D03*
X157043574Y-70701000D03*
X118943574Y-78321000D03*
X203411417Y-78961007D03*
X131643574Y-108801000D03*
X180551417Y-71341007D03*
X146883574Y-108801000D03*
X125803574Y-77861780D03*
X172931417Y-81501007D03*
X167851417Y-109441007D03*
X190711417Y-68801007D03*
X141803574Y-98641000D03*
X195791417Y-76421007D03*
X154503574Y-65621000D03*
X190711417Y-63721007D03*
X194209991Y-69956007D03*
X136723574Y-111341000D03*
X144343574Y-68161000D03*
X172931417Y-114521007D03*
X198069991Y-102326007D03*
X144343574Y-98641000D03*
X185631417Y-81501007D03*
X159583574Y-108801000D03*
X141803574Y-88481000D03*
X193251417Y-86581007D03*
X136723574Y-113881000D03*
X172931417Y-91661007D03*
X139263574Y-103721000D03*
X157043574Y-75781000D03*
X154503574Y-93561000D03*
X183009991Y-95566007D03*
X122303574Y-69861780D03*
X211031417Y-81501007D03*
X144343574Y-116421000D03*
X180551417Y-73881007D03*
X124693574Y-95205174D03*
X199999991Y-102406007D03*
X122746621Y-73746184D03*
X159583574Y-106261000D03*
X204289991Y-102036007D03*
X126117000Y-69901780D03*
X134183574Y-116421000D03*
X154503574Y-101181000D03*
X154503574Y-83401000D03*
X149423574Y-96101000D03*
X157043574Y-83401000D03*
X192959991Y-75086007D03*
X116403574Y-113881000D03*
X123053574Y-69861780D03*
X198331417Y-76421007D03*
X123776621Y-81166184D03*
X118943574Y-96101000D03*
X211031417Y-96741007D03*
X116403574Y-96101000D03*
X172931417Y-109441007D03*
X139287000Y-84811780D03*
X181979991Y-92056007D03*
X176229991Y-116096007D03*
X177889991Y-103746007D03*
X196889991Y-81996007D03*
X118943574Y-93561000D03*
X116403574Y-78321000D03*
X182119991Y-95486007D03*
X159583574Y-83401000D03*
X146883574Y-96101000D03*
X204989991Y-102226007D03*
X198389991Y-109426007D03*
X125803574Y-79611780D03*
X124653574Y-94275174D03*
X136723574Y-83401000D03*
X167851417Y-89121007D03*
X201539991Y-100856007D03*
X167851417Y-86581007D03*
X126313574Y-70541780D03*
X124613574Y-93335174D03*
X198331417Y-63721007D03*
X127665410Y-77687010D03*
X123887000Y-106411780D03*
X189969991Y-74486007D03*
X203389991Y-96226007D03*
X170391417Y-73881007D03*
X122906621Y-77976184D03*
X131643574Y-96101000D03*
X128596211Y-103535174D03*
X170391417Y-94201007D03*
X124743574Y-106381780D03*
X154503574Y-80861000D03*
X149423574Y-85941000D03*
X136723574Y-78321000D03*
X157043574Y-96101000D03*
X159583574Y-88481000D03*
X134183574Y-103721000D03*
X139263574Y-108801000D03*
X151963574Y-68161000D03*
X148426211Y-77565174D03*
X195889991Y-94226007D03*
X198889991Y-109826007D03*
X148026211Y-73465174D03*
X198989991Y-110526007D03*
X126793574Y-71061780D03*
X192019991Y-72166007D03*
X157043574Y-93561000D03*
X141803574Y-116421000D03*
X175769991Y-72396007D03*
X144343574Y-73241000D03*
X139263574Y-106261000D03*
X207249991Y-82996007D03*
X200871417Y-76421007D03*
X129797000Y-69961780D03*
X151963574Y-106261000D03*
X190711417Y-84041007D03*
X157043574Y-106261000D03*
X136187000Y-87011780D03*
X149423574Y-101181000D03*
X175471417Y-94201007D03*
X170391417Y-111981007D03*
X136723574Y-88481000D03*
X175471417Y-84041007D03*
X195791417Y-66261007D03*
X151726211Y-74365174D03*
X136723574Y-116421000D03*
X146883574Y-113881000D03*
X141803574Y-113881000D03*
X167851417Y-94201007D03*
X211031417Y-66261007D03*
X149423574Y-88481000D03*
X141803574Y-96101000D03*
X154503574Y-98641000D03*
X197689991Y-96946007D03*
X126287000Y-72091780D03*
X191969991Y-108906007D03*
X141803574Y-91021000D03*
X197989991Y-110226007D03*
X125126211Y-92315174D03*
X188171417Y-81501007D03*
X208491417Y-101821007D03*
X144326211Y-75565174D03*
X185631417Y-63721007D03*
X200569991Y-107866007D03*
X134183574Y-111341000D03*
X125676211Y-108215174D03*
X118943574Y-83401000D03*
X122736621Y-75956184D03*
X170391417Y-96741007D03*
X193489991Y-85046007D03*
X205951417Y-71341007D03*
X154503574Y-78321000D03*
X200871417Y-73881007D03*
X126563574Y-91021000D03*
X198919991Y-108536007D03*
X201539991Y-84886007D03*
X177299991Y-69456007D03*
X172931417Y-96741007D03*
X201089991Y-109526007D03*
X118943574Y-75781000D03*
X183019991Y-96306007D03*
X201279991Y-107816007D03*
X157043574Y-88481000D03*
D16*
X128275410Y-73022010D03*
D14*
X206729991Y-103526007D03*
X129103574Y-116421000D03*
X188171417Y-71341007D03*
X178011417Y-84041007D03*
X181469991Y-112886007D03*
X198331417Y-71341007D03*
X117803574Y-69861780D03*
X205049991Y-87296007D03*
X146126211Y-87765174D03*
X129553574Y-75861780D03*
X196689991Y-105326007D03*
X208491417Y-73881007D03*
X201579991Y-80726007D03*
X136723574Y-80861000D03*
X167851417Y-84041007D03*
X131643574Y-116421000D03*
X136723574Y-91021000D03*
X201189991Y-87676007D03*
X184679991Y-90076007D03*
X208491417Y-89121007D03*
X167851417Y-114521007D03*
X144343574Y-113881000D03*
X154503574Y-91021000D03*
X128656211Y-99045174D03*
X131787000Y-82711780D03*
X176369991Y-101676007D03*
X176829991Y-72606007D03*
X141803574Y-108801000D03*
X149423574Y-98641000D03*
X193251417Y-63721007D03*
X151963574Y-65621000D03*
X149423574Y-70701000D03*
%TO.N,Net-(C11-Pad2)*%
X177319991Y-101676007D03*
X179759991Y-103226007D03*
%TO.N,3V3*%
X198089991Y-97726007D03*
X194889991Y-104826007D03*
X192879991Y-90806007D03*
X131587000Y-77411780D03*
X129163574Y-99741780D03*
X196159991Y-98206007D03*
X119176211Y-111185174D03*
X123027000Y-74981780D03*
X136226211Y-86215174D03*
X123001211Y-83890174D03*
X201009991Y-92006007D03*
X132826211Y-83365174D03*
X204199991Y-96036007D03*
X203279991Y-92016007D03*
X203609991Y-105116007D03*
X177459991Y-108796007D03*
X185409991Y-89126007D03*
%TO.N,5VUSB*%
X152426211Y-109515174D03*
X174839991Y-70716007D03*
X172259991Y-70516007D03*
X154926211Y-109515174D03*
D15*
%TO.N,Net-(U3-DECA)*%
X201589991Y-107026007D03*
X125778574Y-73045174D03*
D14*
X123526621Y-76516184D03*
X204289991Y-103546007D03*
%TO.N,Net-(U4-VDD)*%
X190999991Y-76176007D03*
X191879991Y-73046007D03*
%TO.N,Net-(C24-Pad2)*%
X192029991Y-73966007D03*
X189509991Y-75696007D03*
%TO.N,BATT*%
X202539991Y-87336007D03*
X200869991Y-85246007D03*
X194729991Y-70826007D03*
X203709991Y-88246007D03*
%TO.N,VGL*%
X177159991Y-97376007D03*
X183559991Y-97056007D03*
%TO.N,VPH*%
X185859991Y-109776007D03*
X177709991Y-98526007D03*
X185759991Y-100626007D03*
X188059991Y-103276007D03*
%TO.N,VPC*%
X185809991Y-90976007D03*
X181719991Y-94666007D03*
%TO.N,SWDIO*%
X196889991Y-106126007D03*
X191699991Y-110026007D03*
X130536621Y-74841780D03*
X135886211Y-76025174D03*
%TO.N,SWDCLK*%
X135856211Y-73545174D03*
X129703574Y-73801780D03*
X197389991Y-106826007D03*
X191589991Y-113056007D03*
%TO.N,NRESET*%
X135976211Y-70905174D03*
X191619991Y-115336007D03*
X197989991Y-107726007D03*
X129813574Y-72931780D03*
%TO.N,VGH*%
X181769991Y-114556007D03*
X179899991Y-115486007D03*
%TO.N,CHG*%
X195049991Y-94726007D03*
X195479991Y-99516007D03*
%TO.N,GP*%
X195629991Y-101196007D03*
X203579991Y-89896007D03*
%TO.N,Net-(D1-K)*%
X128776211Y-97065174D03*
X119636211Y-106245174D03*
%TO.N,Net-(D3-A)*%
X121446211Y-103275174D03*
X128696211Y-94955174D03*
%TO.N,Net-(Q1-S)*%
X126643574Y-106331780D03*
X123966211Y-105545174D03*
%TD*%
%TA.AperFunction,Conductor*%
%TO.N,VSS_PA*%
G36*
X183689991Y-112425273D02*
G01*
X183682831Y-112466798D01*
X183632658Y-112607969D01*
X183632657Y-112607972D01*
X183574192Y-112889326D01*
X183554583Y-113176007D01*
X183574192Y-113462687D01*
X183632657Y-113744040D01*
X183649579Y-113791653D01*
X183682831Y-113885216D01*
X183689991Y-113926739D01*
X183689991Y-117042019D01*
X183670306Y-117109058D01*
X183617502Y-117154813D01*
X183565991Y-117166019D01*
X166311836Y-117166019D01*
X166311828Y-117166018D01*
X166263604Y-117166018D01*
X166251452Y-117165421D01*
X166113703Y-117151856D01*
X166089860Y-117147114D01*
X165963256Y-117108709D01*
X165940797Y-117099406D01*
X165824120Y-117037039D01*
X165803917Y-117023539D01*
X165701645Y-116939602D01*
X165684460Y-116922415D01*
X165642498Y-116871280D01*
X165600534Y-116820144D01*
X165587031Y-116799933D01*
X165524673Y-116683255D01*
X165515371Y-116660795D01*
X165511376Y-116647622D01*
X165476973Y-116534186D01*
X165472235Y-116510357D01*
X165458614Y-116371952D01*
X165458019Y-116359839D01*
X165458019Y-116359211D01*
X165458022Y-116326653D01*
X165458021Y-116326651D01*
X165458022Y-116314728D01*
X165457965Y-116314153D01*
X165456987Y-115486003D01*
X179094426Y-115486003D01*
X179094426Y-115486010D01*
X179114621Y-115665256D01*
X179114622Y-115665261D01*
X179174202Y-115835530D01*
X179270175Y-115988269D01*
X179397729Y-116115823D01*
X179550469Y-116211796D01*
X179618074Y-116235452D01*
X179720736Y-116271375D01*
X179720741Y-116271376D01*
X179899987Y-116291572D01*
X179899991Y-116291572D01*
X179899995Y-116291572D01*
X180079240Y-116271376D01*
X180079243Y-116271375D01*
X180079246Y-116271375D01*
X180249513Y-116211796D01*
X180402253Y-116115823D01*
X180529807Y-115988269D01*
X180625780Y-115835529D01*
X180685359Y-115665262D01*
X180705556Y-115486007D01*
X180689260Y-115341376D01*
X180685360Y-115306757D01*
X180685359Y-115306752D01*
X180625780Y-115136485D01*
X180529807Y-114983745D01*
X180402253Y-114856191D01*
X180365181Y-114832897D01*
X180249514Y-114760218D01*
X180079245Y-114700638D01*
X180079240Y-114700637D01*
X179899995Y-114680442D01*
X179899987Y-114680442D01*
X179720741Y-114700637D01*
X179720736Y-114700638D01*
X179550467Y-114760218D01*
X179397728Y-114856191D01*
X179270175Y-114983744D01*
X179174202Y-115136483D01*
X179114622Y-115306752D01*
X179114621Y-115306757D01*
X179094426Y-115486003D01*
X165456987Y-115486003D01*
X165455888Y-114556003D01*
X180964426Y-114556003D01*
X180964426Y-114556010D01*
X180984621Y-114735256D01*
X180984622Y-114735261D01*
X181044202Y-114905530D01*
X181093348Y-114983745D01*
X181140175Y-115058269D01*
X181267729Y-115185823D01*
X181349778Y-115237378D01*
X181412051Y-115276507D01*
X181420469Y-115281796D01*
X181590736Y-115341375D01*
X181590741Y-115341376D01*
X181769987Y-115361572D01*
X181769991Y-115361572D01*
X181769995Y-115361572D01*
X181949240Y-115341376D01*
X181949243Y-115341375D01*
X181949246Y-115341375D01*
X182119513Y-115281796D01*
X182272253Y-115185823D01*
X182399807Y-115058269D01*
X182495780Y-114905529D01*
X182555359Y-114735262D01*
X182559260Y-114700638D01*
X182575556Y-114556010D01*
X182575556Y-114556003D01*
X182555360Y-114376757D01*
X182555359Y-114376752D01*
X182495779Y-114206483D01*
X182399806Y-114053744D01*
X182272253Y-113926191D01*
X182119514Y-113830218D01*
X181949245Y-113770638D01*
X181949240Y-113770637D01*
X181769995Y-113750442D01*
X181769987Y-113750442D01*
X181590741Y-113770637D01*
X181590736Y-113770638D01*
X181420467Y-113830218D01*
X181267728Y-113926191D01*
X181140175Y-114053744D01*
X181044202Y-114206483D01*
X180984622Y-114376752D01*
X180984621Y-114376757D01*
X180964426Y-114556003D01*
X165455888Y-114556003D01*
X165451793Y-111089004D01*
X183689991Y-111043434D01*
X183689991Y-112425273D01*
G37*
%TD.AperFunction*%
%TD*%
%TA.AperFunction,Conductor*%
%TO.N,VSS_PA*%
G36*
X161839508Y-69096609D02*
G01*
X161839509Y-69096610D01*
X161839511Y-69096613D01*
X161885573Y-69142675D01*
X161907247Y-69195000D01*
X161885573Y-69247324D01*
X161839511Y-69293387D01*
X161839508Y-69293390D01*
X161780201Y-69396112D01*
X161780199Y-69396117D01*
X161749500Y-69510688D01*
X161749500Y-69629311D01*
X161780199Y-69743882D01*
X161780201Y-69743887D01*
X161839508Y-69846609D01*
X161839509Y-69846610D01*
X161839511Y-69846613D01*
X161885573Y-69892675D01*
X161907247Y-69945000D01*
X161885573Y-69997324D01*
X161839511Y-70043387D01*
X161839508Y-70043390D01*
X161780201Y-70146112D01*
X161780199Y-70146117D01*
X161749500Y-70260688D01*
X161749500Y-70379311D01*
X161780199Y-70493882D01*
X161780201Y-70493887D01*
X161839508Y-70596609D01*
X161839509Y-70596610D01*
X161839511Y-70596613D01*
X161891573Y-70648675D01*
X161913247Y-70701000D01*
X161891573Y-70753324D01*
X161841398Y-70803500D01*
X161839508Y-70805390D01*
X161780201Y-70908112D01*
X161780199Y-70908117D01*
X161749500Y-71022688D01*
X161749500Y-71141311D01*
X161780199Y-71255882D01*
X161780201Y-71255887D01*
X161839508Y-71358609D01*
X161839509Y-71358610D01*
X161839511Y-71358613D01*
X161923387Y-71442489D01*
X161923389Y-71442490D01*
X161923390Y-71442491D01*
X161964069Y-71465977D01*
X162026114Y-71501799D01*
X162026115Y-71501799D01*
X162026117Y-71501800D01*
X162083402Y-71517149D01*
X162140688Y-71532499D01*
X162140689Y-71532500D01*
X162183525Y-71532500D01*
X162235851Y-71554174D01*
X162257525Y-71606500D01*
X162246036Y-71646102D01*
X162180735Y-71749175D01*
X162180733Y-71749177D01*
X162180733Y-71749179D01*
X162180729Y-71749185D01*
X162079939Y-71973739D01*
X162012132Y-72210373D01*
X162012131Y-72210375D01*
X161978697Y-72454245D01*
X161978697Y-72454253D01*
X161979498Y-72576100D01*
X161979500Y-72576586D01*
X161979500Y-80719239D01*
X161978948Y-80725250D01*
X161978994Y-80728765D01*
X161978994Y-80728766D01*
X161979451Y-80763533D01*
X161979494Y-80766818D01*
X161979500Y-80767789D01*
X161979500Y-80809423D01*
X161980127Y-80815394D01*
X161981063Y-80887278D01*
X161981118Y-80891449D01*
X162019202Y-81134109D01*
X162036395Y-81190047D01*
X162091366Y-81368905D01*
X162196144Y-81591061D01*
X162242121Y-81660748D01*
X162252846Y-81716360D01*
X162221105Y-81763268D01*
X162180353Y-81775500D01*
X162140689Y-81775500D01*
X162026117Y-81806199D01*
X162026112Y-81806201D01*
X161923390Y-81865508D01*
X161839508Y-81949390D01*
X161780201Y-82052112D01*
X161780199Y-82052117D01*
X161749500Y-82166688D01*
X161749500Y-82285311D01*
X161780199Y-82399882D01*
X161780201Y-82399887D01*
X161839508Y-82502609D01*
X161839509Y-82502610D01*
X161839511Y-82502613D01*
X161897573Y-82560675D01*
X161919247Y-82613000D01*
X161897573Y-82665324D01*
X161839511Y-82723387D01*
X161839508Y-82723390D01*
X161780201Y-82826112D01*
X161780199Y-82826117D01*
X161749500Y-82940688D01*
X161749500Y-83059311D01*
X161780199Y-83173882D01*
X161780201Y-83173887D01*
X161839508Y-83276609D01*
X161839509Y-83276610D01*
X161839511Y-83276613D01*
X161885573Y-83322675D01*
X161907247Y-83375000D01*
X161885573Y-83427324D01*
X161839511Y-83473387D01*
X161839508Y-83473390D01*
X161780201Y-83576112D01*
X161780199Y-83576117D01*
X161749500Y-83690688D01*
X161749500Y-83809311D01*
X161780199Y-83923882D01*
X161780201Y-83923887D01*
X161839508Y-84026609D01*
X161839509Y-84026610D01*
X161839511Y-84026613D01*
X161885573Y-84072675D01*
X161907247Y-84125000D01*
X161885573Y-84177324D01*
X161839511Y-84223387D01*
X161839508Y-84223390D01*
X161780201Y-84326112D01*
X161780199Y-84326117D01*
X161749500Y-84440688D01*
X161749500Y-84559311D01*
X161780199Y-84673882D01*
X161780201Y-84673887D01*
X161839508Y-84776609D01*
X161839509Y-84776610D01*
X161839511Y-84776613D01*
X161891573Y-84828675D01*
X161913247Y-84881000D01*
X161891573Y-84933324D01*
X161839511Y-84985387D01*
X161839508Y-84985390D01*
X161780201Y-85088112D01*
X161780199Y-85088117D01*
X161749500Y-85202688D01*
X161749500Y-85321311D01*
X161780199Y-85435882D01*
X161780201Y-85435887D01*
X161839508Y-85538609D01*
X161839509Y-85538610D01*
X161839511Y-85538613D01*
X161923387Y-85622489D01*
X161923389Y-85622490D01*
X161923390Y-85622491D01*
X161977172Y-85653542D01*
X162026114Y-85681799D01*
X162026115Y-85681799D01*
X162026117Y-85681800D01*
X162061695Y-85691333D01*
X162140688Y-85712499D01*
X162140689Y-85712500D01*
X162181842Y-85712500D01*
X162234168Y-85734174D01*
X162255842Y-85786500D01*
X162243120Y-85827985D01*
X162206104Y-85882662D01*
X162206102Y-85882664D01*
X162098827Y-86103097D01*
X162023879Y-86336492D01*
X161982761Y-86578165D01*
X161982761Y-86578172D01*
X161980782Y-86654160D01*
X161979500Y-86665648D01*
X161979500Y-86702400D01*
X161979474Y-86704347D01*
X161978510Y-86740960D01*
X161979500Y-86752576D01*
X161979500Y-95509376D01*
X161978509Y-95521448D01*
X161978310Y-95522646D01*
X161979461Y-95558041D01*
X161979500Y-95560445D01*
X161979500Y-95595881D01*
X161979713Y-95596952D01*
X161981096Y-95609017D01*
X161983568Y-95686213D01*
X162026517Y-95930012D01*
X162026518Y-95930014D01*
X162090273Y-96124819D01*
X162103515Y-96165278D01*
X162199020Y-96358912D01*
X162213018Y-96387292D01*
X162231096Y-96413709D01*
X162242760Y-96469132D01*
X162211817Y-96516570D01*
X162170026Y-96529500D01*
X162160689Y-96529500D01*
X162046117Y-96560199D01*
X162046112Y-96560201D01*
X161943390Y-96619508D01*
X161859508Y-96703390D01*
X161800201Y-96806112D01*
X161800199Y-96806117D01*
X161769500Y-96920688D01*
X161769500Y-97039311D01*
X161800199Y-97153882D01*
X161800201Y-97153887D01*
X161859508Y-97256609D01*
X161859509Y-97256610D01*
X161859511Y-97256613D01*
X161917573Y-97314675D01*
X161939247Y-97367000D01*
X161917573Y-97419324D01*
X161859511Y-97477387D01*
X161859508Y-97477390D01*
X161800201Y-97580112D01*
X161800199Y-97580117D01*
X161769500Y-97694688D01*
X161769500Y-97813311D01*
X161800199Y-97927882D01*
X161800201Y-97927887D01*
X161859508Y-98030609D01*
X161859509Y-98030610D01*
X161859511Y-98030613D01*
X161905573Y-98076675D01*
X161927247Y-98129000D01*
X161905573Y-98181324D01*
X161859511Y-98227387D01*
X161859508Y-98227390D01*
X161800201Y-98330112D01*
X161800199Y-98330117D01*
X161769500Y-98444688D01*
X161769500Y-98563311D01*
X161800199Y-98677882D01*
X161800201Y-98677887D01*
X161859508Y-98780609D01*
X161859509Y-98780610D01*
X161859511Y-98780613D01*
X161905573Y-98826675D01*
X161927247Y-98879000D01*
X161905573Y-98931324D01*
X161859511Y-98977387D01*
X161859508Y-98977390D01*
X161800201Y-99080112D01*
X161800199Y-99080117D01*
X161769500Y-99194688D01*
X161769500Y-99313311D01*
X161800199Y-99427882D01*
X161800201Y-99427887D01*
X161859508Y-99530609D01*
X161859509Y-99530610D01*
X161859511Y-99530613D01*
X161911573Y-99582675D01*
X161933247Y-99635000D01*
X161911573Y-99687324D01*
X161869065Y-99729833D01*
X161859508Y-99739390D01*
X161800201Y-99842112D01*
X161800199Y-99842117D01*
X161769500Y-99956688D01*
X161769500Y-100075311D01*
X161800199Y-100189882D01*
X161800201Y-100189887D01*
X161859508Y-100292609D01*
X161859509Y-100292610D01*
X161859511Y-100292613D01*
X161943387Y-100376489D01*
X161943389Y-100376490D01*
X161943390Y-100376491D01*
X162046112Y-100435798D01*
X162046114Y-100435799D01*
X162046115Y-100435799D01*
X162046117Y-100435800D01*
X162078661Y-100444520D01*
X162160688Y-100466499D01*
X162160689Y-100466500D01*
X162206933Y-100466500D01*
X162259259Y-100488174D01*
X162280933Y-100540500D01*
X162268654Y-100581323D01*
X162216993Y-100659429D01*
X162216990Y-100659434D01*
X162216990Y-100659435D01*
X162137647Y-100827294D01*
X162111810Y-100881954D01*
X162111807Y-100881959D01*
X162039368Y-101117170D01*
X162039367Y-101117174D01*
X162001138Y-101360311D01*
X162001138Y-101360313D01*
X162000134Y-101436561D01*
X161999566Y-101441928D01*
X161999501Y-101484133D01*
X161999495Y-101484986D01*
X161998942Y-101527165D01*
X161999428Y-101532494D01*
X161977043Y-116228111D01*
X161976976Y-116228782D01*
X161976972Y-116271835D01*
X161976615Y-116279085D01*
X161962312Y-116424191D01*
X161959481Y-116438417D01*
X161918210Y-116574441D01*
X161912659Y-116587842D01*
X161845642Y-116713211D01*
X161837582Y-116725272D01*
X161747400Y-116835153D01*
X161737144Y-116845409D01*
X161627257Y-116935592D01*
X161615197Y-116943650D01*
X161489836Y-117010661D01*
X161476435Y-117016213D01*
X161340401Y-117057484D01*
X161326175Y-117060314D01*
X161180910Y-117074631D01*
X161173657Y-117074988D01*
X161131146Y-117074990D01*
X161131086Y-117074996D01*
X158619513Y-117075449D01*
X158567184Y-117053784D01*
X158545500Y-117001462D01*
X158545500Y-111466118D01*
X158545499Y-111466116D01*
X158514977Y-111392428D01*
X158514975Y-111392425D01*
X158458575Y-111336025D01*
X158458571Y-111336022D01*
X158384882Y-111305500D01*
X149284882Y-111305500D01*
X149205118Y-111305500D01*
X149131428Y-111336022D01*
X149075022Y-111392428D01*
X149044500Y-111466116D01*
X149044500Y-117001495D01*
X149022826Y-117053821D01*
X148970500Y-117075495D01*
X148970499Y-117075495D01*
X115581114Y-117074987D01*
X115573860Y-117074630D01*
X115428757Y-117060335D01*
X115414529Y-117057505D01*
X115278504Y-117016238D01*
X115265102Y-117010686D01*
X115139742Y-116943676D01*
X115127681Y-116935617D01*
X115017800Y-116845436D01*
X115007543Y-116835178D01*
X114917365Y-116725293D01*
X114909308Y-116713236D01*
X114842299Y-116587864D01*
X114836749Y-116574464D01*
X114795487Y-116438435D01*
X114792658Y-116424213D01*
X114778327Y-116278695D01*
X114777972Y-116271450D01*
X114777972Y-111185174D01*
X118721078Y-111185174D01*
X118739513Y-111313397D01*
X118739513Y-111313398D01*
X118739514Y-111313400D01*
X118793329Y-111431237D01*
X118878162Y-111529141D01*
X118987142Y-111599178D01*
X119111439Y-111635674D01*
X119240983Y-111635674D01*
X119365280Y-111599178D01*
X119474260Y-111529141D01*
X119559093Y-111431237D01*
X119612908Y-111313400D01*
X119631344Y-111185174D01*
X119612908Y-111056948D01*
X119559093Y-110939111D01*
X119495736Y-110865992D01*
X122469592Y-110865992D01*
X122469592Y-110866007D01*
X122489200Y-111152677D01*
X122489203Y-111152697D01*
X122547663Y-111434023D01*
X122547668Y-111434041D01*
X122643892Y-111704789D01*
X122643894Y-111704794D01*
X122705331Y-111823362D01*
X122776099Y-111959936D01*
X122941811Y-112194698D01*
X123137947Y-112404708D01*
X123360853Y-112586055D01*
X123606375Y-112735361D01*
X123869942Y-112849844D01*
X124146642Y-112927371D01*
X124431322Y-112966500D01*
X124431329Y-112966500D01*
X124718671Y-112966500D01*
X124718678Y-112966500D01*
X125003358Y-112927371D01*
X125280058Y-112849844D01*
X125543625Y-112735361D01*
X125789147Y-112586055D01*
X126012053Y-112404708D01*
X126208189Y-112194698D01*
X126373901Y-111959936D01*
X126506104Y-111704797D01*
X126506107Y-111704789D01*
X126602331Y-111434041D01*
X126602331Y-111434038D01*
X126602334Y-111434032D01*
X126602915Y-111431237D01*
X126660796Y-111152697D01*
X126660799Y-111152677D01*
X126680408Y-110866007D01*
X126680408Y-110865992D01*
X126660799Y-110579322D01*
X126660796Y-110579302D01*
X126602336Y-110297976D01*
X126602331Y-110297958D01*
X126506107Y-110027210D01*
X126506105Y-110027205D01*
X126373901Y-109772064D01*
X126373896Y-109772057D01*
X126366259Y-109761238D01*
X126208189Y-109537302D01*
X126187523Y-109515174D01*
X151971078Y-109515174D01*
X151989513Y-109643397D01*
X151989513Y-109643398D01*
X151989514Y-109643400D01*
X152043329Y-109761237D01*
X152128162Y-109859141D01*
X152237142Y-109929178D01*
X152361439Y-109965674D01*
X152490983Y-109965674D01*
X152615280Y-109929178D01*
X152724260Y-109859141D01*
X152809093Y-109761237D01*
X152862908Y-109643400D01*
X152881344Y-109515174D01*
X154471078Y-109515174D01*
X154489513Y-109643397D01*
X154489513Y-109643398D01*
X154489514Y-109643400D01*
X154543329Y-109761237D01*
X154628162Y-109859141D01*
X154737142Y-109929178D01*
X154861439Y-109965674D01*
X154990983Y-109965674D01*
X155115280Y-109929178D01*
X155224260Y-109859141D01*
X155309093Y-109761237D01*
X155362908Y-109643400D01*
X155381344Y-109515174D01*
X155362908Y-109386948D01*
X155309093Y-109269111D01*
X155224260Y-109171207D01*
X155157243Y-109128138D01*
X155115279Y-109101169D01*
X154990983Y-109064674D01*
X154861439Y-109064674D01*
X154737142Y-109101169D01*
X154628165Y-109171205D01*
X154628161Y-109171208D01*
X154543330Y-109269109D01*
X154543329Y-109269110D01*
X154543329Y-109269111D01*
X154516758Y-109327292D01*
X154489513Y-109386950D01*
X154471078Y-109515174D01*
X152881344Y-109515174D01*
X152862908Y-109386948D01*
X152809093Y-109269111D01*
X152724260Y-109171207D01*
X152657243Y-109128138D01*
X152615279Y-109101169D01*
X152490983Y-109064674D01*
X152361439Y-109064674D01*
X152237142Y-109101169D01*
X152128165Y-109171205D01*
X152128161Y-109171208D01*
X152043330Y-109269109D01*
X152043329Y-109269110D01*
X152043329Y-109269111D01*
X152016758Y-109327292D01*
X151989513Y-109386950D01*
X151971078Y-109515174D01*
X126187523Y-109515174D01*
X126012053Y-109327292D01*
X125789147Y-109145945D01*
X125789141Y-109145941D01*
X125789138Y-109145939D01*
X125655503Y-109064674D01*
X125543625Y-108996639D01*
X125543622Y-108996637D01*
X125543621Y-108996637D01*
X125280056Y-108882155D01*
X125003356Y-108804628D01*
X124718682Y-108765500D01*
X124718678Y-108765500D01*
X124431322Y-108765500D01*
X124431317Y-108765500D01*
X124146643Y-108804628D01*
X123869943Y-108882155D01*
X123606378Y-108996637D01*
X123606375Y-108996639D01*
X123360861Y-109145939D01*
X123360853Y-109145945D01*
X123209462Y-109269111D01*
X123137945Y-109327294D01*
X122941809Y-109537304D01*
X122776103Y-109772057D01*
X122776098Y-109772064D01*
X122643894Y-110027205D01*
X122643892Y-110027210D01*
X122547668Y-110297958D01*
X122547663Y-110297976D01*
X122489203Y-110579302D01*
X122489200Y-110579322D01*
X122469592Y-110865992D01*
X119495736Y-110865992D01*
X119474260Y-110841207D01*
X119407243Y-110798138D01*
X119365279Y-110771169D01*
X119240983Y-110734674D01*
X119111439Y-110734674D01*
X118987142Y-110771169D01*
X118878165Y-110841205D01*
X118878161Y-110841208D01*
X118793330Y-110939109D01*
X118739513Y-111056950D01*
X118721078Y-111185174D01*
X114777972Y-111185174D01*
X114777972Y-106245174D01*
X119181078Y-106245174D01*
X119199513Y-106373397D01*
X119199513Y-106373398D01*
X119199514Y-106373400D01*
X119253329Y-106491237D01*
X119338162Y-106589141D01*
X119447142Y-106659178D01*
X119571439Y-106695674D01*
X119700983Y-106695674D01*
X119825280Y-106659178D01*
X119934260Y-106589141D01*
X120019093Y-106491237D01*
X120072908Y-106373400D01*
X120078892Y-106331780D01*
X126188441Y-106331780D01*
X126206876Y-106460003D01*
X126206876Y-106460004D01*
X126206877Y-106460006D01*
X126260692Y-106577843D01*
X126345525Y-106675747D01*
X126454505Y-106745784D01*
X126578802Y-106782280D01*
X126708346Y-106782280D01*
X126832643Y-106745784D01*
X126941623Y-106675747D01*
X127026456Y-106577843D01*
X127080271Y-106460006D01*
X127098707Y-106331780D01*
X127080271Y-106203554D01*
X127026456Y-106085717D01*
X126941623Y-105987813D01*
X126874606Y-105944744D01*
X126832642Y-105917775D01*
X126708346Y-105881280D01*
X126578802Y-105881280D01*
X126454505Y-105917775D01*
X126345528Y-105987811D01*
X126345524Y-105987814D01*
X126260693Y-106085715D01*
X126206876Y-106203556D01*
X126188441Y-106331780D01*
X120078892Y-106331780D01*
X120091344Y-106245174D01*
X120072908Y-106116948D01*
X120019093Y-105999111D01*
X119934260Y-105901207D01*
X119867243Y-105858138D01*
X119825279Y-105831169D01*
X119700983Y-105794674D01*
X119571439Y-105794674D01*
X119447142Y-105831169D01*
X119338165Y-105901205D01*
X119338161Y-105901208D01*
X119253330Y-105999109D01*
X119199513Y-106116950D01*
X119181078Y-106245174D01*
X114777972Y-106245174D01*
X114777972Y-105545174D01*
X123511078Y-105545174D01*
X123529513Y-105673397D01*
X123529513Y-105673398D01*
X123529514Y-105673400D01*
X123583329Y-105791237D01*
X123668162Y-105889141D01*
X123777142Y-105959178D01*
X123901439Y-105995674D01*
X124030983Y-105995674D01*
X124155280Y-105959178D01*
X124264260Y-105889141D01*
X124349093Y-105791237D01*
X124402908Y-105673400D01*
X124421344Y-105545174D01*
X124402908Y-105416948D01*
X124349093Y-105299111D01*
X124264260Y-105201207D01*
X124197243Y-105158138D01*
X124155279Y-105131169D01*
X124030983Y-105094674D01*
X123901439Y-105094674D01*
X123777142Y-105131169D01*
X123668165Y-105201205D01*
X123668161Y-105201208D01*
X123583330Y-105299109D01*
X123529513Y-105416950D01*
X123511078Y-105545174D01*
X114777972Y-105545174D01*
X114777972Y-102365992D01*
X116069592Y-102365992D01*
X116069592Y-102366007D01*
X116089200Y-102652677D01*
X116089203Y-102652697D01*
X116147663Y-102934023D01*
X116147668Y-102934041D01*
X116243892Y-103204789D01*
X116243894Y-103204794D01*
X116362676Y-103434032D01*
X116376099Y-103459936D01*
X116541811Y-103694698D01*
X116737947Y-103904708D01*
X116960853Y-104086055D01*
X117206375Y-104235361D01*
X117469942Y-104349844D01*
X117746642Y-104427371D01*
X118031322Y-104466500D01*
X118031329Y-104466500D01*
X118318671Y-104466500D01*
X118318678Y-104466500D01*
X118603358Y-104427371D01*
X118880058Y-104349844D01*
X119143625Y-104235361D01*
X119389147Y-104086055D01*
X119612053Y-103904708D01*
X119808189Y-103694698D01*
X119973901Y-103459936D01*
X120069637Y-103275174D01*
X120991078Y-103275174D01*
X121009513Y-103403397D01*
X121009513Y-103403398D01*
X121009514Y-103403400D01*
X121063329Y-103521237D01*
X121148162Y-103619141D01*
X121257142Y-103689178D01*
X121381439Y-103725674D01*
X121510983Y-103725674D01*
X121635280Y-103689178D01*
X121744260Y-103619141D01*
X121829093Y-103521237D01*
X121882908Y-103403400D01*
X121901344Y-103275174D01*
X121882908Y-103146948D01*
X121829093Y-103029111D01*
X121744260Y-102931207D01*
X121677243Y-102888138D01*
X121642784Y-102865992D01*
X142769592Y-102865992D01*
X142769592Y-102866007D01*
X142789200Y-103152677D01*
X142789203Y-103152697D01*
X142847663Y-103434023D01*
X142847668Y-103434041D01*
X142943892Y-103704789D01*
X142943894Y-103704794D01*
X143069924Y-103948020D01*
X143076099Y-103959936D01*
X143241811Y-104194698D01*
X143437947Y-104404708D01*
X143660853Y-104586055D01*
X143906375Y-104735361D01*
X144169942Y-104849844D01*
X144446642Y-104927371D01*
X144731322Y-104966500D01*
X144731329Y-104966500D01*
X145018671Y-104966500D01*
X145018678Y-104966500D01*
X145303358Y-104927371D01*
X145580058Y-104849844D01*
X145843625Y-104735361D01*
X146089147Y-104586055D01*
X146312053Y-104404708D01*
X146508189Y-104194698D01*
X146673901Y-103959936D01*
X146806104Y-103704797D01*
X146842146Y-103603385D01*
X146902331Y-103434041D01*
X146902331Y-103434038D01*
X146902334Y-103434032D01*
X146902336Y-103434023D01*
X146960796Y-103152697D01*
X146960799Y-103152677D01*
X146980408Y-102866007D01*
X146980408Y-102865992D01*
X154569592Y-102865992D01*
X154569592Y-102866007D01*
X154589200Y-103152677D01*
X154589203Y-103152697D01*
X154647663Y-103434023D01*
X154647668Y-103434041D01*
X154743892Y-103704789D01*
X154743894Y-103704794D01*
X154869924Y-103948020D01*
X154876099Y-103959936D01*
X155041811Y-104194698D01*
X155237947Y-104404708D01*
X155460853Y-104586055D01*
X155706375Y-104735361D01*
X155969942Y-104849844D01*
X156246642Y-104927371D01*
X156531322Y-104966500D01*
X156531329Y-104966500D01*
X156818671Y-104966500D01*
X156818678Y-104966500D01*
X157103358Y-104927371D01*
X157380058Y-104849844D01*
X157643625Y-104735361D01*
X157889147Y-104586055D01*
X158112053Y-104404708D01*
X158308189Y-104194698D01*
X158473901Y-103959936D01*
X158606104Y-103704797D01*
X158642146Y-103603385D01*
X158702331Y-103434041D01*
X158702331Y-103434038D01*
X158702334Y-103434032D01*
X158702336Y-103434023D01*
X158760796Y-103152697D01*
X158760799Y-103152677D01*
X158780408Y-102866007D01*
X158780408Y-102865992D01*
X158760799Y-102579322D01*
X158760796Y-102579302D01*
X158702336Y-102297976D01*
X158702331Y-102297958D01*
X158606107Y-102027210D01*
X158606105Y-102027205D01*
X158473901Y-101772064D01*
X158473896Y-101772057D01*
X158372644Y-101628615D01*
X158308189Y-101537302D01*
X158112053Y-101327292D01*
X157889147Y-101145945D01*
X157889141Y-101145941D01*
X157889138Y-101145939D01*
X157710451Y-101037277D01*
X157643625Y-100996639D01*
X157643622Y-100996637D01*
X157643621Y-100996637D01*
X157380056Y-100882155D01*
X157103356Y-100804628D01*
X156818682Y-100765500D01*
X156818678Y-100765500D01*
X156531322Y-100765500D01*
X156531317Y-100765500D01*
X156246643Y-100804628D01*
X155969943Y-100882155D01*
X155706378Y-100996637D01*
X155706375Y-100996639D01*
X155460861Y-101145939D01*
X155460853Y-101145945D01*
X155264193Y-101305940D01*
X155237945Y-101327294D01*
X155041809Y-101537304D01*
X154876103Y-101772057D01*
X154876098Y-101772064D01*
X154743894Y-102027205D01*
X154743892Y-102027210D01*
X154647668Y-102297958D01*
X154647663Y-102297976D01*
X154589203Y-102579302D01*
X154589200Y-102579322D01*
X154569592Y-102865992D01*
X146980408Y-102865992D01*
X146960799Y-102579322D01*
X146960796Y-102579302D01*
X146902336Y-102297976D01*
X146902331Y-102297958D01*
X146806107Y-102027210D01*
X146806105Y-102027205D01*
X146673901Y-101772064D01*
X146673896Y-101772057D01*
X146572644Y-101628615D01*
X146508189Y-101537302D01*
X146312053Y-101327292D01*
X146089147Y-101145945D01*
X146089141Y-101145941D01*
X146089138Y-101145939D01*
X145910451Y-101037277D01*
X145843625Y-100996639D01*
X145843622Y-100996637D01*
X145843621Y-100996637D01*
X145580056Y-100882155D01*
X145303356Y-100804628D01*
X145018682Y-100765500D01*
X145018678Y-100765500D01*
X144731322Y-100765500D01*
X144731317Y-100765500D01*
X144446643Y-100804628D01*
X144169943Y-100882155D01*
X143906378Y-100996637D01*
X143906375Y-100996639D01*
X143660861Y-101145939D01*
X143660853Y-101145945D01*
X143464193Y-101305940D01*
X143437945Y-101327294D01*
X143241809Y-101537304D01*
X143076103Y-101772057D01*
X143076098Y-101772064D01*
X142943894Y-102027205D01*
X142943892Y-102027210D01*
X142847668Y-102297958D01*
X142847663Y-102297976D01*
X142789203Y-102579302D01*
X142789200Y-102579322D01*
X142769592Y-102865992D01*
X121642784Y-102865992D01*
X121635279Y-102861169D01*
X121510983Y-102824674D01*
X121381439Y-102824674D01*
X121257142Y-102861169D01*
X121148165Y-102931205D01*
X121148161Y-102931208D01*
X121063330Y-103029109D01*
X121009513Y-103146950D01*
X120991078Y-103275174D01*
X120069637Y-103275174D01*
X120106104Y-103204797D01*
X120106107Y-103204789D01*
X120202331Y-102934041D01*
X120202331Y-102934038D01*
X120202334Y-102934032D01*
X120202921Y-102931207D01*
X120260796Y-102652697D01*
X120260799Y-102652677D01*
X120280408Y-102366007D01*
X120280408Y-102365992D01*
X120260799Y-102079322D01*
X120260796Y-102079302D01*
X120202336Y-101797976D01*
X120202331Y-101797958D01*
X120106107Y-101527210D01*
X120106105Y-101527205D01*
X120084020Y-101484584D01*
X119973901Y-101272064D01*
X119808189Y-101037302D01*
X119612053Y-100827292D01*
X119498824Y-100735174D01*
X137995870Y-100735174D01*
X138015187Y-100931307D01*
X138072398Y-101119905D01*
X138153530Y-101271690D01*
X138165301Y-101293712D01*
X138290328Y-101446057D01*
X138442673Y-101571084D01*
X138519637Y-101612222D01*
X138616479Y-101663986D01*
X138616481Y-101663986D01*
X138616484Y-101663988D01*
X138805079Y-101721198D01*
X139001211Y-101740515D01*
X139197343Y-101721198D01*
X139385938Y-101663988D01*
X139559749Y-101571084D01*
X139712094Y-101446057D01*
X139837121Y-101293712D01*
X139930025Y-101119901D01*
X139987235Y-100931306D01*
X140006552Y-100735174D01*
X139987235Y-100539042D01*
X139930025Y-100350447D01*
X139930023Y-100350444D01*
X139930023Y-100350442D01*
X139845560Y-100192425D01*
X139837121Y-100176636D01*
X139712094Y-100024291D01*
X139559749Y-99899264D01*
X139527351Y-99881947D01*
X139385942Y-99806361D01*
X139197344Y-99749150D01*
X139001211Y-99729833D01*
X138805077Y-99749150D01*
X138616479Y-99806361D01*
X138442674Y-99899263D01*
X138290328Y-100024291D01*
X138165300Y-100176637D01*
X138072398Y-100350442D01*
X138015187Y-100539040D01*
X137995870Y-100735174D01*
X119498824Y-100735174D01*
X119389147Y-100645945D01*
X119389141Y-100645941D01*
X119389138Y-100645939D01*
X119187700Y-100523442D01*
X119143625Y-100496639D01*
X119143622Y-100496637D01*
X119143621Y-100496637D01*
X118880056Y-100382155D01*
X118603356Y-100304628D01*
X118318682Y-100265500D01*
X118318678Y-100265500D01*
X118031322Y-100265500D01*
X118031317Y-100265500D01*
X117746643Y-100304628D01*
X117469943Y-100382155D01*
X117206378Y-100496637D01*
X117206375Y-100496639D01*
X116960861Y-100645939D01*
X116960853Y-100645945D01*
X116895302Y-100699275D01*
X116737945Y-100827294D01*
X116541809Y-101037304D01*
X116376103Y-101272057D01*
X116376098Y-101272064D01*
X116243894Y-101527205D01*
X116243892Y-101527210D01*
X116147668Y-101797958D01*
X116147663Y-101797976D01*
X116089203Y-102079302D01*
X116089200Y-102079322D01*
X116069592Y-102365992D01*
X114777972Y-102365992D01*
X114777972Y-99741780D01*
X128708441Y-99741780D01*
X128726876Y-99870003D01*
X128726876Y-99870004D01*
X128726877Y-99870006D01*
X128780692Y-99987843D01*
X128865525Y-100085747D01*
X128974505Y-100155784D01*
X129098802Y-100192280D01*
X129228346Y-100192280D01*
X129352643Y-100155784D01*
X129461623Y-100085747D01*
X129546456Y-99987843D01*
X129600271Y-99870006D01*
X129618707Y-99741780D01*
X129600271Y-99613554D01*
X129546456Y-99495717D01*
X129461623Y-99397813D01*
X129394606Y-99354744D01*
X129352642Y-99327775D01*
X129228346Y-99291280D01*
X129098802Y-99291280D01*
X128974505Y-99327775D01*
X128865528Y-99397811D01*
X128865524Y-99397814D01*
X128780693Y-99495715D01*
X128726876Y-99613556D01*
X128708441Y-99741780D01*
X114777972Y-99741780D01*
X114777972Y-98195174D01*
X137995870Y-98195174D01*
X138015187Y-98391307D01*
X138072398Y-98579905D01*
X138159987Y-98743771D01*
X138165301Y-98753712D01*
X138290328Y-98906057D01*
X138442673Y-99031084D01*
X138519637Y-99072222D01*
X138616479Y-99123986D01*
X138616481Y-99123986D01*
X138616484Y-99123988D01*
X138805079Y-99181198D01*
X139001211Y-99200515D01*
X139197343Y-99181198D01*
X139385938Y-99123988D01*
X139559749Y-99031084D01*
X139712094Y-98906057D01*
X139837121Y-98753712D01*
X139930025Y-98579901D01*
X139987235Y-98391306D01*
X140006552Y-98195174D01*
X139987235Y-97999042D01*
X139930025Y-97810447D01*
X139930023Y-97810444D01*
X139930023Y-97810442D01*
X139868150Y-97694688D01*
X139837121Y-97636636D01*
X139712094Y-97484291D01*
X139559749Y-97359264D01*
X139549808Y-97353950D01*
X139385942Y-97266361D01*
X139197344Y-97209150D01*
X139001211Y-97189833D01*
X138805077Y-97209150D01*
X138616479Y-97266361D01*
X138442674Y-97359263D01*
X138290328Y-97484291D01*
X138165300Y-97636637D01*
X138072398Y-97810442D01*
X138015187Y-97999040D01*
X137995870Y-98195174D01*
X114777972Y-98195174D01*
X114777972Y-97065174D01*
X128321078Y-97065174D01*
X128339513Y-97193397D01*
X128339513Y-97193398D01*
X128339514Y-97193400D01*
X128393329Y-97311237D01*
X128478162Y-97409141D01*
X128587142Y-97479178D01*
X128711439Y-97515674D01*
X128840983Y-97515674D01*
X128965280Y-97479178D01*
X129074260Y-97409141D01*
X129159093Y-97311237D01*
X129212908Y-97193400D01*
X129231344Y-97065174D01*
X129212908Y-96936948D01*
X129159093Y-96819111D01*
X129074260Y-96721207D01*
X129007243Y-96678138D01*
X128965279Y-96651169D01*
X128840983Y-96614674D01*
X128711439Y-96614674D01*
X128587142Y-96651169D01*
X128478165Y-96721205D01*
X128478161Y-96721208D01*
X128393330Y-96819109D01*
X128339513Y-96936950D01*
X128321078Y-97065174D01*
X114777972Y-97065174D01*
X114777972Y-95655174D01*
X137995870Y-95655174D01*
X138015187Y-95851307D01*
X138072398Y-96039905D01*
X138139408Y-96165270D01*
X138165301Y-96213712D01*
X138290328Y-96366057D01*
X138442673Y-96491084D01*
X138490354Y-96516570D01*
X138616479Y-96583986D01*
X138616481Y-96583986D01*
X138616484Y-96583988D01*
X138805079Y-96641198D01*
X139001211Y-96660515D01*
X139197343Y-96641198D01*
X139385938Y-96583988D01*
X139559749Y-96491084D01*
X139712094Y-96366057D01*
X139837121Y-96213712D01*
X139930025Y-96039901D01*
X139987235Y-95851306D01*
X140006552Y-95655174D01*
X139987235Y-95459042D01*
X139930025Y-95270447D01*
X139930023Y-95270444D01*
X139930023Y-95270442D01*
X139878259Y-95173600D01*
X139837121Y-95096636D01*
X139712094Y-94944291D01*
X139559749Y-94819264D01*
X139549808Y-94813950D01*
X139385942Y-94726361D01*
X139197344Y-94669150D01*
X139001211Y-94649833D01*
X138805077Y-94669150D01*
X138616479Y-94726361D01*
X138442674Y-94819263D01*
X138290328Y-94944291D01*
X138165300Y-95096637D01*
X138072398Y-95270442D01*
X138015187Y-95459040D01*
X137995870Y-95655174D01*
X114777972Y-95655174D01*
X114777972Y-94955174D01*
X128241078Y-94955174D01*
X128259513Y-95083397D01*
X128259513Y-95083398D01*
X128259514Y-95083400D01*
X128313329Y-95201237D01*
X128398162Y-95299141D01*
X128507142Y-95369178D01*
X128631439Y-95405674D01*
X128760983Y-95405674D01*
X128885280Y-95369178D01*
X128994260Y-95299141D01*
X129079093Y-95201237D01*
X129132908Y-95083400D01*
X129151344Y-94955174D01*
X129132908Y-94826948D01*
X129079093Y-94709111D01*
X128994260Y-94611207D01*
X128927243Y-94568138D01*
X128885279Y-94541169D01*
X128760983Y-94504674D01*
X128631439Y-94504674D01*
X128507142Y-94541169D01*
X128398165Y-94611205D01*
X128398161Y-94611208D01*
X128313330Y-94709109D01*
X128259513Y-94826950D01*
X128241078Y-94955174D01*
X114777972Y-94955174D01*
X114777972Y-92250354D01*
X138000711Y-92250354D01*
X138000711Y-93979994D01*
X138009444Y-94023896D01*
X138042707Y-94073678D01*
X138092489Y-94106941D01*
X138136391Y-94115674D01*
X138136392Y-94115674D01*
X139866030Y-94115674D01*
X139866031Y-94115674D01*
X139909933Y-94106941D01*
X139959715Y-94073678D01*
X139992978Y-94023896D01*
X140001711Y-93979994D01*
X140001711Y-92250354D01*
X139992978Y-92206452D01*
X139959715Y-92156670D01*
X139909933Y-92123407D01*
X139866031Y-92114674D01*
X138136391Y-92114674D01*
X138114440Y-92119040D01*
X138092488Y-92123407D01*
X138042707Y-92156669D01*
X138042706Y-92156670D01*
X138009444Y-92206451D01*
X138009444Y-92206452D01*
X138000711Y-92250354D01*
X114777972Y-92250354D01*
X114777972Y-90410174D01*
X131830870Y-90410174D01*
X131850187Y-90606307D01*
X131907398Y-90794905D01*
X131994987Y-90958771D01*
X132000301Y-90968712D01*
X132125328Y-91121057D01*
X132277673Y-91246084D01*
X132354637Y-91287222D01*
X132451479Y-91338986D01*
X132451481Y-91338986D01*
X132451484Y-91338988D01*
X132640079Y-91396198D01*
X132836211Y-91415515D01*
X133032343Y-91396198D01*
X133220938Y-91338988D01*
X133394749Y-91246084D01*
X133547094Y-91121057D01*
X133672121Y-90968712D01*
X133765025Y-90794901D01*
X133822235Y-90606306D01*
X133841552Y-90410174D01*
X133822235Y-90214042D01*
X133765025Y-90025447D01*
X133765023Y-90025444D01*
X133765023Y-90025442D01*
X133713259Y-89928600D01*
X133672121Y-89851636D01*
X133547094Y-89699291D01*
X133394749Y-89574264D01*
X133384808Y-89568950D01*
X133220942Y-89481361D01*
X133032344Y-89424150D01*
X132836211Y-89404833D01*
X132640077Y-89424150D01*
X132451479Y-89481361D01*
X132277674Y-89574263D01*
X132125328Y-89699291D01*
X132000300Y-89851637D01*
X131907398Y-90025442D01*
X131850187Y-90214040D01*
X131830870Y-90410174D01*
X114777972Y-90410174D01*
X114777972Y-84465354D01*
X131835711Y-84465354D01*
X131835711Y-86194994D01*
X131844444Y-86238896D01*
X131877707Y-86288678D01*
X131927489Y-86321941D01*
X131971391Y-86330674D01*
X131971392Y-86330674D01*
X133701030Y-86330674D01*
X133701031Y-86330674D01*
X133744933Y-86321941D01*
X133794715Y-86288678D01*
X133827978Y-86238896D01*
X133832697Y-86215174D01*
X135771078Y-86215174D01*
X135789513Y-86343397D01*
X135789513Y-86343398D01*
X135789514Y-86343400D01*
X135843329Y-86461237D01*
X135928162Y-86559141D01*
X136037142Y-86629178D01*
X136161439Y-86665674D01*
X136290983Y-86665674D01*
X136415280Y-86629178D01*
X136524260Y-86559141D01*
X136609093Y-86461237D01*
X136662908Y-86343400D01*
X136681344Y-86215174D01*
X136662908Y-86086948D01*
X136609093Y-85969111D01*
X136524260Y-85871207D01*
X136457005Y-85827985D01*
X136415279Y-85801169D01*
X136290983Y-85764674D01*
X136161439Y-85764674D01*
X136037142Y-85801169D01*
X135928165Y-85871205D01*
X135928161Y-85871208D01*
X135843330Y-85969109D01*
X135789513Y-86086950D01*
X135771078Y-86215174D01*
X133832697Y-86215174D01*
X133836711Y-86194994D01*
X133836711Y-84465354D01*
X133827978Y-84421452D01*
X133794715Y-84371670D01*
X133744933Y-84338407D01*
X133701031Y-84329674D01*
X131971391Y-84329674D01*
X131949440Y-84334040D01*
X131927488Y-84338407D01*
X131877707Y-84371669D01*
X131877706Y-84371670D01*
X131844444Y-84421451D01*
X131840617Y-84440689D01*
X131835711Y-84465354D01*
X114777972Y-84465354D01*
X114777972Y-83890174D01*
X122546078Y-83890174D01*
X122564513Y-84018397D01*
X122564513Y-84018398D01*
X122564514Y-84018400D01*
X122618329Y-84136237D01*
X122703162Y-84234141D01*
X122812142Y-84304178D01*
X122936439Y-84340674D01*
X123065983Y-84340674D01*
X123190280Y-84304178D01*
X123299260Y-84234141D01*
X123384093Y-84136237D01*
X123437908Y-84018400D01*
X123456344Y-83890174D01*
X123437908Y-83761948D01*
X123384093Y-83644111D01*
X123299260Y-83546207D01*
X123232243Y-83503138D01*
X123190279Y-83476169D01*
X123065983Y-83439674D01*
X122936439Y-83439674D01*
X122812142Y-83476169D01*
X122703165Y-83546205D01*
X122703161Y-83546208D01*
X122618330Y-83644109D01*
X122564513Y-83761950D01*
X122546078Y-83890174D01*
X114777972Y-83890174D01*
X114777972Y-83365174D01*
X132371078Y-83365174D01*
X132389513Y-83493397D01*
X132389513Y-83493398D01*
X132389514Y-83493400D01*
X132443329Y-83611237D01*
X132528162Y-83709141D01*
X132637142Y-83779178D01*
X132761439Y-83815674D01*
X132890983Y-83815674D01*
X133015280Y-83779178D01*
X133124260Y-83709141D01*
X133209093Y-83611237D01*
X133262908Y-83493400D01*
X133281344Y-83365174D01*
X133262908Y-83236948D01*
X133209093Y-83119111D01*
X133124260Y-83021207D01*
X133057243Y-82978138D01*
X133015279Y-82951169D01*
X132890983Y-82914674D01*
X132761439Y-82914674D01*
X132637142Y-82951169D01*
X132528165Y-83021205D01*
X132528161Y-83021208D01*
X132443330Y-83119109D01*
X132389513Y-83236950D01*
X132371078Y-83365174D01*
X114777972Y-83365174D01*
X114777972Y-77411780D01*
X131131867Y-77411780D01*
X131150302Y-77540003D01*
X131150302Y-77540004D01*
X131150303Y-77540006D01*
X131204118Y-77657843D01*
X131288951Y-77755747D01*
X131397931Y-77825784D01*
X131522228Y-77862280D01*
X131651772Y-77862280D01*
X131776069Y-77825784D01*
X131885049Y-77755747D01*
X131969882Y-77657843D01*
X132023697Y-77540006D01*
X132042133Y-77411780D01*
X132023697Y-77283554D01*
X131969882Y-77165717D01*
X131885049Y-77067813D01*
X131800812Y-77013677D01*
X131776068Y-76997775D01*
X131651772Y-76961280D01*
X131522228Y-76961280D01*
X131397931Y-76997775D01*
X131288954Y-77067811D01*
X131288950Y-77067814D01*
X131204119Y-77165715D01*
X131150302Y-77283556D01*
X131131867Y-77411780D01*
X114777972Y-77411780D01*
X114777972Y-76516184D01*
X123071488Y-76516184D01*
X123089923Y-76644407D01*
X123089923Y-76644408D01*
X123089924Y-76644410D01*
X123143739Y-76762247D01*
X123228572Y-76860151D01*
X123337552Y-76930188D01*
X123461849Y-76966684D01*
X123591393Y-76966684D01*
X123715690Y-76930188D01*
X123824670Y-76860151D01*
X123909503Y-76762247D01*
X123963318Y-76644410D01*
X123981754Y-76516184D01*
X123963318Y-76387958D01*
X123909503Y-76270121D01*
X123824670Y-76172217D01*
X123757653Y-76129148D01*
X123715689Y-76102179D01*
X123591393Y-76065684D01*
X123461849Y-76065684D01*
X123337552Y-76102179D01*
X123228575Y-76172215D01*
X123228571Y-76172218D01*
X123143740Y-76270119D01*
X123089923Y-76387960D01*
X123071488Y-76516184D01*
X114777972Y-76516184D01*
X114777972Y-76025174D01*
X135431078Y-76025174D01*
X135449513Y-76153397D01*
X135449513Y-76153398D01*
X135449514Y-76153400D01*
X135503329Y-76271237D01*
X135588162Y-76369141D01*
X135697142Y-76439178D01*
X135821439Y-76475674D01*
X135950983Y-76475674D01*
X136075280Y-76439178D01*
X136184260Y-76369141D01*
X136269093Y-76271237D01*
X136322908Y-76153400D01*
X136341344Y-76025174D01*
X136322908Y-75896948D01*
X136269093Y-75779111D01*
X136184260Y-75681207D01*
X136117243Y-75638138D01*
X136075279Y-75611169D01*
X135950983Y-75574674D01*
X135821439Y-75574674D01*
X135697142Y-75611169D01*
X135588165Y-75681205D01*
X135588161Y-75681208D01*
X135503330Y-75779109D01*
X135449513Y-75896950D01*
X135431078Y-76025174D01*
X114777972Y-76025174D01*
X114777972Y-74981780D01*
X122571867Y-74981780D01*
X122590302Y-75110003D01*
X122590302Y-75110004D01*
X122590303Y-75110006D01*
X122644118Y-75227843D01*
X122728951Y-75325747D01*
X122837931Y-75395784D01*
X122962228Y-75432280D01*
X123091772Y-75432280D01*
X123216069Y-75395784D01*
X123325049Y-75325747D01*
X123409882Y-75227843D01*
X123463697Y-75110006D01*
X123482133Y-74981780D01*
X123463697Y-74853554D01*
X123458320Y-74841780D01*
X130081488Y-74841780D01*
X130099923Y-74970003D01*
X130099923Y-74970004D01*
X130099924Y-74970006D01*
X130153739Y-75087843D01*
X130238572Y-75185747D01*
X130347552Y-75255784D01*
X130471849Y-75292280D01*
X130601393Y-75292280D01*
X130725690Y-75255784D01*
X130827501Y-75190354D01*
X136668211Y-75190354D01*
X136668211Y-76919993D01*
X136676944Y-76963896D01*
X136699581Y-76997776D01*
X136710207Y-77013678D01*
X136759989Y-77046941D01*
X136803891Y-77055674D01*
X136803892Y-77055674D01*
X138533530Y-77055674D01*
X138533531Y-77055674D01*
X138577433Y-77046941D01*
X138627215Y-77013678D01*
X138660478Y-76963896D01*
X138669211Y-76919994D01*
X138669211Y-75190354D01*
X138660478Y-75146452D01*
X138627215Y-75096670D01*
X138614004Y-75087843D01*
X138577433Y-75063407D01*
X138533531Y-75054674D01*
X136803891Y-75054674D01*
X136781940Y-75059040D01*
X136759988Y-75063407D01*
X136710207Y-75096669D01*
X136710206Y-75096670D01*
X136676944Y-75146451D01*
X136668211Y-75190354D01*
X130827501Y-75190354D01*
X130834670Y-75185747D01*
X130919503Y-75087843D01*
X130973318Y-74970006D01*
X130991754Y-74841780D01*
X130973318Y-74713554D01*
X130919503Y-74595717D01*
X130834670Y-74497813D01*
X130767653Y-74454744D01*
X130725689Y-74427775D01*
X130601393Y-74391280D01*
X130471849Y-74391280D01*
X130347552Y-74427775D01*
X130238575Y-74497811D01*
X130238571Y-74497814D01*
X130153740Y-74595715D01*
X130099923Y-74713556D01*
X130081488Y-74841780D01*
X123458320Y-74841780D01*
X123409882Y-74735717D01*
X123325049Y-74637813D01*
X123244510Y-74586054D01*
X123216068Y-74567775D01*
X123091772Y-74531280D01*
X122962228Y-74531280D01*
X122837931Y-74567775D01*
X122728954Y-74637811D01*
X122728950Y-74637814D01*
X122644119Y-74735715D01*
X122590302Y-74853556D01*
X122571867Y-74981780D01*
X114777972Y-74981780D01*
X114777972Y-72865992D01*
X115569592Y-72865992D01*
X115569592Y-72866007D01*
X115589200Y-73152677D01*
X115589203Y-73152697D01*
X115647663Y-73434023D01*
X115647668Y-73434041D01*
X115743892Y-73704789D01*
X115743894Y-73704794D01*
X115860588Y-73930003D01*
X115876099Y-73959936D01*
X116041811Y-74194698D01*
X116237947Y-74404708D01*
X116460853Y-74586055D01*
X116706375Y-74735361D01*
X116969942Y-74849844D01*
X117246642Y-74927371D01*
X117531322Y-74966500D01*
X117531329Y-74966500D01*
X117818671Y-74966500D01*
X117818678Y-74966500D01*
X118103358Y-74927371D01*
X118380058Y-74849844D01*
X118643625Y-74735361D01*
X118889147Y-74586055D01*
X119112053Y-74404708D01*
X119308189Y-74194698D01*
X119473901Y-73959936D01*
X119555851Y-73801780D01*
X129248441Y-73801780D01*
X129266876Y-73930003D01*
X129266876Y-73930004D01*
X129266877Y-73930006D01*
X129320692Y-74047843D01*
X129405525Y-74145747D01*
X129514505Y-74215784D01*
X129638802Y-74252280D01*
X129768346Y-74252280D01*
X129892643Y-74215784D01*
X130001623Y-74145747D01*
X130086456Y-74047843D01*
X130140271Y-73930006D01*
X130158707Y-73801780D01*
X130140271Y-73673554D01*
X130086456Y-73555717D01*
X130077321Y-73545174D01*
X135401078Y-73545174D01*
X135419513Y-73673397D01*
X135419513Y-73673398D01*
X135419514Y-73673400D01*
X135473329Y-73791237D01*
X135558162Y-73889141D01*
X135667142Y-73959178D01*
X135791439Y-73995674D01*
X135920983Y-73995674D01*
X136045280Y-73959178D01*
X136154260Y-73889141D01*
X136239093Y-73791237D01*
X136292908Y-73673400D01*
X136311344Y-73545174D01*
X136307031Y-73515174D01*
X136663370Y-73515174D01*
X136682687Y-73711307D01*
X136739898Y-73899905D01*
X136818974Y-74047843D01*
X136832801Y-74073712D01*
X136957828Y-74226057D01*
X137110173Y-74351084D01*
X137185374Y-74391280D01*
X137283979Y-74443986D01*
X137283981Y-74443986D01*
X137283984Y-74443988D01*
X137472579Y-74501198D01*
X137668711Y-74520515D01*
X137864843Y-74501198D01*
X138053438Y-74443988D01*
X138227249Y-74351084D01*
X138379594Y-74226057D01*
X138504621Y-74073712D01*
X138597525Y-73899901D01*
X138654735Y-73711306D01*
X138674052Y-73515174D01*
X138654735Y-73319042D01*
X138597525Y-73130447D01*
X138597523Y-73130444D01*
X138597523Y-73130442D01*
X138545759Y-73033600D01*
X138504621Y-72956636D01*
X138379594Y-72804291D01*
X138227249Y-72679264D01*
X138200550Y-72664993D01*
X138053442Y-72586361D01*
X137864844Y-72529150D01*
X137668711Y-72509833D01*
X137472577Y-72529150D01*
X137283979Y-72586361D01*
X137110174Y-72679263D01*
X136957828Y-72804291D01*
X136832800Y-72956637D01*
X136739898Y-73130442D01*
X136682687Y-73319040D01*
X136663370Y-73515174D01*
X136307031Y-73515174D01*
X136292908Y-73416948D01*
X136239093Y-73299111D01*
X136154260Y-73201207D01*
X136078746Y-73152677D01*
X136045279Y-73131169D01*
X135920983Y-73094674D01*
X135791439Y-73094674D01*
X135667142Y-73131169D01*
X135558165Y-73201205D01*
X135558161Y-73201208D01*
X135473330Y-73299109D01*
X135419513Y-73416950D01*
X135401078Y-73545174D01*
X130077321Y-73545174D01*
X130001623Y-73457813D01*
X130001621Y-73457811D01*
X129998157Y-73453814D01*
X129999535Y-73452619D01*
X129977180Y-73407945D01*
X129995072Y-73354209D01*
X130010980Y-73340425D01*
X130111623Y-73275747D01*
X130196456Y-73177843D01*
X130250271Y-73060006D01*
X130268707Y-72931780D01*
X130250271Y-72803554D01*
X130196456Y-72685717D01*
X130111623Y-72587813D01*
X130044606Y-72544744D01*
X130002642Y-72517775D01*
X129878346Y-72481280D01*
X129748802Y-72481280D01*
X129624505Y-72517775D01*
X129515528Y-72587811D01*
X129515524Y-72587814D01*
X129430693Y-72685715D01*
X129376876Y-72803556D01*
X129358441Y-72931780D01*
X129376876Y-73060003D01*
X129376876Y-73060004D01*
X129376877Y-73060006D01*
X129430692Y-73177843D01*
X129515525Y-73275747D01*
X129515526Y-73275748D01*
X129518991Y-73279746D01*
X129517611Y-73280941D01*
X129539967Y-73325612D01*
X129522076Y-73379349D01*
X129506163Y-73393137D01*
X129405525Y-73457813D01*
X129405524Y-73457814D01*
X129320693Y-73555715D01*
X129320692Y-73555716D01*
X129320692Y-73555717D01*
X129293784Y-73614635D01*
X129266876Y-73673556D01*
X129248441Y-73801780D01*
X119555851Y-73801780D01*
X119606104Y-73704797D01*
X119693882Y-73457813D01*
X119702331Y-73434041D01*
X119702331Y-73434038D01*
X119702334Y-73434032D01*
X119726229Y-73319042D01*
X119760796Y-73152697D01*
X119760799Y-73152677D01*
X119768152Y-73045174D01*
X125398393Y-73045174D01*
X125417000Y-73162656D01*
X125417000Y-73162657D01*
X125428473Y-73185174D01*
X125471001Y-73268639D01*
X125555109Y-73352747D01*
X125661092Y-73406748D01*
X125778574Y-73425355D01*
X125896056Y-73406748D01*
X126002039Y-73352747D01*
X126086147Y-73268639D01*
X126140148Y-73162656D01*
X126158755Y-73045174D01*
X126140148Y-72927692D01*
X126086147Y-72821709D01*
X126002039Y-72737601D01*
X125950058Y-72711115D01*
X125896057Y-72683600D01*
X125778574Y-72664993D01*
X125661091Y-72683600D01*
X125661090Y-72683600D01*
X125555107Y-72737602D01*
X125471002Y-72821707D01*
X125417000Y-72927690D01*
X125417000Y-72927691D01*
X125398393Y-73045174D01*
X119768152Y-73045174D01*
X119780408Y-72866007D01*
X119780408Y-72865992D01*
X119760799Y-72579322D01*
X119760796Y-72579302D01*
X119702336Y-72297976D01*
X119702331Y-72297958D01*
X119606107Y-72027210D01*
X119606105Y-72027205D01*
X119473901Y-71772064D01*
X119473896Y-71772057D01*
X119413190Y-71686056D01*
X119308189Y-71537302D01*
X119112053Y-71327292D01*
X118889147Y-71145945D01*
X118889141Y-71145941D01*
X118889138Y-71145939D01*
X118747419Y-71059758D01*
X118643625Y-70996639D01*
X118643622Y-70996637D01*
X118643621Y-70996637D01*
X118380056Y-70882155D01*
X118103356Y-70804628D01*
X117818682Y-70765500D01*
X117818678Y-70765500D01*
X117531322Y-70765500D01*
X117531317Y-70765500D01*
X117246643Y-70804628D01*
X116969943Y-70882155D01*
X116706378Y-70996637D01*
X116706375Y-70996639D01*
X116460861Y-71145939D01*
X116460853Y-71145945D01*
X116247921Y-71319178D01*
X116237945Y-71327294D01*
X116041809Y-71537304D01*
X115876103Y-71772057D01*
X115876098Y-71772064D01*
X115743894Y-72027205D01*
X115743892Y-72027210D01*
X115647668Y-72297958D01*
X115647663Y-72297976D01*
X115589203Y-72579302D01*
X115589200Y-72579322D01*
X115569592Y-72865992D01*
X114777972Y-72865992D01*
X114777972Y-69244765D01*
X114799646Y-69192439D01*
X114851785Y-69170765D01*
X126852027Y-69140781D01*
X126904406Y-69162325D01*
X126926211Y-69214596D01*
X126926211Y-70375175D01*
X126946210Y-70495174D01*
X126966020Y-70561205D01*
X126976211Y-70595174D01*
X127016211Y-70665174D01*
X127016217Y-70665182D01*
X127076211Y-70745174D01*
X127134537Y-70803500D01*
X127156211Y-70855826D01*
X127156211Y-72812839D01*
X127134537Y-72865165D01*
X127083691Y-72886824D01*
X126666211Y-72895173D01*
X126666211Y-72895174D01*
X126666211Y-73115174D01*
X126666211Y-73185174D01*
X126666211Y-73275174D01*
X126666211Y-73315174D01*
X126666211Y-73335174D01*
X126666211Y-73345174D01*
X126666211Y-73355174D01*
X126666211Y-73375174D01*
X126666211Y-73495174D01*
X127776211Y-73495174D01*
X127774605Y-73060003D01*
X127773164Y-72669446D01*
X127794644Y-72617042D01*
X127846890Y-72595175D01*
X127847163Y-72595174D01*
X128916211Y-72595174D01*
X128916211Y-72425174D01*
X128726311Y-72425174D01*
X128673985Y-72403500D01*
X128657604Y-72378657D01*
X128642516Y-72340938D01*
X128619630Y-72283722D01*
X128620320Y-72227091D01*
X128635066Y-72204879D01*
X128866211Y-71965174D01*
X128856211Y-71115174D01*
X128742512Y-70996637D01*
X128654782Y-70905174D01*
X135521078Y-70905174D01*
X135539513Y-71033397D01*
X135539513Y-71033398D01*
X135539514Y-71033400D01*
X135593329Y-71151237D01*
X135678162Y-71249141D01*
X135787142Y-71319178D01*
X135911439Y-71355674D01*
X136040983Y-71355674D01*
X136165280Y-71319178D01*
X136274260Y-71249141D01*
X136359093Y-71151237D01*
X136412908Y-71033400D01*
X136421280Y-70975174D01*
X136663370Y-70975174D01*
X136682687Y-71171307D01*
X136739898Y-71359905D01*
X136815743Y-71501799D01*
X136832801Y-71533712D01*
X136957828Y-71686057D01*
X137110173Y-71811084D01*
X137187137Y-71852222D01*
X137283979Y-71903986D01*
X137283981Y-71903986D01*
X137283984Y-71903988D01*
X137472579Y-71961198D01*
X137668711Y-71980515D01*
X137864843Y-71961198D01*
X138053438Y-71903988D01*
X138227249Y-71811084D01*
X138379594Y-71686057D01*
X138504621Y-71533712D01*
X138597525Y-71359901D01*
X138654735Y-71171306D01*
X138674052Y-70975174D01*
X138654735Y-70779042D01*
X138597525Y-70590447D01*
X138597523Y-70590444D01*
X138597523Y-70590442D01*
X138527224Y-70458924D01*
X138504621Y-70416636D01*
X138379594Y-70264291D01*
X138227249Y-70139264D01*
X138217308Y-70133950D01*
X138053442Y-70046361D01*
X137864844Y-69989150D01*
X137668711Y-69969833D01*
X137472577Y-69989150D01*
X137283979Y-70046361D01*
X137110174Y-70139263D01*
X136957828Y-70264291D01*
X136832800Y-70416637D01*
X136739898Y-70590442D01*
X136682687Y-70779040D01*
X136663370Y-70975174D01*
X136421280Y-70975174D01*
X136431344Y-70905174D01*
X136412908Y-70776948D01*
X136359093Y-70659111D01*
X136274260Y-70561207D01*
X136188179Y-70505886D01*
X136165279Y-70491169D01*
X136040983Y-70454674D01*
X135911439Y-70454674D01*
X135787142Y-70491169D01*
X135678165Y-70561205D01*
X135678161Y-70561208D01*
X135593330Y-70659109D01*
X135593329Y-70659110D01*
X135593329Y-70659111D01*
X135583566Y-70680489D01*
X135539513Y-70776950D01*
X135521078Y-70905174D01*
X128654782Y-70905174D01*
X128386212Y-70625174D01*
X128386211Y-70625174D01*
X128376211Y-70625174D01*
X128126311Y-70625174D01*
X128073985Y-70603500D01*
X128057603Y-70578655D01*
X128056212Y-70575177D01*
X128056211Y-70575174D01*
X128006211Y-70485174D01*
X127998959Y-70474296D01*
X127991705Y-70463414D01*
X127983075Y-70445767D01*
X127980008Y-70436565D01*
X127976211Y-70413166D01*
X127976211Y-69345831D01*
X127968839Y-69327966D01*
X127968001Y-69212342D01*
X127989295Y-69159863D01*
X128041463Y-69137810D01*
X128041578Y-69137809D01*
X161814574Y-69053423D01*
X161839508Y-69096609D01*
G37*
%TD.AperFunction*%
%TD*%
%TA.AperFunction,Conductor*%
%TO.N,VSS_PA*%
G36*
X161137596Y-62975989D02*
G01*
X161171391Y-62975988D01*
X161183541Y-62976585D01*
X161321303Y-62990149D01*
X161345142Y-62994890D01*
X161471757Y-63033295D01*
X161494204Y-63042592D01*
X161610902Y-63104964D01*
X161631109Y-63118467D01*
X161733388Y-63202401D01*
X161750574Y-63219585D01*
X161834518Y-63321868D01*
X161848018Y-63342072D01*
X161890937Y-63422363D01*
X161910390Y-63458756D01*
X161919693Y-63481214D01*
X161958101Y-63607823D01*
X161962844Y-63631664D01*
X161976375Y-63769022D01*
X161976972Y-63781178D01*
X161976972Y-66555220D01*
X161976970Y-66555994D01*
X161976205Y-66678462D01*
X162009968Y-66923646D01*
X162078422Y-67161488D01*
X162180157Y-67387093D01*
X162180170Y-67387117D01*
X162196953Y-67413473D01*
X162216358Y-67480594D01*
X162196394Y-67547550D01*
X162143399Y-67593084D01*
X162124453Y-67599851D01*
X162026112Y-67626201D01*
X161923387Y-67685511D01*
X161923384Y-67685513D01*
X161839513Y-67769384D01*
X161839511Y-67769387D01*
X161780201Y-67872114D01*
X161749500Y-67986691D01*
X161749500Y-68105309D01*
X161780201Y-68219886D01*
X161839511Y-68322613D01*
X161862217Y-68345319D01*
X161862218Y-68345320D01*
X161895702Y-68406644D01*
X161890716Y-68476336D01*
X161862218Y-68520680D01*
X161839511Y-68543387D01*
X161793610Y-68622890D01*
X161780201Y-68646114D01*
X161749500Y-68760691D01*
X161749500Y-68879309D01*
X161780201Y-68993886D01*
X161814575Y-69053423D01*
X143745000Y-69098572D01*
X143745000Y-67716732D01*
X143752159Y-67675209D01*
X143802334Y-67534032D01*
X143860798Y-67252686D01*
X143880408Y-66966000D01*
X143860798Y-66679314D01*
X143802334Y-66397968D01*
X143752160Y-66256791D01*
X143745000Y-66215266D01*
X143745000Y-63099988D01*
X143764685Y-63032949D01*
X143817489Y-62987194D01*
X143869000Y-62975988D01*
X161137594Y-62975988D01*
X161137596Y-62975989D01*
G37*
%TD.AperFunction*%
%TD*%
%TA.AperFunction,Conductor*%
%TO.N,VSS_PA*%
G36*
X211853897Y-63067018D02*
G01*
X211861111Y-63067373D01*
X212006248Y-63081670D01*
X212020466Y-63084498D01*
X212156515Y-63125768D01*
X212169904Y-63131314D01*
X212295287Y-63198330D01*
X212307339Y-63206383D01*
X212362291Y-63251478D01*
X212417239Y-63296571D01*
X212427496Y-63306828D01*
X212517684Y-63416714D01*
X212525743Y-63428774D01*
X212592762Y-63554143D01*
X212598314Y-63567544D01*
X212639590Y-63703581D01*
X212642421Y-63717808D01*
X212656662Y-63862283D01*
X212657019Y-63869542D01*
X212657019Y-110897239D01*
X212635345Y-110949565D01*
X212583204Y-110971239D01*
X200434176Y-111001595D01*
X200381796Y-110980051D01*
X200359991Y-110927780D01*
X200359991Y-109696007D01*
X200359990Y-109696003D01*
X200357451Y-109682041D01*
X200339991Y-109586007D01*
X200303590Y-109540506D01*
X200297129Y-109530999D01*
X200291420Y-109521007D01*
X200259991Y-109466007D01*
X200230383Y-109429819D01*
X200186718Y-109376450D01*
X200169991Y-109329591D01*
X200169991Y-107258084D01*
X200191665Y-107205758D01*
X200242042Y-107184110D01*
X200539702Y-107176277D01*
X200549004Y-107176033D01*
X200550950Y-107176007D01*
X200659991Y-107176007D01*
X200659991Y-107026007D01*
X201209810Y-107026007D01*
X201228417Y-107143489D01*
X201228417Y-107143490D01*
X201241912Y-107169974D01*
X201282418Y-107249472D01*
X201366526Y-107333580D01*
X201472509Y-107387581D01*
X201589991Y-107406188D01*
X201707473Y-107387581D01*
X201813456Y-107333580D01*
X201871037Y-107275999D01*
X207654583Y-107275999D01*
X207654583Y-107276014D01*
X207674191Y-107562684D01*
X207674194Y-107562704D01*
X207732654Y-107844030D01*
X207732659Y-107844048D01*
X207828883Y-108114796D01*
X207828885Y-108114801D01*
X207961089Y-108369942D01*
X207961094Y-108369949D01*
X208019040Y-108452040D01*
X208126802Y-108604705D01*
X208322938Y-108814715D01*
X208545844Y-108996062D01*
X208791366Y-109145368D01*
X209054933Y-109259851D01*
X209331633Y-109337378D01*
X209616313Y-109376507D01*
X209616320Y-109376507D01*
X209903662Y-109376507D01*
X209903669Y-109376507D01*
X210188349Y-109337378D01*
X210465049Y-109259851D01*
X210728616Y-109145368D01*
X210974138Y-108996062D01*
X211197044Y-108814715D01*
X211393180Y-108604705D01*
X211558892Y-108369943D01*
X211691095Y-108114804D01*
X211727137Y-108013392D01*
X211787322Y-107844048D01*
X211787322Y-107844045D01*
X211787325Y-107844039D01*
X211814149Y-107714953D01*
X211845787Y-107562704D01*
X211845790Y-107562684D01*
X211865399Y-107276014D01*
X211865399Y-107275999D01*
X211845790Y-106989329D01*
X211845787Y-106989309D01*
X211787327Y-106707983D01*
X211787322Y-106707965D01*
X211691098Y-106437217D01*
X211691096Y-106437212D01*
X211558892Y-106182071D01*
X211558887Y-106182064D01*
X211428808Y-105997783D01*
X211393180Y-105947309D01*
X211197044Y-105737299D01*
X210974138Y-105555952D01*
X210974132Y-105555948D01*
X210974129Y-105555946D01*
X210816311Y-105459975D01*
X210728616Y-105406646D01*
X210728613Y-105406644D01*
X210728612Y-105406644D01*
X210465047Y-105292162D01*
X210188347Y-105214635D01*
X209903673Y-105175507D01*
X209903669Y-105175507D01*
X209616313Y-105175507D01*
X209616308Y-105175507D01*
X209331634Y-105214635D01*
X209054934Y-105292162D01*
X208791369Y-105406644D01*
X208791366Y-105406646D01*
X208545852Y-105555946D01*
X208545844Y-105555952D01*
X208330337Y-105731280D01*
X208322936Y-105737301D01*
X208126800Y-105947311D01*
X207961094Y-106182064D01*
X207961089Y-106182071D01*
X207828885Y-106437212D01*
X207828883Y-106437217D01*
X207732659Y-106707965D01*
X207732654Y-106707983D01*
X207674194Y-106989309D01*
X207674191Y-106989329D01*
X207654583Y-107275999D01*
X201871037Y-107275999D01*
X201897564Y-107249472D01*
X201951565Y-107143489D01*
X201970172Y-107026007D01*
X201951565Y-106908525D01*
X201897564Y-106802542D01*
X201813456Y-106718434D01*
X201761475Y-106691948D01*
X201707474Y-106664433D01*
X201589991Y-106645826D01*
X201472508Y-106664433D01*
X201472507Y-106664433D01*
X201366524Y-106718435D01*
X201282419Y-106802540D01*
X201228417Y-106908523D01*
X201228417Y-106908524D01*
X201209810Y-107026007D01*
X200659991Y-107026007D01*
X200659991Y-106666008D01*
X200659989Y-106666003D01*
X200629991Y-106606007D01*
X200599991Y-106606007D01*
X199559991Y-106606007D01*
X199561175Y-107382044D01*
X199561244Y-107426894D01*
X199539650Y-107479253D01*
X199487357Y-107501007D01*
X198424920Y-107501007D01*
X198372594Y-107479333D01*
X198368995Y-107475467D01*
X198288044Y-107382044D01*
X198288042Y-107382042D01*
X198288040Y-107382040D01*
X198212635Y-107333580D01*
X198179059Y-107312002D01*
X198054763Y-107275507D01*
X197925219Y-107275507D01*
X197800922Y-107312002D01*
X197691945Y-107382038D01*
X197691941Y-107382041D01*
X197607110Y-107479942D01*
X197553293Y-107597783D01*
X197534858Y-107726007D01*
X197553293Y-107854230D01*
X197553293Y-107854231D01*
X197553294Y-107854233D01*
X197607109Y-107972070D01*
X197691942Y-108069974D01*
X197800922Y-108140011D01*
X197925219Y-108176507D01*
X198054763Y-108176507D01*
X198179060Y-108140011D01*
X198288040Y-108069974D01*
X198372873Y-107972070D01*
X198426688Y-107854233D01*
X198443906Y-107734475D01*
X198472806Y-107685767D01*
X198517153Y-107671007D01*
X198606901Y-107671007D01*
X198659227Y-107692681D01*
X198674521Y-107714951D01*
X198690453Y-107750797D01*
X198714349Y-107804564D01*
X198715794Y-107861183D01*
X198699053Y-107886944D01*
X198454991Y-108131006D01*
X198454991Y-108131007D01*
X198454991Y-108961007D01*
X198944991Y-109451007D01*
X199220955Y-109451007D01*
X199273281Y-109472681D01*
X199277140Y-109476848D01*
X199309061Y-109514089D01*
X199319063Y-109529154D01*
X199347178Y-109585383D01*
X199354991Y-109618477D01*
X199354991Y-109623538D01*
X199347180Y-109656629D01*
X199344990Y-109661007D01*
X199344990Y-109661009D01*
X199340324Y-109698330D01*
X199339459Y-109703661D01*
X199329991Y-109751002D01*
X199329991Y-109751004D01*
X199334143Y-110930268D01*
X199312653Y-110982670D01*
X199260404Y-111004529D01*
X199260328Y-111004529D01*
X190824676Y-111025606D01*
X190772296Y-111004062D01*
X190750491Y-110951791D01*
X190750491Y-110026007D01*
X191244858Y-110026007D01*
X191263293Y-110154230D01*
X191263293Y-110154231D01*
X191263294Y-110154233D01*
X191317109Y-110272070D01*
X191401942Y-110369974D01*
X191510922Y-110440011D01*
X191635219Y-110476507D01*
X191764763Y-110476507D01*
X191889060Y-110440011D01*
X191998040Y-110369974D01*
X192082873Y-110272070D01*
X192136688Y-110154233D01*
X192155124Y-110026007D01*
X192136688Y-109897781D01*
X192082873Y-109779944D01*
X191998040Y-109682040D01*
X191899134Y-109618477D01*
X191889059Y-109612002D01*
X191764763Y-109575507D01*
X191635219Y-109575507D01*
X191510922Y-109612002D01*
X191401945Y-109682038D01*
X191401941Y-109682041D01*
X191317110Y-109779942D01*
X191263293Y-109897783D01*
X191244858Y-110026007D01*
X190750491Y-110026007D01*
X190750491Y-109701187D01*
X190749923Y-109698330D01*
X190741758Y-109657285D01*
X190708495Y-109607503D01*
X190658713Y-109574240D01*
X190614811Y-109565507D01*
X188885171Y-109565507D01*
X188863220Y-109569873D01*
X188841268Y-109574240D01*
X188791487Y-109607502D01*
X188791486Y-109607503D01*
X188758224Y-109657284D01*
X188749491Y-109701187D01*
X188749491Y-110956976D01*
X188727817Y-111009302D01*
X188675676Y-111030976D01*
X183689991Y-111043434D01*
X165451794Y-111089003D01*
X165450243Y-109776007D01*
X185404858Y-109776007D01*
X185423293Y-109904230D01*
X185423293Y-109904231D01*
X185423294Y-109904233D01*
X185477109Y-110022070D01*
X185561942Y-110119974D01*
X185670922Y-110190011D01*
X185795219Y-110226507D01*
X185924763Y-110226507D01*
X186049060Y-110190011D01*
X186158040Y-110119974D01*
X186242873Y-110022070D01*
X186296688Y-109904233D01*
X186315124Y-109776007D01*
X186296688Y-109647781D01*
X186242873Y-109529944D01*
X186158040Y-109432040D01*
X186071540Y-109376450D01*
X186049059Y-109362002D01*
X185924763Y-109325507D01*
X185795219Y-109325507D01*
X185670922Y-109362002D01*
X185561945Y-109432038D01*
X185561941Y-109432041D01*
X185477110Y-109529942D01*
X185423293Y-109647783D01*
X185404858Y-109776007D01*
X165450243Y-109776007D01*
X165449086Y-108796007D01*
X177004858Y-108796007D01*
X177023293Y-108924230D01*
X177023293Y-108924231D01*
X177023294Y-108924233D01*
X177077109Y-109042070D01*
X177161942Y-109139974D01*
X177270922Y-109210011D01*
X177395219Y-109246507D01*
X177524763Y-109246507D01*
X177649060Y-109210011D01*
X177758040Y-109139974D01*
X177842873Y-109042070D01*
X177896688Y-108924233D01*
X177915124Y-108796007D01*
X177896688Y-108667781D01*
X177842873Y-108549944D01*
X177758040Y-108452040D01*
X177691023Y-108408971D01*
X177649059Y-108382002D01*
X177524763Y-108345507D01*
X177395219Y-108345507D01*
X177270922Y-108382002D01*
X177161945Y-108452038D01*
X177161941Y-108452041D01*
X177077110Y-108549942D01*
X177023293Y-108667783D01*
X177004858Y-108796007D01*
X165449086Y-108796007D01*
X165445920Y-106116007D01*
X168334650Y-106116007D01*
X168353967Y-106312140D01*
X168411178Y-106500738D01*
X168488730Y-106645826D01*
X168504081Y-106674545D01*
X168629108Y-106826890D01*
X168781453Y-106951917D01*
X168851431Y-106989321D01*
X168955259Y-107044819D01*
X168955261Y-107044819D01*
X168955264Y-107044821D01*
X169143859Y-107102031D01*
X169339991Y-107121348D01*
X169536123Y-107102031D01*
X169724718Y-107044821D01*
X169898529Y-106951917D01*
X170050874Y-106826890D01*
X170175901Y-106674545D01*
X170268805Y-106500734D01*
X170326015Y-106312139D01*
X170344347Y-106126007D01*
X196434858Y-106126007D01*
X196453293Y-106254230D01*
X196453293Y-106254231D01*
X196453294Y-106254233D01*
X196507109Y-106372070D01*
X196591942Y-106469974D01*
X196698761Y-106538622D01*
X196700922Y-106540011D01*
X196825219Y-106576507D01*
X196893532Y-106576507D01*
X196945858Y-106598181D01*
X196967532Y-106650507D01*
X196960845Y-106681245D01*
X196954334Y-106695502D01*
X196953293Y-106697783D01*
X196934858Y-106826007D01*
X196953293Y-106954230D01*
X196953293Y-106954231D01*
X196953294Y-106954233D01*
X197007109Y-107072070D01*
X197091942Y-107169974D01*
X197200922Y-107240011D01*
X197325219Y-107276507D01*
X197454763Y-107276507D01*
X197579060Y-107240011D01*
X197688040Y-107169974D01*
X197772873Y-107072070D01*
X197826688Y-106954233D01*
X197845124Y-106826007D01*
X197826688Y-106697781D01*
X197772873Y-106579944D01*
X197688040Y-106482040D01*
X197618283Y-106437210D01*
X197579059Y-106412002D01*
X197454763Y-106375507D01*
X197386450Y-106375507D01*
X197334124Y-106353833D01*
X197312450Y-106301507D01*
X197319136Y-106270768D01*
X197326688Y-106254233D01*
X197345124Y-106126007D01*
X197326688Y-105997781D01*
X197272873Y-105879944D01*
X197188040Y-105782040D01*
X197109048Y-105731275D01*
X197079059Y-105712002D01*
X196954763Y-105675507D01*
X196825219Y-105675507D01*
X196700922Y-105712002D01*
X196591945Y-105782038D01*
X196591941Y-105782041D01*
X196507110Y-105879942D01*
X196453293Y-105997783D01*
X196434858Y-106126007D01*
X170344347Y-106126007D01*
X170345332Y-106116007D01*
X170326015Y-105919875D01*
X170268805Y-105731280D01*
X170268803Y-105731277D01*
X170268803Y-105731275D01*
X170217039Y-105634433D01*
X170175901Y-105557469D01*
X170050874Y-105405124D01*
X169898529Y-105280097D01*
X169888588Y-105274783D01*
X169724722Y-105187194D01*
X169536124Y-105129983D01*
X169339991Y-105110666D01*
X169143857Y-105129983D01*
X168955259Y-105187194D01*
X168781454Y-105280096D01*
X168629108Y-105405124D01*
X168504080Y-105557470D01*
X168411178Y-105731275D01*
X168353967Y-105919873D01*
X168334650Y-106116007D01*
X165445920Y-106116007D01*
X165444396Y-104826007D01*
X194434858Y-104826007D01*
X194453293Y-104954230D01*
X194453293Y-104954231D01*
X194453294Y-104954233D01*
X194507109Y-105072070D01*
X194591942Y-105169974D01*
X194700922Y-105240011D01*
X194825219Y-105276507D01*
X194954763Y-105276507D01*
X195079060Y-105240011D01*
X195188040Y-105169974D01*
X195234802Y-105116007D01*
X203154858Y-105116007D01*
X203173293Y-105244230D01*
X203173293Y-105244231D01*
X203173294Y-105244233D01*
X203227109Y-105362070D01*
X203311942Y-105459974D01*
X203420922Y-105530011D01*
X203545219Y-105566507D01*
X203674763Y-105566507D01*
X203799060Y-105530011D01*
X203908040Y-105459974D01*
X203992873Y-105362070D01*
X204046688Y-105244233D01*
X204065124Y-105116007D01*
X204046688Y-104987781D01*
X203992873Y-104869944D01*
X203908040Y-104772040D01*
X203841023Y-104728971D01*
X203799059Y-104702002D01*
X203674763Y-104665507D01*
X203545219Y-104665507D01*
X203420922Y-104702002D01*
X203311945Y-104772038D01*
X203311941Y-104772041D01*
X203227110Y-104869942D01*
X203173293Y-104987783D01*
X203154858Y-105116007D01*
X195234802Y-105116007D01*
X195272873Y-105072070D01*
X195326688Y-104954233D01*
X195345124Y-104826007D01*
X195326688Y-104697781D01*
X195272873Y-104579944D01*
X195188040Y-104482040D01*
X195121023Y-104438971D01*
X195079059Y-104412002D01*
X194954763Y-104375507D01*
X194825219Y-104375507D01*
X194700922Y-104412002D01*
X194591945Y-104482038D01*
X194591941Y-104482041D01*
X194507110Y-104579942D01*
X194453293Y-104697783D01*
X194434858Y-104826007D01*
X165444396Y-104826007D01*
X165442920Y-103576007D01*
X168334650Y-103576007D01*
X168353967Y-103772140D01*
X168411178Y-103960738D01*
X168498767Y-104124604D01*
X168504081Y-104134545D01*
X168629108Y-104286890D01*
X168781453Y-104411917D01*
X168858417Y-104453055D01*
X168955259Y-104504819D01*
X168955261Y-104504819D01*
X168955264Y-104504821D01*
X169143859Y-104562031D01*
X169339991Y-104581348D01*
X169536123Y-104562031D01*
X169724718Y-104504821D01*
X169898529Y-104411917D01*
X170050874Y-104286890D01*
X170175901Y-104134545D01*
X170268805Y-103960734D01*
X170326015Y-103772139D01*
X170345332Y-103576007D01*
X170326015Y-103379875D01*
X170279339Y-103226007D01*
X179304858Y-103226007D01*
X179323293Y-103354230D01*
X179323293Y-103354231D01*
X179323294Y-103354233D01*
X179377109Y-103472070D01*
X179461942Y-103569974D01*
X179570922Y-103640011D01*
X179695219Y-103676507D01*
X179824763Y-103676507D01*
X179949060Y-103640011D01*
X180058040Y-103569974D01*
X180142873Y-103472070D01*
X180196688Y-103354233D01*
X180207935Y-103276007D01*
X187604858Y-103276007D01*
X187623293Y-103404230D01*
X187623293Y-103404231D01*
X187623294Y-103404233D01*
X187677109Y-103522070D01*
X187761942Y-103619974D01*
X187870922Y-103690011D01*
X187995219Y-103726507D01*
X188124763Y-103726507D01*
X188249060Y-103690011D01*
X188358040Y-103619974D01*
X188422132Y-103546007D01*
X203834858Y-103546007D01*
X203853293Y-103674230D01*
X203853293Y-103674231D01*
X203853294Y-103674233D01*
X203907109Y-103792070D01*
X203991942Y-103889974D01*
X204100922Y-103960011D01*
X204225219Y-103996507D01*
X204354763Y-103996507D01*
X204479060Y-103960011D01*
X204588040Y-103889974D01*
X204672873Y-103792070D01*
X204726688Y-103674233D01*
X204745124Y-103546007D01*
X204726688Y-103417781D01*
X204672873Y-103299944D01*
X204588040Y-103202040D01*
X204503611Y-103147781D01*
X204479059Y-103132002D01*
X204354763Y-103095507D01*
X204225219Y-103095507D01*
X204100922Y-103132002D01*
X203991945Y-103202038D01*
X203991941Y-103202041D01*
X203907110Y-103299942D01*
X203853293Y-103417783D01*
X203834858Y-103546007D01*
X188422132Y-103546007D01*
X188442873Y-103522070D01*
X188496688Y-103404233D01*
X188515124Y-103276007D01*
X188496688Y-103147781D01*
X188442873Y-103029944D01*
X188358040Y-102932040D01*
X188280235Y-102882038D01*
X188249059Y-102862002D01*
X188124763Y-102825507D01*
X187995219Y-102825507D01*
X187870922Y-102862002D01*
X187761945Y-102932038D01*
X187761941Y-102932041D01*
X187677110Y-103029942D01*
X187623293Y-103147783D01*
X187604858Y-103276007D01*
X180207935Y-103276007D01*
X180215124Y-103226007D01*
X180196688Y-103097781D01*
X180142873Y-102979944D01*
X180058040Y-102882040D01*
X179970073Y-102825507D01*
X179949059Y-102812002D01*
X179824763Y-102775507D01*
X179695219Y-102775507D01*
X179570922Y-102812002D01*
X179461945Y-102882038D01*
X179461941Y-102882041D01*
X179377110Y-102979942D01*
X179377109Y-102979943D01*
X179377109Y-102979944D01*
X179350201Y-103038862D01*
X179323293Y-103097783D01*
X179304858Y-103226007D01*
X170279339Y-103226007D01*
X170268805Y-103191280D01*
X170268803Y-103191277D01*
X170268803Y-103191275D01*
X170182568Y-103029942D01*
X170175901Y-103017469D01*
X170050874Y-102865124D01*
X169898529Y-102740097D01*
X169888588Y-102734783D01*
X169724722Y-102647194D01*
X169536124Y-102589983D01*
X169339991Y-102570666D01*
X169143857Y-102589983D01*
X168955259Y-102647194D01*
X168781454Y-102740096D01*
X168629108Y-102865124D01*
X168504080Y-103017470D01*
X168411178Y-103191275D01*
X168353967Y-103379873D01*
X168334650Y-103576007D01*
X165442920Y-103576007D01*
X165440500Y-101527597D01*
X165440505Y-101526719D01*
X165442100Y-101405587D01*
X165410281Y-101161528D01*
X165375212Y-101036007D01*
X168334650Y-101036007D01*
X168353967Y-101232140D01*
X168411178Y-101420738D01*
X168488088Y-101564625D01*
X168504081Y-101594545D01*
X168629108Y-101746890D01*
X168781453Y-101871917D01*
X168858417Y-101913055D01*
X168955259Y-101964819D01*
X168955261Y-101964819D01*
X168955264Y-101964821D01*
X169143859Y-102022031D01*
X169339991Y-102041348D01*
X169536123Y-102022031D01*
X169724718Y-101964821D01*
X169898529Y-101871917D01*
X170050874Y-101746890D01*
X170109046Y-101676007D01*
X176864858Y-101676007D01*
X176883293Y-101804230D01*
X176883293Y-101804231D01*
X176883294Y-101804233D01*
X176937109Y-101922070D01*
X177021942Y-102019974D01*
X177130922Y-102090011D01*
X177255219Y-102126507D01*
X177384763Y-102126507D01*
X177509060Y-102090011D01*
X177618040Y-102019974D01*
X177702873Y-101922070D01*
X177756688Y-101804233D01*
X177775124Y-101676007D01*
X177756688Y-101547781D01*
X177702873Y-101429944D01*
X177618040Y-101332040D01*
X177551023Y-101288971D01*
X177509059Y-101262002D01*
X177384763Y-101225507D01*
X177255219Y-101225507D01*
X177130922Y-101262002D01*
X177021945Y-101332038D01*
X177021941Y-101332041D01*
X176937110Y-101429942D01*
X176883293Y-101547783D01*
X176864858Y-101676007D01*
X170109046Y-101676007D01*
X170175901Y-101594545D01*
X170268805Y-101420734D01*
X170326015Y-101232139D01*
X170329574Y-101196007D01*
X195174858Y-101196007D01*
X195193293Y-101324230D01*
X195193293Y-101324231D01*
X195193294Y-101324233D01*
X195247109Y-101442070D01*
X195331942Y-101539974D01*
X195440922Y-101610011D01*
X195565219Y-101646507D01*
X195694763Y-101646507D01*
X195819060Y-101610011D01*
X195928040Y-101539974D01*
X196012873Y-101442070D01*
X196066688Y-101324233D01*
X196085124Y-101196007D01*
X196066688Y-101067781D01*
X196012873Y-100949944D01*
X195928040Y-100852040D01*
X195861023Y-100808971D01*
X195819059Y-100782002D01*
X195694763Y-100745507D01*
X195565219Y-100745507D01*
X195440922Y-100782002D01*
X195331945Y-100852038D01*
X195331941Y-100852041D01*
X195247110Y-100949942D01*
X195247109Y-100949943D01*
X195247109Y-100949944D01*
X195237961Y-100969975D01*
X195193293Y-101067783D01*
X195174858Y-101196007D01*
X170329574Y-101196007D01*
X170345332Y-101036007D01*
X170326015Y-100839875D01*
X170268805Y-100651280D01*
X170268803Y-100651277D01*
X170268803Y-100651275D01*
X170255297Y-100626007D01*
X185304858Y-100626007D01*
X185323293Y-100754230D01*
X185323293Y-100754231D01*
X185323294Y-100754233D01*
X185377109Y-100872070D01*
X185461942Y-100969974D01*
X185570922Y-101040011D01*
X185695219Y-101076507D01*
X185824763Y-101076507D01*
X185949060Y-101040011D01*
X186058040Y-100969974D01*
X186142873Y-100872070D01*
X186196688Y-100754233D01*
X186215124Y-100626007D01*
X186196688Y-100497781D01*
X186142873Y-100379944D01*
X186058040Y-100282040D01*
X185991023Y-100238971D01*
X185949059Y-100212002D01*
X185824763Y-100175507D01*
X185695219Y-100175507D01*
X185570922Y-100212002D01*
X185461945Y-100282038D01*
X185461941Y-100282041D01*
X185377110Y-100379942D01*
X185323293Y-100497783D01*
X185304858Y-100626007D01*
X170255297Y-100626007D01*
X170176038Y-100477726D01*
X170175901Y-100477469D01*
X170050874Y-100325124D01*
X169898529Y-100200097D01*
X169884176Y-100192425D01*
X169724722Y-100107194D01*
X169536124Y-100049983D01*
X169339991Y-100030666D01*
X169143857Y-100049983D01*
X168955259Y-100107194D01*
X168781454Y-100200096D01*
X168629108Y-100325124D01*
X168504080Y-100477470D01*
X168411178Y-100651275D01*
X168353967Y-100839873D01*
X168334650Y-101036007D01*
X165375212Y-101036007D01*
X165344053Y-100924483D01*
X165320945Y-100872070D01*
X165244765Y-100699277D01*
X165170113Y-100579685D01*
X165160791Y-100523820D01*
X165193702Y-100477726D01*
X165232887Y-100466500D01*
X165279311Y-100466500D01*
X165279311Y-100466499D01*
X165393886Y-100435799D01*
X165496613Y-100376489D01*
X165580489Y-100292613D01*
X165639799Y-100189886D01*
X165670499Y-100075311D01*
X165670500Y-100075311D01*
X165670500Y-99956689D01*
X165670499Y-99956688D01*
X165639800Y-99842117D01*
X165639798Y-99842112D01*
X165580491Y-99739390D01*
X165580490Y-99739389D01*
X165580489Y-99739387D01*
X165534426Y-99693324D01*
X165512753Y-99641000D01*
X165534426Y-99588675D01*
X165580489Y-99542613D01*
X165595850Y-99516007D01*
X195024858Y-99516007D01*
X195043293Y-99644230D01*
X195043293Y-99644231D01*
X195043294Y-99644233D01*
X195097109Y-99762070D01*
X195181942Y-99859974D01*
X195290922Y-99930011D01*
X195415219Y-99966507D01*
X195544763Y-99966507D01*
X195669060Y-99930011D01*
X195778040Y-99859974D01*
X195862873Y-99762070D01*
X195916688Y-99644233D01*
X195935124Y-99516007D01*
X195916688Y-99387781D01*
X195862873Y-99269944D01*
X195778040Y-99172040D01*
X195711023Y-99128971D01*
X195669059Y-99102002D01*
X195544763Y-99065507D01*
X195415219Y-99065507D01*
X195290922Y-99102002D01*
X195181945Y-99172038D01*
X195181941Y-99172041D01*
X195097110Y-99269942D01*
X195043293Y-99387783D01*
X195024858Y-99516007D01*
X165595850Y-99516007D01*
X165639799Y-99439886D01*
X165670499Y-99325311D01*
X165670500Y-99325311D01*
X165670500Y-99206689D01*
X165670499Y-99206688D01*
X165667284Y-99194691D01*
X165642449Y-99102003D01*
X165639800Y-99092117D01*
X165639798Y-99092112D01*
X165580491Y-98989390D01*
X165580490Y-98989389D01*
X165580489Y-98989387D01*
X165528426Y-98937324D01*
X165506753Y-98885000D01*
X165528426Y-98832675D01*
X165580489Y-98780613D01*
X165639799Y-98677886D01*
X165670499Y-98563311D01*
X165670500Y-98563311D01*
X165670500Y-98444689D01*
X165670499Y-98444688D01*
X165639800Y-98330117D01*
X165639798Y-98330112D01*
X165580491Y-98227390D01*
X165580490Y-98227389D01*
X165580489Y-98227387D01*
X165534426Y-98181324D01*
X165512753Y-98129000D01*
X165534426Y-98076675D01*
X165580489Y-98030613D01*
X165639799Y-97927886D01*
X165670499Y-97813311D01*
X165670500Y-97813311D01*
X165670500Y-97694689D01*
X165670499Y-97694688D01*
X165653484Y-97631187D01*
X168339491Y-97631187D01*
X168339491Y-99360827D01*
X168344853Y-99387781D01*
X168348224Y-99404729D01*
X168371715Y-99439887D01*
X168381487Y-99454511D01*
X168431269Y-99487774D01*
X168475171Y-99496507D01*
X168475172Y-99496507D01*
X170204810Y-99496507D01*
X170204811Y-99496507D01*
X170248713Y-99487774D01*
X170298495Y-99454511D01*
X170331758Y-99404729D01*
X170340491Y-99360827D01*
X170340491Y-98526007D01*
X177254858Y-98526007D01*
X177273293Y-98654230D01*
X177273293Y-98654231D01*
X177273294Y-98654233D01*
X177327109Y-98772070D01*
X177411942Y-98869974D01*
X177520922Y-98940011D01*
X177645219Y-98976507D01*
X177774763Y-98976507D01*
X177899060Y-98940011D01*
X178008040Y-98869974D01*
X178092873Y-98772070D01*
X178146688Y-98654233D01*
X178165124Y-98526007D01*
X178146688Y-98397781D01*
X178092873Y-98279944D01*
X178028807Y-98206007D01*
X195704858Y-98206007D01*
X195723293Y-98334230D01*
X195723293Y-98334231D01*
X195723294Y-98334233D01*
X195777109Y-98452070D01*
X195861942Y-98549974D01*
X195970922Y-98620011D01*
X196095219Y-98656507D01*
X196224763Y-98656507D01*
X196349060Y-98620011D01*
X196458040Y-98549974D01*
X196542873Y-98452070D01*
X196596688Y-98334233D01*
X196615124Y-98206007D01*
X196596688Y-98077781D01*
X196542873Y-97959944D01*
X196458040Y-97862040D01*
X196382213Y-97813309D01*
X196349059Y-97792002D01*
X196224763Y-97755507D01*
X196095219Y-97755507D01*
X195970922Y-97792002D01*
X195861945Y-97862038D01*
X195861941Y-97862041D01*
X195777110Y-97959942D01*
X195723293Y-98077783D01*
X195704858Y-98206007D01*
X178028807Y-98206007D01*
X178008040Y-98182040D01*
X177925508Y-98129000D01*
X177899059Y-98112002D01*
X177774763Y-98075507D01*
X177645219Y-98075507D01*
X177520922Y-98112002D01*
X177411945Y-98182038D01*
X177411941Y-98182041D01*
X177327110Y-98279942D01*
X177273293Y-98397783D01*
X177254858Y-98526007D01*
X170340491Y-98526007D01*
X170340491Y-97631187D01*
X170331758Y-97587285D01*
X170298495Y-97537503D01*
X170248713Y-97504240D01*
X170204811Y-97495507D01*
X168475171Y-97495507D01*
X168453220Y-97499873D01*
X168431268Y-97504240D01*
X168381487Y-97537502D01*
X168381486Y-97537503D01*
X168348224Y-97587284D01*
X168348224Y-97587285D01*
X168339491Y-97631187D01*
X165653484Y-97631187D01*
X165639800Y-97580117D01*
X165639798Y-97580112D01*
X165580491Y-97477390D01*
X165580490Y-97477389D01*
X165580489Y-97477387D01*
X165522426Y-97419324D01*
X165504484Y-97376007D01*
X176704858Y-97376007D01*
X176723293Y-97504230D01*
X176723293Y-97504231D01*
X176723294Y-97504233D01*
X176777109Y-97622070D01*
X176861942Y-97719974D01*
X176970922Y-97790011D01*
X177095219Y-97826507D01*
X177224763Y-97826507D01*
X177349060Y-97790011D01*
X177448652Y-97726007D01*
X197634858Y-97726007D01*
X197653293Y-97854230D01*
X197653293Y-97854231D01*
X197653294Y-97854233D01*
X197707109Y-97972070D01*
X197791942Y-98069974D01*
X197900922Y-98140011D01*
X198025219Y-98176507D01*
X198154763Y-98176507D01*
X198279060Y-98140011D01*
X198388040Y-98069974D01*
X198472873Y-97972070D01*
X198526688Y-97854233D01*
X198545124Y-97726007D01*
X198526688Y-97597781D01*
X198472873Y-97479944D01*
X198388040Y-97382040D01*
X198321023Y-97338971D01*
X198279059Y-97312002D01*
X198154763Y-97275507D01*
X198025219Y-97275507D01*
X197900922Y-97312002D01*
X197791945Y-97382038D01*
X197791941Y-97382041D01*
X197707110Y-97479942D01*
X197707109Y-97479943D01*
X197707109Y-97479944D01*
X197696013Y-97504240D01*
X197653293Y-97597783D01*
X197634858Y-97726007D01*
X177448652Y-97726007D01*
X177458040Y-97719974D01*
X177542873Y-97622070D01*
X177596688Y-97504233D01*
X177615124Y-97376007D01*
X177596688Y-97247781D01*
X177542873Y-97129944D01*
X177478807Y-97056007D01*
X183104858Y-97056007D01*
X183123293Y-97184230D01*
X183123293Y-97184231D01*
X183123294Y-97184233D01*
X183177109Y-97302070D01*
X183261942Y-97399974D01*
X183370922Y-97470011D01*
X183495219Y-97506507D01*
X183624763Y-97506507D01*
X183749060Y-97470011D01*
X183858040Y-97399974D01*
X183942873Y-97302070D01*
X183996688Y-97184233D01*
X184015124Y-97056007D01*
X183996688Y-96927781D01*
X183942873Y-96809944D01*
X183858040Y-96712040D01*
X183756800Y-96646977D01*
X183749059Y-96642002D01*
X183624763Y-96605507D01*
X183495219Y-96605507D01*
X183370922Y-96642002D01*
X183261945Y-96712038D01*
X183261941Y-96712041D01*
X183177110Y-96809942D01*
X183123293Y-96927783D01*
X183104858Y-97056007D01*
X177478807Y-97056007D01*
X177458040Y-97032040D01*
X177391023Y-96988971D01*
X177349059Y-96962002D01*
X177224763Y-96925507D01*
X177095219Y-96925507D01*
X176970922Y-96962002D01*
X176861945Y-97032038D01*
X176861941Y-97032041D01*
X176777110Y-97129942D01*
X176777109Y-97129943D01*
X176777109Y-97129944D01*
X176765025Y-97156405D01*
X176723293Y-97247783D01*
X176704858Y-97376007D01*
X165504484Y-97376007D01*
X165500753Y-97367000D01*
X165522426Y-97314675D01*
X165580489Y-97256613D01*
X165639799Y-97153886D01*
X165670499Y-97039311D01*
X165670500Y-97039311D01*
X165670500Y-96920689D01*
X165670499Y-96920688D01*
X165663384Y-96894136D01*
X165649936Y-96843946D01*
X165639800Y-96806117D01*
X165639798Y-96806112D01*
X165580491Y-96703390D01*
X165580490Y-96703389D01*
X165580489Y-96703387D01*
X165496613Y-96619511D01*
X165496610Y-96619509D01*
X165496609Y-96619508D01*
X165393887Y-96560201D01*
X165393882Y-96560199D01*
X165279311Y-96529500D01*
X165279309Y-96529500D01*
X165267274Y-96529500D01*
X165214948Y-96507826D01*
X165193274Y-96455500D01*
X165204366Y-96416531D01*
X165222479Y-96387290D01*
X165265531Y-96317791D01*
X165364815Y-96091026D01*
X165380087Y-96036007D01*
X203744858Y-96036007D01*
X203763293Y-96164230D01*
X203763293Y-96164231D01*
X203763294Y-96164233D01*
X203817109Y-96282070D01*
X203901942Y-96379974D01*
X204010922Y-96450011D01*
X204135219Y-96486507D01*
X204264763Y-96486507D01*
X204389060Y-96450011D01*
X204498040Y-96379974D01*
X204582873Y-96282070D01*
X204636688Y-96164233D01*
X204655124Y-96036007D01*
X204636688Y-95907781D01*
X204582873Y-95789944D01*
X204498040Y-95692040D01*
X204431023Y-95648971D01*
X204389059Y-95622002D01*
X204264763Y-95585507D01*
X204135219Y-95585507D01*
X204010922Y-95622002D01*
X203901945Y-95692038D01*
X203901941Y-95692041D01*
X203817110Y-95789942D01*
X203763293Y-95907783D01*
X203744858Y-96036007D01*
X165380087Y-96036007D01*
X165431026Y-95852497D01*
X165462834Y-95607002D01*
X165461175Y-95484349D01*
X165461171Y-95483804D01*
X165461008Y-95448602D01*
X165457393Y-94666007D01*
X181264858Y-94666007D01*
X181283293Y-94794230D01*
X181283293Y-94794231D01*
X181283294Y-94794233D01*
X181337109Y-94912070D01*
X181421942Y-95009974D01*
X181530922Y-95080011D01*
X181655219Y-95116507D01*
X181784763Y-95116507D01*
X181909060Y-95080011D01*
X182018040Y-95009974D01*
X182102873Y-94912070D01*
X182156688Y-94794233D01*
X182166497Y-94726007D01*
X194594858Y-94726007D01*
X194613293Y-94854230D01*
X194613293Y-94854231D01*
X194613294Y-94854233D01*
X194667109Y-94972070D01*
X194751942Y-95069974D01*
X194860922Y-95140011D01*
X194985219Y-95176507D01*
X195114763Y-95176507D01*
X195239060Y-95140011D01*
X195348040Y-95069974D01*
X195432873Y-94972070D01*
X195486688Y-94854233D01*
X195505124Y-94726007D01*
X195486688Y-94597781D01*
X195432873Y-94479944D01*
X195348040Y-94382040D01*
X195258573Y-94324543D01*
X195239059Y-94312002D01*
X195114763Y-94275507D01*
X194985219Y-94275507D01*
X194860922Y-94312002D01*
X194751945Y-94382038D01*
X194751941Y-94382041D01*
X194667110Y-94479942D01*
X194613293Y-94597783D01*
X194594858Y-94726007D01*
X182166497Y-94726007D01*
X182175124Y-94666007D01*
X182156688Y-94537781D01*
X182102873Y-94419944D01*
X182018040Y-94322040D01*
X181945633Y-94275507D01*
X181909059Y-94252002D01*
X181784763Y-94215507D01*
X181655219Y-94215507D01*
X181530922Y-94252002D01*
X181421945Y-94322038D01*
X181421941Y-94322041D01*
X181337110Y-94419942D01*
X181283293Y-94537783D01*
X181264858Y-94666007D01*
X165457393Y-94666007D01*
X165453235Y-93766007D01*
X204814650Y-93766007D01*
X204833967Y-93962140D01*
X204891178Y-94150738D01*
X204977377Y-94312002D01*
X204984081Y-94324545D01*
X205109108Y-94476890D01*
X205261453Y-94601917D01*
X205315538Y-94630826D01*
X205435259Y-94694819D01*
X205435261Y-94694819D01*
X205435264Y-94694821D01*
X205623859Y-94752031D01*
X205819991Y-94771348D01*
X206016123Y-94752031D01*
X206204718Y-94694821D01*
X206378529Y-94601917D01*
X206530874Y-94476890D01*
X206655901Y-94324545D01*
X206748805Y-94150734D01*
X206806015Y-93962139D01*
X206825332Y-93766007D01*
X206806015Y-93569875D01*
X206748805Y-93381280D01*
X206748803Y-93381277D01*
X206748803Y-93381275D01*
X206697039Y-93284433D01*
X206655901Y-93207469D01*
X206530874Y-93055124D01*
X206378529Y-92930097D01*
X206368588Y-92924783D01*
X206324443Y-92901187D01*
X209899491Y-92901187D01*
X209899491Y-94630826D01*
X209908224Y-94674729D01*
X209921647Y-94694819D01*
X209941487Y-94724511D01*
X209991269Y-94757774D01*
X210035171Y-94766507D01*
X210035172Y-94766507D01*
X211764810Y-94766507D01*
X211764811Y-94766507D01*
X211808713Y-94757774D01*
X211858495Y-94724511D01*
X211891758Y-94674729D01*
X211900491Y-94630827D01*
X211900491Y-92901187D01*
X211891758Y-92857285D01*
X211858495Y-92807503D01*
X211808713Y-92774240D01*
X211764811Y-92765507D01*
X210035171Y-92765507D01*
X210013220Y-92769873D01*
X209991268Y-92774240D01*
X209941487Y-92807502D01*
X209941486Y-92807503D01*
X209908224Y-92857284D01*
X209899491Y-92901187D01*
X206324443Y-92901187D01*
X206204722Y-92837194D01*
X206016124Y-92779983D01*
X205819991Y-92760666D01*
X205623857Y-92779983D01*
X205435259Y-92837194D01*
X205261454Y-92930096D01*
X205109108Y-93055124D01*
X204984080Y-93207470D01*
X204891178Y-93381275D01*
X204833967Y-93569873D01*
X204814650Y-93766007D01*
X165453235Y-93766007D01*
X165445105Y-92006007D01*
X200554858Y-92006007D01*
X200573293Y-92134230D01*
X200573293Y-92134231D01*
X200573294Y-92134233D01*
X200627109Y-92252070D01*
X200711942Y-92349974D01*
X200820922Y-92420011D01*
X200945219Y-92456507D01*
X201074763Y-92456507D01*
X201199060Y-92420011D01*
X201308040Y-92349974D01*
X201392873Y-92252070D01*
X201446688Y-92134233D01*
X201463686Y-92016007D01*
X202824858Y-92016007D01*
X202843293Y-92144230D01*
X202843293Y-92144231D01*
X202843294Y-92144233D01*
X202897109Y-92262070D01*
X202981942Y-92359974D01*
X203090922Y-92430011D01*
X203215219Y-92466507D01*
X203344763Y-92466507D01*
X203469060Y-92430011D01*
X203578040Y-92359974D01*
X203662873Y-92262070D01*
X203716688Y-92144233D01*
X203735124Y-92016007D01*
X203716688Y-91887781D01*
X203662873Y-91769944D01*
X203578040Y-91672040D01*
X203511023Y-91628971D01*
X203469059Y-91602002D01*
X203344763Y-91565507D01*
X203215219Y-91565507D01*
X203090922Y-91602002D01*
X202981945Y-91672038D01*
X202981941Y-91672041D01*
X202897110Y-91769942D01*
X202843293Y-91887783D01*
X202824858Y-92016007D01*
X201463686Y-92016007D01*
X201465124Y-92006007D01*
X201446688Y-91877781D01*
X201392873Y-91759944D01*
X201308040Y-91662040D01*
X201241023Y-91618971D01*
X201199059Y-91592002D01*
X201074763Y-91555507D01*
X200945219Y-91555507D01*
X200820922Y-91592002D01*
X200711945Y-91662038D01*
X200711941Y-91662041D01*
X200627110Y-91759942D01*
X200573293Y-91877783D01*
X200554858Y-92006007D01*
X165445105Y-92006007D01*
X165440347Y-90976007D01*
X185354858Y-90976007D01*
X185373293Y-91104230D01*
X185373293Y-91104231D01*
X185373294Y-91104233D01*
X185427109Y-91222070D01*
X185511942Y-91319974D01*
X185620922Y-91390011D01*
X185745219Y-91426507D01*
X185874763Y-91426507D01*
X185999060Y-91390011D01*
X186108040Y-91319974D01*
X186192873Y-91222070D01*
X186246688Y-91104233D01*
X186265124Y-90976007D01*
X186246688Y-90847781D01*
X186227610Y-90806007D01*
X192424858Y-90806007D01*
X192443293Y-90934230D01*
X192443293Y-90934231D01*
X192443294Y-90934233D01*
X192497109Y-91052070D01*
X192581942Y-91149974D01*
X192690922Y-91220011D01*
X192815219Y-91256507D01*
X192944763Y-91256507D01*
X193069060Y-91220011D01*
X193178040Y-91149974D01*
X193262873Y-91052070D01*
X193316688Y-90934233D01*
X193335124Y-90806007D01*
X193316688Y-90677781D01*
X193262873Y-90559944D01*
X193178040Y-90462040D01*
X193111023Y-90418971D01*
X193069059Y-90392002D01*
X192944763Y-90355507D01*
X192815219Y-90355507D01*
X192690922Y-90392002D01*
X192581945Y-90462038D01*
X192581941Y-90462041D01*
X192497110Y-90559942D01*
X192443293Y-90677783D01*
X192424858Y-90806007D01*
X186227610Y-90806007D01*
X186192873Y-90729944D01*
X186108040Y-90632040D01*
X186041023Y-90588971D01*
X185999059Y-90562002D01*
X185874763Y-90525507D01*
X185745219Y-90525507D01*
X185620922Y-90562002D01*
X185511945Y-90632038D01*
X185511941Y-90632041D01*
X185427110Y-90729942D01*
X185373293Y-90847783D01*
X185354858Y-90976007D01*
X165440347Y-90976007D01*
X165435358Y-89896007D01*
X203124858Y-89896007D01*
X203143293Y-90024230D01*
X203143293Y-90024231D01*
X203143294Y-90024233D01*
X203197109Y-90142070D01*
X203281942Y-90239974D01*
X203390922Y-90310011D01*
X203515219Y-90346507D01*
X203644763Y-90346507D01*
X203769060Y-90310011D01*
X203878040Y-90239974D01*
X203962873Y-90142070D01*
X204016688Y-90024233D01*
X204035124Y-89896007D01*
X204016688Y-89767781D01*
X203962873Y-89649944D01*
X203878040Y-89552040D01*
X203811023Y-89508971D01*
X203769059Y-89482002D01*
X203644763Y-89445507D01*
X203515219Y-89445507D01*
X203390922Y-89482002D01*
X203281945Y-89552038D01*
X203281941Y-89552041D01*
X203197110Y-89649942D01*
X203143293Y-89767783D01*
X203124858Y-89896007D01*
X165435358Y-89896007D01*
X165431801Y-89126007D01*
X184954858Y-89126007D01*
X184973293Y-89254230D01*
X184973293Y-89254231D01*
X184973294Y-89254233D01*
X185027109Y-89372070D01*
X185111942Y-89469974D01*
X185220922Y-89540011D01*
X185345219Y-89576507D01*
X185474763Y-89576507D01*
X185599060Y-89540011D01*
X185708040Y-89469974D01*
X185792873Y-89372070D01*
X185846688Y-89254233D01*
X185865124Y-89126007D01*
X185846688Y-88997781D01*
X185792873Y-88879944D01*
X185708040Y-88782040D01*
X185641023Y-88738971D01*
X185599059Y-88712002D01*
X185474763Y-88675507D01*
X185345219Y-88675507D01*
X185220922Y-88712002D01*
X185111945Y-88782038D01*
X185111941Y-88782041D01*
X185027110Y-88879942D01*
X184973293Y-88997783D01*
X184954858Y-89126007D01*
X165431801Y-89126007D01*
X165427736Y-88246007D01*
X203254858Y-88246007D01*
X203273293Y-88374230D01*
X203273293Y-88374231D01*
X203273294Y-88374233D01*
X203327109Y-88492070D01*
X203411942Y-88589974D01*
X203520922Y-88660011D01*
X203645219Y-88696507D01*
X203774763Y-88696507D01*
X203899060Y-88660011D01*
X204008040Y-88589974D01*
X204092873Y-88492070D01*
X204146688Y-88374233D01*
X204165124Y-88246007D01*
X204146688Y-88117781D01*
X204092873Y-87999944D01*
X204008040Y-87902040D01*
X203941023Y-87858971D01*
X203899059Y-87832002D01*
X203774763Y-87795507D01*
X203645219Y-87795507D01*
X203520922Y-87832002D01*
X203411945Y-87902038D01*
X203411941Y-87902041D01*
X203327110Y-87999942D01*
X203273293Y-88117783D01*
X203254858Y-88246007D01*
X165427736Y-88246007D01*
X165423532Y-87336007D01*
X202084858Y-87336007D01*
X202103293Y-87464230D01*
X202103293Y-87464231D01*
X202103294Y-87464233D01*
X202157109Y-87582070D01*
X202241942Y-87679974D01*
X202350922Y-87750011D01*
X202475219Y-87786507D01*
X202604763Y-87786507D01*
X202729060Y-87750011D01*
X202838040Y-87679974D01*
X202922873Y-87582070D01*
X202976688Y-87464233D01*
X202995124Y-87336007D01*
X202982184Y-87246007D01*
X209374650Y-87246007D01*
X209393967Y-87442140D01*
X209451178Y-87630738D01*
X209514932Y-87750011D01*
X209544081Y-87804545D01*
X209669108Y-87956890D01*
X209821453Y-88081917D01*
X209888550Y-88117781D01*
X209995259Y-88174819D01*
X209995261Y-88174819D01*
X209995264Y-88174821D01*
X210183859Y-88232031D01*
X210379991Y-88251348D01*
X210576123Y-88232031D01*
X210764718Y-88174821D01*
X210938529Y-88081917D01*
X211090874Y-87956890D01*
X211215901Y-87804545D01*
X211308805Y-87630734D01*
X211366015Y-87442139D01*
X211385332Y-87246007D01*
X211366015Y-87049875D01*
X211308805Y-86861280D01*
X211308803Y-86861277D01*
X211308803Y-86861275D01*
X211256159Y-86762787D01*
X211215901Y-86687469D01*
X211090874Y-86535124D01*
X210938529Y-86410097D01*
X210924935Y-86402831D01*
X210764722Y-86317194D01*
X210576124Y-86259983D01*
X210379991Y-86240666D01*
X210183857Y-86259983D01*
X209995259Y-86317194D01*
X209821454Y-86410096D01*
X209669108Y-86535124D01*
X209544080Y-86687470D01*
X209451178Y-86861275D01*
X209393967Y-87049873D01*
X209374650Y-87246007D01*
X202982184Y-87246007D01*
X202976688Y-87207781D01*
X202922873Y-87089944D01*
X202838040Y-86992040D01*
X202771023Y-86948971D01*
X202729059Y-86922002D01*
X202604763Y-86885507D01*
X202475219Y-86885507D01*
X202350922Y-86922002D01*
X202241945Y-86992038D01*
X202241941Y-86992041D01*
X202157110Y-87089942D01*
X202103293Y-87207783D01*
X202084858Y-87336007D01*
X165423532Y-87336007D01*
X165420905Y-86767333D01*
X165420911Y-86766005D01*
X165422517Y-86645936D01*
X165409628Y-86546678D01*
X165390950Y-86402831D01*
X165351212Y-86259983D01*
X165325252Y-86166662D01*
X165325251Y-86166659D01*
X165325250Y-86166656D01*
X165226743Y-85942175D01*
X165154310Y-85825537D01*
X165145119Y-85769653D01*
X165178137Y-85723635D01*
X165217176Y-85712500D01*
X165259311Y-85712500D01*
X165259311Y-85712499D01*
X165373886Y-85681799D01*
X165476613Y-85622489D01*
X165560489Y-85538613D01*
X165619799Y-85435886D01*
X165650499Y-85321311D01*
X165650500Y-85321311D01*
X165650500Y-85246007D01*
X200414858Y-85246007D01*
X200433293Y-85374230D01*
X200433293Y-85374231D01*
X200433294Y-85374233D01*
X200487109Y-85492070D01*
X200571942Y-85589974D01*
X200680922Y-85660011D01*
X200805219Y-85696507D01*
X200934763Y-85696507D01*
X201059060Y-85660011D01*
X201168040Y-85589974D01*
X201252873Y-85492070D01*
X201306688Y-85374233D01*
X201325124Y-85246007D01*
X201306688Y-85117781D01*
X201252873Y-84999944D01*
X201168040Y-84902040D01*
X201101023Y-84858971D01*
X201059059Y-84832002D01*
X200934763Y-84795507D01*
X200805219Y-84795507D01*
X200680922Y-84832002D01*
X200571945Y-84902038D01*
X200571941Y-84902041D01*
X200487110Y-84999942D01*
X200433293Y-85117783D01*
X200414858Y-85246007D01*
X165650500Y-85246007D01*
X165650500Y-85202689D01*
X165650499Y-85202688D01*
X165619800Y-85088117D01*
X165619798Y-85088112D01*
X165560491Y-84985390D01*
X165560490Y-84985389D01*
X165560489Y-84985387D01*
X165514426Y-84939324D01*
X165492753Y-84887000D01*
X165514426Y-84834675D01*
X165560489Y-84788613D01*
X165619799Y-84685886D01*
X165650499Y-84571311D01*
X165650500Y-84571311D01*
X165650500Y-84452689D01*
X165650499Y-84452688D01*
X165647284Y-84440691D01*
X165619799Y-84338114D01*
X165560489Y-84235387D01*
X165508426Y-84183324D01*
X165486753Y-84131000D01*
X165508426Y-84078675D01*
X165560489Y-84026613D01*
X165619799Y-83923886D01*
X165641958Y-83841187D01*
X209379491Y-83841187D01*
X209379491Y-85570827D01*
X209388224Y-85614729D01*
X209421487Y-85664511D01*
X209471269Y-85697774D01*
X209515171Y-85706507D01*
X209515172Y-85706507D01*
X211244810Y-85706507D01*
X211244811Y-85706507D01*
X211288713Y-85697774D01*
X211338495Y-85664511D01*
X211371758Y-85614729D01*
X211380491Y-85570827D01*
X211380491Y-83841187D01*
X211371758Y-83797285D01*
X211338495Y-83747503D01*
X211288713Y-83714240D01*
X211244811Y-83705507D01*
X209515171Y-83705507D01*
X209493220Y-83709873D01*
X209471268Y-83714240D01*
X209421487Y-83747502D01*
X209421486Y-83747503D01*
X209388224Y-83797284D01*
X209388224Y-83797285D01*
X209379491Y-83841187D01*
X165641958Y-83841187D01*
X165650499Y-83809311D01*
X165650500Y-83809311D01*
X165650500Y-83690689D01*
X165650499Y-83690688D01*
X165619800Y-83576117D01*
X165619798Y-83576112D01*
X165560491Y-83473390D01*
X165560490Y-83473389D01*
X165560489Y-83473387D01*
X165514426Y-83427324D01*
X165492753Y-83375000D01*
X165514426Y-83322675D01*
X165560489Y-83276613D01*
X165619799Y-83173886D01*
X165650499Y-83059311D01*
X165650500Y-83059311D01*
X165650500Y-82940689D01*
X165650499Y-82940688D01*
X165619800Y-82826117D01*
X165619798Y-82826112D01*
X165560491Y-82723390D01*
X165560490Y-82723389D01*
X165560489Y-82723387D01*
X165502426Y-82665324D01*
X165480753Y-82613000D01*
X165502426Y-82560675D01*
X165560489Y-82502613D01*
X165619799Y-82399886D01*
X165650499Y-82285311D01*
X165650500Y-82285311D01*
X165650500Y-82166689D01*
X165650499Y-82166688D01*
X165619800Y-82052117D01*
X165619798Y-82052112D01*
X165560491Y-81949390D01*
X165560490Y-81949389D01*
X165560489Y-81949387D01*
X165476613Y-81865511D01*
X165476610Y-81865509D01*
X165476609Y-81865508D01*
X165373887Y-81806201D01*
X165373882Y-81806199D01*
X165259311Y-81775500D01*
X165259309Y-81775500D01*
X165219141Y-81775500D01*
X165166815Y-81753826D01*
X165145141Y-81701500D01*
X165156570Y-81661992D01*
X165201357Y-81591061D01*
X165220464Y-81560801D01*
X165320777Y-81336588D01*
X165378601Y-81134109D01*
X165388225Y-81100407D01*
X165388226Y-81100404D01*
X165388227Y-81100400D01*
X165421448Y-80857027D01*
X165420594Y-80734866D01*
X165420556Y-77275999D01*
X168654583Y-77275999D01*
X168654583Y-77276014D01*
X168674191Y-77562684D01*
X168674194Y-77562704D01*
X168732654Y-77844030D01*
X168732659Y-77844048D01*
X168828883Y-78114796D01*
X168828885Y-78114801D01*
X168947667Y-78344039D01*
X168961090Y-78369943D01*
X169126802Y-78604705D01*
X169322938Y-78814715D01*
X169545844Y-78996062D01*
X169791366Y-79145368D01*
X170054933Y-79259851D01*
X170331633Y-79337378D01*
X170616313Y-79376507D01*
X170616320Y-79376507D01*
X170903662Y-79376507D01*
X170903669Y-79376507D01*
X171188349Y-79337378D01*
X171465049Y-79259851D01*
X171728616Y-79145368D01*
X171974138Y-78996062D01*
X172197044Y-78814715D01*
X172393180Y-78604705D01*
X172558892Y-78369943D01*
X172691095Y-78114804D01*
X172691098Y-78114796D01*
X172787322Y-77844048D01*
X172787322Y-77844045D01*
X172787325Y-77844039D01*
X172845789Y-77562693D01*
X172848524Y-77522710D01*
X172865399Y-77276014D01*
X172865399Y-77275999D01*
X180454583Y-77275999D01*
X180454583Y-77276014D01*
X180474191Y-77562684D01*
X180474194Y-77562704D01*
X180532654Y-77844030D01*
X180532659Y-77844048D01*
X180628883Y-78114796D01*
X180628885Y-78114801D01*
X180747667Y-78344039D01*
X180761090Y-78369943D01*
X180926802Y-78604705D01*
X181122938Y-78814715D01*
X181345844Y-78996062D01*
X181591366Y-79145368D01*
X181854933Y-79259851D01*
X182131633Y-79337378D01*
X182416313Y-79376507D01*
X182416320Y-79376507D01*
X182703662Y-79376507D01*
X182703669Y-79376507D01*
X182988349Y-79337378D01*
X183265049Y-79259851D01*
X183528616Y-79145368D01*
X183774138Y-78996062D01*
X183997044Y-78814715D01*
X184193180Y-78604705D01*
X184358892Y-78369943D01*
X184491095Y-78114804D01*
X184491098Y-78114796D01*
X184587322Y-77844048D01*
X184587322Y-77844045D01*
X184587325Y-77844039D01*
X184601464Y-77775999D01*
X207154583Y-77775999D01*
X207154583Y-77776014D01*
X207174191Y-78062684D01*
X207174194Y-78062704D01*
X207232654Y-78344030D01*
X207232659Y-78344048D01*
X207328883Y-78614796D01*
X207328885Y-78614801D01*
X207454915Y-78858027D01*
X207461090Y-78869943D01*
X207626802Y-79104705D01*
X207822938Y-79314715D01*
X208045844Y-79496062D01*
X208291366Y-79645368D01*
X208554933Y-79759851D01*
X208831633Y-79837378D01*
X209116313Y-79876507D01*
X209116320Y-79876507D01*
X209403662Y-79876507D01*
X209403669Y-79876507D01*
X209688349Y-79837378D01*
X209965049Y-79759851D01*
X210228616Y-79645368D01*
X210474138Y-79496062D01*
X210697044Y-79314715D01*
X210893180Y-79104705D01*
X211058892Y-78869943D01*
X211191095Y-78614804D01*
X211227137Y-78513392D01*
X211287322Y-78344048D01*
X211287322Y-78344045D01*
X211287325Y-78344039D01*
X211301268Y-78276943D01*
X211345787Y-78062704D01*
X211345790Y-78062684D01*
X211365399Y-77776014D01*
X211365399Y-77775999D01*
X211345790Y-77489329D01*
X211345787Y-77489309D01*
X211287327Y-77207983D01*
X211287322Y-77207965D01*
X211191098Y-76937217D01*
X211191096Y-76937212D01*
X211058892Y-76682071D01*
X211058887Y-76682064D01*
X210944472Y-76519974D01*
X210893180Y-76447309D01*
X210697044Y-76237299D01*
X210474138Y-76055952D01*
X210474132Y-76055948D01*
X210474129Y-76055946D01*
X210295442Y-75947284D01*
X210228616Y-75906646D01*
X210228613Y-75906644D01*
X210228612Y-75906644D01*
X209965047Y-75792162D01*
X209688347Y-75714635D01*
X209403673Y-75675507D01*
X209403669Y-75675507D01*
X209116313Y-75675507D01*
X209116308Y-75675507D01*
X208831634Y-75714635D01*
X208554934Y-75792162D01*
X208291369Y-75906644D01*
X208291366Y-75906646D01*
X208045852Y-76055946D01*
X208045844Y-76055952D01*
X207979397Y-76110011D01*
X207822936Y-76237301D01*
X207626800Y-76447311D01*
X207461094Y-76682064D01*
X207461089Y-76682071D01*
X207328885Y-76937212D01*
X207328883Y-76937217D01*
X207232659Y-77207965D01*
X207232654Y-77207983D01*
X207174194Y-77489309D01*
X207174191Y-77489329D01*
X207154583Y-77775999D01*
X184601464Y-77775999D01*
X184645789Y-77562693D01*
X184648524Y-77522710D01*
X184665399Y-77276014D01*
X184665399Y-77275999D01*
X184645790Y-76989329D01*
X184645787Y-76989309D01*
X184587327Y-76707983D01*
X184587322Y-76707965D01*
X184491098Y-76437217D01*
X184491096Y-76437212D01*
X184358892Y-76182071D01*
X184358887Y-76182064D01*
X184354612Y-76176007D01*
X190544858Y-76176007D01*
X190563293Y-76304230D01*
X190563293Y-76304231D01*
X190563294Y-76304233D01*
X190617109Y-76422070D01*
X190701942Y-76519974D01*
X190810922Y-76590011D01*
X190935219Y-76626507D01*
X191064763Y-76626507D01*
X191189060Y-76590011D01*
X191298040Y-76519974D01*
X191382873Y-76422070D01*
X191436688Y-76304233D01*
X191455124Y-76176007D01*
X191436688Y-76047781D01*
X191382873Y-75929944D01*
X191298040Y-75832040D01*
X191231023Y-75788971D01*
X191189059Y-75762002D01*
X191064763Y-75725507D01*
X190935219Y-75725507D01*
X190810922Y-75762002D01*
X190701945Y-75832038D01*
X190701941Y-75832041D01*
X190617110Y-75929942D01*
X190563293Y-76047783D01*
X190544858Y-76176007D01*
X184354612Y-76176007D01*
X184315115Y-76120053D01*
X184193180Y-75947309D01*
X183997044Y-75737299D01*
X183946289Y-75696007D01*
X189054858Y-75696007D01*
X189073293Y-75824230D01*
X189073293Y-75824231D01*
X189073294Y-75824233D01*
X189127109Y-75942070D01*
X189211942Y-76039974D01*
X189320922Y-76110011D01*
X189445219Y-76146507D01*
X189574763Y-76146507D01*
X189699060Y-76110011D01*
X189808040Y-76039974D01*
X189892873Y-75942070D01*
X189946688Y-75824233D01*
X189965124Y-75696007D01*
X189946688Y-75567781D01*
X189892873Y-75449944D01*
X189808040Y-75352040D01*
X189741023Y-75308971D01*
X189699059Y-75282002D01*
X189574763Y-75245507D01*
X189445219Y-75245507D01*
X189320922Y-75282002D01*
X189211945Y-75352038D01*
X189211941Y-75352041D01*
X189127110Y-75449942D01*
X189073293Y-75567783D01*
X189054858Y-75696007D01*
X183946289Y-75696007D01*
X183774138Y-75555952D01*
X183774132Y-75555948D01*
X183774129Y-75555946D01*
X183599816Y-75449944D01*
X183528616Y-75406646D01*
X183528613Y-75406644D01*
X183528612Y-75406644D01*
X183265047Y-75292162D01*
X182988347Y-75214635D01*
X182703673Y-75175507D01*
X182703669Y-75175507D01*
X182416313Y-75175507D01*
X182416308Y-75175507D01*
X182131634Y-75214635D01*
X181854934Y-75292162D01*
X181591369Y-75406644D01*
X181591366Y-75406646D01*
X181345852Y-75555946D01*
X181345844Y-75555952D01*
X181137433Y-75725507D01*
X181122936Y-75737301D01*
X180926800Y-75947311D01*
X180761094Y-76182064D01*
X180761089Y-76182071D01*
X180628885Y-76437212D01*
X180628883Y-76437217D01*
X180532659Y-76707965D01*
X180532654Y-76707983D01*
X180474194Y-76989309D01*
X180474191Y-76989329D01*
X180454583Y-77275999D01*
X172865399Y-77275999D01*
X172845790Y-76989329D01*
X172845787Y-76989309D01*
X172787327Y-76707983D01*
X172787322Y-76707965D01*
X172691098Y-76437217D01*
X172691096Y-76437212D01*
X172558892Y-76182071D01*
X172558887Y-76182064D01*
X172515115Y-76120053D01*
X172393180Y-75947309D01*
X172197044Y-75737299D01*
X171974138Y-75555952D01*
X171974132Y-75555948D01*
X171974129Y-75555946D01*
X171799816Y-75449944D01*
X171728616Y-75406646D01*
X171728613Y-75406644D01*
X171728612Y-75406644D01*
X171465047Y-75292162D01*
X171188347Y-75214635D01*
X170903673Y-75175507D01*
X170903669Y-75175507D01*
X170616313Y-75175507D01*
X170616308Y-75175507D01*
X170331634Y-75214635D01*
X170054934Y-75292162D01*
X169791369Y-75406644D01*
X169791366Y-75406646D01*
X169545852Y-75555946D01*
X169545844Y-75555952D01*
X169337433Y-75725507D01*
X169322936Y-75737301D01*
X169126800Y-75947311D01*
X168961094Y-76182064D01*
X168961089Y-76182071D01*
X168828885Y-76437212D01*
X168828883Y-76437217D01*
X168732659Y-76707965D01*
X168732654Y-76707983D01*
X168674194Y-76989309D01*
X168674191Y-76989329D01*
X168654583Y-77275999D01*
X165420556Y-77275999D01*
X165420509Y-73046007D01*
X191424858Y-73046007D01*
X191443293Y-73174230D01*
X191443293Y-73174231D01*
X191443294Y-73174233D01*
X191497109Y-73292070D01*
X191581942Y-73389974D01*
X191690922Y-73460011D01*
X191736658Y-73473440D01*
X191780758Y-73508978D01*
X191786813Y-73565291D01*
X191755819Y-73606695D01*
X191731944Y-73622038D01*
X191731941Y-73622041D01*
X191647110Y-73719942D01*
X191593293Y-73837783D01*
X191574858Y-73966007D01*
X191593293Y-74094230D01*
X191593293Y-74094231D01*
X191593294Y-74094233D01*
X191647109Y-74212070D01*
X191731942Y-74309974D01*
X191840922Y-74380011D01*
X191965219Y-74416507D01*
X192094763Y-74416507D01*
X192219060Y-74380011D01*
X192328040Y-74309974D01*
X192412873Y-74212070D01*
X192466688Y-74094233D01*
X192485124Y-73966007D01*
X192466688Y-73837781D01*
X192412873Y-73719944D01*
X192328040Y-73622040D01*
X192219060Y-73552003D01*
X192219057Y-73552001D01*
X192173322Y-73538572D01*
X192129223Y-73503034D01*
X192123169Y-73446721D01*
X192154162Y-73405318D01*
X192178040Y-73389974D01*
X192262873Y-73292070D01*
X192316688Y-73174233D01*
X192335124Y-73046007D01*
X192316688Y-72917781D01*
X192262873Y-72799944D01*
X192178040Y-72702040D01*
X192111023Y-72658971D01*
X192069059Y-72632002D01*
X191944763Y-72595507D01*
X191815219Y-72595507D01*
X191690922Y-72632002D01*
X191581945Y-72702038D01*
X191581941Y-72702041D01*
X191497110Y-72799942D01*
X191443293Y-72917783D01*
X191424858Y-73046007D01*
X165420509Y-73046007D01*
X165420504Y-72603836D01*
X165420774Y-72601023D01*
X165420617Y-72575137D01*
X165420505Y-72556532D01*
X165420504Y-72556085D01*
X165420504Y-72511473D01*
X165420215Y-72508639D01*
X165419757Y-72432561D01*
X165383252Y-72189130D01*
X165312470Y-71953373D01*
X165208850Y-71730093D01*
X165154653Y-71646886D01*
X165144257Y-71591213D01*
X165176273Y-71544493D01*
X165216661Y-71532500D01*
X165259311Y-71532500D01*
X165259311Y-71532499D01*
X165373886Y-71501799D01*
X165476613Y-71442489D01*
X165560489Y-71358613D01*
X165619799Y-71255886D01*
X165650499Y-71141311D01*
X165650500Y-71141311D01*
X165650500Y-71022689D01*
X165650499Y-71022688D01*
X165619800Y-70908117D01*
X165619798Y-70908112D01*
X165560491Y-70805390D01*
X165560490Y-70805389D01*
X165560489Y-70805387D01*
X165514426Y-70759324D01*
X165492753Y-70707000D01*
X165514426Y-70654675D01*
X165560489Y-70608613D01*
X165613956Y-70516007D01*
X171804858Y-70516007D01*
X171823293Y-70644230D01*
X171823293Y-70644231D01*
X171823294Y-70644233D01*
X171877109Y-70762070D01*
X171961942Y-70859974D01*
X172070922Y-70930011D01*
X172195219Y-70966507D01*
X172324763Y-70966507D01*
X172449060Y-70930011D01*
X172558040Y-70859974D01*
X172642873Y-70762070D01*
X172663910Y-70716007D01*
X174384858Y-70716007D01*
X174403293Y-70844230D01*
X174403293Y-70844231D01*
X174403294Y-70844233D01*
X174457109Y-70962070D01*
X174541942Y-71059974D01*
X174650922Y-71130011D01*
X174775219Y-71166507D01*
X174904763Y-71166507D01*
X175029060Y-71130011D01*
X175138040Y-71059974D01*
X175222873Y-70962070D01*
X175276688Y-70844233D01*
X175279308Y-70826007D01*
X194274858Y-70826007D01*
X194293293Y-70954230D01*
X194293293Y-70954231D01*
X194293294Y-70954233D01*
X194347109Y-71072070D01*
X194431942Y-71169974D01*
X194540922Y-71240011D01*
X194665219Y-71276507D01*
X194794763Y-71276507D01*
X194919060Y-71240011D01*
X195028040Y-71169974D01*
X195112873Y-71072070D01*
X195166688Y-70954233D01*
X195185124Y-70826007D01*
X195166688Y-70697781D01*
X195112873Y-70579944D01*
X195028040Y-70482040D01*
X194950115Y-70431961D01*
X194919059Y-70412002D01*
X194794763Y-70375507D01*
X194665219Y-70375507D01*
X194540922Y-70412002D01*
X194431945Y-70482038D01*
X194431941Y-70482041D01*
X194347110Y-70579942D01*
X194347109Y-70579943D01*
X194347109Y-70579944D01*
X194334018Y-70608609D01*
X194293293Y-70697783D01*
X194274858Y-70826007D01*
X175279308Y-70826007D01*
X175295124Y-70716007D01*
X175276688Y-70587781D01*
X175222873Y-70469944D01*
X175138040Y-70372040D01*
X175071023Y-70328971D01*
X175029059Y-70302002D01*
X174904763Y-70265507D01*
X174775219Y-70265507D01*
X174650922Y-70302002D01*
X174541945Y-70372038D01*
X174541941Y-70372041D01*
X174457110Y-70469942D01*
X174457109Y-70469943D01*
X174457109Y-70469944D01*
X174440695Y-70505886D01*
X174403293Y-70587783D01*
X174384858Y-70716007D01*
X172663910Y-70716007D01*
X172696688Y-70644233D01*
X172715124Y-70516007D01*
X172696688Y-70387781D01*
X172642873Y-70269944D01*
X172558040Y-70172040D01*
X172468974Y-70114801D01*
X172449059Y-70102002D01*
X172324763Y-70065507D01*
X172195219Y-70065507D01*
X172070922Y-70102002D01*
X171961945Y-70172038D01*
X171961941Y-70172041D01*
X171877110Y-70269942D01*
X171877109Y-70269943D01*
X171877109Y-70269944D01*
X171862468Y-70302002D01*
X171823293Y-70387783D01*
X171804858Y-70516007D01*
X165613956Y-70516007D01*
X165619799Y-70505886D01*
X165650499Y-70391311D01*
X165650500Y-70391311D01*
X165650500Y-70272689D01*
X165650499Y-70272688D01*
X165647284Y-70260691D01*
X165623531Y-70172041D01*
X165619800Y-70158117D01*
X165619798Y-70158112D01*
X165560491Y-70055390D01*
X165560490Y-70055389D01*
X165560489Y-70055387D01*
X165508426Y-70003324D01*
X165486753Y-69951000D01*
X165508426Y-69898675D01*
X165560489Y-69846613D01*
X165619799Y-69743886D01*
X165650499Y-69629311D01*
X165650500Y-69629311D01*
X165650500Y-69510689D01*
X165650499Y-69510688D01*
X165619800Y-69396117D01*
X165619798Y-69396112D01*
X165560491Y-69293390D01*
X165560490Y-69293389D01*
X165560489Y-69293387D01*
X165543101Y-69275999D01*
X200754583Y-69275999D01*
X200754583Y-69276014D01*
X200774191Y-69562684D01*
X200774194Y-69562704D01*
X200832654Y-69844030D01*
X200832659Y-69844048D01*
X200928883Y-70114796D01*
X200928885Y-70114801D01*
X201061089Y-70369942D01*
X201061094Y-70369949D01*
X201131678Y-70469944D01*
X201226802Y-70604705D01*
X201422938Y-70814715D01*
X201645844Y-70996062D01*
X201891366Y-71145368D01*
X202154933Y-71259851D01*
X202431633Y-71337378D01*
X202716313Y-71376507D01*
X202716320Y-71376507D01*
X203003662Y-71376507D01*
X203003669Y-71376507D01*
X203288349Y-71337378D01*
X203565049Y-71259851D01*
X203828616Y-71145368D01*
X204074138Y-70996062D01*
X204297044Y-70814715D01*
X204493180Y-70604705D01*
X204658892Y-70369943D01*
X204791095Y-70114804D01*
X204791098Y-70114796D01*
X204887322Y-69844048D01*
X204887322Y-69844045D01*
X204887325Y-69844039D01*
X204945789Y-69562693D01*
X204949346Y-69510691D01*
X204965399Y-69276014D01*
X204965399Y-69275999D01*
X204945790Y-68989329D01*
X204945787Y-68989309D01*
X204887327Y-68707983D01*
X204887322Y-68707965D01*
X204791098Y-68437217D01*
X204791096Y-68437212D01*
X204658892Y-68182071D01*
X204658887Y-68182064D01*
X204587141Y-68080423D01*
X204493180Y-67947309D01*
X204297044Y-67737299D01*
X204074138Y-67555952D01*
X204074132Y-67555948D01*
X204074129Y-67555946D01*
X203952122Y-67481752D01*
X203828616Y-67406646D01*
X203828613Y-67406644D01*
X203828612Y-67406644D01*
X203565047Y-67292162D01*
X203288347Y-67214635D01*
X203003673Y-67175507D01*
X203003669Y-67175507D01*
X202716313Y-67175507D01*
X202716308Y-67175507D01*
X202431634Y-67214635D01*
X202154934Y-67292162D01*
X201891369Y-67406644D01*
X201891366Y-67406646D01*
X201645852Y-67555946D01*
X201645844Y-67555952D01*
X201486595Y-67685511D01*
X201422936Y-67737301D01*
X201226800Y-67947311D01*
X201061094Y-68182064D01*
X201061089Y-68182071D01*
X200928885Y-68437212D01*
X200928883Y-68437217D01*
X200832659Y-68707965D01*
X200832654Y-68707983D01*
X200774194Y-68989309D01*
X200774191Y-68989329D01*
X200754583Y-69275999D01*
X165543101Y-69275999D01*
X165514426Y-69247324D01*
X165492753Y-69195000D01*
X165514426Y-69142675D01*
X165560489Y-69096613D01*
X165619799Y-68993886D01*
X165650499Y-68879311D01*
X165650500Y-68879311D01*
X165650500Y-68760689D01*
X165650499Y-68760688D01*
X165619800Y-68646117D01*
X165619798Y-68646112D01*
X165560491Y-68543390D01*
X165560490Y-68543389D01*
X165560489Y-68543387D01*
X165502426Y-68485324D01*
X165480753Y-68433000D01*
X165502426Y-68380675D01*
X165560489Y-68322613D01*
X165619799Y-68219886D01*
X165650499Y-68105311D01*
X165650500Y-68105311D01*
X165650500Y-67986689D01*
X165650499Y-67986688D01*
X165639947Y-67947309D01*
X165619799Y-67872114D01*
X165560489Y-67769387D01*
X165476613Y-67685511D01*
X165476610Y-67685509D01*
X165476609Y-67685508D01*
X165373887Y-67626201D01*
X165373882Y-67626199D01*
X165259311Y-67595500D01*
X165259309Y-67595500D01*
X165221986Y-67595500D01*
X165169660Y-67573826D01*
X165147986Y-67521500D01*
X165159568Y-67481752D01*
X165219823Y-67387130D01*
X165219823Y-67387128D01*
X165219828Y-67387122D01*
X165321570Y-67161506D01*
X165390028Y-66923666D01*
X165423794Y-66678484D01*
X165423038Y-66557380D01*
X165423043Y-66556041D01*
X165423048Y-66555675D01*
X165457401Y-63915861D01*
X165458016Y-63910038D01*
X165458016Y-63903136D01*
X165458017Y-63870155D01*
X165458373Y-63862936D01*
X165472677Y-63717808D01*
X165475506Y-63703591D01*
X165516781Y-63567553D01*
X165522329Y-63554161D01*
X165589349Y-63428784D01*
X165597399Y-63416736D01*
X165687588Y-63306843D01*
X165697844Y-63296588D01*
X165697865Y-63296571D01*
X165807736Y-63206399D01*
X165819784Y-63198349D01*
X165945161Y-63131329D01*
X165958553Y-63125781D01*
X166094589Y-63084507D01*
X166108809Y-63081677D01*
X166253932Y-63067374D01*
X166261153Y-63067018D01*
X166297417Y-63067016D01*
X166297417Y-63067015D01*
X166306000Y-63067015D01*
X166306043Y-63067009D01*
X168815478Y-63066556D01*
X168867807Y-63088221D01*
X168889491Y-63140543D01*
X168889491Y-68675890D01*
X168920013Y-68749578D01*
X168920014Y-68749580D01*
X168920015Y-68749581D01*
X168976417Y-68805983D01*
X169050109Y-68836507D01*
X169050110Y-68836507D01*
X178229872Y-68836507D01*
X178229873Y-68836507D01*
X178303565Y-68805983D01*
X178359967Y-68749581D01*
X178390491Y-68675889D01*
X178390491Y-63140510D01*
X178412165Y-63088184D01*
X178464490Y-63066510D01*
X211853897Y-63067018D01*
G37*
%TD.AperFunction*%
%TA.AperFunction,Conductor*%
G36*
X199540209Y-107792681D02*
G01*
X199561882Y-107844893D01*
X199563967Y-109210011D01*
X199563993Y-109226894D01*
X199542399Y-109279253D01*
X199490106Y-109301007D01*
X199055643Y-109301007D01*
X199003317Y-109279333D01*
X198636665Y-108912681D01*
X198614991Y-108860355D01*
X198614991Y-108241161D01*
X198636066Y-108189441D01*
X199023218Y-107793285D01*
X199075292Y-107771012D01*
X199076142Y-107771007D01*
X199487883Y-107771007D01*
X199540209Y-107792681D01*
G37*
%TD.AperFunction*%
%TD*%
M02*
