%TF.GenerationSoftware,KiCad,Pcbnew,8.0.3*%
%TF.CreationDate,2026-06-15T17:10:43-07:00*%
%TF.ProjectId,Panelize_TestBoard_Final,50616e65-6c69-47a6-955f-54657374426f,rev?*%
%TF.SameCoordinates,Original*%
%TF.FileFunction,Profile,NP*%
%FSLAX46Y46*%
G04 Gerber Fmt 4.6, Leading zero omitted, Abs format (unit mm)*
G04 Created by KiCad (PCBNEW 8.0.3) date 2026-06-15 17:10:43*
%MOMM*%
%LPD*%
G01*
G04 APERTURE LIST*
%TA.AperFunction,Profile*%
%ADD10C,0.050000*%
%TD*%
G04 APERTURE END LIST*
D10*
X115577472Y-62775488D02*
X161177472Y-62775488D01*
X211659991Y-107276007D02*
G75*
G02*
X207859991Y-107276007I-1900000J0D01*
G01*
X207859991Y-107276007D02*
G75*
G02*
X211659991Y-107276007I1900000J0D01*
G01*
X184459991Y-77276007D02*
G75*
G02*
X180659991Y-77276007I-1900000J0D01*
G01*
X180659991Y-77276007D02*
G75*
G02*
X184459991Y-77276007I1900000J0D01*
G01*
X162200000Y-101486000D02*
X162177472Y-116275488D01*
X149245000Y-111506000D02*
X158345000Y-111506000D01*
X165220004Y-72556843D02*
X165220095Y-80735588D01*
X162180000Y-72576000D02*
X162180000Y-80766006D01*
X172659991Y-77276007D02*
G75*
G02*
X168859991Y-77276007I-1900000J0D01*
G01*
X168859991Y-77276007D02*
G75*
G02*
X172659991Y-77276007I1900000J0D01*
G01*
X162180000Y-95556000D02*
X162180000Y-86705977D01*
X169089991Y-68636007D02*
X169089991Y-62866007D01*
X165220396Y-86765874D02*
X165260679Y-95485860D01*
X119575000Y-72866000D02*
G75*
G02*
X115775000Y-72866000I-1900000J0D01*
G01*
X115775000Y-72866000D02*
G75*
G02*
X119575000Y-72866000I1900000J0D01*
G01*
X126475000Y-110866000D02*
G75*
G02*
X122675000Y-110866000I-1900000J0D01*
G01*
X122675000Y-110866000D02*
G75*
G02*
X126475000Y-110866000I1900000J0D01*
G01*
X211159991Y-77776007D02*
G75*
G02*
X207359991Y-77776007I-1900000J0D01*
G01*
X207359991Y-77776007D02*
G75*
G02*
X211159991Y-77776007I1900000J0D01*
G01*
X162180001Y-72576000D02*
G75*
G02*
X165220004Y-72556843I1519999J10000D01*
G01*
X162177472Y-63775488D02*
X162177472Y-66556028D01*
X165257528Y-116366512D02*
X165239999Y-101526000D01*
X161177472Y-62775488D02*
G75*
G02*
X162177512Y-63775488I28J-1000012D01*
G01*
X178189991Y-68636007D02*
X169089991Y-68636007D01*
X143675000Y-66966000D02*
G75*
G02*
X139875000Y-66966000I-1900000J0D01*
G01*
X139875000Y-66966000D02*
G75*
G02*
X143675000Y-66966000I1900000J0D01*
G01*
X211857519Y-62866519D02*
G75*
G02*
X212857581Y-63866519I-19J-1000081D01*
G01*
X169089991Y-62866007D02*
X166257519Y-62866519D01*
X211857519Y-117366519D02*
X166257519Y-117366519D01*
X115577472Y-117275488D02*
G75*
G02*
X114577512Y-116275488I28J999988D01*
G01*
X114577472Y-63775488D02*
G75*
G02*
X115577472Y-62775472I999928J88D01*
G01*
X165257519Y-63866519D02*
G75*
G02*
X166257519Y-62866519I1000081J-81D01*
G01*
X162180001Y-86705977D02*
G75*
G02*
X165220396Y-86765874I1519999J-40023D01*
G01*
X120075000Y-102366000D02*
G75*
G02*
X116275000Y-102366000I-1900000J0D01*
G01*
X116275000Y-102366000D02*
G75*
G02*
X120075000Y-102366000I1900000J0D01*
G01*
X178189991Y-62866007D02*
X178189991Y-68636007D01*
X204759991Y-69276007D02*
G75*
G02*
X200959991Y-69276007I-1900000J0D01*
G01*
X200959991Y-69276007D02*
G75*
G02*
X204759991Y-69276007I1900000J0D01*
G01*
X165220095Y-80735588D02*
G75*
G02*
X162180001Y-80766006I-1520095J-10412D01*
G01*
X158345000Y-111506000D02*
X158345000Y-117276000D01*
X165260679Y-95485860D02*
G75*
G02*
X162180001Y-95556000I-1540679J-20140D01*
G01*
X165257528Y-63866512D02*
X165222527Y-66556049D01*
X162177472Y-116275488D02*
G75*
G02*
X161177472Y-117275472I-1000072J88D01*
G01*
X212857519Y-116366519D02*
G75*
G02*
X211857519Y-117366519I-999919J-81D01*
G01*
X158575000Y-102866000D02*
G75*
G02*
X154775000Y-102866000I-1900000J0D01*
G01*
X154775000Y-102866000D02*
G75*
G02*
X158575000Y-102866000I1900000J0D01*
G01*
X165222527Y-66556049D02*
G75*
G02*
X162177473Y-66556028I-1522527J-9951D01*
G01*
X146775000Y-102866000D02*
G75*
G02*
X142975000Y-102866000I-1900000J0D01*
G01*
X142975000Y-102866000D02*
G75*
G02*
X146775000Y-102866000I1900000J0D01*
G01*
X114577472Y-116275488D02*
X114577472Y-63775488D01*
X178189991Y-62866007D02*
X211857519Y-62866519D01*
X212857519Y-63866519D02*
X212857519Y-116366519D01*
X162200001Y-101486000D02*
G75*
G02*
X165239999Y-101526000I1519999J-20000D01*
G01*
X187559991Y-113176007D02*
G75*
G02*
X183759991Y-113176007I-1900000J0D01*
G01*
X183759991Y-113176007D02*
G75*
G02*
X187559991Y-113176007I1900000J0D01*
G01*
X166257519Y-117366519D02*
G75*
G02*
X165257581Y-116366519I-19J999919D01*
G01*
X149245000Y-117276000D02*
X115577472Y-117275488D01*
X149245000Y-117276000D02*
X149245000Y-111506000D01*
X158345000Y-117276000D02*
X161177472Y-117275488D01*
M02*
