%TF.GenerationSoftware,KiCad,Pcbnew,8.0.3*%
%TF.CreationDate,2026-05-26T23:36:27-07:00*%
%TF.ProjectId,24p_bw_3p5,3234705f-6277-45f3-9370-352e6b696361,rev?*%
%TF.SameCoordinates,Original*%
%TF.FileFunction,Soldermask,Top*%
%TF.FilePolarity,Negative*%
%FSLAX46Y46*%
G04 Gerber Fmt 4.6, Leading zero omitted, Abs format (unit mm)*
G04 Created by KiCad (PCBNEW 8.0.3) date 2026-05-26 23:36:27*
%MOMM*%
%LPD*%
G01*
G04 APERTURE LIST*
G04 Aperture macros list*
%AMRoundRect*
0 Rectangle with rounded corners*
0 $1 Rounding radius*
0 $2 $3 $4 $5 $6 $7 $8 $9 X,Y pos of 4 corners*
0 Add a 4 corners polygon primitive as box body*
4,1,4,$2,$3,$4,$5,$6,$7,$8,$9,$2,$3,0*
0 Add four circle primitives for the rounded corners*
1,1,$1+$1,$2,$3*
1,1,$1+$1,$4,$5*
1,1,$1+$1,$6,$7*
1,1,$1+$1,$8,$9*
0 Add four rect primitives between the rounded corners*
20,1,$1+$1,$2,$3,$4,$5,0*
20,1,$1+$1,$4,$5,$6,$7,0*
20,1,$1+$1,$6,$7,$8,$9,0*
20,1,$1+$1,$8,$9,$2,$3,0*%
%AMRotRect*
0 Rectangle, with rotation*
0 The origin of the aperture is its center*
0 $1 length*
0 $2 width*
0 $3 Rotation angle, in degrees counterclockwise*
0 Add horizontal line*
21,1,$1,$2,0,0,$3*%
%AMFreePoly0*
4,1,153,0.406581,1.254743,0.408810,1.254000,0.410000,1.254000,0.411581,1.253743,0.413810,1.253000,0.415000,1.253000,0.416581,1.252743,0.419581,1.251743,0.420236,1.251472,0.421920,1.250630,0.424581,1.249743,0.426536,1.248536,0.427964,1.247108,0.429236,1.246472,0.430536,1.245536,0.431964,1.244108,0.433236,1.243472,0.434536,1.242536,0.442536,1.234536,0.443472,1.233236,
0.444108,1.231964,0.445536,1.230536,0.446472,1.229236,0.447108,1.227964,0.448536,1.226536,0.449743,1.224581,0.450630,1.221920,0.451472,1.220236,0.451743,1.219581,0.452743,1.216581,0.453000,1.215000,0.453000,1.213810,0.453743,1.211581,0.454000,1.210000,0.454000,1.208810,0.454743,1.206581,0.455000,1.205000,0.455000,-0.205000,0.454743,-0.206581,0.454000,-0.208810,
0.454000,-0.210000,0.453743,-0.211581,0.453000,-0.213810,0.453000,-0.215000,0.452743,-0.216581,0.451743,-0.219581,0.451472,-0.220236,0.450630,-0.221920,0.449743,-0.224581,0.448536,-0.226536,0.447108,-0.227964,0.446472,-0.229236,0.445536,-0.230536,0.444108,-0.231964,0.443472,-0.233236,0.442536,-0.234536,0.434536,-0.242536,0.433236,-0.243472,0.431964,-0.244108,0.430536,-0.245536,
0.429236,-0.246472,0.427964,-0.247108,0.426536,-0.248536,0.424581,-0.249743,0.421920,-0.250630,0.420236,-0.251472,0.419581,-0.251743,0.416581,-0.252743,0.415000,-0.253000,0.413810,-0.253000,0.411581,-0.253743,0.410000,-0.254000,0.408810,-0.254000,0.406581,-0.254743,0.405000,-0.255000,-0.405000,-0.255000,-0.406581,-0.254743,-0.408810,-0.254000,-0.410000,-0.254000,-0.411581,-0.253743,
-0.413810,-0.253000,-0.415000,-0.253000,-0.416581,-0.252743,-0.419581,-0.251743,-0.420236,-0.251472,-0.421920,-0.250630,-0.424581,-0.249743,-0.426536,-0.248536,-0.427964,-0.247108,-0.429236,-0.246472,-0.430536,-0.245536,-0.431964,-0.244108,-0.433236,-0.243472,-0.434536,-0.242536,-0.442536,-0.234536,-0.443472,-0.233236,-0.444108,-0.231964,-0.445536,-0.230536,-0.446472,-0.229236,-0.447108,-0.227964,
-0.448536,-0.226536,-0.449743,-0.224581,-0.450630,-0.221920,-0.451472,-0.220236,-0.451743,-0.219581,-0.452743,-0.216581,-0.453000,-0.215000,-0.453000,-0.213810,-0.453743,-0.211581,-0.454000,-0.210000,-0.454000,-0.208810,-0.454743,-0.206581,-0.455000,-0.205000,-0.455000,1.205000,-0.454743,1.206581,-0.454000,1.208810,-0.454000,1.210000,-0.453743,1.211581,-0.453000,1.213810,-0.453000,1.215000,
-0.452743,1.216581,-0.451743,1.219581,-0.451472,1.220236,-0.450630,1.221920,-0.449743,1.224581,-0.448536,1.226536,-0.447108,1.227964,-0.446472,1.229236,-0.445536,1.230536,-0.444108,1.231964,-0.443472,1.233236,-0.442536,1.234536,-0.434536,1.242536,-0.433236,1.243472,-0.431964,1.244108,-0.430536,1.245536,-0.429236,1.246472,-0.427964,1.247108,-0.426536,1.248536,-0.424581,1.249743,
-0.421920,1.250630,-0.420236,1.251472,-0.419581,1.251743,-0.416581,1.252743,-0.415000,1.253000,-0.413810,1.253000,-0.411581,1.253743,-0.410000,1.254000,-0.408810,1.254000,-0.406581,1.254743,-0.405000,1.255000,0.405000,1.255000,0.406581,1.254743,0.406581,1.254743,$1*%
%AMFreePoly1*
4,1,5,0.110000,-0.125000,-0.110000,-0.125000,-0.110000,0.125000,0.360000,0.125000,0.110000,-0.125000,0.110000,-0.125000,$1*%
%AMFreePoly2*
4,1,6,0.290000,-0.055000,0.290000,-0.125000,-0.110000,-0.125000,-0.110000,0.125000,0.110000,0.125000,0.290000,-0.055000,0.290000,-0.055000,$1*%
%AMFreePoly3*
4,1,7,0.110000,-0.125000,-0.110000,-0.125000,-0.290000,-0.125000,-0.290000,-0.055000,-0.110000,0.125000,0.110000,0.125000,0.110000,-0.125000,0.110000,-0.125000,$1*%
%AMFreePoly4*
4,1,6,0.110000,-0.125000,-0.110000,-0.125000,-0.290000,0.055000,-0.290000,0.125000,0.110000,0.125000,0.110000,-0.125000,0.110000,-0.125000,$1*%
%AMFreePoly5*
4,1,18,-0.125000,0.225000,-0.123097,0.234567,-0.117678,0.242678,-0.109567,0.248097,-0.100000,0.250000,0.062500,0.250000,0.125000,0.187500,0.125000,-0.225000,0.123097,-0.234567,0.117678,-0.242678,0.109567,-0.248097,0.100000,-0.250000,-0.100000,-0.250000,-0.109567,-0.248097,-0.117678,-0.242678,-0.123097,-0.234567,-0.125000,-0.225000,-0.125000,0.225000,-0.125000,0.225000,$1*%
G04 Aperture macros list end*
%ADD10C,0.010000*%
%ADD11FreePoly0,270.000000*%
%ADD12RoundRect,0.140000X-0.170000X0.140000X-0.170000X-0.140000X0.170000X-0.140000X0.170000X0.140000X0*%
%ADD13RoundRect,0.135000X0.185000X-0.135000X0.185000X0.135000X-0.185000X0.135000X-0.185000X-0.135000X0*%
%ADD14RoundRect,0.135000X-0.135000X-0.185000X0.135000X-0.185000X0.135000X0.185000X-0.135000X0.185000X0*%
%ADD15RoundRect,0.140000X0.170000X-0.140000X0.170000X0.140000X-0.170000X0.140000X-0.170000X-0.140000X0*%
%ADD16RoundRect,0.100000X0.100000X-0.130000X0.100000X0.130000X-0.100000X0.130000X-0.100000X-0.130000X0*%
%ADD17RoundRect,0.100000X-0.100000X0.130000X-0.100000X-0.130000X0.100000X-0.130000X0.100000X0.130000X0*%
%ADD18RoundRect,0.112500X0.112500X-0.187500X0.112500X0.187500X-0.112500X0.187500X-0.112500X-0.187500X0*%
%ADD19RoundRect,0.135000X-0.185000X0.135000X-0.185000X-0.135000X0.185000X-0.135000X0.185000X0.135000X0*%
%ADD20RoundRect,0.112500X0.112500X0.237500X-0.112500X0.237500X-0.112500X-0.237500X0.112500X-0.237500X0*%
%ADD21RoundRect,0.053000X0.454000X0.159000X-0.454000X0.159000X-0.454000X-0.159000X0.454000X-0.159000X0*%
%ADD22RoundRect,0.053000X0.159000X0.454000X-0.159000X0.454000X-0.159000X-0.454000X0.159000X-0.454000X0*%
%ADD23RoundRect,0.102000X2.300000X2.300000X-2.300000X2.300000X-2.300000X-2.300000X2.300000X-2.300000X0*%
%ADD24RoundRect,0.140000X-0.140000X-0.170000X0.140000X-0.170000X0.140000X0.170000X-0.140000X0.170000X0*%
%ADD25R,1.700000X1.700000*%
%ADD26O,1.700000X1.700000*%
%ADD27RoundRect,0.150000X0.512500X0.150000X-0.512500X0.150000X-0.512500X-0.150000X0.512500X-0.150000X0*%
%ADD28RoundRect,0.100000X0.130000X0.100000X-0.130000X0.100000X-0.130000X-0.100000X0.130000X-0.100000X0*%
%ADD29FreePoly1,0.000000*%
%ADD30FreePoly2,0.000000*%
%ADD31FreePoly3,0.000000*%
%ADD32FreePoly4,0.000000*%
%ADD33RotRect,0.480000X0.480000X45.000000*%
%ADD34RoundRect,0.102000X0.150000X0.400000X-0.150000X0.400000X-0.150000X-0.400000X0.150000X-0.400000X0*%
%ADD35RoundRect,0.102000X0.200000X0.400000X-0.200000X0.400000X-0.200000X-0.400000X0.200000X-0.400000X0*%
%ADD36RoundRect,0.135000X0.135000X0.185000X-0.135000X0.185000X-0.135000X-0.185000X0.135000X-0.185000X0*%
%ADD37R,0.800000X0.900000*%
%ADD38RoundRect,0.112500X-0.187500X-0.112500X0.187500X-0.112500X0.187500X0.112500X-0.187500X0.112500X0*%
%ADD39RoundRect,0.037500X0.212500X-0.087500X0.212500X0.087500X-0.212500X0.087500X-0.212500X-0.087500X0*%
%ADD40FreePoly5,90.000000*%
%ADD41RoundRect,0.100000X-0.130000X-0.100000X0.130000X-0.100000X0.130000X0.100000X-0.130000X0.100000X0*%
%ADD42RoundRect,0.218750X0.218750X0.256250X-0.218750X0.256250X-0.218750X-0.256250X0.218750X-0.256250X0*%
%ADD43R,0.600000X0.850000*%
%ADD44R,0.700000X1.000000*%
%ADD45R,1.400000X2.700000*%
%ADD46RoundRect,0.070000X-0.530000X-0.280000X0.530000X-0.280000X0.530000X0.280000X-0.530000X0.280000X0*%
%ADD47RoundRect,0.080000X-0.520000X-0.320000X0.520000X-0.320000X0.520000X0.320000X-0.520000X0.320000X0*%
%ADD48RoundRect,0.090000X-0.510000X-0.360000X0.510000X-0.360000X0.510000X0.360000X-0.510000X0.360000X0*%
%ADD49O,1.700000X1.000000*%
%ADD50O,2.000000X1.000000*%
G04 APERTURE END LIST*
D10*
%TO.C,U2*%
X129898000Y-91481000D02*
X129900000Y-91481000D01*
X129903000Y-91482000D01*
X129905000Y-91482000D01*
X129908000Y-91483000D01*
X129910000Y-91484000D01*
X129913000Y-91485000D01*
X129915000Y-91487000D01*
X129917000Y-91488000D01*
X129919000Y-91490000D01*
X129921000Y-91491000D01*
X129923000Y-91493000D01*
X129925000Y-91495000D01*
X129927000Y-91497000D01*
X129929000Y-91499000D01*
X129930000Y-91501000D01*
X129932000Y-91503000D01*
X129933000Y-91505000D01*
X129935000Y-91507000D01*
X129936000Y-91510000D01*
X129937000Y-91512000D01*
X129938000Y-91515000D01*
X129938000Y-91517000D01*
X129939000Y-91520000D01*
X129939000Y-91522000D01*
X129940000Y-91525000D01*
X129940000Y-91527000D01*
X129940000Y-91530000D01*
X129940000Y-92030000D01*
X129940000Y-92033000D01*
X129940000Y-92035000D01*
X129939000Y-92038000D01*
X129939000Y-92040000D01*
X129938000Y-92043000D01*
X129938000Y-92045000D01*
X129937000Y-92048000D01*
X129936000Y-92050000D01*
X129935000Y-92053000D01*
X129933000Y-92055000D01*
X129932000Y-92057000D01*
X129930000Y-92059000D01*
X129929000Y-92061000D01*
X129927000Y-92063000D01*
X129925000Y-92065000D01*
X129923000Y-92067000D01*
X129921000Y-92069000D01*
X129919000Y-92070000D01*
X129917000Y-92072000D01*
X129915000Y-92073000D01*
X129913000Y-92075000D01*
X129910000Y-92076000D01*
X129908000Y-92077000D01*
X129905000Y-92078000D01*
X129903000Y-92078000D01*
X129900000Y-92079000D01*
X129898000Y-92079000D01*
X129895000Y-92080000D01*
X129893000Y-92080000D01*
X129890000Y-92080000D01*
X129690000Y-92080000D01*
X129687000Y-92080000D01*
X129685000Y-92080000D01*
X129682000Y-92079000D01*
X129680000Y-92079000D01*
X129677000Y-92078000D01*
X129675000Y-92078000D01*
X129672000Y-92077000D01*
X129670000Y-92076000D01*
X129667000Y-92075000D01*
X129665000Y-92073000D01*
X129663000Y-92072000D01*
X129661000Y-92070000D01*
X129659000Y-92069000D01*
X129657000Y-92067000D01*
X129655000Y-92065000D01*
X129653000Y-92063000D01*
X129651000Y-92061000D01*
X129650000Y-92059000D01*
X129648000Y-92057000D01*
X129647000Y-92055000D01*
X129645000Y-92053000D01*
X129644000Y-92050000D01*
X129643000Y-92048000D01*
X129642000Y-92045000D01*
X129642000Y-92043000D01*
X129641000Y-92040000D01*
X129641000Y-92038000D01*
X129640000Y-92035000D01*
X129640000Y-92033000D01*
X129640000Y-92030000D01*
X129640000Y-91530000D01*
X129640000Y-91527000D01*
X129640000Y-91525000D01*
X129641000Y-91522000D01*
X129641000Y-91520000D01*
X129642000Y-91517000D01*
X129642000Y-91515000D01*
X129643000Y-91512000D01*
X129644000Y-91510000D01*
X129645000Y-91507000D01*
X129647000Y-91505000D01*
X129648000Y-91503000D01*
X129650000Y-91501000D01*
X129651000Y-91499000D01*
X129653000Y-91497000D01*
X129655000Y-91495000D01*
X129657000Y-91493000D01*
X129659000Y-91491000D01*
X129661000Y-91490000D01*
X129663000Y-91488000D01*
X129665000Y-91487000D01*
X129667000Y-91485000D01*
X129670000Y-91484000D01*
X129672000Y-91483000D01*
X129675000Y-91482000D01*
X129677000Y-91482000D01*
X129680000Y-91481000D01*
X129682000Y-91481000D01*
X129685000Y-91480000D01*
X129687000Y-91480000D01*
X129690000Y-91480000D01*
X129890000Y-91480000D01*
X129893000Y-91480000D01*
X129895000Y-91480000D01*
X129898000Y-91481000D01*
G36*
X129898000Y-91481000D02*
G01*
X129900000Y-91481000D01*
X129903000Y-91482000D01*
X129905000Y-91482000D01*
X129908000Y-91483000D01*
X129910000Y-91484000D01*
X129913000Y-91485000D01*
X129915000Y-91487000D01*
X129917000Y-91488000D01*
X129919000Y-91490000D01*
X129921000Y-91491000D01*
X129923000Y-91493000D01*
X129925000Y-91495000D01*
X129927000Y-91497000D01*
X129929000Y-91499000D01*
X129930000Y-91501000D01*
X129932000Y-91503000D01*
X129933000Y-91505000D01*
X129935000Y-91507000D01*
X129936000Y-91510000D01*
X129937000Y-91512000D01*
X129938000Y-91515000D01*
X129938000Y-91517000D01*
X129939000Y-91520000D01*
X129939000Y-91522000D01*
X129940000Y-91525000D01*
X129940000Y-91527000D01*
X129940000Y-91530000D01*
X129940000Y-92030000D01*
X129940000Y-92033000D01*
X129940000Y-92035000D01*
X129939000Y-92038000D01*
X129939000Y-92040000D01*
X129938000Y-92043000D01*
X129938000Y-92045000D01*
X129937000Y-92048000D01*
X129936000Y-92050000D01*
X129935000Y-92053000D01*
X129933000Y-92055000D01*
X129932000Y-92057000D01*
X129930000Y-92059000D01*
X129929000Y-92061000D01*
X129927000Y-92063000D01*
X129925000Y-92065000D01*
X129923000Y-92067000D01*
X129921000Y-92069000D01*
X129919000Y-92070000D01*
X129917000Y-92072000D01*
X129915000Y-92073000D01*
X129913000Y-92075000D01*
X129910000Y-92076000D01*
X129908000Y-92077000D01*
X129905000Y-92078000D01*
X129903000Y-92078000D01*
X129900000Y-92079000D01*
X129898000Y-92079000D01*
X129895000Y-92080000D01*
X129893000Y-92080000D01*
X129890000Y-92080000D01*
X129690000Y-92080000D01*
X129687000Y-92080000D01*
X129685000Y-92080000D01*
X129682000Y-92079000D01*
X129680000Y-92079000D01*
X129677000Y-92078000D01*
X129675000Y-92078000D01*
X129672000Y-92077000D01*
X129670000Y-92076000D01*
X129667000Y-92075000D01*
X129665000Y-92073000D01*
X129663000Y-92072000D01*
X129661000Y-92070000D01*
X129659000Y-92069000D01*
X129657000Y-92067000D01*
X129655000Y-92065000D01*
X129653000Y-92063000D01*
X129651000Y-92061000D01*
X129650000Y-92059000D01*
X129648000Y-92057000D01*
X129647000Y-92055000D01*
X129645000Y-92053000D01*
X129644000Y-92050000D01*
X129643000Y-92048000D01*
X129642000Y-92045000D01*
X129642000Y-92043000D01*
X129641000Y-92040000D01*
X129641000Y-92038000D01*
X129640000Y-92035000D01*
X129640000Y-92033000D01*
X129640000Y-92030000D01*
X129640000Y-91530000D01*
X129640000Y-91527000D01*
X129640000Y-91525000D01*
X129641000Y-91522000D01*
X129641000Y-91520000D01*
X129642000Y-91517000D01*
X129642000Y-91515000D01*
X129643000Y-91512000D01*
X129644000Y-91510000D01*
X129645000Y-91507000D01*
X129647000Y-91505000D01*
X129648000Y-91503000D01*
X129650000Y-91501000D01*
X129651000Y-91499000D01*
X129653000Y-91497000D01*
X129655000Y-91495000D01*
X129657000Y-91493000D01*
X129659000Y-91491000D01*
X129661000Y-91490000D01*
X129663000Y-91488000D01*
X129665000Y-91487000D01*
X129667000Y-91485000D01*
X129670000Y-91484000D01*
X129672000Y-91483000D01*
X129675000Y-91482000D01*
X129677000Y-91482000D01*
X129680000Y-91481000D01*
X129682000Y-91481000D01*
X129685000Y-91480000D01*
X129687000Y-91480000D01*
X129690000Y-91480000D01*
X129890000Y-91480000D01*
X129893000Y-91480000D01*
X129895000Y-91480000D01*
X129898000Y-91481000D01*
G37*
X129898000Y-93381000D02*
X129900000Y-93381000D01*
X129903000Y-93382000D01*
X129905000Y-93382000D01*
X129908000Y-93383000D01*
X129910000Y-93384000D01*
X129913000Y-93385000D01*
X129915000Y-93387000D01*
X129917000Y-93388000D01*
X129919000Y-93390000D01*
X129921000Y-93391000D01*
X129923000Y-93393000D01*
X129925000Y-93395000D01*
X129927000Y-93397000D01*
X129929000Y-93399000D01*
X129930000Y-93401000D01*
X129932000Y-93403000D01*
X129933000Y-93405000D01*
X129935000Y-93407000D01*
X129936000Y-93410000D01*
X129937000Y-93412000D01*
X129938000Y-93415000D01*
X129938000Y-93417000D01*
X129939000Y-93420000D01*
X129939000Y-93422000D01*
X129940000Y-93425000D01*
X129940000Y-93427000D01*
X129940000Y-93430000D01*
X129940000Y-93930000D01*
X129940000Y-93933000D01*
X129940000Y-93935000D01*
X129939000Y-93938000D01*
X129939000Y-93940000D01*
X129938000Y-93943000D01*
X129938000Y-93945000D01*
X129937000Y-93948000D01*
X129936000Y-93950000D01*
X129935000Y-93953000D01*
X129933000Y-93955000D01*
X129932000Y-93957000D01*
X129930000Y-93959000D01*
X129929000Y-93961000D01*
X129927000Y-93963000D01*
X129925000Y-93965000D01*
X129923000Y-93967000D01*
X129921000Y-93969000D01*
X129919000Y-93970000D01*
X129917000Y-93972000D01*
X129915000Y-93973000D01*
X129913000Y-93975000D01*
X129910000Y-93976000D01*
X129908000Y-93977000D01*
X129905000Y-93978000D01*
X129903000Y-93978000D01*
X129900000Y-93979000D01*
X129898000Y-93979000D01*
X129895000Y-93980000D01*
X129893000Y-93980000D01*
X129890000Y-93980000D01*
X129690000Y-93980000D01*
X129687000Y-93980000D01*
X129685000Y-93980000D01*
X129682000Y-93979000D01*
X129680000Y-93979000D01*
X129677000Y-93978000D01*
X129675000Y-93978000D01*
X129672000Y-93977000D01*
X129670000Y-93976000D01*
X129667000Y-93975000D01*
X129665000Y-93973000D01*
X129663000Y-93972000D01*
X129661000Y-93970000D01*
X129659000Y-93969000D01*
X129657000Y-93967000D01*
X129655000Y-93965000D01*
X129653000Y-93963000D01*
X129651000Y-93961000D01*
X129650000Y-93959000D01*
X129648000Y-93957000D01*
X129647000Y-93955000D01*
X129645000Y-93953000D01*
X129644000Y-93950000D01*
X129643000Y-93948000D01*
X129642000Y-93945000D01*
X129642000Y-93943000D01*
X129641000Y-93940000D01*
X129641000Y-93938000D01*
X129640000Y-93935000D01*
X129640000Y-93933000D01*
X129640000Y-93930000D01*
X129640000Y-93430000D01*
X129640000Y-93427000D01*
X129640000Y-93425000D01*
X129641000Y-93422000D01*
X129641000Y-93420000D01*
X129642000Y-93417000D01*
X129642000Y-93415000D01*
X129643000Y-93412000D01*
X129644000Y-93410000D01*
X129645000Y-93407000D01*
X129647000Y-93405000D01*
X129648000Y-93403000D01*
X129650000Y-93401000D01*
X129651000Y-93399000D01*
X129653000Y-93397000D01*
X129655000Y-93395000D01*
X129657000Y-93393000D01*
X129659000Y-93391000D01*
X129661000Y-93390000D01*
X129663000Y-93388000D01*
X129665000Y-93387000D01*
X129667000Y-93385000D01*
X129670000Y-93384000D01*
X129672000Y-93383000D01*
X129675000Y-93382000D01*
X129677000Y-93382000D01*
X129680000Y-93381000D01*
X129682000Y-93381000D01*
X129685000Y-93380000D01*
X129687000Y-93380000D01*
X129690000Y-93380000D01*
X129890000Y-93380000D01*
X129893000Y-93380000D01*
X129895000Y-93380000D01*
X129898000Y-93381000D01*
G36*
X129898000Y-93381000D02*
G01*
X129900000Y-93381000D01*
X129903000Y-93382000D01*
X129905000Y-93382000D01*
X129908000Y-93383000D01*
X129910000Y-93384000D01*
X129913000Y-93385000D01*
X129915000Y-93387000D01*
X129917000Y-93388000D01*
X129919000Y-93390000D01*
X129921000Y-93391000D01*
X129923000Y-93393000D01*
X129925000Y-93395000D01*
X129927000Y-93397000D01*
X129929000Y-93399000D01*
X129930000Y-93401000D01*
X129932000Y-93403000D01*
X129933000Y-93405000D01*
X129935000Y-93407000D01*
X129936000Y-93410000D01*
X129937000Y-93412000D01*
X129938000Y-93415000D01*
X129938000Y-93417000D01*
X129939000Y-93420000D01*
X129939000Y-93422000D01*
X129940000Y-93425000D01*
X129940000Y-93427000D01*
X129940000Y-93430000D01*
X129940000Y-93930000D01*
X129940000Y-93933000D01*
X129940000Y-93935000D01*
X129939000Y-93938000D01*
X129939000Y-93940000D01*
X129938000Y-93943000D01*
X129938000Y-93945000D01*
X129937000Y-93948000D01*
X129936000Y-93950000D01*
X129935000Y-93953000D01*
X129933000Y-93955000D01*
X129932000Y-93957000D01*
X129930000Y-93959000D01*
X129929000Y-93961000D01*
X129927000Y-93963000D01*
X129925000Y-93965000D01*
X129923000Y-93967000D01*
X129921000Y-93969000D01*
X129919000Y-93970000D01*
X129917000Y-93972000D01*
X129915000Y-93973000D01*
X129913000Y-93975000D01*
X129910000Y-93976000D01*
X129908000Y-93977000D01*
X129905000Y-93978000D01*
X129903000Y-93978000D01*
X129900000Y-93979000D01*
X129898000Y-93979000D01*
X129895000Y-93980000D01*
X129893000Y-93980000D01*
X129890000Y-93980000D01*
X129690000Y-93980000D01*
X129687000Y-93980000D01*
X129685000Y-93980000D01*
X129682000Y-93979000D01*
X129680000Y-93979000D01*
X129677000Y-93978000D01*
X129675000Y-93978000D01*
X129672000Y-93977000D01*
X129670000Y-93976000D01*
X129667000Y-93975000D01*
X129665000Y-93973000D01*
X129663000Y-93972000D01*
X129661000Y-93970000D01*
X129659000Y-93969000D01*
X129657000Y-93967000D01*
X129655000Y-93965000D01*
X129653000Y-93963000D01*
X129651000Y-93961000D01*
X129650000Y-93959000D01*
X129648000Y-93957000D01*
X129647000Y-93955000D01*
X129645000Y-93953000D01*
X129644000Y-93950000D01*
X129643000Y-93948000D01*
X129642000Y-93945000D01*
X129642000Y-93943000D01*
X129641000Y-93940000D01*
X129641000Y-93938000D01*
X129640000Y-93935000D01*
X129640000Y-93933000D01*
X129640000Y-93930000D01*
X129640000Y-93430000D01*
X129640000Y-93427000D01*
X129640000Y-93425000D01*
X129641000Y-93422000D01*
X129641000Y-93420000D01*
X129642000Y-93417000D01*
X129642000Y-93415000D01*
X129643000Y-93412000D01*
X129644000Y-93410000D01*
X129645000Y-93407000D01*
X129647000Y-93405000D01*
X129648000Y-93403000D01*
X129650000Y-93401000D01*
X129651000Y-93399000D01*
X129653000Y-93397000D01*
X129655000Y-93395000D01*
X129657000Y-93393000D01*
X129659000Y-93391000D01*
X129661000Y-93390000D01*
X129663000Y-93388000D01*
X129665000Y-93387000D01*
X129667000Y-93385000D01*
X129670000Y-93384000D01*
X129672000Y-93383000D01*
X129675000Y-93382000D01*
X129677000Y-93382000D01*
X129680000Y-93381000D01*
X129682000Y-93381000D01*
X129685000Y-93380000D01*
X129687000Y-93380000D01*
X129690000Y-93380000D01*
X129890000Y-93380000D01*
X129893000Y-93380000D01*
X129895000Y-93380000D01*
X129898000Y-93381000D01*
G37*
X130298000Y-91481000D02*
X130300000Y-91481000D01*
X130303000Y-91482000D01*
X130305000Y-91482000D01*
X130308000Y-91483000D01*
X130310000Y-91484000D01*
X130313000Y-91485000D01*
X130315000Y-91487000D01*
X130317000Y-91488000D01*
X130319000Y-91490000D01*
X130321000Y-91491000D01*
X130323000Y-91493000D01*
X130325000Y-91495000D01*
X130327000Y-91497000D01*
X130329000Y-91499000D01*
X130330000Y-91501000D01*
X130332000Y-91503000D01*
X130333000Y-91505000D01*
X130335000Y-91507000D01*
X130336000Y-91510000D01*
X130337000Y-91512000D01*
X130338000Y-91515000D01*
X130338000Y-91517000D01*
X130339000Y-91520000D01*
X130339000Y-91522000D01*
X130340000Y-91525000D01*
X130340000Y-91527000D01*
X130340000Y-91530000D01*
X130340000Y-92030000D01*
X130340000Y-92033000D01*
X130340000Y-92035000D01*
X130339000Y-92038000D01*
X130339000Y-92040000D01*
X130338000Y-92043000D01*
X130338000Y-92045000D01*
X130337000Y-92048000D01*
X130336000Y-92050000D01*
X130335000Y-92053000D01*
X130333000Y-92055000D01*
X130332000Y-92057000D01*
X130330000Y-92059000D01*
X130329000Y-92061000D01*
X130327000Y-92063000D01*
X130325000Y-92065000D01*
X130323000Y-92067000D01*
X130321000Y-92069000D01*
X130319000Y-92070000D01*
X130317000Y-92072000D01*
X130315000Y-92073000D01*
X130313000Y-92075000D01*
X130310000Y-92076000D01*
X130308000Y-92077000D01*
X130305000Y-92078000D01*
X130303000Y-92078000D01*
X130300000Y-92079000D01*
X130298000Y-92079000D01*
X130295000Y-92080000D01*
X130293000Y-92080000D01*
X130290000Y-92080000D01*
X130090000Y-92080000D01*
X130087000Y-92080000D01*
X130085000Y-92080000D01*
X130082000Y-92079000D01*
X130080000Y-92079000D01*
X130077000Y-92078000D01*
X130075000Y-92078000D01*
X130072000Y-92077000D01*
X130070000Y-92076000D01*
X130067000Y-92075000D01*
X130065000Y-92073000D01*
X130063000Y-92072000D01*
X130061000Y-92070000D01*
X130059000Y-92069000D01*
X130057000Y-92067000D01*
X130055000Y-92065000D01*
X130053000Y-92063000D01*
X130051000Y-92061000D01*
X130050000Y-92059000D01*
X130048000Y-92057000D01*
X130047000Y-92055000D01*
X130045000Y-92053000D01*
X130044000Y-92050000D01*
X130043000Y-92048000D01*
X130042000Y-92045000D01*
X130042000Y-92043000D01*
X130041000Y-92040000D01*
X130041000Y-92038000D01*
X130040000Y-92035000D01*
X130040000Y-92033000D01*
X130040000Y-92030000D01*
X130040000Y-91530000D01*
X130040000Y-91527000D01*
X130040000Y-91525000D01*
X130041000Y-91522000D01*
X130041000Y-91520000D01*
X130042000Y-91517000D01*
X130042000Y-91515000D01*
X130043000Y-91512000D01*
X130044000Y-91510000D01*
X130045000Y-91507000D01*
X130047000Y-91505000D01*
X130048000Y-91503000D01*
X130050000Y-91501000D01*
X130051000Y-91499000D01*
X130053000Y-91497000D01*
X130055000Y-91495000D01*
X130057000Y-91493000D01*
X130059000Y-91491000D01*
X130061000Y-91490000D01*
X130063000Y-91488000D01*
X130065000Y-91487000D01*
X130067000Y-91485000D01*
X130070000Y-91484000D01*
X130072000Y-91483000D01*
X130075000Y-91482000D01*
X130077000Y-91482000D01*
X130080000Y-91481000D01*
X130082000Y-91481000D01*
X130085000Y-91480000D01*
X130087000Y-91480000D01*
X130090000Y-91480000D01*
X130290000Y-91480000D01*
X130293000Y-91480000D01*
X130295000Y-91480000D01*
X130298000Y-91481000D01*
G36*
X130298000Y-91481000D02*
G01*
X130300000Y-91481000D01*
X130303000Y-91482000D01*
X130305000Y-91482000D01*
X130308000Y-91483000D01*
X130310000Y-91484000D01*
X130313000Y-91485000D01*
X130315000Y-91487000D01*
X130317000Y-91488000D01*
X130319000Y-91490000D01*
X130321000Y-91491000D01*
X130323000Y-91493000D01*
X130325000Y-91495000D01*
X130327000Y-91497000D01*
X130329000Y-91499000D01*
X130330000Y-91501000D01*
X130332000Y-91503000D01*
X130333000Y-91505000D01*
X130335000Y-91507000D01*
X130336000Y-91510000D01*
X130337000Y-91512000D01*
X130338000Y-91515000D01*
X130338000Y-91517000D01*
X130339000Y-91520000D01*
X130339000Y-91522000D01*
X130340000Y-91525000D01*
X130340000Y-91527000D01*
X130340000Y-91530000D01*
X130340000Y-92030000D01*
X130340000Y-92033000D01*
X130340000Y-92035000D01*
X130339000Y-92038000D01*
X130339000Y-92040000D01*
X130338000Y-92043000D01*
X130338000Y-92045000D01*
X130337000Y-92048000D01*
X130336000Y-92050000D01*
X130335000Y-92053000D01*
X130333000Y-92055000D01*
X130332000Y-92057000D01*
X130330000Y-92059000D01*
X130329000Y-92061000D01*
X130327000Y-92063000D01*
X130325000Y-92065000D01*
X130323000Y-92067000D01*
X130321000Y-92069000D01*
X130319000Y-92070000D01*
X130317000Y-92072000D01*
X130315000Y-92073000D01*
X130313000Y-92075000D01*
X130310000Y-92076000D01*
X130308000Y-92077000D01*
X130305000Y-92078000D01*
X130303000Y-92078000D01*
X130300000Y-92079000D01*
X130298000Y-92079000D01*
X130295000Y-92080000D01*
X130293000Y-92080000D01*
X130290000Y-92080000D01*
X130090000Y-92080000D01*
X130087000Y-92080000D01*
X130085000Y-92080000D01*
X130082000Y-92079000D01*
X130080000Y-92079000D01*
X130077000Y-92078000D01*
X130075000Y-92078000D01*
X130072000Y-92077000D01*
X130070000Y-92076000D01*
X130067000Y-92075000D01*
X130065000Y-92073000D01*
X130063000Y-92072000D01*
X130061000Y-92070000D01*
X130059000Y-92069000D01*
X130057000Y-92067000D01*
X130055000Y-92065000D01*
X130053000Y-92063000D01*
X130051000Y-92061000D01*
X130050000Y-92059000D01*
X130048000Y-92057000D01*
X130047000Y-92055000D01*
X130045000Y-92053000D01*
X130044000Y-92050000D01*
X130043000Y-92048000D01*
X130042000Y-92045000D01*
X130042000Y-92043000D01*
X130041000Y-92040000D01*
X130041000Y-92038000D01*
X130040000Y-92035000D01*
X130040000Y-92033000D01*
X130040000Y-92030000D01*
X130040000Y-91530000D01*
X130040000Y-91527000D01*
X130040000Y-91525000D01*
X130041000Y-91522000D01*
X130041000Y-91520000D01*
X130042000Y-91517000D01*
X130042000Y-91515000D01*
X130043000Y-91512000D01*
X130044000Y-91510000D01*
X130045000Y-91507000D01*
X130047000Y-91505000D01*
X130048000Y-91503000D01*
X130050000Y-91501000D01*
X130051000Y-91499000D01*
X130053000Y-91497000D01*
X130055000Y-91495000D01*
X130057000Y-91493000D01*
X130059000Y-91491000D01*
X130061000Y-91490000D01*
X130063000Y-91488000D01*
X130065000Y-91487000D01*
X130067000Y-91485000D01*
X130070000Y-91484000D01*
X130072000Y-91483000D01*
X130075000Y-91482000D01*
X130077000Y-91482000D01*
X130080000Y-91481000D01*
X130082000Y-91481000D01*
X130085000Y-91480000D01*
X130087000Y-91480000D01*
X130090000Y-91480000D01*
X130290000Y-91480000D01*
X130293000Y-91480000D01*
X130295000Y-91480000D01*
X130298000Y-91481000D01*
G37*
X130298000Y-93381000D02*
X130300000Y-93381000D01*
X130303000Y-93382000D01*
X130305000Y-93382000D01*
X130308000Y-93383000D01*
X130310000Y-93384000D01*
X130313000Y-93385000D01*
X130315000Y-93387000D01*
X130317000Y-93388000D01*
X130319000Y-93390000D01*
X130321000Y-93391000D01*
X130323000Y-93393000D01*
X130325000Y-93395000D01*
X130327000Y-93397000D01*
X130329000Y-93399000D01*
X130330000Y-93401000D01*
X130332000Y-93403000D01*
X130333000Y-93405000D01*
X130335000Y-93407000D01*
X130336000Y-93410000D01*
X130337000Y-93412000D01*
X130338000Y-93415000D01*
X130338000Y-93417000D01*
X130339000Y-93420000D01*
X130339000Y-93422000D01*
X130340000Y-93425000D01*
X130340000Y-93427000D01*
X130340000Y-93430000D01*
X130340000Y-93930000D01*
X130340000Y-93933000D01*
X130340000Y-93935000D01*
X130339000Y-93938000D01*
X130339000Y-93940000D01*
X130338000Y-93943000D01*
X130338000Y-93945000D01*
X130337000Y-93948000D01*
X130336000Y-93950000D01*
X130335000Y-93953000D01*
X130333000Y-93955000D01*
X130332000Y-93957000D01*
X130330000Y-93959000D01*
X130329000Y-93961000D01*
X130327000Y-93963000D01*
X130325000Y-93965000D01*
X130323000Y-93967000D01*
X130321000Y-93969000D01*
X130319000Y-93970000D01*
X130317000Y-93972000D01*
X130315000Y-93973000D01*
X130313000Y-93975000D01*
X130310000Y-93976000D01*
X130308000Y-93977000D01*
X130305000Y-93978000D01*
X130303000Y-93978000D01*
X130300000Y-93979000D01*
X130298000Y-93979000D01*
X130295000Y-93980000D01*
X130293000Y-93980000D01*
X130290000Y-93980000D01*
X130090000Y-93980000D01*
X130087000Y-93980000D01*
X130085000Y-93980000D01*
X130082000Y-93979000D01*
X130080000Y-93979000D01*
X130077000Y-93978000D01*
X130075000Y-93978000D01*
X130072000Y-93977000D01*
X130070000Y-93976000D01*
X130067000Y-93975000D01*
X130065000Y-93973000D01*
X130063000Y-93972000D01*
X130061000Y-93970000D01*
X130059000Y-93969000D01*
X130057000Y-93967000D01*
X130055000Y-93965000D01*
X130053000Y-93963000D01*
X130051000Y-93961000D01*
X130050000Y-93959000D01*
X130048000Y-93957000D01*
X130047000Y-93955000D01*
X130045000Y-93953000D01*
X130044000Y-93950000D01*
X130043000Y-93948000D01*
X130042000Y-93945000D01*
X130042000Y-93943000D01*
X130041000Y-93940000D01*
X130041000Y-93938000D01*
X130040000Y-93935000D01*
X130040000Y-93933000D01*
X130040000Y-93930000D01*
X130040000Y-93430000D01*
X130040000Y-93427000D01*
X130040000Y-93425000D01*
X130041000Y-93422000D01*
X130041000Y-93420000D01*
X130042000Y-93417000D01*
X130042000Y-93415000D01*
X130043000Y-93412000D01*
X130044000Y-93410000D01*
X130045000Y-93407000D01*
X130047000Y-93405000D01*
X130048000Y-93403000D01*
X130050000Y-93401000D01*
X130051000Y-93399000D01*
X130053000Y-93397000D01*
X130055000Y-93395000D01*
X130057000Y-93393000D01*
X130059000Y-93391000D01*
X130061000Y-93390000D01*
X130063000Y-93388000D01*
X130065000Y-93387000D01*
X130067000Y-93385000D01*
X130070000Y-93384000D01*
X130072000Y-93383000D01*
X130075000Y-93382000D01*
X130077000Y-93382000D01*
X130080000Y-93381000D01*
X130082000Y-93381000D01*
X130085000Y-93380000D01*
X130087000Y-93380000D01*
X130090000Y-93380000D01*
X130290000Y-93380000D01*
X130293000Y-93380000D01*
X130295000Y-93380000D01*
X130298000Y-93381000D01*
G36*
X130298000Y-93381000D02*
G01*
X130300000Y-93381000D01*
X130303000Y-93382000D01*
X130305000Y-93382000D01*
X130308000Y-93383000D01*
X130310000Y-93384000D01*
X130313000Y-93385000D01*
X130315000Y-93387000D01*
X130317000Y-93388000D01*
X130319000Y-93390000D01*
X130321000Y-93391000D01*
X130323000Y-93393000D01*
X130325000Y-93395000D01*
X130327000Y-93397000D01*
X130329000Y-93399000D01*
X130330000Y-93401000D01*
X130332000Y-93403000D01*
X130333000Y-93405000D01*
X130335000Y-93407000D01*
X130336000Y-93410000D01*
X130337000Y-93412000D01*
X130338000Y-93415000D01*
X130338000Y-93417000D01*
X130339000Y-93420000D01*
X130339000Y-93422000D01*
X130340000Y-93425000D01*
X130340000Y-93427000D01*
X130340000Y-93430000D01*
X130340000Y-93930000D01*
X130340000Y-93933000D01*
X130340000Y-93935000D01*
X130339000Y-93938000D01*
X130339000Y-93940000D01*
X130338000Y-93943000D01*
X130338000Y-93945000D01*
X130337000Y-93948000D01*
X130336000Y-93950000D01*
X130335000Y-93953000D01*
X130333000Y-93955000D01*
X130332000Y-93957000D01*
X130330000Y-93959000D01*
X130329000Y-93961000D01*
X130327000Y-93963000D01*
X130325000Y-93965000D01*
X130323000Y-93967000D01*
X130321000Y-93969000D01*
X130319000Y-93970000D01*
X130317000Y-93972000D01*
X130315000Y-93973000D01*
X130313000Y-93975000D01*
X130310000Y-93976000D01*
X130308000Y-93977000D01*
X130305000Y-93978000D01*
X130303000Y-93978000D01*
X130300000Y-93979000D01*
X130298000Y-93979000D01*
X130295000Y-93980000D01*
X130293000Y-93980000D01*
X130290000Y-93980000D01*
X130090000Y-93980000D01*
X130087000Y-93980000D01*
X130085000Y-93980000D01*
X130082000Y-93979000D01*
X130080000Y-93979000D01*
X130077000Y-93978000D01*
X130075000Y-93978000D01*
X130072000Y-93977000D01*
X130070000Y-93976000D01*
X130067000Y-93975000D01*
X130065000Y-93973000D01*
X130063000Y-93972000D01*
X130061000Y-93970000D01*
X130059000Y-93969000D01*
X130057000Y-93967000D01*
X130055000Y-93965000D01*
X130053000Y-93963000D01*
X130051000Y-93961000D01*
X130050000Y-93959000D01*
X130048000Y-93957000D01*
X130047000Y-93955000D01*
X130045000Y-93953000D01*
X130044000Y-93950000D01*
X130043000Y-93948000D01*
X130042000Y-93945000D01*
X130042000Y-93943000D01*
X130041000Y-93940000D01*
X130041000Y-93938000D01*
X130040000Y-93935000D01*
X130040000Y-93933000D01*
X130040000Y-93930000D01*
X130040000Y-93430000D01*
X130040000Y-93427000D01*
X130040000Y-93425000D01*
X130041000Y-93422000D01*
X130041000Y-93420000D01*
X130042000Y-93417000D01*
X130042000Y-93415000D01*
X130043000Y-93412000D01*
X130044000Y-93410000D01*
X130045000Y-93407000D01*
X130047000Y-93405000D01*
X130048000Y-93403000D01*
X130050000Y-93401000D01*
X130051000Y-93399000D01*
X130053000Y-93397000D01*
X130055000Y-93395000D01*
X130057000Y-93393000D01*
X130059000Y-93391000D01*
X130061000Y-93390000D01*
X130063000Y-93388000D01*
X130065000Y-93387000D01*
X130067000Y-93385000D01*
X130070000Y-93384000D01*
X130072000Y-93383000D01*
X130075000Y-93382000D01*
X130077000Y-93382000D01*
X130080000Y-93381000D01*
X130082000Y-93381000D01*
X130085000Y-93380000D01*
X130087000Y-93380000D01*
X130090000Y-93380000D01*
X130290000Y-93380000D01*
X130293000Y-93380000D01*
X130295000Y-93380000D01*
X130298000Y-93381000D01*
G37*
X130698000Y-91481000D02*
X130700000Y-91481000D01*
X130703000Y-91482000D01*
X130705000Y-91482000D01*
X130708000Y-91483000D01*
X130710000Y-91484000D01*
X130713000Y-91485000D01*
X130715000Y-91487000D01*
X130717000Y-91488000D01*
X130719000Y-91490000D01*
X130721000Y-91491000D01*
X130723000Y-91493000D01*
X130725000Y-91495000D01*
X130727000Y-91497000D01*
X130729000Y-91499000D01*
X130730000Y-91501000D01*
X130732000Y-91503000D01*
X130733000Y-91505000D01*
X130735000Y-91507000D01*
X130736000Y-91510000D01*
X130737000Y-91512000D01*
X130738000Y-91515000D01*
X130738000Y-91517000D01*
X130739000Y-91520000D01*
X130739000Y-91522000D01*
X130740000Y-91525000D01*
X130740000Y-91527000D01*
X130740000Y-91530000D01*
X130740000Y-92030000D01*
X130740000Y-92033000D01*
X130740000Y-92035000D01*
X130739000Y-92038000D01*
X130739000Y-92040000D01*
X130738000Y-92043000D01*
X130738000Y-92045000D01*
X130737000Y-92048000D01*
X130736000Y-92050000D01*
X130735000Y-92053000D01*
X130733000Y-92055000D01*
X130732000Y-92057000D01*
X130730000Y-92059000D01*
X130729000Y-92061000D01*
X130727000Y-92063000D01*
X130725000Y-92065000D01*
X130723000Y-92067000D01*
X130721000Y-92069000D01*
X130719000Y-92070000D01*
X130717000Y-92072000D01*
X130715000Y-92073000D01*
X130713000Y-92075000D01*
X130710000Y-92076000D01*
X130708000Y-92077000D01*
X130705000Y-92078000D01*
X130703000Y-92078000D01*
X130700000Y-92079000D01*
X130698000Y-92079000D01*
X130695000Y-92080000D01*
X130693000Y-92080000D01*
X130690000Y-92080000D01*
X130490000Y-92080000D01*
X130487000Y-92080000D01*
X130485000Y-92080000D01*
X130482000Y-92079000D01*
X130480000Y-92079000D01*
X130477000Y-92078000D01*
X130475000Y-92078000D01*
X130472000Y-92077000D01*
X130470000Y-92076000D01*
X130467000Y-92075000D01*
X130465000Y-92073000D01*
X130463000Y-92072000D01*
X130461000Y-92070000D01*
X130459000Y-92069000D01*
X130457000Y-92067000D01*
X130455000Y-92065000D01*
X130453000Y-92063000D01*
X130451000Y-92061000D01*
X130450000Y-92059000D01*
X130448000Y-92057000D01*
X130447000Y-92055000D01*
X130445000Y-92053000D01*
X130444000Y-92050000D01*
X130443000Y-92048000D01*
X130442000Y-92045000D01*
X130442000Y-92043000D01*
X130441000Y-92040000D01*
X130441000Y-92038000D01*
X130440000Y-92035000D01*
X130440000Y-92033000D01*
X130440000Y-92030000D01*
X130440000Y-91530000D01*
X130440000Y-91527000D01*
X130440000Y-91525000D01*
X130441000Y-91522000D01*
X130441000Y-91520000D01*
X130442000Y-91517000D01*
X130442000Y-91515000D01*
X130443000Y-91512000D01*
X130444000Y-91510000D01*
X130445000Y-91507000D01*
X130447000Y-91505000D01*
X130448000Y-91503000D01*
X130450000Y-91501000D01*
X130451000Y-91499000D01*
X130453000Y-91497000D01*
X130455000Y-91495000D01*
X130457000Y-91493000D01*
X130459000Y-91491000D01*
X130461000Y-91490000D01*
X130463000Y-91488000D01*
X130465000Y-91487000D01*
X130467000Y-91485000D01*
X130470000Y-91484000D01*
X130472000Y-91483000D01*
X130475000Y-91482000D01*
X130477000Y-91482000D01*
X130480000Y-91481000D01*
X130482000Y-91481000D01*
X130485000Y-91480000D01*
X130487000Y-91480000D01*
X130490000Y-91480000D01*
X130690000Y-91480000D01*
X130693000Y-91480000D01*
X130695000Y-91480000D01*
X130698000Y-91481000D01*
G36*
X130698000Y-91481000D02*
G01*
X130700000Y-91481000D01*
X130703000Y-91482000D01*
X130705000Y-91482000D01*
X130708000Y-91483000D01*
X130710000Y-91484000D01*
X130713000Y-91485000D01*
X130715000Y-91487000D01*
X130717000Y-91488000D01*
X130719000Y-91490000D01*
X130721000Y-91491000D01*
X130723000Y-91493000D01*
X130725000Y-91495000D01*
X130727000Y-91497000D01*
X130729000Y-91499000D01*
X130730000Y-91501000D01*
X130732000Y-91503000D01*
X130733000Y-91505000D01*
X130735000Y-91507000D01*
X130736000Y-91510000D01*
X130737000Y-91512000D01*
X130738000Y-91515000D01*
X130738000Y-91517000D01*
X130739000Y-91520000D01*
X130739000Y-91522000D01*
X130740000Y-91525000D01*
X130740000Y-91527000D01*
X130740000Y-91530000D01*
X130740000Y-92030000D01*
X130740000Y-92033000D01*
X130740000Y-92035000D01*
X130739000Y-92038000D01*
X130739000Y-92040000D01*
X130738000Y-92043000D01*
X130738000Y-92045000D01*
X130737000Y-92048000D01*
X130736000Y-92050000D01*
X130735000Y-92053000D01*
X130733000Y-92055000D01*
X130732000Y-92057000D01*
X130730000Y-92059000D01*
X130729000Y-92061000D01*
X130727000Y-92063000D01*
X130725000Y-92065000D01*
X130723000Y-92067000D01*
X130721000Y-92069000D01*
X130719000Y-92070000D01*
X130717000Y-92072000D01*
X130715000Y-92073000D01*
X130713000Y-92075000D01*
X130710000Y-92076000D01*
X130708000Y-92077000D01*
X130705000Y-92078000D01*
X130703000Y-92078000D01*
X130700000Y-92079000D01*
X130698000Y-92079000D01*
X130695000Y-92080000D01*
X130693000Y-92080000D01*
X130690000Y-92080000D01*
X130490000Y-92080000D01*
X130487000Y-92080000D01*
X130485000Y-92080000D01*
X130482000Y-92079000D01*
X130480000Y-92079000D01*
X130477000Y-92078000D01*
X130475000Y-92078000D01*
X130472000Y-92077000D01*
X130470000Y-92076000D01*
X130467000Y-92075000D01*
X130465000Y-92073000D01*
X130463000Y-92072000D01*
X130461000Y-92070000D01*
X130459000Y-92069000D01*
X130457000Y-92067000D01*
X130455000Y-92065000D01*
X130453000Y-92063000D01*
X130451000Y-92061000D01*
X130450000Y-92059000D01*
X130448000Y-92057000D01*
X130447000Y-92055000D01*
X130445000Y-92053000D01*
X130444000Y-92050000D01*
X130443000Y-92048000D01*
X130442000Y-92045000D01*
X130442000Y-92043000D01*
X130441000Y-92040000D01*
X130441000Y-92038000D01*
X130440000Y-92035000D01*
X130440000Y-92033000D01*
X130440000Y-92030000D01*
X130440000Y-91530000D01*
X130440000Y-91527000D01*
X130440000Y-91525000D01*
X130441000Y-91522000D01*
X130441000Y-91520000D01*
X130442000Y-91517000D01*
X130442000Y-91515000D01*
X130443000Y-91512000D01*
X130444000Y-91510000D01*
X130445000Y-91507000D01*
X130447000Y-91505000D01*
X130448000Y-91503000D01*
X130450000Y-91501000D01*
X130451000Y-91499000D01*
X130453000Y-91497000D01*
X130455000Y-91495000D01*
X130457000Y-91493000D01*
X130459000Y-91491000D01*
X130461000Y-91490000D01*
X130463000Y-91488000D01*
X130465000Y-91487000D01*
X130467000Y-91485000D01*
X130470000Y-91484000D01*
X130472000Y-91483000D01*
X130475000Y-91482000D01*
X130477000Y-91482000D01*
X130480000Y-91481000D01*
X130482000Y-91481000D01*
X130485000Y-91480000D01*
X130487000Y-91480000D01*
X130490000Y-91480000D01*
X130690000Y-91480000D01*
X130693000Y-91480000D01*
X130695000Y-91480000D01*
X130698000Y-91481000D01*
G37*
X130698000Y-93381000D02*
X130700000Y-93381000D01*
X130703000Y-93382000D01*
X130705000Y-93382000D01*
X130708000Y-93383000D01*
X130710000Y-93384000D01*
X130713000Y-93385000D01*
X130715000Y-93387000D01*
X130717000Y-93388000D01*
X130719000Y-93390000D01*
X130721000Y-93391000D01*
X130723000Y-93393000D01*
X130725000Y-93395000D01*
X130727000Y-93397000D01*
X130729000Y-93399000D01*
X130730000Y-93401000D01*
X130732000Y-93403000D01*
X130733000Y-93405000D01*
X130735000Y-93407000D01*
X130736000Y-93410000D01*
X130737000Y-93412000D01*
X130738000Y-93415000D01*
X130738000Y-93417000D01*
X130739000Y-93420000D01*
X130739000Y-93422000D01*
X130740000Y-93425000D01*
X130740000Y-93427000D01*
X130740000Y-93430000D01*
X130740000Y-93930000D01*
X130740000Y-93933000D01*
X130740000Y-93935000D01*
X130739000Y-93938000D01*
X130739000Y-93940000D01*
X130738000Y-93943000D01*
X130738000Y-93945000D01*
X130737000Y-93948000D01*
X130736000Y-93950000D01*
X130735000Y-93953000D01*
X130733000Y-93955000D01*
X130732000Y-93957000D01*
X130730000Y-93959000D01*
X130729000Y-93961000D01*
X130727000Y-93963000D01*
X130725000Y-93965000D01*
X130723000Y-93967000D01*
X130721000Y-93969000D01*
X130719000Y-93970000D01*
X130717000Y-93972000D01*
X130715000Y-93973000D01*
X130713000Y-93975000D01*
X130710000Y-93976000D01*
X130708000Y-93977000D01*
X130705000Y-93978000D01*
X130703000Y-93978000D01*
X130700000Y-93979000D01*
X130698000Y-93979000D01*
X130695000Y-93980000D01*
X130693000Y-93980000D01*
X130690000Y-93980000D01*
X130490000Y-93980000D01*
X130487000Y-93980000D01*
X130485000Y-93980000D01*
X130482000Y-93979000D01*
X130480000Y-93979000D01*
X130477000Y-93978000D01*
X130475000Y-93978000D01*
X130472000Y-93977000D01*
X130470000Y-93976000D01*
X130467000Y-93975000D01*
X130465000Y-93973000D01*
X130463000Y-93972000D01*
X130461000Y-93970000D01*
X130459000Y-93969000D01*
X130457000Y-93967000D01*
X130455000Y-93965000D01*
X130453000Y-93963000D01*
X130451000Y-93961000D01*
X130450000Y-93959000D01*
X130448000Y-93957000D01*
X130447000Y-93955000D01*
X130445000Y-93953000D01*
X130444000Y-93950000D01*
X130443000Y-93948000D01*
X130442000Y-93945000D01*
X130442000Y-93943000D01*
X130441000Y-93940000D01*
X130441000Y-93938000D01*
X130440000Y-93935000D01*
X130440000Y-93933000D01*
X130440000Y-93930000D01*
X130440000Y-93430000D01*
X130440000Y-93427000D01*
X130440000Y-93425000D01*
X130441000Y-93422000D01*
X130441000Y-93420000D01*
X130442000Y-93417000D01*
X130442000Y-93415000D01*
X130443000Y-93412000D01*
X130444000Y-93410000D01*
X130445000Y-93407000D01*
X130447000Y-93405000D01*
X130448000Y-93403000D01*
X130450000Y-93401000D01*
X130451000Y-93399000D01*
X130453000Y-93397000D01*
X130455000Y-93395000D01*
X130457000Y-93393000D01*
X130459000Y-93391000D01*
X130461000Y-93390000D01*
X130463000Y-93388000D01*
X130465000Y-93387000D01*
X130467000Y-93385000D01*
X130470000Y-93384000D01*
X130472000Y-93383000D01*
X130475000Y-93382000D01*
X130477000Y-93382000D01*
X130480000Y-93381000D01*
X130482000Y-93381000D01*
X130485000Y-93380000D01*
X130487000Y-93380000D01*
X130490000Y-93380000D01*
X130690000Y-93380000D01*
X130693000Y-93380000D01*
X130695000Y-93380000D01*
X130698000Y-93381000D01*
G36*
X130698000Y-93381000D02*
G01*
X130700000Y-93381000D01*
X130703000Y-93382000D01*
X130705000Y-93382000D01*
X130708000Y-93383000D01*
X130710000Y-93384000D01*
X130713000Y-93385000D01*
X130715000Y-93387000D01*
X130717000Y-93388000D01*
X130719000Y-93390000D01*
X130721000Y-93391000D01*
X130723000Y-93393000D01*
X130725000Y-93395000D01*
X130727000Y-93397000D01*
X130729000Y-93399000D01*
X130730000Y-93401000D01*
X130732000Y-93403000D01*
X130733000Y-93405000D01*
X130735000Y-93407000D01*
X130736000Y-93410000D01*
X130737000Y-93412000D01*
X130738000Y-93415000D01*
X130738000Y-93417000D01*
X130739000Y-93420000D01*
X130739000Y-93422000D01*
X130740000Y-93425000D01*
X130740000Y-93427000D01*
X130740000Y-93430000D01*
X130740000Y-93930000D01*
X130740000Y-93933000D01*
X130740000Y-93935000D01*
X130739000Y-93938000D01*
X130739000Y-93940000D01*
X130738000Y-93943000D01*
X130738000Y-93945000D01*
X130737000Y-93948000D01*
X130736000Y-93950000D01*
X130735000Y-93953000D01*
X130733000Y-93955000D01*
X130732000Y-93957000D01*
X130730000Y-93959000D01*
X130729000Y-93961000D01*
X130727000Y-93963000D01*
X130725000Y-93965000D01*
X130723000Y-93967000D01*
X130721000Y-93969000D01*
X130719000Y-93970000D01*
X130717000Y-93972000D01*
X130715000Y-93973000D01*
X130713000Y-93975000D01*
X130710000Y-93976000D01*
X130708000Y-93977000D01*
X130705000Y-93978000D01*
X130703000Y-93978000D01*
X130700000Y-93979000D01*
X130698000Y-93979000D01*
X130695000Y-93980000D01*
X130693000Y-93980000D01*
X130690000Y-93980000D01*
X130490000Y-93980000D01*
X130487000Y-93980000D01*
X130485000Y-93980000D01*
X130482000Y-93979000D01*
X130480000Y-93979000D01*
X130477000Y-93978000D01*
X130475000Y-93978000D01*
X130472000Y-93977000D01*
X130470000Y-93976000D01*
X130467000Y-93975000D01*
X130465000Y-93973000D01*
X130463000Y-93972000D01*
X130461000Y-93970000D01*
X130459000Y-93969000D01*
X130457000Y-93967000D01*
X130455000Y-93965000D01*
X130453000Y-93963000D01*
X130451000Y-93961000D01*
X130450000Y-93959000D01*
X130448000Y-93957000D01*
X130447000Y-93955000D01*
X130445000Y-93953000D01*
X130444000Y-93950000D01*
X130443000Y-93948000D01*
X130442000Y-93945000D01*
X130442000Y-93943000D01*
X130441000Y-93940000D01*
X130441000Y-93938000D01*
X130440000Y-93935000D01*
X130440000Y-93933000D01*
X130440000Y-93930000D01*
X130440000Y-93430000D01*
X130440000Y-93427000D01*
X130440000Y-93425000D01*
X130441000Y-93422000D01*
X130441000Y-93420000D01*
X130442000Y-93417000D01*
X130442000Y-93415000D01*
X130443000Y-93412000D01*
X130444000Y-93410000D01*
X130445000Y-93407000D01*
X130447000Y-93405000D01*
X130448000Y-93403000D01*
X130450000Y-93401000D01*
X130451000Y-93399000D01*
X130453000Y-93397000D01*
X130455000Y-93395000D01*
X130457000Y-93393000D01*
X130459000Y-93391000D01*
X130461000Y-93390000D01*
X130463000Y-93388000D01*
X130465000Y-93387000D01*
X130467000Y-93385000D01*
X130470000Y-93384000D01*
X130472000Y-93383000D01*
X130475000Y-93382000D01*
X130477000Y-93382000D01*
X130480000Y-93381000D01*
X130482000Y-93381000D01*
X130485000Y-93380000D01*
X130487000Y-93380000D01*
X130490000Y-93380000D01*
X130690000Y-93380000D01*
X130693000Y-93380000D01*
X130695000Y-93380000D01*
X130698000Y-93381000D01*
G37*
X131098000Y-91481000D02*
X131100000Y-91481000D01*
X131103000Y-91482000D01*
X131105000Y-91482000D01*
X131108000Y-91483000D01*
X131110000Y-91484000D01*
X131113000Y-91485000D01*
X131115000Y-91487000D01*
X131117000Y-91488000D01*
X131119000Y-91490000D01*
X131121000Y-91491000D01*
X131123000Y-91493000D01*
X131125000Y-91495000D01*
X131127000Y-91497000D01*
X131129000Y-91499000D01*
X131130000Y-91501000D01*
X131132000Y-91503000D01*
X131133000Y-91505000D01*
X131135000Y-91507000D01*
X131136000Y-91510000D01*
X131137000Y-91512000D01*
X131138000Y-91515000D01*
X131138000Y-91517000D01*
X131139000Y-91520000D01*
X131139000Y-91522000D01*
X131140000Y-91525000D01*
X131140000Y-91527000D01*
X131140000Y-91530000D01*
X131140000Y-92030000D01*
X131140000Y-92033000D01*
X131140000Y-92035000D01*
X131139000Y-92038000D01*
X131139000Y-92040000D01*
X131138000Y-92043000D01*
X131138000Y-92045000D01*
X131137000Y-92048000D01*
X131136000Y-92050000D01*
X131135000Y-92053000D01*
X131133000Y-92055000D01*
X131132000Y-92057000D01*
X131130000Y-92059000D01*
X131129000Y-92061000D01*
X131127000Y-92063000D01*
X131125000Y-92065000D01*
X131123000Y-92067000D01*
X131121000Y-92069000D01*
X131119000Y-92070000D01*
X131117000Y-92072000D01*
X131115000Y-92073000D01*
X131113000Y-92075000D01*
X131110000Y-92076000D01*
X131108000Y-92077000D01*
X131105000Y-92078000D01*
X131103000Y-92078000D01*
X131100000Y-92079000D01*
X131098000Y-92079000D01*
X131095000Y-92080000D01*
X131093000Y-92080000D01*
X131090000Y-92080000D01*
X130890000Y-92080000D01*
X130887000Y-92080000D01*
X130885000Y-92080000D01*
X130882000Y-92079000D01*
X130880000Y-92079000D01*
X130877000Y-92078000D01*
X130875000Y-92078000D01*
X130872000Y-92077000D01*
X130870000Y-92076000D01*
X130867000Y-92075000D01*
X130865000Y-92073000D01*
X130863000Y-92072000D01*
X130861000Y-92070000D01*
X130859000Y-92069000D01*
X130857000Y-92067000D01*
X130855000Y-92065000D01*
X130853000Y-92063000D01*
X130851000Y-92061000D01*
X130850000Y-92059000D01*
X130848000Y-92057000D01*
X130847000Y-92055000D01*
X130845000Y-92053000D01*
X130844000Y-92050000D01*
X130843000Y-92048000D01*
X130842000Y-92045000D01*
X130842000Y-92043000D01*
X130841000Y-92040000D01*
X130841000Y-92038000D01*
X130840000Y-92035000D01*
X130840000Y-92033000D01*
X130840000Y-92030000D01*
X130840000Y-91530000D01*
X130840000Y-91527000D01*
X130840000Y-91525000D01*
X130841000Y-91522000D01*
X130841000Y-91520000D01*
X130842000Y-91517000D01*
X130842000Y-91515000D01*
X130843000Y-91512000D01*
X130844000Y-91510000D01*
X130845000Y-91507000D01*
X130847000Y-91505000D01*
X130848000Y-91503000D01*
X130850000Y-91501000D01*
X130851000Y-91499000D01*
X130853000Y-91497000D01*
X130855000Y-91495000D01*
X130857000Y-91493000D01*
X130859000Y-91491000D01*
X130861000Y-91490000D01*
X130863000Y-91488000D01*
X130865000Y-91487000D01*
X130867000Y-91485000D01*
X130870000Y-91484000D01*
X130872000Y-91483000D01*
X130875000Y-91482000D01*
X130877000Y-91482000D01*
X130880000Y-91481000D01*
X130882000Y-91481000D01*
X130885000Y-91480000D01*
X130887000Y-91480000D01*
X130890000Y-91480000D01*
X131090000Y-91480000D01*
X131093000Y-91480000D01*
X131095000Y-91480000D01*
X131098000Y-91481000D01*
G36*
X131098000Y-91481000D02*
G01*
X131100000Y-91481000D01*
X131103000Y-91482000D01*
X131105000Y-91482000D01*
X131108000Y-91483000D01*
X131110000Y-91484000D01*
X131113000Y-91485000D01*
X131115000Y-91487000D01*
X131117000Y-91488000D01*
X131119000Y-91490000D01*
X131121000Y-91491000D01*
X131123000Y-91493000D01*
X131125000Y-91495000D01*
X131127000Y-91497000D01*
X131129000Y-91499000D01*
X131130000Y-91501000D01*
X131132000Y-91503000D01*
X131133000Y-91505000D01*
X131135000Y-91507000D01*
X131136000Y-91510000D01*
X131137000Y-91512000D01*
X131138000Y-91515000D01*
X131138000Y-91517000D01*
X131139000Y-91520000D01*
X131139000Y-91522000D01*
X131140000Y-91525000D01*
X131140000Y-91527000D01*
X131140000Y-91530000D01*
X131140000Y-92030000D01*
X131140000Y-92033000D01*
X131140000Y-92035000D01*
X131139000Y-92038000D01*
X131139000Y-92040000D01*
X131138000Y-92043000D01*
X131138000Y-92045000D01*
X131137000Y-92048000D01*
X131136000Y-92050000D01*
X131135000Y-92053000D01*
X131133000Y-92055000D01*
X131132000Y-92057000D01*
X131130000Y-92059000D01*
X131129000Y-92061000D01*
X131127000Y-92063000D01*
X131125000Y-92065000D01*
X131123000Y-92067000D01*
X131121000Y-92069000D01*
X131119000Y-92070000D01*
X131117000Y-92072000D01*
X131115000Y-92073000D01*
X131113000Y-92075000D01*
X131110000Y-92076000D01*
X131108000Y-92077000D01*
X131105000Y-92078000D01*
X131103000Y-92078000D01*
X131100000Y-92079000D01*
X131098000Y-92079000D01*
X131095000Y-92080000D01*
X131093000Y-92080000D01*
X131090000Y-92080000D01*
X130890000Y-92080000D01*
X130887000Y-92080000D01*
X130885000Y-92080000D01*
X130882000Y-92079000D01*
X130880000Y-92079000D01*
X130877000Y-92078000D01*
X130875000Y-92078000D01*
X130872000Y-92077000D01*
X130870000Y-92076000D01*
X130867000Y-92075000D01*
X130865000Y-92073000D01*
X130863000Y-92072000D01*
X130861000Y-92070000D01*
X130859000Y-92069000D01*
X130857000Y-92067000D01*
X130855000Y-92065000D01*
X130853000Y-92063000D01*
X130851000Y-92061000D01*
X130850000Y-92059000D01*
X130848000Y-92057000D01*
X130847000Y-92055000D01*
X130845000Y-92053000D01*
X130844000Y-92050000D01*
X130843000Y-92048000D01*
X130842000Y-92045000D01*
X130842000Y-92043000D01*
X130841000Y-92040000D01*
X130841000Y-92038000D01*
X130840000Y-92035000D01*
X130840000Y-92033000D01*
X130840000Y-92030000D01*
X130840000Y-91530000D01*
X130840000Y-91527000D01*
X130840000Y-91525000D01*
X130841000Y-91522000D01*
X130841000Y-91520000D01*
X130842000Y-91517000D01*
X130842000Y-91515000D01*
X130843000Y-91512000D01*
X130844000Y-91510000D01*
X130845000Y-91507000D01*
X130847000Y-91505000D01*
X130848000Y-91503000D01*
X130850000Y-91501000D01*
X130851000Y-91499000D01*
X130853000Y-91497000D01*
X130855000Y-91495000D01*
X130857000Y-91493000D01*
X130859000Y-91491000D01*
X130861000Y-91490000D01*
X130863000Y-91488000D01*
X130865000Y-91487000D01*
X130867000Y-91485000D01*
X130870000Y-91484000D01*
X130872000Y-91483000D01*
X130875000Y-91482000D01*
X130877000Y-91482000D01*
X130880000Y-91481000D01*
X130882000Y-91481000D01*
X130885000Y-91480000D01*
X130887000Y-91480000D01*
X130890000Y-91480000D01*
X131090000Y-91480000D01*
X131093000Y-91480000D01*
X131095000Y-91480000D01*
X131098000Y-91481000D01*
G37*
X131098000Y-93381000D02*
X131100000Y-93381000D01*
X131103000Y-93382000D01*
X131105000Y-93382000D01*
X131108000Y-93383000D01*
X131110000Y-93384000D01*
X131113000Y-93385000D01*
X131115000Y-93387000D01*
X131117000Y-93388000D01*
X131119000Y-93390000D01*
X131121000Y-93391000D01*
X131123000Y-93393000D01*
X131125000Y-93395000D01*
X131127000Y-93397000D01*
X131129000Y-93399000D01*
X131130000Y-93401000D01*
X131132000Y-93403000D01*
X131133000Y-93405000D01*
X131135000Y-93407000D01*
X131136000Y-93410000D01*
X131137000Y-93412000D01*
X131138000Y-93415000D01*
X131138000Y-93417000D01*
X131139000Y-93420000D01*
X131139000Y-93422000D01*
X131140000Y-93425000D01*
X131140000Y-93427000D01*
X131140000Y-93430000D01*
X131140000Y-93930000D01*
X131140000Y-93933000D01*
X131140000Y-93935000D01*
X131139000Y-93938000D01*
X131139000Y-93940000D01*
X131138000Y-93943000D01*
X131138000Y-93945000D01*
X131137000Y-93948000D01*
X131136000Y-93950000D01*
X131135000Y-93953000D01*
X131133000Y-93955000D01*
X131132000Y-93957000D01*
X131130000Y-93959000D01*
X131129000Y-93961000D01*
X131127000Y-93963000D01*
X131125000Y-93965000D01*
X131123000Y-93967000D01*
X131121000Y-93969000D01*
X131119000Y-93970000D01*
X131117000Y-93972000D01*
X131115000Y-93973000D01*
X131113000Y-93975000D01*
X131110000Y-93976000D01*
X131108000Y-93977000D01*
X131105000Y-93978000D01*
X131103000Y-93978000D01*
X131100000Y-93979000D01*
X131098000Y-93979000D01*
X131095000Y-93980000D01*
X131093000Y-93980000D01*
X131090000Y-93980000D01*
X130890000Y-93980000D01*
X130887000Y-93980000D01*
X130885000Y-93980000D01*
X130882000Y-93979000D01*
X130880000Y-93979000D01*
X130877000Y-93978000D01*
X130875000Y-93978000D01*
X130872000Y-93977000D01*
X130870000Y-93976000D01*
X130867000Y-93975000D01*
X130865000Y-93973000D01*
X130863000Y-93972000D01*
X130861000Y-93970000D01*
X130859000Y-93969000D01*
X130857000Y-93967000D01*
X130855000Y-93965000D01*
X130853000Y-93963000D01*
X130851000Y-93961000D01*
X130850000Y-93959000D01*
X130848000Y-93957000D01*
X130847000Y-93955000D01*
X130845000Y-93953000D01*
X130844000Y-93950000D01*
X130843000Y-93948000D01*
X130842000Y-93945000D01*
X130842000Y-93943000D01*
X130841000Y-93940000D01*
X130841000Y-93938000D01*
X130840000Y-93935000D01*
X130840000Y-93933000D01*
X130840000Y-93930000D01*
X130840000Y-93430000D01*
X130840000Y-93427000D01*
X130840000Y-93425000D01*
X130841000Y-93422000D01*
X130841000Y-93420000D01*
X130842000Y-93417000D01*
X130842000Y-93415000D01*
X130843000Y-93412000D01*
X130844000Y-93410000D01*
X130845000Y-93407000D01*
X130847000Y-93405000D01*
X130848000Y-93403000D01*
X130850000Y-93401000D01*
X130851000Y-93399000D01*
X130853000Y-93397000D01*
X130855000Y-93395000D01*
X130857000Y-93393000D01*
X130859000Y-93391000D01*
X130861000Y-93390000D01*
X130863000Y-93388000D01*
X130865000Y-93387000D01*
X130867000Y-93385000D01*
X130870000Y-93384000D01*
X130872000Y-93383000D01*
X130875000Y-93382000D01*
X130877000Y-93382000D01*
X130880000Y-93381000D01*
X130882000Y-93381000D01*
X130885000Y-93380000D01*
X130887000Y-93380000D01*
X130890000Y-93380000D01*
X131090000Y-93380000D01*
X131093000Y-93380000D01*
X131095000Y-93380000D01*
X131098000Y-93381000D01*
G36*
X131098000Y-93381000D02*
G01*
X131100000Y-93381000D01*
X131103000Y-93382000D01*
X131105000Y-93382000D01*
X131108000Y-93383000D01*
X131110000Y-93384000D01*
X131113000Y-93385000D01*
X131115000Y-93387000D01*
X131117000Y-93388000D01*
X131119000Y-93390000D01*
X131121000Y-93391000D01*
X131123000Y-93393000D01*
X131125000Y-93395000D01*
X131127000Y-93397000D01*
X131129000Y-93399000D01*
X131130000Y-93401000D01*
X131132000Y-93403000D01*
X131133000Y-93405000D01*
X131135000Y-93407000D01*
X131136000Y-93410000D01*
X131137000Y-93412000D01*
X131138000Y-93415000D01*
X131138000Y-93417000D01*
X131139000Y-93420000D01*
X131139000Y-93422000D01*
X131140000Y-93425000D01*
X131140000Y-93427000D01*
X131140000Y-93430000D01*
X131140000Y-93930000D01*
X131140000Y-93933000D01*
X131140000Y-93935000D01*
X131139000Y-93938000D01*
X131139000Y-93940000D01*
X131138000Y-93943000D01*
X131138000Y-93945000D01*
X131137000Y-93948000D01*
X131136000Y-93950000D01*
X131135000Y-93953000D01*
X131133000Y-93955000D01*
X131132000Y-93957000D01*
X131130000Y-93959000D01*
X131129000Y-93961000D01*
X131127000Y-93963000D01*
X131125000Y-93965000D01*
X131123000Y-93967000D01*
X131121000Y-93969000D01*
X131119000Y-93970000D01*
X131117000Y-93972000D01*
X131115000Y-93973000D01*
X131113000Y-93975000D01*
X131110000Y-93976000D01*
X131108000Y-93977000D01*
X131105000Y-93978000D01*
X131103000Y-93978000D01*
X131100000Y-93979000D01*
X131098000Y-93979000D01*
X131095000Y-93980000D01*
X131093000Y-93980000D01*
X131090000Y-93980000D01*
X130890000Y-93980000D01*
X130887000Y-93980000D01*
X130885000Y-93980000D01*
X130882000Y-93979000D01*
X130880000Y-93979000D01*
X130877000Y-93978000D01*
X130875000Y-93978000D01*
X130872000Y-93977000D01*
X130870000Y-93976000D01*
X130867000Y-93975000D01*
X130865000Y-93973000D01*
X130863000Y-93972000D01*
X130861000Y-93970000D01*
X130859000Y-93969000D01*
X130857000Y-93967000D01*
X130855000Y-93965000D01*
X130853000Y-93963000D01*
X130851000Y-93961000D01*
X130850000Y-93959000D01*
X130848000Y-93957000D01*
X130847000Y-93955000D01*
X130845000Y-93953000D01*
X130844000Y-93950000D01*
X130843000Y-93948000D01*
X130842000Y-93945000D01*
X130842000Y-93943000D01*
X130841000Y-93940000D01*
X130841000Y-93938000D01*
X130840000Y-93935000D01*
X130840000Y-93933000D01*
X130840000Y-93930000D01*
X130840000Y-93430000D01*
X130840000Y-93427000D01*
X130840000Y-93425000D01*
X130841000Y-93422000D01*
X130841000Y-93420000D01*
X130842000Y-93417000D01*
X130842000Y-93415000D01*
X130843000Y-93412000D01*
X130844000Y-93410000D01*
X130845000Y-93407000D01*
X130847000Y-93405000D01*
X130848000Y-93403000D01*
X130850000Y-93401000D01*
X130851000Y-93399000D01*
X130853000Y-93397000D01*
X130855000Y-93395000D01*
X130857000Y-93393000D01*
X130859000Y-93391000D01*
X130861000Y-93390000D01*
X130863000Y-93388000D01*
X130865000Y-93387000D01*
X130867000Y-93385000D01*
X130870000Y-93384000D01*
X130872000Y-93383000D01*
X130875000Y-93382000D01*
X130877000Y-93382000D01*
X130880000Y-93381000D01*
X130882000Y-93381000D01*
X130885000Y-93380000D01*
X130887000Y-93380000D01*
X130890000Y-93380000D01*
X131090000Y-93380000D01*
X131093000Y-93380000D01*
X131095000Y-93380000D01*
X131098000Y-93381000D01*
G37*
X131498000Y-91481000D02*
X131500000Y-91481000D01*
X131503000Y-91482000D01*
X131505000Y-91482000D01*
X131508000Y-91483000D01*
X131510000Y-91484000D01*
X131513000Y-91485000D01*
X131515000Y-91487000D01*
X131517000Y-91488000D01*
X131519000Y-91490000D01*
X131521000Y-91491000D01*
X131523000Y-91493000D01*
X131525000Y-91495000D01*
X131527000Y-91497000D01*
X131529000Y-91499000D01*
X131530000Y-91501000D01*
X131532000Y-91503000D01*
X131533000Y-91505000D01*
X131535000Y-91507000D01*
X131536000Y-91510000D01*
X131537000Y-91512000D01*
X131538000Y-91515000D01*
X131538000Y-91517000D01*
X131539000Y-91520000D01*
X131539000Y-91522000D01*
X131540000Y-91525000D01*
X131540000Y-91527000D01*
X131540000Y-91530000D01*
X131540000Y-92030000D01*
X131540000Y-92033000D01*
X131540000Y-92035000D01*
X131539000Y-92038000D01*
X131539000Y-92040000D01*
X131538000Y-92043000D01*
X131538000Y-92045000D01*
X131537000Y-92048000D01*
X131536000Y-92050000D01*
X131535000Y-92053000D01*
X131533000Y-92055000D01*
X131532000Y-92057000D01*
X131530000Y-92059000D01*
X131529000Y-92061000D01*
X131527000Y-92063000D01*
X131525000Y-92065000D01*
X131523000Y-92067000D01*
X131521000Y-92069000D01*
X131519000Y-92070000D01*
X131517000Y-92072000D01*
X131515000Y-92073000D01*
X131513000Y-92075000D01*
X131510000Y-92076000D01*
X131508000Y-92077000D01*
X131505000Y-92078000D01*
X131503000Y-92078000D01*
X131500000Y-92079000D01*
X131498000Y-92079000D01*
X131495000Y-92080000D01*
X131493000Y-92080000D01*
X131490000Y-92080000D01*
X131290000Y-92080000D01*
X131287000Y-92080000D01*
X131285000Y-92080000D01*
X131282000Y-92079000D01*
X131280000Y-92079000D01*
X131277000Y-92078000D01*
X131275000Y-92078000D01*
X131272000Y-92077000D01*
X131270000Y-92076000D01*
X131267000Y-92075000D01*
X131265000Y-92073000D01*
X131263000Y-92072000D01*
X131261000Y-92070000D01*
X131259000Y-92069000D01*
X131257000Y-92067000D01*
X131255000Y-92065000D01*
X131253000Y-92063000D01*
X131251000Y-92061000D01*
X131250000Y-92059000D01*
X131248000Y-92057000D01*
X131247000Y-92055000D01*
X131245000Y-92053000D01*
X131244000Y-92050000D01*
X131243000Y-92048000D01*
X131242000Y-92045000D01*
X131242000Y-92043000D01*
X131241000Y-92040000D01*
X131241000Y-92038000D01*
X131240000Y-92035000D01*
X131240000Y-92033000D01*
X131240000Y-92030000D01*
X131240000Y-91530000D01*
X131240000Y-91527000D01*
X131240000Y-91525000D01*
X131241000Y-91522000D01*
X131241000Y-91520000D01*
X131242000Y-91517000D01*
X131242000Y-91515000D01*
X131243000Y-91512000D01*
X131244000Y-91510000D01*
X131245000Y-91507000D01*
X131247000Y-91505000D01*
X131248000Y-91503000D01*
X131250000Y-91501000D01*
X131251000Y-91499000D01*
X131253000Y-91497000D01*
X131255000Y-91495000D01*
X131257000Y-91493000D01*
X131259000Y-91491000D01*
X131261000Y-91490000D01*
X131263000Y-91488000D01*
X131265000Y-91487000D01*
X131267000Y-91485000D01*
X131270000Y-91484000D01*
X131272000Y-91483000D01*
X131275000Y-91482000D01*
X131277000Y-91482000D01*
X131280000Y-91481000D01*
X131282000Y-91481000D01*
X131285000Y-91480000D01*
X131287000Y-91480000D01*
X131290000Y-91480000D01*
X131490000Y-91480000D01*
X131493000Y-91480000D01*
X131495000Y-91480000D01*
X131498000Y-91481000D01*
G36*
X131498000Y-91481000D02*
G01*
X131500000Y-91481000D01*
X131503000Y-91482000D01*
X131505000Y-91482000D01*
X131508000Y-91483000D01*
X131510000Y-91484000D01*
X131513000Y-91485000D01*
X131515000Y-91487000D01*
X131517000Y-91488000D01*
X131519000Y-91490000D01*
X131521000Y-91491000D01*
X131523000Y-91493000D01*
X131525000Y-91495000D01*
X131527000Y-91497000D01*
X131529000Y-91499000D01*
X131530000Y-91501000D01*
X131532000Y-91503000D01*
X131533000Y-91505000D01*
X131535000Y-91507000D01*
X131536000Y-91510000D01*
X131537000Y-91512000D01*
X131538000Y-91515000D01*
X131538000Y-91517000D01*
X131539000Y-91520000D01*
X131539000Y-91522000D01*
X131540000Y-91525000D01*
X131540000Y-91527000D01*
X131540000Y-91530000D01*
X131540000Y-92030000D01*
X131540000Y-92033000D01*
X131540000Y-92035000D01*
X131539000Y-92038000D01*
X131539000Y-92040000D01*
X131538000Y-92043000D01*
X131538000Y-92045000D01*
X131537000Y-92048000D01*
X131536000Y-92050000D01*
X131535000Y-92053000D01*
X131533000Y-92055000D01*
X131532000Y-92057000D01*
X131530000Y-92059000D01*
X131529000Y-92061000D01*
X131527000Y-92063000D01*
X131525000Y-92065000D01*
X131523000Y-92067000D01*
X131521000Y-92069000D01*
X131519000Y-92070000D01*
X131517000Y-92072000D01*
X131515000Y-92073000D01*
X131513000Y-92075000D01*
X131510000Y-92076000D01*
X131508000Y-92077000D01*
X131505000Y-92078000D01*
X131503000Y-92078000D01*
X131500000Y-92079000D01*
X131498000Y-92079000D01*
X131495000Y-92080000D01*
X131493000Y-92080000D01*
X131490000Y-92080000D01*
X131290000Y-92080000D01*
X131287000Y-92080000D01*
X131285000Y-92080000D01*
X131282000Y-92079000D01*
X131280000Y-92079000D01*
X131277000Y-92078000D01*
X131275000Y-92078000D01*
X131272000Y-92077000D01*
X131270000Y-92076000D01*
X131267000Y-92075000D01*
X131265000Y-92073000D01*
X131263000Y-92072000D01*
X131261000Y-92070000D01*
X131259000Y-92069000D01*
X131257000Y-92067000D01*
X131255000Y-92065000D01*
X131253000Y-92063000D01*
X131251000Y-92061000D01*
X131250000Y-92059000D01*
X131248000Y-92057000D01*
X131247000Y-92055000D01*
X131245000Y-92053000D01*
X131244000Y-92050000D01*
X131243000Y-92048000D01*
X131242000Y-92045000D01*
X131242000Y-92043000D01*
X131241000Y-92040000D01*
X131241000Y-92038000D01*
X131240000Y-92035000D01*
X131240000Y-92033000D01*
X131240000Y-92030000D01*
X131240000Y-91530000D01*
X131240000Y-91527000D01*
X131240000Y-91525000D01*
X131241000Y-91522000D01*
X131241000Y-91520000D01*
X131242000Y-91517000D01*
X131242000Y-91515000D01*
X131243000Y-91512000D01*
X131244000Y-91510000D01*
X131245000Y-91507000D01*
X131247000Y-91505000D01*
X131248000Y-91503000D01*
X131250000Y-91501000D01*
X131251000Y-91499000D01*
X131253000Y-91497000D01*
X131255000Y-91495000D01*
X131257000Y-91493000D01*
X131259000Y-91491000D01*
X131261000Y-91490000D01*
X131263000Y-91488000D01*
X131265000Y-91487000D01*
X131267000Y-91485000D01*
X131270000Y-91484000D01*
X131272000Y-91483000D01*
X131275000Y-91482000D01*
X131277000Y-91482000D01*
X131280000Y-91481000D01*
X131282000Y-91481000D01*
X131285000Y-91480000D01*
X131287000Y-91480000D01*
X131290000Y-91480000D01*
X131490000Y-91480000D01*
X131493000Y-91480000D01*
X131495000Y-91480000D01*
X131498000Y-91481000D01*
G37*
X131498000Y-93381000D02*
X131500000Y-93381000D01*
X131503000Y-93382000D01*
X131505000Y-93382000D01*
X131508000Y-93383000D01*
X131510000Y-93384000D01*
X131513000Y-93385000D01*
X131515000Y-93387000D01*
X131517000Y-93388000D01*
X131519000Y-93390000D01*
X131521000Y-93391000D01*
X131523000Y-93393000D01*
X131525000Y-93395000D01*
X131527000Y-93397000D01*
X131529000Y-93399000D01*
X131530000Y-93401000D01*
X131532000Y-93403000D01*
X131533000Y-93405000D01*
X131535000Y-93407000D01*
X131536000Y-93410000D01*
X131537000Y-93412000D01*
X131538000Y-93415000D01*
X131538000Y-93417000D01*
X131539000Y-93420000D01*
X131539000Y-93422000D01*
X131540000Y-93425000D01*
X131540000Y-93427000D01*
X131540000Y-93430000D01*
X131540000Y-93930000D01*
X131540000Y-93933000D01*
X131540000Y-93935000D01*
X131539000Y-93938000D01*
X131539000Y-93940000D01*
X131538000Y-93943000D01*
X131538000Y-93945000D01*
X131537000Y-93948000D01*
X131536000Y-93950000D01*
X131535000Y-93953000D01*
X131533000Y-93955000D01*
X131532000Y-93957000D01*
X131530000Y-93959000D01*
X131529000Y-93961000D01*
X131527000Y-93963000D01*
X131525000Y-93965000D01*
X131523000Y-93967000D01*
X131521000Y-93969000D01*
X131519000Y-93970000D01*
X131517000Y-93972000D01*
X131515000Y-93973000D01*
X131513000Y-93975000D01*
X131510000Y-93976000D01*
X131508000Y-93977000D01*
X131505000Y-93978000D01*
X131503000Y-93978000D01*
X131500000Y-93979000D01*
X131498000Y-93979000D01*
X131495000Y-93980000D01*
X131493000Y-93980000D01*
X131490000Y-93980000D01*
X131290000Y-93980000D01*
X131287000Y-93980000D01*
X131285000Y-93980000D01*
X131282000Y-93979000D01*
X131280000Y-93979000D01*
X131277000Y-93978000D01*
X131275000Y-93978000D01*
X131272000Y-93977000D01*
X131270000Y-93976000D01*
X131267000Y-93975000D01*
X131265000Y-93973000D01*
X131263000Y-93972000D01*
X131261000Y-93970000D01*
X131259000Y-93969000D01*
X131257000Y-93967000D01*
X131255000Y-93965000D01*
X131253000Y-93963000D01*
X131251000Y-93961000D01*
X131250000Y-93959000D01*
X131248000Y-93957000D01*
X131247000Y-93955000D01*
X131245000Y-93953000D01*
X131244000Y-93950000D01*
X131243000Y-93948000D01*
X131242000Y-93945000D01*
X131242000Y-93943000D01*
X131241000Y-93940000D01*
X131241000Y-93938000D01*
X131240000Y-93935000D01*
X131240000Y-93933000D01*
X131240000Y-93930000D01*
X131240000Y-93430000D01*
X131240000Y-93427000D01*
X131240000Y-93425000D01*
X131241000Y-93422000D01*
X131241000Y-93420000D01*
X131242000Y-93417000D01*
X131242000Y-93415000D01*
X131243000Y-93412000D01*
X131244000Y-93410000D01*
X131245000Y-93407000D01*
X131247000Y-93405000D01*
X131248000Y-93403000D01*
X131250000Y-93401000D01*
X131251000Y-93399000D01*
X131253000Y-93397000D01*
X131255000Y-93395000D01*
X131257000Y-93393000D01*
X131259000Y-93391000D01*
X131261000Y-93390000D01*
X131263000Y-93388000D01*
X131265000Y-93387000D01*
X131267000Y-93385000D01*
X131270000Y-93384000D01*
X131272000Y-93383000D01*
X131275000Y-93382000D01*
X131277000Y-93382000D01*
X131280000Y-93381000D01*
X131282000Y-93381000D01*
X131285000Y-93380000D01*
X131287000Y-93380000D01*
X131290000Y-93380000D01*
X131490000Y-93380000D01*
X131493000Y-93380000D01*
X131495000Y-93380000D01*
X131498000Y-93381000D01*
G36*
X131498000Y-93381000D02*
G01*
X131500000Y-93381000D01*
X131503000Y-93382000D01*
X131505000Y-93382000D01*
X131508000Y-93383000D01*
X131510000Y-93384000D01*
X131513000Y-93385000D01*
X131515000Y-93387000D01*
X131517000Y-93388000D01*
X131519000Y-93390000D01*
X131521000Y-93391000D01*
X131523000Y-93393000D01*
X131525000Y-93395000D01*
X131527000Y-93397000D01*
X131529000Y-93399000D01*
X131530000Y-93401000D01*
X131532000Y-93403000D01*
X131533000Y-93405000D01*
X131535000Y-93407000D01*
X131536000Y-93410000D01*
X131537000Y-93412000D01*
X131538000Y-93415000D01*
X131538000Y-93417000D01*
X131539000Y-93420000D01*
X131539000Y-93422000D01*
X131540000Y-93425000D01*
X131540000Y-93427000D01*
X131540000Y-93430000D01*
X131540000Y-93930000D01*
X131540000Y-93933000D01*
X131540000Y-93935000D01*
X131539000Y-93938000D01*
X131539000Y-93940000D01*
X131538000Y-93943000D01*
X131538000Y-93945000D01*
X131537000Y-93948000D01*
X131536000Y-93950000D01*
X131535000Y-93953000D01*
X131533000Y-93955000D01*
X131532000Y-93957000D01*
X131530000Y-93959000D01*
X131529000Y-93961000D01*
X131527000Y-93963000D01*
X131525000Y-93965000D01*
X131523000Y-93967000D01*
X131521000Y-93969000D01*
X131519000Y-93970000D01*
X131517000Y-93972000D01*
X131515000Y-93973000D01*
X131513000Y-93975000D01*
X131510000Y-93976000D01*
X131508000Y-93977000D01*
X131505000Y-93978000D01*
X131503000Y-93978000D01*
X131500000Y-93979000D01*
X131498000Y-93979000D01*
X131495000Y-93980000D01*
X131493000Y-93980000D01*
X131490000Y-93980000D01*
X131290000Y-93980000D01*
X131287000Y-93980000D01*
X131285000Y-93980000D01*
X131282000Y-93979000D01*
X131280000Y-93979000D01*
X131277000Y-93978000D01*
X131275000Y-93978000D01*
X131272000Y-93977000D01*
X131270000Y-93976000D01*
X131267000Y-93975000D01*
X131265000Y-93973000D01*
X131263000Y-93972000D01*
X131261000Y-93970000D01*
X131259000Y-93969000D01*
X131257000Y-93967000D01*
X131255000Y-93965000D01*
X131253000Y-93963000D01*
X131251000Y-93961000D01*
X131250000Y-93959000D01*
X131248000Y-93957000D01*
X131247000Y-93955000D01*
X131245000Y-93953000D01*
X131244000Y-93950000D01*
X131243000Y-93948000D01*
X131242000Y-93945000D01*
X131242000Y-93943000D01*
X131241000Y-93940000D01*
X131241000Y-93938000D01*
X131240000Y-93935000D01*
X131240000Y-93933000D01*
X131240000Y-93930000D01*
X131240000Y-93430000D01*
X131240000Y-93427000D01*
X131240000Y-93425000D01*
X131241000Y-93422000D01*
X131241000Y-93420000D01*
X131242000Y-93417000D01*
X131242000Y-93415000D01*
X131243000Y-93412000D01*
X131244000Y-93410000D01*
X131245000Y-93407000D01*
X131247000Y-93405000D01*
X131248000Y-93403000D01*
X131250000Y-93401000D01*
X131251000Y-93399000D01*
X131253000Y-93397000D01*
X131255000Y-93395000D01*
X131257000Y-93393000D01*
X131259000Y-93391000D01*
X131261000Y-93390000D01*
X131263000Y-93388000D01*
X131265000Y-93387000D01*
X131267000Y-93385000D01*
X131270000Y-93384000D01*
X131272000Y-93383000D01*
X131275000Y-93382000D01*
X131277000Y-93382000D01*
X131280000Y-93381000D01*
X131282000Y-93381000D01*
X131285000Y-93380000D01*
X131287000Y-93380000D01*
X131290000Y-93380000D01*
X131490000Y-93380000D01*
X131493000Y-93380000D01*
X131495000Y-93380000D01*
X131498000Y-93381000D01*
G37*
X131348000Y-92231000D02*
X131350000Y-92231000D01*
X131353000Y-92232000D01*
X131355000Y-92232000D01*
X131358000Y-92233000D01*
X131360000Y-92234000D01*
X131363000Y-92235000D01*
X131365000Y-92237000D01*
X131367000Y-92238000D01*
X131369000Y-92240000D01*
X131371000Y-92241000D01*
X131373000Y-92243000D01*
X131375000Y-92245000D01*
X131377000Y-92247000D01*
X131379000Y-92249000D01*
X131380000Y-92251000D01*
X131382000Y-92253000D01*
X131383000Y-92255000D01*
X131385000Y-92257000D01*
X131386000Y-92260000D01*
X131387000Y-92262000D01*
X131388000Y-92265000D01*
X131388000Y-92267000D01*
X131389000Y-92270000D01*
X131389000Y-92272000D01*
X131390000Y-92275000D01*
X131390000Y-92277000D01*
X131390000Y-92280000D01*
X131390000Y-93180000D01*
X131390000Y-93183000D01*
X131390000Y-93185000D01*
X131389000Y-93188000D01*
X131389000Y-93190000D01*
X131388000Y-93193000D01*
X131388000Y-93195000D01*
X131387000Y-93198000D01*
X131386000Y-93200000D01*
X131385000Y-93203000D01*
X131383000Y-93205000D01*
X131382000Y-93207000D01*
X131380000Y-93209000D01*
X131379000Y-93211000D01*
X131377000Y-93213000D01*
X131375000Y-93215000D01*
X131373000Y-93217000D01*
X131371000Y-93219000D01*
X131369000Y-93220000D01*
X131367000Y-93222000D01*
X131365000Y-93223000D01*
X131363000Y-93225000D01*
X131360000Y-93226000D01*
X131358000Y-93227000D01*
X131355000Y-93228000D01*
X131353000Y-93228000D01*
X131350000Y-93229000D01*
X131348000Y-93229000D01*
X131345000Y-93230000D01*
X131343000Y-93230000D01*
X131340000Y-93230000D01*
X129840000Y-93230000D01*
X129837000Y-93230000D01*
X129835000Y-93230000D01*
X129832000Y-93229000D01*
X129830000Y-93229000D01*
X129827000Y-93228000D01*
X129825000Y-93228000D01*
X129822000Y-93227000D01*
X129820000Y-93226000D01*
X129817000Y-93225000D01*
X129815000Y-93223000D01*
X129813000Y-93222000D01*
X129811000Y-93220000D01*
X129809000Y-93219000D01*
X129807000Y-93217000D01*
X129805000Y-93215000D01*
X129803000Y-93213000D01*
X129801000Y-93211000D01*
X129800000Y-93209000D01*
X129798000Y-93207000D01*
X129797000Y-93205000D01*
X129795000Y-93203000D01*
X129794000Y-93200000D01*
X129793000Y-93198000D01*
X129792000Y-93195000D01*
X129792000Y-93193000D01*
X129791000Y-93190000D01*
X129791000Y-93188000D01*
X129790000Y-93185000D01*
X129790000Y-93183000D01*
X129790000Y-93180000D01*
X129790000Y-92280000D01*
X129790000Y-92277000D01*
X129790000Y-92275000D01*
X129791000Y-92272000D01*
X129791000Y-92270000D01*
X129792000Y-92267000D01*
X129792000Y-92265000D01*
X129793000Y-92262000D01*
X129794000Y-92260000D01*
X129795000Y-92257000D01*
X129797000Y-92255000D01*
X129798000Y-92253000D01*
X129800000Y-92251000D01*
X129801000Y-92249000D01*
X129803000Y-92247000D01*
X129805000Y-92245000D01*
X129807000Y-92243000D01*
X129809000Y-92241000D01*
X129811000Y-92240000D01*
X129813000Y-92238000D01*
X129815000Y-92237000D01*
X129817000Y-92235000D01*
X129820000Y-92234000D01*
X129822000Y-92233000D01*
X129825000Y-92232000D01*
X129827000Y-92232000D01*
X129830000Y-92231000D01*
X129832000Y-92231000D01*
X129835000Y-92230000D01*
X129837000Y-92230000D01*
X129840000Y-92230000D01*
X131340000Y-92230000D01*
X131343000Y-92230000D01*
X131345000Y-92230000D01*
X131348000Y-92231000D01*
G36*
X131348000Y-92231000D02*
G01*
X131350000Y-92231000D01*
X131353000Y-92232000D01*
X131355000Y-92232000D01*
X131358000Y-92233000D01*
X131360000Y-92234000D01*
X131363000Y-92235000D01*
X131365000Y-92237000D01*
X131367000Y-92238000D01*
X131369000Y-92240000D01*
X131371000Y-92241000D01*
X131373000Y-92243000D01*
X131375000Y-92245000D01*
X131377000Y-92247000D01*
X131379000Y-92249000D01*
X131380000Y-92251000D01*
X131382000Y-92253000D01*
X131383000Y-92255000D01*
X131385000Y-92257000D01*
X131386000Y-92260000D01*
X131387000Y-92262000D01*
X131388000Y-92265000D01*
X131388000Y-92267000D01*
X131389000Y-92270000D01*
X131389000Y-92272000D01*
X131390000Y-92275000D01*
X131390000Y-92277000D01*
X131390000Y-92280000D01*
X131390000Y-93180000D01*
X131390000Y-93183000D01*
X131390000Y-93185000D01*
X131389000Y-93188000D01*
X131389000Y-93190000D01*
X131388000Y-93193000D01*
X131388000Y-93195000D01*
X131387000Y-93198000D01*
X131386000Y-93200000D01*
X131385000Y-93203000D01*
X131383000Y-93205000D01*
X131382000Y-93207000D01*
X131380000Y-93209000D01*
X131379000Y-93211000D01*
X131377000Y-93213000D01*
X131375000Y-93215000D01*
X131373000Y-93217000D01*
X131371000Y-93219000D01*
X131369000Y-93220000D01*
X131367000Y-93222000D01*
X131365000Y-93223000D01*
X131363000Y-93225000D01*
X131360000Y-93226000D01*
X131358000Y-93227000D01*
X131355000Y-93228000D01*
X131353000Y-93228000D01*
X131350000Y-93229000D01*
X131348000Y-93229000D01*
X131345000Y-93230000D01*
X131343000Y-93230000D01*
X131340000Y-93230000D01*
X129840000Y-93230000D01*
X129837000Y-93230000D01*
X129835000Y-93230000D01*
X129832000Y-93229000D01*
X129830000Y-93229000D01*
X129827000Y-93228000D01*
X129825000Y-93228000D01*
X129822000Y-93227000D01*
X129820000Y-93226000D01*
X129817000Y-93225000D01*
X129815000Y-93223000D01*
X129813000Y-93222000D01*
X129811000Y-93220000D01*
X129809000Y-93219000D01*
X129807000Y-93217000D01*
X129805000Y-93215000D01*
X129803000Y-93213000D01*
X129801000Y-93211000D01*
X129800000Y-93209000D01*
X129798000Y-93207000D01*
X129797000Y-93205000D01*
X129795000Y-93203000D01*
X129794000Y-93200000D01*
X129793000Y-93198000D01*
X129792000Y-93195000D01*
X129792000Y-93193000D01*
X129791000Y-93190000D01*
X129791000Y-93188000D01*
X129790000Y-93185000D01*
X129790000Y-93183000D01*
X129790000Y-93180000D01*
X129790000Y-92280000D01*
X129790000Y-92277000D01*
X129790000Y-92275000D01*
X129791000Y-92272000D01*
X129791000Y-92270000D01*
X129792000Y-92267000D01*
X129792000Y-92265000D01*
X129793000Y-92262000D01*
X129794000Y-92260000D01*
X129795000Y-92257000D01*
X129797000Y-92255000D01*
X129798000Y-92253000D01*
X129800000Y-92251000D01*
X129801000Y-92249000D01*
X129803000Y-92247000D01*
X129805000Y-92245000D01*
X129807000Y-92243000D01*
X129809000Y-92241000D01*
X129811000Y-92240000D01*
X129813000Y-92238000D01*
X129815000Y-92237000D01*
X129817000Y-92235000D01*
X129820000Y-92234000D01*
X129822000Y-92233000D01*
X129825000Y-92232000D01*
X129827000Y-92232000D01*
X129830000Y-92231000D01*
X129832000Y-92231000D01*
X129835000Y-92230000D01*
X129837000Y-92230000D01*
X129840000Y-92230000D01*
X131340000Y-92230000D01*
X131343000Y-92230000D01*
X131345000Y-92230000D01*
X131348000Y-92231000D01*
G37*
%TD*%
D11*
%TO.C,U2*%
X130090000Y-92730000D03*
%TD*%
D12*
%TO.C,C30*%
X140377500Y-99700000D03*
X140377500Y-100660000D03*
%TD*%
D13*
%TO.C,R8*%
X129990000Y-90800000D03*
X129990000Y-89780000D03*
%TD*%
D14*
%TO.C,R3*%
X162800000Y-115970000D03*
X163820000Y-115970000D03*
%TD*%
D15*
%TO.C,C26*%
X138540826Y-118591211D03*
X138540826Y-117631211D03*
%TD*%
D16*
%TO.C,FB1*%
X134140826Y-119356211D03*
X134140826Y-118716211D03*
%TD*%
D17*
%TO.C,C21*%
X138440826Y-110721211D03*
X138440826Y-111361211D03*
%TD*%
D18*
%TO.C,D3*%
X160650000Y-120900000D03*
X160650000Y-118800000D03*
%TD*%
D19*
%TO.C,R6*%
X130990000Y-89760000D03*
X130990000Y-90780000D03*
%TD*%
D12*
%TO.C,C12*%
X150840000Y-114610000D03*
X150840000Y-115570000D03*
%TD*%
D20*
%TO.C,Q1*%
X163670000Y-117870000D03*
X162370000Y-117870000D03*
X163020000Y-119870000D03*
%TD*%
D12*
%TO.C,C15*%
X167350000Y-122860000D03*
X167350000Y-123820000D03*
%TD*%
%TO.C,C10*%
X152720000Y-114610000D03*
X152720000Y-115570000D03*
%TD*%
D17*
%TO.C,C27*%
X134110826Y-116936211D03*
X134110826Y-117576211D03*
%TD*%
%TO.C,C25*%
X133080826Y-108306211D03*
X133080826Y-108946211D03*
%TD*%
D16*
%TO.C,C8*%
X125780826Y-113031211D03*
X125780826Y-112391211D03*
%TD*%
D21*
%TO.C,U3*%
X137430826Y-115131211D03*
X137430826Y-114731211D03*
X137430826Y-114331211D03*
X137430826Y-113931211D03*
X137430826Y-113531211D03*
X137430826Y-113131211D03*
X137430826Y-112731211D03*
X137430826Y-112331211D03*
X137430826Y-111931211D03*
X137430826Y-111531211D03*
X137430826Y-111131211D03*
X137430826Y-110731211D03*
D22*
X136680826Y-109981211D03*
X136280826Y-109981211D03*
X135880826Y-109981211D03*
X135480826Y-109981211D03*
X135080826Y-109981211D03*
X134680826Y-109981211D03*
X134280826Y-109981211D03*
X133880826Y-109981211D03*
X133480826Y-109981211D03*
X133080826Y-109981211D03*
X132680826Y-109981211D03*
X132280826Y-109981211D03*
D21*
X131530826Y-110731211D03*
X131530826Y-111131211D03*
X131530826Y-111531211D03*
X131530826Y-111931211D03*
X131530826Y-112331211D03*
X131530826Y-112731211D03*
X131530826Y-113131211D03*
X131530826Y-113531211D03*
X131530826Y-113931211D03*
X131530826Y-114331211D03*
X131530826Y-114731211D03*
X131530826Y-115131211D03*
D22*
X132280826Y-115881211D03*
X132680826Y-115881211D03*
X133080826Y-115881211D03*
X133480826Y-115881211D03*
X133880826Y-115881211D03*
X134280826Y-115881211D03*
X134680826Y-115881211D03*
X135080826Y-115881211D03*
X135480826Y-115881211D03*
X135880826Y-115881211D03*
X136280826Y-115881211D03*
X136680826Y-115881211D03*
D23*
X134480826Y-112931211D03*
%TD*%
D24*
%TO.C,C14*%
X163800000Y-124400000D03*
X164760000Y-124400000D03*
%TD*%
D25*
%TO.C,J5*%
X131690000Y-103057500D03*
D26*
X129150000Y-103057500D03*
X126610000Y-103057500D03*
%TD*%
D12*
%TO.C,C11*%
X161420000Y-114870000D03*
X161420000Y-115830000D03*
%TD*%
D13*
%TO.C,R4*%
X164220826Y-86221211D03*
X164220826Y-85201211D03*
%TD*%
D16*
%TO.C,C2*%
X127770826Y-113096211D03*
X127770826Y-112456211D03*
%TD*%
D27*
%TO.C,U6*%
X138977500Y-101580000D03*
X138977500Y-99680000D03*
X136702500Y-100630000D03*
%TD*%
D28*
%TO.C,L2*%
X129095826Y-113121211D03*
X128455826Y-113121211D03*
%TD*%
D12*
%TO.C,C16*%
X132390000Y-91320000D03*
X132390000Y-92280000D03*
%TD*%
D28*
%TO.C,C22*%
X137290826Y-116901211D03*
X136650826Y-116901211D03*
%TD*%
D12*
%TO.C,C5*%
X160420000Y-114870000D03*
X160420000Y-115830000D03*
%TD*%
D29*
%TO.C,U4*%
X141870000Y-95200000D03*
D30*
X141870000Y-95850000D03*
D31*
X142950000Y-95850000D03*
D32*
X142950000Y-95200000D03*
D33*
X142410000Y-95525000D03*
%TD*%
D34*
%TO.C,J1*%
X151190000Y-112990000D03*
X151690000Y-112990000D03*
X152190000Y-112990000D03*
X152690000Y-112990000D03*
X153190000Y-112990000D03*
X153690000Y-112990000D03*
X154190000Y-112990000D03*
X154690000Y-112990000D03*
X155190000Y-112990000D03*
X155690000Y-112990000D03*
X156190000Y-112990000D03*
X156690000Y-112990000D03*
X157190000Y-112990000D03*
X157690000Y-112990000D03*
X158190000Y-112990000D03*
X158690000Y-112990000D03*
X159190000Y-112990000D03*
X159690000Y-112990000D03*
X160190000Y-112990000D03*
X160690000Y-112990000D03*
X161190000Y-112990000D03*
X161690000Y-112990000D03*
X162190000Y-112990000D03*
X162690000Y-112990000D03*
D35*
X150190000Y-110490000D03*
X163690000Y-110490000D03*
%TD*%
D19*
%TO.C,R7*%
X131090000Y-94660000D03*
X131090000Y-95680000D03*
%TD*%
D36*
%TO.C,R1*%
X161220000Y-117670000D03*
X160200000Y-117670000D03*
%TD*%
D15*
%TO.C,C24*%
X143100000Y-93630000D03*
X143100000Y-92670000D03*
%TD*%
D12*
%TO.C,C4*%
X151770000Y-114610000D03*
X151770000Y-115570000D03*
%TD*%
D28*
%TO.C,L3*%
X127095826Y-113131211D03*
X126455826Y-113131211D03*
%TD*%
D12*
%TO.C,C13*%
X153660000Y-114610000D03*
X153660000Y-115570000D03*
%TD*%
D28*
%TO.C,L1*%
X130445826Y-113121211D03*
X129805826Y-113121211D03*
%TD*%
D37*
%TO.C,Y2*%
X127930000Y-116220000D03*
X127930000Y-117620000D03*
X129030000Y-117620000D03*
X129030000Y-116220000D03*
%TD*%
D38*
%TO.C,D2*%
X160290000Y-124380000D03*
X162390000Y-124380000D03*
%TD*%
D39*
%TO.C,U1*%
X163920826Y-90776211D03*
D40*
X163920826Y-90126211D03*
%TD*%
D12*
%TO.C,C6*%
X154590000Y-114590000D03*
X154590000Y-115550000D03*
%TD*%
D16*
%TO.C,C20*%
X130500826Y-117161211D03*
X130500826Y-116521211D03*
%TD*%
D38*
%TO.C,D1*%
X162790000Y-121880000D03*
X164890000Y-121880000D03*
%TD*%
D41*
%TO.C,C1*%
X129815826Y-113681211D03*
X130455826Y-113681211D03*
%TD*%
D42*
%TO.C,L5*%
X137318326Y-118571211D03*
X135743326Y-118571211D03*
%TD*%
D19*
%TO.C,R2*%
X164180826Y-87991211D03*
X164180826Y-89011211D03*
%TD*%
D12*
%TO.C,C7*%
X149910000Y-114610000D03*
X149910000Y-115570000D03*
%TD*%
D16*
%TO.C,C28*%
X133390826Y-119366211D03*
X133390826Y-118726211D03*
%TD*%
D41*
%TO.C,R5*%
X129815826Y-111621211D03*
X130455826Y-111621211D03*
%TD*%
D25*
%TO.C,J6*%
X140965000Y-107890000D03*
D26*
X143505000Y-107890000D03*
X146045000Y-107890000D03*
%TD*%
D41*
%TO.C,C19*%
X134910826Y-116931211D03*
X135550826Y-116931211D03*
%TD*%
D36*
%TO.C,R9*%
X142010000Y-93600000D03*
X140990000Y-93600000D03*
%TD*%
D15*
%TO.C,C18*%
X132390000Y-94180000D03*
X132390000Y-93220000D03*
%TD*%
D28*
%TO.C,C23*%
X130455826Y-114201211D03*
X129815826Y-114201211D03*
%TD*%
D12*
%TO.C,C9*%
X155510000Y-114590000D03*
X155510000Y-115550000D03*
%TD*%
D43*
%TO.C,J3*%
X136800000Y-91600000D03*
X138000000Y-91600000D03*
D44*
X139100000Y-95200000D03*
X135700000Y-95200000D03*
%TD*%
D25*
%TO.C,J4*%
X148750000Y-101725000D03*
D26*
X151290000Y-101725000D03*
X153830000Y-101725000D03*
X156370000Y-101725000D03*
%TD*%
D45*
%TO.C,L4*%
X168340000Y-119430000D03*
X170440000Y-119430000D03*
%TD*%
D12*
%TO.C,C29*%
X135277500Y-100700000D03*
X135277500Y-101660000D03*
%TD*%
D28*
%TO.C,C17*%
X130455826Y-112321211D03*
X129815826Y-112321211D03*
%TD*%
D46*
%TO.C,J2*%
X166300826Y-87431211D03*
D47*
X166300826Y-85411211D03*
D48*
X166300826Y-84181211D03*
D46*
X166300826Y-86431211D03*
D47*
X166300826Y-88451211D03*
D48*
X166300826Y-89681211D03*
D49*
X167520826Y-92506211D03*
D50*
X171120826Y-92506211D03*
D49*
X167520826Y-81356211D03*
D50*
X171120826Y-81326211D03*
%TD*%
D12*
%TO.C,C3*%
X148970000Y-114610000D03*
X148970000Y-115570000D03*
%TD*%
M02*
