%TF.GenerationSoftware,KiCad,Pcbnew,8.0.3*%
%TF.CreationDate,2026-05-26T23:36:30-07:00*%
%TF.ProjectId,24p_bw_3p5,3234705f-6277-45f3-9370-352e6b696361,rev?*%
%TF.SameCoordinates,Original*%
%TF.FileFunction,Drillmap*%
%TF.FilePolarity,Positive*%
%FSLAX45Y45*%
G04 Gerber Fmt 4.5, Leading zero omitted, Abs format (unit mm)*
G04 Created by KiCad (PCBNEW 8.0.3) date 2026-05-26 23:36:30*
%MOMM*%
%LPD*%
G01*
G04 APERTURE LIST*
%ADD10C,0.050000*%
%ADD11C,0.200000*%
G04 APERTURE END LIST*
D10*
X17291083Y-9148121D02*
X17291031Y-12514874D01*
X15990083Y-12255121D02*
G75*
G02*
X15610083Y-12255121I-190000J0D01*
G01*
X15610083Y-12255121D02*
G75*
G02*
X15990083Y-12255121I190000J0D01*
G01*
X11941031Y-12614874D02*
G75*
G02*
X11841026Y-12514874I-11J99994D01*
G01*
X11941031Y-7854874D02*
X17191031Y-7854874D01*
X17291031Y-12514874D02*
G75*
G02*
X17191031Y-12614871I-100001J4D01*
G01*
X17291083Y-8238121D02*
X17291031Y-7954874D01*
X16714083Y-8238121D02*
X17291083Y-8238121D01*
X12450083Y-9895121D02*
G75*
G02*
X12070083Y-9895121I-190000J0D01*
G01*
X12070083Y-9895121D02*
G75*
G02*
X12450083Y-9895121I190000J0D01*
G01*
X17291083Y-9148121D02*
X16714083Y-9148121D01*
X11841031Y-7954874D02*
G75*
G02*
X11941031Y-7854871I99999J4D01*
G01*
X13040083Y-12305121D02*
G75*
G02*
X12660083Y-12305121I-190000J0D01*
G01*
X12660083Y-12305121D02*
G75*
G02*
X13040083Y-12305121I190000J0D01*
G01*
X17191031Y-12614874D02*
X11941031Y-12614874D01*
X16840083Y-11615121D02*
G75*
G02*
X16460083Y-11615121I-190000J0D01*
G01*
X16460083Y-11615121D02*
G75*
G02*
X16840083Y-11615121I190000J0D01*
G01*
X11841031Y-12514874D02*
X11841031Y-7954874D01*
X17191031Y-7854874D02*
G75*
G02*
X17291026Y-7954874I-11J-100006D01*
G01*
X16714083Y-9148121D02*
X16714083Y-8238121D01*
X16040083Y-9585121D02*
G75*
G02*
X15660083Y-9585121I-190000J0D01*
G01*
X15660083Y-9585121D02*
G75*
G02*
X16040083Y-9585121I190000J0D01*
G01*
X16040083Y-8405121D02*
G75*
G02*
X15660083Y-8405121I-190000J0D01*
G01*
X15660083Y-8405121D02*
G75*
G02*
X16040083Y-8405121I190000J0D01*
G01*
D11*
X12099303Y-12928858D02*
X12099303Y-12728858D01*
X12099303Y-12728858D02*
X12146922Y-12728858D01*
X12146922Y-12728858D02*
X12175493Y-12738381D01*
X12175493Y-12738381D02*
X12194541Y-12757429D01*
X12194541Y-12757429D02*
X12204065Y-12776477D01*
X12204065Y-12776477D02*
X12213589Y-12814572D01*
X12213589Y-12814572D02*
X12213589Y-12843143D01*
X12213589Y-12843143D02*
X12204065Y-12881239D01*
X12204065Y-12881239D02*
X12194541Y-12900286D01*
X12194541Y-12900286D02*
X12175493Y-12919334D01*
X12175493Y-12919334D02*
X12146922Y-12928858D01*
X12146922Y-12928858D02*
X12099303Y-12928858D01*
X12299303Y-12928858D02*
X12299303Y-12795524D01*
X12299303Y-12833620D02*
X12308827Y-12814572D01*
X12308827Y-12814572D02*
X12318350Y-12805048D01*
X12318350Y-12805048D02*
X12337398Y-12795524D01*
X12337398Y-12795524D02*
X12356446Y-12795524D01*
X12423112Y-12928858D02*
X12423112Y-12795524D01*
X12423112Y-12728858D02*
X12413589Y-12738381D01*
X12413589Y-12738381D02*
X12423112Y-12747905D01*
X12423112Y-12747905D02*
X12432636Y-12738381D01*
X12432636Y-12738381D02*
X12423112Y-12728858D01*
X12423112Y-12728858D02*
X12423112Y-12747905D01*
X12546922Y-12928858D02*
X12527874Y-12919334D01*
X12527874Y-12919334D02*
X12518350Y-12900286D01*
X12518350Y-12900286D02*
X12518350Y-12728858D01*
X12651684Y-12928858D02*
X12632636Y-12919334D01*
X12632636Y-12919334D02*
X12623112Y-12900286D01*
X12623112Y-12900286D02*
X12623112Y-12728858D01*
X12880255Y-12928858D02*
X12880255Y-12728858D01*
X12880255Y-12728858D02*
X12946922Y-12871715D01*
X12946922Y-12871715D02*
X13013589Y-12728858D01*
X13013589Y-12728858D02*
X13013589Y-12928858D01*
X13194541Y-12928858D02*
X13194541Y-12824096D01*
X13194541Y-12824096D02*
X13185017Y-12805048D01*
X13185017Y-12805048D02*
X13165970Y-12795524D01*
X13165970Y-12795524D02*
X13127874Y-12795524D01*
X13127874Y-12795524D02*
X13108827Y-12805048D01*
X13194541Y-12919334D02*
X13175493Y-12928858D01*
X13175493Y-12928858D02*
X13127874Y-12928858D01*
X13127874Y-12928858D02*
X13108827Y-12919334D01*
X13108827Y-12919334D02*
X13099303Y-12900286D01*
X13099303Y-12900286D02*
X13099303Y-12881239D01*
X13099303Y-12881239D02*
X13108827Y-12862191D01*
X13108827Y-12862191D02*
X13127874Y-12852667D01*
X13127874Y-12852667D02*
X13175493Y-12852667D01*
X13175493Y-12852667D02*
X13194541Y-12843143D01*
X13289779Y-12795524D02*
X13289779Y-12995524D01*
X13289779Y-12805048D02*
X13308827Y-12795524D01*
X13308827Y-12795524D02*
X13346922Y-12795524D01*
X13346922Y-12795524D02*
X13365970Y-12805048D01*
X13365970Y-12805048D02*
X13375493Y-12814572D01*
X13375493Y-12814572D02*
X13385017Y-12833620D01*
X13385017Y-12833620D02*
X13385017Y-12890762D01*
X13385017Y-12890762D02*
X13375493Y-12909810D01*
X13375493Y-12909810D02*
X13365970Y-12919334D01*
X13365970Y-12919334D02*
X13346922Y-12928858D01*
X13346922Y-12928858D02*
X13308827Y-12928858D01*
X13308827Y-12928858D02*
X13289779Y-12919334D01*
X13470731Y-12909810D02*
X13480255Y-12919334D01*
X13480255Y-12919334D02*
X13470731Y-12928858D01*
X13470731Y-12928858D02*
X13461208Y-12919334D01*
X13461208Y-12919334D02*
X13470731Y-12909810D01*
X13470731Y-12909810D02*
X13470731Y-12928858D01*
X13470731Y-12805048D02*
X13480255Y-12814572D01*
X13480255Y-12814572D02*
X13470731Y-12824096D01*
X13470731Y-12824096D02*
X13461208Y-12814572D01*
X13461208Y-12814572D02*
X13470731Y-12805048D01*
X13470731Y-12805048D02*
X13470731Y-12824096D01*
M02*
