%TF.GenerationSoftware,KiCad,Pcbnew,8.0.3*%
%TF.CreationDate,2026-05-26T23:36:28-07:00*%
%TF.ProjectId,24p_bw_3p5,3234705f-6277-45f3-9370-352e6b696361,rev?*%
%TF.SameCoordinates,Original*%
%TF.FileFunction,Profile,NP*%
%FSLAX46Y46*%
G04 Gerber Fmt 4.6, Leading zero omitted, Abs format (unit mm)*
G04 Created by KiCad (PCBNEW 8.0.3) date 2026-05-26 23:36:28*
%MOMM*%
%LPD*%
G01*
G04 APERTURE LIST*
%TA.AperFunction,Profile*%
%ADD10C,0.050000*%
%TD*%
G04 APERTURE END LIST*
D10*
X172910826Y-91481211D02*
X172910314Y-125148739D01*
X159900826Y-122551211D02*
G75*
G02*
X156100826Y-122551211I-1900000J0D01*
G01*
X156100826Y-122551211D02*
G75*
G02*
X159900826Y-122551211I1900000J0D01*
G01*
X119410314Y-126148739D02*
G75*
G02*
X118410261Y-125148739I-114J999939D01*
G01*
X119410314Y-78548739D02*
X171910314Y-78548739D01*
X172910314Y-125148739D02*
G75*
G02*
X171910314Y-126148714I-1000014J39D01*
G01*
X172910826Y-82381211D02*
X172910314Y-79548739D01*
X167140826Y-82381211D02*
X172910826Y-82381211D01*
X124500826Y-98951211D02*
G75*
G02*
X120700826Y-98951211I-1900000J0D01*
G01*
X120700826Y-98951211D02*
G75*
G02*
X124500826Y-98951211I1900000J0D01*
G01*
X172910826Y-91481211D02*
X167140826Y-91481211D01*
X118410314Y-79548739D02*
G75*
G02*
X119410314Y-78548714I999986J39D01*
G01*
X130400826Y-123051211D02*
G75*
G02*
X126600826Y-123051211I-1900000J0D01*
G01*
X126600826Y-123051211D02*
G75*
G02*
X130400826Y-123051211I1900000J0D01*
G01*
X171910314Y-126148739D02*
X119410314Y-126148739D01*
X168400826Y-116151211D02*
G75*
G02*
X164600826Y-116151211I-1900000J0D01*
G01*
X164600826Y-116151211D02*
G75*
G02*
X168400826Y-116151211I1900000J0D01*
G01*
X118410314Y-125148739D02*
X118410314Y-79548739D01*
X171910314Y-78548739D02*
G75*
G02*
X172910261Y-79548739I-114J-1000061D01*
G01*
X167140826Y-91481211D02*
X167140826Y-82381211D01*
X160400826Y-95851211D02*
G75*
G02*
X156600826Y-95851211I-1900000J0D01*
G01*
X156600826Y-95851211D02*
G75*
G02*
X160400826Y-95851211I1900000J0D01*
G01*
X160400826Y-84051211D02*
G75*
G02*
X156600826Y-84051211I-1900000J0D01*
G01*
X156600826Y-84051211D02*
G75*
G02*
X160400826Y-84051211I1900000J0D01*
G01*
M02*
