M48
METRIC
T1C0.300
T2C0.500
T3C1.000
%
G90
G05
T1
X121.256Y-81.143
X121.256Y-83.683
X121.256Y-86.223
X121.256Y-88.763
X121.256Y-91.303
X121.256Y-93.843
X121.256Y-96.383
X123.796Y-81.143
X123.796Y-83.683
X123.796Y-86.223
X123.796Y-88.763
X123.796Y-91.303
X123.796Y-93.843
X123.796Y-96.383
X125.57Y-110.94
X125.8Y-111.75
X126.336Y-81.143
X126.336Y-83.683
X126.336Y-86.223
X126.336Y-88.763
X126.336Y-91.303
X126.336Y-93.843
X126.336Y-96.383
X126.336Y-98.923
X126.336Y-114.163
X126.336Y-116.703
X126.336Y-119.243
X126.54Y-104.75
X127.54Y-104.84
X127.75Y-111.8
X127.92Y-118.52
X128.876Y-81.143
X128.876Y-83.683
X128.876Y-86.223
X128.876Y-96.383
X128.876Y-98.923
X129.05Y-114.26
X129.1Y-92.7
X129.18Y-104.87
X129.2Y-112.35
X129.56Y-110.96
X129.68Y-110.13
X129.83Y-114.827
X129.96Y-104.84
X130.0Y-89.0
X130.26Y-110.87
X130.54Y-117.85
X130.64Y-109.36
X131.05Y-89.05
X131.2Y-96.4
X131.21Y-110.06
X131.416Y-81.143
X131.416Y-83.683
X131.416Y-86.223
X131.416Y-121.783
X131.416Y-124.323
X131.66Y-104.84
X131.7Y-118.15
X132.55Y-104.9
X132.71Y-119.42
X132.75Y-117.86
X133.1Y-107.6
X133.15Y-93.15
X133.2Y-92.3
X133.31Y-117.35
X133.956Y-81.143
X133.956Y-83.683
X133.956Y-86.223
X133.956Y-104.003
X133.956Y-121.783
X133.956Y-124.323
X134.77Y-117.69
X135.14Y-107.96
X135.35Y-108.95
X136.496Y-81.143
X136.496Y-83.683
X136.496Y-86.223
X136.496Y-98.923
X136.496Y-121.783
X136.496Y-124.323
X137.9Y-101.7
X137.96Y-116.82
X138.5Y-119.21
X139.0Y-107.9
X139.036Y-81.143
X139.036Y-83.683
X139.036Y-86.223
X139.036Y-104.003
X139.036Y-121.783
X139.036Y-124.323
X139.2Y-109.9
X139.2Y-110.65
X139.525Y-117.725
X141.576Y-81.143
X141.576Y-83.683
X141.576Y-86.223
X141.576Y-91.303
X141.576Y-98.923
X141.576Y-121.783
X141.576Y-124.323
X141.85Y-104.5
X142.4Y-95.5
X143.4Y-94.6
X144.116Y-81.143
X144.116Y-83.683
X144.116Y-86.223
X144.116Y-91.303
X144.116Y-98.923
X144.116Y-101.463
X144.116Y-104.003
X144.116Y-121.783
X144.116Y-124.323
X146.656Y-81.143
X146.656Y-83.683
X146.656Y-86.223
X146.656Y-91.303
X146.656Y-93.843
X146.656Y-96.383
X146.656Y-98.923
X146.656Y-101.463
X146.656Y-104.003
X146.656Y-114.163
X146.656Y-121.783
X146.656Y-124.323
X147.95Y-115.6
X149.0Y-116.25
X149.196Y-81.143
X149.196Y-83.683
X149.196Y-86.223
X149.196Y-91.303
X149.196Y-93.843
X149.196Y-96.383
X149.196Y-98.923
X149.196Y-109.083
X149.196Y-121.783
X149.196Y-124.323
X150.0Y-116.25
X150.59Y-112.03
X150.9Y-116.25
X151.4Y-110.5
X151.736Y-81.143
X151.736Y-83.683
X151.736Y-86.223
X151.736Y-91.303
X151.736Y-93.843
X151.736Y-96.383
X151.736Y-98.923
X151.736Y-109.083
X151.736Y-121.783
X151.736Y-124.323
X151.85Y-116.25
X152.7Y-111.95
X152.8Y-116.2
X153.65Y-116.2
X154.276Y-81.143
X154.276Y-83.683
X154.276Y-86.223
X154.276Y-91.303
X154.276Y-93.843
X154.276Y-96.383
X154.276Y-98.923
X154.276Y-121.783
X154.276Y-124.323
X154.68Y-112.07
X155.69Y-111.63
X156.816Y-81.143
X156.816Y-86.223
X156.816Y-91.303
X156.816Y-98.923
X158.91Y-119.28
X159.17Y-112.13
X159.356Y-81.143
X159.356Y-91.303
X159.356Y-98.923
X159.356Y-101.463
X159.356Y-104.003
X159.356Y-106.543
X159.356Y-109.083
X159.5Y-124.5
X159.51Y-117.67
X161.18Y-116.76
X161.85Y-113.98
X161.88Y-121.09
X161.896Y-81.143
X161.896Y-83.683
X161.896Y-86.223
X161.896Y-88.763
X161.896Y-93.843
X161.896Y-96.383
X161.896Y-98.923
X161.896Y-101.463
X161.896Y-104.003
X161.896Y-106.543
X161.896Y-109.083
X162.1Y-115.9
X162.7Y-110.5
X163.85Y-115.05
X164.436Y-81.143
X164.436Y-93.843
X164.436Y-96.383
X164.436Y-98.923
X164.436Y-101.463
X164.436Y-104.003
X164.436Y-106.543
X164.436Y-109.083
X164.5Y-89.7
X164.95Y-84.9
X165.15Y-85.8
X165.15Y-88.3
X166.25Y-83.1
X166.25Y-90.8
X166.82Y-121.55
X166.976Y-93.843
X166.976Y-96.383
X166.976Y-98.923
X166.976Y-101.463
X166.976Y-104.003
X166.976Y-106.543
X166.976Y-109.083
X166.976Y-111.623
X167.35Y-124.45
X169.516Y-93.843
X169.516Y-96.383
X169.516Y-98.923
X169.516Y-101.463
X169.516Y-104.003
X169.516Y-106.543
X169.516Y-109.083
X169.516Y-111.623
X169.516Y-114.163
X169.516Y-116.703
X169.516Y-124.323
X172.056Y-93.843
X172.056Y-96.383
X172.056Y-98.923
X172.056Y-101.463
X172.056Y-104.003
X172.056Y-106.543
X172.056Y-109.083
X172.056Y-111.623
X172.056Y-114.163
X172.056Y-116.703
X172.056Y-119.243
X172.056Y-121.783
X172.056Y-124.323
T3
X126.61Y-103.057
X129.15Y-103.057
X131.69Y-103.057
X140.965Y-107.89
X143.505Y-107.89
X146.045Y-107.89
X148.75Y-101.725
X151.29Y-101.725
X153.83Y-101.725
X156.37Y-101.725
T2
X167.171Y-81.356G85X167.871Y-81.356
G05
X167.171Y-92.506G85X167.871Y-92.506
G05
X170.621Y-81.326G85X171.621Y-81.326
G05
X170.621Y-92.506G85X171.621Y-92.506
G05
M30
