%TF.GenerationSoftware,KiCad,Pcbnew,8.0.3*%
%TF.CreationDate,2026-05-26T23:36:27-07:00*%
%TF.ProjectId,24p_bw_3p5,3234705f-6277-45f3-9370-352e6b696361,rev?*%
%TF.SameCoordinates,Original*%
%TF.FileFunction,Legend,Top*%
%TF.FilePolarity,Positive*%
%FSLAX46Y46*%
G04 Gerber Fmt 4.6, Leading zero omitted, Abs format (unit mm)*
G04 Created by KiCad (PCBNEW 8.0.3) date 2026-05-26 23:36:27*
%MOMM*%
%LPD*%
G01*
G04 APERTURE LIST*
%ADD10C,0.120000*%
%ADD11C,0.150000*%
%ADD12C,0.100000*%
%ADD13C,0.127000*%
%ADD14C,0.200000*%
%ADD15C,0.050000*%
G04 APERTURE END LIST*
D10*
X132080617Y-93169714D02*
X132469188Y-93169714D01*
X132469188Y-93169714D02*
X132514902Y-93146857D01*
X132514902Y-93146857D02*
X132537760Y-93124000D01*
X132537760Y-93124000D02*
X132560617Y-93078285D01*
X132560617Y-93078285D02*
X132560617Y-92986857D01*
X132560617Y-92986857D02*
X132537760Y-92941142D01*
X132537760Y-92941142D02*
X132514902Y-92918285D01*
X132514902Y-92918285D02*
X132469188Y-92895428D01*
X132469188Y-92895428D02*
X132080617Y-92895428D01*
X132126331Y-92689714D02*
X132103474Y-92666857D01*
X132103474Y-92666857D02*
X132080617Y-92621143D01*
X132080617Y-92621143D02*
X132080617Y-92506857D01*
X132080617Y-92506857D02*
X132103474Y-92461143D01*
X132103474Y-92461143D02*
X132126331Y-92438285D01*
X132126331Y-92438285D02*
X132172045Y-92415428D01*
X132172045Y-92415428D02*
X132217760Y-92415428D01*
X132217760Y-92415428D02*
X132286331Y-92438285D01*
X132286331Y-92438285D02*
X132560617Y-92712571D01*
X132560617Y-92712571D02*
X132560617Y-92415428D01*
D11*
X129274819Y-90456666D02*
X128798628Y-90789999D01*
X129274819Y-91028094D02*
X128274819Y-91028094D01*
X128274819Y-91028094D02*
X128274819Y-90647142D01*
X128274819Y-90647142D02*
X128322438Y-90551904D01*
X128322438Y-90551904D02*
X128370057Y-90504285D01*
X128370057Y-90504285D02*
X128465295Y-90456666D01*
X128465295Y-90456666D02*
X128608152Y-90456666D01*
X128608152Y-90456666D02*
X128703390Y-90504285D01*
X128703390Y-90504285D02*
X128751009Y-90551904D01*
X128751009Y-90551904D02*
X128798628Y-90647142D01*
X128798628Y-90647142D02*
X128798628Y-91028094D01*
X128703390Y-89885237D02*
X128655771Y-89980475D01*
X128655771Y-89980475D02*
X128608152Y-90028094D01*
X128608152Y-90028094D02*
X128512914Y-90075713D01*
X128512914Y-90075713D02*
X128465295Y-90075713D01*
X128465295Y-90075713D02*
X128370057Y-90028094D01*
X128370057Y-90028094D02*
X128322438Y-89980475D01*
X128322438Y-89980475D02*
X128274819Y-89885237D01*
X128274819Y-89885237D02*
X128274819Y-89694761D01*
X128274819Y-89694761D02*
X128322438Y-89599523D01*
X128322438Y-89599523D02*
X128370057Y-89551904D01*
X128370057Y-89551904D02*
X128465295Y-89504285D01*
X128465295Y-89504285D02*
X128512914Y-89504285D01*
X128512914Y-89504285D02*
X128608152Y-89551904D01*
X128608152Y-89551904D02*
X128655771Y-89599523D01*
X128655771Y-89599523D02*
X128703390Y-89694761D01*
X128703390Y-89694761D02*
X128703390Y-89885237D01*
X128703390Y-89885237D02*
X128751009Y-89980475D01*
X128751009Y-89980475D02*
X128798628Y-90028094D01*
X128798628Y-90028094D02*
X128893866Y-90075713D01*
X128893866Y-90075713D02*
X129084342Y-90075713D01*
X129084342Y-90075713D02*
X129179580Y-90028094D01*
X129179580Y-90028094D02*
X129227200Y-89980475D01*
X129227200Y-89980475D02*
X129274819Y-89885237D01*
X129274819Y-89885237D02*
X129274819Y-89694761D01*
X129274819Y-89694761D02*
X129227200Y-89599523D01*
X129227200Y-89599523D02*
X129179580Y-89551904D01*
X129179580Y-89551904D02*
X129084342Y-89504285D01*
X129084342Y-89504285D02*
X128893866Y-89504285D01*
X128893866Y-89504285D02*
X128798628Y-89551904D01*
X128798628Y-89551904D02*
X128751009Y-89599523D01*
X128751009Y-89599523D02*
X128703390Y-89694761D01*
X163143333Y-115254819D02*
X162810000Y-114778628D01*
X162571905Y-115254819D02*
X162571905Y-114254819D01*
X162571905Y-114254819D02*
X162952857Y-114254819D01*
X162952857Y-114254819D02*
X163048095Y-114302438D01*
X163048095Y-114302438D02*
X163095714Y-114350057D01*
X163095714Y-114350057D02*
X163143333Y-114445295D01*
X163143333Y-114445295D02*
X163143333Y-114588152D01*
X163143333Y-114588152D02*
X163095714Y-114683390D01*
X163095714Y-114683390D02*
X163048095Y-114731009D01*
X163048095Y-114731009D02*
X162952857Y-114778628D01*
X162952857Y-114778628D02*
X162571905Y-114778628D01*
X163476667Y-114254819D02*
X164095714Y-114254819D01*
X164095714Y-114254819D02*
X163762381Y-114635771D01*
X163762381Y-114635771D02*
X163905238Y-114635771D01*
X163905238Y-114635771D02*
X164000476Y-114683390D01*
X164000476Y-114683390D02*
X164048095Y-114731009D01*
X164048095Y-114731009D02*
X164095714Y-114826247D01*
X164095714Y-114826247D02*
X164095714Y-115064342D01*
X164095714Y-115064342D02*
X164048095Y-115159580D01*
X164048095Y-115159580D02*
X164000476Y-115207200D01*
X164000476Y-115207200D02*
X163905238Y-115254819D01*
X163905238Y-115254819D02*
X163619524Y-115254819D01*
X163619524Y-115254819D02*
X163524286Y-115207200D01*
X163524286Y-115207200D02*
X163476667Y-115159580D01*
X127093604Y-113071666D02*
X127093604Y-112595476D01*
X127379319Y-113166904D02*
X126379319Y-112833571D01*
X126379319Y-112833571D02*
X127379319Y-112500238D01*
X126855509Y-112166904D02*
X126855509Y-111833571D01*
X127379319Y-111690714D02*
X127379319Y-112166904D01*
X127379319Y-112166904D02*
X126379319Y-112166904D01*
X126379319Y-112166904D02*
X126379319Y-111690714D01*
X126474557Y-111309761D02*
X126426938Y-111262142D01*
X126426938Y-111262142D02*
X126379319Y-111166904D01*
X126379319Y-111166904D02*
X126379319Y-110928809D01*
X126379319Y-110928809D02*
X126426938Y-110833571D01*
X126426938Y-110833571D02*
X126474557Y-110785952D01*
X126474557Y-110785952D02*
X126569795Y-110738333D01*
X126569795Y-110738333D02*
X126665033Y-110738333D01*
X126665033Y-110738333D02*
X126807890Y-110785952D01*
X126807890Y-110785952D02*
X127379319Y-111357380D01*
X127379319Y-111357380D02*
X127379319Y-110738333D01*
X159254819Y-120588094D02*
X158254819Y-120588094D01*
X158254819Y-120588094D02*
X158254819Y-120349999D01*
X158254819Y-120349999D02*
X158302438Y-120207142D01*
X158302438Y-120207142D02*
X158397676Y-120111904D01*
X158397676Y-120111904D02*
X158492914Y-120064285D01*
X158492914Y-120064285D02*
X158683390Y-120016666D01*
X158683390Y-120016666D02*
X158826247Y-120016666D01*
X158826247Y-120016666D02*
X159016723Y-120064285D01*
X159016723Y-120064285D02*
X159111961Y-120111904D01*
X159111961Y-120111904D02*
X159207200Y-120207142D01*
X159207200Y-120207142D02*
X159254819Y-120349999D01*
X159254819Y-120349999D02*
X159254819Y-120588094D01*
X158254819Y-119683332D02*
X158254819Y-119064285D01*
X158254819Y-119064285D02*
X158635771Y-119397618D01*
X158635771Y-119397618D02*
X158635771Y-119254761D01*
X158635771Y-119254761D02*
X158683390Y-119159523D01*
X158683390Y-119159523D02*
X158731009Y-119111904D01*
X158731009Y-119111904D02*
X158826247Y-119064285D01*
X158826247Y-119064285D02*
X159064342Y-119064285D01*
X159064342Y-119064285D02*
X159159580Y-119111904D01*
X159159580Y-119111904D02*
X159207200Y-119159523D01*
X159207200Y-119159523D02*
X159254819Y-119254761D01*
X159254819Y-119254761D02*
X159254819Y-119540475D01*
X159254819Y-119540475D02*
X159207200Y-119635713D01*
X159207200Y-119635713D02*
X159159580Y-119683332D01*
X132614819Y-90436666D02*
X132138628Y-90769999D01*
X132614819Y-91008094D02*
X131614819Y-91008094D01*
X131614819Y-91008094D02*
X131614819Y-90627142D01*
X131614819Y-90627142D02*
X131662438Y-90531904D01*
X131662438Y-90531904D02*
X131710057Y-90484285D01*
X131710057Y-90484285D02*
X131805295Y-90436666D01*
X131805295Y-90436666D02*
X131948152Y-90436666D01*
X131948152Y-90436666D02*
X132043390Y-90484285D01*
X132043390Y-90484285D02*
X132091009Y-90531904D01*
X132091009Y-90531904D02*
X132138628Y-90627142D01*
X132138628Y-90627142D02*
X132138628Y-91008094D01*
X131614819Y-89579523D02*
X131614819Y-89769999D01*
X131614819Y-89769999D02*
X131662438Y-89865237D01*
X131662438Y-89865237D02*
X131710057Y-89912856D01*
X131710057Y-89912856D02*
X131852914Y-90008094D01*
X131852914Y-90008094D02*
X132043390Y-90055713D01*
X132043390Y-90055713D02*
X132424342Y-90055713D01*
X132424342Y-90055713D02*
X132519580Y-90008094D01*
X132519580Y-90008094D02*
X132567200Y-89960475D01*
X132567200Y-89960475D02*
X132614819Y-89865237D01*
X132614819Y-89865237D02*
X132614819Y-89674761D01*
X132614819Y-89674761D02*
X132567200Y-89579523D01*
X132567200Y-89579523D02*
X132519580Y-89531904D01*
X132519580Y-89531904D02*
X132424342Y-89484285D01*
X132424342Y-89484285D02*
X132186247Y-89484285D01*
X132186247Y-89484285D02*
X132091009Y-89531904D01*
X132091009Y-89531904D02*
X132043390Y-89579523D01*
X132043390Y-89579523D02*
X131995771Y-89674761D01*
X131995771Y-89674761D02*
X131995771Y-89865237D01*
X131995771Y-89865237D02*
X132043390Y-89960475D01*
X132043390Y-89960475D02*
X132091009Y-90008094D01*
X132091009Y-90008094D02*
X132186247Y-90055713D01*
X152359580Y-115732857D02*
X152407200Y-115780476D01*
X152407200Y-115780476D02*
X152454819Y-115923333D01*
X152454819Y-115923333D02*
X152454819Y-116018571D01*
X152454819Y-116018571D02*
X152407200Y-116161428D01*
X152407200Y-116161428D02*
X152311961Y-116256666D01*
X152311961Y-116256666D02*
X152216723Y-116304285D01*
X152216723Y-116304285D02*
X152026247Y-116351904D01*
X152026247Y-116351904D02*
X151883390Y-116351904D01*
X151883390Y-116351904D02*
X151692914Y-116304285D01*
X151692914Y-116304285D02*
X151597676Y-116256666D01*
X151597676Y-116256666D02*
X151502438Y-116161428D01*
X151502438Y-116161428D02*
X151454819Y-116018571D01*
X151454819Y-116018571D02*
X151454819Y-115923333D01*
X151454819Y-115923333D02*
X151502438Y-115780476D01*
X151502438Y-115780476D02*
X151550057Y-115732857D01*
X152454819Y-114780476D02*
X152454819Y-115351904D01*
X152454819Y-115066190D02*
X151454819Y-115066190D01*
X151454819Y-115066190D02*
X151597676Y-115161428D01*
X151597676Y-115161428D02*
X151692914Y-115256666D01*
X151692914Y-115256666D02*
X151740533Y-115351904D01*
X151550057Y-114399523D02*
X151502438Y-114351904D01*
X151502438Y-114351904D02*
X151454819Y-114256666D01*
X151454819Y-114256666D02*
X151454819Y-114018571D01*
X151454819Y-114018571D02*
X151502438Y-113923333D01*
X151502438Y-113923333D02*
X151550057Y-113875714D01*
X151550057Y-113875714D02*
X151645295Y-113828095D01*
X151645295Y-113828095D02*
X151740533Y-113828095D01*
X151740533Y-113828095D02*
X151883390Y-113875714D01*
X151883390Y-113875714D02*
X152454819Y-114447142D01*
X152454819Y-114447142D02*
X152454819Y-113828095D01*
X165820057Y-118915238D02*
X165772438Y-119010476D01*
X165772438Y-119010476D02*
X165677200Y-119105714D01*
X165677200Y-119105714D02*
X165534342Y-119248571D01*
X165534342Y-119248571D02*
X165486723Y-119343809D01*
X165486723Y-119343809D02*
X165486723Y-119439047D01*
X165724819Y-119391428D02*
X165677200Y-119486666D01*
X165677200Y-119486666D02*
X165581961Y-119581904D01*
X165581961Y-119581904D02*
X165391485Y-119629523D01*
X165391485Y-119629523D02*
X165058152Y-119629523D01*
X165058152Y-119629523D02*
X164867676Y-119581904D01*
X164867676Y-119581904D02*
X164772438Y-119486666D01*
X164772438Y-119486666D02*
X164724819Y-119391428D01*
X164724819Y-119391428D02*
X164724819Y-119200952D01*
X164724819Y-119200952D02*
X164772438Y-119105714D01*
X164772438Y-119105714D02*
X164867676Y-119010476D01*
X164867676Y-119010476D02*
X165058152Y-118962857D01*
X165058152Y-118962857D02*
X165391485Y-118962857D01*
X165391485Y-118962857D02*
X165581961Y-119010476D01*
X165581961Y-119010476D02*
X165677200Y-119105714D01*
X165677200Y-119105714D02*
X165724819Y-119200952D01*
X165724819Y-119200952D02*
X165724819Y-119391428D01*
X165724819Y-118010476D02*
X165724819Y-118581904D01*
X165724819Y-118296190D02*
X164724819Y-118296190D01*
X164724819Y-118296190D02*
X164867676Y-118391428D01*
X164867676Y-118391428D02*
X164962914Y-118486666D01*
X164962914Y-118486666D02*
X165010533Y-118581904D01*
X168869580Y-123982857D02*
X168917200Y-124030476D01*
X168917200Y-124030476D02*
X168964819Y-124173333D01*
X168964819Y-124173333D02*
X168964819Y-124268571D01*
X168964819Y-124268571D02*
X168917200Y-124411428D01*
X168917200Y-124411428D02*
X168821961Y-124506666D01*
X168821961Y-124506666D02*
X168726723Y-124554285D01*
X168726723Y-124554285D02*
X168536247Y-124601904D01*
X168536247Y-124601904D02*
X168393390Y-124601904D01*
X168393390Y-124601904D02*
X168202914Y-124554285D01*
X168202914Y-124554285D02*
X168107676Y-124506666D01*
X168107676Y-124506666D02*
X168012438Y-124411428D01*
X168012438Y-124411428D02*
X167964819Y-124268571D01*
X167964819Y-124268571D02*
X167964819Y-124173333D01*
X167964819Y-124173333D02*
X168012438Y-124030476D01*
X168012438Y-124030476D02*
X168060057Y-123982857D01*
X168964819Y-123030476D02*
X168964819Y-123601904D01*
X168964819Y-123316190D02*
X167964819Y-123316190D01*
X167964819Y-123316190D02*
X168107676Y-123411428D01*
X168107676Y-123411428D02*
X168202914Y-123506666D01*
X168202914Y-123506666D02*
X168250533Y-123601904D01*
X167964819Y-122125714D02*
X167964819Y-122601904D01*
X167964819Y-122601904D02*
X168441009Y-122649523D01*
X168441009Y-122649523D02*
X168393390Y-122601904D01*
X168393390Y-122601904D02*
X168345771Y-122506666D01*
X168345771Y-122506666D02*
X168345771Y-122268571D01*
X168345771Y-122268571D02*
X168393390Y-122173333D01*
X168393390Y-122173333D02*
X168441009Y-122125714D01*
X168441009Y-122125714D02*
X168536247Y-122078095D01*
X168536247Y-122078095D02*
X168774342Y-122078095D01*
X168774342Y-122078095D02*
X168869580Y-122125714D01*
X168869580Y-122125714D02*
X168917200Y-122173333D01*
X168917200Y-122173333D02*
X168964819Y-122268571D01*
X168964819Y-122268571D02*
X168964819Y-122506666D01*
X168964819Y-122506666D02*
X168917200Y-122601904D01*
X168917200Y-122601904D02*
X168869580Y-122649523D01*
X154239580Y-115732857D02*
X154287200Y-115780476D01*
X154287200Y-115780476D02*
X154334819Y-115923333D01*
X154334819Y-115923333D02*
X154334819Y-116018571D01*
X154334819Y-116018571D02*
X154287200Y-116161428D01*
X154287200Y-116161428D02*
X154191961Y-116256666D01*
X154191961Y-116256666D02*
X154096723Y-116304285D01*
X154096723Y-116304285D02*
X153906247Y-116351904D01*
X153906247Y-116351904D02*
X153763390Y-116351904D01*
X153763390Y-116351904D02*
X153572914Y-116304285D01*
X153572914Y-116304285D02*
X153477676Y-116256666D01*
X153477676Y-116256666D02*
X153382438Y-116161428D01*
X153382438Y-116161428D02*
X153334819Y-116018571D01*
X153334819Y-116018571D02*
X153334819Y-115923333D01*
X153334819Y-115923333D02*
X153382438Y-115780476D01*
X153382438Y-115780476D02*
X153430057Y-115732857D01*
X154334819Y-114780476D02*
X154334819Y-115351904D01*
X154334819Y-115066190D02*
X153334819Y-115066190D01*
X153334819Y-115066190D02*
X153477676Y-115161428D01*
X153477676Y-115161428D02*
X153572914Y-115256666D01*
X153572914Y-115256666D02*
X153620533Y-115351904D01*
X153334819Y-114161428D02*
X153334819Y-114066190D01*
X153334819Y-114066190D02*
X153382438Y-113970952D01*
X153382438Y-113970952D02*
X153430057Y-113923333D01*
X153430057Y-113923333D02*
X153525295Y-113875714D01*
X153525295Y-113875714D02*
X153715771Y-113828095D01*
X153715771Y-113828095D02*
X153953866Y-113828095D01*
X153953866Y-113828095D02*
X154144342Y-113875714D01*
X154144342Y-113875714D02*
X154239580Y-113923333D01*
X154239580Y-113923333D02*
X154287200Y-113970952D01*
X154287200Y-113970952D02*
X154334819Y-114066190D01*
X154334819Y-114066190D02*
X154334819Y-114161428D01*
X154334819Y-114161428D02*
X154287200Y-114256666D01*
X154287200Y-114256666D02*
X154239580Y-114304285D01*
X154239580Y-114304285D02*
X154144342Y-114351904D01*
X154144342Y-114351904D02*
X153953866Y-114399523D01*
X153953866Y-114399523D02*
X153715771Y-114399523D01*
X153715771Y-114399523D02*
X153525295Y-114351904D01*
X153525295Y-114351904D02*
X153430057Y-114304285D01*
X153430057Y-114304285D02*
X153382438Y-114256666D01*
X153382438Y-114256666D02*
X153334819Y-114161428D01*
X163637142Y-123599580D02*
X163589523Y-123647200D01*
X163589523Y-123647200D02*
X163446666Y-123694819D01*
X163446666Y-123694819D02*
X163351428Y-123694819D01*
X163351428Y-123694819D02*
X163208571Y-123647200D01*
X163208571Y-123647200D02*
X163113333Y-123551961D01*
X163113333Y-123551961D02*
X163065714Y-123456723D01*
X163065714Y-123456723D02*
X163018095Y-123266247D01*
X163018095Y-123266247D02*
X163018095Y-123123390D01*
X163018095Y-123123390D02*
X163065714Y-122932914D01*
X163065714Y-122932914D02*
X163113333Y-122837676D01*
X163113333Y-122837676D02*
X163208571Y-122742438D01*
X163208571Y-122742438D02*
X163351428Y-122694819D01*
X163351428Y-122694819D02*
X163446666Y-122694819D01*
X163446666Y-122694819D02*
X163589523Y-122742438D01*
X163589523Y-122742438D02*
X163637142Y-122790057D01*
X164589523Y-123694819D02*
X164018095Y-123694819D01*
X164303809Y-123694819D02*
X164303809Y-122694819D01*
X164303809Y-122694819D02*
X164208571Y-122837676D01*
X164208571Y-122837676D02*
X164113333Y-122932914D01*
X164113333Y-122932914D02*
X164018095Y-122980533D01*
X165446666Y-123028152D02*
X165446666Y-123694819D01*
X165208571Y-122647200D02*
X164970476Y-123361485D01*
X164970476Y-123361485D02*
X165589523Y-123361485D01*
X132614819Y-103640833D02*
X133329104Y-103640833D01*
X133329104Y-103640833D02*
X133471961Y-103688452D01*
X133471961Y-103688452D02*
X133567200Y-103783690D01*
X133567200Y-103783690D02*
X133614819Y-103926547D01*
X133614819Y-103926547D02*
X133614819Y-104021785D01*
X132614819Y-102688452D02*
X132614819Y-103164642D01*
X132614819Y-103164642D02*
X133091009Y-103212261D01*
X133091009Y-103212261D02*
X133043390Y-103164642D01*
X133043390Y-103164642D02*
X132995771Y-103069404D01*
X132995771Y-103069404D02*
X132995771Y-102831309D01*
X132995771Y-102831309D02*
X133043390Y-102736071D01*
X133043390Y-102736071D02*
X133091009Y-102688452D01*
X133091009Y-102688452D02*
X133186247Y-102640833D01*
X133186247Y-102640833D02*
X133424342Y-102640833D01*
X133424342Y-102640833D02*
X133519580Y-102688452D01*
X133519580Y-102688452D02*
X133567200Y-102736071D01*
X133567200Y-102736071D02*
X133614819Y-102831309D01*
X133614819Y-102831309D02*
X133614819Y-103069404D01*
X133614819Y-103069404D02*
X133567200Y-103164642D01*
X133567200Y-103164642D02*
X133519580Y-103212261D01*
X162939580Y-115992857D02*
X162987200Y-116040476D01*
X162987200Y-116040476D02*
X163034819Y-116183333D01*
X163034819Y-116183333D02*
X163034819Y-116278571D01*
X163034819Y-116278571D02*
X162987200Y-116421428D01*
X162987200Y-116421428D02*
X162891961Y-116516666D01*
X162891961Y-116516666D02*
X162796723Y-116564285D01*
X162796723Y-116564285D02*
X162606247Y-116611904D01*
X162606247Y-116611904D02*
X162463390Y-116611904D01*
X162463390Y-116611904D02*
X162272914Y-116564285D01*
X162272914Y-116564285D02*
X162177676Y-116516666D01*
X162177676Y-116516666D02*
X162082438Y-116421428D01*
X162082438Y-116421428D02*
X162034819Y-116278571D01*
X162034819Y-116278571D02*
X162034819Y-116183333D01*
X162034819Y-116183333D02*
X162082438Y-116040476D01*
X162082438Y-116040476D02*
X162130057Y-115992857D01*
X163034819Y-115040476D02*
X163034819Y-115611904D01*
X163034819Y-115326190D02*
X162034819Y-115326190D01*
X162034819Y-115326190D02*
X162177676Y-115421428D01*
X162177676Y-115421428D02*
X162272914Y-115516666D01*
X162272914Y-115516666D02*
X162320533Y-115611904D01*
X163034819Y-114088095D02*
X163034819Y-114659523D01*
X163034819Y-114373809D02*
X162034819Y-114373809D01*
X162034819Y-114373809D02*
X162177676Y-114469047D01*
X162177676Y-114469047D02*
X162272914Y-114564285D01*
X162272914Y-114564285D02*
X162320533Y-114659523D01*
X133909580Y-92442857D02*
X133957200Y-92490476D01*
X133957200Y-92490476D02*
X134004819Y-92633333D01*
X134004819Y-92633333D02*
X134004819Y-92728571D01*
X134004819Y-92728571D02*
X133957200Y-92871428D01*
X133957200Y-92871428D02*
X133861961Y-92966666D01*
X133861961Y-92966666D02*
X133766723Y-93014285D01*
X133766723Y-93014285D02*
X133576247Y-93061904D01*
X133576247Y-93061904D02*
X133433390Y-93061904D01*
X133433390Y-93061904D02*
X133242914Y-93014285D01*
X133242914Y-93014285D02*
X133147676Y-92966666D01*
X133147676Y-92966666D02*
X133052438Y-92871428D01*
X133052438Y-92871428D02*
X133004819Y-92728571D01*
X133004819Y-92728571D02*
X133004819Y-92633333D01*
X133004819Y-92633333D02*
X133052438Y-92490476D01*
X133052438Y-92490476D02*
X133100057Y-92442857D01*
X134004819Y-91490476D02*
X134004819Y-92061904D01*
X134004819Y-91776190D02*
X133004819Y-91776190D01*
X133004819Y-91776190D02*
X133147676Y-91871428D01*
X133147676Y-91871428D02*
X133242914Y-91966666D01*
X133242914Y-91966666D02*
X133290533Y-92061904D01*
X133004819Y-90633333D02*
X133004819Y-90823809D01*
X133004819Y-90823809D02*
X133052438Y-90919047D01*
X133052438Y-90919047D02*
X133100057Y-90966666D01*
X133100057Y-90966666D02*
X133242914Y-91061904D01*
X133242914Y-91061904D02*
X133433390Y-91109523D01*
X133433390Y-91109523D02*
X133814342Y-91109523D01*
X133814342Y-91109523D02*
X133909580Y-91061904D01*
X133909580Y-91061904D02*
X133957200Y-91014285D01*
X133957200Y-91014285D02*
X134004819Y-90919047D01*
X134004819Y-90919047D02*
X134004819Y-90728571D01*
X134004819Y-90728571D02*
X133957200Y-90633333D01*
X133957200Y-90633333D02*
X133909580Y-90585714D01*
X133909580Y-90585714D02*
X133814342Y-90538095D01*
X133814342Y-90538095D02*
X133576247Y-90538095D01*
X133576247Y-90538095D02*
X133481009Y-90585714D01*
X133481009Y-90585714D02*
X133433390Y-90633333D01*
X133433390Y-90633333D02*
X133385771Y-90728571D01*
X133385771Y-90728571D02*
X133385771Y-90919047D01*
X133385771Y-90919047D02*
X133433390Y-91014285D01*
X133433390Y-91014285D02*
X133481009Y-91061904D01*
X133481009Y-91061904D02*
X133576247Y-91109523D01*
X161939580Y-115516666D02*
X161987200Y-115564285D01*
X161987200Y-115564285D02*
X162034819Y-115707142D01*
X162034819Y-115707142D02*
X162034819Y-115802380D01*
X162034819Y-115802380D02*
X161987200Y-115945237D01*
X161987200Y-115945237D02*
X161891961Y-116040475D01*
X161891961Y-116040475D02*
X161796723Y-116088094D01*
X161796723Y-116088094D02*
X161606247Y-116135713D01*
X161606247Y-116135713D02*
X161463390Y-116135713D01*
X161463390Y-116135713D02*
X161272914Y-116088094D01*
X161272914Y-116088094D02*
X161177676Y-116040475D01*
X161177676Y-116040475D02*
X161082438Y-115945237D01*
X161082438Y-115945237D02*
X161034819Y-115802380D01*
X161034819Y-115802380D02*
X161034819Y-115707142D01*
X161034819Y-115707142D02*
X161082438Y-115564285D01*
X161082438Y-115564285D02*
X161130057Y-115516666D01*
X161034819Y-114611904D02*
X161034819Y-115088094D01*
X161034819Y-115088094D02*
X161511009Y-115135713D01*
X161511009Y-115135713D02*
X161463390Y-115088094D01*
X161463390Y-115088094D02*
X161415771Y-114992856D01*
X161415771Y-114992856D02*
X161415771Y-114754761D01*
X161415771Y-114754761D02*
X161463390Y-114659523D01*
X161463390Y-114659523D02*
X161511009Y-114611904D01*
X161511009Y-114611904D02*
X161606247Y-114564285D01*
X161606247Y-114564285D02*
X161844342Y-114564285D01*
X161844342Y-114564285D02*
X161939580Y-114611904D01*
X161939580Y-114611904D02*
X161987200Y-114659523D01*
X161987200Y-114659523D02*
X162034819Y-114754761D01*
X162034819Y-114754761D02*
X162034819Y-114992856D01*
X162034819Y-114992856D02*
X161987200Y-115088094D01*
X161987200Y-115088094D02*
X161939580Y-115135713D01*
X161694667Y-114144676D02*
X161694667Y-114601819D01*
X161694667Y-114601819D02*
X161664190Y-114693247D01*
X161664190Y-114693247D02*
X161603238Y-114754200D01*
X161603238Y-114754200D02*
X161511809Y-114784676D01*
X161511809Y-114784676D02*
X161450857Y-114784676D01*
X162334667Y-114784676D02*
X161968952Y-114784676D01*
X162151809Y-114784676D02*
X162151809Y-114144676D01*
X162151809Y-114144676D02*
X162090857Y-114236104D01*
X162090857Y-114236104D02*
X162029905Y-114297057D01*
X162029905Y-114297057D02*
X161968952Y-114327533D01*
X132714819Y-95336666D02*
X132238628Y-95669999D01*
X132714819Y-95908094D02*
X131714819Y-95908094D01*
X131714819Y-95908094D02*
X131714819Y-95527142D01*
X131714819Y-95527142D02*
X131762438Y-95431904D01*
X131762438Y-95431904D02*
X131810057Y-95384285D01*
X131810057Y-95384285D02*
X131905295Y-95336666D01*
X131905295Y-95336666D02*
X132048152Y-95336666D01*
X132048152Y-95336666D02*
X132143390Y-95384285D01*
X132143390Y-95384285D02*
X132191009Y-95431904D01*
X132191009Y-95431904D02*
X132238628Y-95527142D01*
X132238628Y-95527142D02*
X132238628Y-95908094D01*
X131714819Y-95003332D02*
X131714819Y-94336666D01*
X131714819Y-94336666D02*
X132714819Y-94765237D01*
X160543333Y-119294819D02*
X160210000Y-118818628D01*
X159971905Y-119294819D02*
X159971905Y-118294819D01*
X159971905Y-118294819D02*
X160352857Y-118294819D01*
X160352857Y-118294819D02*
X160448095Y-118342438D01*
X160448095Y-118342438D02*
X160495714Y-118390057D01*
X160495714Y-118390057D02*
X160543333Y-118485295D01*
X160543333Y-118485295D02*
X160543333Y-118628152D01*
X160543333Y-118628152D02*
X160495714Y-118723390D01*
X160495714Y-118723390D02*
X160448095Y-118771009D01*
X160448095Y-118771009D02*
X160352857Y-118818628D01*
X160352857Y-118818628D02*
X159971905Y-118818628D01*
X161495714Y-119294819D02*
X160924286Y-119294819D01*
X161210000Y-119294819D02*
X161210000Y-118294819D01*
X161210000Y-118294819D02*
X161114762Y-118437676D01*
X161114762Y-118437676D02*
X161019524Y-118532914D01*
X161019524Y-118532914D02*
X160924286Y-118580533D01*
X153289580Y-115256666D02*
X153337200Y-115304285D01*
X153337200Y-115304285D02*
X153384819Y-115447142D01*
X153384819Y-115447142D02*
X153384819Y-115542380D01*
X153384819Y-115542380D02*
X153337200Y-115685237D01*
X153337200Y-115685237D02*
X153241961Y-115780475D01*
X153241961Y-115780475D02*
X153146723Y-115828094D01*
X153146723Y-115828094D02*
X152956247Y-115875713D01*
X152956247Y-115875713D02*
X152813390Y-115875713D01*
X152813390Y-115875713D02*
X152622914Y-115828094D01*
X152622914Y-115828094D02*
X152527676Y-115780475D01*
X152527676Y-115780475D02*
X152432438Y-115685237D01*
X152432438Y-115685237D02*
X152384819Y-115542380D01*
X152384819Y-115542380D02*
X152384819Y-115447142D01*
X152384819Y-115447142D02*
X152432438Y-115304285D01*
X152432438Y-115304285D02*
X152480057Y-115256666D01*
X152718152Y-114399523D02*
X153384819Y-114399523D01*
X152337200Y-114637618D02*
X153051485Y-114875713D01*
X153051485Y-114875713D02*
X153051485Y-114256666D01*
X155179580Y-115732857D02*
X155227200Y-115780476D01*
X155227200Y-115780476D02*
X155274819Y-115923333D01*
X155274819Y-115923333D02*
X155274819Y-116018571D01*
X155274819Y-116018571D02*
X155227200Y-116161428D01*
X155227200Y-116161428D02*
X155131961Y-116256666D01*
X155131961Y-116256666D02*
X155036723Y-116304285D01*
X155036723Y-116304285D02*
X154846247Y-116351904D01*
X154846247Y-116351904D02*
X154703390Y-116351904D01*
X154703390Y-116351904D02*
X154512914Y-116304285D01*
X154512914Y-116304285D02*
X154417676Y-116256666D01*
X154417676Y-116256666D02*
X154322438Y-116161428D01*
X154322438Y-116161428D02*
X154274819Y-116018571D01*
X154274819Y-116018571D02*
X154274819Y-115923333D01*
X154274819Y-115923333D02*
X154322438Y-115780476D01*
X154322438Y-115780476D02*
X154370057Y-115732857D01*
X155274819Y-114780476D02*
X155274819Y-115351904D01*
X155274819Y-115066190D02*
X154274819Y-115066190D01*
X154274819Y-115066190D02*
X154417676Y-115161428D01*
X154417676Y-115161428D02*
X154512914Y-115256666D01*
X154512914Y-115256666D02*
X154560533Y-115351904D01*
X154274819Y-114447142D02*
X154274819Y-113828095D01*
X154274819Y-113828095D02*
X154655771Y-114161428D01*
X154655771Y-114161428D02*
X154655771Y-114018571D01*
X154655771Y-114018571D02*
X154703390Y-113923333D01*
X154703390Y-113923333D02*
X154751009Y-113875714D01*
X154751009Y-113875714D02*
X154846247Y-113828095D01*
X154846247Y-113828095D02*
X155084342Y-113828095D01*
X155084342Y-113828095D02*
X155179580Y-113875714D01*
X155179580Y-113875714D02*
X155227200Y-113923333D01*
X155227200Y-113923333D02*
X155274819Y-114018571D01*
X155274819Y-114018571D02*
X155274819Y-114304285D01*
X155274819Y-114304285D02*
X155227200Y-114399523D01*
X155227200Y-114399523D02*
X155179580Y-114447142D01*
X130458628Y-117396190D02*
X130934819Y-117396190D01*
X129934819Y-117729523D02*
X130458628Y-117396190D01*
X130458628Y-117396190D02*
X129934819Y-117062857D01*
X130030057Y-116777142D02*
X129982438Y-116729523D01*
X129982438Y-116729523D02*
X129934819Y-116634285D01*
X129934819Y-116634285D02*
X129934819Y-116396190D01*
X129934819Y-116396190D02*
X129982438Y-116300952D01*
X129982438Y-116300952D02*
X130030057Y-116253333D01*
X130030057Y-116253333D02*
X130125295Y-116205714D01*
X130125295Y-116205714D02*
X130220533Y-116205714D01*
X130220533Y-116205714D02*
X130363390Y-116253333D01*
X130363390Y-116253333D02*
X130934819Y-116824761D01*
X130934819Y-116824761D02*
X130934819Y-116205714D01*
X160601905Y-122984819D02*
X160601905Y-121984819D01*
X160601905Y-121984819D02*
X160840000Y-121984819D01*
X160840000Y-121984819D02*
X160982857Y-122032438D01*
X160982857Y-122032438D02*
X161078095Y-122127676D01*
X161078095Y-122127676D02*
X161125714Y-122222914D01*
X161125714Y-122222914D02*
X161173333Y-122413390D01*
X161173333Y-122413390D02*
X161173333Y-122556247D01*
X161173333Y-122556247D02*
X161125714Y-122746723D01*
X161125714Y-122746723D02*
X161078095Y-122841961D01*
X161078095Y-122841961D02*
X160982857Y-122937200D01*
X160982857Y-122937200D02*
X160840000Y-122984819D01*
X160840000Y-122984819D02*
X160601905Y-122984819D01*
X161554286Y-122080057D02*
X161601905Y-122032438D01*
X161601905Y-122032438D02*
X161697143Y-121984819D01*
X161697143Y-121984819D02*
X161935238Y-121984819D01*
X161935238Y-121984819D02*
X162030476Y-122032438D01*
X162030476Y-122032438D02*
X162078095Y-122080057D01*
X162078095Y-122080057D02*
X162125714Y-122175295D01*
X162125714Y-122175295D02*
X162125714Y-122270533D01*
X162125714Y-122270533D02*
X162078095Y-122413390D01*
X162078095Y-122413390D02*
X161506667Y-122984819D01*
X161506667Y-122984819D02*
X162125714Y-122984819D01*
X163101905Y-120484819D02*
X163101905Y-119484819D01*
X163101905Y-119484819D02*
X163340000Y-119484819D01*
X163340000Y-119484819D02*
X163482857Y-119532438D01*
X163482857Y-119532438D02*
X163578095Y-119627676D01*
X163578095Y-119627676D02*
X163625714Y-119722914D01*
X163625714Y-119722914D02*
X163673333Y-119913390D01*
X163673333Y-119913390D02*
X163673333Y-120056247D01*
X163673333Y-120056247D02*
X163625714Y-120246723D01*
X163625714Y-120246723D02*
X163578095Y-120341961D01*
X163578095Y-120341961D02*
X163482857Y-120437200D01*
X163482857Y-120437200D02*
X163340000Y-120484819D01*
X163340000Y-120484819D02*
X163101905Y-120484819D01*
X164625714Y-120484819D02*
X164054286Y-120484819D01*
X164340000Y-120484819D02*
X164340000Y-119484819D01*
X164340000Y-119484819D02*
X164244762Y-119627676D01*
X164244762Y-119627676D02*
X164149524Y-119722914D01*
X164149524Y-119722914D02*
X164054286Y-119770533D01*
X151429580Y-115256666D02*
X151477200Y-115304285D01*
X151477200Y-115304285D02*
X151524819Y-115447142D01*
X151524819Y-115447142D02*
X151524819Y-115542380D01*
X151524819Y-115542380D02*
X151477200Y-115685237D01*
X151477200Y-115685237D02*
X151381961Y-115780475D01*
X151381961Y-115780475D02*
X151286723Y-115828094D01*
X151286723Y-115828094D02*
X151096247Y-115875713D01*
X151096247Y-115875713D02*
X150953390Y-115875713D01*
X150953390Y-115875713D02*
X150762914Y-115828094D01*
X150762914Y-115828094D02*
X150667676Y-115780475D01*
X150667676Y-115780475D02*
X150572438Y-115685237D01*
X150572438Y-115685237D02*
X150524819Y-115542380D01*
X150524819Y-115542380D02*
X150524819Y-115447142D01*
X150524819Y-115447142D02*
X150572438Y-115304285D01*
X150572438Y-115304285D02*
X150620057Y-115256666D01*
X150524819Y-114923332D02*
X150524819Y-114256666D01*
X150524819Y-114256666D02*
X151524819Y-114685237D01*
X138089819Y-108223333D02*
X138804104Y-108223333D01*
X138804104Y-108223333D02*
X138946961Y-108270952D01*
X138946961Y-108270952D02*
X139042200Y-108366190D01*
X139042200Y-108366190D02*
X139089819Y-108509047D01*
X139089819Y-108509047D02*
X139089819Y-108604285D01*
X138089819Y-107318571D02*
X138089819Y-107509047D01*
X138089819Y-107509047D02*
X138137438Y-107604285D01*
X138137438Y-107604285D02*
X138185057Y-107651904D01*
X138185057Y-107651904D02*
X138327914Y-107747142D01*
X138327914Y-107747142D02*
X138518390Y-107794761D01*
X138518390Y-107794761D02*
X138899342Y-107794761D01*
X138899342Y-107794761D02*
X138994580Y-107747142D01*
X138994580Y-107747142D02*
X139042200Y-107699523D01*
X139042200Y-107699523D02*
X139089819Y-107604285D01*
X139089819Y-107604285D02*
X139089819Y-107413809D01*
X139089819Y-107413809D02*
X139042200Y-107318571D01*
X139042200Y-107318571D02*
X138994580Y-107270952D01*
X138994580Y-107270952D02*
X138899342Y-107223333D01*
X138899342Y-107223333D02*
X138661247Y-107223333D01*
X138661247Y-107223333D02*
X138566009Y-107270952D01*
X138566009Y-107270952D02*
X138518390Y-107318571D01*
X138518390Y-107318571D02*
X138470771Y-107413809D01*
X138470771Y-107413809D02*
X138470771Y-107604285D01*
X138470771Y-107604285D02*
X138518390Y-107699523D01*
X138518390Y-107699523D02*
X138566009Y-107747142D01*
X138566009Y-107747142D02*
X138661247Y-107794761D01*
X131589580Y-94342857D02*
X131637200Y-94390476D01*
X131637200Y-94390476D02*
X131684819Y-94533333D01*
X131684819Y-94533333D02*
X131684819Y-94628571D01*
X131684819Y-94628571D02*
X131637200Y-94771428D01*
X131637200Y-94771428D02*
X131541961Y-94866666D01*
X131541961Y-94866666D02*
X131446723Y-94914285D01*
X131446723Y-94914285D02*
X131256247Y-94961904D01*
X131256247Y-94961904D02*
X131113390Y-94961904D01*
X131113390Y-94961904D02*
X130922914Y-94914285D01*
X130922914Y-94914285D02*
X130827676Y-94866666D01*
X130827676Y-94866666D02*
X130732438Y-94771428D01*
X130732438Y-94771428D02*
X130684819Y-94628571D01*
X130684819Y-94628571D02*
X130684819Y-94533333D01*
X130684819Y-94533333D02*
X130732438Y-94390476D01*
X130732438Y-94390476D02*
X130780057Y-94342857D01*
X131684819Y-93390476D02*
X131684819Y-93961904D01*
X131684819Y-93676190D02*
X130684819Y-93676190D01*
X130684819Y-93676190D02*
X130827676Y-93771428D01*
X130827676Y-93771428D02*
X130922914Y-93866666D01*
X130922914Y-93866666D02*
X130970533Y-93961904D01*
X131113390Y-92819047D02*
X131065771Y-92914285D01*
X131065771Y-92914285D02*
X131018152Y-92961904D01*
X131018152Y-92961904D02*
X130922914Y-93009523D01*
X130922914Y-93009523D02*
X130875295Y-93009523D01*
X130875295Y-93009523D02*
X130780057Y-92961904D01*
X130780057Y-92961904D02*
X130732438Y-92914285D01*
X130732438Y-92914285D02*
X130684819Y-92819047D01*
X130684819Y-92819047D02*
X130684819Y-92628571D01*
X130684819Y-92628571D02*
X130732438Y-92533333D01*
X130732438Y-92533333D02*
X130780057Y-92485714D01*
X130780057Y-92485714D02*
X130875295Y-92438095D01*
X130875295Y-92438095D02*
X130922914Y-92438095D01*
X130922914Y-92438095D02*
X131018152Y-92485714D01*
X131018152Y-92485714D02*
X131065771Y-92533333D01*
X131065771Y-92533333D02*
X131113390Y-92628571D01*
X131113390Y-92628571D02*
X131113390Y-92819047D01*
X131113390Y-92819047D02*
X131161009Y-92914285D01*
X131161009Y-92914285D02*
X131208628Y-92961904D01*
X131208628Y-92961904D02*
X131303866Y-93009523D01*
X131303866Y-93009523D02*
X131494342Y-93009523D01*
X131494342Y-93009523D02*
X131589580Y-92961904D01*
X131589580Y-92961904D02*
X131637200Y-92914285D01*
X131637200Y-92914285D02*
X131684819Y-92819047D01*
X131684819Y-92819047D02*
X131684819Y-92628571D01*
X131684819Y-92628571D02*
X131637200Y-92533333D01*
X131637200Y-92533333D02*
X131589580Y-92485714D01*
X131589580Y-92485714D02*
X131494342Y-92438095D01*
X131494342Y-92438095D02*
X131303866Y-92438095D01*
X131303866Y-92438095D02*
X131208628Y-92485714D01*
X131208628Y-92485714D02*
X131161009Y-92533333D01*
X131161009Y-92533333D02*
X131113390Y-92628571D01*
X145874819Y-102058333D02*
X146589104Y-102058333D01*
X146589104Y-102058333D02*
X146731961Y-102105952D01*
X146731961Y-102105952D02*
X146827200Y-102201190D01*
X146827200Y-102201190D02*
X146874819Y-102344047D01*
X146874819Y-102344047D02*
X146874819Y-102439285D01*
X146208152Y-101153571D02*
X146874819Y-101153571D01*
X145827200Y-101391666D02*
X146541485Y-101629761D01*
X146541485Y-101629761D02*
X146541485Y-101010714D01*
X169223333Y-117384819D02*
X168747143Y-117384819D01*
X168747143Y-117384819D02*
X168747143Y-116384819D01*
X169985238Y-116718152D02*
X169985238Y-117384819D01*
X169747143Y-116337200D02*
X169509048Y-117051485D01*
X169509048Y-117051485D02*
X170128095Y-117051485D01*
D12*
X160378245Y-86784544D02*
X161092530Y-86784544D01*
X161092530Y-86784544D02*
X161235387Y-86832163D01*
X161235387Y-86832163D02*
X161330626Y-86927401D01*
X161330626Y-86927401D02*
X161378245Y-87070258D01*
X161378245Y-87070258D02*
X161378245Y-87165496D01*
X160473483Y-86355972D02*
X160425864Y-86308353D01*
X160425864Y-86308353D02*
X160378245Y-86213115D01*
X160378245Y-86213115D02*
X160378245Y-85975020D01*
X160378245Y-85975020D02*
X160425864Y-85879782D01*
X160425864Y-85879782D02*
X160473483Y-85832163D01*
X160473483Y-85832163D02*
X160568721Y-85784544D01*
X160568721Y-85784544D02*
X160663959Y-85784544D01*
X160663959Y-85784544D02*
X160806816Y-85832163D01*
X160806816Y-85832163D02*
X161378245Y-86403591D01*
X161378245Y-86403591D02*
X161378245Y-85784544D01*
D11*
X150489580Y-115256666D02*
X150537200Y-115304285D01*
X150537200Y-115304285D02*
X150584819Y-115447142D01*
X150584819Y-115447142D02*
X150584819Y-115542380D01*
X150584819Y-115542380D02*
X150537200Y-115685237D01*
X150537200Y-115685237D02*
X150441961Y-115780475D01*
X150441961Y-115780475D02*
X150346723Y-115828094D01*
X150346723Y-115828094D02*
X150156247Y-115875713D01*
X150156247Y-115875713D02*
X150013390Y-115875713D01*
X150013390Y-115875713D02*
X149822914Y-115828094D01*
X149822914Y-115828094D02*
X149727676Y-115780475D01*
X149727676Y-115780475D02*
X149632438Y-115685237D01*
X149632438Y-115685237D02*
X149584819Y-115542380D01*
X149584819Y-115542380D02*
X149584819Y-115447142D01*
X149584819Y-115447142D02*
X149632438Y-115304285D01*
X149632438Y-115304285D02*
X149680057Y-115256666D01*
X149584819Y-114923332D02*
X149584819Y-114304285D01*
X149584819Y-114304285D02*
X149965771Y-114637618D01*
X149965771Y-114637618D02*
X149965771Y-114494761D01*
X149965771Y-114494761D02*
X150013390Y-114399523D01*
X150013390Y-114399523D02*
X150061009Y-114351904D01*
X150061009Y-114351904D02*
X150156247Y-114304285D01*
X150156247Y-114304285D02*
X150394342Y-114304285D01*
X150394342Y-114304285D02*
X150489580Y-114351904D01*
X150489580Y-114351904D02*
X150537200Y-114399523D01*
X150537200Y-114399523D02*
X150584819Y-114494761D01*
X150584819Y-114494761D02*
X150584819Y-114780475D01*
X150584819Y-114780475D02*
X150537200Y-114875713D01*
X150537200Y-114875713D02*
X150489580Y-114923332D01*
D13*
%TO.C,U2*%
X129370000Y-93730000D02*
X129370000Y-91730000D01*
X131810000Y-91730000D02*
X131810000Y-93730000D01*
D14*
X131490000Y-90880000D02*
G75*
G02*
X131290000Y-90880000I-100000J0D01*
G01*
X131290000Y-90880000D02*
G75*
G02*
X131490000Y-90880000I100000J0D01*
G01*
D10*
%TO.C,C30*%
X140017500Y-100072164D02*
X140017500Y-100287836D01*
X140737500Y-100072164D02*
X140737500Y-100287836D01*
%TO.C,R8*%
X129610000Y-90443641D02*
X129610000Y-90136359D01*
X130370000Y-90443641D02*
X130370000Y-90136359D01*
%TO.C,R3*%
X163156359Y-115590000D02*
X163463641Y-115590000D01*
X163156359Y-116350000D02*
X163463641Y-116350000D01*
%TO.C,C26*%
X138180826Y-118219047D02*
X138180826Y-118003375D01*
X138900826Y-118219047D02*
X138900826Y-118003375D01*
%TO.C,D3*%
X159800000Y-121460000D02*
X159800000Y-118800000D01*
X159800000Y-121460000D02*
X161500000Y-121460000D01*
X161500000Y-121460000D02*
X161500000Y-118800000D01*
%TO.C,R6*%
X130610000Y-90116359D02*
X130610000Y-90423641D01*
X131370000Y-90116359D02*
X131370000Y-90423641D01*
%TO.C,C12*%
X150480000Y-114982164D02*
X150480000Y-115197836D01*
X151200000Y-114982164D02*
X151200000Y-115197836D01*
%TO.C,Q1*%
X161860000Y-118190000D02*
X161860000Y-119600000D01*
X162520000Y-119600000D02*
X161860000Y-119600000D01*
X164180000Y-118190000D02*
X164180000Y-119600000D01*
X164180000Y-119600000D02*
X163520000Y-119600000D01*
X164490000Y-118060000D02*
X164160000Y-117820000D01*
X164490000Y-117580000D01*
X164490000Y-118060000D01*
G36*
X164490000Y-118060000D02*
G01*
X164160000Y-117820000D01*
X164490000Y-117580000D01*
X164490000Y-118060000D01*
G37*
%TO.C,C15*%
X166990000Y-123232164D02*
X166990000Y-123447836D01*
X167710000Y-123232164D02*
X167710000Y-123447836D01*
%TO.C,C10*%
X152360000Y-114982164D02*
X152360000Y-115197836D01*
X153080000Y-114982164D02*
X153080000Y-115197836D01*
D13*
%TO.C,U3*%
X131480826Y-109931211D02*
X131480826Y-110301211D01*
X131480826Y-109931211D02*
X131850826Y-109931211D01*
X131480826Y-115931211D02*
X131480826Y-115561211D01*
X131480826Y-115931211D02*
X131850826Y-115931211D01*
X137480826Y-109931211D02*
X137110826Y-109931211D01*
X137480826Y-109931211D02*
X137480826Y-110301211D01*
X137480826Y-115931211D02*
X137110826Y-115931211D01*
X137480826Y-115931211D02*
X137480826Y-115561211D01*
D14*
X138540826Y-115131211D02*
G75*
G02*
X138340826Y-115131211I-100000J0D01*
G01*
X138340826Y-115131211D02*
G75*
G02*
X138540826Y-115131211I100000J0D01*
G01*
D10*
%TO.C,C14*%
X164172164Y-124040000D02*
X164387836Y-124040000D01*
X164172164Y-124760000D02*
X164387836Y-124760000D01*
%TO.C,J5*%
X125280000Y-101727500D02*
X125280000Y-104387500D01*
X130420000Y-101727500D02*
X125280000Y-101727500D01*
X130420000Y-101727500D02*
X130420000Y-104387500D01*
X130420000Y-104387500D02*
X125280000Y-104387500D01*
X131690000Y-101727500D02*
X133020000Y-101727500D01*
X133020000Y-101727500D02*
X133020000Y-103057500D01*
%TO.C,C11*%
X161060000Y-115242164D02*
X161060000Y-115457836D01*
X161780000Y-115242164D02*
X161780000Y-115457836D01*
%TO.C,R4*%
X163840826Y-85864852D02*
X163840826Y-85557570D01*
X164600826Y-85864852D02*
X164600826Y-85557570D01*
%TO.C,U6*%
X137840000Y-99070000D02*
X137040000Y-99070000D01*
X137840000Y-99070000D02*
X138640000Y-99070000D01*
X137840000Y-102190000D02*
X137040000Y-102190000D01*
X137840000Y-102190000D02*
X138640000Y-102190000D01*
X139380000Y-102470000D02*
X138900000Y-102470000D01*
X139140000Y-102140000D01*
X139380000Y-102470000D01*
G36*
X139380000Y-102470000D02*
G01*
X138900000Y-102470000D01*
X139140000Y-102140000D01*
X139380000Y-102470000D01*
G37*
%TO.C,C16*%
X132030000Y-91692164D02*
X132030000Y-91907836D01*
X132750000Y-91692164D02*
X132750000Y-91907836D01*
%TO.C,C5*%
X160060000Y-115242164D02*
X160060000Y-115457836D01*
X160780000Y-115242164D02*
X160780000Y-115457836D01*
%TO.C,U4*%
X142910000Y-94815000D02*
X141910000Y-94815000D01*
X142910000Y-96235000D02*
X141910000Y-96235000D01*
X141570000Y-94885000D02*
X141290000Y-94885000D01*
X141570000Y-94605000D01*
X141570000Y-94885000D01*
G36*
X141570000Y-94885000D02*
G01*
X141290000Y-94885000D01*
X141570000Y-94605000D01*
X141570000Y-94885000D01*
G37*
D13*
%TO.C,J1*%
X149940000Y-112840000D02*
X149940000Y-111210000D01*
X150720000Y-112840000D02*
X149940000Y-112840000D01*
X163160000Y-112840000D02*
X163940000Y-112840000D01*
X163170000Y-109940000D02*
X150710000Y-109940000D01*
X163940000Y-112840000D02*
X163940000Y-111210000D01*
D14*
X151290000Y-114290000D02*
G75*
G02*
X151090000Y-114290000I-100000J0D01*
G01*
X151090000Y-114290000D02*
G75*
G02*
X151290000Y-114290000I100000J0D01*
G01*
D10*
%TO.C,R7*%
X130710000Y-95016359D02*
X130710000Y-95323641D01*
X131470000Y-95016359D02*
X131470000Y-95323641D01*
%TO.C,R1*%
X160863641Y-117290000D02*
X160556359Y-117290000D01*
X160863641Y-118050000D02*
X160556359Y-118050000D01*
%TO.C,C24*%
X142740000Y-93257836D02*
X142740000Y-93042164D01*
X143460000Y-93257836D02*
X143460000Y-93042164D01*
%TO.C,C4*%
X151410000Y-114982164D02*
X151410000Y-115197836D01*
X152130000Y-114982164D02*
X152130000Y-115197836D01*
%TO.C,C13*%
X153300000Y-114982164D02*
X153300000Y-115197836D01*
X154020000Y-114982164D02*
X154020000Y-115197836D01*
%TO.C,Y2*%
X127330000Y-115570000D02*
X127330000Y-118270000D01*
X129630000Y-115570000D02*
X127330000Y-115570000D01*
%TO.C,D2*%
X159730000Y-123530000D02*
X159730000Y-125230000D01*
X159730000Y-123530000D02*
X162390000Y-123530000D01*
X159730000Y-125230000D02*
X162390000Y-125230000D01*
%TO.C,U1*%
D15*
X163620826Y-90951211D02*
X164220826Y-90951211D01*
X164220826Y-89951211D01*
X163620826Y-89951211D01*
X163620826Y-90951211D01*
D10*
%TO.C,C6*%
X154230000Y-114962164D02*
X154230000Y-115177836D01*
X154950000Y-114962164D02*
X154950000Y-115177836D01*
%TO.C,D1*%
X162230000Y-121030000D02*
X162230000Y-122730000D01*
X162230000Y-121030000D02*
X164890000Y-121030000D01*
X162230000Y-122730000D02*
X164890000Y-122730000D01*
%TO.C,L5*%
X136693605Y-118061211D02*
X136368047Y-118061211D01*
X136693605Y-119081211D02*
X136368047Y-119081211D01*
%TO.C,R2*%
X163800826Y-88347570D02*
X163800826Y-88654852D01*
X164560826Y-88347570D02*
X164560826Y-88654852D01*
%TO.C,C7*%
X149550000Y-114982164D02*
X149550000Y-115197836D01*
X150270000Y-114982164D02*
X150270000Y-115197836D01*
%TO.C,J6*%
X139635000Y-109220000D02*
X139635000Y-107890000D01*
X140965000Y-109220000D02*
X139635000Y-109220000D01*
X142235000Y-106560000D02*
X147375000Y-106560000D01*
X142235000Y-109220000D02*
X142235000Y-106560000D01*
X142235000Y-109220000D02*
X147375000Y-109220000D01*
X147375000Y-109220000D02*
X147375000Y-106560000D01*
%TO.C,R9*%
X141653641Y-93220000D02*
X141346359Y-93220000D01*
X141653641Y-93980000D02*
X141346359Y-93980000D01*
%TO.C,C18*%
X132030000Y-93807836D02*
X132030000Y-93592164D01*
X132750000Y-93807836D02*
X132750000Y-93592164D01*
%TO.C,C9*%
X155150000Y-114962164D02*
X155150000Y-115177836D01*
X155870000Y-114962164D02*
X155870000Y-115177836D01*
D12*
%TO.C,J3*%
X135241000Y-91368000D02*
X135241000Y-94470000D01*
X135368000Y-91368000D02*
X135241000Y-91368000D01*
X136130000Y-91368000D02*
X135368000Y-91368000D01*
X136240000Y-91368000D02*
X136130000Y-91368000D01*
X136430000Y-95690000D02*
X138440000Y-95690000D01*
X138570000Y-91370000D02*
X138670000Y-91368000D01*
X138670000Y-91368000D02*
X139559000Y-91368000D01*
X139560000Y-94370000D02*
X139559000Y-91368000D01*
D10*
%TO.C,J4*%
X147420000Y-103055000D02*
X147420000Y-101725000D01*
X148750000Y-103055000D02*
X147420000Y-103055000D01*
X150020000Y-100395000D02*
X157700000Y-100395000D01*
X150020000Y-103055000D02*
X150020000Y-100395000D01*
X150020000Y-103055000D02*
X157700000Y-103055000D01*
X157700000Y-103055000D02*
X157700000Y-100395000D01*
%TO.C,L4*%
X167630000Y-117670000D02*
X167630000Y-117820000D01*
X167630000Y-117670000D02*
X171150000Y-117670000D01*
X167630000Y-121190000D02*
X167630000Y-121040000D01*
X167630000Y-121190000D02*
X171150000Y-121190000D01*
X171150000Y-117670000D02*
X171150000Y-117820000D01*
X171150000Y-121190000D02*
X171150000Y-121040000D01*
%TO.C,C29*%
X134917500Y-101072164D02*
X134917500Y-101287836D01*
X135637500Y-101072164D02*
X135637500Y-101287836D01*
%TO.C,C3*%
X148610000Y-114982164D02*
X148610000Y-115197836D01*
X149330000Y-114982164D02*
X149330000Y-115197836D01*
%TD*%
M02*
