%TF.GenerationSoftware,KiCad,Pcbnew,8.0.3*%
%TF.CreationDate,2026-05-26T23:36:27-07:00*%
%TF.ProjectId,24p_bw_3p5,3234705f-6277-45f3-9370-352e6b696361,rev?*%
%TF.SameCoordinates,Original*%
%TF.FileFunction,Copper,L4,Bot*%
%TF.FilePolarity,Positive*%
%FSLAX46Y46*%
G04 Gerber Fmt 4.6, Leading zero omitted, Abs format (unit mm)*
G04 Created by KiCad (PCBNEW 8.0.3) date 2026-05-26 23:36:27*
%MOMM*%
%LPD*%
G01*
G04 APERTURE LIST*
%TA.AperFunction,ComponentPad*%
%ADD10R,1.700000X1.700000*%
%TD*%
%TA.AperFunction,ComponentPad*%
%ADD11O,1.700000X1.700000*%
%TD*%
%TA.AperFunction,ComponentPad*%
%ADD12O,1.700000X1.000000*%
%TD*%
%TA.AperFunction,ComponentPad*%
%ADD13O,2.000000X1.000000*%
%TD*%
%TA.AperFunction,ViaPad*%
%ADD14C,0.600000*%
%TD*%
%TA.AperFunction,Conductor*%
%ADD15C,0.156500*%
%TD*%
%TA.AperFunction,Conductor*%
%ADD16C,0.600000*%
%TD*%
%TA.AperFunction,Conductor*%
%ADD17C,0.250000*%
%TD*%
G04 APERTURE END LIST*
D10*
%TO.P,J5,1,Pin_1*%
%TO.N,SWDIO*%
X131690000Y-103057500D03*
D11*
%TO.P,J5,2,Pin_2*%
%TO.N,SWDCLK*%
X129150000Y-103057500D03*
%TO.P,J5,3,Pin_3*%
%TO.N,NRESET*%
X126610000Y-103057500D03*
%TD*%
D10*
%TO.P,J6,1,Pin_1*%
%TO.N,3V3*%
X140965000Y-107890000D03*
D11*
%TO.P,J6,2,Pin_2*%
%TO.N,VSS_PA*%
X143505000Y-107890000D03*
%TO.P,J6,3,Pin_3*%
%TO.N,TX*%
X146045000Y-107890000D03*
%TD*%
D10*
%TO.P,J4,1,Pin_1*%
%TO.N,MOSI*%
X148750000Y-101725000D03*
D11*
%TO.P,J4,2,Pin_2*%
%TO.N,SCK*%
X151290000Y-101725000D03*
%TO.P,J4,3,Pin_3*%
%TO.N,CS*%
X153830000Y-101725000D03*
%TO.P,J4,4,Pin_4*%
%TO.N,DC*%
X156370000Y-101725000D03*
%TD*%
D12*
%TO.P,J2,S1,SHIELD*%
%TO.N,VSS_PA*%
X167520826Y-92506211D03*
D13*
X171120826Y-92506211D03*
D12*
X167520826Y-81356211D03*
D13*
X171120826Y-81326211D03*
%TD*%
D14*
%TO.N,VSS_PA*%
X172055826Y-124322637D03*
X172055826Y-121782637D03*
X172055826Y-119242637D03*
X172055826Y-116702637D03*
X172055826Y-114162637D03*
X172055826Y-111622637D03*
X172055826Y-109082637D03*
X172055826Y-106542637D03*
X172055826Y-104002637D03*
X172055826Y-101462637D03*
X172055826Y-98922637D03*
X172055826Y-96382637D03*
X172055826Y-93842637D03*
X169515826Y-124322637D03*
X169515826Y-116702637D03*
X169515826Y-114162637D03*
X169515826Y-111622637D03*
X169515826Y-109082637D03*
X169515826Y-106542637D03*
X169515826Y-104002637D03*
X169515826Y-101462637D03*
X169515826Y-98922637D03*
X169515826Y-96382637D03*
X169515826Y-93842637D03*
X166975826Y-111622637D03*
X166975826Y-109082637D03*
X166975826Y-106542637D03*
X166975826Y-104002637D03*
X166975826Y-101462637D03*
X166975826Y-98922637D03*
X166975826Y-96382637D03*
X166975826Y-93842637D03*
X164435826Y-109082637D03*
X164435826Y-106542637D03*
X164435826Y-104002637D03*
X164435826Y-101462637D03*
X164435826Y-98922637D03*
X164435826Y-96382637D03*
X164435826Y-93842637D03*
X164435826Y-81142637D03*
X161895826Y-109082637D03*
X161895826Y-106542637D03*
X161895826Y-104002637D03*
X161895826Y-101462637D03*
X161895826Y-98922637D03*
X161895826Y-96382637D03*
X161895826Y-93842637D03*
X161895826Y-88762637D03*
X161895826Y-86222637D03*
X161895826Y-83682637D03*
X161895826Y-81142637D03*
X159355826Y-109082637D03*
X159355826Y-106542637D03*
X159355826Y-104002637D03*
X159355826Y-101462637D03*
X159355826Y-98922637D03*
X159355826Y-91302637D03*
X159355826Y-81142637D03*
X156815826Y-98922637D03*
X156815826Y-91302637D03*
X156815826Y-86222637D03*
X156815826Y-81142637D03*
X154275826Y-124322637D03*
X154275826Y-121782637D03*
X154275826Y-98922637D03*
X154275826Y-96382637D03*
X154275826Y-93842637D03*
X154275826Y-91302637D03*
X154275826Y-86222637D03*
X154275826Y-83682637D03*
X154275826Y-81142637D03*
X151735826Y-124322637D03*
X151735826Y-121782637D03*
X151735826Y-109082637D03*
X151735826Y-98922637D03*
X151735826Y-96382637D03*
X151735826Y-93842637D03*
X151735826Y-91302637D03*
X151735826Y-86222637D03*
X151735826Y-83682637D03*
X151735826Y-81142637D03*
X149195826Y-124322637D03*
X149195826Y-121782637D03*
X149195826Y-109082637D03*
X149195826Y-98922637D03*
X149195826Y-96382637D03*
X149195826Y-93842637D03*
X149195826Y-91302637D03*
X149195826Y-86222637D03*
X149195826Y-83682637D03*
X149195826Y-81142637D03*
X146655826Y-124322637D03*
X146655826Y-121782637D03*
X146655826Y-114162637D03*
X146655826Y-104002637D03*
X146655826Y-101462637D03*
X146655826Y-98922637D03*
X146655826Y-96382637D03*
X146655826Y-93842637D03*
X146655826Y-91302637D03*
X146655826Y-86222637D03*
X146655826Y-83682637D03*
X146655826Y-81142637D03*
X144115826Y-124322637D03*
X144115826Y-121782637D03*
X144115826Y-104002637D03*
X144115826Y-101462637D03*
X144115826Y-98922637D03*
X144115826Y-91302637D03*
X144115826Y-86222637D03*
X144115826Y-83682637D03*
X144115826Y-81142637D03*
X141575826Y-124322637D03*
X141575826Y-121782637D03*
X141575826Y-98922637D03*
X141575826Y-91302637D03*
X141575826Y-86222637D03*
X141575826Y-83682637D03*
X141575826Y-81142637D03*
X139035826Y-124322637D03*
X139035826Y-121782637D03*
X139035826Y-104002637D03*
X139035826Y-86222637D03*
X139035826Y-83682637D03*
X139035826Y-81142637D03*
X136495826Y-124322637D03*
X136495826Y-121782637D03*
X136495826Y-98922637D03*
X136495826Y-86222637D03*
X136495826Y-83682637D03*
X136495826Y-81142637D03*
X133955826Y-124322637D03*
X133955826Y-121782637D03*
X133955826Y-104002637D03*
X133955826Y-86222637D03*
X133955826Y-83682637D03*
X133955826Y-81142637D03*
X131415826Y-124322637D03*
X131415826Y-121782637D03*
X131415826Y-86222637D03*
X131415826Y-83682637D03*
X131415826Y-81142637D03*
X128875826Y-98922637D03*
X128875826Y-96382637D03*
X128875826Y-86222637D03*
X128875826Y-83682637D03*
X128875826Y-81142637D03*
X126335826Y-119242637D03*
X126335826Y-116702637D03*
X126335826Y-114162637D03*
X126335826Y-98922637D03*
X126335826Y-96382637D03*
X126335826Y-93842637D03*
X126335826Y-91302637D03*
X126335826Y-88762637D03*
X126335826Y-86222637D03*
X126335826Y-83682637D03*
X126335826Y-81142637D03*
X123795826Y-96382637D03*
X123795826Y-93842637D03*
X123795826Y-91302637D03*
X123795826Y-88762637D03*
X123795826Y-86222637D03*
X123795826Y-83682637D03*
X123795826Y-81142637D03*
X121255826Y-96382637D03*
X121255826Y-93842637D03*
X121255826Y-91302637D03*
X121255826Y-88762637D03*
X121255826Y-86222637D03*
X121255826Y-83682637D03*
X121255826Y-81142637D03*
X162700000Y-110500000D03*
X142400000Y-95500000D03*
X139200000Y-109900000D03*
X164950000Y-84900000D03*
X132550000Y-104900000D03*
X127750000Y-111800000D03*
X133150000Y-93150000D03*
X138500000Y-119210000D03*
X150000000Y-116250000D03*
X166250000Y-90800000D03*
X125800000Y-111750000D03*
X129200000Y-112350000D03*
X133100000Y-107600000D03*
X129100000Y-92700000D03*
X130640000Y-109360000D03*
X154680000Y-112070000D03*
X132750000Y-117860000D03*
X129960000Y-104840000D03*
X149000000Y-116250000D03*
X133200000Y-92300000D03*
X152800000Y-116200000D03*
X125570000Y-110940000D03*
X159170000Y-112130000D03*
X159510000Y-117670000D03*
X162100000Y-115900000D03*
X151850000Y-116250000D03*
X150900000Y-116250000D03*
X135140000Y-107960000D03*
X129680000Y-110130000D03*
X153650000Y-116200000D03*
X151400000Y-110500000D03*
X129050000Y-114260000D03*
X131200000Y-96400000D03*
X130540000Y-117850000D03*
X131050000Y-89050000D03*
X127540000Y-104840000D03*
X164500000Y-89700000D03*
X134770000Y-117690000D03*
X143400000Y-94600000D03*
X159500000Y-124500000D03*
X166250000Y-83100000D03*
X127920000Y-118520000D03*
X130000000Y-89000000D03*
X132710000Y-119420000D03*
X167350000Y-124450000D03*
X137900000Y-101700000D03*
X137960000Y-116820000D03*
X147950000Y-115600000D03*
X163850000Y-115050000D03*
%TO.N,Net-(D1-K)*%
X152700000Y-111950000D03*
X161880000Y-121090000D03*
%TO.N,Net-(D3-A)*%
X158910000Y-119280000D03*
X150590000Y-112030000D03*
%TO.N,3V3*%
X141850000Y-104500000D03*
X139000000Y-107900000D03*
X131700000Y-118150000D03*
X166820000Y-121550000D03*
X139200000Y-110650000D03*
X139525000Y-117725000D03*
X155690000Y-111630000D03*
X135350000Y-108950000D03*
%TO.N,5VUSB*%
X165150000Y-88300000D03*
X165150000Y-85800000D03*
%TO.N,Net-(U3-DECA)*%
X133310000Y-117350000D03*
X129830000Y-114827037D03*
%TO.N,Net-(Q1-S)*%
X161850000Y-113980000D03*
X161180000Y-116760000D03*
%TO.N,SWDCLK*%
X129180000Y-104870000D03*
X130260000Y-110870000D03*
%TO.N,NRESET*%
X126540000Y-104750000D03*
X129560000Y-110960000D03*
%TO.N,SWDIO*%
X131660000Y-104840000D03*
X131210000Y-110060000D03*
%TD*%
D15*
%TO.N,Net-(U3-DECA)*%
X129830000Y-116530000D02*
X130650000Y-117350000D01*
X129830000Y-114827037D02*
X129830000Y-116530000D01*
X130650000Y-117350000D02*
X133310000Y-117350000D01*
D16*
%TO.N,Net-(D1-K)*%
X161880000Y-121090000D02*
X152740000Y-111950000D01*
X152740000Y-111950000D02*
X152700000Y-111950000D01*
%TO.N,Net-(D3-A)*%
X157840000Y-119280000D02*
X150590000Y-112030000D01*
X158910000Y-119280000D02*
X157840000Y-119280000D01*
D17*
%TO.N,3V3*%
X139525000Y-117725000D02*
X139525000Y-110975000D01*
X137500000Y-108950000D02*
X139200000Y-110650000D01*
X139000000Y-107350000D02*
X139000000Y-107900000D01*
D16*
X157060000Y-113000000D02*
X157060000Y-113890000D01*
D17*
X141850000Y-104500000D02*
X139000000Y-107350000D01*
X132575000Y-118550000D02*
X138700000Y-118550000D01*
D16*
X157060000Y-113890000D02*
X164720000Y-121550000D01*
D17*
X131700000Y-118150000D02*
X132100000Y-118550000D01*
X135350000Y-108950000D02*
X137500000Y-108950000D01*
X138700000Y-118550000D02*
X139525000Y-117725000D01*
X139525000Y-110975000D02*
X139200000Y-110650000D01*
D16*
X164720000Y-121550000D02*
X166820000Y-121550000D01*
X155690000Y-111630000D02*
X157060000Y-113000000D01*
D17*
X132100000Y-118550000D02*
X132575000Y-118550000D01*
D16*
%TO.N,5VUSB*%
X165150000Y-88300000D02*
X165150000Y-85800000D01*
D15*
%TO.N,Net-(Q1-S)*%
X161850000Y-113980000D02*
X161180000Y-114650000D01*
X161180000Y-114650000D02*
X161180000Y-116760000D01*
%TO.N,SWDCLK*%
X129180000Y-108700000D02*
X129180000Y-104870000D01*
X130260000Y-110870000D02*
X130260000Y-109780000D01*
X130260000Y-109780000D02*
X129180000Y-108700000D01*
%TO.N,NRESET*%
X126540000Y-107940000D02*
X126540000Y-104750000D01*
X129560000Y-110960000D02*
X126540000Y-107940000D01*
%TO.N,SWDIO*%
X131210000Y-110060000D02*
X131210000Y-105290000D01*
X131210000Y-105290000D02*
X131660000Y-104840000D01*
%TD*%
%TA.AperFunction,Conductor*%
%TO.N,VSS_PA*%
G36*
X130274340Y-103945568D02*
G01*
X130330274Y-103987439D01*
X130347189Y-104018417D01*
X130396202Y-104149828D01*
X130396206Y-104149835D01*
X130482452Y-104265044D01*
X130482455Y-104265047D01*
X130597664Y-104351293D01*
X130597671Y-104351297D01*
X130641752Y-104367738D01*
X130732517Y-104401591D01*
X130792127Y-104408000D01*
X130792162Y-104407999D01*
X130794948Y-104408150D01*
X130860839Y-104431392D01*
X130903705Y-104486567D01*
X130909937Y-104556158D01*
X130905360Y-104572926D01*
X130874630Y-104660748D01*
X130860931Y-104782334D01*
X130833864Y-104846748D01*
X130825393Y-104856131D01*
X130746885Y-104934639D01*
X130670692Y-105066608D01*
X130670691Y-105066609D01*
X130661872Y-105099522D01*
X130631250Y-105213806D01*
X130631250Y-105213808D01*
X130631250Y-109033411D01*
X130611565Y-109100450D01*
X130558761Y-109146205D01*
X130489603Y-109156149D01*
X130426047Y-109127124D01*
X130419569Y-109121092D01*
X129795069Y-108496592D01*
X129761584Y-108435269D01*
X129758750Y-108408911D01*
X129758750Y-105474690D01*
X129778435Y-105407651D01*
X129795069Y-105387009D01*
X129809816Y-105372262D01*
X129905789Y-105219522D01*
X129965368Y-105049255D01*
X129968748Y-105019255D01*
X129985565Y-104870003D01*
X129985565Y-104869996D01*
X129965369Y-104690750D01*
X129965368Y-104690745D01*
X129954872Y-104660748D01*
X129905789Y-104520478D01*
X129892919Y-104499996D01*
X129818648Y-104381794D01*
X129799648Y-104314557D01*
X129820016Y-104247722D01*
X129852517Y-104214248D01*
X130021401Y-104095995D01*
X130143329Y-103974066D01*
X130204648Y-103940584D01*
X130274340Y-103945568D01*
G37*
%TD.AperFunction*%
%TA.AperFunction,Conductor*%
G36*
X127964855Y-103724046D02*
G01*
X127981575Y-103743342D01*
X128111500Y-103928895D01*
X128111505Y-103928901D01*
X128278599Y-104095995D01*
X128356406Y-104150476D01*
X128472165Y-104231532D01*
X128476856Y-104234240D01*
X128476181Y-104235408D01*
X128523785Y-104277317D01*
X128542941Y-104344509D01*
X128523939Y-104409506D01*
X128454211Y-104520476D01*
X128394631Y-104690745D01*
X128394630Y-104690750D01*
X128374435Y-104869996D01*
X128374435Y-104870003D01*
X128394630Y-105049249D01*
X128394631Y-105049254D01*
X128454211Y-105219523D01*
X128550184Y-105372262D01*
X128564931Y-105387009D01*
X128598416Y-105448332D01*
X128601250Y-105474690D01*
X128601250Y-108623806D01*
X128601250Y-108776194D01*
X128604380Y-108787876D01*
X128630294Y-108884588D01*
X128628631Y-108954438D01*
X128589468Y-109012300D01*
X128525240Y-109039804D01*
X128456337Y-109028217D01*
X128422838Y-109004362D01*
X127155069Y-107736593D01*
X127121584Y-107675270D01*
X127118750Y-107648912D01*
X127118750Y-105354690D01*
X127138435Y-105287651D01*
X127155069Y-105267009D01*
X127169816Y-105252262D01*
X127265789Y-105099522D01*
X127325368Y-104929255D01*
X127332044Y-104870003D01*
X127345565Y-104750003D01*
X127345565Y-104749996D01*
X127325369Y-104570750D01*
X127325368Y-104570745D01*
X127295913Y-104486567D01*
X127265789Y-104400478D01*
X127261566Y-104393758D01*
X127242565Y-104326523D01*
X127262931Y-104259687D01*
X127295436Y-104226209D01*
X127481401Y-104095995D01*
X127648495Y-103928901D01*
X127778425Y-103743342D01*
X127833002Y-103699717D01*
X127902500Y-103692523D01*
X127964855Y-103724046D01*
G37*
%TD.AperFunction*%
%TA.AperFunction,Conductor*%
G36*
X171916355Y-78749837D02*
G01*
X171931784Y-78751358D01*
X172054115Y-78763419D01*
X172077936Y-78768160D01*
X172204553Y-78806579D01*
X172226994Y-78815876D01*
X172343674Y-78878253D01*
X172363879Y-78891755D01*
X172466153Y-78975695D01*
X172483336Y-78992879D01*
X172561336Y-79087925D01*
X172567264Y-79095148D01*
X172580767Y-79115357D01*
X172643135Y-79232037D01*
X172652437Y-79254492D01*
X172690847Y-79381100D01*
X172695589Y-79404939D01*
X172709216Y-79543227D01*
X172709814Y-79555379D01*
X172709816Y-79599997D01*
X172709823Y-79600062D01*
X172710255Y-81989841D01*
X172710268Y-82056689D01*
X172690596Y-82123732D01*
X172637800Y-82169496D01*
X172586268Y-82180711D01*
X167100942Y-82180711D01*
X167027251Y-82211235D01*
X166970850Y-82267636D01*
X166940326Y-82341327D01*
X166940326Y-82341329D01*
X166940326Y-91521093D01*
X166970850Y-91594785D01*
X167027252Y-91651187D01*
X167100944Y-91681711D01*
X167180708Y-91681711D01*
X172586321Y-91681711D01*
X172653360Y-91701396D01*
X172699115Y-91754200D01*
X172710321Y-91805713D01*
X172709814Y-125142633D01*
X172709216Y-125154789D01*
X172695643Y-125292548D01*
X172690901Y-125316389D01*
X172652492Y-125442994D01*
X172643189Y-125465451D01*
X172580819Y-125582130D01*
X172567314Y-125602340D01*
X172483381Y-125704609D01*
X172466193Y-125721797D01*
X172363924Y-125805725D01*
X172343713Y-125819229D01*
X172227031Y-125881597D01*
X172204576Y-125890898D01*
X172141272Y-125910102D01*
X172077971Y-125929304D01*
X172054133Y-125934046D01*
X171932999Y-125945979D01*
X171916116Y-125947642D01*
X171903962Y-125948239D01*
X124929468Y-125948239D01*
X124862429Y-125928554D01*
X124816674Y-125875750D01*
X124805468Y-125824549D01*
X124798538Y-123051211D01*
X126395418Y-123051211D01*
X126415027Y-123337891D01*
X126473492Y-123619245D01*
X126473493Y-123619248D01*
X126569720Y-123890004D01*
X126569719Y-123890004D01*
X126701924Y-124145146D01*
X126867638Y-124379911D01*
X126905617Y-124420576D01*
X127063773Y-124589919D01*
X127286679Y-124771266D01*
X127532208Y-124920576D01*
X127719063Y-125001737D01*
X127795768Y-125035055D01*
X128072468Y-125112582D01*
X128322746Y-125146982D01*
X128357147Y-125151711D01*
X128357148Y-125151711D01*
X128644505Y-125151711D01*
X128675196Y-125147492D01*
X128929184Y-125112582D01*
X129205884Y-125035055D01*
X129318841Y-124985990D01*
X129469443Y-124920576D01*
X129469446Y-124920574D01*
X129469451Y-124920572D01*
X129714973Y-124771266D01*
X129937879Y-124589919D01*
X130134015Y-124379909D01*
X130299727Y-124145147D01*
X130431930Y-123890008D01*
X130528160Y-123619243D01*
X130586624Y-123337897D01*
X130606234Y-123051211D01*
X130586624Y-122764525D01*
X130542297Y-122551211D01*
X155895418Y-122551211D01*
X155915027Y-122837891D01*
X155973492Y-123119245D01*
X155973493Y-123119248D01*
X156069720Y-123390004D01*
X156069719Y-123390004D01*
X156201924Y-123645146D01*
X156367638Y-123879911D01*
X156452749Y-123971042D01*
X156563773Y-124089919D01*
X156786679Y-124271266D01*
X157032208Y-124420576D01*
X157219063Y-124501737D01*
X157295768Y-124535055D01*
X157572468Y-124612582D01*
X157822746Y-124646982D01*
X157857147Y-124651711D01*
X157857148Y-124651711D01*
X158144505Y-124651711D01*
X158175196Y-124647492D01*
X158429184Y-124612582D01*
X158705884Y-124535055D01*
X158818841Y-124485990D01*
X158969443Y-124420576D01*
X158969446Y-124420574D01*
X158969451Y-124420572D01*
X159214973Y-124271266D01*
X159437879Y-124089919D01*
X159634015Y-123879909D01*
X159799727Y-123645147D01*
X159931930Y-123390008D01*
X160028160Y-123119243D01*
X160086624Y-122837897D01*
X160106234Y-122551211D01*
X160086624Y-122264525D01*
X160028160Y-121983179D01*
X159996912Y-121895257D01*
X159931931Y-121712417D01*
X159931932Y-121712417D01*
X159799727Y-121457275D01*
X159634013Y-121222510D01*
X159555380Y-121138316D01*
X159437879Y-121012503D01*
X159292613Y-120894321D01*
X159214972Y-120831155D01*
X158969443Y-120681845D01*
X158705889Y-120567369D01*
X158705887Y-120567368D01*
X158705884Y-120567367D01*
X158576404Y-120531088D01*
X158429190Y-120489841D01*
X158429185Y-120489840D01*
X158429184Y-120489840D01*
X158286844Y-120470275D01*
X158144505Y-120450711D01*
X158144504Y-120450711D01*
X157857148Y-120450711D01*
X157857147Y-120450711D01*
X157572468Y-120489840D01*
X157572461Y-120489841D01*
X157364687Y-120548056D01*
X157295768Y-120567367D01*
X157295765Y-120567367D01*
X157295762Y-120567369D01*
X157295761Y-120567369D01*
X157032208Y-120681845D01*
X156786679Y-120831155D01*
X156563776Y-121012500D01*
X156367638Y-121222510D01*
X156201924Y-121457275D01*
X156069720Y-121712417D01*
X155973493Y-121983173D01*
X155973492Y-121983176D01*
X155915027Y-122264530D01*
X155895418Y-122551211D01*
X130542297Y-122551211D01*
X130528160Y-122483179D01*
X130481005Y-122350499D01*
X130461996Y-122297012D01*
X130431931Y-122212417D01*
X130431932Y-122212417D01*
X130299727Y-121957275D01*
X130134013Y-121722510D01*
X130013851Y-121593849D01*
X129937879Y-121512503D01*
X129714973Y-121331156D01*
X129714972Y-121331155D01*
X129469443Y-121181845D01*
X129205889Y-121067369D01*
X129205887Y-121067368D01*
X129205884Y-121067367D01*
X129076404Y-121031088D01*
X128929190Y-120989841D01*
X128929185Y-120989840D01*
X128929184Y-120989840D01*
X128724410Y-120961694D01*
X128644505Y-120950711D01*
X128644504Y-120950711D01*
X128357148Y-120950711D01*
X128357147Y-120950711D01*
X128072468Y-120989840D01*
X128072461Y-120989841D01*
X127875433Y-121045046D01*
X127795768Y-121067367D01*
X127795765Y-121067367D01*
X127795762Y-121067369D01*
X127795761Y-121067369D01*
X127532208Y-121181845D01*
X127286679Y-121331155D01*
X127063776Y-121512500D01*
X126867638Y-121722510D01*
X126701924Y-121957275D01*
X126569720Y-122212417D01*
X126473493Y-122483173D01*
X126473492Y-122483176D01*
X126415027Y-122764530D01*
X126395418Y-123051211D01*
X124798538Y-123051211D01*
X124777989Y-114827033D01*
X129024435Y-114827033D01*
X129024435Y-114827040D01*
X129044630Y-115006286D01*
X129044631Y-115006291D01*
X129104211Y-115176560D01*
X129200184Y-115329299D01*
X129214931Y-115344046D01*
X129248416Y-115405369D01*
X129251250Y-115431727D01*
X129251250Y-116453806D01*
X129251250Y-116606194D01*
X129280830Y-116716590D01*
X129290691Y-116753390D01*
X129290692Y-116753391D01*
X129299367Y-116768416D01*
X129366885Y-116885361D01*
X130186885Y-117705361D01*
X130294639Y-117813115D01*
X130426611Y-117889309D01*
X130573806Y-117928750D01*
X130780608Y-117928750D01*
X130847647Y-117948435D01*
X130893402Y-118001239D01*
X130903828Y-118066634D01*
X130894435Y-118149997D01*
X130894435Y-118150003D01*
X130914630Y-118329249D01*
X130914631Y-118329254D01*
X130974211Y-118499523D01*
X130984358Y-118515671D01*
X131070184Y-118652262D01*
X131197738Y-118779816D01*
X131350478Y-118875789D01*
X131520745Y-118935368D01*
X131567822Y-118940672D01*
X131632235Y-118967737D01*
X131641610Y-118976201D01*
X131701267Y-119035858D01*
X131798377Y-119100745D01*
X131803714Y-119104311D01*
X131917548Y-119151463D01*
X132038388Y-119175499D01*
X132038392Y-119175500D01*
X132038393Y-119175500D01*
X138761607Y-119175500D01*
X138822029Y-119163481D01*
X138882452Y-119151463D01*
X138882455Y-119151461D01*
X138882458Y-119151461D01*
X138915787Y-119137654D01*
X138915786Y-119137654D01*
X138915792Y-119137652D01*
X138996286Y-119104312D01*
X139047509Y-119070084D01*
X139098733Y-119035858D01*
X139185858Y-118948733D01*
X139185859Y-118948731D01*
X139192925Y-118941665D01*
X139192928Y-118941661D01*
X139583379Y-118551209D01*
X139644700Y-118517726D01*
X139657156Y-118515674D01*
X139704255Y-118510368D01*
X139874522Y-118450789D01*
X140027262Y-118354816D01*
X140154816Y-118227262D01*
X140250789Y-118074522D01*
X140310368Y-117904255D01*
X140312052Y-117889308D01*
X140330565Y-117725003D01*
X140330565Y-117724996D01*
X140310369Y-117545750D01*
X140310368Y-117545745D01*
X140250788Y-117375476D01*
X140169506Y-117246117D01*
X140150500Y-117180145D01*
X140150500Y-112029998D01*
X149784435Y-112029998D01*
X149784435Y-112030001D01*
X149788720Y-112068029D01*
X149789500Y-112081914D01*
X149789500Y-112108844D01*
X149797288Y-112148003D01*
X149798890Y-112158303D01*
X149804632Y-112209252D01*
X149804633Y-112209260D01*
X149812976Y-112233104D01*
X149817550Y-112249860D01*
X149820262Y-112263496D01*
X149840509Y-112312377D01*
X149842988Y-112318872D01*
X149864212Y-112379524D01*
X149870709Y-112389865D01*
X149880268Y-112408365D01*
X149880603Y-112409173D01*
X149880605Y-112409179D01*
X149917223Y-112463982D01*
X149919114Y-112466900D01*
X149960180Y-112532257D01*
X149960182Y-112532260D01*
X149968211Y-112540289D01*
X157213870Y-119785947D01*
X157213891Y-119785970D01*
X157329707Y-119901786D01*
X157329711Y-119901789D01*
X157460814Y-119989390D01*
X157460827Y-119989397D01*
X157606498Y-120049735D01*
X157606503Y-120049737D01*
X157606507Y-120049737D01*
X157606508Y-120049738D01*
X157761154Y-120080500D01*
X157761157Y-120080500D01*
X157761158Y-120080500D01*
X158858085Y-120080500D01*
X158871969Y-120081280D01*
X158909998Y-120085565D01*
X158910000Y-120085565D01*
X158910002Y-120085565D01*
X158948031Y-120081280D01*
X158961915Y-120080500D01*
X158988841Y-120080500D01*
X158988842Y-120080500D01*
X159028017Y-120072707D01*
X159038283Y-120071110D01*
X159089255Y-120065368D01*
X159113100Y-120057023D01*
X159129862Y-120052448D01*
X159143497Y-120049737D01*
X159192389Y-120029484D01*
X159198837Y-120027023D01*
X159259522Y-120005789D01*
X159269868Y-119999287D01*
X159288390Y-119989720D01*
X159289179Y-119989394D01*
X159343987Y-119952771D01*
X159346825Y-119950931D01*
X159412262Y-119909816D01*
X159412262Y-119909815D01*
X159418160Y-119906110D01*
X159418838Y-119907189D01*
X159476791Y-119883520D01*
X159545488Y-119896267D01*
X159577115Y-119919193D01*
X161250184Y-121592262D01*
X161377738Y-121719816D01*
X161443096Y-121760883D01*
X161443131Y-121760905D01*
X161446040Y-121762790D01*
X161500821Y-121799394D01*
X161501606Y-121799719D01*
X161520134Y-121809289D01*
X161530478Y-121815789D01*
X161591175Y-121837028D01*
X161597607Y-121839484D01*
X161626021Y-121851253D01*
X161646497Y-121859735D01*
X161646498Y-121859735D01*
X161646503Y-121859737D01*
X161660139Y-121862449D01*
X161676898Y-121867023D01*
X161700745Y-121875368D01*
X161751714Y-121881110D01*
X161761992Y-121882709D01*
X161789140Y-121888109D01*
X161801157Y-121890500D01*
X161801158Y-121890500D01*
X161828085Y-121890500D01*
X161841969Y-121891280D01*
X161879998Y-121895565D01*
X161880000Y-121895565D01*
X161880002Y-121895565D01*
X161918031Y-121891280D01*
X161931915Y-121890500D01*
X161958841Y-121890500D01*
X161958842Y-121890500D01*
X161998017Y-121882707D01*
X162008283Y-121881110D01*
X162059255Y-121875368D01*
X162083100Y-121867023D01*
X162099862Y-121862448D01*
X162113497Y-121859737D01*
X162162389Y-121839484D01*
X162168837Y-121837023D01*
X162229522Y-121815789D01*
X162239868Y-121809287D01*
X162258390Y-121799720D01*
X162259179Y-121799394D01*
X162313987Y-121762771D01*
X162316825Y-121760931D01*
X162382262Y-121719816D01*
X162509816Y-121592262D01*
X162550931Y-121526825D01*
X162552777Y-121523979D01*
X162570079Y-121498085D01*
X162589394Y-121469179D01*
X162589720Y-121468390D01*
X162599287Y-121449868D01*
X162605789Y-121439522D01*
X162627023Y-121378837D01*
X162629484Y-121372389D01*
X162649737Y-121323497D01*
X162652448Y-121309862D01*
X162657023Y-121293100D01*
X162665368Y-121269255D01*
X162671110Y-121218283D01*
X162672707Y-121208017D01*
X162680500Y-121168842D01*
X162680500Y-121141914D01*
X162681280Y-121128029D01*
X162685565Y-121090001D01*
X162685565Y-121089998D01*
X162681280Y-121051969D01*
X162680500Y-121038085D01*
X162680500Y-121011157D01*
X162676260Y-120989841D01*
X162672709Y-120971992D01*
X162671108Y-120961694D01*
X162669071Y-120943615D01*
X162681125Y-120874793D01*
X162728475Y-120823413D01*
X162796085Y-120805789D01*
X162862491Y-120827516D01*
X162879972Y-120842050D01*
X164098211Y-122060289D01*
X164209711Y-122171789D01*
X164209712Y-122171790D01*
X164340814Y-122259390D01*
X164340827Y-122259397D01*
X164472232Y-122313826D01*
X164486503Y-122319737D01*
X164641153Y-122350499D01*
X164641156Y-122350500D01*
X164641158Y-122350500D01*
X166768085Y-122350500D01*
X166781969Y-122351280D01*
X166819998Y-122355565D01*
X166820000Y-122355565D01*
X166820002Y-122355565D01*
X166858031Y-122351280D01*
X166871915Y-122350500D01*
X166898841Y-122350500D01*
X166898842Y-122350500D01*
X166938017Y-122342707D01*
X166948283Y-122341110D01*
X166999255Y-122335368D01*
X167023100Y-122327023D01*
X167039862Y-122322448D01*
X167053497Y-122319737D01*
X167102389Y-122299484D01*
X167108837Y-122297023D01*
X167169522Y-122275789D01*
X167179868Y-122269287D01*
X167198390Y-122259720D01*
X167199179Y-122259394D01*
X167253987Y-122222771D01*
X167256825Y-122220931D01*
X167322262Y-122179816D01*
X167449816Y-122052262D01*
X167490931Y-121986825D01*
X167492777Y-121983979D01*
X167493316Y-121983173D01*
X167529394Y-121929179D01*
X167529720Y-121928390D01*
X167539287Y-121909868D01*
X167545789Y-121899522D01*
X167567023Y-121838837D01*
X167569484Y-121832389D01*
X167589737Y-121783497D01*
X167592448Y-121769862D01*
X167597023Y-121753100D01*
X167605368Y-121729255D01*
X167611110Y-121678283D01*
X167612707Y-121668017D01*
X167620500Y-121628842D01*
X167620500Y-121601914D01*
X167621280Y-121588029D01*
X167625565Y-121550001D01*
X167625565Y-121549998D01*
X167621280Y-121511969D01*
X167620500Y-121498085D01*
X167620500Y-121471157D01*
X167617738Y-121457275D01*
X167612709Y-121431992D01*
X167611110Y-121421714D01*
X167605368Y-121370745D01*
X167597023Y-121346898D01*
X167592449Y-121330139D01*
X167589737Y-121316503D01*
X167569484Y-121267607D01*
X167567028Y-121261175D01*
X167545789Y-121200478D01*
X167539289Y-121190134D01*
X167529719Y-121171606D01*
X167529394Y-121170821D01*
X167492790Y-121116040D01*
X167490905Y-121113131D01*
X167449816Y-121047738D01*
X167322262Y-120920184D01*
X167322260Y-120920182D01*
X167322257Y-120920180D01*
X167256900Y-120879114D01*
X167253982Y-120877223D01*
X167199179Y-120840605D01*
X167199173Y-120840603D01*
X167198365Y-120840268D01*
X167179865Y-120830709D01*
X167169524Y-120824212D01*
X167169523Y-120824211D01*
X167169522Y-120824211D01*
X167108867Y-120802986D01*
X167102377Y-120800509D01*
X167053496Y-120780262D01*
X167039860Y-120777550D01*
X167023104Y-120772976D01*
X166999260Y-120764633D01*
X166999256Y-120764632D01*
X166999255Y-120764632D01*
X166978575Y-120762301D01*
X166948303Y-120758890D01*
X166938003Y-120757288D01*
X166898844Y-120749500D01*
X166898842Y-120749500D01*
X166871915Y-120749500D01*
X166858031Y-120748720D01*
X166820002Y-120744435D01*
X166819998Y-120744435D01*
X166781969Y-120748720D01*
X166768085Y-120749500D01*
X165102940Y-120749500D01*
X165035901Y-120729815D01*
X165015259Y-120713181D01*
X161774759Y-117472681D01*
X161741274Y-117411358D01*
X161746258Y-117341666D01*
X161774759Y-117297319D01*
X161809816Y-117262262D01*
X161905789Y-117109522D01*
X161965368Y-116939255D01*
X161971076Y-116888596D01*
X161985565Y-116760003D01*
X161985565Y-116759996D01*
X161965369Y-116580750D01*
X161965368Y-116580745D01*
X161905788Y-116410476D01*
X161866582Y-116348080D01*
X161809816Y-116257738D01*
X161795069Y-116242991D01*
X161761584Y-116181668D01*
X161758750Y-116155310D01*
X161758750Y-116151211D01*
X164395418Y-116151211D01*
X164415027Y-116437891D01*
X164473492Y-116719245D01*
X164473493Y-116719248D01*
X164569720Y-116990004D01*
X164569719Y-116990004D01*
X164701924Y-117245146D01*
X164867638Y-117479911D01*
X164929128Y-117545750D01*
X165063773Y-117689919D01*
X165286679Y-117871266D01*
X165500409Y-118001239D01*
X165532208Y-118020576D01*
X165719063Y-118101737D01*
X165795768Y-118135055D01*
X166072468Y-118212582D01*
X166322746Y-118246982D01*
X166357147Y-118251711D01*
X166357148Y-118251711D01*
X166644505Y-118251711D01*
X166675196Y-118247492D01*
X166929184Y-118212582D01*
X167205884Y-118135055D01*
X167345243Y-118074523D01*
X167469443Y-118020576D01*
X167469446Y-118020574D01*
X167469451Y-118020572D01*
X167714973Y-117871266D01*
X167937879Y-117689919D01*
X168134015Y-117479909D01*
X168299727Y-117245147D01*
X168431930Y-116990008D01*
X168528160Y-116719243D01*
X168586624Y-116437897D01*
X168606234Y-116151211D01*
X168586624Y-115864525D01*
X168528160Y-115583179D01*
X168431931Y-115312417D01*
X168431932Y-115312417D01*
X168299727Y-115057275D01*
X168134013Y-114822510D01*
X168000357Y-114679401D01*
X167937879Y-114612503D01*
X167714973Y-114431156D01*
X167714972Y-114431155D01*
X167469443Y-114281845D01*
X167205889Y-114167369D01*
X167205887Y-114167368D01*
X167205884Y-114167367D01*
X167076404Y-114131088D01*
X166929190Y-114089841D01*
X166929185Y-114089840D01*
X166929184Y-114089840D01*
X166786844Y-114070275D01*
X166644505Y-114050711D01*
X166644504Y-114050711D01*
X166357148Y-114050711D01*
X166357147Y-114050711D01*
X166072468Y-114089840D01*
X166072461Y-114089841D01*
X165893821Y-114139894D01*
X165795768Y-114167367D01*
X165795765Y-114167367D01*
X165795762Y-114167369D01*
X165795761Y-114167369D01*
X165532208Y-114281845D01*
X165286679Y-114431155D01*
X165063776Y-114612500D01*
X164867638Y-114822510D01*
X164701924Y-115057275D01*
X164569720Y-115312417D01*
X164473493Y-115583173D01*
X164473492Y-115583176D01*
X164415027Y-115864530D01*
X164395418Y-116151211D01*
X161758750Y-116151211D01*
X161758750Y-114941088D01*
X161778435Y-114874049D01*
X161795069Y-114853407D01*
X161833870Y-114814606D01*
X161895193Y-114781121D01*
X161907669Y-114779067D01*
X162029249Y-114765369D01*
X162029252Y-114765368D01*
X162029255Y-114765368D01*
X162199522Y-114705789D01*
X162352262Y-114609816D01*
X162479816Y-114482262D01*
X162575789Y-114329522D01*
X162635368Y-114159255D01*
X162635369Y-114159249D01*
X162655565Y-113980003D01*
X162655565Y-113979996D01*
X162635369Y-113800750D01*
X162635368Y-113800745D01*
X162575788Y-113630476D01*
X162479815Y-113477737D01*
X162352262Y-113350184D01*
X162199523Y-113254211D01*
X162029254Y-113194631D01*
X162029249Y-113194630D01*
X161850004Y-113174435D01*
X161849996Y-113174435D01*
X161670750Y-113194630D01*
X161670745Y-113194631D01*
X161500476Y-113254211D01*
X161347737Y-113350184D01*
X161220184Y-113477737D01*
X161124210Y-113630478D01*
X161064630Y-113800750D01*
X161050931Y-113922333D01*
X161023864Y-113986747D01*
X161015393Y-113996130D01*
X160824639Y-114186885D01*
X160716886Y-114294637D01*
X160640692Y-114426608D01*
X160640691Y-114426609D01*
X160639473Y-114431155D01*
X160601250Y-114573806D01*
X160601250Y-114573808D01*
X160601250Y-115999810D01*
X160581565Y-116066849D01*
X160528761Y-116112604D01*
X160459603Y-116122548D01*
X160396047Y-116093523D01*
X160389569Y-116087491D01*
X157896819Y-113594741D01*
X157863334Y-113533418D01*
X157860500Y-113507060D01*
X157860500Y-112921157D01*
X157860499Y-112921153D01*
X157829739Y-112766510D01*
X157829738Y-112766503D01*
X157769394Y-112620821D01*
X157769392Y-112620818D01*
X157769390Y-112620814D01*
X157681789Y-112489711D01*
X157681786Y-112489707D01*
X156200289Y-111008211D01*
X156192260Y-111000182D01*
X156192257Y-111000180D01*
X156126900Y-110959114D01*
X156123982Y-110957223D01*
X156069179Y-110920605D01*
X156069173Y-110920603D01*
X156068365Y-110920268D01*
X156049865Y-110910709D01*
X156039524Y-110904212D01*
X156039523Y-110904211D01*
X156039522Y-110904211D01*
X155978867Y-110882986D01*
X155972377Y-110880509D01*
X155923496Y-110860262D01*
X155909860Y-110857550D01*
X155893104Y-110852976D01*
X155869260Y-110844633D01*
X155869256Y-110844632D01*
X155869255Y-110844632D01*
X155848575Y-110842301D01*
X155818303Y-110838890D01*
X155808003Y-110837288D01*
X155768844Y-110829500D01*
X155768842Y-110829500D01*
X155741915Y-110829500D01*
X155728031Y-110828720D01*
X155690002Y-110824435D01*
X155689998Y-110824435D01*
X155651969Y-110828720D01*
X155638085Y-110829500D01*
X155611152Y-110829500D01*
X155571994Y-110837288D01*
X155561696Y-110838890D01*
X155510742Y-110844632D01*
X155510735Y-110844634D01*
X155486898Y-110852975D01*
X155470140Y-110857550D01*
X155456502Y-110860263D01*
X155456496Y-110860264D01*
X155407631Y-110880504D01*
X155401140Y-110882982D01*
X155340477Y-110904210D01*
X155340474Y-110904212D01*
X155330127Y-110910713D01*
X155311639Y-110920266D01*
X155310832Y-110920600D01*
X155310824Y-110920604D01*
X155256047Y-110957204D01*
X155253132Y-110959092D01*
X155187742Y-111000180D01*
X155187735Y-111000186D01*
X155060186Y-111127735D01*
X155060180Y-111127742D01*
X155019092Y-111193132D01*
X155017209Y-111196038D01*
X154998386Y-111224211D01*
X154980604Y-111250824D01*
X154980600Y-111250832D01*
X154980266Y-111251639D01*
X154970713Y-111270127D01*
X154964212Y-111280474D01*
X154964210Y-111280477D01*
X154942982Y-111341140D01*
X154940504Y-111347631D01*
X154920264Y-111396496D01*
X154920263Y-111396502D01*
X154917550Y-111410140D01*
X154912975Y-111426898D01*
X154904634Y-111450735D01*
X154904632Y-111450742D01*
X154898890Y-111501696D01*
X154897288Y-111511994D01*
X154889500Y-111551152D01*
X154889500Y-111578085D01*
X154888720Y-111591969D01*
X154884687Y-111627766D01*
X154884435Y-111630000D01*
X154888312Y-111664413D01*
X154888720Y-111668029D01*
X154889500Y-111681914D01*
X154889500Y-111708844D01*
X154897288Y-111748003D01*
X154898890Y-111758303D01*
X154904632Y-111809252D01*
X154904633Y-111809260D01*
X154912976Y-111833104D01*
X154917550Y-111849860D01*
X154920262Y-111863496D01*
X154940509Y-111912377D01*
X154942986Y-111918867D01*
X154953880Y-111950000D01*
X154964212Y-111979524D01*
X154970709Y-111989865D01*
X154980268Y-112008365D01*
X154980603Y-112009173D01*
X154980605Y-112009179D01*
X155017223Y-112063982D01*
X155019114Y-112066900D01*
X155060180Y-112132257D01*
X155060182Y-112132260D01*
X156223181Y-113295259D01*
X156256666Y-113356582D01*
X156259500Y-113382940D01*
X156259500Y-113968846D01*
X156271271Y-114028022D01*
X156265044Y-114097613D01*
X156222181Y-114152791D01*
X156156291Y-114176035D01*
X156088294Y-114159967D01*
X156061973Y-114139894D01*
X153250292Y-111328213D01*
X153250288Y-111328210D01*
X153119185Y-111240609D01*
X153119172Y-111240602D01*
X152973501Y-111180264D01*
X152973489Y-111180261D01*
X152818845Y-111149500D01*
X152818842Y-111149500D01*
X152751915Y-111149500D01*
X152738031Y-111148720D01*
X152700002Y-111144435D01*
X152699998Y-111144435D01*
X152661969Y-111148720D01*
X152648085Y-111149500D01*
X152621152Y-111149500D01*
X152581994Y-111157288D01*
X152571696Y-111158890D01*
X152520742Y-111164632D01*
X152520735Y-111164634D01*
X152496898Y-111172975D01*
X152480140Y-111177550D01*
X152466502Y-111180263D01*
X152466496Y-111180264D01*
X152417631Y-111200504D01*
X152411140Y-111202982D01*
X152350477Y-111224210D01*
X152350474Y-111224212D01*
X152340127Y-111230713D01*
X152321639Y-111240266D01*
X152320832Y-111240600D01*
X152320824Y-111240604D01*
X152320821Y-111240605D01*
X152320821Y-111240606D01*
X152291402Y-111260263D01*
X152266047Y-111277204D01*
X152263132Y-111279092D01*
X152197742Y-111320180D01*
X152197735Y-111320186D01*
X152070186Y-111447735D01*
X152070180Y-111447742D01*
X152029092Y-111513132D01*
X152027209Y-111516038D01*
X152019392Y-111527738D01*
X151990604Y-111570824D01*
X151990600Y-111570832D01*
X151990266Y-111571639D01*
X151980713Y-111590127D01*
X151974212Y-111600474D01*
X151974210Y-111600477D01*
X151952982Y-111661140D01*
X151950504Y-111667631D01*
X151930264Y-111716496D01*
X151930263Y-111716502D01*
X151927550Y-111730140D01*
X151922975Y-111746898D01*
X151914634Y-111770735D01*
X151914632Y-111770742D01*
X151908890Y-111821696D01*
X151907288Y-111831994D01*
X151899500Y-111871152D01*
X151899500Y-111898085D01*
X151898719Y-111911973D01*
X151898238Y-111916238D01*
X151897708Y-111920946D01*
X151870634Y-111985357D01*
X151813035Y-112024906D01*
X151743197Y-112027036D01*
X151686808Y-111994730D01*
X151092260Y-111400182D01*
X151092257Y-111400180D01*
X151026900Y-111359114D01*
X151023982Y-111357223D01*
X150969179Y-111320605D01*
X150969173Y-111320603D01*
X150968365Y-111320268D01*
X150949865Y-111310709D01*
X150939524Y-111304212D01*
X150939523Y-111304211D01*
X150939522Y-111304211D01*
X150878867Y-111282986D01*
X150872377Y-111280509D01*
X150872302Y-111280478D01*
X150847312Y-111270127D01*
X150823496Y-111260262D01*
X150809860Y-111257550D01*
X150793104Y-111252976D01*
X150769260Y-111244633D01*
X150769256Y-111244632D01*
X150769255Y-111244632D01*
X150748575Y-111242301D01*
X150718303Y-111238890D01*
X150708003Y-111237288D01*
X150668844Y-111229500D01*
X150668842Y-111229500D01*
X150641915Y-111229500D01*
X150628031Y-111228720D01*
X150590002Y-111224435D01*
X150589998Y-111224435D01*
X150551969Y-111228720D01*
X150538085Y-111229500D01*
X150511152Y-111229500D01*
X150471994Y-111237288D01*
X150461696Y-111238890D01*
X150410742Y-111244632D01*
X150410735Y-111244634D01*
X150386898Y-111252975D01*
X150370140Y-111257550D01*
X150356502Y-111260263D01*
X150356496Y-111260264D01*
X150307631Y-111280504D01*
X150301140Y-111282982D01*
X150240477Y-111304210D01*
X150240474Y-111304212D01*
X150230127Y-111310713D01*
X150211639Y-111320266D01*
X150210832Y-111320600D01*
X150210824Y-111320604D01*
X150210821Y-111320605D01*
X150210821Y-111320606D01*
X150175191Y-111344413D01*
X150156047Y-111357204D01*
X150153132Y-111359092D01*
X150087742Y-111400180D01*
X150087735Y-111400186D01*
X149960186Y-111527735D01*
X149960180Y-111527742D01*
X149919092Y-111593132D01*
X149917209Y-111596038D01*
X149894519Y-111629998D01*
X149880604Y-111650824D01*
X149880600Y-111650832D01*
X149880266Y-111651639D01*
X149870713Y-111670127D01*
X149864212Y-111680474D01*
X149864210Y-111680477D01*
X149842982Y-111741140D01*
X149840504Y-111747631D01*
X149820264Y-111796496D01*
X149820263Y-111796502D01*
X149817550Y-111810140D01*
X149812975Y-111826898D01*
X149804634Y-111850735D01*
X149804632Y-111850742D01*
X149798890Y-111901696D01*
X149797288Y-111911994D01*
X149789500Y-111951152D01*
X149789500Y-111978085D01*
X149788720Y-111991969D01*
X149784435Y-112029998D01*
X140150500Y-112029998D01*
X140150500Y-110913396D01*
X140150500Y-110913394D01*
X140148674Y-110904216D01*
X140148674Y-110904211D01*
X140148673Y-110904212D01*
X140148673Y-110904211D01*
X140126463Y-110792548D01*
X140083910Y-110689816D01*
X140079311Y-110678713D01*
X140075291Y-110672697D01*
X140011242Y-110576841D01*
X139991124Y-110521835D01*
X139985368Y-110470745D01*
X139925789Y-110300478D01*
X139829816Y-110147738D01*
X139702262Y-110020184D01*
X139701533Y-110019726D01*
X139549521Y-109924210D01*
X139379249Y-109864630D01*
X139332173Y-109859326D01*
X139267759Y-109832259D01*
X139258377Y-109823787D01*
X137990198Y-108555608D01*
X137990178Y-108555586D01*
X137898733Y-108464141D01*
X137847509Y-108429915D01*
X137829044Y-108417577D01*
X137796286Y-108395688D01*
X137796283Y-108395686D01*
X137796282Y-108395686D01*
X137796281Y-108395685D01*
X137694828Y-108353663D01*
X137694827Y-108353662D01*
X137682456Y-108348538D01*
X137682444Y-108348535D01*
X137612041Y-108334530D01*
X137612032Y-108334530D01*
X137561607Y-108324500D01*
X137561606Y-108324500D01*
X135894855Y-108324500D01*
X135828883Y-108305494D01*
X135699523Y-108224211D01*
X135529254Y-108164631D01*
X135529249Y-108164630D01*
X135350004Y-108144435D01*
X135349996Y-108144435D01*
X135170750Y-108164630D01*
X135170745Y-108164631D01*
X135000476Y-108224211D01*
X134847737Y-108320184D01*
X134720184Y-108447737D01*
X134624211Y-108600476D01*
X134564631Y-108770745D01*
X134564630Y-108770750D01*
X134544435Y-108949996D01*
X134544435Y-108950003D01*
X134564630Y-109129249D01*
X134564631Y-109129254D01*
X134624211Y-109299523D01*
X134645104Y-109332773D01*
X134720184Y-109452262D01*
X134847738Y-109579816D01*
X135000478Y-109675789D01*
X135170745Y-109735368D01*
X135170750Y-109735369D01*
X135349996Y-109755565D01*
X135350000Y-109755565D01*
X135350004Y-109755565D01*
X135529249Y-109735369D01*
X135529252Y-109735368D01*
X135529255Y-109735368D01*
X135699522Y-109675789D01*
X135828883Y-109594505D01*
X135894855Y-109575500D01*
X137189548Y-109575500D01*
X137256587Y-109595185D01*
X137277229Y-109611819D01*
X138373787Y-110708377D01*
X138407272Y-110769700D01*
X138409326Y-110782173D01*
X138414630Y-110829249D01*
X138474210Y-110999521D01*
X138554777Y-111127742D01*
X138570184Y-111152262D01*
X138697738Y-111279816D01*
X138841474Y-111370131D01*
X138887763Y-111422463D01*
X138899500Y-111475123D01*
X138899500Y-117180145D01*
X138880494Y-117246117D01*
X138799210Y-117375478D01*
X138739630Y-117545750D01*
X138734326Y-117592825D01*
X138707258Y-117657239D01*
X138698788Y-117666621D01*
X138477227Y-117888182D01*
X138415907Y-117921666D01*
X138389548Y-117924500D01*
X134118787Y-117924500D01*
X134051748Y-117904815D01*
X134005993Y-117852011D01*
X133996049Y-117782853D01*
X134013794Y-117734527D01*
X134035788Y-117699524D01*
X134035789Y-117699522D01*
X134095368Y-117529255D01*
X134100928Y-117479909D01*
X134115565Y-117350003D01*
X134115565Y-117349996D01*
X134095369Y-117170750D01*
X134095368Y-117170745D01*
X134035788Y-117000476D01*
X133939815Y-116847737D01*
X133812262Y-116720184D01*
X133659523Y-116624211D01*
X133489254Y-116564631D01*
X133489249Y-116564630D01*
X133310004Y-116544435D01*
X133309996Y-116544435D01*
X133130750Y-116564630D01*
X133130745Y-116564631D01*
X132960476Y-116624211D01*
X132807737Y-116720184D01*
X132792991Y-116734931D01*
X132731668Y-116768416D01*
X132705310Y-116771250D01*
X130941088Y-116771250D01*
X130874049Y-116751565D01*
X130853407Y-116734931D01*
X130445069Y-116326593D01*
X130411584Y-116265270D01*
X130408750Y-116238912D01*
X130408750Y-115431727D01*
X130428435Y-115364688D01*
X130445069Y-115344046D01*
X130459816Y-115329299D01*
X130555789Y-115176559D01*
X130615368Y-115006292D01*
X130615369Y-115006286D01*
X130635565Y-114827040D01*
X130635565Y-114827033D01*
X130615369Y-114647787D01*
X130615368Y-114647782D01*
X130587868Y-114569191D01*
X130555789Y-114477515D01*
X130459816Y-114324775D01*
X130332262Y-114197221D01*
X130271830Y-114159249D01*
X130179523Y-114101248D01*
X130009254Y-114041668D01*
X130009249Y-114041667D01*
X129830004Y-114021472D01*
X129829996Y-114021472D01*
X129650750Y-114041667D01*
X129650745Y-114041668D01*
X129480476Y-114101248D01*
X129327737Y-114197221D01*
X129200184Y-114324774D01*
X129104211Y-114477513D01*
X129044631Y-114647782D01*
X129044630Y-114647787D01*
X129024435Y-114827033D01*
X124777989Y-114827033D01*
X124748581Y-103057499D01*
X125254341Y-103057499D01*
X125254341Y-103057500D01*
X125274936Y-103292903D01*
X125274938Y-103292913D01*
X125336094Y-103521155D01*
X125336096Y-103521159D01*
X125336097Y-103521163D01*
X125340000Y-103529532D01*
X125435965Y-103735330D01*
X125435967Y-103735334D01*
X125530391Y-103870184D01*
X125571505Y-103928901D01*
X125738599Y-104095995D01*
X125827342Y-104158133D01*
X125870964Y-104212708D01*
X125878157Y-104282207D01*
X125861210Y-104325677D01*
X125814212Y-104400474D01*
X125754631Y-104570745D01*
X125754630Y-104570750D01*
X125734435Y-104749996D01*
X125734435Y-104750003D01*
X125754630Y-104929249D01*
X125754631Y-104929254D01*
X125814211Y-105099523D01*
X125910184Y-105252262D01*
X125924931Y-105267009D01*
X125958416Y-105328332D01*
X125961250Y-105354690D01*
X125961250Y-107863806D01*
X125961250Y-108016194D01*
X125990513Y-108125403D01*
X126000691Y-108163390D01*
X126000692Y-108163391D01*
X126021108Y-108198752D01*
X126050420Y-108249523D01*
X126076886Y-108295362D01*
X128725392Y-110943868D01*
X128758877Y-111005191D01*
X128760931Y-111017665D01*
X128774630Y-111139249D01*
X128834210Y-111309521D01*
X128902801Y-111418682D01*
X128930184Y-111462262D01*
X129057738Y-111589816D01*
X129121692Y-111630001D01*
X129202025Y-111680478D01*
X129210478Y-111685789D01*
X129298234Y-111716496D01*
X129380745Y-111745368D01*
X129380750Y-111745369D01*
X129559996Y-111765565D01*
X129560000Y-111765565D01*
X129560004Y-111765565D01*
X129739249Y-111745369D01*
X129739252Y-111745368D01*
X129739255Y-111745368D01*
X129909522Y-111685789D01*
X129951302Y-111659536D01*
X130018536Y-111640536D01*
X130058224Y-111647487D01*
X130080745Y-111655368D01*
X130080749Y-111655368D01*
X130080751Y-111655369D01*
X130259996Y-111675565D01*
X130260000Y-111675565D01*
X130260004Y-111675565D01*
X130439249Y-111655369D01*
X130439252Y-111655368D01*
X130439255Y-111655368D01*
X130609522Y-111595789D01*
X130762262Y-111499816D01*
X130889816Y-111372262D01*
X130985789Y-111219522D01*
X131045368Y-111049255D01*
X131045369Y-111049249D01*
X131053986Y-110972771D01*
X131081052Y-110908357D01*
X131138647Y-110868802D01*
X131191090Y-110863434D01*
X131210000Y-110865565D01*
X131210001Y-110865564D01*
X131210002Y-110865565D01*
X131210003Y-110865565D01*
X131389249Y-110845369D01*
X131389252Y-110845368D01*
X131389255Y-110845368D01*
X131559522Y-110785789D01*
X131712262Y-110689816D01*
X131839816Y-110562262D01*
X131935789Y-110409522D01*
X131995368Y-110239255D01*
X132004740Y-110156074D01*
X132015565Y-110060003D01*
X132015565Y-110059996D01*
X131995369Y-109880750D01*
X131995368Y-109880745D01*
X131978402Y-109832259D01*
X131935789Y-109710478D01*
X131913992Y-109675789D01*
X131873797Y-109611819D01*
X131839816Y-109557738D01*
X131825069Y-109542991D01*
X131791584Y-109481668D01*
X131788750Y-109455310D01*
X131788750Y-107899996D01*
X138194435Y-107899996D01*
X138194435Y-107900003D01*
X138214630Y-108079249D01*
X138214631Y-108079254D01*
X138274211Y-108249523D01*
X138339647Y-108353663D01*
X138370184Y-108402262D01*
X138497738Y-108529816D01*
X138531877Y-108551267D01*
X138610192Y-108600476D01*
X138650478Y-108625789D01*
X138815841Y-108683652D01*
X138820745Y-108685368D01*
X138820750Y-108685369D01*
X138999996Y-108705565D01*
X139000000Y-108705565D01*
X139000004Y-108705565D01*
X139179249Y-108685369D01*
X139179252Y-108685368D01*
X139179255Y-108685368D01*
X139349522Y-108625789D01*
X139424527Y-108578659D01*
X139491764Y-108559659D01*
X139558599Y-108580026D01*
X139603814Y-108633294D01*
X139614500Y-108683652D01*
X139614500Y-108787869D01*
X139614501Y-108787876D01*
X139620908Y-108847483D01*
X139671202Y-108982328D01*
X139671206Y-108982335D01*
X139757452Y-109097544D01*
X139757455Y-109097547D01*
X139872664Y-109183793D01*
X139872671Y-109183797D01*
X140007517Y-109234091D01*
X140007516Y-109234091D01*
X140014444Y-109234835D01*
X140067127Y-109240500D01*
X141862872Y-109240499D01*
X141922483Y-109234091D01*
X142057331Y-109183796D01*
X142172546Y-109097546D01*
X142258796Y-108982331D01*
X142309091Y-108847483D01*
X142315500Y-108787873D01*
X142315499Y-107889999D01*
X144689341Y-107889999D01*
X144689341Y-107890000D01*
X144709936Y-108125403D01*
X144709938Y-108125413D01*
X144771094Y-108353655D01*
X144771097Y-108353663D01*
X144870965Y-108567830D01*
X144870967Y-108567834D01*
X144953266Y-108685368D01*
X145006505Y-108761401D01*
X145173599Y-108928495D01*
X145270384Y-108996265D01*
X145367165Y-109064032D01*
X145367167Y-109064033D01*
X145367170Y-109064035D01*
X145581337Y-109163903D01*
X145809592Y-109225063D01*
X145986034Y-109240500D01*
X146044999Y-109245659D01*
X146045000Y-109245659D01*
X146045001Y-109245659D01*
X146103966Y-109240500D01*
X146280408Y-109225063D01*
X146508663Y-109163903D01*
X146722830Y-109064035D01*
X146916401Y-108928495D01*
X147083495Y-108761401D01*
X147219035Y-108567830D01*
X147318903Y-108353663D01*
X147380063Y-108125408D01*
X147400659Y-107890000D01*
X147380063Y-107654592D01*
X147318903Y-107426337D01*
X147219035Y-107212171D01*
X147187794Y-107167553D01*
X147083494Y-107018597D01*
X146916402Y-106851506D01*
X146916395Y-106851501D01*
X146722834Y-106715967D01*
X146722830Y-106715965D01*
X146722828Y-106715964D01*
X146508663Y-106616097D01*
X146508659Y-106616096D01*
X146508655Y-106616094D01*
X146280413Y-106554938D01*
X146280403Y-106554936D01*
X146045001Y-106534341D01*
X146044999Y-106534341D01*
X145809596Y-106554936D01*
X145809586Y-106554938D01*
X145581344Y-106616094D01*
X145581335Y-106616098D01*
X145367171Y-106715964D01*
X145367169Y-106715965D01*
X145173597Y-106851505D01*
X145006505Y-107018597D01*
X144870965Y-107212169D01*
X144870964Y-107212171D01*
X144771098Y-107426335D01*
X144771094Y-107426344D01*
X144709938Y-107654586D01*
X144709936Y-107654596D01*
X144689341Y-107889999D01*
X142315499Y-107889999D01*
X142315499Y-106992128D01*
X142309091Y-106932517D01*
X142258796Y-106797669D01*
X142258795Y-106797668D01*
X142258793Y-106797664D01*
X142172547Y-106682455D01*
X142172544Y-106682452D01*
X142057335Y-106596206D01*
X142057328Y-106596202D01*
X141922482Y-106545908D01*
X141922483Y-106545908D01*
X141862883Y-106539501D01*
X141862881Y-106539500D01*
X141862873Y-106539500D01*
X141862865Y-106539500D01*
X140994451Y-106539500D01*
X140927412Y-106519815D01*
X140881657Y-106467011D01*
X140871713Y-106397853D01*
X140900738Y-106334297D01*
X140906770Y-106327819D01*
X141908380Y-105326209D01*
X141969701Y-105292726D01*
X141982158Y-105290674D01*
X142029255Y-105285368D01*
X142199522Y-105225789D01*
X142352262Y-105129816D01*
X142479816Y-105002262D01*
X142575789Y-104849522D01*
X142635368Y-104679255D01*
X142637453Y-104660750D01*
X142655565Y-104500003D01*
X142655565Y-104499996D01*
X142635369Y-104320750D01*
X142635368Y-104320745D01*
X142605507Y-104235408D01*
X142575789Y-104150478D01*
X142575382Y-104149831D01*
X142492809Y-104018417D01*
X142479816Y-103997738D01*
X142352262Y-103870184D01*
X142199523Y-103774211D01*
X142029254Y-103714631D01*
X142029249Y-103714630D01*
X141850004Y-103694435D01*
X141849996Y-103694435D01*
X141670750Y-103714630D01*
X141670745Y-103714631D01*
X141500476Y-103774211D01*
X141347737Y-103870184D01*
X141220184Y-103997737D01*
X141124210Y-104150478D01*
X141064630Y-104320750D01*
X141059326Y-104367825D01*
X141032258Y-104432238D01*
X141023787Y-104441620D01*
X139137590Y-106327819D01*
X138601269Y-106864140D01*
X138601267Y-106864142D01*
X138557704Y-106907704D01*
X138514142Y-106951266D01*
X138486840Y-106992127D01*
X138486839Y-106992126D01*
X138445686Y-107053716D01*
X138445685Y-107053718D01*
X138412347Y-107134207D01*
X138406823Y-107147543D01*
X138398537Y-107167545D01*
X138398535Y-107167553D01*
X138374500Y-107288389D01*
X138374500Y-107355145D01*
X138355494Y-107421117D01*
X138274211Y-107550476D01*
X138214631Y-107720745D01*
X138214630Y-107720750D01*
X138194435Y-107899996D01*
X131788750Y-107899996D01*
X131788750Y-105731023D01*
X131808435Y-105663984D01*
X131861239Y-105618229D01*
X131871788Y-105613984D01*
X132009522Y-105565789D01*
X132162262Y-105469816D01*
X132289816Y-105342262D01*
X132385789Y-105189522D01*
X132445368Y-105019255D01*
X132454902Y-104934639D01*
X132465565Y-104840003D01*
X132465565Y-104839996D01*
X132445369Y-104660750D01*
X132445367Y-104660742D01*
X132414649Y-104572953D01*
X132411088Y-104503174D01*
X132445817Y-104442547D01*
X132507810Y-104410320D01*
X132531691Y-104407999D01*
X132587871Y-104407999D01*
X132587872Y-104407999D01*
X132647483Y-104401591D01*
X132782331Y-104351296D01*
X132897546Y-104265046D01*
X132983796Y-104149831D01*
X133034091Y-104014983D01*
X133040500Y-103955373D01*
X133040499Y-102159628D01*
X133034091Y-102100017D01*
X133032810Y-102096583D01*
X132983797Y-101965171D01*
X132983793Y-101965164D01*
X132897547Y-101849955D01*
X132897544Y-101849952D01*
X132782335Y-101763706D01*
X132782328Y-101763702D01*
X132647482Y-101713408D01*
X132647483Y-101713408D01*
X132587883Y-101707001D01*
X132587881Y-101707000D01*
X132587873Y-101707000D01*
X132587864Y-101707000D01*
X130792129Y-101707000D01*
X130792123Y-101707001D01*
X130732516Y-101713408D01*
X130597671Y-101763702D01*
X130597664Y-101763706D01*
X130482455Y-101849952D01*
X130482452Y-101849955D01*
X130396206Y-101965164D01*
X130396203Y-101965169D01*
X130347189Y-102096583D01*
X130305317Y-102152516D01*
X130239853Y-102176933D01*
X130171580Y-102162081D01*
X130143326Y-102140930D01*
X130021402Y-102019006D01*
X130021395Y-102019001D01*
X129827834Y-101883467D01*
X129827830Y-101883465D01*
X129827828Y-101883464D01*
X129613663Y-101783597D01*
X129613659Y-101783596D01*
X129613655Y-101783594D01*
X129385413Y-101722438D01*
X129385403Y-101722436D01*
X129150001Y-101701841D01*
X129149999Y-101701841D01*
X128914596Y-101722436D01*
X128914586Y-101722438D01*
X128686344Y-101783594D01*
X128686335Y-101783598D01*
X128472171Y-101883464D01*
X128472169Y-101883465D01*
X128278597Y-102019005D01*
X128111505Y-102186097D01*
X127981575Y-102371658D01*
X127926998Y-102415283D01*
X127857500Y-102422477D01*
X127795145Y-102390954D01*
X127778425Y-102371658D01*
X127648494Y-102186097D01*
X127481402Y-102019006D01*
X127481395Y-102019001D01*
X127287834Y-101883467D01*
X127287830Y-101883465D01*
X127287828Y-101883464D01*
X127073663Y-101783597D01*
X127073659Y-101783596D01*
X127073655Y-101783594D01*
X126845413Y-101722438D01*
X126845403Y-101722436D01*
X126610001Y-101701841D01*
X126609999Y-101701841D01*
X126374596Y-101722436D01*
X126374586Y-101722438D01*
X126146344Y-101783594D01*
X126146335Y-101783598D01*
X125932171Y-101883464D01*
X125932169Y-101883465D01*
X125738597Y-102019005D01*
X125571505Y-102186097D01*
X125435965Y-102379669D01*
X125435964Y-102379671D01*
X125336098Y-102593835D01*
X125336094Y-102593844D01*
X125274938Y-102822086D01*
X125274936Y-102822096D01*
X125254341Y-103057499D01*
X124748581Y-103057499D01*
X124743008Y-100827135D01*
X147399500Y-100827135D01*
X147399500Y-102622870D01*
X147399501Y-102622876D01*
X147405908Y-102682483D01*
X147456202Y-102817328D01*
X147456206Y-102817335D01*
X147542452Y-102932544D01*
X147542455Y-102932547D01*
X147657664Y-103018793D01*
X147657671Y-103018797D01*
X147792517Y-103069091D01*
X147792516Y-103069091D01*
X147799444Y-103069835D01*
X147852127Y-103075500D01*
X149647872Y-103075499D01*
X149707483Y-103069091D01*
X149842331Y-103018796D01*
X149957546Y-102932546D01*
X150043796Y-102817331D01*
X150092810Y-102685916D01*
X150134681Y-102629984D01*
X150200145Y-102605566D01*
X150268418Y-102620417D01*
X150296673Y-102641569D01*
X150418599Y-102763495D01*
X150502276Y-102822086D01*
X150612165Y-102899032D01*
X150612167Y-102899033D01*
X150612170Y-102899035D01*
X150826337Y-102998903D01*
X151054592Y-103060063D01*
X151231034Y-103075500D01*
X151289999Y-103080659D01*
X151290000Y-103080659D01*
X151290001Y-103080659D01*
X151348966Y-103075500D01*
X151525408Y-103060063D01*
X151753663Y-102998903D01*
X151967830Y-102899035D01*
X152161401Y-102763495D01*
X152328495Y-102596401D01*
X152458425Y-102410842D01*
X152513002Y-102367217D01*
X152582500Y-102360023D01*
X152644855Y-102391546D01*
X152661575Y-102410842D01*
X152791500Y-102596395D01*
X152791505Y-102596401D01*
X152958599Y-102763495D01*
X153042276Y-102822086D01*
X153152165Y-102899032D01*
X153152167Y-102899033D01*
X153152170Y-102899035D01*
X153366337Y-102998903D01*
X153594592Y-103060063D01*
X153771034Y-103075500D01*
X153829999Y-103080659D01*
X153830000Y-103080659D01*
X153830001Y-103080659D01*
X153888966Y-103075500D01*
X154065408Y-103060063D01*
X154293663Y-102998903D01*
X154507830Y-102899035D01*
X154701401Y-102763495D01*
X154868495Y-102596401D01*
X154998425Y-102410842D01*
X155053002Y-102367217D01*
X155122500Y-102360023D01*
X155184855Y-102391546D01*
X155201575Y-102410842D01*
X155331500Y-102596395D01*
X155331505Y-102596401D01*
X155498599Y-102763495D01*
X155582276Y-102822086D01*
X155692165Y-102899032D01*
X155692167Y-102899033D01*
X155692170Y-102899035D01*
X155906337Y-102998903D01*
X156134592Y-103060063D01*
X156311034Y-103075500D01*
X156369999Y-103080659D01*
X156370000Y-103080659D01*
X156370001Y-103080659D01*
X156428966Y-103075500D01*
X156605408Y-103060063D01*
X156833663Y-102998903D01*
X157047830Y-102899035D01*
X157241401Y-102763495D01*
X157408495Y-102596401D01*
X157544035Y-102402830D01*
X157643903Y-102188663D01*
X157705063Y-101960408D01*
X157725659Y-101725000D01*
X157705063Y-101489592D01*
X157643903Y-101261337D01*
X157544035Y-101047171D01*
X157538425Y-101039158D01*
X157408494Y-100853597D01*
X157241402Y-100686506D01*
X157241395Y-100686501D01*
X157047834Y-100550967D01*
X157047830Y-100550965D01*
X157009799Y-100533231D01*
X156833663Y-100451097D01*
X156833659Y-100451096D01*
X156833655Y-100451094D01*
X156605413Y-100389938D01*
X156605403Y-100389936D01*
X156370001Y-100369341D01*
X156369999Y-100369341D01*
X156134596Y-100389936D01*
X156134586Y-100389938D01*
X155906344Y-100451094D01*
X155906335Y-100451098D01*
X155692171Y-100550964D01*
X155692169Y-100550965D01*
X155498597Y-100686505D01*
X155331505Y-100853597D01*
X155201575Y-101039158D01*
X155146998Y-101082783D01*
X155077500Y-101089977D01*
X155015145Y-101058454D01*
X154998425Y-101039158D01*
X154868494Y-100853597D01*
X154701402Y-100686506D01*
X154701395Y-100686501D01*
X154507834Y-100550967D01*
X154507830Y-100550965D01*
X154469799Y-100533231D01*
X154293663Y-100451097D01*
X154293659Y-100451096D01*
X154293655Y-100451094D01*
X154065413Y-100389938D01*
X154065403Y-100389936D01*
X153830001Y-100369341D01*
X153829999Y-100369341D01*
X153594596Y-100389936D01*
X153594586Y-100389938D01*
X153366344Y-100451094D01*
X153366335Y-100451098D01*
X153152171Y-100550964D01*
X153152169Y-100550965D01*
X152958597Y-100686505D01*
X152791505Y-100853597D01*
X152661575Y-101039158D01*
X152606998Y-101082783D01*
X152537500Y-101089977D01*
X152475145Y-101058454D01*
X152458425Y-101039158D01*
X152328494Y-100853597D01*
X152161402Y-100686506D01*
X152161395Y-100686501D01*
X151967834Y-100550967D01*
X151967830Y-100550965D01*
X151929799Y-100533231D01*
X151753663Y-100451097D01*
X151753659Y-100451096D01*
X151753655Y-100451094D01*
X151525413Y-100389938D01*
X151525403Y-100389936D01*
X151290001Y-100369341D01*
X151289999Y-100369341D01*
X151054596Y-100389936D01*
X151054586Y-100389938D01*
X150826344Y-100451094D01*
X150826335Y-100451098D01*
X150612171Y-100550964D01*
X150612169Y-100550965D01*
X150418600Y-100686503D01*
X150296673Y-100808430D01*
X150235350Y-100841914D01*
X150165658Y-100836930D01*
X150109725Y-100795058D01*
X150092810Y-100764081D01*
X150043797Y-100632671D01*
X150043793Y-100632664D01*
X149957547Y-100517455D01*
X149957544Y-100517452D01*
X149842335Y-100431206D01*
X149842328Y-100431202D01*
X149707482Y-100380908D01*
X149707483Y-100380908D01*
X149647883Y-100374501D01*
X149647881Y-100374500D01*
X149647873Y-100374500D01*
X149647864Y-100374500D01*
X147852129Y-100374500D01*
X147852123Y-100374501D01*
X147792516Y-100380908D01*
X147657671Y-100431202D01*
X147657664Y-100431206D01*
X147542455Y-100517452D01*
X147542452Y-100517455D01*
X147456206Y-100632664D01*
X147456202Y-100632671D01*
X147405908Y-100767517D01*
X147399501Y-100827116D01*
X147399500Y-100827135D01*
X124743008Y-100827135D01*
X124733399Y-96981211D01*
X124730576Y-95851211D01*
X156395418Y-95851211D01*
X156415027Y-96137891D01*
X156473492Y-96419245D01*
X156473493Y-96419248D01*
X156569720Y-96690004D01*
X156569719Y-96690004D01*
X156701924Y-96945146D01*
X156867638Y-97179911D01*
X156952749Y-97271042D01*
X157063773Y-97389919D01*
X157286679Y-97571266D01*
X157532208Y-97720576D01*
X157719063Y-97801737D01*
X157795768Y-97835055D01*
X158072468Y-97912582D01*
X158322746Y-97946982D01*
X158357147Y-97951711D01*
X158357148Y-97951711D01*
X158644505Y-97951711D01*
X158675196Y-97947492D01*
X158929184Y-97912582D01*
X159205884Y-97835055D01*
X159318841Y-97785990D01*
X159469443Y-97720576D01*
X159469446Y-97720574D01*
X159469451Y-97720572D01*
X159714973Y-97571266D01*
X159937879Y-97389919D01*
X160134015Y-97179909D01*
X160299727Y-96945147D01*
X160431930Y-96690008D01*
X160528160Y-96419243D01*
X160586624Y-96137897D01*
X160606234Y-95851211D01*
X160586624Y-95564525D01*
X160528160Y-95283179D01*
X160431931Y-95012417D01*
X160431932Y-95012417D01*
X160299727Y-94757275D01*
X160134013Y-94522510D01*
X160000357Y-94379401D01*
X159937879Y-94312503D01*
X159714973Y-94131156D01*
X159714972Y-94131155D01*
X159469443Y-93981845D01*
X159205889Y-93867369D01*
X159205887Y-93867368D01*
X159205884Y-93867367D01*
X159076404Y-93831088D01*
X158929190Y-93789841D01*
X158929185Y-93789840D01*
X158929184Y-93789840D01*
X158786844Y-93770275D01*
X158644505Y-93750711D01*
X158644504Y-93750711D01*
X158357148Y-93750711D01*
X158357147Y-93750711D01*
X158072468Y-93789840D01*
X158072461Y-93789841D01*
X157864687Y-93848056D01*
X157795768Y-93867367D01*
X157795765Y-93867367D01*
X157795762Y-93867369D01*
X157795761Y-93867369D01*
X157532208Y-93981845D01*
X157286679Y-94131155D01*
X157063776Y-94312500D01*
X156867638Y-94522510D01*
X156701924Y-94757275D01*
X156569720Y-95012417D01*
X156473493Y-95283173D01*
X156473492Y-95283176D01*
X156415027Y-95564530D01*
X156395418Y-95851211D01*
X124730576Y-95851211D01*
X124701092Y-84051211D01*
X156395418Y-84051211D01*
X156415027Y-84337891D01*
X156473492Y-84619245D01*
X156473493Y-84619248D01*
X156569720Y-84890004D01*
X156569719Y-84890004D01*
X156701924Y-85145146D01*
X156867638Y-85379911D01*
X156923890Y-85440141D01*
X157063773Y-85589919D01*
X157286679Y-85771266D01*
X157419298Y-85851914D01*
X157532208Y-85920576D01*
X157719063Y-86001737D01*
X157795768Y-86035055D01*
X158072468Y-86112582D01*
X158322746Y-86146982D01*
X158357147Y-86151711D01*
X158357148Y-86151711D01*
X158644505Y-86151711D01*
X158675196Y-86147492D01*
X158929184Y-86112582D01*
X159205884Y-86035055D01*
X159318841Y-85985990D01*
X159469443Y-85920576D01*
X159469446Y-85920574D01*
X159469451Y-85920572D01*
X159667725Y-85799998D01*
X164344435Y-85799998D01*
X164344435Y-85800001D01*
X164348720Y-85838029D01*
X164349500Y-85851914D01*
X164349500Y-88248085D01*
X164348720Y-88261969D01*
X164344435Y-88299998D01*
X164344435Y-88300001D01*
X164348720Y-88338029D01*
X164349500Y-88351914D01*
X164349500Y-88378844D01*
X164357288Y-88418003D01*
X164358890Y-88428303D01*
X164364632Y-88479252D01*
X164364633Y-88479260D01*
X164372976Y-88503104D01*
X164377550Y-88519860D01*
X164380262Y-88533496D01*
X164400509Y-88582377D01*
X164402988Y-88588872D01*
X164424212Y-88649524D01*
X164430709Y-88659865D01*
X164440268Y-88678365D01*
X164440603Y-88679173D01*
X164440605Y-88679179D01*
X164477223Y-88733982D01*
X164479114Y-88736900D01*
X164520180Y-88802257D01*
X164520182Y-88802260D01*
X164520184Y-88802262D01*
X164647738Y-88929816D01*
X164713096Y-88970883D01*
X164713131Y-88970905D01*
X164716040Y-88972790D01*
X164770821Y-89009394D01*
X164771606Y-89009719D01*
X164790134Y-89019289D01*
X164800478Y-89025789D01*
X164861175Y-89047028D01*
X164867607Y-89049484D01*
X164896021Y-89061253D01*
X164916497Y-89069735D01*
X164916498Y-89069735D01*
X164916503Y-89069737D01*
X164930139Y-89072449D01*
X164946898Y-89077023D01*
X164970745Y-89085368D01*
X165021714Y-89091110D01*
X165031992Y-89092709D01*
X165059140Y-89098109D01*
X165071157Y-89100500D01*
X165071158Y-89100500D01*
X165098085Y-89100500D01*
X165111969Y-89101280D01*
X165149998Y-89105565D01*
X165150000Y-89105565D01*
X165150002Y-89105565D01*
X165188031Y-89101280D01*
X165201915Y-89100500D01*
X165228841Y-89100500D01*
X165228842Y-89100500D01*
X165268017Y-89092707D01*
X165278283Y-89091110D01*
X165329255Y-89085368D01*
X165353100Y-89077023D01*
X165369862Y-89072448D01*
X165383497Y-89069737D01*
X165432389Y-89049484D01*
X165438837Y-89047023D01*
X165499522Y-89025789D01*
X165509868Y-89019287D01*
X165528390Y-89009720D01*
X165529179Y-89009394D01*
X165583987Y-88972771D01*
X165586825Y-88970931D01*
X165652262Y-88929816D01*
X165779816Y-88802262D01*
X165820931Y-88736825D01*
X165822777Y-88733979D01*
X165859389Y-88679186D01*
X165859394Y-88679179D01*
X165859720Y-88678390D01*
X165869287Y-88659868D01*
X165875789Y-88649522D01*
X165897023Y-88588837D01*
X165899490Y-88582377D01*
X165919737Y-88533497D01*
X165922449Y-88519860D01*
X165927023Y-88503100D01*
X165935368Y-88479255D01*
X165941110Y-88428283D01*
X165942707Y-88418017D01*
X165950500Y-88378842D01*
X165950500Y-88351914D01*
X165951280Y-88338029D01*
X165955565Y-88300001D01*
X165955565Y-88299998D01*
X165951280Y-88261969D01*
X165950500Y-88248085D01*
X165950500Y-85851914D01*
X165951280Y-85838029D01*
X165955565Y-85800001D01*
X165955565Y-85799998D01*
X165951280Y-85761969D01*
X165950500Y-85748085D01*
X165950500Y-85721157D01*
X165942711Y-85682003D01*
X165941110Y-85671714D01*
X165935368Y-85620745D01*
X165927023Y-85596898D01*
X165922449Y-85580139D01*
X165919737Y-85566503D01*
X165919734Y-85566496D01*
X165901726Y-85523021D01*
X165899484Y-85517607D01*
X165897028Y-85511175D01*
X165875789Y-85450478D01*
X165869289Y-85440134D01*
X165859719Y-85421606D01*
X165859394Y-85420821D01*
X165822790Y-85366040D01*
X165820905Y-85363131D01*
X165779816Y-85297738D01*
X165652262Y-85170184D01*
X165652260Y-85170182D01*
X165652257Y-85170180D01*
X165586900Y-85129114D01*
X165583982Y-85127223D01*
X165529179Y-85090605D01*
X165529173Y-85090603D01*
X165528365Y-85090268D01*
X165509865Y-85080709D01*
X165499524Y-85074212D01*
X165499523Y-85074211D01*
X165499522Y-85074211D01*
X165438867Y-85052986D01*
X165432377Y-85050509D01*
X165383496Y-85030262D01*
X165369860Y-85027550D01*
X165353104Y-85022976D01*
X165329260Y-85014633D01*
X165329256Y-85014632D01*
X165329255Y-85014632D01*
X165308575Y-85012301D01*
X165278303Y-85008890D01*
X165268003Y-85007288D01*
X165228844Y-84999500D01*
X165228842Y-84999500D01*
X165201915Y-84999500D01*
X165188031Y-84998720D01*
X165150002Y-84994435D01*
X165149998Y-84994435D01*
X165111969Y-84998720D01*
X165098085Y-84999500D01*
X165071152Y-84999500D01*
X165031994Y-85007288D01*
X165021696Y-85008890D01*
X164970742Y-85014632D01*
X164970735Y-85014634D01*
X164946898Y-85022975D01*
X164930140Y-85027550D01*
X164916502Y-85030263D01*
X164916496Y-85030264D01*
X164867631Y-85050504D01*
X164861140Y-85052982D01*
X164800477Y-85074210D01*
X164800474Y-85074212D01*
X164790127Y-85080713D01*
X164771639Y-85090266D01*
X164770832Y-85090600D01*
X164770824Y-85090604D01*
X164716047Y-85127204D01*
X164713132Y-85129092D01*
X164647742Y-85170180D01*
X164647735Y-85170186D01*
X164520186Y-85297735D01*
X164520180Y-85297742D01*
X164479092Y-85363132D01*
X164477209Y-85366038D01*
X164467925Y-85379934D01*
X164440604Y-85420824D01*
X164440600Y-85420832D01*
X164440266Y-85421639D01*
X164430713Y-85440127D01*
X164424212Y-85450474D01*
X164424210Y-85450477D01*
X164402982Y-85511140D01*
X164400504Y-85517631D01*
X164380264Y-85566496D01*
X164380263Y-85566502D01*
X164377550Y-85580140D01*
X164372975Y-85596898D01*
X164364634Y-85620735D01*
X164364632Y-85620742D01*
X164358890Y-85671696D01*
X164357288Y-85681994D01*
X164349500Y-85721152D01*
X164349500Y-85748085D01*
X164348720Y-85761969D01*
X164344435Y-85799998D01*
X159667725Y-85799998D01*
X159714973Y-85771266D01*
X159937879Y-85589919D01*
X160134015Y-85379909D01*
X160299727Y-85145147D01*
X160431930Y-84890008D01*
X160528160Y-84619243D01*
X160586624Y-84337897D01*
X160606234Y-84051211D01*
X160586624Y-83764525D01*
X160528160Y-83483179D01*
X160431931Y-83212417D01*
X160431932Y-83212417D01*
X160299727Y-82957275D01*
X160134013Y-82722510D01*
X160002521Y-82581718D01*
X159937879Y-82512503D01*
X159746080Y-82356463D01*
X159714972Y-82331155D01*
X159469443Y-82181845D01*
X159205889Y-82067369D01*
X159205887Y-82067368D01*
X159205884Y-82067367D01*
X159076404Y-82031088D01*
X158929190Y-81989841D01*
X158929185Y-81989840D01*
X158929184Y-81989840D01*
X158786844Y-81970275D01*
X158644505Y-81950711D01*
X158644504Y-81950711D01*
X158357148Y-81950711D01*
X158357147Y-81950711D01*
X158072468Y-81989840D01*
X158072461Y-81989841D01*
X157864687Y-82048056D01*
X157795768Y-82067367D01*
X157795765Y-82067367D01*
X157795762Y-82067369D01*
X157795761Y-82067369D01*
X157532208Y-82181845D01*
X157286679Y-82331155D01*
X157063776Y-82512500D01*
X156867638Y-82722510D01*
X156701924Y-82957275D01*
X156569720Y-83212417D01*
X156473493Y-83483173D01*
X156473492Y-83483176D01*
X156415027Y-83764530D01*
X156395418Y-84051211D01*
X124701092Y-84051211D01*
X124687844Y-78749239D01*
X171904189Y-78749239D01*
X171916355Y-78749837D01*
G37*
%TD.AperFunction*%
%TD*%
%TA.AperFunction,Conductor*%
%TO.N,VSS_PA*%
G36*
X124733399Y-96981211D02*
G01*
X123363523Y-96981211D01*
X123314119Y-96970944D01*
X123305885Y-96967367D01*
X123029190Y-96889841D01*
X123029185Y-96889840D01*
X123029184Y-96889840D01*
X122886844Y-96870275D01*
X122744505Y-96850711D01*
X122744504Y-96850711D01*
X122457148Y-96850711D01*
X122457147Y-96850711D01*
X122172468Y-96889840D01*
X122172461Y-96889841D01*
X121895766Y-96967367D01*
X121887533Y-96970944D01*
X121838129Y-96981211D01*
X118734814Y-96981211D01*
X118667775Y-96961526D01*
X118622020Y-96908722D01*
X118610814Y-96857211D01*
X118610814Y-79603058D01*
X118610816Y-79603033D01*
X118610815Y-79588614D01*
X118610816Y-79588613D01*
X118610814Y-79554814D01*
X118611411Y-79542663D01*
X118624974Y-79404910D01*
X118629715Y-79381069D01*
X118635272Y-79362745D01*
X118668119Y-79254452D01*
X118677420Y-79231998D01*
X118739789Y-79115308D01*
X118753286Y-79095106D01*
X118837228Y-78992819D01*
X118854407Y-78975640D01*
X118956689Y-78891697D01*
X118976889Y-78878200D01*
X119093583Y-78815826D01*
X119116028Y-78806528D01*
X119242657Y-78768116D01*
X119266481Y-78763378D01*
X119403996Y-78749835D01*
X119416146Y-78749239D01*
X119450193Y-78749240D01*
X119450195Y-78749239D01*
X124687844Y-78749239D01*
X124733399Y-96981211D01*
G37*
%TD.AperFunction*%
%TD*%
M02*
