%TF.GenerationSoftware,KiCad,Pcbnew,8.0.3*%
%TF.CreationDate,2026-06-18T17:15:40-07:00*%
%TF.ProjectId,50p_spectra6_4,3530705f-7370-4656-9374-7261365f342e,rev?*%
%TF.SameCoordinates,Original*%
%TF.FileFunction,Drillmap*%
%TF.FilePolarity,Positive*%
%FSLAX45Y45*%
G04 Gerber Fmt 4.5, Leading zero omitted, Abs format (unit mm)*
G04 Created by KiCad (PCBNEW 8.0.3) date 2026-06-18 17:15:40*
%MOMM*%
%LPD*%
G01*
G04 APERTURE LIST*
%ADD10C,0.050000*%
%ADD11C,0.200000*%
G04 APERTURE END LIST*
D10*
X17356000Y-8130000D02*
X16779000Y-8130000D01*
X17355949Y-11496753D02*
G75*
G02*
X17255949Y-11596749I-99999J3D01*
G01*
X12515000Y-8877000D02*
G75*
G02*
X12135000Y-8877000I-190000J0D01*
G01*
X12135000Y-8877000D02*
G75*
G02*
X12515000Y-8877000I190000J0D01*
G01*
X17356000Y-7220000D02*
X17355949Y-6936753D01*
X16779000Y-8130000D02*
X16779000Y-7220000D01*
X12005949Y-11596753D02*
G75*
G02*
X11905947Y-11496753I-9J99993D01*
G01*
X17356000Y-8130000D02*
X17355949Y-11496753D01*
X16105000Y-8567000D02*
G75*
G02*
X15725000Y-8567000I-190000J0D01*
G01*
X15725000Y-8567000D02*
G75*
G02*
X16105000Y-8567000I190000J0D01*
G01*
X16105000Y-7387000D02*
G75*
G02*
X15725000Y-7387000I-190000J0D01*
G01*
X15725000Y-7387000D02*
G75*
G02*
X16105000Y-7387000I190000J0D01*
G01*
X11905949Y-11496753D02*
X11905949Y-6936753D01*
X12005949Y-6836753D02*
X17255949Y-6836753D01*
X16779000Y-7220000D02*
X17356000Y-7220000D01*
X11905949Y-6936753D02*
G75*
G02*
X12005949Y-6836749I100001J3D01*
G01*
X13105000Y-11287000D02*
G75*
G02*
X12725000Y-11287000I-190000J0D01*
G01*
X12725000Y-11287000D02*
G75*
G02*
X13105000Y-11287000I190000J0D01*
G01*
X17255949Y-6836753D02*
G75*
G02*
X17355947Y-6936753I-9J-100007D01*
G01*
X17255949Y-11596753D02*
X12005949Y-11596753D01*
X16055000Y-11237000D02*
G75*
G02*
X15675000Y-11237000I-190000J0D01*
G01*
X15675000Y-11237000D02*
G75*
G02*
X16055000Y-11237000I190000J0D01*
G01*
X16905000Y-10597000D02*
G75*
G02*
X16525000Y-10597000I-190000J0D01*
G01*
X16525000Y-10597000D02*
G75*
G02*
X16905000Y-10597000I190000J0D01*
G01*
D11*
X12164224Y-11910737D02*
X12164224Y-11710737D01*
X12164224Y-11710737D02*
X12211843Y-11710737D01*
X12211843Y-11710737D02*
X12240414Y-11720260D01*
X12240414Y-11720260D02*
X12259462Y-11739308D01*
X12259462Y-11739308D02*
X12268986Y-11758356D01*
X12268986Y-11758356D02*
X12278510Y-11796451D01*
X12278510Y-11796451D02*
X12278510Y-11825022D01*
X12278510Y-11825022D02*
X12268986Y-11863117D01*
X12268986Y-11863117D02*
X12259462Y-11882165D01*
X12259462Y-11882165D02*
X12240414Y-11901213D01*
X12240414Y-11901213D02*
X12211843Y-11910737D01*
X12211843Y-11910737D02*
X12164224Y-11910737D01*
X12364224Y-11910737D02*
X12364224Y-11777403D01*
X12364224Y-11815498D02*
X12373748Y-11796451D01*
X12373748Y-11796451D02*
X12383272Y-11786927D01*
X12383272Y-11786927D02*
X12402319Y-11777403D01*
X12402319Y-11777403D02*
X12421367Y-11777403D01*
X12488033Y-11910737D02*
X12488033Y-11777403D01*
X12488033Y-11710737D02*
X12478510Y-11720260D01*
X12478510Y-11720260D02*
X12488033Y-11729784D01*
X12488033Y-11729784D02*
X12497557Y-11720260D01*
X12497557Y-11720260D02*
X12488033Y-11710737D01*
X12488033Y-11710737D02*
X12488033Y-11729784D01*
X12611843Y-11910737D02*
X12592795Y-11901213D01*
X12592795Y-11901213D02*
X12583272Y-11882165D01*
X12583272Y-11882165D02*
X12583272Y-11710737D01*
X12716605Y-11910737D02*
X12697557Y-11901213D01*
X12697557Y-11901213D02*
X12688033Y-11882165D01*
X12688033Y-11882165D02*
X12688033Y-11710737D01*
X12945176Y-11910737D02*
X12945176Y-11710737D01*
X12945176Y-11710737D02*
X13011843Y-11853594D01*
X13011843Y-11853594D02*
X13078510Y-11710737D01*
X13078510Y-11710737D02*
X13078510Y-11910737D01*
X13259462Y-11910737D02*
X13259462Y-11805975D01*
X13259462Y-11805975D02*
X13249938Y-11786927D01*
X13249938Y-11786927D02*
X13230891Y-11777403D01*
X13230891Y-11777403D02*
X13192795Y-11777403D01*
X13192795Y-11777403D02*
X13173748Y-11786927D01*
X13259462Y-11901213D02*
X13240414Y-11910737D01*
X13240414Y-11910737D02*
X13192795Y-11910737D01*
X13192795Y-11910737D02*
X13173748Y-11901213D01*
X13173748Y-11901213D02*
X13164224Y-11882165D01*
X13164224Y-11882165D02*
X13164224Y-11863117D01*
X13164224Y-11863117D02*
X13173748Y-11844070D01*
X13173748Y-11844070D02*
X13192795Y-11834546D01*
X13192795Y-11834546D02*
X13240414Y-11834546D01*
X13240414Y-11834546D02*
X13259462Y-11825022D01*
X13354700Y-11777403D02*
X13354700Y-11977403D01*
X13354700Y-11786927D02*
X13373748Y-11777403D01*
X13373748Y-11777403D02*
X13411843Y-11777403D01*
X13411843Y-11777403D02*
X13430891Y-11786927D01*
X13430891Y-11786927D02*
X13440414Y-11796451D01*
X13440414Y-11796451D02*
X13449938Y-11815498D01*
X13449938Y-11815498D02*
X13449938Y-11872641D01*
X13449938Y-11872641D02*
X13440414Y-11891689D01*
X13440414Y-11891689D02*
X13430891Y-11901213D01*
X13430891Y-11901213D02*
X13411843Y-11910737D01*
X13411843Y-11910737D02*
X13373748Y-11910737D01*
X13373748Y-11910737D02*
X13354700Y-11901213D01*
X13535653Y-11891689D02*
X13545176Y-11901213D01*
X13545176Y-11901213D02*
X13535653Y-11910737D01*
X13535653Y-11910737D02*
X13526129Y-11901213D01*
X13526129Y-11901213D02*
X13535653Y-11891689D01*
X13535653Y-11891689D02*
X13535653Y-11910737D01*
X13535653Y-11786927D02*
X13545176Y-11796451D01*
X13545176Y-11796451D02*
X13535653Y-11805975D01*
X13535653Y-11805975D02*
X13526129Y-11796451D01*
X13526129Y-11796451D02*
X13535653Y-11786927D01*
X13535653Y-11786927D02*
X13535653Y-11805975D01*
M02*
