%TF.GenerationSoftware,KiCad,Pcbnew,8.0.3*%
%TF.CreationDate,2026-06-18T17:15:29-07:00*%
%TF.ProjectId,50p_spectra6_4,3530705f-7370-4656-9374-7261365f342e,rev?*%
%TF.SameCoordinates,Original*%
%TF.FileFunction,Legend,Top*%
%TF.FilePolarity,Positive*%
%FSLAX46Y46*%
G04 Gerber Fmt 4.6, Leading zero omitted, Abs format (unit mm)*
G04 Created by KiCad (PCBNEW 8.0.3) date 2026-06-18 17:15:29*
%MOMM*%
%LPD*%
G01*
G04 APERTURE LIST*
G04 Aperture macros list*
%AMRoundRect*
0 Rectangle with rounded corners*
0 $1 Rounding radius*
0 $2 $3 $4 $5 $6 $7 $8 $9 X,Y pos of 4 corners*
0 Add a 4 corners polygon primitive as box body*
4,1,4,$2,$3,$4,$5,$6,$7,$8,$9,$2,$3,0*
0 Add four circle primitives for the rounded corners*
1,1,$1+$1,$2,$3*
1,1,$1+$1,$4,$5*
1,1,$1+$1,$6,$7*
1,1,$1+$1,$8,$9*
0 Add four rect primitives between the rounded corners*
20,1,$1+$1,$2,$3,$4,$5,0*
20,1,$1+$1,$4,$5,$6,$7,0*
20,1,$1+$1,$6,$7,$8,$9,0*
20,1,$1+$1,$8,$9,$2,$3,0*%
%AMRotRect*
0 Rectangle, with rotation*
0 The origin of the aperture is its center*
0 $1 length*
0 $2 width*
0 $3 Rotation angle, in degrees counterclockwise*
0 Add horizontal line*
21,1,$1,$2,0,0,$3*%
%AMFreePoly0*
4,1,5,0.110000,-0.125000,-0.110000,-0.125000,-0.110000,0.125000,0.360000,0.125000,0.110000,-0.125000,0.110000,-0.125000,$1*%
%AMFreePoly1*
4,1,6,0.290000,-0.055000,0.290000,-0.125000,-0.110000,-0.125000,-0.110000,0.125000,0.110000,0.125000,0.290000,-0.055000,0.290000,-0.055000,$1*%
%AMFreePoly2*
4,1,7,0.110000,-0.125000,-0.110000,-0.125000,-0.290000,-0.125000,-0.290000,-0.055000,-0.110000,0.125000,0.110000,0.125000,0.110000,-0.125000,0.110000,-0.125000,$1*%
%AMFreePoly3*
4,1,6,0.110000,-0.125000,-0.110000,-0.125000,-0.290000,0.055000,-0.290000,0.125000,0.110000,0.125000,0.110000,-0.125000,0.110000,-0.125000,$1*%
%AMFreePoly4*
4,1,18,-0.125000,0.225000,-0.123097,0.234567,-0.117678,0.242678,-0.109567,0.248097,-0.100000,0.250000,0.062500,0.250000,0.125000,0.187500,0.125000,-0.225000,0.123097,-0.234567,0.117678,-0.242678,0.109567,-0.248097,0.100000,-0.250000,-0.100000,-0.250000,-0.109567,-0.248097,-0.117678,-0.242678,-0.123097,-0.234567,-0.125000,-0.225000,-0.125000,0.225000,-0.125000,0.225000,$1*%
%AMFreePoly5*
4,1,153,0.406581,1.254743,0.408810,1.254000,0.410000,1.254000,0.411581,1.253743,0.413810,1.253000,0.415000,1.253000,0.416581,1.252743,0.419581,1.251743,0.420236,1.251472,0.421920,1.250630,0.424581,1.249743,0.426536,1.248536,0.427964,1.247108,0.429236,1.246472,0.430536,1.245536,0.431964,1.244108,0.433236,1.243472,0.434536,1.242536,0.442536,1.234536,0.443472,1.233236,
0.444108,1.231964,0.445536,1.230536,0.446472,1.229236,0.447108,1.227964,0.448536,1.226536,0.449743,1.224581,0.450630,1.221920,0.451472,1.220236,0.451743,1.219581,0.452743,1.216581,0.453000,1.215000,0.453000,1.213810,0.453743,1.211581,0.454000,1.210000,0.454000,1.208810,0.454743,1.206581,0.455000,1.205000,0.455000,-0.205000,0.454743,-0.206581,0.454000,-0.208810,
0.454000,-0.210000,0.453743,-0.211581,0.453000,-0.213810,0.453000,-0.215000,0.452743,-0.216581,0.451743,-0.219581,0.451472,-0.220236,0.450630,-0.221920,0.449743,-0.224581,0.448536,-0.226536,0.447108,-0.227964,0.446472,-0.229236,0.445536,-0.230536,0.444108,-0.231964,0.443472,-0.233236,0.442536,-0.234536,0.434536,-0.242536,0.433236,-0.243472,0.431964,-0.244108,0.430536,-0.245536,
0.429236,-0.246472,0.427964,-0.247108,0.426536,-0.248536,0.424581,-0.249743,0.421920,-0.250630,0.420236,-0.251472,0.419581,-0.251743,0.416581,-0.252743,0.415000,-0.253000,0.413810,-0.253000,0.411581,-0.253743,0.410000,-0.254000,0.408810,-0.254000,0.406581,-0.254743,0.405000,-0.255000,-0.405000,-0.255000,-0.406581,-0.254743,-0.408810,-0.254000,-0.410000,-0.254000,-0.411581,-0.253743,
-0.413810,-0.253000,-0.415000,-0.253000,-0.416581,-0.252743,-0.419581,-0.251743,-0.420236,-0.251472,-0.421920,-0.250630,-0.424581,-0.249743,-0.426536,-0.248536,-0.427964,-0.247108,-0.429236,-0.246472,-0.430536,-0.245536,-0.431964,-0.244108,-0.433236,-0.243472,-0.434536,-0.242536,-0.442536,-0.234536,-0.443472,-0.233236,-0.444108,-0.231964,-0.445536,-0.230536,-0.446472,-0.229236,-0.447108,-0.227964,
-0.448536,-0.226536,-0.449743,-0.224581,-0.450630,-0.221920,-0.451472,-0.220236,-0.451743,-0.219581,-0.452743,-0.216581,-0.453000,-0.215000,-0.453000,-0.213810,-0.453743,-0.211581,-0.454000,-0.210000,-0.454000,-0.208810,-0.454743,-0.206581,-0.455000,-0.205000,-0.455000,1.205000,-0.454743,1.206581,-0.454000,1.208810,-0.454000,1.210000,-0.453743,1.211581,-0.453000,1.213810,-0.453000,1.215000,
-0.452743,1.216581,-0.451743,1.219581,-0.451472,1.220236,-0.450630,1.221920,-0.449743,1.224581,-0.448536,1.226536,-0.447108,1.227964,-0.446472,1.229236,-0.445536,1.230536,-0.444108,1.231964,-0.443472,1.233236,-0.442536,1.234536,-0.434536,1.242536,-0.433236,1.243472,-0.431964,1.244108,-0.430536,1.245536,-0.429236,1.246472,-0.427964,1.247108,-0.426536,1.248536,-0.424581,1.249743,
-0.421920,1.250630,-0.420236,1.251472,-0.419581,1.251743,-0.416581,1.252743,-0.415000,1.253000,-0.413810,1.253000,-0.411581,1.253743,-0.410000,1.254000,-0.408810,1.254000,-0.406581,1.254743,-0.405000,1.255000,0.405000,1.255000,0.406581,1.254743,0.406581,1.254743,$1*%
G04 Aperture macros list end*
%ADD10C,0.120000*%
%ADD11C,0.127000*%
%ADD12C,0.200000*%
%ADD13C,0.125000*%
%ADD14C,0.050000*%
%ADD15C,0.100000*%
%ADD16C,0.010000*%
%ADD17RoundRect,0.135000X-0.185000X0.135000X-0.185000X-0.135000X0.185000X-0.135000X0.185000X0.135000X0*%
%ADD18RoundRect,0.100000X-0.100000X0.130000X-0.100000X-0.130000X0.100000X-0.130000X0.100000X0.130000X0*%
%ADD19RoundRect,0.225000X0.375000X-0.225000X0.375000X0.225000X-0.375000X0.225000X-0.375000X-0.225000X0*%
%ADD20RoundRect,0.218750X0.218750X0.256250X-0.218750X0.256250X-0.218750X-0.256250X0.218750X-0.256250X0*%
%ADD21RoundRect,0.140000X0.170000X-0.140000X0.170000X0.140000X-0.170000X0.140000X-0.170000X-0.140000X0*%
%ADD22RoundRect,0.100000X0.130000X0.100000X-0.130000X0.100000X-0.130000X-0.100000X0.130000X-0.100000X0*%
%ADD23R,0.800000X0.900000*%
%ADD24RoundRect,0.075000X0.540000X0.225000X-0.540000X0.225000X-0.540000X-0.225000X0.540000X-0.225000X0*%
%ADD25RoundRect,0.225000X0.250000X-0.225000X0.250000X0.225000X-0.250000X0.225000X-0.250000X-0.225000X0*%
%ADD26R,0.270000X0.300000*%
%ADD27RoundRect,0.135000X0.185000X-0.135000X0.185000X0.135000X-0.185000X0.135000X-0.185000X-0.135000X0*%
%ADD28RoundRect,0.140000X-0.170000X0.140000X-0.170000X-0.140000X0.170000X-0.140000X0.170000X0.140000X0*%
%ADD29RoundRect,0.100000X-0.130000X-0.100000X0.130000X-0.100000X0.130000X0.100000X-0.130000X0.100000X0*%
%ADD30R,1.100000X3.700000*%
%ADD31RoundRect,0.053000X0.454000X0.159000X-0.454000X0.159000X-0.454000X-0.159000X0.454000X-0.159000X0*%
%ADD32RoundRect,0.053000X0.159000X0.454000X-0.159000X0.454000X-0.159000X-0.454000X0.159000X-0.454000X0*%
%ADD33RoundRect,0.102000X2.300000X2.300000X-2.300000X2.300000X-2.300000X-2.300000X2.300000X-2.300000X0*%
%ADD34FreePoly0,180.000000*%
%ADD35FreePoly1,180.000000*%
%ADD36FreePoly2,180.000000*%
%ADD37FreePoly3,180.000000*%
%ADD38RotRect,0.480000X0.480000X225.000000*%
%ADD39RoundRect,0.135000X-0.135000X-0.185000X0.135000X-0.185000X0.135000X0.185000X-0.135000X0.185000X0*%
%ADD40RoundRect,0.070000X-0.530000X-0.280000X0.530000X-0.280000X0.530000X0.280000X-0.530000X0.280000X0*%
%ADD41RoundRect,0.080000X-0.520000X-0.320000X0.520000X-0.320000X0.520000X0.320000X-0.520000X0.320000X0*%
%ADD42RoundRect,0.090000X-0.510000X-0.360000X0.510000X-0.360000X0.510000X0.360000X-0.510000X0.360000X0*%
%ADD43O,1.700000X1.000000*%
%ADD44O,2.100000X1.100000*%
%ADD45RoundRect,0.100000X0.100000X-0.130000X0.100000X0.130000X-0.100000X0.130000X-0.100000X-0.130000X0*%
%ADD46R,1.700000X1.700000*%
%ADD47O,1.700000X1.700000*%
%ADD48RoundRect,0.037500X0.212500X-0.087500X0.212500X0.087500X-0.212500X0.087500X-0.212500X-0.087500X0*%
%ADD49FreePoly4,90.000000*%
%ADD50RoundRect,0.225000X-0.250000X0.225000X-0.250000X-0.225000X0.250000X-0.225000X0.250000X0.225000X0*%
%ADD51RoundRect,0.140000X-0.140000X-0.170000X0.140000X-0.170000X0.140000X0.170000X-0.140000X0.170000X0*%
%ADD52RoundRect,0.225000X-0.225000X-0.375000X0.225000X-0.375000X0.225000X0.375000X-0.225000X0.375000X0*%
%ADD53RoundRect,0.102000X0.150000X0.400000X-0.150000X0.400000X-0.150000X-0.400000X0.150000X-0.400000X0*%
%ADD54RoundRect,0.102000X0.200000X0.400000X-0.200000X0.400000X-0.200000X-0.400000X0.200000X-0.400000X0*%
%ADD55FreePoly5,270.000000*%
%ADD56R,0.300000X0.270000*%
%ADD57RoundRect,0.150000X0.587500X0.150000X-0.587500X0.150000X-0.587500X-0.150000X0.587500X-0.150000X0*%
%ADD58RoundRect,0.135000X0.135000X0.185000X-0.135000X0.185000X-0.135000X-0.185000X0.135000X-0.185000X0*%
%ADD59C,0.290000*%
%ADD60R,0.850000X0.600000*%
%ADD61R,1.000000X0.700000*%
%ADD62R,3.700000X1.100000*%
%ADD63RoundRect,0.150000X0.150000X-0.512500X0.150000X0.512500X-0.150000X0.512500X-0.150000X-0.512500X0*%
%ADD64RoundRect,0.225000X0.225000X0.250000X-0.225000X0.250000X-0.225000X-0.250000X0.225000X-0.250000X0*%
%ADD65RoundRect,0.140000X0.140000X0.170000X-0.140000X0.170000X-0.140000X-0.170000X0.140000X-0.170000X0*%
G04 APERTURE END LIST*
D10*
%TO.C,R7*%
X152920000Y-103506359D02*
X152920000Y-103813641D01*
X153680000Y-103506359D02*
X153680000Y-103813641D01*
%TO.C,D2*%
X141240000Y-94597500D02*
X141240000Y-90587500D01*
X141240000Y-94597500D02*
X143240000Y-94597500D01*
X143240000Y-94597500D02*
X143240000Y-90587500D01*
%TO.C,L5*%
X136212779Y-107910000D02*
X135887221Y-107910000D01*
X136212779Y-108930000D02*
X135887221Y-108930000D01*
%TO.C,C14*%
X126810000Y-83917836D02*
X126810000Y-83702164D01*
X127530000Y-83917836D02*
X127530000Y-83702164D01*
%TO.C,Y2*%
X126866930Y-105411590D02*
X126866930Y-108111590D01*
X129166930Y-105411590D02*
X126866930Y-105411590D01*
D11*
%TO.C,Q1*%
X149890000Y-89627500D02*
X149890000Y-90457500D01*
X149890000Y-91697500D02*
X149890000Y-92527500D01*
X149890000Y-92527500D02*
X150665000Y-92527500D01*
X150665000Y-89627500D02*
X149890000Y-89627500D01*
D12*
X152890000Y-92027500D02*
G75*
G02*
X152690000Y-92027500I-100000J0D01*
G01*
X152690000Y-92027500D02*
G75*
G02*
X152890000Y-92027500I100000J0D01*
G01*
D10*
%TO.C,C7*%
X136360000Y-84510580D02*
X136360000Y-84229420D01*
X137380000Y-84510580D02*
X137380000Y-84229420D01*
%TO.C,C10*%
X133400000Y-84510580D02*
X133400000Y-84229420D01*
X134420000Y-84510580D02*
X134420000Y-84229420D01*
D13*
%TO.C,L2*%
X128223680Y-102763590D02*
X128223680Y-103203590D01*
X128538680Y-102763590D02*
X128223680Y-102763590D01*
X128538680Y-103203590D02*
X128223680Y-103203590D01*
X129203680Y-102763590D02*
X128888680Y-102763590D01*
X129203680Y-102763590D02*
X129203680Y-103203590D01*
X129203680Y-103203590D02*
X128888680Y-103203590D01*
D10*
%TO.C,R11*%
X144910000Y-104533641D02*
X144910000Y-104226359D01*
X145670000Y-104533641D02*
X145670000Y-104226359D01*
%TO.C,C4*%
X143990000Y-83742164D02*
X143990000Y-83957836D01*
X144710000Y-83742164D02*
X144710000Y-83957836D01*
%TO.C,C15*%
X124880000Y-83897836D02*
X124880000Y-83682164D01*
X125600000Y-83897836D02*
X125600000Y-83682164D01*
%TO.C,L4*%
X132640000Y-88640000D02*
X132640000Y-88790000D01*
X132640000Y-93160000D02*
X132640000Y-93010000D01*
X137160000Y-88640000D02*
X132640000Y-88640000D01*
X137160000Y-88640000D02*
X137160000Y-88790000D01*
X137160000Y-93160000D02*
X132640000Y-93160000D01*
X137160000Y-93160000D02*
X137160000Y-93010000D01*
D11*
%TO.C,U3*%
X131000000Y-99780000D02*
X131000000Y-100150000D01*
X131000000Y-99780000D02*
X131370000Y-99780000D01*
X131000000Y-105780000D02*
X131000000Y-105410000D01*
X131000000Y-105780000D02*
X131370000Y-105780000D01*
X137000000Y-99780000D02*
X136630000Y-99780000D01*
X137000000Y-99780000D02*
X137000000Y-100150000D01*
X137000000Y-105780000D02*
X136630000Y-105780000D01*
X137000000Y-105780000D02*
X137000000Y-105410000D01*
D12*
X138060000Y-104980000D02*
G75*
G02*
X137860000Y-104980000I-100000J0D01*
G01*
X137860000Y-104980000D02*
G75*
G02*
X138060000Y-104980000I100000J0D01*
G01*
D10*
%TO.C,U4*%
X162330000Y-91995000D02*
X163330000Y-91995000D01*
X162330000Y-93415000D02*
X163330000Y-93415000D01*
X163670000Y-93625000D02*
X163670000Y-93345000D01*
X163950000Y-93345000D01*
X163670000Y-93625000D01*
G36*
X163670000Y-93625000D02*
G01*
X163670000Y-93345000D01*
X163950000Y-93345000D01*
X163670000Y-93625000D01*
G37*
%TO.C,R9*%
X163666359Y-93630000D02*
X163973641Y-93630000D01*
X163666359Y-94390000D02*
X163973641Y-94390000D01*
%TO.C,C13*%
X125840000Y-83712164D02*
X125840000Y-83927836D01*
X126560000Y-83712164D02*
X126560000Y-83927836D01*
%TO.C,C9*%
X134880000Y-84510580D02*
X134880000Y-84229420D01*
X135900000Y-84510580D02*
X135900000Y-84229420D01*
%TO.C,R15*%
X137730000Y-92076359D02*
X137730000Y-92383641D01*
X138490000Y-92076359D02*
X138490000Y-92383641D01*
%TO.C,J1*%
X140670000Y-112770000D02*
X140670000Y-107630000D01*
X143330000Y-107630000D02*
X140670000Y-107630000D01*
X143330000Y-112770000D02*
X140670000Y-112770000D01*
X143330000Y-112770000D02*
X143330000Y-107630000D01*
X143330000Y-114040000D02*
X143330000Y-115370000D01*
X143330000Y-115370000D02*
X142000000Y-115370000D01*
%TO.C,U1*%
D14*
X164270000Y-80770000D02*
X164870000Y-80770000D01*
X164870000Y-79770000D01*
X164270000Y-79770000D01*
X164270000Y-80770000D01*
D10*
%TO.C,R8*%
X151690000Y-98686141D02*
X151690000Y-98378859D01*
X152450000Y-98686141D02*
X152450000Y-98378859D01*
%TO.C,C12*%
X120330000Y-83897836D02*
X120330000Y-83682164D01*
X121050000Y-83897836D02*
X121050000Y-83682164D01*
%TO.C,R18*%
X150220000Y-101046359D02*
X150220000Y-101353641D01*
X150980000Y-101046359D02*
X150980000Y-101353641D01*
%TO.C,C35*%
X122040000Y-83672164D02*
X122040000Y-83887836D01*
X122760000Y-83672164D02*
X122760000Y-83887836D01*
%TO.C,C38*%
X141750000Y-88236920D02*
X141750000Y-88518080D01*
X142770000Y-88236920D02*
X142770000Y-88518080D01*
%TO.C,C29*%
X155022164Y-105140000D02*
X155237836Y-105140000D01*
X155022164Y-105860000D02*
X155237836Y-105860000D01*
%TO.C,D4*%
X132540000Y-86500000D02*
X132540000Y-88500000D01*
X132540000Y-86500000D02*
X136550000Y-86500000D01*
X132540000Y-88500000D02*
X136550000Y-88500000D01*
%TO.C,C11*%
X131940000Y-84520580D02*
X131940000Y-84239420D01*
X132960000Y-84520580D02*
X132960000Y-84239420D01*
%TO.C,C34*%
X123000000Y-83887836D02*
X123000000Y-83672164D01*
X123720000Y-83887836D02*
X123720000Y-83672164D01*
D13*
%TO.C,C1*%
X129334260Y-103247430D02*
X129649260Y-103247430D01*
X129334260Y-103687430D02*
X129334260Y-103247430D01*
X129334260Y-103687430D02*
X129649260Y-103687430D01*
X129999260Y-103247430D02*
X130314260Y-103247430D01*
X129999260Y-103687430D02*
X130314260Y-103687430D01*
X130314260Y-103687430D02*
X130314260Y-103247430D01*
D11*
%TO.C,J7*%
X119400000Y-81720000D02*
X119400000Y-80090000D01*
X120180000Y-81720000D02*
X119400000Y-81720000D01*
X145620000Y-81720000D02*
X146400000Y-81720000D01*
X145630000Y-78820000D02*
X120170000Y-78820000D01*
X146400000Y-81720000D02*
X146400000Y-80090000D01*
D12*
X120750000Y-83170000D02*
G75*
G02*
X120550000Y-83170000I-100000J0D01*
G01*
X120550000Y-83170000D02*
G75*
G02*
X120750000Y-83170000I100000J0D01*
G01*
D11*
%TO.C,U2*%
X151280000Y-102140000D02*
X151280000Y-100140000D01*
X153720000Y-100140000D02*
X153720000Y-102140000D01*
D12*
X153400000Y-99290000D02*
G75*
G02*
X153200000Y-99290000I-100000J0D01*
G01*
X153200000Y-99290000D02*
G75*
G02*
X153400000Y-99290000I100000J0D01*
G01*
D10*
%TO.C,J6*%
X147850000Y-112160000D02*
X147850000Y-114820000D01*
X150450000Y-112160000D02*
X147850000Y-112160000D01*
X150450000Y-112160000D02*
X150450000Y-114820000D01*
X150450000Y-114820000D02*
X147850000Y-114820000D01*
X151720000Y-112160000D02*
X153050000Y-112160000D01*
X153050000Y-112160000D02*
X153050000Y-113490000D01*
D13*
%TO.C,L3*%
X126567850Y-102763590D02*
X126567850Y-103203590D01*
X126882850Y-102763590D02*
X126567850Y-102763590D01*
X126882850Y-103203590D02*
X126567850Y-103203590D01*
X127547850Y-102763590D02*
X127232850Y-102763590D01*
X127547850Y-102763590D02*
X127547850Y-103203590D01*
X127547850Y-103203590D02*
X127232850Y-103203590D01*
D10*
%TO.C,R1*%
X151160000Y-88191141D02*
X151160000Y-87883859D01*
X151920000Y-88191141D02*
X151920000Y-87883859D01*
%TO.C,C32*%
X148552164Y-103020000D02*
X148767836Y-103020000D01*
X148552164Y-103740000D02*
X148767836Y-103740000D01*
%TO.C,D3*%
X143640000Y-94547500D02*
X143640000Y-90537500D01*
X143640000Y-94547500D02*
X145640000Y-94547500D01*
X145640000Y-94547500D02*
X145640000Y-90537500D01*
D13*
%TO.C,C2*%
X127674850Y-102517510D02*
X127674850Y-102202510D01*
X127674850Y-103182510D02*
X127674850Y-102867510D01*
X128114850Y-102202510D02*
X127674850Y-102202510D01*
X128114850Y-102517510D02*
X128114850Y-102202510D01*
X128114850Y-103182510D02*
X127674850Y-103182510D01*
X128114850Y-103182510D02*
X128114850Y-102867510D01*
D10*
%TO.C,R6*%
X152690000Y-98368859D02*
X152690000Y-98676141D01*
X153450000Y-98368859D02*
X153450000Y-98676141D01*
%TO.C,R2*%
X164450000Y-78166359D02*
X164450000Y-78473641D01*
X165210000Y-78166359D02*
X165210000Y-78473641D01*
D13*
%TO.C,L1*%
X129326160Y-102763590D02*
X129326160Y-103203590D01*
X129641160Y-102763590D02*
X129326160Y-102763590D01*
X129641160Y-103203590D02*
X129326160Y-103203590D01*
X130306160Y-102763590D02*
X129991160Y-102763590D01*
X130306160Y-102763590D02*
X130306160Y-103203590D01*
X130306160Y-103203590D02*
X129991160Y-103203590D01*
%TO.C,C8*%
X126045920Y-102906990D02*
X126045920Y-103221990D01*
X126045920Y-102906990D02*
X126485920Y-102906990D01*
X126045920Y-103571990D02*
X126045920Y-103886990D01*
X126045920Y-103886990D02*
X126485920Y-103886990D01*
X126485920Y-102906990D02*
X126485920Y-103221990D01*
X126485920Y-103571990D02*
X126485920Y-103886990D01*
D10*
%TO.C,Q2*%
X136727500Y-93750000D02*
X136077500Y-93750000D01*
X136727500Y-93750000D02*
X137377500Y-93750000D01*
X136727500Y-96870000D02*
X136077500Y-96870000D01*
X136727500Y-96870000D02*
X137377500Y-96870000D01*
X138130000Y-97150000D02*
X137650000Y-97150000D01*
X137890000Y-96820000D01*
X138130000Y-97150000D01*
G36*
X138130000Y-97150000D02*
G01*
X137650000Y-97150000D01*
X137890000Y-96820000D01*
X138130000Y-97150000D01*
G37*
%TO.C,R17*%
X146143641Y-108020000D02*
X145836359Y-108020000D01*
X146143641Y-108780000D02*
X145836359Y-108780000D01*
%TO.C,R12*%
X147726359Y-107620000D02*
X148033641Y-107620000D01*
X147726359Y-108380000D02*
X148033641Y-108380000D01*
D12*
%TO.C,U5*%
X146635000Y-104665000D02*
X148625000Y-104665000D01*
X146635000Y-106160000D02*
X146635000Y-104665000D01*
X147130000Y-106655000D02*
X146635000Y-106160000D01*
X148625000Y-104665000D02*
X148625000Y-106655000D01*
X148625000Y-106655000D02*
X147130000Y-106655000D01*
X146735000Y-106655000D02*
G75*
G02*
X146535000Y-106655000I-100000J0D01*
G01*
X146535000Y-106655000D02*
G75*
G02*
X146735000Y-106655000I100000J0D01*
G01*
D10*
%TO.C,C5*%
X139300000Y-84269420D02*
X139300000Y-84550580D01*
X140320000Y-84269420D02*
X140320000Y-84550580D01*
%TO.C,R16*%
X137740000Y-90493641D02*
X137740000Y-90186359D01*
X138500000Y-90493641D02*
X138500000Y-90186359D01*
%TO.C,D1*%
X146040000Y-94547500D02*
X146040000Y-90537500D01*
X146040000Y-94547500D02*
X148040000Y-94547500D01*
X148040000Y-94547500D02*
X148040000Y-90537500D01*
%TO.C,J5*%
X119450000Y-91530000D02*
X119450000Y-94190000D01*
X124590000Y-91530000D02*
X119450000Y-91530000D01*
X124590000Y-91530000D02*
X124590000Y-94190000D01*
X124590000Y-94190000D02*
X119450000Y-94190000D01*
X125860000Y-91530000D02*
X127190000Y-91530000D01*
X127190000Y-91530000D02*
X127190000Y-92860000D01*
%TO.C,C31*%
X146662164Y-102960000D02*
X146877836Y-102960000D01*
X146662164Y-103680000D02*
X146877836Y-103680000D01*
%TO.C,R13*%
X149550000Y-105546359D02*
X149550000Y-105853641D01*
X150310000Y-105546359D02*
X150310000Y-105853641D01*
%TO.C,R14*%
X143476359Y-94937500D02*
X143783641Y-94937500D01*
X143476359Y-95697500D02*
X143783641Y-95697500D01*
%TO.C,C16*%
X153920000Y-99972164D02*
X153920000Y-100187836D01*
X154640000Y-99972164D02*
X154640000Y-100187836D01*
%TO.C,C6*%
X137820000Y-84540580D02*
X137820000Y-84259420D01*
X138840000Y-84540580D02*
X138840000Y-84259420D01*
%TO.C,R10*%
X144920000Y-106116359D02*
X144920000Y-106423641D01*
X145680000Y-106116359D02*
X145680000Y-106423641D01*
%TO.C,C37*%
X146530000Y-88196920D02*
X146530000Y-88478080D01*
X147550000Y-88196920D02*
X147550000Y-88478080D01*
%TO.C,C26*%
X137700000Y-108067836D02*
X137700000Y-107852164D01*
X138420000Y-108067836D02*
X138420000Y-107852164D01*
%TO.C,C41*%
X137650000Y-87590580D02*
X137650000Y-87309420D01*
X138670000Y-87590580D02*
X138670000Y-87309420D01*
%TO.C,R3*%
X148560000Y-87883859D02*
X148560000Y-88191141D01*
X149320000Y-87883859D02*
X149320000Y-88191141D01*
%TO.C,C18*%
X153930000Y-102107836D02*
X153930000Y-101892164D01*
X154650000Y-102107836D02*
X154650000Y-101892164D01*
%TO.C,C40*%
X139440000Y-95687836D02*
X139440000Y-95472164D01*
X140160000Y-95687836D02*
X140160000Y-95472164D01*
D15*
%TO.C,J3*%
X162160000Y-98600000D02*
X162160000Y-100610000D01*
X163480000Y-101730000D02*
X166482000Y-101729000D01*
X166480000Y-100740000D02*
X166482000Y-100840000D01*
X166482000Y-97411000D02*
X163380000Y-97411000D01*
X166482000Y-97538000D02*
X166482000Y-97411000D01*
X166482000Y-98300000D02*
X166482000Y-97538000D01*
X166482000Y-98410000D02*
X166482000Y-98300000D01*
X166482000Y-100840000D02*
X166482000Y-101729000D01*
D10*
%TO.C,C24*%
X161772164Y-93650000D02*
X161987836Y-93650000D01*
X161772164Y-94370000D02*
X161987836Y-94370000D01*
%TO.C,L6*%
X148280000Y-92877500D02*
X148430000Y-92877500D01*
X148280000Y-97397500D02*
X148280000Y-92877500D01*
X148280000Y-97397500D02*
X148430000Y-97397500D01*
X152800000Y-92877500D02*
X152650000Y-92877500D01*
X152800000Y-97397500D02*
X152650000Y-97397500D01*
X152800000Y-97397500D02*
X152800000Y-92877500D01*
%TO.C,C33*%
X123940000Y-83672164D02*
X123940000Y-83887836D01*
X124660000Y-83672164D02*
X124660000Y-83887836D01*
%TO.C,C3*%
X144990000Y-83742164D02*
X144990000Y-83957836D01*
X145710000Y-83742164D02*
X145710000Y-83957836D01*
%TO.C,U6*%
X153050000Y-108027500D02*
X153050000Y-107227500D01*
X153050000Y-108027500D02*
X153050000Y-108827500D01*
X156170000Y-108027500D02*
X156170000Y-107227500D01*
X156170000Y-108027500D02*
X156170000Y-108827500D01*
X153100000Y-109327500D02*
X152770000Y-109567500D01*
X152770000Y-109087500D01*
X153100000Y-109327500D01*
G36*
X153100000Y-109327500D02*
G01*
X152770000Y-109567500D01*
X152770000Y-109087500D01*
X153100000Y-109327500D01*
G37*
%TO.C,C39*%
X146780580Y-94927500D02*
X146499420Y-94927500D01*
X146780580Y-95947500D02*
X146499420Y-95947500D01*
%TO.C,C30*%
X155077836Y-110290000D02*
X154862164Y-110290000D01*
X155077836Y-111010000D02*
X154862164Y-111010000D01*
%TO.C,R4*%
X164490000Y-75683641D02*
X164490000Y-75376359D01*
X165250000Y-75683641D02*
X165250000Y-75376359D01*
%TO.C,C36*%
X146652164Y-96777500D02*
X146867836Y-96777500D01*
X146652164Y-97497500D02*
X146867836Y-97497500D01*
%TO.C,J4*%
X128980000Y-71120000D02*
X128980000Y-73780000D01*
X136660000Y-71120000D02*
X128980000Y-71120000D01*
X136660000Y-71120000D02*
X136660000Y-73780000D01*
X136660000Y-73780000D02*
X128980000Y-73780000D01*
X137930000Y-71120000D02*
X139260000Y-71120000D01*
X139260000Y-71120000D02*
X139260000Y-72450000D01*
%TD*%
%LPC*%
D16*
%TO.C,U2*%
X151808000Y-99891000D02*
X151810000Y-99891000D01*
X151813000Y-99892000D01*
X151815000Y-99892000D01*
X151818000Y-99893000D01*
X151820000Y-99894000D01*
X151823000Y-99895000D01*
X151825000Y-99897000D01*
X151827000Y-99898000D01*
X151829000Y-99900000D01*
X151831000Y-99901000D01*
X151833000Y-99903000D01*
X151835000Y-99905000D01*
X151837000Y-99907000D01*
X151839000Y-99909000D01*
X151840000Y-99911000D01*
X151842000Y-99913000D01*
X151843000Y-99915000D01*
X151845000Y-99917000D01*
X151846000Y-99920000D01*
X151847000Y-99922000D01*
X151848000Y-99925000D01*
X151848000Y-99927000D01*
X151849000Y-99930000D01*
X151849000Y-99932000D01*
X151850000Y-99935000D01*
X151850000Y-99937000D01*
X151850000Y-99940000D01*
X151850000Y-100440000D01*
X151850000Y-100443000D01*
X151850000Y-100445000D01*
X151849000Y-100448000D01*
X151849000Y-100450000D01*
X151848000Y-100453000D01*
X151848000Y-100455000D01*
X151847000Y-100458000D01*
X151846000Y-100460000D01*
X151845000Y-100463000D01*
X151843000Y-100465000D01*
X151842000Y-100467000D01*
X151840000Y-100469000D01*
X151839000Y-100471000D01*
X151837000Y-100473000D01*
X151835000Y-100475000D01*
X151833000Y-100477000D01*
X151831000Y-100479000D01*
X151829000Y-100480000D01*
X151827000Y-100482000D01*
X151825000Y-100483000D01*
X151823000Y-100485000D01*
X151820000Y-100486000D01*
X151818000Y-100487000D01*
X151815000Y-100488000D01*
X151813000Y-100488000D01*
X151810000Y-100489000D01*
X151808000Y-100489000D01*
X151805000Y-100490000D01*
X151803000Y-100490000D01*
X151800000Y-100490000D01*
X151600000Y-100490000D01*
X151597000Y-100490000D01*
X151595000Y-100490000D01*
X151592000Y-100489000D01*
X151590000Y-100489000D01*
X151587000Y-100488000D01*
X151585000Y-100488000D01*
X151582000Y-100487000D01*
X151580000Y-100486000D01*
X151577000Y-100485000D01*
X151575000Y-100483000D01*
X151573000Y-100482000D01*
X151571000Y-100480000D01*
X151569000Y-100479000D01*
X151567000Y-100477000D01*
X151565000Y-100475000D01*
X151563000Y-100473000D01*
X151561000Y-100471000D01*
X151560000Y-100469000D01*
X151558000Y-100467000D01*
X151557000Y-100465000D01*
X151555000Y-100463000D01*
X151554000Y-100460000D01*
X151553000Y-100458000D01*
X151552000Y-100455000D01*
X151552000Y-100453000D01*
X151551000Y-100450000D01*
X151551000Y-100448000D01*
X151550000Y-100445000D01*
X151550000Y-100443000D01*
X151550000Y-100440000D01*
X151550000Y-99940000D01*
X151550000Y-99937000D01*
X151550000Y-99935000D01*
X151551000Y-99932000D01*
X151551000Y-99930000D01*
X151552000Y-99927000D01*
X151552000Y-99925000D01*
X151553000Y-99922000D01*
X151554000Y-99920000D01*
X151555000Y-99917000D01*
X151557000Y-99915000D01*
X151558000Y-99913000D01*
X151560000Y-99911000D01*
X151561000Y-99909000D01*
X151563000Y-99907000D01*
X151565000Y-99905000D01*
X151567000Y-99903000D01*
X151569000Y-99901000D01*
X151571000Y-99900000D01*
X151573000Y-99898000D01*
X151575000Y-99897000D01*
X151577000Y-99895000D01*
X151580000Y-99894000D01*
X151582000Y-99893000D01*
X151585000Y-99892000D01*
X151587000Y-99892000D01*
X151590000Y-99891000D01*
X151592000Y-99891000D01*
X151595000Y-99890000D01*
X151597000Y-99890000D01*
X151600000Y-99890000D01*
X151800000Y-99890000D01*
X151803000Y-99890000D01*
X151805000Y-99890000D01*
X151808000Y-99891000D01*
G36*
X151808000Y-99891000D02*
G01*
X151810000Y-99891000D01*
X151813000Y-99892000D01*
X151815000Y-99892000D01*
X151818000Y-99893000D01*
X151820000Y-99894000D01*
X151823000Y-99895000D01*
X151825000Y-99897000D01*
X151827000Y-99898000D01*
X151829000Y-99900000D01*
X151831000Y-99901000D01*
X151833000Y-99903000D01*
X151835000Y-99905000D01*
X151837000Y-99907000D01*
X151839000Y-99909000D01*
X151840000Y-99911000D01*
X151842000Y-99913000D01*
X151843000Y-99915000D01*
X151845000Y-99917000D01*
X151846000Y-99920000D01*
X151847000Y-99922000D01*
X151848000Y-99925000D01*
X151848000Y-99927000D01*
X151849000Y-99930000D01*
X151849000Y-99932000D01*
X151850000Y-99935000D01*
X151850000Y-99937000D01*
X151850000Y-99940000D01*
X151850000Y-100440000D01*
X151850000Y-100443000D01*
X151850000Y-100445000D01*
X151849000Y-100448000D01*
X151849000Y-100450000D01*
X151848000Y-100453000D01*
X151848000Y-100455000D01*
X151847000Y-100458000D01*
X151846000Y-100460000D01*
X151845000Y-100463000D01*
X151843000Y-100465000D01*
X151842000Y-100467000D01*
X151840000Y-100469000D01*
X151839000Y-100471000D01*
X151837000Y-100473000D01*
X151835000Y-100475000D01*
X151833000Y-100477000D01*
X151831000Y-100479000D01*
X151829000Y-100480000D01*
X151827000Y-100482000D01*
X151825000Y-100483000D01*
X151823000Y-100485000D01*
X151820000Y-100486000D01*
X151818000Y-100487000D01*
X151815000Y-100488000D01*
X151813000Y-100488000D01*
X151810000Y-100489000D01*
X151808000Y-100489000D01*
X151805000Y-100490000D01*
X151803000Y-100490000D01*
X151800000Y-100490000D01*
X151600000Y-100490000D01*
X151597000Y-100490000D01*
X151595000Y-100490000D01*
X151592000Y-100489000D01*
X151590000Y-100489000D01*
X151587000Y-100488000D01*
X151585000Y-100488000D01*
X151582000Y-100487000D01*
X151580000Y-100486000D01*
X151577000Y-100485000D01*
X151575000Y-100483000D01*
X151573000Y-100482000D01*
X151571000Y-100480000D01*
X151569000Y-100479000D01*
X151567000Y-100477000D01*
X151565000Y-100475000D01*
X151563000Y-100473000D01*
X151561000Y-100471000D01*
X151560000Y-100469000D01*
X151558000Y-100467000D01*
X151557000Y-100465000D01*
X151555000Y-100463000D01*
X151554000Y-100460000D01*
X151553000Y-100458000D01*
X151552000Y-100455000D01*
X151552000Y-100453000D01*
X151551000Y-100450000D01*
X151551000Y-100448000D01*
X151550000Y-100445000D01*
X151550000Y-100443000D01*
X151550000Y-100440000D01*
X151550000Y-99940000D01*
X151550000Y-99937000D01*
X151550000Y-99935000D01*
X151551000Y-99932000D01*
X151551000Y-99930000D01*
X151552000Y-99927000D01*
X151552000Y-99925000D01*
X151553000Y-99922000D01*
X151554000Y-99920000D01*
X151555000Y-99917000D01*
X151557000Y-99915000D01*
X151558000Y-99913000D01*
X151560000Y-99911000D01*
X151561000Y-99909000D01*
X151563000Y-99907000D01*
X151565000Y-99905000D01*
X151567000Y-99903000D01*
X151569000Y-99901000D01*
X151571000Y-99900000D01*
X151573000Y-99898000D01*
X151575000Y-99897000D01*
X151577000Y-99895000D01*
X151580000Y-99894000D01*
X151582000Y-99893000D01*
X151585000Y-99892000D01*
X151587000Y-99892000D01*
X151590000Y-99891000D01*
X151592000Y-99891000D01*
X151595000Y-99890000D01*
X151597000Y-99890000D01*
X151600000Y-99890000D01*
X151800000Y-99890000D01*
X151803000Y-99890000D01*
X151805000Y-99890000D01*
X151808000Y-99891000D01*
G37*
X151808000Y-101791000D02*
X151810000Y-101791000D01*
X151813000Y-101792000D01*
X151815000Y-101792000D01*
X151818000Y-101793000D01*
X151820000Y-101794000D01*
X151823000Y-101795000D01*
X151825000Y-101797000D01*
X151827000Y-101798000D01*
X151829000Y-101800000D01*
X151831000Y-101801000D01*
X151833000Y-101803000D01*
X151835000Y-101805000D01*
X151837000Y-101807000D01*
X151839000Y-101809000D01*
X151840000Y-101811000D01*
X151842000Y-101813000D01*
X151843000Y-101815000D01*
X151845000Y-101817000D01*
X151846000Y-101820000D01*
X151847000Y-101822000D01*
X151848000Y-101825000D01*
X151848000Y-101827000D01*
X151849000Y-101830000D01*
X151849000Y-101832000D01*
X151850000Y-101835000D01*
X151850000Y-101837000D01*
X151850000Y-101840000D01*
X151850000Y-102340000D01*
X151850000Y-102343000D01*
X151850000Y-102345000D01*
X151849000Y-102348000D01*
X151849000Y-102350000D01*
X151848000Y-102353000D01*
X151848000Y-102355000D01*
X151847000Y-102358000D01*
X151846000Y-102360000D01*
X151845000Y-102363000D01*
X151843000Y-102365000D01*
X151842000Y-102367000D01*
X151840000Y-102369000D01*
X151839000Y-102371000D01*
X151837000Y-102373000D01*
X151835000Y-102375000D01*
X151833000Y-102377000D01*
X151831000Y-102379000D01*
X151829000Y-102380000D01*
X151827000Y-102382000D01*
X151825000Y-102383000D01*
X151823000Y-102385000D01*
X151820000Y-102386000D01*
X151818000Y-102387000D01*
X151815000Y-102388000D01*
X151813000Y-102388000D01*
X151810000Y-102389000D01*
X151808000Y-102389000D01*
X151805000Y-102390000D01*
X151803000Y-102390000D01*
X151800000Y-102390000D01*
X151600000Y-102390000D01*
X151597000Y-102390000D01*
X151595000Y-102390000D01*
X151592000Y-102389000D01*
X151590000Y-102389000D01*
X151587000Y-102388000D01*
X151585000Y-102388000D01*
X151582000Y-102387000D01*
X151580000Y-102386000D01*
X151577000Y-102385000D01*
X151575000Y-102383000D01*
X151573000Y-102382000D01*
X151571000Y-102380000D01*
X151569000Y-102379000D01*
X151567000Y-102377000D01*
X151565000Y-102375000D01*
X151563000Y-102373000D01*
X151561000Y-102371000D01*
X151560000Y-102369000D01*
X151558000Y-102367000D01*
X151557000Y-102365000D01*
X151555000Y-102363000D01*
X151554000Y-102360000D01*
X151553000Y-102358000D01*
X151552000Y-102355000D01*
X151552000Y-102353000D01*
X151551000Y-102350000D01*
X151551000Y-102348000D01*
X151550000Y-102345000D01*
X151550000Y-102343000D01*
X151550000Y-102340000D01*
X151550000Y-101840000D01*
X151550000Y-101837000D01*
X151550000Y-101835000D01*
X151551000Y-101832000D01*
X151551000Y-101830000D01*
X151552000Y-101827000D01*
X151552000Y-101825000D01*
X151553000Y-101822000D01*
X151554000Y-101820000D01*
X151555000Y-101817000D01*
X151557000Y-101815000D01*
X151558000Y-101813000D01*
X151560000Y-101811000D01*
X151561000Y-101809000D01*
X151563000Y-101807000D01*
X151565000Y-101805000D01*
X151567000Y-101803000D01*
X151569000Y-101801000D01*
X151571000Y-101800000D01*
X151573000Y-101798000D01*
X151575000Y-101797000D01*
X151577000Y-101795000D01*
X151580000Y-101794000D01*
X151582000Y-101793000D01*
X151585000Y-101792000D01*
X151587000Y-101792000D01*
X151590000Y-101791000D01*
X151592000Y-101791000D01*
X151595000Y-101790000D01*
X151597000Y-101790000D01*
X151600000Y-101790000D01*
X151800000Y-101790000D01*
X151803000Y-101790000D01*
X151805000Y-101790000D01*
X151808000Y-101791000D01*
G36*
X151808000Y-101791000D02*
G01*
X151810000Y-101791000D01*
X151813000Y-101792000D01*
X151815000Y-101792000D01*
X151818000Y-101793000D01*
X151820000Y-101794000D01*
X151823000Y-101795000D01*
X151825000Y-101797000D01*
X151827000Y-101798000D01*
X151829000Y-101800000D01*
X151831000Y-101801000D01*
X151833000Y-101803000D01*
X151835000Y-101805000D01*
X151837000Y-101807000D01*
X151839000Y-101809000D01*
X151840000Y-101811000D01*
X151842000Y-101813000D01*
X151843000Y-101815000D01*
X151845000Y-101817000D01*
X151846000Y-101820000D01*
X151847000Y-101822000D01*
X151848000Y-101825000D01*
X151848000Y-101827000D01*
X151849000Y-101830000D01*
X151849000Y-101832000D01*
X151850000Y-101835000D01*
X151850000Y-101837000D01*
X151850000Y-101840000D01*
X151850000Y-102340000D01*
X151850000Y-102343000D01*
X151850000Y-102345000D01*
X151849000Y-102348000D01*
X151849000Y-102350000D01*
X151848000Y-102353000D01*
X151848000Y-102355000D01*
X151847000Y-102358000D01*
X151846000Y-102360000D01*
X151845000Y-102363000D01*
X151843000Y-102365000D01*
X151842000Y-102367000D01*
X151840000Y-102369000D01*
X151839000Y-102371000D01*
X151837000Y-102373000D01*
X151835000Y-102375000D01*
X151833000Y-102377000D01*
X151831000Y-102379000D01*
X151829000Y-102380000D01*
X151827000Y-102382000D01*
X151825000Y-102383000D01*
X151823000Y-102385000D01*
X151820000Y-102386000D01*
X151818000Y-102387000D01*
X151815000Y-102388000D01*
X151813000Y-102388000D01*
X151810000Y-102389000D01*
X151808000Y-102389000D01*
X151805000Y-102390000D01*
X151803000Y-102390000D01*
X151800000Y-102390000D01*
X151600000Y-102390000D01*
X151597000Y-102390000D01*
X151595000Y-102390000D01*
X151592000Y-102389000D01*
X151590000Y-102389000D01*
X151587000Y-102388000D01*
X151585000Y-102388000D01*
X151582000Y-102387000D01*
X151580000Y-102386000D01*
X151577000Y-102385000D01*
X151575000Y-102383000D01*
X151573000Y-102382000D01*
X151571000Y-102380000D01*
X151569000Y-102379000D01*
X151567000Y-102377000D01*
X151565000Y-102375000D01*
X151563000Y-102373000D01*
X151561000Y-102371000D01*
X151560000Y-102369000D01*
X151558000Y-102367000D01*
X151557000Y-102365000D01*
X151555000Y-102363000D01*
X151554000Y-102360000D01*
X151553000Y-102358000D01*
X151552000Y-102355000D01*
X151552000Y-102353000D01*
X151551000Y-102350000D01*
X151551000Y-102348000D01*
X151550000Y-102345000D01*
X151550000Y-102343000D01*
X151550000Y-102340000D01*
X151550000Y-101840000D01*
X151550000Y-101837000D01*
X151550000Y-101835000D01*
X151551000Y-101832000D01*
X151551000Y-101830000D01*
X151552000Y-101827000D01*
X151552000Y-101825000D01*
X151553000Y-101822000D01*
X151554000Y-101820000D01*
X151555000Y-101817000D01*
X151557000Y-101815000D01*
X151558000Y-101813000D01*
X151560000Y-101811000D01*
X151561000Y-101809000D01*
X151563000Y-101807000D01*
X151565000Y-101805000D01*
X151567000Y-101803000D01*
X151569000Y-101801000D01*
X151571000Y-101800000D01*
X151573000Y-101798000D01*
X151575000Y-101797000D01*
X151577000Y-101795000D01*
X151580000Y-101794000D01*
X151582000Y-101793000D01*
X151585000Y-101792000D01*
X151587000Y-101792000D01*
X151590000Y-101791000D01*
X151592000Y-101791000D01*
X151595000Y-101790000D01*
X151597000Y-101790000D01*
X151600000Y-101790000D01*
X151800000Y-101790000D01*
X151803000Y-101790000D01*
X151805000Y-101790000D01*
X151808000Y-101791000D01*
G37*
X152208000Y-99891000D02*
X152210000Y-99891000D01*
X152213000Y-99892000D01*
X152215000Y-99892000D01*
X152218000Y-99893000D01*
X152220000Y-99894000D01*
X152223000Y-99895000D01*
X152225000Y-99897000D01*
X152227000Y-99898000D01*
X152229000Y-99900000D01*
X152231000Y-99901000D01*
X152233000Y-99903000D01*
X152235000Y-99905000D01*
X152237000Y-99907000D01*
X152239000Y-99909000D01*
X152240000Y-99911000D01*
X152242000Y-99913000D01*
X152243000Y-99915000D01*
X152245000Y-99917000D01*
X152246000Y-99920000D01*
X152247000Y-99922000D01*
X152248000Y-99925000D01*
X152248000Y-99927000D01*
X152249000Y-99930000D01*
X152249000Y-99932000D01*
X152250000Y-99935000D01*
X152250000Y-99937000D01*
X152250000Y-99940000D01*
X152250000Y-100440000D01*
X152250000Y-100443000D01*
X152250000Y-100445000D01*
X152249000Y-100448000D01*
X152249000Y-100450000D01*
X152248000Y-100453000D01*
X152248000Y-100455000D01*
X152247000Y-100458000D01*
X152246000Y-100460000D01*
X152245000Y-100463000D01*
X152243000Y-100465000D01*
X152242000Y-100467000D01*
X152240000Y-100469000D01*
X152239000Y-100471000D01*
X152237000Y-100473000D01*
X152235000Y-100475000D01*
X152233000Y-100477000D01*
X152231000Y-100479000D01*
X152229000Y-100480000D01*
X152227000Y-100482000D01*
X152225000Y-100483000D01*
X152223000Y-100485000D01*
X152220000Y-100486000D01*
X152218000Y-100487000D01*
X152215000Y-100488000D01*
X152213000Y-100488000D01*
X152210000Y-100489000D01*
X152208000Y-100489000D01*
X152205000Y-100490000D01*
X152203000Y-100490000D01*
X152200000Y-100490000D01*
X152000000Y-100490000D01*
X151997000Y-100490000D01*
X151995000Y-100490000D01*
X151992000Y-100489000D01*
X151990000Y-100489000D01*
X151987000Y-100488000D01*
X151985000Y-100488000D01*
X151982000Y-100487000D01*
X151980000Y-100486000D01*
X151977000Y-100485000D01*
X151975000Y-100483000D01*
X151973000Y-100482000D01*
X151971000Y-100480000D01*
X151969000Y-100479000D01*
X151967000Y-100477000D01*
X151965000Y-100475000D01*
X151963000Y-100473000D01*
X151961000Y-100471000D01*
X151960000Y-100469000D01*
X151958000Y-100467000D01*
X151957000Y-100465000D01*
X151955000Y-100463000D01*
X151954000Y-100460000D01*
X151953000Y-100458000D01*
X151952000Y-100455000D01*
X151952000Y-100453000D01*
X151951000Y-100450000D01*
X151951000Y-100448000D01*
X151950000Y-100445000D01*
X151950000Y-100443000D01*
X151950000Y-100440000D01*
X151950000Y-99940000D01*
X151950000Y-99937000D01*
X151950000Y-99935000D01*
X151951000Y-99932000D01*
X151951000Y-99930000D01*
X151952000Y-99927000D01*
X151952000Y-99925000D01*
X151953000Y-99922000D01*
X151954000Y-99920000D01*
X151955000Y-99917000D01*
X151957000Y-99915000D01*
X151958000Y-99913000D01*
X151960000Y-99911000D01*
X151961000Y-99909000D01*
X151963000Y-99907000D01*
X151965000Y-99905000D01*
X151967000Y-99903000D01*
X151969000Y-99901000D01*
X151971000Y-99900000D01*
X151973000Y-99898000D01*
X151975000Y-99897000D01*
X151977000Y-99895000D01*
X151980000Y-99894000D01*
X151982000Y-99893000D01*
X151985000Y-99892000D01*
X151987000Y-99892000D01*
X151990000Y-99891000D01*
X151992000Y-99891000D01*
X151995000Y-99890000D01*
X151997000Y-99890000D01*
X152000000Y-99890000D01*
X152200000Y-99890000D01*
X152203000Y-99890000D01*
X152205000Y-99890000D01*
X152208000Y-99891000D01*
G36*
X152208000Y-99891000D02*
G01*
X152210000Y-99891000D01*
X152213000Y-99892000D01*
X152215000Y-99892000D01*
X152218000Y-99893000D01*
X152220000Y-99894000D01*
X152223000Y-99895000D01*
X152225000Y-99897000D01*
X152227000Y-99898000D01*
X152229000Y-99900000D01*
X152231000Y-99901000D01*
X152233000Y-99903000D01*
X152235000Y-99905000D01*
X152237000Y-99907000D01*
X152239000Y-99909000D01*
X152240000Y-99911000D01*
X152242000Y-99913000D01*
X152243000Y-99915000D01*
X152245000Y-99917000D01*
X152246000Y-99920000D01*
X152247000Y-99922000D01*
X152248000Y-99925000D01*
X152248000Y-99927000D01*
X152249000Y-99930000D01*
X152249000Y-99932000D01*
X152250000Y-99935000D01*
X152250000Y-99937000D01*
X152250000Y-99940000D01*
X152250000Y-100440000D01*
X152250000Y-100443000D01*
X152250000Y-100445000D01*
X152249000Y-100448000D01*
X152249000Y-100450000D01*
X152248000Y-100453000D01*
X152248000Y-100455000D01*
X152247000Y-100458000D01*
X152246000Y-100460000D01*
X152245000Y-100463000D01*
X152243000Y-100465000D01*
X152242000Y-100467000D01*
X152240000Y-100469000D01*
X152239000Y-100471000D01*
X152237000Y-100473000D01*
X152235000Y-100475000D01*
X152233000Y-100477000D01*
X152231000Y-100479000D01*
X152229000Y-100480000D01*
X152227000Y-100482000D01*
X152225000Y-100483000D01*
X152223000Y-100485000D01*
X152220000Y-100486000D01*
X152218000Y-100487000D01*
X152215000Y-100488000D01*
X152213000Y-100488000D01*
X152210000Y-100489000D01*
X152208000Y-100489000D01*
X152205000Y-100490000D01*
X152203000Y-100490000D01*
X152200000Y-100490000D01*
X152000000Y-100490000D01*
X151997000Y-100490000D01*
X151995000Y-100490000D01*
X151992000Y-100489000D01*
X151990000Y-100489000D01*
X151987000Y-100488000D01*
X151985000Y-100488000D01*
X151982000Y-100487000D01*
X151980000Y-100486000D01*
X151977000Y-100485000D01*
X151975000Y-100483000D01*
X151973000Y-100482000D01*
X151971000Y-100480000D01*
X151969000Y-100479000D01*
X151967000Y-100477000D01*
X151965000Y-100475000D01*
X151963000Y-100473000D01*
X151961000Y-100471000D01*
X151960000Y-100469000D01*
X151958000Y-100467000D01*
X151957000Y-100465000D01*
X151955000Y-100463000D01*
X151954000Y-100460000D01*
X151953000Y-100458000D01*
X151952000Y-100455000D01*
X151952000Y-100453000D01*
X151951000Y-100450000D01*
X151951000Y-100448000D01*
X151950000Y-100445000D01*
X151950000Y-100443000D01*
X151950000Y-100440000D01*
X151950000Y-99940000D01*
X151950000Y-99937000D01*
X151950000Y-99935000D01*
X151951000Y-99932000D01*
X151951000Y-99930000D01*
X151952000Y-99927000D01*
X151952000Y-99925000D01*
X151953000Y-99922000D01*
X151954000Y-99920000D01*
X151955000Y-99917000D01*
X151957000Y-99915000D01*
X151958000Y-99913000D01*
X151960000Y-99911000D01*
X151961000Y-99909000D01*
X151963000Y-99907000D01*
X151965000Y-99905000D01*
X151967000Y-99903000D01*
X151969000Y-99901000D01*
X151971000Y-99900000D01*
X151973000Y-99898000D01*
X151975000Y-99897000D01*
X151977000Y-99895000D01*
X151980000Y-99894000D01*
X151982000Y-99893000D01*
X151985000Y-99892000D01*
X151987000Y-99892000D01*
X151990000Y-99891000D01*
X151992000Y-99891000D01*
X151995000Y-99890000D01*
X151997000Y-99890000D01*
X152000000Y-99890000D01*
X152200000Y-99890000D01*
X152203000Y-99890000D01*
X152205000Y-99890000D01*
X152208000Y-99891000D01*
G37*
X152208000Y-101791000D02*
X152210000Y-101791000D01*
X152213000Y-101792000D01*
X152215000Y-101792000D01*
X152218000Y-101793000D01*
X152220000Y-101794000D01*
X152223000Y-101795000D01*
X152225000Y-101797000D01*
X152227000Y-101798000D01*
X152229000Y-101800000D01*
X152231000Y-101801000D01*
X152233000Y-101803000D01*
X152235000Y-101805000D01*
X152237000Y-101807000D01*
X152239000Y-101809000D01*
X152240000Y-101811000D01*
X152242000Y-101813000D01*
X152243000Y-101815000D01*
X152245000Y-101817000D01*
X152246000Y-101820000D01*
X152247000Y-101822000D01*
X152248000Y-101825000D01*
X152248000Y-101827000D01*
X152249000Y-101830000D01*
X152249000Y-101832000D01*
X152250000Y-101835000D01*
X152250000Y-101837000D01*
X152250000Y-101840000D01*
X152250000Y-102340000D01*
X152250000Y-102343000D01*
X152250000Y-102345000D01*
X152249000Y-102348000D01*
X152249000Y-102350000D01*
X152248000Y-102353000D01*
X152248000Y-102355000D01*
X152247000Y-102358000D01*
X152246000Y-102360000D01*
X152245000Y-102363000D01*
X152243000Y-102365000D01*
X152242000Y-102367000D01*
X152240000Y-102369000D01*
X152239000Y-102371000D01*
X152237000Y-102373000D01*
X152235000Y-102375000D01*
X152233000Y-102377000D01*
X152231000Y-102379000D01*
X152229000Y-102380000D01*
X152227000Y-102382000D01*
X152225000Y-102383000D01*
X152223000Y-102385000D01*
X152220000Y-102386000D01*
X152218000Y-102387000D01*
X152215000Y-102388000D01*
X152213000Y-102388000D01*
X152210000Y-102389000D01*
X152208000Y-102389000D01*
X152205000Y-102390000D01*
X152203000Y-102390000D01*
X152200000Y-102390000D01*
X152000000Y-102390000D01*
X151997000Y-102390000D01*
X151995000Y-102390000D01*
X151992000Y-102389000D01*
X151990000Y-102389000D01*
X151987000Y-102388000D01*
X151985000Y-102388000D01*
X151982000Y-102387000D01*
X151980000Y-102386000D01*
X151977000Y-102385000D01*
X151975000Y-102383000D01*
X151973000Y-102382000D01*
X151971000Y-102380000D01*
X151969000Y-102379000D01*
X151967000Y-102377000D01*
X151965000Y-102375000D01*
X151963000Y-102373000D01*
X151961000Y-102371000D01*
X151960000Y-102369000D01*
X151958000Y-102367000D01*
X151957000Y-102365000D01*
X151955000Y-102363000D01*
X151954000Y-102360000D01*
X151953000Y-102358000D01*
X151952000Y-102355000D01*
X151952000Y-102353000D01*
X151951000Y-102350000D01*
X151951000Y-102348000D01*
X151950000Y-102345000D01*
X151950000Y-102343000D01*
X151950000Y-102340000D01*
X151950000Y-101840000D01*
X151950000Y-101837000D01*
X151950000Y-101835000D01*
X151951000Y-101832000D01*
X151951000Y-101830000D01*
X151952000Y-101827000D01*
X151952000Y-101825000D01*
X151953000Y-101822000D01*
X151954000Y-101820000D01*
X151955000Y-101817000D01*
X151957000Y-101815000D01*
X151958000Y-101813000D01*
X151960000Y-101811000D01*
X151961000Y-101809000D01*
X151963000Y-101807000D01*
X151965000Y-101805000D01*
X151967000Y-101803000D01*
X151969000Y-101801000D01*
X151971000Y-101800000D01*
X151973000Y-101798000D01*
X151975000Y-101797000D01*
X151977000Y-101795000D01*
X151980000Y-101794000D01*
X151982000Y-101793000D01*
X151985000Y-101792000D01*
X151987000Y-101792000D01*
X151990000Y-101791000D01*
X151992000Y-101791000D01*
X151995000Y-101790000D01*
X151997000Y-101790000D01*
X152000000Y-101790000D01*
X152200000Y-101790000D01*
X152203000Y-101790000D01*
X152205000Y-101790000D01*
X152208000Y-101791000D01*
G36*
X152208000Y-101791000D02*
G01*
X152210000Y-101791000D01*
X152213000Y-101792000D01*
X152215000Y-101792000D01*
X152218000Y-101793000D01*
X152220000Y-101794000D01*
X152223000Y-101795000D01*
X152225000Y-101797000D01*
X152227000Y-101798000D01*
X152229000Y-101800000D01*
X152231000Y-101801000D01*
X152233000Y-101803000D01*
X152235000Y-101805000D01*
X152237000Y-101807000D01*
X152239000Y-101809000D01*
X152240000Y-101811000D01*
X152242000Y-101813000D01*
X152243000Y-101815000D01*
X152245000Y-101817000D01*
X152246000Y-101820000D01*
X152247000Y-101822000D01*
X152248000Y-101825000D01*
X152248000Y-101827000D01*
X152249000Y-101830000D01*
X152249000Y-101832000D01*
X152250000Y-101835000D01*
X152250000Y-101837000D01*
X152250000Y-101840000D01*
X152250000Y-102340000D01*
X152250000Y-102343000D01*
X152250000Y-102345000D01*
X152249000Y-102348000D01*
X152249000Y-102350000D01*
X152248000Y-102353000D01*
X152248000Y-102355000D01*
X152247000Y-102358000D01*
X152246000Y-102360000D01*
X152245000Y-102363000D01*
X152243000Y-102365000D01*
X152242000Y-102367000D01*
X152240000Y-102369000D01*
X152239000Y-102371000D01*
X152237000Y-102373000D01*
X152235000Y-102375000D01*
X152233000Y-102377000D01*
X152231000Y-102379000D01*
X152229000Y-102380000D01*
X152227000Y-102382000D01*
X152225000Y-102383000D01*
X152223000Y-102385000D01*
X152220000Y-102386000D01*
X152218000Y-102387000D01*
X152215000Y-102388000D01*
X152213000Y-102388000D01*
X152210000Y-102389000D01*
X152208000Y-102389000D01*
X152205000Y-102390000D01*
X152203000Y-102390000D01*
X152200000Y-102390000D01*
X152000000Y-102390000D01*
X151997000Y-102390000D01*
X151995000Y-102390000D01*
X151992000Y-102389000D01*
X151990000Y-102389000D01*
X151987000Y-102388000D01*
X151985000Y-102388000D01*
X151982000Y-102387000D01*
X151980000Y-102386000D01*
X151977000Y-102385000D01*
X151975000Y-102383000D01*
X151973000Y-102382000D01*
X151971000Y-102380000D01*
X151969000Y-102379000D01*
X151967000Y-102377000D01*
X151965000Y-102375000D01*
X151963000Y-102373000D01*
X151961000Y-102371000D01*
X151960000Y-102369000D01*
X151958000Y-102367000D01*
X151957000Y-102365000D01*
X151955000Y-102363000D01*
X151954000Y-102360000D01*
X151953000Y-102358000D01*
X151952000Y-102355000D01*
X151952000Y-102353000D01*
X151951000Y-102350000D01*
X151951000Y-102348000D01*
X151950000Y-102345000D01*
X151950000Y-102343000D01*
X151950000Y-102340000D01*
X151950000Y-101840000D01*
X151950000Y-101837000D01*
X151950000Y-101835000D01*
X151951000Y-101832000D01*
X151951000Y-101830000D01*
X151952000Y-101827000D01*
X151952000Y-101825000D01*
X151953000Y-101822000D01*
X151954000Y-101820000D01*
X151955000Y-101817000D01*
X151957000Y-101815000D01*
X151958000Y-101813000D01*
X151960000Y-101811000D01*
X151961000Y-101809000D01*
X151963000Y-101807000D01*
X151965000Y-101805000D01*
X151967000Y-101803000D01*
X151969000Y-101801000D01*
X151971000Y-101800000D01*
X151973000Y-101798000D01*
X151975000Y-101797000D01*
X151977000Y-101795000D01*
X151980000Y-101794000D01*
X151982000Y-101793000D01*
X151985000Y-101792000D01*
X151987000Y-101792000D01*
X151990000Y-101791000D01*
X151992000Y-101791000D01*
X151995000Y-101790000D01*
X151997000Y-101790000D01*
X152000000Y-101790000D01*
X152200000Y-101790000D01*
X152203000Y-101790000D01*
X152205000Y-101790000D01*
X152208000Y-101791000D01*
G37*
X152608000Y-99891000D02*
X152610000Y-99891000D01*
X152613000Y-99892000D01*
X152615000Y-99892000D01*
X152618000Y-99893000D01*
X152620000Y-99894000D01*
X152623000Y-99895000D01*
X152625000Y-99897000D01*
X152627000Y-99898000D01*
X152629000Y-99900000D01*
X152631000Y-99901000D01*
X152633000Y-99903000D01*
X152635000Y-99905000D01*
X152637000Y-99907000D01*
X152639000Y-99909000D01*
X152640000Y-99911000D01*
X152642000Y-99913000D01*
X152643000Y-99915000D01*
X152645000Y-99917000D01*
X152646000Y-99920000D01*
X152647000Y-99922000D01*
X152648000Y-99925000D01*
X152648000Y-99927000D01*
X152649000Y-99930000D01*
X152649000Y-99932000D01*
X152650000Y-99935000D01*
X152650000Y-99937000D01*
X152650000Y-99940000D01*
X152650000Y-100440000D01*
X152650000Y-100443000D01*
X152650000Y-100445000D01*
X152649000Y-100448000D01*
X152649000Y-100450000D01*
X152648000Y-100453000D01*
X152648000Y-100455000D01*
X152647000Y-100458000D01*
X152646000Y-100460000D01*
X152645000Y-100463000D01*
X152643000Y-100465000D01*
X152642000Y-100467000D01*
X152640000Y-100469000D01*
X152639000Y-100471000D01*
X152637000Y-100473000D01*
X152635000Y-100475000D01*
X152633000Y-100477000D01*
X152631000Y-100479000D01*
X152629000Y-100480000D01*
X152627000Y-100482000D01*
X152625000Y-100483000D01*
X152623000Y-100485000D01*
X152620000Y-100486000D01*
X152618000Y-100487000D01*
X152615000Y-100488000D01*
X152613000Y-100488000D01*
X152610000Y-100489000D01*
X152608000Y-100489000D01*
X152605000Y-100490000D01*
X152603000Y-100490000D01*
X152600000Y-100490000D01*
X152400000Y-100490000D01*
X152397000Y-100490000D01*
X152395000Y-100490000D01*
X152392000Y-100489000D01*
X152390000Y-100489000D01*
X152387000Y-100488000D01*
X152385000Y-100488000D01*
X152382000Y-100487000D01*
X152380000Y-100486000D01*
X152377000Y-100485000D01*
X152375000Y-100483000D01*
X152373000Y-100482000D01*
X152371000Y-100480000D01*
X152369000Y-100479000D01*
X152367000Y-100477000D01*
X152365000Y-100475000D01*
X152363000Y-100473000D01*
X152361000Y-100471000D01*
X152360000Y-100469000D01*
X152358000Y-100467000D01*
X152357000Y-100465000D01*
X152355000Y-100463000D01*
X152354000Y-100460000D01*
X152353000Y-100458000D01*
X152352000Y-100455000D01*
X152352000Y-100453000D01*
X152351000Y-100450000D01*
X152351000Y-100448000D01*
X152350000Y-100445000D01*
X152350000Y-100443000D01*
X152350000Y-100440000D01*
X152350000Y-99940000D01*
X152350000Y-99937000D01*
X152350000Y-99935000D01*
X152351000Y-99932000D01*
X152351000Y-99930000D01*
X152352000Y-99927000D01*
X152352000Y-99925000D01*
X152353000Y-99922000D01*
X152354000Y-99920000D01*
X152355000Y-99917000D01*
X152357000Y-99915000D01*
X152358000Y-99913000D01*
X152360000Y-99911000D01*
X152361000Y-99909000D01*
X152363000Y-99907000D01*
X152365000Y-99905000D01*
X152367000Y-99903000D01*
X152369000Y-99901000D01*
X152371000Y-99900000D01*
X152373000Y-99898000D01*
X152375000Y-99897000D01*
X152377000Y-99895000D01*
X152380000Y-99894000D01*
X152382000Y-99893000D01*
X152385000Y-99892000D01*
X152387000Y-99892000D01*
X152390000Y-99891000D01*
X152392000Y-99891000D01*
X152395000Y-99890000D01*
X152397000Y-99890000D01*
X152400000Y-99890000D01*
X152600000Y-99890000D01*
X152603000Y-99890000D01*
X152605000Y-99890000D01*
X152608000Y-99891000D01*
G36*
X152608000Y-99891000D02*
G01*
X152610000Y-99891000D01*
X152613000Y-99892000D01*
X152615000Y-99892000D01*
X152618000Y-99893000D01*
X152620000Y-99894000D01*
X152623000Y-99895000D01*
X152625000Y-99897000D01*
X152627000Y-99898000D01*
X152629000Y-99900000D01*
X152631000Y-99901000D01*
X152633000Y-99903000D01*
X152635000Y-99905000D01*
X152637000Y-99907000D01*
X152639000Y-99909000D01*
X152640000Y-99911000D01*
X152642000Y-99913000D01*
X152643000Y-99915000D01*
X152645000Y-99917000D01*
X152646000Y-99920000D01*
X152647000Y-99922000D01*
X152648000Y-99925000D01*
X152648000Y-99927000D01*
X152649000Y-99930000D01*
X152649000Y-99932000D01*
X152650000Y-99935000D01*
X152650000Y-99937000D01*
X152650000Y-99940000D01*
X152650000Y-100440000D01*
X152650000Y-100443000D01*
X152650000Y-100445000D01*
X152649000Y-100448000D01*
X152649000Y-100450000D01*
X152648000Y-100453000D01*
X152648000Y-100455000D01*
X152647000Y-100458000D01*
X152646000Y-100460000D01*
X152645000Y-100463000D01*
X152643000Y-100465000D01*
X152642000Y-100467000D01*
X152640000Y-100469000D01*
X152639000Y-100471000D01*
X152637000Y-100473000D01*
X152635000Y-100475000D01*
X152633000Y-100477000D01*
X152631000Y-100479000D01*
X152629000Y-100480000D01*
X152627000Y-100482000D01*
X152625000Y-100483000D01*
X152623000Y-100485000D01*
X152620000Y-100486000D01*
X152618000Y-100487000D01*
X152615000Y-100488000D01*
X152613000Y-100488000D01*
X152610000Y-100489000D01*
X152608000Y-100489000D01*
X152605000Y-100490000D01*
X152603000Y-100490000D01*
X152600000Y-100490000D01*
X152400000Y-100490000D01*
X152397000Y-100490000D01*
X152395000Y-100490000D01*
X152392000Y-100489000D01*
X152390000Y-100489000D01*
X152387000Y-100488000D01*
X152385000Y-100488000D01*
X152382000Y-100487000D01*
X152380000Y-100486000D01*
X152377000Y-100485000D01*
X152375000Y-100483000D01*
X152373000Y-100482000D01*
X152371000Y-100480000D01*
X152369000Y-100479000D01*
X152367000Y-100477000D01*
X152365000Y-100475000D01*
X152363000Y-100473000D01*
X152361000Y-100471000D01*
X152360000Y-100469000D01*
X152358000Y-100467000D01*
X152357000Y-100465000D01*
X152355000Y-100463000D01*
X152354000Y-100460000D01*
X152353000Y-100458000D01*
X152352000Y-100455000D01*
X152352000Y-100453000D01*
X152351000Y-100450000D01*
X152351000Y-100448000D01*
X152350000Y-100445000D01*
X152350000Y-100443000D01*
X152350000Y-100440000D01*
X152350000Y-99940000D01*
X152350000Y-99937000D01*
X152350000Y-99935000D01*
X152351000Y-99932000D01*
X152351000Y-99930000D01*
X152352000Y-99927000D01*
X152352000Y-99925000D01*
X152353000Y-99922000D01*
X152354000Y-99920000D01*
X152355000Y-99917000D01*
X152357000Y-99915000D01*
X152358000Y-99913000D01*
X152360000Y-99911000D01*
X152361000Y-99909000D01*
X152363000Y-99907000D01*
X152365000Y-99905000D01*
X152367000Y-99903000D01*
X152369000Y-99901000D01*
X152371000Y-99900000D01*
X152373000Y-99898000D01*
X152375000Y-99897000D01*
X152377000Y-99895000D01*
X152380000Y-99894000D01*
X152382000Y-99893000D01*
X152385000Y-99892000D01*
X152387000Y-99892000D01*
X152390000Y-99891000D01*
X152392000Y-99891000D01*
X152395000Y-99890000D01*
X152397000Y-99890000D01*
X152400000Y-99890000D01*
X152600000Y-99890000D01*
X152603000Y-99890000D01*
X152605000Y-99890000D01*
X152608000Y-99891000D01*
G37*
X152608000Y-101791000D02*
X152610000Y-101791000D01*
X152613000Y-101792000D01*
X152615000Y-101792000D01*
X152618000Y-101793000D01*
X152620000Y-101794000D01*
X152623000Y-101795000D01*
X152625000Y-101797000D01*
X152627000Y-101798000D01*
X152629000Y-101800000D01*
X152631000Y-101801000D01*
X152633000Y-101803000D01*
X152635000Y-101805000D01*
X152637000Y-101807000D01*
X152639000Y-101809000D01*
X152640000Y-101811000D01*
X152642000Y-101813000D01*
X152643000Y-101815000D01*
X152645000Y-101817000D01*
X152646000Y-101820000D01*
X152647000Y-101822000D01*
X152648000Y-101825000D01*
X152648000Y-101827000D01*
X152649000Y-101830000D01*
X152649000Y-101832000D01*
X152650000Y-101835000D01*
X152650000Y-101837000D01*
X152650000Y-101840000D01*
X152650000Y-102340000D01*
X152650000Y-102343000D01*
X152650000Y-102345000D01*
X152649000Y-102348000D01*
X152649000Y-102350000D01*
X152648000Y-102353000D01*
X152648000Y-102355000D01*
X152647000Y-102358000D01*
X152646000Y-102360000D01*
X152645000Y-102363000D01*
X152643000Y-102365000D01*
X152642000Y-102367000D01*
X152640000Y-102369000D01*
X152639000Y-102371000D01*
X152637000Y-102373000D01*
X152635000Y-102375000D01*
X152633000Y-102377000D01*
X152631000Y-102379000D01*
X152629000Y-102380000D01*
X152627000Y-102382000D01*
X152625000Y-102383000D01*
X152623000Y-102385000D01*
X152620000Y-102386000D01*
X152618000Y-102387000D01*
X152615000Y-102388000D01*
X152613000Y-102388000D01*
X152610000Y-102389000D01*
X152608000Y-102389000D01*
X152605000Y-102390000D01*
X152603000Y-102390000D01*
X152600000Y-102390000D01*
X152400000Y-102390000D01*
X152397000Y-102390000D01*
X152395000Y-102390000D01*
X152392000Y-102389000D01*
X152390000Y-102389000D01*
X152387000Y-102388000D01*
X152385000Y-102388000D01*
X152382000Y-102387000D01*
X152380000Y-102386000D01*
X152377000Y-102385000D01*
X152375000Y-102383000D01*
X152373000Y-102382000D01*
X152371000Y-102380000D01*
X152369000Y-102379000D01*
X152367000Y-102377000D01*
X152365000Y-102375000D01*
X152363000Y-102373000D01*
X152361000Y-102371000D01*
X152360000Y-102369000D01*
X152358000Y-102367000D01*
X152357000Y-102365000D01*
X152355000Y-102363000D01*
X152354000Y-102360000D01*
X152353000Y-102358000D01*
X152352000Y-102355000D01*
X152352000Y-102353000D01*
X152351000Y-102350000D01*
X152351000Y-102348000D01*
X152350000Y-102345000D01*
X152350000Y-102343000D01*
X152350000Y-102340000D01*
X152350000Y-101840000D01*
X152350000Y-101837000D01*
X152350000Y-101835000D01*
X152351000Y-101832000D01*
X152351000Y-101830000D01*
X152352000Y-101827000D01*
X152352000Y-101825000D01*
X152353000Y-101822000D01*
X152354000Y-101820000D01*
X152355000Y-101817000D01*
X152357000Y-101815000D01*
X152358000Y-101813000D01*
X152360000Y-101811000D01*
X152361000Y-101809000D01*
X152363000Y-101807000D01*
X152365000Y-101805000D01*
X152367000Y-101803000D01*
X152369000Y-101801000D01*
X152371000Y-101800000D01*
X152373000Y-101798000D01*
X152375000Y-101797000D01*
X152377000Y-101795000D01*
X152380000Y-101794000D01*
X152382000Y-101793000D01*
X152385000Y-101792000D01*
X152387000Y-101792000D01*
X152390000Y-101791000D01*
X152392000Y-101791000D01*
X152395000Y-101790000D01*
X152397000Y-101790000D01*
X152400000Y-101790000D01*
X152600000Y-101790000D01*
X152603000Y-101790000D01*
X152605000Y-101790000D01*
X152608000Y-101791000D01*
G36*
X152608000Y-101791000D02*
G01*
X152610000Y-101791000D01*
X152613000Y-101792000D01*
X152615000Y-101792000D01*
X152618000Y-101793000D01*
X152620000Y-101794000D01*
X152623000Y-101795000D01*
X152625000Y-101797000D01*
X152627000Y-101798000D01*
X152629000Y-101800000D01*
X152631000Y-101801000D01*
X152633000Y-101803000D01*
X152635000Y-101805000D01*
X152637000Y-101807000D01*
X152639000Y-101809000D01*
X152640000Y-101811000D01*
X152642000Y-101813000D01*
X152643000Y-101815000D01*
X152645000Y-101817000D01*
X152646000Y-101820000D01*
X152647000Y-101822000D01*
X152648000Y-101825000D01*
X152648000Y-101827000D01*
X152649000Y-101830000D01*
X152649000Y-101832000D01*
X152650000Y-101835000D01*
X152650000Y-101837000D01*
X152650000Y-101840000D01*
X152650000Y-102340000D01*
X152650000Y-102343000D01*
X152650000Y-102345000D01*
X152649000Y-102348000D01*
X152649000Y-102350000D01*
X152648000Y-102353000D01*
X152648000Y-102355000D01*
X152647000Y-102358000D01*
X152646000Y-102360000D01*
X152645000Y-102363000D01*
X152643000Y-102365000D01*
X152642000Y-102367000D01*
X152640000Y-102369000D01*
X152639000Y-102371000D01*
X152637000Y-102373000D01*
X152635000Y-102375000D01*
X152633000Y-102377000D01*
X152631000Y-102379000D01*
X152629000Y-102380000D01*
X152627000Y-102382000D01*
X152625000Y-102383000D01*
X152623000Y-102385000D01*
X152620000Y-102386000D01*
X152618000Y-102387000D01*
X152615000Y-102388000D01*
X152613000Y-102388000D01*
X152610000Y-102389000D01*
X152608000Y-102389000D01*
X152605000Y-102390000D01*
X152603000Y-102390000D01*
X152600000Y-102390000D01*
X152400000Y-102390000D01*
X152397000Y-102390000D01*
X152395000Y-102390000D01*
X152392000Y-102389000D01*
X152390000Y-102389000D01*
X152387000Y-102388000D01*
X152385000Y-102388000D01*
X152382000Y-102387000D01*
X152380000Y-102386000D01*
X152377000Y-102385000D01*
X152375000Y-102383000D01*
X152373000Y-102382000D01*
X152371000Y-102380000D01*
X152369000Y-102379000D01*
X152367000Y-102377000D01*
X152365000Y-102375000D01*
X152363000Y-102373000D01*
X152361000Y-102371000D01*
X152360000Y-102369000D01*
X152358000Y-102367000D01*
X152357000Y-102365000D01*
X152355000Y-102363000D01*
X152354000Y-102360000D01*
X152353000Y-102358000D01*
X152352000Y-102355000D01*
X152352000Y-102353000D01*
X152351000Y-102350000D01*
X152351000Y-102348000D01*
X152350000Y-102345000D01*
X152350000Y-102343000D01*
X152350000Y-102340000D01*
X152350000Y-101840000D01*
X152350000Y-101837000D01*
X152350000Y-101835000D01*
X152351000Y-101832000D01*
X152351000Y-101830000D01*
X152352000Y-101827000D01*
X152352000Y-101825000D01*
X152353000Y-101822000D01*
X152354000Y-101820000D01*
X152355000Y-101817000D01*
X152357000Y-101815000D01*
X152358000Y-101813000D01*
X152360000Y-101811000D01*
X152361000Y-101809000D01*
X152363000Y-101807000D01*
X152365000Y-101805000D01*
X152367000Y-101803000D01*
X152369000Y-101801000D01*
X152371000Y-101800000D01*
X152373000Y-101798000D01*
X152375000Y-101797000D01*
X152377000Y-101795000D01*
X152380000Y-101794000D01*
X152382000Y-101793000D01*
X152385000Y-101792000D01*
X152387000Y-101792000D01*
X152390000Y-101791000D01*
X152392000Y-101791000D01*
X152395000Y-101790000D01*
X152397000Y-101790000D01*
X152400000Y-101790000D01*
X152600000Y-101790000D01*
X152603000Y-101790000D01*
X152605000Y-101790000D01*
X152608000Y-101791000D01*
G37*
X153008000Y-99891000D02*
X153010000Y-99891000D01*
X153013000Y-99892000D01*
X153015000Y-99892000D01*
X153018000Y-99893000D01*
X153020000Y-99894000D01*
X153023000Y-99895000D01*
X153025000Y-99897000D01*
X153027000Y-99898000D01*
X153029000Y-99900000D01*
X153031000Y-99901000D01*
X153033000Y-99903000D01*
X153035000Y-99905000D01*
X153037000Y-99907000D01*
X153039000Y-99909000D01*
X153040000Y-99911000D01*
X153042000Y-99913000D01*
X153043000Y-99915000D01*
X153045000Y-99917000D01*
X153046000Y-99920000D01*
X153047000Y-99922000D01*
X153048000Y-99925000D01*
X153048000Y-99927000D01*
X153049000Y-99930000D01*
X153049000Y-99932000D01*
X153050000Y-99935000D01*
X153050000Y-99937000D01*
X153050000Y-99940000D01*
X153050000Y-100440000D01*
X153050000Y-100443000D01*
X153050000Y-100445000D01*
X153049000Y-100448000D01*
X153049000Y-100450000D01*
X153048000Y-100453000D01*
X153048000Y-100455000D01*
X153047000Y-100458000D01*
X153046000Y-100460000D01*
X153045000Y-100463000D01*
X153043000Y-100465000D01*
X153042000Y-100467000D01*
X153040000Y-100469000D01*
X153039000Y-100471000D01*
X153037000Y-100473000D01*
X153035000Y-100475000D01*
X153033000Y-100477000D01*
X153031000Y-100479000D01*
X153029000Y-100480000D01*
X153027000Y-100482000D01*
X153025000Y-100483000D01*
X153023000Y-100485000D01*
X153020000Y-100486000D01*
X153018000Y-100487000D01*
X153015000Y-100488000D01*
X153013000Y-100488000D01*
X153010000Y-100489000D01*
X153008000Y-100489000D01*
X153005000Y-100490000D01*
X153003000Y-100490000D01*
X153000000Y-100490000D01*
X152800000Y-100490000D01*
X152797000Y-100490000D01*
X152795000Y-100490000D01*
X152792000Y-100489000D01*
X152790000Y-100489000D01*
X152787000Y-100488000D01*
X152785000Y-100488000D01*
X152782000Y-100487000D01*
X152780000Y-100486000D01*
X152777000Y-100485000D01*
X152775000Y-100483000D01*
X152773000Y-100482000D01*
X152771000Y-100480000D01*
X152769000Y-100479000D01*
X152767000Y-100477000D01*
X152765000Y-100475000D01*
X152763000Y-100473000D01*
X152761000Y-100471000D01*
X152760000Y-100469000D01*
X152758000Y-100467000D01*
X152757000Y-100465000D01*
X152755000Y-100463000D01*
X152754000Y-100460000D01*
X152753000Y-100458000D01*
X152752000Y-100455000D01*
X152752000Y-100453000D01*
X152751000Y-100450000D01*
X152751000Y-100448000D01*
X152750000Y-100445000D01*
X152750000Y-100443000D01*
X152750000Y-100440000D01*
X152750000Y-99940000D01*
X152750000Y-99937000D01*
X152750000Y-99935000D01*
X152751000Y-99932000D01*
X152751000Y-99930000D01*
X152752000Y-99927000D01*
X152752000Y-99925000D01*
X152753000Y-99922000D01*
X152754000Y-99920000D01*
X152755000Y-99917000D01*
X152757000Y-99915000D01*
X152758000Y-99913000D01*
X152760000Y-99911000D01*
X152761000Y-99909000D01*
X152763000Y-99907000D01*
X152765000Y-99905000D01*
X152767000Y-99903000D01*
X152769000Y-99901000D01*
X152771000Y-99900000D01*
X152773000Y-99898000D01*
X152775000Y-99897000D01*
X152777000Y-99895000D01*
X152780000Y-99894000D01*
X152782000Y-99893000D01*
X152785000Y-99892000D01*
X152787000Y-99892000D01*
X152790000Y-99891000D01*
X152792000Y-99891000D01*
X152795000Y-99890000D01*
X152797000Y-99890000D01*
X152800000Y-99890000D01*
X153000000Y-99890000D01*
X153003000Y-99890000D01*
X153005000Y-99890000D01*
X153008000Y-99891000D01*
G36*
X153008000Y-99891000D02*
G01*
X153010000Y-99891000D01*
X153013000Y-99892000D01*
X153015000Y-99892000D01*
X153018000Y-99893000D01*
X153020000Y-99894000D01*
X153023000Y-99895000D01*
X153025000Y-99897000D01*
X153027000Y-99898000D01*
X153029000Y-99900000D01*
X153031000Y-99901000D01*
X153033000Y-99903000D01*
X153035000Y-99905000D01*
X153037000Y-99907000D01*
X153039000Y-99909000D01*
X153040000Y-99911000D01*
X153042000Y-99913000D01*
X153043000Y-99915000D01*
X153045000Y-99917000D01*
X153046000Y-99920000D01*
X153047000Y-99922000D01*
X153048000Y-99925000D01*
X153048000Y-99927000D01*
X153049000Y-99930000D01*
X153049000Y-99932000D01*
X153050000Y-99935000D01*
X153050000Y-99937000D01*
X153050000Y-99940000D01*
X153050000Y-100440000D01*
X153050000Y-100443000D01*
X153050000Y-100445000D01*
X153049000Y-100448000D01*
X153049000Y-100450000D01*
X153048000Y-100453000D01*
X153048000Y-100455000D01*
X153047000Y-100458000D01*
X153046000Y-100460000D01*
X153045000Y-100463000D01*
X153043000Y-100465000D01*
X153042000Y-100467000D01*
X153040000Y-100469000D01*
X153039000Y-100471000D01*
X153037000Y-100473000D01*
X153035000Y-100475000D01*
X153033000Y-100477000D01*
X153031000Y-100479000D01*
X153029000Y-100480000D01*
X153027000Y-100482000D01*
X153025000Y-100483000D01*
X153023000Y-100485000D01*
X153020000Y-100486000D01*
X153018000Y-100487000D01*
X153015000Y-100488000D01*
X153013000Y-100488000D01*
X153010000Y-100489000D01*
X153008000Y-100489000D01*
X153005000Y-100490000D01*
X153003000Y-100490000D01*
X153000000Y-100490000D01*
X152800000Y-100490000D01*
X152797000Y-100490000D01*
X152795000Y-100490000D01*
X152792000Y-100489000D01*
X152790000Y-100489000D01*
X152787000Y-100488000D01*
X152785000Y-100488000D01*
X152782000Y-100487000D01*
X152780000Y-100486000D01*
X152777000Y-100485000D01*
X152775000Y-100483000D01*
X152773000Y-100482000D01*
X152771000Y-100480000D01*
X152769000Y-100479000D01*
X152767000Y-100477000D01*
X152765000Y-100475000D01*
X152763000Y-100473000D01*
X152761000Y-100471000D01*
X152760000Y-100469000D01*
X152758000Y-100467000D01*
X152757000Y-100465000D01*
X152755000Y-100463000D01*
X152754000Y-100460000D01*
X152753000Y-100458000D01*
X152752000Y-100455000D01*
X152752000Y-100453000D01*
X152751000Y-100450000D01*
X152751000Y-100448000D01*
X152750000Y-100445000D01*
X152750000Y-100443000D01*
X152750000Y-100440000D01*
X152750000Y-99940000D01*
X152750000Y-99937000D01*
X152750000Y-99935000D01*
X152751000Y-99932000D01*
X152751000Y-99930000D01*
X152752000Y-99927000D01*
X152752000Y-99925000D01*
X152753000Y-99922000D01*
X152754000Y-99920000D01*
X152755000Y-99917000D01*
X152757000Y-99915000D01*
X152758000Y-99913000D01*
X152760000Y-99911000D01*
X152761000Y-99909000D01*
X152763000Y-99907000D01*
X152765000Y-99905000D01*
X152767000Y-99903000D01*
X152769000Y-99901000D01*
X152771000Y-99900000D01*
X152773000Y-99898000D01*
X152775000Y-99897000D01*
X152777000Y-99895000D01*
X152780000Y-99894000D01*
X152782000Y-99893000D01*
X152785000Y-99892000D01*
X152787000Y-99892000D01*
X152790000Y-99891000D01*
X152792000Y-99891000D01*
X152795000Y-99890000D01*
X152797000Y-99890000D01*
X152800000Y-99890000D01*
X153000000Y-99890000D01*
X153003000Y-99890000D01*
X153005000Y-99890000D01*
X153008000Y-99891000D01*
G37*
X153008000Y-101791000D02*
X153010000Y-101791000D01*
X153013000Y-101792000D01*
X153015000Y-101792000D01*
X153018000Y-101793000D01*
X153020000Y-101794000D01*
X153023000Y-101795000D01*
X153025000Y-101797000D01*
X153027000Y-101798000D01*
X153029000Y-101800000D01*
X153031000Y-101801000D01*
X153033000Y-101803000D01*
X153035000Y-101805000D01*
X153037000Y-101807000D01*
X153039000Y-101809000D01*
X153040000Y-101811000D01*
X153042000Y-101813000D01*
X153043000Y-101815000D01*
X153045000Y-101817000D01*
X153046000Y-101820000D01*
X153047000Y-101822000D01*
X153048000Y-101825000D01*
X153048000Y-101827000D01*
X153049000Y-101830000D01*
X153049000Y-101832000D01*
X153050000Y-101835000D01*
X153050000Y-101837000D01*
X153050000Y-101840000D01*
X153050000Y-102340000D01*
X153050000Y-102343000D01*
X153050000Y-102345000D01*
X153049000Y-102348000D01*
X153049000Y-102350000D01*
X153048000Y-102353000D01*
X153048000Y-102355000D01*
X153047000Y-102358000D01*
X153046000Y-102360000D01*
X153045000Y-102363000D01*
X153043000Y-102365000D01*
X153042000Y-102367000D01*
X153040000Y-102369000D01*
X153039000Y-102371000D01*
X153037000Y-102373000D01*
X153035000Y-102375000D01*
X153033000Y-102377000D01*
X153031000Y-102379000D01*
X153029000Y-102380000D01*
X153027000Y-102382000D01*
X153025000Y-102383000D01*
X153023000Y-102385000D01*
X153020000Y-102386000D01*
X153018000Y-102387000D01*
X153015000Y-102388000D01*
X153013000Y-102388000D01*
X153010000Y-102389000D01*
X153008000Y-102389000D01*
X153005000Y-102390000D01*
X153003000Y-102390000D01*
X153000000Y-102390000D01*
X152800000Y-102390000D01*
X152797000Y-102390000D01*
X152795000Y-102390000D01*
X152792000Y-102389000D01*
X152790000Y-102389000D01*
X152787000Y-102388000D01*
X152785000Y-102388000D01*
X152782000Y-102387000D01*
X152780000Y-102386000D01*
X152777000Y-102385000D01*
X152775000Y-102383000D01*
X152773000Y-102382000D01*
X152771000Y-102380000D01*
X152769000Y-102379000D01*
X152767000Y-102377000D01*
X152765000Y-102375000D01*
X152763000Y-102373000D01*
X152761000Y-102371000D01*
X152760000Y-102369000D01*
X152758000Y-102367000D01*
X152757000Y-102365000D01*
X152755000Y-102363000D01*
X152754000Y-102360000D01*
X152753000Y-102358000D01*
X152752000Y-102355000D01*
X152752000Y-102353000D01*
X152751000Y-102350000D01*
X152751000Y-102348000D01*
X152750000Y-102345000D01*
X152750000Y-102343000D01*
X152750000Y-102340000D01*
X152750000Y-101840000D01*
X152750000Y-101837000D01*
X152750000Y-101835000D01*
X152751000Y-101832000D01*
X152751000Y-101830000D01*
X152752000Y-101827000D01*
X152752000Y-101825000D01*
X152753000Y-101822000D01*
X152754000Y-101820000D01*
X152755000Y-101817000D01*
X152757000Y-101815000D01*
X152758000Y-101813000D01*
X152760000Y-101811000D01*
X152761000Y-101809000D01*
X152763000Y-101807000D01*
X152765000Y-101805000D01*
X152767000Y-101803000D01*
X152769000Y-101801000D01*
X152771000Y-101800000D01*
X152773000Y-101798000D01*
X152775000Y-101797000D01*
X152777000Y-101795000D01*
X152780000Y-101794000D01*
X152782000Y-101793000D01*
X152785000Y-101792000D01*
X152787000Y-101792000D01*
X152790000Y-101791000D01*
X152792000Y-101791000D01*
X152795000Y-101790000D01*
X152797000Y-101790000D01*
X152800000Y-101790000D01*
X153000000Y-101790000D01*
X153003000Y-101790000D01*
X153005000Y-101790000D01*
X153008000Y-101791000D01*
G36*
X153008000Y-101791000D02*
G01*
X153010000Y-101791000D01*
X153013000Y-101792000D01*
X153015000Y-101792000D01*
X153018000Y-101793000D01*
X153020000Y-101794000D01*
X153023000Y-101795000D01*
X153025000Y-101797000D01*
X153027000Y-101798000D01*
X153029000Y-101800000D01*
X153031000Y-101801000D01*
X153033000Y-101803000D01*
X153035000Y-101805000D01*
X153037000Y-101807000D01*
X153039000Y-101809000D01*
X153040000Y-101811000D01*
X153042000Y-101813000D01*
X153043000Y-101815000D01*
X153045000Y-101817000D01*
X153046000Y-101820000D01*
X153047000Y-101822000D01*
X153048000Y-101825000D01*
X153048000Y-101827000D01*
X153049000Y-101830000D01*
X153049000Y-101832000D01*
X153050000Y-101835000D01*
X153050000Y-101837000D01*
X153050000Y-101840000D01*
X153050000Y-102340000D01*
X153050000Y-102343000D01*
X153050000Y-102345000D01*
X153049000Y-102348000D01*
X153049000Y-102350000D01*
X153048000Y-102353000D01*
X153048000Y-102355000D01*
X153047000Y-102358000D01*
X153046000Y-102360000D01*
X153045000Y-102363000D01*
X153043000Y-102365000D01*
X153042000Y-102367000D01*
X153040000Y-102369000D01*
X153039000Y-102371000D01*
X153037000Y-102373000D01*
X153035000Y-102375000D01*
X153033000Y-102377000D01*
X153031000Y-102379000D01*
X153029000Y-102380000D01*
X153027000Y-102382000D01*
X153025000Y-102383000D01*
X153023000Y-102385000D01*
X153020000Y-102386000D01*
X153018000Y-102387000D01*
X153015000Y-102388000D01*
X153013000Y-102388000D01*
X153010000Y-102389000D01*
X153008000Y-102389000D01*
X153005000Y-102390000D01*
X153003000Y-102390000D01*
X153000000Y-102390000D01*
X152800000Y-102390000D01*
X152797000Y-102390000D01*
X152795000Y-102390000D01*
X152792000Y-102389000D01*
X152790000Y-102389000D01*
X152787000Y-102388000D01*
X152785000Y-102388000D01*
X152782000Y-102387000D01*
X152780000Y-102386000D01*
X152777000Y-102385000D01*
X152775000Y-102383000D01*
X152773000Y-102382000D01*
X152771000Y-102380000D01*
X152769000Y-102379000D01*
X152767000Y-102377000D01*
X152765000Y-102375000D01*
X152763000Y-102373000D01*
X152761000Y-102371000D01*
X152760000Y-102369000D01*
X152758000Y-102367000D01*
X152757000Y-102365000D01*
X152755000Y-102363000D01*
X152754000Y-102360000D01*
X152753000Y-102358000D01*
X152752000Y-102355000D01*
X152752000Y-102353000D01*
X152751000Y-102350000D01*
X152751000Y-102348000D01*
X152750000Y-102345000D01*
X152750000Y-102343000D01*
X152750000Y-102340000D01*
X152750000Y-101840000D01*
X152750000Y-101837000D01*
X152750000Y-101835000D01*
X152751000Y-101832000D01*
X152751000Y-101830000D01*
X152752000Y-101827000D01*
X152752000Y-101825000D01*
X152753000Y-101822000D01*
X152754000Y-101820000D01*
X152755000Y-101817000D01*
X152757000Y-101815000D01*
X152758000Y-101813000D01*
X152760000Y-101811000D01*
X152761000Y-101809000D01*
X152763000Y-101807000D01*
X152765000Y-101805000D01*
X152767000Y-101803000D01*
X152769000Y-101801000D01*
X152771000Y-101800000D01*
X152773000Y-101798000D01*
X152775000Y-101797000D01*
X152777000Y-101795000D01*
X152780000Y-101794000D01*
X152782000Y-101793000D01*
X152785000Y-101792000D01*
X152787000Y-101792000D01*
X152790000Y-101791000D01*
X152792000Y-101791000D01*
X152795000Y-101790000D01*
X152797000Y-101790000D01*
X152800000Y-101790000D01*
X153000000Y-101790000D01*
X153003000Y-101790000D01*
X153005000Y-101790000D01*
X153008000Y-101791000D01*
G37*
X153408000Y-99891000D02*
X153410000Y-99891000D01*
X153413000Y-99892000D01*
X153415000Y-99892000D01*
X153418000Y-99893000D01*
X153420000Y-99894000D01*
X153423000Y-99895000D01*
X153425000Y-99897000D01*
X153427000Y-99898000D01*
X153429000Y-99900000D01*
X153431000Y-99901000D01*
X153433000Y-99903000D01*
X153435000Y-99905000D01*
X153437000Y-99907000D01*
X153439000Y-99909000D01*
X153440000Y-99911000D01*
X153442000Y-99913000D01*
X153443000Y-99915000D01*
X153445000Y-99917000D01*
X153446000Y-99920000D01*
X153447000Y-99922000D01*
X153448000Y-99925000D01*
X153448000Y-99927000D01*
X153449000Y-99930000D01*
X153449000Y-99932000D01*
X153450000Y-99935000D01*
X153450000Y-99937000D01*
X153450000Y-99940000D01*
X153450000Y-100440000D01*
X153450000Y-100443000D01*
X153450000Y-100445000D01*
X153449000Y-100448000D01*
X153449000Y-100450000D01*
X153448000Y-100453000D01*
X153448000Y-100455000D01*
X153447000Y-100458000D01*
X153446000Y-100460000D01*
X153445000Y-100463000D01*
X153443000Y-100465000D01*
X153442000Y-100467000D01*
X153440000Y-100469000D01*
X153439000Y-100471000D01*
X153437000Y-100473000D01*
X153435000Y-100475000D01*
X153433000Y-100477000D01*
X153431000Y-100479000D01*
X153429000Y-100480000D01*
X153427000Y-100482000D01*
X153425000Y-100483000D01*
X153423000Y-100485000D01*
X153420000Y-100486000D01*
X153418000Y-100487000D01*
X153415000Y-100488000D01*
X153413000Y-100488000D01*
X153410000Y-100489000D01*
X153408000Y-100489000D01*
X153405000Y-100490000D01*
X153403000Y-100490000D01*
X153400000Y-100490000D01*
X153200000Y-100490000D01*
X153197000Y-100490000D01*
X153195000Y-100490000D01*
X153192000Y-100489000D01*
X153190000Y-100489000D01*
X153187000Y-100488000D01*
X153185000Y-100488000D01*
X153182000Y-100487000D01*
X153180000Y-100486000D01*
X153177000Y-100485000D01*
X153175000Y-100483000D01*
X153173000Y-100482000D01*
X153171000Y-100480000D01*
X153169000Y-100479000D01*
X153167000Y-100477000D01*
X153165000Y-100475000D01*
X153163000Y-100473000D01*
X153161000Y-100471000D01*
X153160000Y-100469000D01*
X153158000Y-100467000D01*
X153157000Y-100465000D01*
X153155000Y-100463000D01*
X153154000Y-100460000D01*
X153153000Y-100458000D01*
X153152000Y-100455000D01*
X153152000Y-100453000D01*
X153151000Y-100450000D01*
X153151000Y-100448000D01*
X153150000Y-100445000D01*
X153150000Y-100443000D01*
X153150000Y-100440000D01*
X153150000Y-99940000D01*
X153150000Y-99937000D01*
X153150000Y-99935000D01*
X153151000Y-99932000D01*
X153151000Y-99930000D01*
X153152000Y-99927000D01*
X153152000Y-99925000D01*
X153153000Y-99922000D01*
X153154000Y-99920000D01*
X153155000Y-99917000D01*
X153157000Y-99915000D01*
X153158000Y-99913000D01*
X153160000Y-99911000D01*
X153161000Y-99909000D01*
X153163000Y-99907000D01*
X153165000Y-99905000D01*
X153167000Y-99903000D01*
X153169000Y-99901000D01*
X153171000Y-99900000D01*
X153173000Y-99898000D01*
X153175000Y-99897000D01*
X153177000Y-99895000D01*
X153180000Y-99894000D01*
X153182000Y-99893000D01*
X153185000Y-99892000D01*
X153187000Y-99892000D01*
X153190000Y-99891000D01*
X153192000Y-99891000D01*
X153195000Y-99890000D01*
X153197000Y-99890000D01*
X153200000Y-99890000D01*
X153400000Y-99890000D01*
X153403000Y-99890000D01*
X153405000Y-99890000D01*
X153408000Y-99891000D01*
G36*
X153408000Y-99891000D02*
G01*
X153410000Y-99891000D01*
X153413000Y-99892000D01*
X153415000Y-99892000D01*
X153418000Y-99893000D01*
X153420000Y-99894000D01*
X153423000Y-99895000D01*
X153425000Y-99897000D01*
X153427000Y-99898000D01*
X153429000Y-99900000D01*
X153431000Y-99901000D01*
X153433000Y-99903000D01*
X153435000Y-99905000D01*
X153437000Y-99907000D01*
X153439000Y-99909000D01*
X153440000Y-99911000D01*
X153442000Y-99913000D01*
X153443000Y-99915000D01*
X153445000Y-99917000D01*
X153446000Y-99920000D01*
X153447000Y-99922000D01*
X153448000Y-99925000D01*
X153448000Y-99927000D01*
X153449000Y-99930000D01*
X153449000Y-99932000D01*
X153450000Y-99935000D01*
X153450000Y-99937000D01*
X153450000Y-99940000D01*
X153450000Y-100440000D01*
X153450000Y-100443000D01*
X153450000Y-100445000D01*
X153449000Y-100448000D01*
X153449000Y-100450000D01*
X153448000Y-100453000D01*
X153448000Y-100455000D01*
X153447000Y-100458000D01*
X153446000Y-100460000D01*
X153445000Y-100463000D01*
X153443000Y-100465000D01*
X153442000Y-100467000D01*
X153440000Y-100469000D01*
X153439000Y-100471000D01*
X153437000Y-100473000D01*
X153435000Y-100475000D01*
X153433000Y-100477000D01*
X153431000Y-100479000D01*
X153429000Y-100480000D01*
X153427000Y-100482000D01*
X153425000Y-100483000D01*
X153423000Y-100485000D01*
X153420000Y-100486000D01*
X153418000Y-100487000D01*
X153415000Y-100488000D01*
X153413000Y-100488000D01*
X153410000Y-100489000D01*
X153408000Y-100489000D01*
X153405000Y-100490000D01*
X153403000Y-100490000D01*
X153400000Y-100490000D01*
X153200000Y-100490000D01*
X153197000Y-100490000D01*
X153195000Y-100490000D01*
X153192000Y-100489000D01*
X153190000Y-100489000D01*
X153187000Y-100488000D01*
X153185000Y-100488000D01*
X153182000Y-100487000D01*
X153180000Y-100486000D01*
X153177000Y-100485000D01*
X153175000Y-100483000D01*
X153173000Y-100482000D01*
X153171000Y-100480000D01*
X153169000Y-100479000D01*
X153167000Y-100477000D01*
X153165000Y-100475000D01*
X153163000Y-100473000D01*
X153161000Y-100471000D01*
X153160000Y-100469000D01*
X153158000Y-100467000D01*
X153157000Y-100465000D01*
X153155000Y-100463000D01*
X153154000Y-100460000D01*
X153153000Y-100458000D01*
X153152000Y-100455000D01*
X153152000Y-100453000D01*
X153151000Y-100450000D01*
X153151000Y-100448000D01*
X153150000Y-100445000D01*
X153150000Y-100443000D01*
X153150000Y-100440000D01*
X153150000Y-99940000D01*
X153150000Y-99937000D01*
X153150000Y-99935000D01*
X153151000Y-99932000D01*
X153151000Y-99930000D01*
X153152000Y-99927000D01*
X153152000Y-99925000D01*
X153153000Y-99922000D01*
X153154000Y-99920000D01*
X153155000Y-99917000D01*
X153157000Y-99915000D01*
X153158000Y-99913000D01*
X153160000Y-99911000D01*
X153161000Y-99909000D01*
X153163000Y-99907000D01*
X153165000Y-99905000D01*
X153167000Y-99903000D01*
X153169000Y-99901000D01*
X153171000Y-99900000D01*
X153173000Y-99898000D01*
X153175000Y-99897000D01*
X153177000Y-99895000D01*
X153180000Y-99894000D01*
X153182000Y-99893000D01*
X153185000Y-99892000D01*
X153187000Y-99892000D01*
X153190000Y-99891000D01*
X153192000Y-99891000D01*
X153195000Y-99890000D01*
X153197000Y-99890000D01*
X153200000Y-99890000D01*
X153400000Y-99890000D01*
X153403000Y-99890000D01*
X153405000Y-99890000D01*
X153408000Y-99891000D01*
G37*
X153408000Y-101791000D02*
X153410000Y-101791000D01*
X153413000Y-101792000D01*
X153415000Y-101792000D01*
X153418000Y-101793000D01*
X153420000Y-101794000D01*
X153423000Y-101795000D01*
X153425000Y-101797000D01*
X153427000Y-101798000D01*
X153429000Y-101800000D01*
X153431000Y-101801000D01*
X153433000Y-101803000D01*
X153435000Y-101805000D01*
X153437000Y-101807000D01*
X153439000Y-101809000D01*
X153440000Y-101811000D01*
X153442000Y-101813000D01*
X153443000Y-101815000D01*
X153445000Y-101817000D01*
X153446000Y-101820000D01*
X153447000Y-101822000D01*
X153448000Y-101825000D01*
X153448000Y-101827000D01*
X153449000Y-101830000D01*
X153449000Y-101832000D01*
X153450000Y-101835000D01*
X153450000Y-101837000D01*
X153450000Y-101840000D01*
X153450000Y-102340000D01*
X153450000Y-102343000D01*
X153450000Y-102345000D01*
X153449000Y-102348000D01*
X153449000Y-102350000D01*
X153448000Y-102353000D01*
X153448000Y-102355000D01*
X153447000Y-102358000D01*
X153446000Y-102360000D01*
X153445000Y-102363000D01*
X153443000Y-102365000D01*
X153442000Y-102367000D01*
X153440000Y-102369000D01*
X153439000Y-102371000D01*
X153437000Y-102373000D01*
X153435000Y-102375000D01*
X153433000Y-102377000D01*
X153431000Y-102379000D01*
X153429000Y-102380000D01*
X153427000Y-102382000D01*
X153425000Y-102383000D01*
X153423000Y-102385000D01*
X153420000Y-102386000D01*
X153418000Y-102387000D01*
X153415000Y-102388000D01*
X153413000Y-102388000D01*
X153410000Y-102389000D01*
X153408000Y-102389000D01*
X153405000Y-102390000D01*
X153403000Y-102390000D01*
X153400000Y-102390000D01*
X153200000Y-102390000D01*
X153197000Y-102390000D01*
X153195000Y-102390000D01*
X153192000Y-102389000D01*
X153190000Y-102389000D01*
X153187000Y-102388000D01*
X153185000Y-102388000D01*
X153182000Y-102387000D01*
X153180000Y-102386000D01*
X153177000Y-102385000D01*
X153175000Y-102383000D01*
X153173000Y-102382000D01*
X153171000Y-102380000D01*
X153169000Y-102379000D01*
X153167000Y-102377000D01*
X153165000Y-102375000D01*
X153163000Y-102373000D01*
X153161000Y-102371000D01*
X153160000Y-102369000D01*
X153158000Y-102367000D01*
X153157000Y-102365000D01*
X153155000Y-102363000D01*
X153154000Y-102360000D01*
X153153000Y-102358000D01*
X153152000Y-102355000D01*
X153152000Y-102353000D01*
X153151000Y-102350000D01*
X153151000Y-102348000D01*
X153150000Y-102345000D01*
X153150000Y-102343000D01*
X153150000Y-102340000D01*
X153150000Y-101840000D01*
X153150000Y-101837000D01*
X153150000Y-101835000D01*
X153151000Y-101832000D01*
X153151000Y-101830000D01*
X153152000Y-101827000D01*
X153152000Y-101825000D01*
X153153000Y-101822000D01*
X153154000Y-101820000D01*
X153155000Y-101817000D01*
X153157000Y-101815000D01*
X153158000Y-101813000D01*
X153160000Y-101811000D01*
X153161000Y-101809000D01*
X153163000Y-101807000D01*
X153165000Y-101805000D01*
X153167000Y-101803000D01*
X153169000Y-101801000D01*
X153171000Y-101800000D01*
X153173000Y-101798000D01*
X153175000Y-101797000D01*
X153177000Y-101795000D01*
X153180000Y-101794000D01*
X153182000Y-101793000D01*
X153185000Y-101792000D01*
X153187000Y-101792000D01*
X153190000Y-101791000D01*
X153192000Y-101791000D01*
X153195000Y-101790000D01*
X153197000Y-101790000D01*
X153200000Y-101790000D01*
X153400000Y-101790000D01*
X153403000Y-101790000D01*
X153405000Y-101790000D01*
X153408000Y-101791000D01*
G36*
X153408000Y-101791000D02*
G01*
X153410000Y-101791000D01*
X153413000Y-101792000D01*
X153415000Y-101792000D01*
X153418000Y-101793000D01*
X153420000Y-101794000D01*
X153423000Y-101795000D01*
X153425000Y-101797000D01*
X153427000Y-101798000D01*
X153429000Y-101800000D01*
X153431000Y-101801000D01*
X153433000Y-101803000D01*
X153435000Y-101805000D01*
X153437000Y-101807000D01*
X153439000Y-101809000D01*
X153440000Y-101811000D01*
X153442000Y-101813000D01*
X153443000Y-101815000D01*
X153445000Y-101817000D01*
X153446000Y-101820000D01*
X153447000Y-101822000D01*
X153448000Y-101825000D01*
X153448000Y-101827000D01*
X153449000Y-101830000D01*
X153449000Y-101832000D01*
X153450000Y-101835000D01*
X153450000Y-101837000D01*
X153450000Y-101840000D01*
X153450000Y-102340000D01*
X153450000Y-102343000D01*
X153450000Y-102345000D01*
X153449000Y-102348000D01*
X153449000Y-102350000D01*
X153448000Y-102353000D01*
X153448000Y-102355000D01*
X153447000Y-102358000D01*
X153446000Y-102360000D01*
X153445000Y-102363000D01*
X153443000Y-102365000D01*
X153442000Y-102367000D01*
X153440000Y-102369000D01*
X153439000Y-102371000D01*
X153437000Y-102373000D01*
X153435000Y-102375000D01*
X153433000Y-102377000D01*
X153431000Y-102379000D01*
X153429000Y-102380000D01*
X153427000Y-102382000D01*
X153425000Y-102383000D01*
X153423000Y-102385000D01*
X153420000Y-102386000D01*
X153418000Y-102387000D01*
X153415000Y-102388000D01*
X153413000Y-102388000D01*
X153410000Y-102389000D01*
X153408000Y-102389000D01*
X153405000Y-102390000D01*
X153403000Y-102390000D01*
X153400000Y-102390000D01*
X153200000Y-102390000D01*
X153197000Y-102390000D01*
X153195000Y-102390000D01*
X153192000Y-102389000D01*
X153190000Y-102389000D01*
X153187000Y-102388000D01*
X153185000Y-102388000D01*
X153182000Y-102387000D01*
X153180000Y-102386000D01*
X153177000Y-102385000D01*
X153175000Y-102383000D01*
X153173000Y-102382000D01*
X153171000Y-102380000D01*
X153169000Y-102379000D01*
X153167000Y-102377000D01*
X153165000Y-102375000D01*
X153163000Y-102373000D01*
X153161000Y-102371000D01*
X153160000Y-102369000D01*
X153158000Y-102367000D01*
X153157000Y-102365000D01*
X153155000Y-102363000D01*
X153154000Y-102360000D01*
X153153000Y-102358000D01*
X153152000Y-102355000D01*
X153152000Y-102353000D01*
X153151000Y-102350000D01*
X153151000Y-102348000D01*
X153150000Y-102345000D01*
X153150000Y-102343000D01*
X153150000Y-102340000D01*
X153150000Y-101840000D01*
X153150000Y-101837000D01*
X153150000Y-101835000D01*
X153151000Y-101832000D01*
X153151000Y-101830000D01*
X153152000Y-101827000D01*
X153152000Y-101825000D01*
X153153000Y-101822000D01*
X153154000Y-101820000D01*
X153155000Y-101817000D01*
X153157000Y-101815000D01*
X153158000Y-101813000D01*
X153160000Y-101811000D01*
X153161000Y-101809000D01*
X153163000Y-101807000D01*
X153165000Y-101805000D01*
X153167000Y-101803000D01*
X153169000Y-101801000D01*
X153171000Y-101800000D01*
X153173000Y-101798000D01*
X153175000Y-101797000D01*
X153177000Y-101795000D01*
X153180000Y-101794000D01*
X153182000Y-101793000D01*
X153185000Y-101792000D01*
X153187000Y-101792000D01*
X153190000Y-101791000D01*
X153192000Y-101791000D01*
X153195000Y-101790000D01*
X153197000Y-101790000D01*
X153200000Y-101790000D01*
X153400000Y-101790000D01*
X153403000Y-101790000D01*
X153405000Y-101790000D01*
X153408000Y-101791000D01*
G37*
X153258000Y-100641000D02*
X153260000Y-100641000D01*
X153263000Y-100642000D01*
X153265000Y-100642000D01*
X153268000Y-100643000D01*
X153270000Y-100644000D01*
X153273000Y-100645000D01*
X153275000Y-100647000D01*
X153277000Y-100648000D01*
X153279000Y-100650000D01*
X153281000Y-100651000D01*
X153283000Y-100653000D01*
X153285000Y-100655000D01*
X153287000Y-100657000D01*
X153289000Y-100659000D01*
X153290000Y-100661000D01*
X153292000Y-100663000D01*
X153293000Y-100665000D01*
X153295000Y-100667000D01*
X153296000Y-100670000D01*
X153297000Y-100672000D01*
X153298000Y-100675000D01*
X153298000Y-100677000D01*
X153299000Y-100680000D01*
X153299000Y-100682000D01*
X153300000Y-100685000D01*
X153300000Y-100687000D01*
X153300000Y-100690000D01*
X153300000Y-101590000D01*
X153300000Y-101593000D01*
X153300000Y-101595000D01*
X153299000Y-101598000D01*
X153299000Y-101600000D01*
X153298000Y-101603000D01*
X153298000Y-101605000D01*
X153297000Y-101608000D01*
X153296000Y-101610000D01*
X153295000Y-101613000D01*
X153293000Y-101615000D01*
X153292000Y-101617000D01*
X153290000Y-101619000D01*
X153289000Y-101621000D01*
X153287000Y-101623000D01*
X153285000Y-101625000D01*
X153283000Y-101627000D01*
X153281000Y-101629000D01*
X153279000Y-101630000D01*
X153277000Y-101632000D01*
X153275000Y-101633000D01*
X153273000Y-101635000D01*
X153270000Y-101636000D01*
X153268000Y-101637000D01*
X153265000Y-101638000D01*
X153263000Y-101638000D01*
X153260000Y-101639000D01*
X153258000Y-101639000D01*
X153255000Y-101640000D01*
X153253000Y-101640000D01*
X153250000Y-101640000D01*
X151750000Y-101640000D01*
X151747000Y-101640000D01*
X151745000Y-101640000D01*
X151742000Y-101639000D01*
X151740000Y-101639000D01*
X151737000Y-101638000D01*
X151735000Y-101638000D01*
X151732000Y-101637000D01*
X151730000Y-101636000D01*
X151727000Y-101635000D01*
X151725000Y-101633000D01*
X151723000Y-101632000D01*
X151721000Y-101630000D01*
X151719000Y-101629000D01*
X151717000Y-101627000D01*
X151715000Y-101625000D01*
X151713000Y-101623000D01*
X151711000Y-101621000D01*
X151710000Y-101619000D01*
X151708000Y-101617000D01*
X151707000Y-101615000D01*
X151705000Y-101613000D01*
X151704000Y-101610000D01*
X151703000Y-101608000D01*
X151702000Y-101605000D01*
X151702000Y-101603000D01*
X151701000Y-101600000D01*
X151701000Y-101598000D01*
X151700000Y-101595000D01*
X151700000Y-101593000D01*
X151700000Y-101590000D01*
X151700000Y-100690000D01*
X151700000Y-100687000D01*
X151700000Y-100685000D01*
X151701000Y-100682000D01*
X151701000Y-100680000D01*
X151702000Y-100677000D01*
X151702000Y-100675000D01*
X151703000Y-100672000D01*
X151704000Y-100670000D01*
X151705000Y-100667000D01*
X151707000Y-100665000D01*
X151708000Y-100663000D01*
X151710000Y-100661000D01*
X151711000Y-100659000D01*
X151713000Y-100657000D01*
X151715000Y-100655000D01*
X151717000Y-100653000D01*
X151719000Y-100651000D01*
X151721000Y-100650000D01*
X151723000Y-100648000D01*
X151725000Y-100647000D01*
X151727000Y-100645000D01*
X151730000Y-100644000D01*
X151732000Y-100643000D01*
X151735000Y-100642000D01*
X151737000Y-100642000D01*
X151740000Y-100641000D01*
X151742000Y-100641000D01*
X151745000Y-100640000D01*
X151747000Y-100640000D01*
X151750000Y-100640000D01*
X153250000Y-100640000D01*
X153253000Y-100640000D01*
X153255000Y-100640000D01*
X153258000Y-100641000D01*
G36*
X153258000Y-100641000D02*
G01*
X153260000Y-100641000D01*
X153263000Y-100642000D01*
X153265000Y-100642000D01*
X153268000Y-100643000D01*
X153270000Y-100644000D01*
X153273000Y-100645000D01*
X153275000Y-100647000D01*
X153277000Y-100648000D01*
X153279000Y-100650000D01*
X153281000Y-100651000D01*
X153283000Y-100653000D01*
X153285000Y-100655000D01*
X153287000Y-100657000D01*
X153289000Y-100659000D01*
X153290000Y-100661000D01*
X153292000Y-100663000D01*
X153293000Y-100665000D01*
X153295000Y-100667000D01*
X153296000Y-100670000D01*
X153297000Y-100672000D01*
X153298000Y-100675000D01*
X153298000Y-100677000D01*
X153299000Y-100680000D01*
X153299000Y-100682000D01*
X153300000Y-100685000D01*
X153300000Y-100687000D01*
X153300000Y-100690000D01*
X153300000Y-101590000D01*
X153300000Y-101593000D01*
X153300000Y-101595000D01*
X153299000Y-101598000D01*
X153299000Y-101600000D01*
X153298000Y-101603000D01*
X153298000Y-101605000D01*
X153297000Y-101608000D01*
X153296000Y-101610000D01*
X153295000Y-101613000D01*
X153293000Y-101615000D01*
X153292000Y-101617000D01*
X153290000Y-101619000D01*
X153289000Y-101621000D01*
X153287000Y-101623000D01*
X153285000Y-101625000D01*
X153283000Y-101627000D01*
X153281000Y-101629000D01*
X153279000Y-101630000D01*
X153277000Y-101632000D01*
X153275000Y-101633000D01*
X153273000Y-101635000D01*
X153270000Y-101636000D01*
X153268000Y-101637000D01*
X153265000Y-101638000D01*
X153263000Y-101638000D01*
X153260000Y-101639000D01*
X153258000Y-101639000D01*
X153255000Y-101640000D01*
X153253000Y-101640000D01*
X153250000Y-101640000D01*
X151750000Y-101640000D01*
X151747000Y-101640000D01*
X151745000Y-101640000D01*
X151742000Y-101639000D01*
X151740000Y-101639000D01*
X151737000Y-101638000D01*
X151735000Y-101638000D01*
X151732000Y-101637000D01*
X151730000Y-101636000D01*
X151727000Y-101635000D01*
X151725000Y-101633000D01*
X151723000Y-101632000D01*
X151721000Y-101630000D01*
X151719000Y-101629000D01*
X151717000Y-101627000D01*
X151715000Y-101625000D01*
X151713000Y-101623000D01*
X151711000Y-101621000D01*
X151710000Y-101619000D01*
X151708000Y-101617000D01*
X151707000Y-101615000D01*
X151705000Y-101613000D01*
X151704000Y-101610000D01*
X151703000Y-101608000D01*
X151702000Y-101605000D01*
X151702000Y-101603000D01*
X151701000Y-101600000D01*
X151701000Y-101598000D01*
X151700000Y-101595000D01*
X151700000Y-101593000D01*
X151700000Y-101590000D01*
X151700000Y-100690000D01*
X151700000Y-100687000D01*
X151700000Y-100685000D01*
X151701000Y-100682000D01*
X151701000Y-100680000D01*
X151702000Y-100677000D01*
X151702000Y-100675000D01*
X151703000Y-100672000D01*
X151704000Y-100670000D01*
X151705000Y-100667000D01*
X151707000Y-100665000D01*
X151708000Y-100663000D01*
X151710000Y-100661000D01*
X151711000Y-100659000D01*
X151713000Y-100657000D01*
X151715000Y-100655000D01*
X151717000Y-100653000D01*
X151719000Y-100651000D01*
X151721000Y-100650000D01*
X151723000Y-100648000D01*
X151725000Y-100647000D01*
X151727000Y-100645000D01*
X151730000Y-100644000D01*
X151732000Y-100643000D01*
X151735000Y-100642000D01*
X151737000Y-100642000D01*
X151740000Y-100641000D01*
X151742000Y-100641000D01*
X151745000Y-100640000D01*
X151747000Y-100640000D01*
X151750000Y-100640000D01*
X153250000Y-100640000D01*
X153253000Y-100640000D01*
X153255000Y-100640000D01*
X153258000Y-100641000D01*
G37*
%TD*%
D17*
%TO.C,R7*%
X153300000Y-103150000D03*
X153300000Y-104170000D03*
%TD*%
D18*
%TO.C,C27*%
X133630000Y-106785000D03*
X133630000Y-107425000D03*
%TD*%
D19*
%TO.C,D2*%
X142240000Y-93887500D03*
X142240000Y-90587500D03*
%TD*%
D20*
%TO.C,L5*%
X136837500Y-108420000D03*
X135262500Y-108420000D03*
%TD*%
D21*
%TO.C,C14*%
X127170000Y-84290000D03*
X127170000Y-83330000D03*
%TD*%
D22*
%TO.C,C23*%
X129992756Y-104042801D03*
X129352756Y-104042801D03*
%TD*%
D23*
%TO.C,Y2*%
X127466930Y-106061590D03*
X127466930Y-107461590D03*
X128566930Y-107461590D03*
X128566930Y-106061590D03*
%TD*%
D24*
%TO.C,Q1*%
X151600000Y-92027500D03*
X151600000Y-90127500D03*
X149480000Y-91077500D03*
%TD*%
D25*
%TO.C,C7*%
X136870000Y-85145000D03*
X136870000Y-83595000D03*
%TD*%
%TO.C,C10*%
X133910000Y-85145000D03*
X133910000Y-83595000D03*
%TD*%
D26*
%TO.C,L2*%
X128998670Y-102983590D03*
X128428680Y-102983590D03*
%TD*%
D27*
%TO.C,R11*%
X145290000Y-104890000D03*
X145290000Y-103870000D03*
%TD*%
D28*
%TO.C,C4*%
X144350000Y-83370000D03*
X144350000Y-84330000D03*
%TD*%
D21*
%TO.C,C15*%
X125240000Y-84270000D03*
X125240000Y-83310000D03*
%TD*%
D29*
%TO.C,R5*%
X129352756Y-101462801D03*
X129992756Y-101462801D03*
%TD*%
D30*
%TO.C,L4*%
X136400000Y-90900000D03*
X133400000Y-90900000D03*
%TD*%
D31*
%TO.C,U3*%
X136950000Y-104980000D03*
X136950000Y-104580000D03*
X136950000Y-104180000D03*
X136950000Y-103780000D03*
X136950000Y-103380000D03*
X136950000Y-102980000D03*
X136950000Y-102580000D03*
X136950000Y-102180000D03*
X136950000Y-101780000D03*
X136950000Y-101380000D03*
X136950000Y-100980000D03*
X136950000Y-100580000D03*
D32*
X136200000Y-99830000D03*
X135800000Y-99830000D03*
X135400000Y-99830000D03*
X135000000Y-99830000D03*
X134600000Y-99830000D03*
X134200000Y-99830000D03*
X133800000Y-99830000D03*
X133400000Y-99830000D03*
X133000000Y-99830000D03*
X132600000Y-99830000D03*
X132200000Y-99830000D03*
X131800000Y-99830000D03*
D31*
X131050000Y-100580000D03*
X131050000Y-100980000D03*
X131050000Y-101380000D03*
X131050000Y-101780000D03*
X131050000Y-102180000D03*
X131050000Y-102580000D03*
X131050000Y-102980000D03*
X131050000Y-103380000D03*
X131050000Y-103780000D03*
X131050000Y-104180000D03*
X131050000Y-104580000D03*
X131050000Y-104980000D03*
D32*
X131800000Y-105730000D03*
X132200000Y-105730000D03*
X132600000Y-105730000D03*
X133000000Y-105730000D03*
X133400000Y-105730000D03*
X133800000Y-105730000D03*
X134200000Y-105730000D03*
X134600000Y-105730000D03*
X135000000Y-105730000D03*
X135400000Y-105730000D03*
X135800000Y-105730000D03*
X136200000Y-105730000D03*
D33*
X134000000Y-102780000D03*
%TD*%
D34*
%TO.C,U4*%
X163370000Y-93030000D03*
D35*
X163370000Y-92380000D03*
D36*
X162290000Y-92380000D03*
D37*
X162290000Y-93030000D03*
D38*
X162830000Y-92705000D03*
%TD*%
D39*
%TO.C,R9*%
X163310000Y-94010000D03*
X164330000Y-94010000D03*
%TD*%
D40*
%TO.C,J2*%
X166950000Y-77250000D03*
D41*
X166950000Y-75230000D03*
D42*
X166950000Y-74000000D03*
D40*
X166950000Y-76250000D03*
D41*
X166950000Y-78270000D03*
D42*
X166950000Y-79500000D03*
D43*
X168170000Y-82325000D03*
D44*
X171770000Y-82325000D03*
D43*
X168170000Y-71175000D03*
D44*
X171770000Y-71145000D03*
%TD*%
D45*
%TO.C,FB1*%
X133660000Y-109205000D03*
X133660000Y-108565000D03*
%TD*%
D28*
%TO.C,C13*%
X126200000Y-83340000D03*
X126200000Y-84300000D03*
%TD*%
D25*
%TO.C,C9*%
X135390000Y-85145000D03*
X135390000Y-83595000D03*
%TD*%
D17*
%TO.C,R15*%
X138110000Y-91720000D03*
X138110000Y-92740000D03*
%TD*%
D46*
%TO.C,J1*%
X142000000Y-114040000D03*
D47*
X142000000Y-111500000D03*
X142000000Y-108960000D03*
%TD*%
D48*
%TO.C,U1*%
X164570000Y-80595000D03*
D49*
X164570000Y-79945000D03*
%TD*%
D18*
%TO.C,C21*%
X137960000Y-100570000D03*
X137960000Y-101210000D03*
%TD*%
D27*
%TO.C,R8*%
X152070000Y-99042500D03*
X152070000Y-98022500D03*
%TD*%
D21*
%TO.C,C12*%
X120690000Y-84270000D03*
X120690000Y-83310000D03*
%TD*%
D17*
%TO.C,R18*%
X150600000Y-100690000D03*
X150600000Y-101710000D03*
%TD*%
D28*
%TO.C,C35*%
X122400000Y-83300000D03*
X122400000Y-84260000D03*
%TD*%
D50*
%TO.C,C38*%
X142260000Y-87602500D03*
X142260000Y-89152500D03*
%TD*%
D51*
%TO.C,C29*%
X154650000Y-105500000D03*
X155610000Y-105500000D03*
%TD*%
D52*
%TO.C,D4*%
X133250000Y-87500000D03*
X136550000Y-87500000D03*
%TD*%
D25*
%TO.C,C11*%
X132450000Y-85155000D03*
X132450000Y-83605000D03*
%TD*%
D21*
%TO.C,C34*%
X123360000Y-84260000D03*
X123360000Y-83300000D03*
%TD*%
D26*
%TO.C,C1*%
X129539270Y-103467430D03*
X130109260Y-103467430D03*
%TD*%
D53*
%TO.C,J7*%
X120650000Y-81870000D03*
X121150000Y-81870000D03*
X121650000Y-81870000D03*
X122150000Y-81870000D03*
X122650000Y-81870000D03*
X123150000Y-81870000D03*
X123650000Y-81870000D03*
X124150000Y-81870000D03*
X124650000Y-81870000D03*
X125150000Y-81870000D03*
X125650000Y-81870000D03*
X126150000Y-81870000D03*
X126650000Y-81870000D03*
X127150000Y-81870000D03*
X127650000Y-81870000D03*
X128150000Y-81870000D03*
X128650000Y-81870000D03*
X129150000Y-81870000D03*
X129650000Y-81870000D03*
X130150000Y-81870000D03*
X130650000Y-81870000D03*
X131150000Y-81870000D03*
X131650000Y-81870000D03*
X132150000Y-81870000D03*
X132650000Y-81870000D03*
X133150000Y-81870000D03*
X133650000Y-81870000D03*
X134150000Y-81870000D03*
X134650000Y-81870000D03*
X135150000Y-81870000D03*
X135650000Y-81870000D03*
X136150000Y-81870000D03*
X136650000Y-81870000D03*
X137150000Y-81870000D03*
X137650000Y-81870000D03*
X138150000Y-81870000D03*
X138650000Y-81870000D03*
X139150000Y-81870000D03*
X139650000Y-81870000D03*
X140150000Y-81870000D03*
X140650000Y-81870000D03*
X141150000Y-81870000D03*
X141650000Y-81870000D03*
X142150000Y-81870000D03*
X142650000Y-81870000D03*
X143150000Y-81870000D03*
X143650000Y-81870000D03*
X144150000Y-81870000D03*
X144650000Y-81870000D03*
X145150000Y-81870000D03*
D54*
X119650000Y-79370000D03*
X146150000Y-79370000D03*
%TD*%
D55*
%TO.C,U2*%
X152000000Y-101140000D03*
%TD*%
D46*
%TO.C,J6*%
X151720000Y-113490000D03*
D47*
X149180000Y-113490000D03*
%TD*%
D26*
%TO.C,L3*%
X127342840Y-102983590D03*
X126772850Y-102983590D03*
%TD*%
D22*
%TO.C,C22*%
X136810000Y-106750000D03*
X136170000Y-106750000D03*
%TD*%
D27*
%TO.C,R1*%
X151540000Y-88547500D03*
X151540000Y-87527500D03*
%TD*%
D51*
%TO.C,C32*%
X148180000Y-103380000D03*
X149140000Y-103380000D03*
%TD*%
D45*
%TO.C,C28*%
X132910000Y-109215000D03*
X132910000Y-108575000D03*
%TD*%
D19*
%TO.C,D3*%
X144640000Y-93837500D03*
X144640000Y-90537500D03*
%TD*%
D45*
%TO.C,C20*%
X130037756Y-107002801D03*
X130037756Y-106362801D03*
%TD*%
D56*
%TO.C,C2*%
X127894850Y-102977500D03*
X127894850Y-102407510D03*
%TD*%
D17*
%TO.C,R6*%
X153070000Y-98012500D03*
X153070000Y-99032500D03*
%TD*%
%TO.C,R2*%
X164830000Y-77810000D03*
X164830000Y-78830000D03*
%TD*%
D26*
%TO.C,L1*%
X130101150Y-102983590D03*
X129531160Y-102983590D03*
%TD*%
D56*
%TO.C,C8*%
X126265920Y-103112000D03*
X126265920Y-103681990D03*
%TD*%
D57*
%TO.C,Q2*%
X137665000Y-96260000D03*
X137665000Y-94360000D03*
X135790000Y-95310000D03*
%TD*%
D58*
%TO.C,R17*%
X146500000Y-108400000D03*
X145480000Y-108400000D03*
%TD*%
D39*
%TO.C,R12*%
X147370000Y-108000000D03*
X148390000Y-108000000D03*
%TD*%
D59*
%TO.C,U5*%
X147130000Y-106160000D03*
X147130000Y-105660000D03*
X147130000Y-105160000D03*
X147630000Y-106160000D03*
X147630000Y-105660000D03*
X147630000Y-105160000D03*
X148130000Y-106160000D03*
X148130000Y-105660000D03*
X148130000Y-105160000D03*
%TD*%
D50*
%TO.C,C5*%
X139810000Y-83635000D03*
X139810000Y-85185000D03*
%TD*%
D27*
%TO.C,R16*%
X138120000Y-90850000D03*
X138120000Y-89830000D03*
%TD*%
D29*
%TO.C,C19*%
X134430000Y-106780000D03*
X135070000Y-106780000D03*
%TD*%
D19*
%TO.C,D1*%
X147040000Y-93837500D03*
X147040000Y-90537500D03*
%TD*%
D46*
%TO.C,J5*%
X125860000Y-92860000D03*
D47*
X123320000Y-92860000D03*
X120780000Y-92860000D03*
%TD*%
D51*
%TO.C,C31*%
X146290000Y-103320000D03*
X147250000Y-103320000D03*
%TD*%
D17*
%TO.C,R13*%
X149930000Y-105190000D03*
X149930000Y-106210000D03*
%TD*%
D39*
%TO.C,R14*%
X143120000Y-95317500D03*
X144140000Y-95317500D03*
%TD*%
D28*
%TO.C,C16*%
X154280000Y-99600000D03*
X154280000Y-100560000D03*
%TD*%
D25*
%TO.C,C6*%
X138330000Y-85175000D03*
X138330000Y-83625000D03*
%TD*%
D17*
%TO.C,R10*%
X145300000Y-105760000D03*
X145300000Y-106780000D03*
%TD*%
D50*
%TO.C,C37*%
X147040000Y-87562500D03*
X147040000Y-89112500D03*
%TD*%
D21*
%TO.C,C26*%
X138060000Y-108440000D03*
X138060000Y-107480000D03*
%TD*%
D25*
%TO.C,C41*%
X138160000Y-88225000D03*
X138160000Y-86675000D03*
%TD*%
D17*
%TO.C,R3*%
X148940000Y-87527500D03*
X148940000Y-88547500D03*
%TD*%
D21*
%TO.C,C18*%
X154290000Y-102480000D03*
X154290000Y-101520000D03*
%TD*%
%TO.C,C40*%
X139800000Y-96060000D03*
X139800000Y-95100000D03*
%TD*%
D60*
%TO.C,J3*%
X166250000Y-98970000D03*
X166250000Y-100170000D03*
D61*
X162650000Y-101270000D03*
X162650000Y-97870000D03*
%TD*%
D22*
%TO.C,C17*%
X129992756Y-102162801D03*
X129352756Y-102162801D03*
%TD*%
D51*
%TO.C,C24*%
X161400000Y-94010000D03*
X162360000Y-94010000D03*
%TD*%
D62*
%TO.C,L6*%
X150540000Y-96637500D03*
X150540000Y-93637500D03*
%TD*%
D28*
%TO.C,C33*%
X124300000Y-83300000D03*
X124300000Y-84260000D03*
%TD*%
%TO.C,C3*%
X145350000Y-83370000D03*
X145350000Y-84330000D03*
%TD*%
D63*
%TO.C,U6*%
X153660000Y-109165000D03*
X155560000Y-109165000D03*
X154610000Y-106890000D03*
%TD*%
D64*
%TO.C,C39*%
X147415000Y-95437500D03*
X145865000Y-95437500D03*
%TD*%
D65*
%TO.C,C30*%
X155450000Y-110650000D03*
X154490000Y-110650000D03*
%TD*%
D27*
%TO.C,R4*%
X164870000Y-76040000D03*
X164870000Y-75020000D03*
%TD*%
D18*
%TO.C,C25*%
X132600000Y-98155000D03*
X132600000Y-98795000D03*
%TD*%
D51*
%TO.C,C36*%
X146280000Y-97137500D03*
X147240000Y-97137500D03*
%TD*%
D46*
%TO.C,J4*%
X137930000Y-72450000D03*
D47*
X135390000Y-72450000D03*
X132850000Y-72450000D03*
X130310000Y-72450000D03*
%TD*%
%LPD*%
M02*
