%TF.GenerationSoftware,KiCad,Pcbnew,8.0.3*%
%TF.CreationDate,2026-06-18T17:15:29-07:00*%
%TF.ProjectId,50p_spectra6_4,3530705f-7370-4656-9374-7261365f342e,rev?*%
%TF.SameCoordinates,Original*%
%TF.FileFunction,Paste,Top*%
%TF.FilePolarity,Positive*%
%FSLAX46Y46*%
G04 Gerber Fmt 4.6, Leading zero omitted, Abs format (unit mm)*
G04 Created by KiCad (PCBNEW 8.0.3) date 2026-06-18 17:15:29*
%MOMM*%
%LPD*%
G01*
G04 APERTURE LIST*
G04 Aperture macros list*
%AMRoundRect*
0 Rectangle with rounded corners*
0 $1 Rounding radius*
0 $2 $3 $4 $5 $6 $7 $8 $9 X,Y pos of 4 corners*
0 Add a 4 corners polygon primitive as box body*
4,1,4,$2,$3,$4,$5,$6,$7,$8,$9,$2,$3,0*
0 Add four circle primitives for the rounded corners*
1,1,$1+$1,$2,$3*
1,1,$1+$1,$4,$5*
1,1,$1+$1,$6,$7*
1,1,$1+$1,$8,$9*
0 Add four rect primitives between the rounded corners*
20,1,$1+$1,$2,$3,$4,$5,0*
20,1,$1+$1,$4,$5,$6,$7,0*
20,1,$1+$1,$6,$7,$8,$9,0*
20,1,$1+$1,$8,$9,$2,$3,0*%
%AMRotRect*
0 Rectangle, with rotation*
0 The origin of the aperture is its center*
0 $1 length*
0 $2 width*
0 $3 Rotation angle, in degrees counterclockwise*
0 Add horizontal line*
21,1,$1,$2,0,0,$3*%
%AMFreePoly0*
4,1,5,0.110000,-0.125000,-0.110000,-0.125000,-0.110000,0.125000,0.360000,0.125000,0.110000,-0.125000,0.110000,-0.125000,$1*%
%AMFreePoly1*
4,1,6,0.290000,-0.055000,0.290000,-0.125000,-0.110000,-0.125000,-0.110000,0.125000,0.110000,0.125000,0.290000,-0.055000,0.290000,-0.055000,$1*%
%AMFreePoly2*
4,1,7,0.110000,-0.125000,-0.110000,-0.125000,-0.290000,-0.125000,-0.290000,-0.055000,-0.110000,0.125000,0.110000,0.125000,0.110000,-0.125000,0.110000,-0.125000,$1*%
%AMFreePoly3*
4,1,6,0.110000,-0.125000,-0.110000,-0.125000,-0.290000,0.055000,-0.290000,0.125000,0.110000,0.125000,0.110000,-0.125000,0.110000,-0.125000,$1*%
%AMFreePoly4*
4,1,18,-0.125000,0.225000,-0.123097,0.234567,-0.117678,0.242678,-0.109567,0.248097,-0.100000,0.250000,0.062500,0.250000,0.125000,0.187500,0.125000,-0.225000,0.123097,-0.234567,0.117678,-0.242678,0.109567,-0.248097,0.100000,-0.250000,-0.100000,-0.250000,-0.109567,-0.248097,-0.117678,-0.242678,-0.123097,-0.234567,-0.125000,-0.225000,-0.125000,0.225000,-0.125000,0.225000,$1*%
%AMFreePoly5*
4,1,153,0.406581,1.254743,0.408810,1.254000,0.410000,1.254000,0.411581,1.253743,0.413810,1.253000,0.415000,1.253000,0.416581,1.252743,0.419581,1.251743,0.420236,1.251472,0.421920,1.250630,0.424581,1.249743,0.426536,1.248536,0.427964,1.247108,0.429236,1.246472,0.430536,1.245536,0.431964,1.244108,0.433236,1.243472,0.434536,1.242536,0.442536,1.234536,0.443472,1.233236,
0.444108,1.231964,0.445536,1.230536,0.446472,1.229236,0.447108,1.227964,0.448536,1.226536,0.449743,1.224581,0.450630,1.221920,0.451472,1.220236,0.451743,1.219581,0.452743,1.216581,0.453000,1.215000,0.453000,1.213810,0.453743,1.211581,0.454000,1.210000,0.454000,1.208810,0.454743,1.206581,0.455000,1.205000,0.455000,-0.205000,0.454743,-0.206581,0.454000,-0.208810,
0.454000,-0.210000,0.453743,-0.211581,0.453000,-0.213810,0.453000,-0.215000,0.452743,-0.216581,0.451743,-0.219581,0.451472,-0.220236,0.450630,-0.221920,0.449743,-0.224581,0.448536,-0.226536,0.447108,-0.227964,0.446472,-0.229236,0.445536,-0.230536,0.444108,-0.231964,0.443472,-0.233236,0.442536,-0.234536,0.434536,-0.242536,0.433236,-0.243472,0.431964,-0.244108,0.430536,-0.245536,
0.429236,-0.246472,0.427964,-0.247108,0.426536,-0.248536,0.424581,-0.249743,0.421920,-0.250630,0.420236,-0.251472,0.419581,-0.251743,0.416581,-0.252743,0.415000,-0.253000,0.413810,-0.253000,0.411581,-0.253743,0.410000,-0.254000,0.408810,-0.254000,0.406581,-0.254743,0.405000,-0.255000,-0.405000,-0.255000,-0.406581,-0.254743,-0.408810,-0.254000,-0.410000,-0.254000,-0.411581,-0.253743,
-0.413810,-0.253000,-0.415000,-0.253000,-0.416581,-0.252743,-0.419581,-0.251743,-0.420236,-0.251472,-0.421920,-0.250630,-0.424581,-0.249743,-0.426536,-0.248536,-0.427964,-0.247108,-0.429236,-0.246472,-0.430536,-0.245536,-0.431964,-0.244108,-0.433236,-0.243472,-0.434536,-0.242536,-0.442536,-0.234536,-0.443472,-0.233236,-0.444108,-0.231964,-0.445536,-0.230536,-0.446472,-0.229236,-0.447108,-0.227964,
-0.448536,-0.226536,-0.449743,-0.224581,-0.450630,-0.221920,-0.451472,-0.220236,-0.451743,-0.219581,-0.452743,-0.216581,-0.453000,-0.215000,-0.453000,-0.213810,-0.453743,-0.211581,-0.454000,-0.210000,-0.454000,-0.208810,-0.454743,-0.206581,-0.455000,-0.205000,-0.455000,1.205000,-0.454743,1.206581,-0.454000,1.208810,-0.454000,1.210000,-0.453743,1.211581,-0.453000,1.213810,-0.453000,1.215000,
-0.452743,1.216581,-0.451743,1.219581,-0.451472,1.220236,-0.450630,1.221920,-0.449743,1.224581,-0.448536,1.226536,-0.447108,1.227964,-0.446472,1.229236,-0.445536,1.230536,-0.444108,1.231964,-0.443472,1.233236,-0.442536,1.234536,-0.434536,1.242536,-0.433236,1.243472,-0.431964,1.244108,-0.430536,1.245536,-0.429236,1.246472,-0.427964,1.247108,-0.426536,1.248536,-0.424581,1.249743,
-0.421920,1.250630,-0.420236,1.251472,-0.419581,1.251743,-0.416581,1.252743,-0.415000,1.253000,-0.413810,1.253000,-0.411581,1.253743,-0.410000,1.254000,-0.408810,1.254000,-0.406581,1.254743,-0.405000,1.255000,0.405000,1.255000,0.406581,1.254743,0.406581,1.254743,$1*%
G04 Aperture macros list end*
%ADD10C,0.010000*%
%ADD11RoundRect,0.135000X-0.185000X0.135000X-0.185000X-0.135000X0.185000X-0.135000X0.185000X0.135000X0*%
%ADD12RoundRect,0.079500X-0.100500X0.079500X-0.100500X-0.079500X0.100500X-0.079500X0.100500X0.079500X0*%
%ADD13RoundRect,0.225000X0.375000X-0.225000X0.375000X0.225000X-0.375000X0.225000X-0.375000X-0.225000X0*%
%ADD14RoundRect,0.218750X0.218750X0.256250X-0.218750X0.256250X-0.218750X-0.256250X0.218750X-0.256250X0*%
%ADD15RoundRect,0.140000X0.170000X-0.140000X0.170000X0.140000X-0.170000X0.140000X-0.170000X-0.140000X0*%
%ADD16RoundRect,0.079500X0.079500X0.100500X-0.079500X0.100500X-0.079500X-0.100500X0.079500X-0.100500X0*%
%ADD17R,0.800000X0.900000*%
%ADD18RoundRect,0.075000X0.540000X0.225000X-0.540000X0.225000X-0.540000X-0.225000X0.540000X-0.225000X0*%
%ADD19RoundRect,0.225000X0.250000X-0.225000X0.250000X0.225000X-0.250000X0.225000X-0.250000X-0.225000X0*%
%ADD20R,0.270000X0.300000*%
%ADD21RoundRect,0.135000X0.185000X-0.135000X0.185000X0.135000X-0.185000X0.135000X-0.185000X-0.135000X0*%
%ADD22RoundRect,0.140000X-0.170000X0.140000X-0.170000X-0.140000X0.170000X-0.140000X0.170000X0.140000X0*%
%ADD23RoundRect,0.079500X-0.079500X-0.100500X0.079500X-0.100500X0.079500X0.100500X-0.079500X0.100500X0*%
%ADD24R,1.100000X3.700000*%
%ADD25RoundRect,0.027500X0.377500X0.082500X-0.377500X0.082500X-0.377500X-0.082500X0.377500X-0.082500X0*%
%ADD26RoundRect,0.027500X0.082500X0.377500X-0.082500X0.377500X-0.082500X-0.377500X0.082500X-0.377500X0*%
%ADD27FreePoly0,180.000000*%
%ADD28FreePoly1,180.000000*%
%ADD29FreePoly2,180.000000*%
%ADD30FreePoly3,180.000000*%
%ADD31RotRect,0.480000X0.480000X225.000000*%
%ADD32RoundRect,0.135000X-0.135000X-0.185000X0.135000X-0.185000X0.135000X0.185000X-0.135000X0.185000X0*%
%ADD33RoundRect,0.070000X-0.530000X-0.280000X0.530000X-0.280000X0.530000X0.280000X-0.530000X0.280000X0*%
%ADD34RoundRect,0.080000X-0.520000X-0.320000X0.520000X-0.320000X0.520000X0.320000X-0.520000X0.320000X0*%
%ADD35RoundRect,0.090000X-0.510000X-0.360000X0.510000X-0.360000X0.510000X0.360000X-0.510000X0.360000X0*%
%ADD36RoundRect,0.079500X0.100500X-0.079500X0.100500X0.079500X-0.100500X0.079500X-0.100500X-0.079500X0*%
%ADD37RoundRect,0.037500X0.212500X-0.087500X0.212500X0.087500X-0.212500X0.087500X-0.212500X-0.087500X0*%
%ADD38FreePoly4,90.000000*%
%ADD39RoundRect,0.225000X-0.250000X0.225000X-0.250000X-0.225000X0.250000X-0.225000X0.250000X0.225000X0*%
%ADD40RoundRect,0.140000X-0.140000X-0.170000X0.140000X-0.170000X0.140000X0.170000X-0.140000X0.170000X0*%
%ADD41RoundRect,0.225000X-0.225000X-0.375000X0.225000X-0.375000X0.225000X0.375000X-0.225000X0.375000X0*%
%ADD42R,0.400000X0.800000*%
%ADD43RoundRect,0.050000X-0.050000X0.200000X-0.050000X-0.200000X0.050000X-0.200000X0.050000X0.200000X0*%
%ADD44FreePoly5,270.000000*%
%ADD45R,0.300000X0.270000*%
%ADD46RoundRect,0.150000X0.587500X0.150000X-0.587500X0.150000X-0.587500X-0.150000X0.587500X-0.150000X0*%
%ADD47RoundRect,0.135000X0.135000X0.185000X-0.135000X0.185000X-0.135000X-0.185000X0.135000X-0.185000X0*%
%ADD48C,0.290000*%
%ADD49R,0.850000X0.600000*%
%ADD50R,1.000000X0.700000*%
%ADD51R,3.700000X1.100000*%
%ADD52RoundRect,0.150000X0.150000X-0.512500X0.150000X0.512500X-0.150000X0.512500X-0.150000X-0.512500X0*%
%ADD53RoundRect,0.225000X0.225000X0.250000X-0.225000X0.250000X-0.225000X-0.250000X0.225000X-0.250000X0*%
%ADD54RoundRect,0.140000X0.140000X0.170000X-0.140000X0.170000X-0.140000X-0.170000X0.140000X-0.170000X0*%
G04 APERTURE END LIST*
D10*
%TO.C,U3*%
X133580000Y-102360000D02*
X132120000Y-102360000D01*
X132120000Y-100900000D01*
X133580000Y-100900000D01*
X133580000Y-102360000D01*
G36*
X133580000Y-102360000D02*
G01*
X132120000Y-102360000D01*
X132120000Y-100900000D01*
X133580000Y-100900000D01*
X133580000Y-102360000D01*
G37*
X133580000Y-104660000D02*
X132120000Y-104660000D01*
X132120000Y-103200000D01*
X133580000Y-103200000D01*
X133580000Y-104660000D01*
G36*
X133580000Y-104660000D02*
G01*
X132120000Y-104660000D01*
X132120000Y-103200000D01*
X133580000Y-103200000D01*
X133580000Y-104660000D01*
G37*
X135880000Y-102360000D02*
X134420000Y-102360000D01*
X134420000Y-100900000D01*
X135880000Y-100900000D01*
X135880000Y-102360000D01*
G36*
X135880000Y-102360000D02*
G01*
X134420000Y-102360000D01*
X134420000Y-100900000D01*
X135880000Y-100900000D01*
X135880000Y-102360000D01*
G37*
X135880000Y-104660000D02*
X134420000Y-104660000D01*
X134420000Y-103200000D01*
X135880000Y-103200000D01*
X135880000Y-104660000D01*
G36*
X135880000Y-104660000D02*
G01*
X134420000Y-104660000D01*
X134420000Y-103200000D01*
X135880000Y-103200000D01*
X135880000Y-104660000D01*
G37*
%TO.C,J7*%
X120775000Y-82270000D02*
X120525000Y-82270000D01*
X120525000Y-81620000D01*
X120775000Y-81620000D01*
X120775000Y-82270000D01*
G36*
X120775000Y-82270000D02*
G01*
X120525000Y-82270000D01*
X120525000Y-81620000D01*
X120775000Y-81620000D01*
X120775000Y-82270000D01*
G37*
X121275000Y-82270000D02*
X121025000Y-82270000D01*
X121025000Y-81620000D01*
X121275000Y-81620000D01*
X121275000Y-82270000D01*
G36*
X121275000Y-82270000D02*
G01*
X121025000Y-82270000D01*
X121025000Y-81620000D01*
X121275000Y-81620000D01*
X121275000Y-82270000D01*
G37*
X121775000Y-82270000D02*
X121525000Y-82270000D01*
X121525000Y-81620000D01*
X121775000Y-81620000D01*
X121775000Y-82270000D01*
G36*
X121775000Y-82270000D02*
G01*
X121525000Y-82270000D01*
X121525000Y-81620000D01*
X121775000Y-81620000D01*
X121775000Y-82270000D01*
G37*
X122275000Y-82270000D02*
X122025000Y-82270000D01*
X122025000Y-81620000D01*
X122275000Y-81620000D01*
X122275000Y-82270000D01*
G36*
X122275000Y-82270000D02*
G01*
X122025000Y-82270000D01*
X122025000Y-81620000D01*
X122275000Y-81620000D01*
X122275000Y-82270000D01*
G37*
X122775000Y-82270000D02*
X122525000Y-82270000D01*
X122525000Y-81620000D01*
X122775000Y-81620000D01*
X122775000Y-82270000D01*
G36*
X122775000Y-82270000D02*
G01*
X122525000Y-82270000D01*
X122525000Y-81620000D01*
X122775000Y-81620000D01*
X122775000Y-82270000D01*
G37*
X123275000Y-82270000D02*
X123025000Y-82270000D01*
X123025000Y-81620000D01*
X123275000Y-81620000D01*
X123275000Y-82270000D01*
G36*
X123275000Y-82270000D02*
G01*
X123025000Y-82270000D01*
X123025000Y-81620000D01*
X123275000Y-81620000D01*
X123275000Y-82270000D01*
G37*
X123775000Y-82270000D02*
X123525000Y-82270000D01*
X123525000Y-81620000D01*
X123775000Y-81620000D01*
X123775000Y-82270000D01*
G36*
X123775000Y-82270000D02*
G01*
X123525000Y-82270000D01*
X123525000Y-81620000D01*
X123775000Y-81620000D01*
X123775000Y-82270000D01*
G37*
X124275000Y-82270000D02*
X124025000Y-82270000D01*
X124025000Y-81620000D01*
X124275000Y-81620000D01*
X124275000Y-82270000D01*
G36*
X124275000Y-82270000D02*
G01*
X124025000Y-82270000D01*
X124025000Y-81620000D01*
X124275000Y-81620000D01*
X124275000Y-82270000D01*
G37*
X124775000Y-82270000D02*
X124525000Y-82270000D01*
X124525000Y-81620000D01*
X124775000Y-81620000D01*
X124775000Y-82270000D01*
G36*
X124775000Y-82270000D02*
G01*
X124525000Y-82270000D01*
X124525000Y-81620000D01*
X124775000Y-81620000D01*
X124775000Y-82270000D01*
G37*
X125275000Y-82270000D02*
X125025000Y-82270000D01*
X125025000Y-81620000D01*
X125275000Y-81620000D01*
X125275000Y-82270000D01*
G36*
X125275000Y-82270000D02*
G01*
X125025000Y-82270000D01*
X125025000Y-81620000D01*
X125275000Y-81620000D01*
X125275000Y-82270000D01*
G37*
X125775000Y-82270000D02*
X125525000Y-82270000D01*
X125525000Y-81620000D01*
X125775000Y-81620000D01*
X125775000Y-82270000D01*
G36*
X125775000Y-82270000D02*
G01*
X125525000Y-82270000D01*
X125525000Y-81620000D01*
X125775000Y-81620000D01*
X125775000Y-82270000D01*
G37*
X126275000Y-82270000D02*
X126025000Y-82270000D01*
X126025000Y-81620000D01*
X126275000Y-81620000D01*
X126275000Y-82270000D01*
G36*
X126275000Y-82270000D02*
G01*
X126025000Y-82270000D01*
X126025000Y-81620000D01*
X126275000Y-81620000D01*
X126275000Y-82270000D01*
G37*
X126775000Y-82270000D02*
X126525000Y-82270000D01*
X126525000Y-81620000D01*
X126775000Y-81620000D01*
X126775000Y-82270000D01*
G36*
X126775000Y-82270000D02*
G01*
X126525000Y-82270000D01*
X126525000Y-81620000D01*
X126775000Y-81620000D01*
X126775000Y-82270000D01*
G37*
X127275000Y-82270000D02*
X127025000Y-82270000D01*
X127025000Y-81620000D01*
X127275000Y-81620000D01*
X127275000Y-82270000D01*
G36*
X127275000Y-82270000D02*
G01*
X127025000Y-82270000D01*
X127025000Y-81620000D01*
X127275000Y-81620000D01*
X127275000Y-82270000D01*
G37*
X127775000Y-82270000D02*
X127525000Y-82270000D01*
X127525000Y-81620000D01*
X127775000Y-81620000D01*
X127775000Y-82270000D01*
G36*
X127775000Y-82270000D02*
G01*
X127525000Y-82270000D01*
X127525000Y-81620000D01*
X127775000Y-81620000D01*
X127775000Y-82270000D01*
G37*
X128275000Y-82270000D02*
X128025000Y-82270000D01*
X128025000Y-81620000D01*
X128275000Y-81620000D01*
X128275000Y-82270000D01*
G36*
X128275000Y-82270000D02*
G01*
X128025000Y-82270000D01*
X128025000Y-81620000D01*
X128275000Y-81620000D01*
X128275000Y-82270000D01*
G37*
X128775000Y-82270000D02*
X128525000Y-82270000D01*
X128525000Y-81620000D01*
X128775000Y-81620000D01*
X128775000Y-82270000D01*
G36*
X128775000Y-82270000D02*
G01*
X128525000Y-82270000D01*
X128525000Y-81620000D01*
X128775000Y-81620000D01*
X128775000Y-82270000D01*
G37*
X129275000Y-82270000D02*
X129025000Y-82270000D01*
X129025000Y-81620000D01*
X129275000Y-81620000D01*
X129275000Y-82270000D01*
G36*
X129275000Y-82270000D02*
G01*
X129025000Y-82270000D01*
X129025000Y-81620000D01*
X129275000Y-81620000D01*
X129275000Y-82270000D01*
G37*
X129775000Y-82270000D02*
X129525000Y-82270000D01*
X129525000Y-81620000D01*
X129775000Y-81620000D01*
X129775000Y-82270000D01*
G36*
X129775000Y-82270000D02*
G01*
X129525000Y-82270000D01*
X129525000Y-81620000D01*
X129775000Y-81620000D01*
X129775000Y-82270000D01*
G37*
X130275000Y-82270000D02*
X130025000Y-82270000D01*
X130025000Y-81620000D01*
X130275000Y-81620000D01*
X130275000Y-82270000D01*
G36*
X130275000Y-82270000D02*
G01*
X130025000Y-82270000D01*
X130025000Y-81620000D01*
X130275000Y-81620000D01*
X130275000Y-82270000D01*
G37*
X130775000Y-82270000D02*
X130525000Y-82270000D01*
X130525000Y-81620000D01*
X130775000Y-81620000D01*
X130775000Y-82270000D01*
G36*
X130775000Y-82270000D02*
G01*
X130525000Y-82270000D01*
X130525000Y-81620000D01*
X130775000Y-81620000D01*
X130775000Y-82270000D01*
G37*
X131275000Y-82270000D02*
X131025000Y-82270000D01*
X131025000Y-81620000D01*
X131275000Y-81620000D01*
X131275000Y-82270000D01*
G36*
X131275000Y-82270000D02*
G01*
X131025000Y-82270000D01*
X131025000Y-81620000D01*
X131275000Y-81620000D01*
X131275000Y-82270000D01*
G37*
X131775000Y-82270000D02*
X131525000Y-82270000D01*
X131525000Y-81620000D01*
X131775000Y-81620000D01*
X131775000Y-82270000D01*
G36*
X131775000Y-82270000D02*
G01*
X131525000Y-82270000D01*
X131525000Y-81620000D01*
X131775000Y-81620000D01*
X131775000Y-82270000D01*
G37*
X132275000Y-82270000D02*
X132025000Y-82270000D01*
X132025000Y-81620000D01*
X132275000Y-81620000D01*
X132275000Y-82270000D01*
G36*
X132275000Y-82270000D02*
G01*
X132025000Y-82270000D01*
X132025000Y-81620000D01*
X132275000Y-81620000D01*
X132275000Y-82270000D01*
G37*
X132775000Y-82270000D02*
X132525000Y-82270000D01*
X132525000Y-81620000D01*
X132775000Y-81620000D01*
X132775000Y-82270000D01*
G36*
X132775000Y-82270000D02*
G01*
X132525000Y-82270000D01*
X132525000Y-81620000D01*
X132775000Y-81620000D01*
X132775000Y-82270000D01*
G37*
X133275000Y-82270000D02*
X133025000Y-82270000D01*
X133025000Y-81620000D01*
X133275000Y-81620000D01*
X133275000Y-82270000D01*
G36*
X133275000Y-82270000D02*
G01*
X133025000Y-82270000D01*
X133025000Y-81620000D01*
X133275000Y-81620000D01*
X133275000Y-82270000D01*
G37*
X133775000Y-82270000D02*
X133525000Y-82270000D01*
X133525000Y-81620000D01*
X133775000Y-81620000D01*
X133775000Y-82270000D01*
G36*
X133775000Y-82270000D02*
G01*
X133525000Y-82270000D01*
X133525000Y-81620000D01*
X133775000Y-81620000D01*
X133775000Y-82270000D01*
G37*
X134275000Y-82270000D02*
X134025000Y-82270000D01*
X134025000Y-81620000D01*
X134275000Y-81620000D01*
X134275000Y-82270000D01*
G36*
X134275000Y-82270000D02*
G01*
X134025000Y-82270000D01*
X134025000Y-81620000D01*
X134275000Y-81620000D01*
X134275000Y-82270000D01*
G37*
X134775000Y-82270000D02*
X134525000Y-82270000D01*
X134525000Y-81620000D01*
X134775000Y-81620000D01*
X134775000Y-82270000D01*
G36*
X134775000Y-82270000D02*
G01*
X134525000Y-82270000D01*
X134525000Y-81620000D01*
X134775000Y-81620000D01*
X134775000Y-82270000D01*
G37*
X135275000Y-82270000D02*
X135025000Y-82270000D01*
X135025000Y-81620000D01*
X135275000Y-81620000D01*
X135275000Y-82270000D01*
G36*
X135275000Y-82270000D02*
G01*
X135025000Y-82270000D01*
X135025000Y-81620000D01*
X135275000Y-81620000D01*
X135275000Y-82270000D01*
G37*
X135775000Y-82270000D02*
X135525000Y-82270000D01*
X135525000Y-81620000D01*
X135775000Y-81620000D01*
X135775000Y-82270000D01*
G36*
X135775000Y-82270000D02*
G01*
X135525000Y-82270000D01*
X135525000Y-81620000D01*
X135775000Y-81620000D01*
X135775000Y-82270000D01*
G37*
X136275000Y-82270000D02*
X136025000Y-82270000D01*
X136025000Y-81620000D01*
X136275000Y-81620000D01*
X136275000Y-82270000D01*
G36*
X136275000Y-82270000D02*
G01*
X136025000Y-82270000D01*
X136025000Y-81620000D01*
X136275000Y-81620000D01*
X136275000Y-82270000D01*
G37*
X136775000Y-82270000D02*
X136525000Y-82270000D01*
X136525000Y-81620000D01*
X136775000Y-81620000D01*
X136775000Y-82270000D01*
G36*
X136775000Y-82270000D02*
G01*
X136525000Y-82270000D01*
X136525000Y-81620000D01*
X136775000Y-81620000D01*
X136775000Y-82270000D01*
G37*
X137275000Y-82270000D02*
X137025000Y-82270000D01*
X137025000Y-81620000D01*
X137275000Y-81620000D01*
X137275000Y-82270000D01*
G36*
X137275000Y-82270000D02*
G01*
X137025000Y-82270000D01*
X137025000Y-81620000D01*
X137275000Y-81620000D01*
X137275000Y-82270000D01*
G37*
X137775000Y-82270000D02*
X137525000Y-82270000D01*
X137525000Y-81620000D01*
X137775000Y-81620000D01*
X137775000Y-82270000D01*
G36*
X137775000Y-82270000D02*
G01*
X137525000Y-82270000D01*
X137525000Y-81620000D01*
X137775000Y-81620000D01*
X137775000Y-82270000D01*
G37*
X138275000Y-82270000D02*
X138025000Y-82270000D01*
X138025000Y-81620000D01*
X138275000Y-81620000D01*
X138275000Y-82270000D01*
G36*
X138275000Y-82270000D02*
G01*
X138025000Y-82270000D01*
X138025000Y-81620000D01*
X138275000Y-81620000D01*
X138275000Y-82270000D01*
G37*
X138775000Y-82270000D02*
X138525000Y-82270000D01*
X138525000Y-81620000D01*
X138775000Y-81620000D01*
X138775000Y-82270000D01*
G36*
X138775000Y-82270000D02*
G01*
X138525000Y-82270000D01*
X138525000Y-81620000D01*
X138775000Y-81620000D01*
X138775000Y-82270000D01*
G37*
X139275000Y-82270000D02*
X139025000Y-82270000D01*
X139025000Y-81620000D01*
X139275000Y-81620000D01*
X139275000Y-82270000D01*
G36*
X139275000Y-82270000D02*
G01*
X139025000Y-82270000D01*
X139025000Y-81620000D01*
X139275000Y-81620000D01*
X139275000Y-82270000D01*
G37*
X139775000Y-82270000D02*
X139525000Y-82270000D01*
X139525000Y-81620000D01*
X139775000Y-81620000D01*
X139775000Y-82270000D01*
G36*
X139775000Y-82270000D02*
G01*
X139525000Y-82270000D01*
X139525000Y-81620000D01*
X139775000Y-81620000D01*
X139775000Y-82270000D01*
G37*
X140275000Y-82270000D02*
X140025000Y-82270000D01*
X140025000Y-81620000D01*
X140275000Y-81620000D01*
X140275000Y-82270000D01*
G36*
X140275000Y-82270000D02*
G01*
X140025000Y-82270000D01*
X140025000Y-81620000D01*
X140275000Y-81620000D01*
X140275000Y-82270000D01*
G37*
X140775000Y-82270000D02*
X140525000Y-82270000D01*
X140525000Y-81620000D01*
X140775000Y-81620000D01*
X140775000Y-82270000D01*
G36*
X140775000Y-82270000D02*
G01*
X140525000Y-82270000D01*
X140525000Y-81620000D01*
X140775000Y-81620000D01*
X140775000Y-82270000D01*
G37*
X141275000Y-82270000D02*
X141025000Y-82270000D01*
X141025000Y-81620000D01*
X141275000Y-81620000D01*
X141275000Y-82270000D01*
G36*
X141275000Y-82270000D02*
G01*
X141025000Y-82270000D01*
X141025000Y-81620000D01*
X141275000Y-81620000D01*
X141275000Y-82270000D01*
G37*
X141775000Y-82270000D02*
X141525000Y-82270000D01*
X141525000Y-81620000D01*
X141775000Y-81620000D01*
X141775000Y-82270000D01*
G36*
X141775000Y-82270000D02*
G01*
X141525000Y-82270000D01*
X141525000Y-81620000D01*
X141775000Y-81620000D01*
X141775000Y-82270000D01*
G37*
X142275000Y-82270000D02*
X142025000Y-82270000D01*
X142025000Y-81620000D01*
X142275000Y-81620000D01*
X142275000Y-82270000D01*
G36*
X142275000Y-82270000D02*
G01*
X142025000Y-82270000D01*
X142025000Y-81620000D01*
X142275000Y-81620000D01*
X142275000Y-82270000D01*
G37*
X142775000Y-82270000D02*
X142525000Y-82270000D01*
X142525000Y-81620000D01*
X142775000Y-81620000D01*
X142775000Y-82270000D01*
G36*
X142775000Y-82270000D02*
G01*
X142525000Y-82270000D01*
X142525000Y-81620000D01*
X142775000Y-81620000D01*
X142775000Y-82270000D01*
G37*
X143275000Y-82270000D02*
X143025000Y-82270000D01*
X143025000Y-81620000D01*
X143275000Y-81620000D01*
X143275000Y-82270000D01*
G36*
X143275000Y-82270000D02*
G01*
X143025000Y-82270000D01*
X143025000Y-81620000D01*
X143275000Y-81620000D01*
X143275000Y-82270000D01*
G37*
X143775000Y-82270000D02*
X143525000Y-82270000D01*
X143525000Y-81620000D01*
X143775000Y-81620000D01*
X143775000Y-82270000D01*
G36*
X143775000Y-82270000D02*
G01*
X143525000Y-82270000D01*
X143525000Y-81620000D01*
X143775000Y-81620000D01*
X143775000Y-82270000D01*
G37*
X144275000Y-82270000D02*
X144025000Y-82270000D01*
X144025000Y-81620000D01*
X144275000Y-81620000D01*
X144275000Y-82270000D01*
G36*
X144275000Y-82270000D02*
G01*
X144025000Y-82270000D01*
X144025000Y-81620000D01*
X144275000Y-81620000D01*
X144275000Y-82270000D01*
G37*
X144775000Y-82270000D02*
X144525000Y-82270000D01*
X144525000Y-81620000D01*
X144775000Y-81620000D01*
X144775000Y-82270000D01*
G36*
X144775000Y-82270000D02*
G01*
X144525000Y-82270000D01*
X144525000Y-81620000D01*
X144775000Y-81620000D01*
X144775000Y-82270000D01*
G37*
X145275000Y-82270000D02*
X145025000Y-82270000D01*
X145025000Y-81620000D01*
X145275000Y-81620000D01*
X145275000Y-82270000D01*
G36*
X145275000Y-82270000D02*
G01*
X145025000Y-82270000D01*
X145025000Y-81620000D01*
X145275000Y-81620000D01*
X145275000Y-82270000D01*
G37*
%TO.C,U2*%
X153148000Y-100716000D02*
X153150000Y-100716000D01*
X153153000Y-100717000D01*
X153155000Y-100717000D01*
X153158000Y-100718000D01*
X153160000Y-100719000D01*
X153163000Y-100720000D01*
X153165000Y-100722000D01*
X153167000Y-100723000D01*
X153169000Y-100725000D01*
X153171000Y-100726000D01*
X153173000Y-100728000D01*
X153175000Y-100730000D01*
X153177000Y-100732000D01*
X153179000Y-100734000D01*
X153180000Y-100736000D01*
X153182000Y-100738000D01*
X153183000Y-100740000D01*
X153185000Y-100742000D01*
X153186000Y-100745000D01*
X153187000Y-100747000D01*
X153188000Y-100750000D01*
X153188000Y-100752000D01*
X153189000Y-100755000D01*
X153189000Y-100757000D01*
X153190000Y-100760000D01*
X153190000Y-100762000D01*
X153190000Y-100765000D01*
X153190000Y-101515000D01*
X153190000Y-101518000D01*
X153190000Y-101520000D01*
X153189000Y-101523000D01*
X153189000Y-101525000D01*
X153188000Y-101528000D01*
X153188000Y-101530000D01*
X153187000Y-101533000D01*
X153186000Y-101535000D01*
X153185000Y-101538000D01*
X153183000Y-101540000D01*
X153182000Y-101542000D01*
X153180000Y-101544000D01*
X153179000Y-101546000D01*
X153177000Y-101548000D01*
X153175000Y-101550000D01*
X153173000Y-101552000D01*
X153171000Y-101554000D01*
X153169000Y-101555000D01*
X153167000Y-101557000D01*
X153165000Y-101558000D01*
X153163000Y-101560000D01*
X153160000Y-101561000D01*
X153158000Y-101562000D01*
X153155000Y-101563000D01*
X153153000Y-101563000D01*
X153150000Y-101564000D01*
X153148000Y-101564000D01*
X153145000Y-101565000D01*
X153143000Y-101565000D01*
X153140000Y-101565000D01*
X151860000Y-101565000D01*
X151857000Y-101565000D01*
X151855000Y-101565000D01*
X151852000Y-101564000D01*
X151850000Y-101564000D01*
X151847000Y-101563000D01*
X151845000Y-101563000D01*
X151842000Y-101562000D01*
X151840000Y-101561000D01*
X151837000Y-101560000D01*
X151835000Y-101558000D01*
X151833000Y-101557000D01*
X151831000Y-101555000D01*
X151829000Y-101554000D01*
X151827000Y-101552000D01*
X151825000Y-101550000D01*
X151823000Y-101548000D01*
X151821000Y-101546000D01*
X151820000Y-101544000D01*
X151818000Y-101542000D01*
X151817000Y-101540000D01*
X151815000Y-101538000D01*
X151814000Y-101535000D01*
X151813000Y-101533000D01*
X151812000Y-101530000D01*
X151812000Y-101528000D01*
X151811000Y-101525000D01*
X151811000Y-101523000D01*
X151810000Y-101520000D01*
X151810000Y-101518000D01*
X151810000Y-101515000D01*
X151810000Y-100765000D01*
X151810000Y-100762000D01*
X151810000Y-100760000D01*
X151811000Y-100757000D01*
X151811000Y-100755000D01*
X151812000Y-100752000D01*
X151812000Y-100750000D01*
X151813000Y-100747000D01*
X151814000Y-100745000D01*
X151815000Y-100742000D01*
X151817000Y-100740000D01*
X151818000Y-100738000D01*
X151820000Y-100736000D01*
X151821000Y-100734000D01*
X151823000Y-100732000D01*
X151825000Y-100730000D01*
X151827000Y-100728000D01*
X151829000Y-100726000D01*
X151831000Y-100725000D01*
X151833000Y-100723000D01*
X151835000Y-100722000D01*
X151837000Y-100720000D01*
X151840000Y-100719000D01*
X151842000Y-100718000D01*
X151845000Y-100717000D01*
X151847000Y-100717000D01*
X151850000Y-100716000D01*
X151852000Y-100716000D01*
X151855000Y-100715000D01*
X151857000Y-100715000D01*
X151860000Y-100715000D01*
X153140000Y-100715000D01*
X153143000Y-100715000D01*
X153145000Y-100715000D01*
X153148000Y-100716000D01*
G36*
X153148000Y-100716000D02*
G01*
X153150000Y-100716000D01*
X153153000Y-100717000D01*
X153155000Y-100717000D01*
X153158000Y-100718000D01*
X153160000Y-100719000D01*
X153163000Y-100720000D01*
X153165000Y-100722000D01*
X153167000Y-100723000D01*
X153169000Y-100725000D01*
X153171000Y-100726000D01*
X153173000Y-100728000D01*
X153175000Y-100730000D01*
X153177000Y-100732000D01*
X153179000Y-100734000D01*
X153180000Y-100736000D01*
X153182000Y-100738000D01*
X153183000Y-100740000D01*
X153185000Y-100742000D01*
X153186000Y-100745000D01*
X153187000Y-100747000D01*
X153188000Y-100750000D01*
X153188000Y-100752000D01*
X153189000Y-100755000D01*
X153189000Y-100757000D01*
X153190000Y-100760000D01*
X153190000Y-100762000D01*
X153190000Y-100765000D01*
X153190000Y-101515000D01*
X153190000Y-101518000D01*
X153190000Y-101520000D01*
X153189000Y-101523000D01*
X153189000Y-101525000D01*
X153188000Y-101528000D01*
X153188000Y-101530000D01*
X153187000Y-101533000D01*
X153186000Y-101535000D01*
X153185000Y-101538000D01*
X153183000Y-101540000D01*
X153182000Y-101542000D01*
X153180000Y-101544000D01*
X153179000Y-101546000D01*
X153177000Y-101548000D01*
X153175000Y-101550000D01*
X153173000Y-101552000D01*
X153171000Y-101554000D01*
X153169000Y-101555000D01*
X153167000Y-101557000D01*
X153165000Y-101558000D01*
X153163000Y-101560000D01*
X153160000Y-101561000D01*
X153158000Y-101562000D01*
X153155000Y-101563000D01*
X153153000Y-101563000D01*
X153150000Y-101564000D01*
X153148000Y-101564000D01*
X153145000Y-101565000D01*
X153143000Y-101565000D01*
X153140000Y-101565000D01*
X151860000Y-101565000D01*
X151857000Y-101565000D01*
X151855000Y-101565000D01*
X151852000Y-101564000D01*
X151850000Y-101564000D01*
X151847000Y-101563000D01*
X151845000Y-101563000D01*
X151842000Y-101562000D01*
X151840000Y-101561000D01*
X151837000Y-101560000D01*
X151835000Y-101558000D01*
X151833000Y-101557000D01*
X151831000Y-101555000D01*
X151829000Y-101554000D01*
X151827000Y-101552000D01*
X151825000Y-101550000D01*
X151823000Y-101548000D01*
X151821000Y-101546000D01*
X151820000Y-101544000D01*
X151818000Y-101542000D01*
X151817000Y-101540000D01*
X151815000Y-101538000D01*
X151814000Y-101535000D01*
X151813000Y-101533000D01*
X151812000Y-101530000D01*
X151812000Y-101528000D01*
X151811000Y-101525000D01*
X151811000Y-101523000D01*
X151810000Y-101520000D01*
X151810000Y-101518000D01*
X151810000Y-101515000D01*
X151810000Y-100765000D01*
X151810000Y-100762000D01*
X151810000Y-100760000D01*
X151811000Y-100757000D01*
X151811000Y-100755000D01*
X151812000Y-100752000D01*
X151812000Y-100750000D01*
X151813000Y-100747000D01*
X151814000Y-100745000D01*
X151815000Y-100742000D01*
X151817000Y-100740000D01*
X151818000Y-100738000D01*
X151820000Y-100736000D01*
X151821000Y-100734000D01*
X151823000Y-100732000D01*
X151825000Y-100730000D01*
X151827000Y-100728000D01*
X151829000Y-100726000D01*
X151831000Y-100725000D01*
X151833000Y-100723000D01*
X151835000Y-100722000D01*
X151837000Y-100720000D01*
X151840000Y-100719000D01*
X151842000Y-100718000D01*
X151845000Y-100717000D01*
X151847000Y-100717000D01*
X151850000Y-100716000D01*
X151852000Y-100716000D01*
X151855000Y-100715000D01*
X151857000Y-100715000D01*
X151860000Y-100715000D01*
X153140000Y-100715000D01*
X153143000Y-100715000D01*
X153145000Y-100715000D01*
X153148000Y-100716000D01*
G37*
%TD*%
D11*
%TO.C,R7*%
X153300000Y-103150000D03*
X153300000Y-104170000D03*
%TD*%
D12*
%TO.C,C27*%
X133630000Y-106760000D03*
X133630000Y-107450000D03*
%TD*%
D13*
%TO.C,D2*%
X142240000Y-93887500D03*
X142240000Y-90587500D03*
%TD*%
D14*
%TO.C,L5*%
X136837500Y-108420000D03*
X135262500Y-108420000D03*
%TD*%
D15*
%TO.C,C14*%
X127170000Y-84290000D03*
X127170000Y-83330000D03*
%TD*%
D16*
%TO.C,C23*%
X130017756Y-104042801D03*
X129327756Y-104042801D03*
%TD*%
D17*
%TO.C,Y2*%
X127466930Y-106061590D03*
X127466930Y-107461590D03*
X128566930Y-107461590D03*
X128566930Y-106061590D03*
%TD*%
D18*
%TO.C,Q1*%
X151600000Y-92027500D03*
X151600000Y-90127500D03*
X149480000Y-91077500D03*
%TD*%
D19*
%TO.C,C7*%
X136870000Y-85145000D03*
X136870000Y-83595000D03*
%TD*%
%TO.C,C10*%
X133910000Y-85145000D03*
X133910000Y-83595000D03*
%TD*%
D20*
%TO.C,L2*%
X128998670Y-102983590D03*
X128428680Y-102983590D03*
%TD*%
D21*
%TO.C,R11*%
X145290000Y-104890000D03*
X145290000Y-103870000D03*
%TD*%
D22*
%TO.C,C4*%
X144350000Y-83370000D03*
X144350000Y-84330000D03*
%TD*%
D15*
%TO.C,C15*%
X125240000Y-84270000D03*
X125240000Y-83310000D03*
%TD*%
D23*
%TO.C,R5*%
X129327756Y-101462801D03*
X130017756Y-101462801D03*
%TD*%
D24*
%TO.C,L4*%
X136400000Y-90900000D03*
X133400000Y-90900000D03*
%TD*%
D25*
%TO.C,U3*%
X136950000Y-104980000D03*
X136950000Y-104580000D03*
X136950000Y-104180000D03*
X136950000Y-103780000D03*
X136950000Y-103380000D03*
X136950000Y-102980000D03*
X136950000Y-102580000D03*
X136950000Y-102180000D03*
X136950000Y-101780000D03*
X136950000Y-101380000D03*
X136950000Y-100980000D03*
X136950000Y-100580000D03*
D26*
X136200000Y-99830000D03*
X135800000Y-99830000D03*
X135400000Y-99830000D03*
X135000000Y-99830000D03*
X134600000Y-99830000D03*
X134200000Y-99830000D03*
X133800000Y-99830000D03*
X133400000Y-99830000D03*
X133000000Y-99830000D03*
X132600000Y-99830000D03*
X132200000Y-99830000D03*
X131800000Y-99830000D03*
D25*
X131050000Y-100580000D03*
X131050000Y-100980000D03*
X131050000Y-101380000D03*
X131050000Y-101780000D03*
X131050000Y-102180000D03*
X131050000Y-102580000D03*
X131050000Y-102980000D03*
X131050000Y-103380000D03*
X131050000Y-103780000D03*
X131050000Y-104180000D03*
X131050000Y-104580000D03*
X131050000Y-104980000D03*
D26*
X131800000Y-105730000D03*
X132200000Y-105730000D03*
X132600000Y-105730000D03*
X133000000Y-105730000D03*
X133400000Y-105730000D03*
X133800000Y-105730000D03*
X134200000Y-105730000D03*
X134600000Y-105730000D03*
X135000000Y-105730000D03*
X135400000Y-105730000D03*
X135800000Y-105730000D03*
X136200000Y-105730000D03*
%TD*%
D27*
%TO.C,U4*%
X163370000Y-93030000D03*
D28*
X163370000Y-92380000D03*
D29*
X162290000Y-92380000D03*
D30*
X162290000Y-93030000D03*
D31*
X162830000Y-92705000D03*
%TD*%
D32*
%TO.C,R9*%
X163310000Y-94010000D03*
X164330000Y-94010000D03*
%TD*%
D33*
%TO.C,J2*%
X166950000Y-77250000D03*
D34*
X166950000Y-75230000D03*
D35*
X166950000Y-74000000D03*
D33*
X166950000Y-76250000D03*
D34*
X166950000Y-78270000D03*
D35*
X166950000Y-79500000D03*
%TD*%
D36*
%TO.C,FB1*%
X133660000Y-109230000D03*
X133660000Y-108540000D03*
%TD*%
D22*
%TO.C,C13*%
X126200000Y-83340000D03*
X126200000Y-84300000D03*
%TD*%
D19*
%TO.C,C9*%
X135390000Y-85145000D03*
X135390000Y-83595000D03*
%TD*%
D11*
%TO.C,R15*%
X138110000Y-91720000D03*
X138110000Y-92740000D03*
%TD*%
D37*
%TO.C,U1*%
X164570000Y-80595000D03*
D38*
X164570000Y-79945000D03*
%TD*%
D12*
%TO.C,C21*%
X137960000Y-100545000D03*
X137960000Y-101235000D03*
%TD*%
D21*
%TO.C,R8*%
X152070000Y-99042500D03*
X152070000Y-98022500D03*
%TD*%
D15*
%TO.C,C12*%
X120690000Y-84270000D03*
X120690000Y-83310000D03*
%TD*%
D11*
%TO.C,R18*%
X150600000Y-100690000D03*
X150600000Y-101710000D03*
%TD*%
D22*
%TO.C,C35*%
X122400000Y-83300000D03*
X122400000Y-84260000D03*
%TD*%
D39*
%TO.C,C38*%
X142260000Y-87602500D03*
X142260000Y-89152500D03*
%TD*%
D40*
%TO.C,C29*%
X154650000Y-105500000D03*
X155610000Y-105500000D03*
%TD*%
D41*
%TO.C,D4*%
X133250000Y-87500000D03*
X136550000Y-87500000D03*
%TD*%
D19*
%TO.C,C11*%
X132450000Y-85155000D03*
X132450000Y-83605000D03*
%TD*%
D15*
%TO.C,C34*%
X123360000Y-84260000D03*
X123360000Y-83300000D03*
%TD*%
D20*
%TO.C,C1*%
X129539270Y-103467430D03*
X130109260Y-103467430D03*
%TD*%
D42*
%TO.C,J7*%
X119650000Y-79370000D03*
X146150000Y-79370000D03*
%TD*%
D43*
%TO.C,U2*%
X153300000Y-100190000D03*
X152900000Y-100190000D03*
X152500000Y-100190000D03*
X152100000Y-100190000D03*
X151700000Y-100190000D03*
X151700000Y-102090000D03*
X152100000Y-102090000D03*
X152500000Y-102090000D03*
X152900000Y-102090000D03*
X153300000Y-102090000D03*
D44*
X152000000Y-101140000D03*
%TD*%
D20*
%TO.C,L3*%
X127342840Y-102983590D03*
X126772850Y-102983590D03*
%TD*%
D16*
%TO.C,C22*%
X136835000Y-106750000D03*
X136145000Y-106750000D03*
%TD*%
D21*
%TO.C,R1*%
X151540000Y-88547500D03*
X151540000Y-87527500D03*
%TD*%
D40*
%TO.C,C32*%
X148180000Y-103380000D03*
X149140000Y-103380000D03*
%TD*%
D36*
%TO.C,C28*%
X132910000Y-109240000D03*
X132910000Y-108550000D03*
%TD*%
D13*
%TO.C,D3*%
X144640000Y-93837500D03*
X144640000Y-90537500D03*
%TD*%
D36*
%TO.C,C20*%
X130037756Y-107027801D03*
X130037756Y-106337801D03*
%TD*%
D45*
%TO.C,C2*%
X127894850Y-102977500D03*
X127894850Y-102407510D03*
%TD*%
D11*
%TO.C,R6*%
X153070000Y-98012500D03*
X153070000Y-99032500D03*
%TD*%
%TO.C,R2*%
X164830000Y-77810000D03*
X164830000Y-78830000D03*
%TD*%
D20*
%TO.C,L1*%
X130101150Y-102983590D03*
X129531160Y-102983590D03*
%TD*%
D45*
%TO.C,C8*%
X126265920Y-103112000D03*
X126265920Y-103681990D03*
%TD*%
D46*
%TO.C,Q2*%
X137665000Y-96260000D03*
X137665000Y-94360000D03*
X135790000Y-95310000D03*
%TD*%
D47*
%TO.C,R17*%
X146500000Y-108400000D03*
X145480000Y-108400000D03*
%TD*%
D32*
%TO.C,R12*%
X147370000Y-108000000D03*
X148390000Y-108000000D03*
%TD*%
D48*
%TO.C,U5*%
X147130000Y-106160000D03*
X147130000Y-105660000D03*
X147130000Y-105160000D03*
X147630000Y-106160000D03*
X147630000Y-105660000D03*
X147630000Y-105160000D03*
X148130000Y-106160000D03*
X148130000Y-105660000D03*
X148130000Y-105160000D03*
%TD*%
D39*
%TO.C,C5*%
X139810000Y-83635000D03*
X139810000Y-85185000D03*
%TD*%
D21*
%TO.C,R16*%
X138120000Y-90850000D03*
X138120000Y-89830000D03*
%TD*%
D23*
%TO.C,C19*%
X134405000Y-106780000D03*
X135095000Y-106780000D03*
%TD*%
D13*
%TO.C,D1*%
X147040000Y-93837500D03*
X147040000Y-90537500D03*
%TD*%
D40*
%TO.C,C31*%
X146290000Y-103320000D03*
X147250000Y-103320000D03*
%TD*%
D11*
%TO.C,R13*%
X149930000Y-105190000D03*
X149930000Y-106210000D03*
%TD*%
D32*
%TO.C,R14*%
X143120000Y-95317500D03*
X144140000Y-95317500D03*
%TD*%
D22*
%TO.C,C16*%
X154280000Y-99600000D03*
X154280000Y-100560000D03*
%TD*%
D19*
%TO.C,C6*%
X138330000Y-85175000D03*
X138330000Y-83625000D03*
%TD*%
D11*
%TO.C,R10*%
X145300000Y-105760000D03*
X145300000Y-106780000D03*
%TD*%
D39*
%TO.C,C37*%
X147040000Y-87562500D03*
X147040000Y-89112500D03*
%TD*%
D15*
%TO.C,C26*%
X138060000Y-108440000D03*
X138060000Y-107480000D03*
%TD*%
D19*
%TO.C,C41*%
X138160000Y-88225000D03*
X138160000Y-86675000D03*
%TD*%
D11*
%TO.C,R3*%
X148940000Y-87527500D03*
X148940000Y-88547500D03*
%TD*%
D15*
%TO.C,C18*%
X154290000Y-102480000D03*
X154290000Y-101520000D03*
%TD*%
%TO.C,C40*%
X139800000Y-96060000D03*
X139800000Y-95100000D03*
%TD*%
D49*
%TO.C,J3*%
X166250000Y-98970000D03*
X166250000Y-100170000D03*
D50*
X162650000Y-101270000D03*
X162650000Y-97870000D03*
%TD*%
D16*
%TO.C,C17*%
X130017756Y-102162801D03*
X129327756Y-102162801D03*
%TD*%
D40*
%TO.C,C24*%
X161400000Y-94010000D03*
X162360000Y-94010000D03*
%TD*%
D51*
%TO.C,L6*%
X150540000Y-96637500D03*
X150540000Y-93637500D03*
%TD*%
D22*
%TO.C,C33*%
X124300000Y-83300000D03*
X124300000Y-84260000D03*
%TD*%
%TO.C,C3*%
X145350000Y-83370000D03*
X145350000Y-84330000D03*
%TD*%
D52*
%TO.C,U6*%
X153660000Y-109165000D03*
X155560000Y-109165000D03*
X154610000Y-106890000D03*
%TD*%
D53*
%TO.C,C39*%
X147415000Y-95437500D03*
X145865000Y-95437500D03*
%TD*%
D54*
%TO.C,C30*%
X155450000Y-110650000D03*
X154490000Y-110650000D03*
%TD*%
D21*
%TO.C,R4*%
X164870000Y-76040000D03*
X164870000Y-75020000D03*
%TD*%
D12*
%TO.C,C25*%
X132600000Y-98130000D03*
X132600000Y-98820000D03*
%TD*%
D40*
%TO.C,C36*%
X146280000Y-97137500D03*
X147240000Y-97137500D03*
%TD*%
M02*
