M48
METRIC
T1C0.200
T2C0.300
T3C0.650
T4C0.700
T5C1.000
%
G90
G05
T1
X129.4Y-104.7
X147.63Y-105.66
T2
X119.6Y-83.2
X119.7Y-84.7
X119.96Y-80.99
X120.33Y-79.34
X120.6Y-86.0
X120.71Y-84.3
X121.09Y-94.73
X121.16Y-80.66
X121.56Y-83.38
X121.88Y-69.205
X121.88Y-71.745
X121.88Y-74.285
X121.88Y-76.825
X122.0Y-86.2
X122.38Y-85.14
X122.65Y-80.97
X123.37Y-94.7
X123.39Y-84.27
X123.44Y-79.06
X123.9Y-86.2
X124.14Y-81.08
X124.29Y-85.09
X124.42Y-69.205
X124.42Y-71.745
X124.42Y-74.285
X124.42Y-76.825
X125.21Y-80.7
X125.24Y-84.28
X125.44Y-85.19
X125.5Y-86.1
X125.64Y-95.18
X125.7Y-104.5
X125.71Y-97.27
X125.9Y-102.1
X126.12Y-80.8
X126.2Y-100.6
X126.2Y-101.1
X126.21Y-84.64
X126.3Y-104.5
X126.4Y-94.81
X126.6Y-102.0
X126.8Y-86.0
X126.9Y-104.2
X126.95Y-84.8
X126.96Y-69.205
X126.96Y-71.745
X126.96Y-74.285
X126.96Y-76.825
X126.96Y-86.985
X126.96Y-109.845
X126.96Y-114.925
X127.0Y-101.5
X127.24Y-103.66
X127.37Y-88.57
X127.43Y-102.37
X127.457Y-108.9
X127.52Y-95.08
X127.63Y-80.85
X127.75Y-101.17
X127.86Y-103.66
X127.89Y-102.03
X128.36Y-79.37
X128.37Y-102.37
X128.56Y-103.68
X128.6Y-100.12
X128.61Y-104.39
X128.7Y-101.1
X129.19Y-74.79
X129.27Y-102.18
X129.5Y-69.205
X129.5Y-109.845
X129.6Y-99.4
X129.6Y-100.5
X130.077Y-107.692
X130.3Y-100.0
X130.8Y-97.1
X131.1Y-99.8
X131.26Y-74.77
X131.31Y-106.72
X131.6Y-98.0
X132.04Y-69.205
X132.04Y-112.385
X132.04Y-114.925
X132.1Y-87.4
X132.13Y-81.0
X132.2Y-88.6
X132.2Y-91.0
X132.2Y-92.1
X132.2Y-93.1
X132.41Y-85.17
X132.61Y-101.14
X132.65Y-104.65
X132.69Y-103.24
X132.8Y-94.2
X132.8Y-97.8
X132.88Y-107.4
X132.9Y-109.84
X133.6Y-95.0
X133.97Y-85.19
X133.98Y-74.77
X134.02Y-103.11
X134.05Y-104.61
X134.1Y-101.18
X134.2Y-108.1
X134.39Y-107.4
X134.58Y-69.205
X134.58Y-79.365
X134.58Y-112.385
X134.58Y-114.925
X134.88Y-91.06
X134.88Y-93.63
X135.15Y-80.83
X135.23Y-98.74
X135.5Y-96.4
X135.53Y-85.2
X135.54Y-101.1
X135.56Y-103.1
X135.57Y-104.65
X135.93Y-93.63
X136.48Y-97.56
X136.72Y-74.72
X136.91Y-98.59
X137.05Y-85.18
X137.12Y-69.205
X137.12Y-112.385
X137.12Y-114.925
X137.49Y-106.74
X137.62Y-97.76
X137.79Y-95.45
X137.95Y-80.44
X138.1Y-93.49
X138.12Y-90.85
X138.13Y-109.24
X138.17Y-88.22
X138.22Y-99.27
X138.54Y-85.16
X138.66Y-80.91
X138.69Y-99.94
X138.7Y-101.2
X138.72Y-95.41
X138.9Y-97.7
X138.95Y-93.59
X139.1Y-107.34
X139.26Y-99.31
X139.365Y-82.735
X139.66Y-69.205
X139.66Y-71.745
X139.66Y-74.285
X139.66Y-76.825
X139.66Y-79.365
X139.66Y-114.925
X139.81Y-85.185
X139.83Y-96.38
X140.0Y-97.4
X140.2Y-106.5
X140.6Y-92.5
X141.6Y-97.2
X141.7Y-98.16
X142.18Y-95.28
X142.2Y-69.205
X142.2Y-71.745
X142.2Y-74.285
X142.2Y-76.825
X142.2Y-79.365
X142.2Y-99.0
X142.24Y-89.91
X142.24Y-92.237
X142.54Y-97.44
X142.59Y-95.94
X143.5Y-103.6
X143.5Y-106.4
X143.9Y-88.0
X144.03Y-94.22
X144.2Y-97.4
X144.35Y-84.33
X144.41Y-106.39
X144.42Y-104.12
X144.74Y-69.205
X144.74Y-71.745
X144.74Y-74.285
X144.74Y-76.825
X144.74Y-114.925
X144.97Y-95.438
X145.35Y-84.33
X145.5Y-79.42
X145.6Y-92.4
X145.8Y-98.2
X146.1Y-106.2
X146.18Y-102.46
X146.3Y-81.2
X146.35Y-104.33
X146.7Y-82.9
X146.7Y-107.3
X147.0Y-98.6
X147.2Y-92.3
X147.28Y-69.205
X147.28Y-71.745
X147.28Y-74.285
X147.28Y-76.825
X147.28Y-79.365
X147.28Y-81.905
X147.28Y-84.445
X147.28Y-109.845
X147.28Y-114.925
X147.6Y-83.6
X148.18Y-106.82
X148.26Y-102.42
X148.3Y-84.5
X148.3Y-98.1
X148.75Y-104.3
X148.94Y-87.48
X149.09Y-105.65
X149.13Y-106.89
X149.13Y-108.16
X149.2Y-85.1
X149.5Y-97.9
X149.82Y-69.205
X149.82Y-71.745
X149.82Y-74.285
X149.82Y-76.825
X149.82Y-79.365
X149.82Y-81.905
X149.82Y-84.445
X149.82Y-99.685
X149.82Y-109.845
X150.3Y-85.8
X150.54Y-95.137
X150.6Y-104.5
X150.74Y-89.09
X151.2Y-97.9
X151.4Y-86.1
X151.55Y-87.01
X151.7Y-105.1
X152.07Y-98.022
X152.36Y-69.205
X152.36Y-71.745
X152.36Y-74.285
X152.36Y-76.825
X152.36Y-79.365
X152.36Y-81.905
X152.36Y-84.445
X152.41Y-101.102
X152.7Y-86.6
X152.9Y-87.8
X153.07Y-98.012
X153.3Y-92.1
X153.3Y-104.17
X153.4Y-93.5
X153.4Y-96.9
X153.66Y-109.165
X153.8Y-88.7
X153.9Y-90.4
X154.49Y-110.65
X154.9Y-69.205
X154.9Y-71.745
X154.9Y-74.285
X154.9Y-76.825
X154.9Y-79.365
X154.9Y-81.905
X154.9Y-84.445
X154.9Y-86.985
X154.9Y-89.525
X154.9Y-92.065
X154.9Y-94.605
X154.9Y-114.925
X155.1Y-100.602
X155.12Y-101.402
X155.61Y-105.5
X157.44Y-69.205
X157.44Y-71.745
X157.44Y-76.825
X157.44Y-79.365
X157.44Y-81.905
X157.44Y-89.525
X157.44Y-99.685
X157.44Y-104.765
X157.44Y-107.305
X157.44Y-109.845
X157.44Y-114.925
X159.51Y-94.58
X159.89Y-92.09
X159.98Y-69.205
X159.98Y-76.825
X159.98Y-79.365
X159.98Y-81.905
X159.98Y-99.685
X159.98Y-104.765
X159.98Y-107.305
X159.98Y-109.845
X159.98Y-114.925
X160.25Y-94.11
X160.73Y-92.62
X161.34Y-96.07
X161.9Y-93.1
X162.46Y-95.14
X162.52Y-69.205
X162.52Y-71.745
X162.52Y-74.285
X162.52Y-76.825
X162.52Y-89.525
X162.52Y-104.765
X162.52Y-107.305
X162.52Y-109.845
X162.52Y-112.385
X162.52Y-114.925
X163.38Y-94.99
X163.82Y-79.94
X164.03Y-78.88
X164.26Y-95.13
X164.7Y-76.96
X164.91Y-74.19
X165.06Y-69.205
X165.06Y-71.745
X165.06Y-84.445
X165.06Y-86.985
X165.06Y-89.525
X165.06Y-92.065
X165.06Y-102.225
X165.06Y-109.845
X165.06Y-112.385
X165.06Y-114.925
X165.6Y-97.84
X165.71Y-77.95
X165.76Y-74.48
X165.91Y-75.37
X166.47Y-97.32
X166.86Y-73.18
X166.97Y-80.41
X167.6Y-69.205
X167.6Y-84.445
X167.6Y-86.985
X167.6Y-89.525
X167.6Y-92.065
X167.6Y-94.605
X167.6Y-99.685
X167.6Y-102.225
X167.6Y-109.845
X167.6Y-112.385
X167.6Y-114.925
X170.14Y-69.205
X170.14Y-84.445
X170.14Y-86.985
X170.14Y-89.525
X170.14Y-92.065
X170.14Y-94.605
X170.14Y-97.145
X170.14Y-99.685
X170.14Y-102.225
X170.14Y-104.765
X170.14Y-107.305
X170.14Y-109.845
X170.14Y-112.385
X170.14Y-114.925
X172.68Y-84.445
X172.68Y-86.985
X172.68Y-89.525
X172.68Y-92.065
X172.68Y-94.605
X172.68Y-97.145
X172.68Y-99.685
X172.68Y-102.225
X172.68Y-104.765
X172.68Y-107.305
X172.68Y-109.845
X172.68Y-112.385
X172.68Y-114.925
T5
X120.78Y-92.86
X123.32Y-92.86
X125.86Y-92.86
X130.31Y-72.45
X132.85Y-72.45
X135.39Y-72.45
X137.93Y-72.45
X142.0Y-108.96
X142.0Y-111.5
X142.0Y-114.04
X149.18Y-113.49
X151.72Y-113.49
T3
X167.82Y-71.175G85X168.52Y-71.175
G05
X167.82Y-82.325G85X168.52Y-82.325
G05
T4
X171.27Y-71.145G85X172.27Y-71.145
G05
X171.27Y-82.325G85X172.27Y-82.325
G05
M30
