%TF.GenerationSoftware,KiCad,Pcbnew,8.0.3*%
%TF.CreationDate,2026-06-18T17:15:29-07:00*%
%TF.ProjectId,50p_spectra6_4,3530705f-7370-4656-9374-7261365f342e,rev?*%
%TF.SameCoordinates,Original*%
%TF.FileFunction,Profile,NP*%
%FSLAX46Y46*%
G04 Gerber Fmt 4.6, Leading zero omitted, Abs format (unit mm)*
G04 Created by KiCad (PCBNEW 8.0.3) date 2026-06-18 17:15:29*
%MOMM*%
%LPD*%
G01*
G04 APERTURE LIST*
%TA.AperFunction,Profile*%
%ADD10C,0.050000*%
%TD*%
G04 APERTURE END LIST*
D10*
X173560000Y-81300000D02*
X167790000Y-81300000D01*
X173559488Y-114967528D02*
G75*
G02*
X172559488Y-115967488I-999988J28D01*
G01*
X125150000Y-88770000D02*
G75*
G02*
X121350000Y-88770000I-1900000J0D01*
G01*
X121350000Y-88770000D02*
G75*
G02*
X125150000Y-88770000I1900000J0D01*
G01*
X173560000Y-72200000D02*
X173559488Y-69367528D01*
X167790000Y-81300000D02*
X167790000Y-72200000D01*
X120059488Y-115967528D02*
G75*
G02*
X119059472Y-114967528I-88J999928D01*
G01*
X173560000Y-81300000D02*
X173559488Y-114967528D01*
X161050000Y-85670000D02*
G75*
G02*
X157250000Y-85670000I-1900000J0D01*
G01*
X157250000Y-85670000D02*
G75*
G02*
X161050000Y-85670000I1900000J0D01*
G01*
X161050000Y-73870000D02*
G75*
G02*
X157250000Y-73870000I-1900000J0D01*
G01*
X157250000Y-73870000D02*
G75*
G02*
X161050000Y-73870000I1900000J0D01*
G01*
X119059488Y-114967528D02*
X119059488Y-69367528D01*
X120059488Y-68367528D02*
X172559488Y-68367528D01*
X167790000Y-72200000D02*
X173560000Y-72200000D01*
X119059488Y-69367528D02*
G75*
G02*
X120059488Y-68367488I1000012J28D01*
G01*
X131050000Y-112870000D02*
G75*
G02*
X127250000Y-112870000I-1900000J0D01*
G01*
X127250000Y-112870000D02*
G75*
G02*
X131050000Y-112870000I1900000J0D01*
G01*
X172559488Y-68367528D02*
G75*
G02*
X173559472Y-69367528I-88J-1000072D01*
G01*
X172559488Y-115967528D02*
X120059488Y-115967528D01*
X160550000Y-112370000D02*
G75*
G02*
X156750000Y-112370000I-1900000J0D01*
G01*
X156750000Y-112370000D02*
G75*
G02*
X160550000Y-112370000I1900000J0D01*
G01*
X169050000Y-105970000D02*
G75*
G02*
X165250000Y-105970000I-1900000J0D01*
G01*
X165250000Y-105970000D02*
G75*
G02*
X169050000Y-105970000I1900000J0D01*
G01*
M02*
