%TF.GenerationSoftware,KiCad,Pcbnew,8.0.3*%
%TF.CreationDate,2026-06-18T17:15:29-07:00*%
%TF.ProjectId,50p_spectra6_4,3530705f-7370-4656-9374-7261365f342e,rev?*%
%TF.SameCoordinates,Original*%
%TF.FileFunction,Copper,L4,Bot*%
%TF.FilePolarity,Positive*%
%FSLAX46Y46*%
G04 Gerber Fmt 4.6, Leading zero omitted, Abs format (unit mm)*
G04 Created by KiCad (PCBNEW 8.0.3) date 2026-06-18 17:15:29*
%MOMM*%
%LPD*%
G01*
G04 APERTURE LIST*
%TA.AperFunction,ComponentPad*%
%ADD10O,1.700000X1.000000*%
%TD*%
%TA.AperFunction,ComponentPad*%
%ADD11O,2.100000X1.100000*%
%TD*%
%TA.AperFunction,ComponentPad*%
%ADD12R,1.700000X1.700000*%
%TD*%
%TA.AperFunction,ComponentPad*%
%ADD13O,1.700000X1.700000*%
%TD*%
%TA.AperFunction,ViaPad*%
%ADD14C,0.600000*%
%TD*%
%TA.AperFunction,ViaPad*%
%ADD15C,0.450000*%
%TD*%
%TA.AperFunction,Conductor*%
%ADD16C,0.250000*%
%TD*%
%TA.AperFunction,Conductor*%
%ADD17C,0.400000*%
%TD*%
%TA.AperFunction,Conductor*%
%ADD18C,0.600000*%
%TD*%
%TA.AperFunction,Conductor*%
%ADD19C,0.156500*%
%TD*%
%TA.AperFunction,Conductor*%
%ADD20C,0.200000*%
%TD*%
%TA.AperFunction,Conductor*%
%ADD21C,0.150000*%
%TD*%
G04 APERTURE END LIST*
D10*
%TO.P,J2,S1,SHIELD*%
%TO.N,VSS_PA*%
X168170000Y-82325000D03*
D11*
X171770000Y-82325000D03*
D10*
X168170000Y-71175000D03*
D11*
X171770000Y-71145000D03*
%TD*%
D12*
%TO.P,J1,1,Pin_1*%
%TO.N,3V3*%
X142000000Y-114040000D03*
D13*
%TO.P,J1,2,Pin_2*%
%TO.N,VSS_PA*%
X142000000Y-111500000D03*
%TO.P,J1,3,Pin_3*%
%TO.N,TX*%
X142000000Y-108960000D03*
%TD*%
D12*
%TO.P,J6,1,Pin_1*%
%TO.N,Net-(J6-Pin_1)*%
X151720000Y-113490000D03*
D13*
%TO.P,J6,2,Pin_2*%
%TO.N,3V3*%
X149180000Y-113490000D03*
%TD*%
D12*
%TO.P,J5,1,Pin_1*%
%TO.N,SWDIO*%
X125860000Y-92860000D03*
D13*
%TO.P,J5,2,Pin_2*%
%TO.N,SWDCLK*%
X123320000Y-92860000D03*
%TO.P,J5,3,Pin_3*%
%TO.N,NRESET*%
X120780000Y-92860000D03*
%TD*%
D12*
%TO.P,J4,1,Pin_1*%
%TO.N,DC*%
X137930000Y-72450000D03*
D13*
%TO.P,J4,2,Pin_2*%
%TO.N,CS*%
X135390000Y-72450000D03*
%TO.P,J4,3,Pin_3*%
%TO.N,SCK*%
X132850000Y-72450000D03*
%TO.P,J4,4,Pin_4*%
%TO.N,MOSI*%
X130310000Y-72450000D03*
%TD*%
D14*
%TO.N,VSS_PA*%
X128610000Y-104390000D03*
X152070000Y-98022500D03*
X136480000Y-97560000D03*
X144350000Y-84330000D03*
X151400000Y-86100000D03*
X165060000Y-102225000D03*
X119700000Y-84700000D03*
X155610000Y-105500000D03*
X154900000Y-79365000D03*
X135500000Y-96400000D03*
X128360000Y-79370000D03*
X126960000Y-74285000D03*
X149200000Y-85100000D03*
X125210000Y-80700000D03*
X121880000Y-74285000D03*
X162520000Y-112385000D03*
X129500000Y-109845000D03*
X135150000Y-80830000D03*
X138720000Y-95410000D03*
X155100000Y-100602500D03*
X126960000Y-114925000D03*
X170140000Y-97145000D03*
X164260000Y-95130000D03*
X149820000Y-81905000D03*
X142200000Y-71745000D03*
X134880000Y-93630000D03*
X154900000Y-86985000D03*
X172680000Y-109845000D03*
X170140000Y-92065000D03*
X154900000Y-71745000D03*
X149130000Y-108160000D03*
X139660000Y-74285000D03*
X144740000Y-74285000D03*
X166470000Y-97320000D03*
X159980000Y-76825000D03*
X145800000Y-98200000D03*
X123390000Y-84270000D03*
X126120000Y-80800000D03*
X120600000Y-86000000D03*
X151550000Y-87010000D03*
X157440000Y-71745000D03*
X144740000Y-114925000D03*
X154900000Y-92065000D03*
X138120000Y-90850000D03*
X132800000Y-97800000D03*
X149820000Y-99685000D03*
X150740000Y-89090000D03*
X165060000Y-109845000D03*
X132200000Y-93100000D03*
X126800000Y-86000000D03*
X142240000Y-92237500D03*
X132100000Y-87400000D03*
X132200000Y-91000000D03*
X126300000Y-104500000D03*
X135570000Y-104650000D03*
X167600000Y-112385000D03*
X148750000Y-104300000D03*
X152360000Y-69205000D03*
X133980000Y-74770000D03*
X147280000Y-114925000D03*
X157440000Y-109845000D03*
X152410000Y-101102500D03*
X167600000Y-89525000D03*
X162520000Y-69205000D03*
X153300000Y-92100000D03*
X146100000Y-106200000D03*
X141600000Y-97200000D03*
X157440000Y-89525000D03*
X148940000Y-87480000D03*
X152360000Y-79365000D03*
X142540000Y-97440000D03*
X137050000Y-85180000D03*
X129190000Y-74790000D03*
X154490000Y-110650000D03*
X139830000Y-96380000D03*
X121560000Y-83380000D03*
X166970000Y-80410000D03*
X165760000Y-74480000D03*
X134580000Y-69205000D03*
X128600000Y-100120000D03*
X144200000Y-97400000D03*
X172680000Y-114925000D03*
X125640000Y-95180000D03*
X125240000Y-84280000D03*
X165060000Y-114925000D03*
X127430000Y-102370000D03*
X170140000Y-86985000D03*
X126950000Y-84800000D03*
X149820000Y-109845000D03*
X142200000Y-99000000D03*
X135530000Y-85200000D03*
X140200000Y-106500000D03*
X139260000Y-99310000D03*
X159890000Y-92090000D03*
X139660000Y-71745000D03*
X145500000Y-79420000D03*
X147600000Y-83600000D03*
X132200000Y-88600000D03*
X137620000Y-97760000D03*
X157440000Y-107305000D03*
X167600000Y-84445000D03*
X151200000Y-97900000D03*
X126600000Y-102000000D03*
X162520000Y-89525000D03*
X167600000Y-94605000D03*
X165060000Y-112385000D03*
X128370000Y-102370000D03*
X126200000Y-100600000D03*
X166860000Y-73180000D03*
X133970000Y-85190000D03*
X162520000Y-104765000D03*
X145600000Y-92400000D03*
X149820000Y-71745000D03*
X170140000Y-69205000D03*
X126200000Y-101100000D03*
X144030000Y-94220000D03*
X147000000Y-98600000D03*
X139810000Y-85185000D03*
X139660000Y-69205000D03*
X157440000Y-104765000D03*
X137950000Y-80440000D03*
X159980000Y-104765000D03*
X159980000Y-81905000D03*
X138900000Y-97700000D03*
X132650000Y-104650000D03*
X143900000Y-88000000D03*
X140600000Y-92500000D03*
X153070000Y-98012500D03*
X152360000Y-76825000D03*
X134580000Y-112385000D03*
X147200000Y-92300000D03*
X131260000Y-74770000D03*
X165060000Y-71745000D03*
X151700000Y-105100000D03*
X134020000Y-103110000D03*
X170140000Y-109845000D03*
X130800000Y-97100000D03*
X162520000Y-107305000D03*
X167600000Y-109845000D03*
X157440000Y-69205000D03*
X167600000Y-92065000D03*
X134200000Y-108100000D03*
X172680000Y-94605000D03*
X167600000Y-86985000D03*
X139660000Y-76825000D03*
X125710000Y-97270000D03*
X142200000Y-69205000D03*
X153300000Y-104170000D03*
X149820000Y-74285000D03*
X149820000Y-84445000D03*
X165060000Y-89525000D03*
X119960000Y-80990000D03*
X124420000Y-69205000D03*
X152360000Y-84445000D03*
X167600000Y-102225000D03*
X147280000Y-76825000D03*
X129600000Y-99400000D03*
X157440000Y-76825000D03*
X126960000Y-76825000D03*
X146350000Y-104330000D03*
X159510000Y-94580000D03*
X149500000Y-97900000D03*
X170140000Y-104765000D03*
X172680000Y-107305000D03*
X165060000Y-84445000D03*
X146300000Y-81200000D03*
X123900000Y-86200000D03*
X143500000Y-106400000D03*
X127520000Y-95080000D03*
X135540000Y-101100000D03*
X144740000Y-69205000D03*
X159980000Y-114925000D03*
X132040000Y-112385000D03*
X154900000Y-69205000D03*
X132410000Y-85170000D03*
X148260000Y-102420000D03*
X172680000Y-97145000D03*
X164030000Y-78880000D03*
X125700000Y-104500000D03*
X147280000Y-79365000D03*
X127456930Y-108900000D03*
X138170000Y-88220000D03*
X146180000Y-102460000D03*
X164910000Y-74190000D03*
X155120000Y-101402500D03*
X137120000Y-114925000D03*
X170140000Y-99685000D03*
X120710000Y-84300000D03*
X147280000Y-69205000D03*
X167600000Y-114925000D03*
X134580000Y-114925000D03*
X152360000Y-81905000D03*
X130076930Y-107691590D03*
X138540000Y-85160000D03*
X134100000Y-101180000D03*
X152700000Y-86600000D03*
X172680000Y-104765000D03*
X147280000Y-74285000D03*
X147280000Y-81905000D03*
X154900000Y-84445000D03*
X147280000Y-71745000D03*
X172680000Y-84445000D03*
X153900000Y-90400000D03*
X154900000Y-94605000D03*
X157440000Y-114925000D03*
X121880000Y-71745000D03*
X162520000Y-109845000D03*
X137490000Y-106740000D03*
X138130000Y-109240000D03*
X143500000Y-103600000D03*
X142200000Y-79365000D03*
X150300000Y-85800000D03*
X170140000Y-112385000D03*
X159980000Y-99685000D03*
X150540000Y-95137500D03*
X134880000Y-91060000D03*
X132900000Y-109840000D03*
X124420000Y-74285000D03*
X127240000Y-103660000D03*
X127860000Y-103660000D03*
X147280000Y-84445000D03*
X125900000Y-102100000D03*
X157440000Y-81905000D03*
X163820000Y-79940000D03*
X121880000Y-69205000D03*
X165060000Y-86985000D03*
X153400000Y-96900000D03*
X128560000Y-103680000D03*
X172680000Y-89525000D03*
X152360000Y-74285000D03*
X134580000Y-79365000D03*
X162520000Y-71745000D03*
X122000000Y-86200000D03*
X161340000Y-96070000D03*
X132690000Y-103240000D03*
X124420000Y-76825000D03*
X126210000Y-84640000D03*
D15*
X147630000Y-105660000D03*
D14*
X119600000Y-83200000D03*
X144740000Y-76825000D03*
X142590000Y-95940000D03*
X154900000Y-114925000D03*
X172680000Y-92065000D03*
X154900000Y-74285000D03*
X154900000Y-89525000D03*
X149820000Y-79365000D03*
X126900000Y-104200000D03*
X135560000Y-103100000D03*
X136720000Y-74720000D03*
X148300000Y-98100000D03*
X139660000Y-114925000D03*
X126960000Y-71745000D03*
X142200000Y-74285000D03*
X144740000Y-71745000D03*
X152900000Y-87800000D03*
X129500000Y-69205000D03*
X149820000Y-76825000D03*
X140000000Y-97400000D03*
X124420000Y-71745000D03*
X159980000Y-109845000D03*
X153800000Y-88700000D03*
X149820000Y-69205000D03*
X170140000Y-89525000D03*
X152360000Y-71745000D03*
X157440000Y-79365000D03*
X153400000Y-93500000D03*
X142200000Y-76825000D03*
X170140000Y-94605000D03*
X127000000Y-101500000D03*
X121880000Y-76825000D03*
X170140000Y-107305000D03*
X165060000Y-69205000D03*
X162520000Y-114925000D03*
X170140000Y-102225000D03*
X167600000Y-99685000D03*
X162520000Y-76825000D03*
X132040000Y-69205000D03*
X145350000Y-84330000D03*
X132130000Y-81000000D03*
X170140000Y-84445000D03*
X154900000Y-81905000D03*
X132800000Y-94200000D03*
X170140000Y-114925000D03*
X137120000Y-69205000D03*
X149130000Y-106890000D03*
X138950000Y-93590000D03*
X125440000Y-85190000D03*
X161900000Y-93100000D03*
X146700000Y-82900000D03*
X162520000Y-74285000D03*
X167600000Y-69205000D03*
X132610000Y-101140000D03*
X120330000Y-79340000D03*
X165060000Y-92065000D03*
X147280000Y-109845000D03*
X134050000Y-104610000D03*
X148300000Y-84500000D03*
X132200000Y-92100000D03*
X131100000Y-99800000D03*
X129270000Y-102180000D03*
X125500000Y-86100000D03*
X159980000Y-79365000D03*
X132040000Y-114925000D03*
X139660000Y-79365000D03*
X164700000Y-76960000D03*
X172680000Y-99685000D03*
X126960000Y-69205000D03*
X133600000Y-95000000D03*
X134390000Y-107400000D03*
X172680000Y-102225000D03*
X127370000Y-88570000D03*
X172680000Y-86985000D03*
X126960000Y-86985000D03*
X159980000Y-107305000D03*
X172680000Y-112385000D03*
X157440000Y-99685000D03*
X127750000Y-101170000D03*
X153660000Y-109165000D03*
X126960000Y-109845000D03*
X159980000Y-69205000D03*
X127890000Y-102030000D03*
X138690000Y-99940000D03*
X137120000Y-112385000D03*
X154900000Y-76825000D03*
X123440000Y-79060000D03*
%TO.N,3V3*%
X144410000Y-106390000D03*
X138700000Y-101200000D03*
X127630000Y-80850000D03*
X131310000Y-106720000D03*
X139100000Y-107340000D03*
X144420000Y-104120000D03*
X138220000Y-99270000D03*
X131600000Y-98000000D03*
X135930000Y-93630000D03*
%TO.N,5VUSB*%
X165710000Y-77950000D03*
X165910000Y-75370000D03*
D15*
%TO.N,Net-(U3-DECA)*%
X129400000Y-104700000D03*
D14*
X132880000Y-107400000D03*
%TO.N,Net-(U4-VDD)*%
X160250000Y-94110000D03*
X163380000Y-94990000D03*
%TO.N,Net-(U4-PAD)*%
X162460000Y-95140000D03*
X160730000Y-92620000D03*
%TO.N,BATT*%
X150600000Y-104500000D03*
X165600000Y-97840000D03*
X149090000Y-105650000D03*
X148180000Y-106820000D03*
%TO.N,Net-(C33-Pad2)*%
X124290000Y-85090000D03*
X124140000Y-81080000D03*
%TO.N,Net-(C35-Pad2)*%
X122650000Y-80970000D03*
X122380000Y-85140000D03*
%TO.N,VGL*%
X142240000Y-89910000D03*
X139365000Y-82735000D03*
%TO.N,VPH*%
X138660000Y-80910000D03*
X144970000Y-95437500D03*
%TO.N,SWDIO*%
X130300000Y-100000000D03*
X126400000Y-94810000D03*
%TO.N,SWDCLK*%
X123370000Y-94700000D03*
X129600000Y-100500000D03*
%TO.N,NRESET*%
X128700000Y-101100000D03*
X121090000Y-94730000D03*
%TO.N,VGH*%
X142180000Y-95280000D03*
X121160000Y-80660000D03*
%TO.N,GDRC*%
X137790000Y-95450000D03*
X138100000Y-93490000D03*
%TO.N,CHG*%
X136910000Y-98590000D03*
X141700000Y-98160000D03*
%TO.N,GP*%
X135230000Y-98740000D03*
X146700000Y-107300000D03*
%TD*%
D16*
%TO.N,3V3*%
X139100000Y-107340000D02*
X136040000Y-107340000D01*
X137800000Y-100300000D02*
X138700000Y-101200000D01*
X136040000Y-107340000D02*
X135410000Y-106710000D01*
X138220000Y-99270000D02*
X138220000Y-99280000D01*
X135400000Y-106720000D02*
X131310000Y-106720000D01*
X134470000Y-96970000D02*
X134470000Y-95680000D01*
X133350000Y-96800000D02*
X134470000Y-95680000D01*
X138220000Y-99270000D02*
X136770000Y-99270000D01*
X135410000Y-106710000D02*
X135400000Y-106720000D01*
D17*
X127630000Y-85330000D02*
X127630000Y-83830000D01*
D16*
X132800000Y-96800000D02*
X133350000Y-96800000D01*
X127630000Y-80850000D02*
X127630000Y-83830000D01*
D17*
X135930000Y-93630000D02*
X127630000Y-85330000D01*
D16*
X131600000Y-98000000D02*
X132800000Y-96800000D01*
X138220000Y-99280000D02*
X137800000Y-99700000D01*
X144410000Y-104130000D02*
X144420000Y-104120000D01*
X136770000Y-99270000D02*
X134470000Y-96970000D01*
X137800000Y-99700000D02*
X137800000Y-100300000D01*
X144410000Y-106390000D02*
X144410000Y-104130000D01*
D18*
%TO.N,5VUSB*%
X165910000Y-77750000D02*
X165710000Y-77950000D01*
X165910000Y-75370000D02*
X165910000Y-77750000D01*
D19*
%TO.N,Net-(U3-DECA)*%
X131140000Y-107400000D02*
X132880000Y-107400000D01*
X129400000Y-105660000D02*
X131140000Y-107400000D01*
X129400000Y-104700000D02*
X129400000Y-105660000D01*
%TO.N,Net-(U4-VDD)*%
X160250000Y-94110000D02*
X161960000Y-95820000D01*
X161960000Y-95820000D02*
X162940000Y-95820000D01*
X163380000Y-95380000D02*
X163380000Y-94990000D01*
X162940000Y-95820000D02*
X163380000Y-95380000D01*
%TO.N,Net-(U4-PAD)*%
X162240000Y-95090000D02*
X162290000Y-95140000D01*
X160730000Y-92620000D02*
X160730000Y-93580000D01*
X162290000Y-95140000D02*
X162460000Y-95140000D01*
X160730000Y-93580000D02*
X162240000Y-95090000D01*
D16*
%TO.N,BATT*%
X149090000Y-105650000D02*
X148180000Y-106560000D01*
D18*
X165600000Y-97840000D02*
X160170000Y-103270000D01*
X160170000Y-103270000D02*
X151830000Y-103270000D01*
D16*
X148180000Y-106560000D02*
X148180000Y-106820000D01*
D18*
X151830000Y-103270000D02*
X150600000Y-104500000D01*
D19*
%TO.N,Net-(C33-Pad2)*%
X124290000Y-81230000D02*
X124290000Y-85090000D01*
X124140000Y-81080000D02*
X124290000Y-81230000D01*
%TO.N,Net-(C35-Pad2)*%
X122650000Y-80970000D02*
X122380000Y-81240000D01*
X122380000Y-81240000D02*
X122380000Y-85140000D01*
D20*
%TO.N,VGL*%
X139365000Y-82735000D02*
X142240000Y-85610000D01*
X142240000Y-85610000D02*
X142240000Y-89910000D01*
%TO.N,VPH*%
X139140000Y-84660000D02*
X139140000Y-87630000D01*
X145500000Y-94480000D02*
X144970000Y-95010000D01*
X139140000Y-87630000D02*
X145500000Y-93990000D01*
X138620000Y-84140000D02*
X139140000Y-84660000D01*
X138660000Y-80910000D02*
X138620000Y-80950000D01*
X145500000Y-93990000D02*
X145500000Y-94480000D01*
X138620000Y-80950000D02*
X138620000Y-84140000D01*
X144970000Y-95010000D02*
X144970000Y-95437500D01*
D21*
%TO.N,SWDIO*%
X126400000Y-95400000D02*
X126400000Y-94810000D01*
X130300000Y-99300000D02*
X126400000Y-95400000D01*
X130300000Y-100000000D02*
X130300000Y-99300000D01*
%TO.N,SWDCLK*%
X129600000Y-100175000D02*
X124125000Y-94700000D01*
X124125000Y-94700000D02*
X123370000Y-94700000D01*
X129600000Y-100500000D02*
X129600000Y-100175000D01*
%TO.N,NRESET*%
X128700000Y-101100000D02*
X122330000Y-94730000D01*
X122330000Y-94730000D02*
X121090000Y-94730000D01*
D16*
%TO.N,VGH*%
X130730000Y-84580000D02*
X130730000Y-82920000D01*
X130730000Y-82920000D02*
X127700000Y-79890000D01*
X142180000Y-95280000D02*
X141680000Y-95280000D01*
X127690000Y-79900000D02*
X121920000Y-79900000D01*
X132230000Y-86080000D02*
X130730000Y-84580000D01*
X121920000Y-79900000D02*
X121160000Y-80660000D01*
X127700000Y-79890000D02*
X127690000Y-79900000D01*
X132480000Y-86080000D02*
X132230000Y-86080000D01*
X141680000Y-95280000D02*
X132480000Y-86080000D01*
D18*
%TO.N,GDRC*%
X137790000Y-95450000D02*
X137790000Y-93800000D01*
X137790000Y-93800000D02*
X138100000Y-93490000D01*
D20*
%TO.N,CHG*%
X141260000Y-98600000D02*
X136920000Y-98600000D01*
X136920000Y-98600000D02*
X136910000Y-98590000D01*
X141700000Y-98160000D02*
X141260000Y-98600000D01*
D16*
%TO.N,GP*%
X135230000Y-99330000D02*
X135230000Y-98740000D01*
X146460000Y-107540000D02*
X143440000Y-107540000D01*
X146700000Y-107300000D02*
X146460000Y-107540000D01*
X143440000Y-107540000D02*
X135230000Y-99330000D01*
%TD*%
%TA.AperFunction,Conductor*%
%TO.N,VSS_PA*%
G36*
X125363769Y-79274500D02*
G01*
X121858389Y-79274500D01*
X121797971Y-79286518D01*
X121754743Y-79295116D01*
X121737546Y-79298537D01*
X121623716Y-79345687D01*
X121623707Y-79345692D01*
X121521268Y-79414140D01*
X121477705Y-79457703D01*
X121434142Y-79501267D01*
X121434139Y-79501270D01*
X121101621Y-79833787D01*
X121040298Y-79867272D01*
X121027825Y-79869326D01*
X120980750Y-79874630D01*
X120810478Y-79934210D01*
X120657737Y-80030184D01*
X120530184Y-80157737D01*
X120434211Y-80310476D01*
X120374631Y-80480745D01*
X120374630Y-80480750D01*
X120354435Y-80659996D01*
X120354435Y-80660003D01*
X120374630Y-80839249D01*
X120374631Y-80839254D01*
X120434211Y-81009523D01*
X120478495Y-81080000D01*
X120530184Y-81162262D01*
X120657738Y-81289816D01*
X120810478Y-81385789D01*
X120935460Y-81429522D01*
X120980745Y-81445368D01*
X120980750Y-81445369D01*
X121159996Y-81465565D01*
X121160000Y-81465565D01*
X121160004Y-81465565D01*
X121339249Y-81445369D01*
X121339252Y-81445368D01*
X121339255Y-81445368D01*
X121509522Y-81385789D01*
X121611277Y-81321851D01*
X121678514Y-81302851D01*
X121745349Y-81323218D01*
X121790564Y-81376486D01*
X121801250Y-81426845D01*
X121801250Y-84535310D01*
X121781565Y-84602349D01*
X121764931Y-84622991D01*
X121750184Y-84637737D01*
X121654211Y-84790476D01*
X121594631Y-84960745D01*
X121594630Y-84960750D01*
X121574435Y-85139996D01*
X121574435Y-85140003D01*
X121594630Y-85319249D01*
X121594631Y-85319254D01*
X121654211Y-85489523D01*
X121682367Y-85534332D01*
X121750184Y-85642262D01*
X121877738Y-85769816D01*
X122030478Y-85865789D01*
X122115573Y-85895565D01*
X122200745Y-85925368D01*
X122200750Y-85925369D01*
X122379996Y-85945565D01*
X122380000Y-85945565D01*
X122380004Y-85945565D01*
X122559249Y-85925369D01*
X122559252Y-85925368D01*
X122559255Y-85925368D01*
X122729522Y-85865789D01*
X122882262Y-85769816D01*
X123009816Y-85642262D01*
X123105789Y-85489522D01*
X123165368Y-85319255D01*
X123171002Y-85269254D01*
X123185565Y-85140003D01*
X123185565Y-85139996D01*
X123165369Y-84960750D01*
X123165368Y-84960745D01*
X123105788Y-84790476D01*
X123009815Y-84637737D01*
X122995069Y-84622991D01*
X122961584Y-84561668D01*
X122958750Y-84535310D01*
X122958750Y-81789939D01*
X122978435Y-81722900D01*
X123016777Y-81684946D01*
X123152262Y-81599816D01*
X123268897Y-81483180D01*
X123330216Y-81449698D01*
X123399908Y-81454682D01*
X123455842Y-81496553D01*
X123461569Y-81504892D01*
X123510184Y-81582262D01*
X123637738Y-81709816D01*
X123653221Y-81719544D01*
X123699511Y-81771875D01*
X123711250Y-81824538D01*
X123711250Y-84485310D01*
X123691565Y-84552349D01*
X123674931Y-84572991D01*
X123660184Y-84587737D01*
X123564211Y-84740476D01*
X123504631Y-84910745D01*
X123504630Y-84910750D01*
X123484435Y-85089996D01*
X123484435Y-85090003D01*
X123504630Y-85269249D01*
X123504631Y-85269254D01*
X123564211Y-85439523D01*
X123623784Y-85534332D01*
X123660184Y-85592262D01*
X123787738Y-85719816D01*
X123940478Y-85815789D01*
X124083367Y-85865788D01*
X124110745Y-85875368D01*
X124110750Y-85875369D01*
X124289996Y-85895565D01*
X124290000Y-85895565D01*
X124290004Y-85895565D01*
X124469249Y-85875369D01*
X124469252Y-85875368D01*
X124469255Y-85875368D01*
X124639522Y-85815789D01*
X124792262Y-85719816D01*
X124919816Y-85592262D01*
X125015789Y-85439522D01*
X125075368Y-85269255D01*
X125075369Y-85269249D01*
X125095565Y-85090003D01*
X125095565Y-85089996D01*
X125075369Y-84910750D01*
X125075368Y-84910745D01*
X125015788Y-84740476D01*
X124941967Y-84622991D01*
X124919816Y-84587738D01*
X124905069Y-84572991D01*
X124871584Y-84511668D01*
X124868750Y-84485310D01*
X124868750Y-81442126D01*
X124875709Y-81401171D01*
X124925368Y-81259255D01*
X124932098Y-81199522D01*
X124945565Y-81080003D01*
X124945565Y-81079996D01*
X124925369Y-80900750D01*
X124925368Y-80900745D01*
X124865788Y-80730475D01*
X124856361Y-80715473D01*
X124837360Y-80648237D01*
X124857727Y-80581401D01*
X124910994Y-80536187D01*
X124961354Y-80525500D01*
X125366895Y-80525500D01*
X125382573Y-86800000D01*
X124012697Y-86800000D01*
X123963293Y-86789733D01*
X123955059Y-86786156D01*
X123678364Y-86708630D01*
X123678359Y-86708629D01*
X123678358Y-86708629D01*
X123536018Y-86689064D01*
X123393679Y-86669500D01*
X123393678Y-86669500D01*
X123106322Y-86669500D01*
X123106321Y-86669500D01*
X122821642Y-86708629D01*
X122821635Y-86708630D01*
X122544940Y-86786156D01*
X122536707Y-86789733D01*
X122487303Y-86800000D01*
X119383988Y-86800000D01*
X119316949Y-86780315D01*
X119271194Y-86727511D01*
X119259988Y-86676000D01*
X119259988Y-69407406D01*
X119259989Y-69407404D01*
X119259988Y-69373607D01*
X119260585Y-69361458D01*
X119274149Y-69223697D01*
X119278889Y-69199859D01*
X119317296Y-69073239D01*
X119326590Y-69050799D01*
X119388967Y-68934092D01*
X119402467Y-68913890D01*
X119486401Y-68811611D01*
X119503579Y-68794430D01*
X119605874Y-68710475D01*
X119626065Y-68696985D01*
X119742764Y-68634605D01*
X119765205Y-68625309D01*
X119891832Y-68586896D01*
X119915656Y-68582156D01*
X120032975Y-68570599D01*
X120053025Y-68568625D01*
X120065180Y-68568028D01*
X125337018Y-68568028D01*
X125363769Y-79274500D01*
G37*
%TD.AperFunction*%
%TD*%
%TA.AperFunction,Conductor*%
%TO.N,VSS_PA*%
G36*
X138996826Y-82998325D02*
G01*
X139000426Y-83002192D01*
X139066947Y-83078963D01*
X139066948Y-83078964D01*
X139066951Y-83078967D01*
X139175931Y-83149004D01*
X139300228Y-83185500D01*
X139430587Y-83185500D01*
X139482913Y-83207174D01*
X141967826Y-85692087D01*
X141989500Y-85744413D01*
X141989500Y-89495067D01*
X141967826Y-89547393D01*
X141955511Y-89557318D01*
X141941953Y-89566031D01*
X141941950Y-89566034D01*
X141857119Y-89663935D01*
X141857118Y-89663936D01*
X141857118Y-89663937D01*
X141828153Y-89727362D01*
X141803299Y-89781783D01*
X141802740Y-89783687D01*
X141802024Y-89784574D01*
X141801105Y-89786588D01*
X141800590Y-89786353D01*
X141767195Y-89827782D01*
X141710882Y-89833827D01*
X141679415Y-89815154D01*
X139412174Y-87547913D01*
X139390500Y-87495587D01*
X139390500Y-84610172D01*
X139390499Y-84610170D01*
X139352365Y-84518105D01*
X139352363Y-84518102D01*
X138892174Y-84057913D01*
X138870500Y-84005587D01*
X138870500Y-83050651D01*
X138892174Y-82998325D01*
X138944500Y-82976651D01*
X138996826Y-82998325D01*
G37*
%TD.AperFunction*%
%TA.AperFunction,Conductor*%
G36*
X172563091Y-68568384D02*
G01*
X172708193Y-68582687D01*
X172722414Y-68585517D01*
X172858441Y-68626789D01*
X172871841Y-68632339D01*
X172997217Y-68699361D01*
X173009267Y-68707413D01*
X173046958Y-68738347D01*
X173119153Y-68797599D01*
X173129409Y-68807855D01*
X173219592Y-68917742D01*
X173227650Y-68929802D01*
X173294661Y-69055163D01*
X173300213Y-69068564D01*
X173341484Y-69204598D01*
X173344314Y-69218824D01*
X173358631Y-69364090D01*
X173358988Y-69371341D01*
X173358991Y-69414453D01*
X173358996Y-69414498D01*
X173359444Y-71891463D01*
X173359451Y-71925487D01*
X173337786Y-71977816D01*
X173285464Y-71999500D01*
X167750118Y-71999500D01*
X167676428Y-72030022D01*
X167620022Y-72086428D01*
X167589500Y-72160116D01*
X167589500Y-81339883D01*
X167620022Y-81413571D01*
X167620023Y-81413573D01*
X167620024Y-81413574D01*
X167676426Y-81469976D01*
X167750118Y-81500500D01*
X167829882Y-81500500D01*
X173285496Y-81500500D01*
X173337822Y-81522174D01*
X173359495Y-81574499D01*
X173359025Y-112489500D01*
X173358988Y-114948722D01*
X173358988Y-114963890D01*
X173358631Y-114971146D01*
X173344336Y-115116238D01*
X173341506Y-115130465D01*
X173300238Y-115266495D01*
X173294686Y-115279897D01*
X173227676Y-115405257D01*
X173219617Y-115417318D01*
X173129436Y-115527199D01*
X173119178Y-115537456D01*
X173009293Y-115627634D01*
X172997231Y-115635694D01*
X172871866Y-115702699D01*
X172858464Y-115708250D01*
X172722435Y-115749512D01*
X172708208Y-115752342D01*
X172650365Y-115758038D01*
X172562694Y-115766672D01*
X172555450Y-115767028D01*
X125528767Y-115767028D01*
X125476441Y-115745354D01*
X125454767Y-115693213D01*
X125447712Y-112869992D01*
X127044592Y-112869992D01*
X127044592Y-112870007D01*
X127064200Y-113156677D01*
X127064203Y-113156697D01*
X127122663Y-113438023D01*
X127122668Y-113438041D01*
X127218892Y-113708789D01*
X127218894Y-113708794D01*
X127344924Y-113952020D01*
X127351099Y-113963936D01*
X127516811Y-114198698D01*
X127712947Y-114408708D01*
X127935853Y-114590055D01*
X128181375Y-114739361D01*
X128444942Y-114853844D01*
X128721642Y-114931371D01*
X129006322Y-114970500D01*
X129006329Y-114970500D01*
X129293671Y-114970500D01*
X129293678Y-114970500D01*
X129578358Y-114931371D01*
X129855058Y-114853844D01*
X130118625Y-114739361D01*
X130364147Y-114590055D01*
X130587053Y-114408708D01*
X130783189Y-114198698D01*
X130948901Y-113963936D01*
X131081104Y-113708797D01*
X131117146Y-113607385D01*
X131177331Y-113438041D01*
X131177331Y-113438038D01*
X131177334Y-113438032D01*
X131191277Y-113370936D01*
X131231955Y-113175180D01*
X140999500Y-113175180D01*
X140999500Y-114904820D01*
X141008233Y-114948722D01*
X141041496Y-114998504D01*
X141091278Y-115031767D01*
X141135180Y-115040500D01*
X141135181Y-115040500D01*
X142864819Y-115040500D01*
X142864820Y-115040500D01*
X142908722Y-115031767D01*
X142958504Y-114998504D01*
X142991767Y-114948722D01*
X143000500Y-114904820D01*
X143000500Y-113490000D01*
X148174659Y-113490000D01*
X148193976Y-113686133D01*
X148251187Y-113874731D01*
X148298869Y-113963936D01*
X148344090Y-114048538D01*
X148469117Y-114200883D01*
X148621462Y-114325910D01*
X148651209Y-114341810D01*
X148795268Y-114418812D01*
X148795270Y-114418812D01*
X148795273Y-114418814D01*
X148983868Y-114476024D01*
X149180000Y-114495341D01*
X149376132Y-114476024D01*
X149564727Y-114418814D01*
X149738538Y-114325910D01*
X149890883Y-114200883D01*
X150015910Y-114048538D01*
X150108814Y-113874727D01*
X150166024Y-113686132D01*
X150185341Y-113490000D01*
X150166024Y-113293868D01*
X150108814Y-113105273D01*
X150108812Y-113105270D01*
X150108812Y-113105268D01*
X150057048Y-113008426D01*
X150015910Y-112931462D01*
X149890883Y-112779117D01*
X149738538Y-112654090D01*
X149728597Y-112648776D01*
X149684452Y-112625180D01*
X150719500Y-112625180D01*
X150719500Y-114354819D01*
X150728233Y-114398722D01*
X150741656Y-114418812D01*
X150761496Y-114448504D01*
X150811278Y-114481767D01*
X150855180Y-114490500D01*
X150855181Y-114490500D01*
X152584819Y-114490500D01*
X152584820Y-114490500D01*
X152628722Y-114481767D01*
X152678504Y-114448504D01*
X152711767Y-114398722D01*
X152720500Y-114354820D01*
X152720500Y-112625180D01*
X152711767Y-112581278D01*
X152678504Y-112531496D01*
X152628722Y-112498233D01*
X152584820Y-112489500D01*
X150855180Y-112489500D01*
X150833229Y-112493866D01*
X150811277Y-112498233D01*
X150761496Y-112531495D01*
X150761495Y-112531496D01*
X150728233Y-112581277D01*
X150719500Y-112625180D01*
X149684452Y-112625180D01*
X149564731Y-112561187D01*
X149376133Y-112503976D01*
X149180000Y-112484659D01*
X148983866Y-112503976D01*
X148795268Y-112561187D01*
X148621463Y-112654089D01*
X148469117Y-112779117D01*
X148344089Y-112931463D01*
X148251187Y-113105268D01*
X148193976Y-113293866D01*
X148174659Y-113490000D01*
X143000500Y-113490000D01*
X143000500Y-113175180D01*
X142991767Y-113131278D01*
X142958504Y-113081496D01*
X142908722Y-113048233D01*
X142864820Y-113039500D01*
X141135180Y-113039500D01*
X141113229Y-113043866D01*
X141091277Y-113048233D01*
X141041496Y-113081495D01*
X141041495Y-113081496D01*
X141008233Y-113131277D01*
X141008233Y-113131278D01*
X140999500Y-113175180D01*
X131231955Y-113175180D01*
X131235796Y-113156697D01*
X131235799Y-113156677D01*
X131255408Y-112870007D01*
X131255408Y-112869992D01*
X131235799Y-112583322D01*
X131235796Y-112583302D01*
X131191470Y-112369992D01*
X156544592Y-112369992D01*
X156544592Y-112370007D01*
X156564200Y-112656677D01*
X156564203Y-112656697D01*
X156622663Y-112938023D01*
X156622668Y-112938041D01*
X156718892Y-113208789D01*
X156718894Y-113208794D01*
X156837676Y-113438032D01*
X156851099Y-113463936D01*
X157016811Y-113698698D01*
X157212947Y-113908708D01*
X157435853Y-114090055D01*
X157681375Y-114239361D01*
X157944942Y-114353844D01*
X158221642Y-114431371D01*
X158506322Y-114470500D01*
X158506329Y-114470500D01*
X158793671Y-114470500D01*
X158793678Y-114470500D01*
X159078358Y-114431371D01*
X159355058Y-114353844D01*
X159618625Y-114239361D01*
X159864147Y-114090055D01*
X160087053Y-113908708D01*
X160283189Y-113698698D01*
X160448901Y-113463936D01*
X160581104Y-113208797D01*
X160581107Y-113208789D01*
X160677331Y-112938041D01*
X160677331Y-112938038D01*
X160677334Y-112938032D01*
X160735798Y-112656686D01*
X160738533Y-112616703D01*
X160755408Y-112370007D01*
X160755408Y-112369992D01*
X160735799Y-112083322D01*
X160735796Y-112083302D01*
X160677336Y-111801976D01*
X160677331Y-111801958D01*
X160581107Y-111531210D01*
X160581105Y-111531205D01*
X160448901Y-111276064D01*
X160448896Y-111276057D01*
X160405124Y-111214046D01*
X160283189Y-111041302D01*
X160087053Y-110831292D01*
X159864147Y-110649945D01*
X159864141Y-110649941D01*
X159864138Y-110649939D01*
X159750159Y-110580627D01*
X159618625Y-110500639D01*
X159618622Y-110500637D01*
X159618621Y-110500637D01*
X159355056Y-110386155D01*
X159078356Y-110308628D01*
X158793682Y-110269500D01*
X158793678Y-110269500D01*
X158506322Y-110269500D01*
X158506317Y-110269500D01*
X158221643Y-110308628D01*
X157944943Y-110386155D01*
X157681378Y-110500637D01*
X157681375Y-110500639D01*
X157435861Y-110649939D01*
X157435853Y-110649945D01*
X157212945Y-110831294D01*
X157016809Y-111041304D01*
X156851103Y-111276057D01*
X156851098Y-111276064D01*
X156718894Y-111531205D01*
X156718892Y-111531210D01*
X156622668Y-111801958D01*
X156622663Y-111801976D01*
X156564203Y-112083302D01*
X156564200Y-112083322D01*
X156544592Y-112369992D01*
X131191470Y-112369992D01*
X131177336Y-112301976D01*
X131177331Y-112301958D01*
X131081107Y-112031210D01*
X131081105Y-112031205D01*
X130948901Y-111776064D01*
X130948896Y-111776057D01*
X130783190Y-111541304D01*
X130783189Y-111541302D01*
X130587053Y-111331292D01*
X130364147Y-111149945D01*
X130364141Y-111149941D01*
X130364138Y-111149939D01*
X130185451Y-111041277D01*
X130118625Y-111000639D01*
X130118622Y-111000637D01*
X130118621Y-111000637D01*
X129855056Y-110886155D01*
X129578356Y-110808628D01*
X129293682Y-110769500D01*
X129293678Y-110769500D01*
X129006322Y-110769500D01*
X129006317Y-110769500D01*
X128721643Y-110808628D01*
X128444943Y-110886155D01*
X128181378Y-111000637D01*
X128181375Y-111000639D01*
X127935861Y-111149939D01*
X127935853Y-111149945D01*
X127712945Y-111331294D01*
X127516809Y-111541304D01*
X127351103Y-111776057D01*
X127351098Y-111776064D01*
X127218894Y-112031205D01*
X127218892Y-112031210D01*
X127122668Y-112301958D01*
X127122663Y-112301976D01*
X127064203Y-112583302D01*
X127064200Y-112583322D01*
X127044592Y-112869992D01*
X125447712Y-112869992D01*
X125440406Y-109946023D01*
X125437942Y-108960000D01*
X140994659Y-108960000D01*
X141013976Y-109156133D01*
X141071187Y-109344731D01*
X141158776Y-109508597D01*
X141164090Y-109518538D01*
X141289117Y-109670883D01*
X141441462Y-109795910D01*
X141518426Y-109837048D01*
X141615268Y-109888812D01*
X141615270Y-109888812D01*
X141615273Y-109888814D01*
X141803868Y-109946024D01*
X142000000Y-109965341D01*
X142196132Y-109946024D01*
X142384727Y-109888814D01*
X142558538Y-109795910D01*
X142710883Y-109670883D01*
X142835910Y-109518538D01*
X142928814Y-109344727D01*
X142986024Y-109156132D01*
X143005341Y-108960000D01*
X142986024Y-108763868D01*
X142928814Y-108575273D01*
X142928812Y-108575270D01*
X142928812Y-108575268D01*
X142877048Y-108478426D01*
X142835910Y-108401462D01*
X142710883Y-108249117D01*
X142558538Y-108124090D01*
X142548597Y-108118776D01*
X142384731Y-108031187D01*
X142196133Y-107973976D01*
X142000000Y-107954659D01*
X141803866Y-107973976D01*
X141615268Y-108031187D01*
X141441463Y-108124089D01*
X141289117Y-108249117D01*
X141164089Y-108401463D01*
X141071187Y-108575268D01*
X141013976Y-108763866D01*
X140994659Y-108960000D01*
X125437942Y-108960000D01*
X125427298Y-104700000D01*
X129019819Y-104700000D01*
X129038426Y-104817482D01*
X129038426Y-104817483D01*
X129051921Y-104843967D01*
X129090559Y-104919799D01*
X129092428Y-104923466D01*
X129149576Y-104980614D01*
X129171250Y-105032940D01*
X129171250Y-105705502D01*
X129185675Y-105740327D01*
X129206073Y-105789574D01*
X129206075Y-105789577D01*
X131010424Y-107593925D01*
X131052461Y-107611337D01*
X131094499Y-107628750D01*
X132448322Y-107628750D01*
X132500648Y-107650424D01*
X132504240Y-107654283D01*
X132535236Y-107690054D01*
X132581947Y-107743963D01*
X132581948Y-107743964D01*
X132581951Y-107743967D01*
X132690931Y-107814004D01*
X132815228Y-107850500D01*
X132944772Y-107850500D01*
X133069069Y-107814004D01*
X133178049Y-107743967D01*
X133262882Y-107646063D01*
X133316697Y-107528226D01*
X133335133Y-107400000D01*
X133316697Y-107271774D01*
X133262882Y-107153937D01*
X133262880Y-107153935D01*
X133262880Y-107153934D01*
X133262879Y-107153932D01*
X133231708Y-107117959D01*
X133213823Y-107064221D01*
X133239175Y-107013574D01*
X133287634Y-106995500D01*
X135275233Y-106995500D01*
X135327558Y-107017173D01*
X135883942Y-107573558D01*
X135985200Y-107615500D01*
X136094800Y-107615500D01*
X138708830Y-107615500D01*
X138761156Y-107637174D01*
X138764756Y-107641041D01*
X138801947Y-107683963D01*
X138801948Y-107683964D01*
X138801951Y-107683967D01*
X138910931Y-107754004D01*
X139035228Y-107790500D01*
X139164772Y-107790500D01*
X139289069Y-107754004D01*
X139398049Y-107683967D01*
X139482882Y-107586063D01*
X139536697Y-107468226D01*
X139555133Y-107340000D01*
X139536697Y-107211774D01*
X139482882Y-107093937D01*
X139398049Y-106996033D01*
X139291195Y-106927362D01*
X139289068Y-106925995D01*
X139164772Y-106889500D01*
X139035228Y-106889500D01*
X138910931Y-106925995D01*
X138801954Y-106996031D01*
X138801947Y-106996036D01*
X138764756Y-107038959D01*
X138714110Y-107064311D01*
X138708830Y-107064500D01*
X136184768Y-107064500D01*
X136132442Y-107042826D01*
X135566059Y-106476444D01*
X135566055Y-106476441D01*
X135464800Y-106434501D01*
X135355200Y-106434501D01*
X135344659Y-106438867D01*
X135316341Y-106444500D01*
X131701170Y-106444500D01*
X131648844Y-106422826D01*
X131645244Y-106418959D01*
X131608052Y-106376036D01*
X131608050Y-106376035D01*
X131608049Y-106376033D01*
X131530885Y-106326443D01*
X131499068Y-106305995D01*
X131374772Y-106269500D01*
X131245228Y-106269500D01*
X131120931Y-106305995D01*
X131011954Y-106376031D01*
X131011950Y-106376034D01*
X130927119Y-106473935D01*
X130927118Y-106473936D01*
X130927118Y-106473937D01*
X130925974Y-106476443D01*
X130873302Y-106591776D01*
X130866934Y-106636066D01*
X130838033Y-106684775D01*
X130783155Y-106698781D01*
X130741361Y-106677860D01*
X130207438Y-106143937D01*
X129650424Y-105586922D01*
X129628750Y-105534596D01*
X129628750Y-105032940D01*
X129650424Y-104980614D01*
X129707573Y-104923465D01*
X129761574Y-104817482D01*
X129780181Y-104700000D01*
X129761574Y-104582518D01*
X129707573Y-104476535D01*
X129623465Y-104392427D01*
X129571484Y-104365941D01*
X129517483Y-104338426D01*
X129400000Y-104319819D01*
X129282517Y-104338426D01*
X129282516Y-104338426D01*
X129176533Y-104392428D01*
X129092428Y-104476533D01*
X129038426Y-104582516D01*
X129038426Y-104582517D01*
X129019819Y-104700000D01*
X125427298Y-104700000D01*
X125411329Y-98309069D01*
X125432873Y-98256692D01*
X125485144Y-98234887D01*
X125537524Y-98256431D01*
X125537655Y-98256561D01*
X128235798Y-100954704D01*
X128257472Y-101007030D01*
X128256719Y-101017560D01*
X128244867Y-101099999D01*
X128263302Y-101228223D01*
X128263302Y-101228224D01*
X128263303Y-101228226D01*
X128317118Y-101346063D01*
X128401951Y-101443967D01*
X128510931Y-101514004D01*
X128635228Y-101550500D01*
X128764772Y-101550500D01*
X128889069Y-101514004D01*
X128998049Y-101443967D01*
X129082882Y-101346063D01*
X129136697Y-101228226D01*
X129155133Y-101100000D01*
X129136697Y-100971774D01*
X129082882Y-100853937D01*
X128998049Y-100756033D01*
X128931032Y-100712964D01*
X128889068Y-100685995D01*
X128764772Y-100649500D01*
X128635228Y-100649500D01*
X128635224Y-100649500D01*
X128625694Y-100652298D01*
X128569382Y-100646239D01*
X128552526Y-100633620D01*
X125430881Y-97511975D01*
X125409208Y-97459836D01*
X125406758Y-96479498D01*
X125428302Y-96427120D01*
X125480573Y-96405315D01*
X125532953Y-96426859D01*
X125533084Y-96426989D01*
X129234746Y-100128651D01*
X129256420Y-100180977D01*
X129238348Y-100229434D01*
X129217119Y-100253935D01*
X129217118Y-100253936D01*
X129163302Y-100371776D01*
X129144867Y-100500000D01*
X129163302Y-100628223D01*
X129163302Y-100628224D01*
X129163303Y-100628226D01*
X129217118Y-100746063D01*
X129301951Y-100843967D01*
X129410931Y-100914004D01*
X129535228Y-100950500D01*
X129664772Y-100950500D01*
X129789069Y-100914004D01*
X129898049Y-100843967D01*
X129982882Y-100746063D01*
X130036697Y-100628226D01*
X130055133Y-100500000D01*
X130055133Y-100499999D01*
X130055133Y-100496472D01*
X130076807Y-100444146D01*
X130129133Y-100422472D01*
X130149981Y-100425470D01*
X130235224Y-100450499D01*
X130235225Y-100450500D01*
X130235228Y-100450500D01*
X130364772Y-100450500D01*
X130489069Y-100414004D01*
X130598049Y-100343967D01*
X130682882Y-100246063D01*
X130736697Y-100128226D01*
X130755133Y-100000000D01*
X130736697Y-99871774D01*
X130682882Y-99753937D01*
X130598049Y-99656033D01*
X130598046Y-99656031D01*
X130559491Y-99631252D01*
X130527191Y-99584728D01*
X130525500Y-99569000D01*
X130525500Y-99353475D01*
X130525501Y-99353466D01*
X130525501Y-99255146D01*
X130525501Y-99255145D01*
X130501225Y-99196539D01*
X130491170Y-99172264D01*
X130427736Y-99108830D01*
X130423521Y-99104615D01*
X130423514Y-99104609D01*
X129318905Y-98000000D01*
X131144867Y-98000000D01*
X131163302Y-98128223D01*
X131163302Y-98128224D01*
X131163303Y-98128226D01*
X131217118Y-98246063D01*
X131301951Y-98343967D01*
X131410931Y-98414004D01*
X131535228Y-98450500D01*
X131664772Y-98450500D01*
X131789069Y-98414004D01*
X131898049Y-98343967D01*
X131982882Y-98246063D01*
X132036697Y-98128226D01*
X132055133Y-98000000D01*
X132052168Y-97979381D01*
X132066174Y-97924506D01*
X132073082Y-97916532D01*
X132892442Y-97097174D01*
X132944768Y-97075500D01*
X133404798Y-97075500D01*
X133404800Y-97075500D01*
X133506058Y-97033557D01*
X133583557Y-96956058D01*
X133583556Y-96956058D01*
X133618517Y-96921097D01*
X133618516Y-96921097D01*
X134068175Y-96471439D01*
X134120500Y-96449766D01*
X134172826Y-96471440D01*
X134194500Y-96523766D01*
X134194500Y-97024800D01*
X134215501Y-97075500D01*
X134236442Y-97126056D01*
X134236444Y-97126059D01*
X135273559Y-98163174D01*
X135295233Y-98215500D01*
X135273559Y-98267826D01*
X135221233Y-98289500D01*
X135165228Y-98289500D01*
X135040931Y-98325995D01*
X134931954Y-98396031D01*
X134931950Y-98396034D01*
X134847119Y-98493935D01*
X134793302Y-98611776D01*
X134774867Y-98740000D01*
X134793302Y-98868223D01*
X134793302Y-98868224D01*
X134793303Y-98868226D01*
X134847118Y-98986063D01*
X134931951Y-99083967D01*
X134931952Y-99083968D01*
X134935417Y-99087966D01*
X134933212Y-99089876D01*
X134954311Y-99132008D01*
X134954500Y-99137300D01*
X134954500Y-99384800D01*
X134970761Y-99424057D01*
X134988318Y-99466443D01*
X134988318Y-99466444D01*
X134996440Y-99486053D01*
X134996442Y-99486056D01*
X134996443Y-99486058D01*
X143283941Y-107773557D01*
X143283940Y-107773557D01*
X143313599Y-107785841D01*
X143385200Y-107815500D01*
X146514798Y-107815500D01*
X146514800Y-107815500D01*
X146616058Y-107773557D01*
X146617441Y-107772173D01*
X146619246Y-107771425D01*
X146622115Y-107769509D01*
X146622496Y-107770079D01*
X146669766Y-107750500D01*
X146764772Y-107750500D01*
X146889069Y-107714004D01*
X146998049Y-107643967D01*
X147082882Y-107546063D01*
X147136697Y-107428226D01*
X147155133Y-107300000D01*
X147136697Y-107171774D01*
X147082882Y-107053937D01*
X146998049Y-106956033D01*
X146931032Y-106912964D01*
X146889068Y-106885995D01*
X146764772Y-106849500D01*
X146635228Y-106849500D01*
X146510931Y-106885995D01*
X146401954Y-106956031D01*
X146401950Y-106956034D01*
X146317119Y-107053935D01*
X146263302Y-107171776D01*
X146259096Y-107201032D01*
X146230195Y-107249740D01*
X146185849Y-107264500D01*
X143584768Y-107264500D01*
X143532442Y-107242826D01*
X142679616Y-106390000D01*
X143954867Y-106390000D01*
X143973302Y-106518223D01*
X143973302Y-106518224D01*
X143973303Y-106518226D01*
X144027118Y-106636063D01*
X144111951Y-106733967D01*
X144220931Y-106804004D01*
X144345228Y-106840500D01*
X144474772Y-106840500D01*
X144544590Y-106820000D01*
X147724867Y-106820000D01*
X147743302Y-106948223D01*
X147743302Y-106948224D01*
X147743303Y-106948226D01*
X147797118Y-107066063D01*
X147881951Y-107163967D01*
X147990931Y-107234004D01*
X148115228Y-107270500D01*
X148244772Y-107270500D01*
X148369069Y-107234004D01*
X148478049Y-107163967D01*
X148562882Y-107066063D01*
X148616697Y-106948226D01*
X148635133Y-106820000D01*
X148618942Y-106707385D01*
X148616697Y-106691773D01*
X148581967Y-106615727D01*
X148579944Y-106559126D01*
X148596950Y-106532663D01*
X149007442Y-106122174D01*
X149059768Y-106100500D01*
X149154772Y-106100500D01*
X149279069Y-106064004D01*
X149388049Y-105993967D01*
X149408823Y-105969992D01*
X165044592Y-105969992D01*
X165044592Y-105970007D01*
X165064200Y-106256677D01*
X165064203Y-106256697D01*
X165122663Y-106538023D01*
X165122668Y-106538041D01*
X165218892Y-106808789D01*
X165218894Y-106808794D01*
X165351098Y-107063935D01*
X165351103Y-107063942D01*
X165426849Y-107171250D01*
X165516811Y-107298698D01*
X165712947Y-107508708D01*
X165935853Y-107690055D01*
X166181375Y-107839361D01*
X166444942Y-107953844D01*
X166721642Y-108031371D01*
X167006322Y-108070500D01*
X167006329Y-108070500D01*
X167293671Y-108070500D01*
X167293678Y-108070500D01*
X167578358Y-108031371D01*
X167855058Y-107953844D01*
X168118625Y-107839361D01*
X168364147Y-107690055D01*
X168587053Y-107508708D01*
X168783189Y-107298698D01*
X168948901Y-107063936D01*
X169081104Y-106808797D01*
X169081107Y-106808789D01*
X169177331Y-106538041D01*
X169177331Y-106538038D01*
X169177334Y-106538032D01*
X169190133Y-106476441D01*
X169235796Y-106256697D01*
X169235799Y-106256677D01*
X169255408Y-105970007D01*
X169255408Y-105969992D01*
X169235799Y-105683322D01*
X169235796Y-105683302D01*
X169177336Y-105401976D01*
X169177331Y-105401958D01*
X169081107Y-105131210D01*
X169081105Y-105131205D01*
X168948901Y-104876064D01*
X168948896Y-104876057D01*
X168907550Y-104817483D01*
X168783189Y-104641302D01*
X168587053Y-104431292D01*
X168364147Y-104249945D01*
X168364141Y-104249941D01*
X168364138Y-104249939D01*
X168209716Y-104156033D01*
X168118625Y-104100639D01*
X168118622Y-104100637D01*
X168118621Y-104100637D01*
X167855056Y-103986155D01*
X167578356Y-103908628D01*
X167293682Y-103869500D01*
X167293678Y-103869500D01*
X167006322Y-103869500D01*
X167006317Y-103869500D01*
X166721643Y-103908628D01*
X166444943Y-103986155D01*
X166181378Y-104100637D01*
X166181375Y-104100639D01*
X165935861Y-104249939D01*
X165935853Y-104249945D01*
X165760718Y-104392428D01*
X165712945Y-104431294D01*
X165516809Y-104641304D01*
X165351103Y-104876057D01*
X165351098Y-104876064D01*
X165218894Y-105131205D01*
X165218892Y-105131210D01*
X165122668Y-105401958D01*
X165122663Y-105401976D01*
X165064203Y-105683302D01*
X165064200Y-105683322D01*
X165044592Y-105969992D01*
X149408823Y-105969992D01*
X149472882Y-105896063D01*
X149526697Y-105778226D01*
X149545133Y-105650000D01*
X149526697Y-105521774D01*
X149472882Y-105403937D01*
X149388049Y-105306033D01*
X149321032Y-105262964D01*
X149279068Y-105235995D01*
X149154772Y-105199500D01*
X149025228Y-105199500D01*
X148900931Y-105235995D01*
X148791954Y-105306031D01*
X148791950Y-105306034D01*
X148707119Y-105403935D01*
X148653302Y-105521776D01*
X148634867Y-105650000D01*
X148637831Y-105670617D01*
X148623823Y-105725494D01*
X148616910Y-105733473D01*
X148023942Y-106326443D01*
X147946441Y-106403944D01*
X147938011Y-106424297D01*
X147909653Y-106458228D01*
X147893196Y-106468806D01*
X147881952Y-106476032D01*
X147881951Y-106476032D01*
X147881951Y-106476033D01*
X147881596Y-106476443D01*
X147797119Y-106573935D01*
X147743302Y-106691776D01*
X147724867Y-106820000D01*
X144544590Y-106820000D01*
X144599069Y-106804004D01*
X144708049Y-106733967D01*
X144792882Y-106636063D01*
X144846697Y-106518226D01*
X144865133Y-106390000D01*
X144846697Y-106261774D01*
X144792882Y-106143937D01*
X144708049Y-106046033D01*
X144708047Y-106046031D01*
X144704583Y-106042034D01*
X144706779Y-106040130D01*
X144685686Y-105997949D01*
X144685500Y-105992699D01*
X144685500Y-104525292D01*
X144695976Y-104500000D01*
X150144867Y-104500000D01*
X150148748Y-104526992D01*
X150149501Y-104537523D01*
X150149501Y-104559308D01*
X150156761Y-104586406D01*
X150158528Y-104595024D01*
X150163302Y-104628221D01*
X150163303Y-104628226D01*
X150172020Y-104647315D01*
X150176184Y-104658897D01*
X150180201Y-104673887D01*
X150180203Y-104673892D01*
X150197362Y-104703613D01*
X150200588Y-104709870D01*
X150217116Y-104746061D01*
X150226739Y-104757167D01*
X150234895Y-104768621D01*
X150239506Y-104776607D01*
X150239509Y-104776611D01*
X150239511Y-104776614D01*
X150268196Y-104805299D01*
X150268197Y-104805300D01*
X150271796Y-104809166D01*
X150276024Y-104814046D01*
X150301951Y-104843967D01*
X150309004Y-104848499D01*
X150321323Y-104858426D01*
X150323386Y-104860489D01*
X150363915Y-104883888D01*
X150366919Y-104885719D01*
X150410931Y-104914004D01*
X150412886Y-104914578D01*
X150412900Y-104914582D01*
X150421496Y-104918263D01*
X150421630Y-104917942D01*
X150426108Y-104919796D01*
X150426113Y-104919799D01*
X150477360Y-104933530D01*
X150479000Y-104933990D01*
X150535228Y-104950500D01*
X150664773Y-104950500D01*
X150696217Y-104941266D01*
X150720986Y-104933993D01*
X150722638Y-104933530D01*
X150760205Y-104923465D01*
X150773888Y-104919799D01*
X150778371Y-104917942D01*
X150778505Y-104918266D01*
X150787102Y-104914581D01*
X150789069Y-104914004D01*
X150833104Y-104885702D01*
X150836056Y-104883903D01*
X150876614Y-104860489D01*
X150878667Y-104858434D01*
X150890992Y-104848501D01*
X150898049Y-104843967D01*
X150928214Y-104809152D01*
X150931788Y-104805313D01*
X151994930Y-103742174D01*
X152047256Y-103720500D01*
X160229309Y-103720500D01*
X160319673Y-103696286D01*
X160319674Y-103696286D01*
X160330350Y-103693425D01*
X160343887Y-103689799D01*
X160446614Y-103630489D01*
X165878681Y-98198421D01*
X165890995Y-98188499D01*
X165898049Y-98183967D01*
X165928208Y-98149159D01*
X165931783Y-98145319D01*
X165960490Y-98116614D01*
X165965104Y-98108620D01*
X165973269Y-98097156D01*
X165982880Y-98086065D01*
X165982879Y-98086065D01*
X165982882Y-98086063D01*
X165999421Y-98049843D01*
X166002620Y-98043638D01*
X166019799Y-98013886D01*
X166023814Y-97998897D01*
X166027975Y-97987321D01*
X166036697Y-97968226D01*
X166041470Y-97935021D01*
X166043233Y-97926422D01*
X166050499Y-97899309D01*
X166050499Y-97877523D01*
X166051252Y-97866992D01*
X166055133Y-97840000D01*
X166051252Y-97813005D01*
X166050499Y-97802475D01*
X166050499Y-97780692D01*
X166050499Y-97780690D01*
X166043234Y-97753576D01*
X166041469Y-97744967D01*
X166036697Y-97711773D01*
X166027980Y-97692686D01*
X166023815Y-97681104D01*
X166019799Y-97666113D01*
X166002635Y-97636384D01*
X165999410Y-97630129D01*
X165982882Y-97593937D01*
X165973263Y-97582836D01*
X165965104Y-97571378D01*
X165960489Y-97563385D01*
X165931795Y-97534691D01*
X165928195Y-97530824D01*
X165898052Y-97496036D01*
X165898050Y-97496035D01*
X165898049Y-97496033D01*
X165890996Y-97491500D01*
X165878678Y-97481574D01*
X165876614Y-97479510D01*
X165836069Y-97456101D01*
X165833062Y-97454268D01*
X165812960Y-97441349D01*
X165789069Y-97425996D01*
X165789066Y-97425995D01*
X165789064Y-97425994D01*
X165787082Y-97425412D01*
X165778500Y-97421739D01*
X165778369Y-97422058D01*
X165773891Y-97420203D01*
X165773887Y-97420201D01*
X165770220Y-97419218D01*
X165722638Y-97406468D01*
X165720945Y-97405993D01*
X165664772Y-97389500D01*
X165535228Y-97389500D01*
X165535227Y-97389500D01*
X165479003Y-97406007D01*
X165477310Y-97406482D01*
X165426117Y-97420199D01*
X165421637Y-97422055D01*
X165421506Y-97421739D01*
X165412931Y-97425408D01*
X165410932Y-97425995D01*
X165366933Y-97454271D01*
X165363928Y-97456102D01*
X165323385Y-97479509D01*
X165321316Y-97481579D01*
X165309007Y-97491498D01*
X165301951Y-97496032D01*
X165271804Y-97530824D01*
X165268205Y-97534689D01*
X160005071Y-102797826D01*
X159952745Y-102819500D01*
X151770689Y-102819500D01*
X151680326Y-102843713D01*
X151666345Y-102847459D01*
X151656111Y-102850201D01*
X151553385Y-102909510D01*
X150321322Y-104141573D01*
X150309009Y-104151496D01*
X150301952Y-104156031D01*
X150271796Y-104190833D01*
X150268199Y-104194696D01*
X150239508Y-104223388D01*
X150234895Y-104231378D01*
X150226741Y-104242830D01*
X150217117Y-104253937D01*
X150217116Y-104253940D01*
X150200590Y-104290125D01*
X150197366Y-104296380D01*
X150180198Y-104326117D01*
X150176183Y-104341101D01*
X150172021Y-104352680D01*
X150163302Y-104371773D01*
X150158527Y-104404979D01*
X150156760Y-104413593D01*
X150149501Y-104440686D01*
X150149501Y-104462475D01*
X150148748Y-104473005D01*
X150147040Y-104484884D01*
X150144867Y-104500000D01*
X144695976Y-104500000D01*
X144707174Y-104472966D01*
X144714160Y-104467335D01*
X144718052Y-104463964D01*
X144802879Y-104366067D01*
X144802880Y-104366065D01*
X144802879Y-104366065D01*
X144802882Y-104366063D01*
X144856697Y-104248226D01*
X144875133Y-104120000D01*
X144856697Y-103991774D01*
X144802882Y-103873937D01*
X144718049Y-103776033D01*
X144631638Y-103720500D01*
X144609068Y-103705995D01*
X144484772Y-103669500D01*
X144355228Y-103669500D01*
X144230931Y-103705995D01*
X144121954Y-103776031D01*
X144121950Y-103776034D01*
X144037119Y-103873935D01*
X143983302Y-103991776D01*
X143964867Y-104120000D01*
X143983302Y-104248223D01*
X143983302Y-104248224D01*
X143983303Y-104248226D01*
X144025718Y-104341101D01*
X144037119Y-104366065D01*
X144037121Y-104366067D01*
X144056109Y-104387980D01*
X144101778Y-104440686D01*
X144116425Y-104457589D01*
X144134500Y-104506049D01*
X144134500Y-105992699D01*
X144114422Y-106041171D01*
X144115417Y-106042034D01*
X144112826Y-106045023D01*
X144112826Y-106045025D01*
X144112822Y-106045028D01*
X144027119Y-106143935D01*
X143973302Y-106261776D01*
X143954867Y-106390000D01*
X142679616Y-106390000D01*
X135527174Y-99237558D01*
X135505500Y-99185232D01*
X135505500Y-99137300D01*
X135525577Y-99088827D01*
X135524583Y-99087966D01*
X135527172Y-99084977D01*
X135527174Y-99084974D01*
X135527182Y-99084966D01*
X135528045Y-99083968D01*
X135528049Y-99083967D01*
X135612882Y-98986063D01*
X135666697Y-98868226D01*
X135684867Y-98741847D01*
X135713766Y-98693141D01*
X135768644Y-98679134D01*
X135810439Y-98700055D01*
X136613941Y-99503557D01*
X136638082Y-99513556D01*
X136638083Y-99513557D01*
X136638084Y-99513557D01*
X136715200Y-99545500D01*
X137455049Y-99545500D01*
X137507375Y-99567174D01*
X137529049Y-99619500D01*
X137525379Y-99637944D01*
X137525922Y-99638053D01*
X137524500Y-99645201D01*
X137524500Y-100354799D01*
X137564141Y-100450500D01*
X137564142Y-100450504D01*
X137566441Y-100456055D01*
X137566442Y-100456057D01*
X138226910Y-101116526D01*
X138248584Y-101168852D01*
X138247831Y-101179382D01*
X138244867Y-101199999D01*
X138263302Y-101328223D01*
X138263302Y-101328224D01*
X138263303Y-101328226D01*
X138317118Y-101446063D01*
X138401951Y-101543967D01*
X138510931Y-101614004D01*
X138635228Y-101650500D01*
X138764772Y-101650500D01*
X138889069Y-101614004D01*
X138998049Y-101543967D01*
X139082882Y-101446063D01*
X139136697Y-101328226D01*
X139155133Y-101200000D01*
X139136697Y-101071774D01*
X139082882Y-100953937D01*
X138998049Y-100856033D01*
X138931032Y-100812964D01*
X138889068Y-100785995D01*
X138764772Y-100749500D01*
X138669768Y-100749500D01*
X138617442Y-100727826D01*
X138097174Y-100207558D01*
X138075500Y-100155232D01*
X138075500Y-99844767D01*
X138097174Y-99792441D01*
X138147441Y-99742174D01*
X138199767Y-99720500D01*
X138284772Y-99720500D01*
X138409069Y-99684004D01*
X138518049Y-99613967D01*
X138602882Y-99516063D01*
X138656697Y-99398226D01*
X138675133Y-99270000D01*
X138656697Y-99141774D01*
X138602882Y-99023937D01*
X138602880Y-99023935D01*
X138602880Y-99023934D01*
X138602878Y-99023932D01*
X138558711Y-98972960D01*
X138540825Y-98919221D01*
X138566176Y-98868575D01*
X138614636Y-98850500D01*
X141309827Y-98850500D01*
X141309828Y-98850500D01*
X141401897Y-98812364D01*
X141582086Y-98632173D01*
X141634412Y-98610500D01*
X141764772Y-98610500D01*
X141889069Y-98574004D01*
X141998049Y-98503967D01*
X142082882Y-98406063D01*
X142136697Y-98288226D01*
X142155133Y-98160000D01*
X142136697Y-98031774D01*
X142082882Y-97913937D01*
X141998049Y-97816033D01*
X141931032Y-97772964D01*
X141889068Y-97745995D01*
X141764772Y-97709500D01*
X141635228Y-97709500D01*
X141510931Y-97745995D01*
X141401954Y-97816031D01*
X141401950Y-97816034D01*
X141317119Y-97913935D01*
X141317118Y-97913936D01*
X141317118Y-97913937D01*
X141303974Y-97942718D01*
X141263302Y-98031776D01*
X141244867Y-98160000D01*
X141252275Y-98211526D01*
X141238268Y-98266404D01*
X141231355Y-98274382D01*
X141177914Y-98327825D01*
X141125588Y-98349500D01*
X137331497Y-98349500D01*
X137279171Y-98327826D01*
X137275571Y-98323959D01*
X137208052Y-98246036D01*
X137208050Y-98246035D01*
X137208049Y-98246033D01*
X137125218Y-98192801D01*
X137099068Y-98175995D01*
X136974772Y-98139500D01*
X136845228Y-98139500D01*
X136720931Y-98175995D01*
X136611954Y-98246031D01*
X136611950Y-98246034D01*
X136527118Y-98343936D01*
X136527115Y-98343940D01*
X136479356Y-98448517D01*
X136437904Y-98487111D01*
X136381303Y-98485088D01*
X136359718Y-98470102D01*
X134767174Y-96877558D01*
X134745500Y-96825232D01*
X134745500Y-95625200D01*
X134738747Y-95608897D01*
X134703557Y-95523942D01*
X134629614Y-95449999D01*
X137334867Y-95449999D01*
X137338747Y-95476985D01*
X137339500Y-95487516D01*
X137339500Y-95509309D01*
X137346762Y-95536413D01*
X137348530Y-95545032D01*
X137353302Y-95578224D01*
X137353304Y-95578229D01*
X137362019Y-95597313D01*
X137366184Y-95608897D01*
X137370201Y-95623886D01*
X137387358Y-95653603D01*
X137390584Y-95659861D01*
X137407117Y-95696062D01*
X137416738Y-95707165D01*
X137424898Y-95718624D01*
X137429510Y-95726612D01*
X137458190Y-95755292D01*
X137461790Y-95759159D01*
X137491951Y-95793967D01*
X137499010Y-95798503D01*
X137511327Y-95808429D01*
X137513387Y-95810489D01*
X137547596Y-95830240D01*
X137553903Y-95833881D01*
X137556910Y-95835714D01*
X137600928Y-95864002D01*
X137600931Y-95864004D01*
X137602908Y-95864584D01*
X137611498Y-95868263D01*
X137611632Y-95867942D01*
X137616110Y-95869796D01*
X137616114Y-95869799D01*
X137667423Y-95883547D01*
X137668992Y-95883987D01*
X137713386Y-95897022D01*
X137725227Y-95900500D01*
X137725228Y-95900500D01*
X137854773Y-95900500D01*
X137866062Y-95897184D01*
X137911020Y-95883983D01*
X137912581Y-95883545D01*
X137963886Y-95869799D01*
X137963893Y-95869794D01*
X137968370Y-95867941D01*
X137968503Y-95868264D01*
X137977086Y-95864585D01*
X137979069Y-95864004D01*
X138023131Y-95835686D01*
X138026034Y-95833916D01*
X138066613Y-95810489D01*
X138068663Y-95808437D01*
X138080993Y-95798501D01*
X138088049Y-95793967D01*
X138118221Y-95759144D01*
X138121796Y-95755304D01*
X138150489Y-95726613D01*
X138155101Y-95718624D01*
X138163261Y-95707165D01*
X138172882Y-95696063D01*
X138189419Y-95659849D01*
X138192639Y-95653606D01*
X138209040Y-95625200D01*
X138209799Y-95623886D01*
X138213815Y-95608899D01*
X138217981Y-95597310D01*
X138226697Y-95578226D01*
X138231469Y-95545026D01*
X138233237Y-95536413D01*
X138240500Y-95509309D01*
X138240500Y-95487516D01*
X138241253Y-95476985D01*
X138242431Y-95468790D01*
X138245133Y-95450000D01*
X138241253Y-95423012D01*
X138240500Y-95412482D01*
X138240500Y-94017254D01*
X138262173Y-93964929D01*
X138378678Y-93848423D01*
X138390992Y-93838501D01*
X138398049Y-93833967D01*
X138428203Y-93799166D01*
X138431804Y-93795298D01*
X138460489Y-93766614D01*
X138465101Y-93758625D01*
X138473259Y-93747167D01*
X138482882Y-93736063D01*
X138499421Y-93699845D01*
X138502630Y-93693622D01*
X138519799Y-93663887D01*
X138523816Y-93648893D01*
X138527977Y-93637318D01*
X138536697Y-93618226D01*
X138541470Y-93585025D01*
X138543239Y-93576402D01*
X138550499Y-93549309D01*
X138550499Y-93527523D01*
X138551252Y-93516992D01*
X138555133Y-93490000D01*
X138551252Y-93463005D01*
X138550499Y-93452475D01*
X138550499Y-93430689D01*
X138550498Y-93430688D01*
X138543238Y-93403591D01*
X138541469Y-93394967D01*
X138536697Y-93361773D01*
X138527980Y-93342686D01*
X138523815Y-93331104D01*
X138519799Y-93316113D01*
X138502639Y-93286391D01*
X138499411Y-93280131D01*
X138482881Y-93243935D01*
X138473261Y-93232834D01*
X138465103Y-93221378D01*
X138460489Y-93213386D01*
X138431800Y-93184697D01*
X138428202Y-93180832D01*
X138398052Y-93146036D01*
X138398050Y-93146034D01*
X138398049Y-93146033D01*
X138390987Y-93141494D01*
X138378677Y-93131574D01*
X138376614Y-93129511D01*
X138376611Y-93129509D01*
X138376609Y-93129507D01*
X138336078Y-93106107D01*
X138333098Y-93104292D01*
X138289069Y-93075996D01*
X138289066Y-93075995D01*
X138289064Y-93075994D01*
X138287082Y-93075412D01*
X138278497Y-93071738D01*
X138278366Y-93072056D01*
X138273887Y-93070200D01*
X138222682Y-93056480D01*
X138220988Y-93056005D01*
X138164772Y-93039500D01*
X138035228Y-93039500D01*
X138035226Y-93039500D01*
X137979008Y-93056005D01*
X137977317Y-93056480D01*
X137926112Y-93070201D01*
X137921630Y-93072058D01*
X137921498Y-93071740D01*
X137912919Y-93075412D01*
X137910932Y-93075995D01*
X137866920Y-93104279D01*
X137863915Y-93106110D01*
X137823385Y-93129510D01*
X137821320Y-93131576D01*
X137809013Y-93141494D01*
X137801951Y-93146033D01*
X137771797Y-93180832D01*
X137768198Y-93184697D01*
X137429509Y-93523387D01*
X137370201Y-93626112D01*
X137367680Y-93635523D01*
X137367679Y-93635522D01*
X137367679Y-93635525D01*
X137339500Y-93740688D01*
X137339500Y-95412482D01*
X137338747Y-95423012D01*
X137334867Y-95449999D01*
X134629614Y-95449999D01*
X134626058Y-95446443D01*
X134626053Y-95446441D01*
X134569491Y-95423012D01*
X134524800Y-95404500D01*
X134415200Y-95404500D01*
X134364500Y-95425501D01*
X134364499Y-95425501D01*
X134313943Y-95446441D01*
X134313940Y-95446443D01*
X133257559Y-96502826D01*
X133205233Y-96524500D01*
X132745200Y-96524500D01*
X132673598Y-96554158D01*
X132643945Y-96566440D01*
X132643942Y-96566442D01*
X131682559Y-97527826D01*
X131630233Y-97549500D01*
X131535228Y-97549500D01*
X131410931Y-97585995D01*
X131301954Y-97656031D01*
X131301950Y-97656034D01*
X131217119Y-97753935D01*
X131163302Y-97871776D01*
X131144867Y-98000000D01*
X129318905Y-98000000D01*
X126647174Y-95328269D01*
X126625500Y-95275943D01*
X126625500Y-95240998D01*
X126647174Y-95188672D01*
X126659493Y-95178745D01*
X126698049Y-95153967D01*
X126782882Y-95056063D01*
X126836697Y-94938226D01*
X126855133Y-94810000D01*
X126836697Y-94681774D01*
X126782882Y-94563937D01*
X126698049Y-94466033D01*
X126592052Y-94397913D01*
X126589068Y-94395995D01*
X126464772Y-94359500D01*
X126335228Y-94359500D01*
X126210931Y-94395995D01*
X126101954Y-94466031D01*
X126101950Y-94466034D01*
X126017119Y-94563935D01*
X125963302Y-94681776D01*
X125944867Y-94810000D01*
X125963302Y-94938223D01*
X125963302Y-94938224D01*
X125963303Y-94938226D01*
X126017118Y-95056063D01*
X126101951Y-95153967D01*
X126140507Y-95178745D01*
X126172809Y-95225268D01*
X126174500Y-95240998D01*
X126174500Y-95349173D01*
X126174499Y-95349187D01*
X126174499Y-95444855D01*
X126192614Y-95488587D01*
X126208829Y-95527735D01*
X126282671Y-95601577D01*
X126282673Y-95601578D01*
X130052826Y-99371731D01*
X130074500Y-99424057D01*
X130074500Y-99569000D01*
X130052826Y-99621326D01*
X130040509Y-99631252D01*
X130001953Y-99656031D01*
X130001950Y-99656034D01*
X129917119Y-99753935D01*
X129863302Y-99871776D01*
X129853214Y-99941941D01*
X129824313Y-99990649D01*
X129769435Y-100004656D01*
X129731906Y-99985869D01*
X129731444Y-99986486D01*
X129731440Y-99986483D01*
X129729132Y-99984481D01*
X129727641Y-99983735D01*
X129723521Y-99979615D01*
X129723514Y-99979609D01*
X125426309Y-95682404D01*
X125404636Y-95630266D01*
X125400400Y-93934685D01*
X125421944Y-93882305D01*
X125474215Y-93860500D01*
X126724819Y-93860500D01*
X126724820Y-93860500D01*
X126768722Y-93851767D01*
X126818504Y-93818504D01*
X126851767Y-93768722D01*
X126860500Y-93724820D01*
X126860500Y-91995180D01*
X126851767Y-91951278D01*
X126818504Y-91901496D01*
X126768722Y-91868233D01*
X126724820Y-91859500D01*
X125469031Y-91859500D01*
X125416705Y-91837826D01*
X125395031Y-91785685D01*
X125389484Y-89566031D01*
X125382573Y-86800000D01*
X125366021Y-80175500D01*
X127565233Y-80175500D01*
X127617559Y-80197174D01*
X127693559Y-80273174D01*
X127715233Y-80325500D01*
X127693559Y-80377826D01*
X127641233Y-80399500D01*
X127565228Y-80399500D01*
X127440931Y-80435995D01*
X127331954Y-80506031D01*
X127331950Y-80506034D01*
X127247119Y-80603935D01*
X127193302Y-80721776D01*
X127174867Y-80850000D01*
X127193302Y-80978223D01*
X127193302Y-80978224D01*
X127193303Y-80978226D01*
X127247118Y-81096063D01*
X127331951Y-81193967D01*
X127331952Y-81193968D01*
X127335417Y-81197966D01*
X127333212Y-81199876D01*
X127354311Y-81242008D01*
X127354500Y-81247300D01*
X127354500Y-83586352D01*
X127344586Y-83623352D01*
X127303386Y-83694710D01*
X127303384Y-83694715D01*
X127279500Y-83783853D01*
X127279500Y-85376146D01*
X127290367Y-85416701D01*
X127290367Y-85416702D01*
X127303384Y-85465283D01*
X127303386Y-85465288D01*
X127349530Y-85545212D01*
X135464260Y-93659942D01*
X135485181Y-93701737D01*
X135493302Y-93758223D01*
X135493302Y-93758224D01*
X135493303Y-93758226D01*
X135547118Y-93876063D01*
X135631951Y-93973967D01*
X135740931Y-94044004D01*
X135865228Y-94080500D01*
X135994772Y-94080500D01*
X136119069Y-94044004D01*
X136228049Y-93973967D01*
X136312882Y-93876063D01*
X136366697Y-93758226D01*
X136385133Y-93630000D01*
X136366697Y-93501774D01*
X136312882Y-93383937D01*
X136228049Y-93286033D01*
X136145270Y-93232834D01*
X136119068Y-93215995D01*
X135989694Y-93178009D01*
X135990099Y-93176627D01*
X135954476Y-93158794D01*
X128002174Y-85206492D01*
X127980500Y-85154166D01*
X127980500Y-83783854D01*
X127980499Y-83783853D01*
X127956615Y-83694715D01*
X127956613Y-83694710D01*
X127915414Y-83623352D01*
X127905500Y-83586352D01*
X127905500Y-81247300D01*
X127925577Y-81198827D01*
X127924583Y-81197966D01*
X127927172Y-81194977D01*
X127927174Y-81194974D01*
X127927182Y-81194966D01*
X127928045Y-81193968D01*
X127928049Y-81193967D01*
X128012882Y-81096063D01*
X128066697Y-80978226D01*
X128085133Y-80850000D01*
X128085133Y-80849999D01*
X128085133Y-80844707D01*
X128087970Y-80844707D01*
X128099660Y-80798851D01*
X128148361Y-80769936D01*
X128203242Y-80783927D01*
X128211239Y-80790854D01*
X130432826Y-83012441D01*
X130454500Y-83064767D01*
X130454500Y-84634800D01*
X130485578Y-84709828D01*
X130496443Y-84736058D01*
X132073941Y-86313557D01*
X132073940Y-86313557D01*
X132103599Y-86325841D01*
X132175200Y-86355500D01*
X132335233Y-86355500D01*
X132387558Y-86377173D01*
X141523942Y-95513558D01*
X141625200Y-95555500D01*
X141734800Y-95555500D01*
X141788830Y-95555500D01*
X141841156Y-95577174D01*
X141844756Y-95581041D01*
X141881947Y-95623963D01*
X141881948Y-95623964D01*
X141881951Y-95623967D01*
X141990931Y-95694004D01*
X142115228Y-95730500D01*
X142244772Y-95730500D01*
X142369069Y-95694004D01*
X142478049Y-95623967D01*
X142562882Y-95526063D01*
X142616697Y-95408226D01*
X142635133Y-95280000D01*
X142616697Y-95151774D01*
X142562882Y-95033937D01*
X142478049Y-94936033D01*
X142372348Y-94868103D01*
X142369068Y-94865995D01*
X142244772Y-94829500D01*
X142115228Y-94829500D01*
X141990931Y-94865995D01*
X141881954Y-94936031D01*
X141881949Y-94936035D01*
X141861438Y-94959706D01*
X141810791Y-94985057D01*
X141757052Y-94967170D01*
X141753187Y-94963571D01*
X139537839Y-92748223D01*
X132636058Y-85846443D01*
X132534800Y-85804500D01*
X132534799Y-85804500D01*
X132374768Y-85804500D01*
X132322442Y-85782826D01*
X131027174Y-84487558D01*
X131005500Y-84435232D01*
X131005500Y-82865199D01*
X130975841Y-82793599D01*
X130975840Y-82793597D01*
X130972910Y-82786524D01*
X130963557Y-82763941D01*
X129109615Y-80910000D01*
X138204867Y-80910000D01*
X138223302Y-81038223D01*
X138277119Y-81156065D01*
X138277121Y-81156067D01*
X138351425Y-81241819D01*
X138369500Y-81290279D01*
X138369500Y-84189829D01*
X138407634Y-84281894D01*
X138407637Y-84281898D01*
X138867826Y-84742087D01*
X138889500Y-84794413D01*
X138889500Y-87679829D01*
X138927634Y-87771894D01*
X138927637Y-87771898D01*
X145227826Y-94072087D01*
X145249500Y-94124413D01*
X145249500Y-94345587D01*
X145227826Y-94397913D01*
X144757634Y-94868105D01*
X144719500Y-94960170D01*
X144719500Y-95022567D01*
X144697826Y-95074893D01*
X144685511Y-95084818D01*
X144671953Y-95093531D01*
X144671950Y-95093534D01*
X144587119Y-95191435D01*
X144587118Y-95191436D01*
X144587118Y-95191437D01*
X144579012Y-95209187D01*
X144533302Y-95309276D01*
X144514867Y-95437500D01*
X144533302Y-95565723D01*
X144533302Y-95565724D01*
X144533303Y-95565726D01*
X144587118Y-95683563D01*
X144671951Y-95781467D01*
X144780931Y-95851504D01*
X144905228Y-95888000D01*
X145034772Y-95888000D01*
X145159069Y-95851504D01*
X145268049Y-95781467D01*
X145352882Y-95683563D01*
X145406697Y-95565726D01*
X145425133Y-95437500D01*
X145406697Y-95309274D01*
X145352882Y-95191437D01*
X145352880Y-95191435D01*
X145352880Y-95191434D01*
X145352878Y-95191432D01*
X145300482Y-95130962D01*
X145282597Y-95077223D01*
X145304081Y-95030179D01*
X145712364Y-94621897D01*
X145750500Y-94529828D01*
X145750500Y-94430172D01*
X145750500Y-94110000D01*
X159794867Y-94110000D01*
X159813302Y-94238223D01*
X159813302Y-94238224D01*
X159813303Y-94238226D01*
X159867118Y-94356063D01*
X159951951Y-94453967D01*
X160060931Y-94524004D01*
X160185228Y-94560500D01*
X160314772Y-94560500D01*
X160320741Y-94558747D01*
X160377054Y-94564797D01*
X160393920Y-94577422D01*
X161830423Y-96013925D01*
X161879671Y-96034323D01*
X161879672Y-96034324D01*
X161914499Y-96048750D01*
X162985500Y-96048750D01*
X162985501Y-96048750D01*
X163020326Y-96034324D01*
X163069577Y-96013925D01*
X163573925Y-95509577D01*
X163600733Y-95444855D01*
X163608750Y-95425501D01*
X163608750Y-95418909D01*
X163630424Y-95366583D01*
X163642739Y-95356658D01*
X163678049Y-95333967D01*
X163762882Y-95236063D01*
X163816697Y-95118226D01*
X163835133Y-94990000D01*
X163816697Y-94861774D01*
X163762882Y-94743937D01*
X163678049Y-94646033D01*
X163571288Y-94577422D01*
X163569068Y-94575995D01*
X163444772Y-94539500D01*
X163315228Y-94539500D01*
X163190931Y-94575995D01*
X163081954Y-94646031D01*
X163081950Y-94646034D01*
X162997119Y-94743935D01*
X162997118Y-94743936D01*
X162997118Y-94743937D01*
X162973325Y-94796037D01*
X162946859Y-94853988D01*
X162905406Y-94892581D01*
X162848805Y-94890560D01*
X162823621Y-94871707D01*
X162758053Y-94796037D01*
X162758051Y-94796035D01*
X162758049Y-94796033D01*
X162676983Y-94743935D01*
X162649068Y-94725995D01*
X162524772Y-94689500D01*
X162395228Y-94689500D01*
X162270923Y-94725998D01*
X162268622Y-94727049D01*
X162267168Y-94727100D01*
X162265853Y-94727487D01*
X162265754Y-94727151D01*
X162212021Y-94729066D01*
X162185561Y-94712060D01*
X161583501Y-94110000D01*
X160980424Y-93506922D01*
X160958750Y-93454596D01*
X160958750Y-93048909D01*
X160980424Y-92996583D01*
X160992739Y-92986658D01*
X161028049Y-92963967D01*
X161112882Y-92866063D01*
X161166697Y-92748226D01*
X161185133Y-92620000D01*
X161166697Y-92491774D01*
X161112882Y-92373937D01*
X161028049Y-92276033D01*
X160961032Y-92232964D01*
X160919068Y-92205995D01*
X160794772Y-92169500D01*
X160665228Y-92169500D01*
X160540931Y-92205995D01*
X160431954Y-92276031D01*
X160431950Y-92276034D01*
X160347119Y-92373935D01*
X160293302Y-92491776D01*
X160274867Y-92620000D01*
X160293302Y-92748223D01*
X160293302Y-92748224D01*
X160293303Y-92748226D01*
X160347118Y-92866063D01*
X160431951Y-92963967D01*
X160467256Y-92986656D01*
X160499558Y-93033177D01*
X160501250Y-93048909D01*
X160501250Y-93615401D01*
X160479576Y-93667727D01*
X160427250Y-93689401D01*
X160406402Y-93686404D01*
X160314772Y-93659500D01*
X160185228Y-93659500D01*
X160060931Y-93695995D01*
X159951954Y-93766031D01*
X159951950Y-93766034D01*
X159867119Y-93863935D01*
X159813302Y-93981776D01*
X159794867Y-94110000D01*
X145750500Y-94110000D01*
X145750500Y-93940172D01*
X145712364Y-93848103D01*
X145641897Y-93777636D01*
X142331113Y-90466852D01*
X142309439Y-90414526D01*
X142331113Y-90362200D01*
X142362590Y-90343523D01*
X142429069Y-90324004D01*
X142538049Y-90253967D01*
X142622882Y-90156063D01*
X142676697Y-90038226D01*
X142695133Y-89910000D01*
X142676697Y-89781774D01*
X142622882Y-89663937D01*
X142538049Y-89566033D01*
X142538046Y-89566031D01*
X142524489Y-89557318D01*
X142492190Y-89510793D01*
X142490500Y-89495067D01*
X142490500Y-85669992D01*
X157044592Y-85669992D01*
X157044592Y-85670007D01*
X157064200Y-85956677D01*
X157064203Y-85956697D01*
X157122663Y-86238023D01*
X157122668Y-86238041D01*
X157218892Y-86508789D01*
X157218894Y-86508794D01*
X157351098Y-86763935D01*
X157351103Y-86763942D01*
X157394876Y-86825954D01*
X157516811Y-86998698D01*
X157712947Y-87208708D01*
X157935853Y-87390055D01*
X158181375Y-87539361D01*
X158444942Y-87653844D01*
X158721642Y-87731371D01*
X159006322Y-87770500D01*
X159006329Y-87770500D01*
X159293671Y-87770500D01*
X159293678Y-87770500D01*
X159578358Y-87731371D01*
X159855058Y-87653844D01*
X160118625Y-87539361D01*
X160364147Y-87390055D01*
X160587053Y-87208708D01*
X160783189Y-86998698D01*
X160948901Y-86763936D01*
X161081104Y-86508797D01*
X161146127Y-86325841D01*
X161177331Y-86238041D01*
X161177331Y-86238038D01*
X161177334Y-86238032D01*
X161235798Y-85956686D01*
X161246208Y-85804500D01*
X161255408Y-85670007D01*
X161255408Y-85669992D01*
X161235799Y-85383322D01*
X161235796Y-85383302D01*
X161177336Y-85101976D01*
X161177331Y-85101958D01*
X161081107Y-84831210D01*
X161081105Y-84831205D01*
X160948901Y-84576064D01*
X160948896Y-84576057D01*
X160858247Y-84447636D01*
X160783189Y-84341302D01*
X160587053Y-84131292D01*
X160364147Y-83949945D01*
X160364141Y-83949941D01*
X160364138Y-83949939D01*
X160250159Y-83880627D01*
X160118625Y-83800639D01*
X160118622Y-83800637D01*
X160118621Y-83800637D01*
X159855056Y-83686155D01*
X159578356Y-83608628D01*
X159293682Y-83569500D01*
X159293678Y-83569500D01*
X159006322Y-83569500D01*
X159006317Y-83569500D01*
X158721643Y-83608628D01*
X158444943Y-83686155D01*
X158181378Y-83800637D01*
X158181375Y-83800639D01*
X157935861Y-83949939D01*
X157935853Y-83949945D01*
X157763491Y-84090172D01*
X157712945Y-84131294D01*
X157516809Y-84341304D01*
X157351103Y-84576057D01*
X157351098Y-84576064D01*
X157218894Y-84831205D01*
X157218892Y-84831210D01*
X157122668Y-85101958D01*
X157122663Y-85101976D01*
X157064203Y-85383302D01*
X157064200Y-85383322D01*
X157044592Y-85669992D01*
X142490500Y-85669992D01*
X142490500Y-85560172D01*
X142490499Y-85560170D01*
X142452365Y-85468105D01*
X142452363Y-85468102D01*
X139833644Y-82849383D01*
X139811970Y-82797057D01*
X139812721Y-82786542D01*
X139820133Y-82735000D01*
X139801697Y-82606774D01*
X139747882Y-82488937D01*
X139663049Y-82391033D01*
X139596032Y-82347964D01*
X139554068Y-82320995D01*
X139429772Y-82284500D01*
X139300228Y-82284500D01*
X139175931Y-82320995D01*
X139066954Y-82391031D01*
X139066946Y-82391037D01*
X139000425Y-82467808D01*
X138949779Y-82493159D01*
X138896040Y-82475273D01*
X138870689Y-82424627D01*
X138870500Y-82419348D01*
X138870500Y-81350638D01*
X138892174Y-81298312D01*
X138904493Y-81288385D01*
X138958049Y-81253967D01*
X139042882Y-81156063D01*
X139096697Y-81038226D01*
X139115133Y-80910000D01*
X139096697Y-80781774D01*
X139042882Y-80663937D01*
X138958049Y-80566033D01*
X138883697Y-80518250D01*
X138849068Y-80495995D01*
X138724772Y-80459500D01*
X138595228Y-80459500D01*
X138470931Y-80495995D01*
X138361954Y-80566031D01*
X138361950Y-80566034D01*
X138277119Y-80663935D01*
X138223302Y-80781776D01*
X138204867Y-80910000D01*
X129109615Y-80910000D01*
X127856058Y-79656443D01*
X127856057Y-79656442D01*
X127856055Y-79656441D01*
X127754800Y-79614501D01*
X127645200Y-79614501D01*
X127634659Y-79618867D01*
X127606341Y-79624500D01*
X125364644Y-79624500D01*
X125360460Y-77949999D01*
X165254867Y-77949999D01*
X165258748Y-77976992D01*
X165259501Y-77987523D01*
X165259501Y-78009309D01*
X165266761Y-78036406D01*
X165268528Y-78045024D01*
X165273302Y-78078221D01*
X165273303Y-78078226D01*
X165282020Y-78097315D01*
X165286184Y-78108897D01*
X165290201Y-78123887D01*
X165290203Y-78123892D01*
X165307362Y-78153613D01*
X165310588Y-78159870D01*
X165327116Y-78196061D01*
X165336739Y-78207167D01*
X165344895Y-78218621D01*
X165349506Y-78226607D01*
X165349509Y-78226611D01*
X165349511Y-78226614D01*
X165378197Y-78255300D01*
X165381796Y-78259166D01*
X165411951Y-78293967D01*
X165419004Y-78298499D01*
X165431323Y-78308426D01*
X165433386Y-78310489D01*
X165473915Y-78333888D01*
X165476919Y-78335719D01*
X165520931Y-78364004D01*
X165522886Y-78364578D01*
X165522900Y-78364582D01*
X165531496Y-78368263D01*
X165531630Y-78367942D01*
X165536108Y-78369796D01*
X165536113Y-78369799D01*
X165587360Y-78383530D01*
X165589000Y-78383990D01*
X165645228Y-78400500D01*
X165774773Y-78400500D01*
X165806217Y-78391266D01*
X165830986Y-78383993D01*
X165832638Y-78383530D01*
X165862688Y-78375478D01*
X165883888Y-78369799D01*
X165888371Y-78367942D01*
X165888505Y-78368266D01*
X165897102Y-78364581D01*
X165899069Y-78364004D01*
X165943104Y-78335702D01*
X165946056Y-78333903D01*
X165986614Y-78310489D01*
X165988667Y-78308434D01*
X166000992Y-78298501D01*
X166008049Y-78293967D01*
X166038213Y-78259153D01*
X166041787Y-78255314D01*
X166270490Y-78026614D01*
X166329799Y-77923887D01*
X166352185Y-77840339D01*
X166360500Y-77809309D01*
X166360500Y-75407516D01*
X166361253Y-75396985D01*
X166365133Y-75370000D01*
X166361253Y-75343012D01*
X166360500Y-75332482D01*
X166360500Y-75310691D01*
X166360499Y-75310688D01*
X166353233Y-75283573D01*
X166351469Y-75274971D01*
X166346697Y-75241774D01*
X166337980Y-75222686D01*
X166333815Y-75211103D01*
X166329799Y-75196114D01*
X166312632Y-75166382D01*
X166309412Y-75160134D01*
X166292882Y-75123937D01*
X166283257Y-75112829D01*
X166275097Y-75101369D01*
X166270491Y-75093390D01*
X166270487Y-75093385D01*
X166241808Y-75064706D01*
X166238208Y-75060839D01*
X166208052Y-75026036D01*
X166208050Y-75026034D01*
X166208049Y-75026033D01*
X166200984Y-75021493D01*
X166188674Y-75011572D01*
X166186613Y-75009511D01*
X166186610Y-75009509D01*
X166186609Y-75009508D01*
X166146086Y-74986112D01*
X166143079Y-74984279D01*
X166099066Y-74955994D01*
X166099063Y-74955993D01*
X166097075Y-74955409D01*
X166088501Y-74951739D01*
X166088370Y-74952058D01*
X166083888Y-74950202D01*
X166083886Y-74950201D01*
X166063004Y-74944605D01*
X166032670Y-74936477D01*
X166030977Y-74936002D01*
X165974772Y-74919500D01*
X165845228Y-74919500D01*
X165845227Y-74919500D01*
X165789020Y-74936002D01*
X165787328Y-74936477D01*
X165736115Y-74950200D01*
X165731637Y-74952055D01*
X165731506Y-74951739D01*
X165722931Y-74955408D01*
X165720932Y-74955995D01*
X165676912Y-74984284D01*
X165673908Y-74986115D01*
X165633385Y-75009512D01*
X165631323Y-75011574D01*
X165619016Y-75021492D01*
X165611951Y-75026033D01*
X165581790Y-75060840D01*
X165578193Y-75064703D01*
X165549512Y-75093385D01*
X165544897Y-75101378D01*
X165536742Y-75112829D01*
X165527119Y-75123935D01*
X165527116Y-75123939D01*
X165510585Y-75160137D01*
X165507359Y-75166395D01*
X165490200Y-75196114D01*
X165490200Y-75196115D01*
X165486182Y-75211105D01*
X165482021Y-75222680D01*
X165473302Y-75241773D01*
X165468530Y-75274966D01*
X165466762Y-75283584D01*
X165459500Y-75310688D01*
X165459500Y-75332482D01*
X165458747Y-75343012D01*
X165454867Y-75369999D01*
X165458747Y-75396985D01*
X165459500Y-75407516D01*
X165459500Y-77532744D01*
X165437826Y-77585070D01*
X165437822Y-77585074D01*
X165431318Y-77591577D01*
X165419009Y-77601496D01*
X165411952Y-77606031D01*
X165381797Y-77640832D01*
X165378200Y-77644695D01*
X165349508Y-77673388D01*
X165344895Y-77681378D01*
X165336741Y-77692830D01*
X165327117Y-77703937D01*
X165327116Y-77703940D01*
X165310590Y-77740125D01*
X165307366Y-77746380D01*
X165290198Y-77776117D01*
X165286183Y-77791101D01*
X165282021Y-77802680D01*
X165273302Y-77821773D01*
X165268527Y-77854979D01*
X165266760Y-77863593D01*
X165259501Y-77890686D01*
X165259501Y-77912475D01*
X165258748Y-77923005D01*
X165254867Y-77949999D01*
X125360460Y-77949999D01*
X125350266Y-73869992D01*
X157044592Y-73869992D01*
X157044592Y-73870007D01*
X157064200Y-74156677D01*
X157064203Y-74156697D01*
X157122663Y-74438023D01*
X157122668Y-74438041D01*
X157218892Y-74708789D01*
X157218894Y-74708794D01*
X157351098Y-74963935D01*
X157351103Y-74963942D01*
X157452431Y-75107492D01*
X157516811Y-75198698D01*
X157712947Y-75408708D01*
X157935853Y-75590055D01*
X158181375Y-75739361D01*
X158444942Y-75853844D01*
X158721642Y-75931371D01*
X159006322Y-75970500D01*
X159006329Y-75970500D01*
X159293671Y-75970500D01*
X159293678Y-75970500D01*
X159578358Y-75931371D01*
X159855058Y-75853844D01*
X160118625Y-75739361D01*
X160364147Y-75590055D01*
X160587053Y-75408708D01*
X160783189Y-75198698D01*
X160948901Y-74963936D01*
X161081104Y-74708797D01*
X161177334Y-74438032D01*
X161235798Y-74156686D01*
X161255408Y-73870000D01*
X161255408Y-73869992D01*
X161235799Y-73583322D01*
X161235796Y-73583302D01*
X161177336Y-73301976D01*
X161177331Y-73301958D01*
X161081107Y-73031210D01*
X161081105Y-73031205D01*
X160948901Y-72776064D01*
X160948896Y-72776057D01*
X160857186Y-72646133D01*
X160783189Y-72541302D01*
X160587053Y-72331292D01*
X160364147Y-72149945D01*
X160364141Y-72149941D01*
X160364138Y-72149939D01*
X160250159Y-72080627D01*
X160118625Y-72000639D01*
X160118622Y-72000637D01*
X160118621Y-72000637D01*
X159855056Y-71886155D01*
X159578356Y-71808628D01*
X159293682Y-71769500D01*
X159293678Y-71769500D01*
X159006322Y-71769500D01*
X159006317Y-71769500D01*
X158721643Y-71808628D01*
X158444943Y-71886155D01*
X158181378Y-72000637D01*
X158181375Y-72000639D01*
X157935861Y-72149939D01*
X157935853Y-72149945D01*
X157734726Y-72313574D01*
X157712945Y-72331294D01*
X157516809Y-72541304D01*
X157351103Y-72776057D01*
X157351098Y-72776064D01*
X157218894Y-73031205D01*
X157218892Y-73031210D01*
X157122668Y-73301958D01*
X157122663Y-73301976D01*
X157064203Y-73583302D01*
X157064200Y-73583322D01*
X157044592Y-73869992D01*
X125350266Y-73869992D01*
X125346718Y-72450000D01*
X129304659Y-72450000D01*
X129323976Y-72646133D01*
X129381187Y-72834731D01*
X129422830Y-72912638D01*
X129474090Y-73008538D01*
X129599117Y-73160883D01*
X129751462Y-73285910D01*
X129805547Y-73314819D01*
X129925268Y-73378812D01*
X129925270Y-73378812D01*
X129925273Y-73378814D01*
X130113868Y-73436024D01*
X130310000Y-73455341D01*
X130506132Y-73436024D01*
X130694727Y-73378814D01*
X130868538Y-73285910D01*
X131020883Y-73160883D01*
X131145910Y-73008538D01*
X131238814Y-72834727D01*
X131296024Y-72646132D01*
X131315341Y-72450000D01*
X131844659Y-72450000D01*
X131863976Y-72646133D01*
X131921187Y-72834731D01*
X131962830Y-72912638D01*
X132014090Y-73008538D01*
X132139117Y-73160883D01*
X132291462Y-73285910D01*
X132345547Y-73314819D01*
X132465268Y-73378812D01*
X132465270Y-73378812D01*
X132465273Y-73378814D01*
X132653868Y-73436024D01*
X132850000Y-73455341D01*
X133046132Y-73436024D01*
X133234727Y-73378814D01*
X133408538Y-73285910D01*
X133560883Y-73160883D01*
X133685910Y-73008538D01*
X133778814Y-72834727D01*
X133836024Y-72646132D01*
X133855341Y-72450000D01*
X134384659Y-72450000D01*
X134403976Y-72646133D01*
X134461187Y-72834731D01*
X134502830Y-72912638D01*
X134554090Y-73008538D01*
X134679117Y-73160883D01*
X134831462Y-73285910D01*
X134885547Y-73314819D01*
X135005268Y-73378812D01*
X135005270Y-73378812D01*
X135005273Y-73378814D01*
X135193868Y-73436024D01*
X135390000Y-73455341D01*
X135586132Y-73436024D01*
X135774727Y-73378814D01*
X135948538Y-73285910D01*
X136100883Y-73160883D01*
X136225910Y-73008538D01*
X136318814Y-72834727D01*
X136376024Y-72646132D01*
X136395341Y-72450000D01*
X136376024Y-72253868D01*
X136318814Y-72065273D01*
X136318812Y-72065270D01*
X136318812Y-72065268D01*
X136267048Y-71968426D01*
X136225910Y-71891462D01*
X136100883Y-71739117D01*
X135948538Y-71614090D01*
X135938597Y-71608776D01*
X135894452Y-71585180D01*
X136929500Y-71585180D01*
X136929500Y-73314819D01*
X136938233Y-73358722D01*
X136951656Y-73378812D01*
X136971496Y-73408504D01*
X137021278Y-73441767D01*
X137065180Y-73450500D01*
X137065181Y-73450500D01*
X138794819Y-73450500D01*
X138794820Y-73450500D01*
X138838722Y-73441767D01*
X138888504Y-73408504D01*
X138921767Y-73358722D01*
X138930500Y-73314820D01*
X138930500Y-71585180D01*
X138921767Y-71541278D01*
X138888504Y-71491496D01*
X138838722Y-71458233D01*
X138794820Y-71449500D01*
X137065180Y-71449500D01*
X137043229Y-71453866D01*
X137021277Y-71458233D01*
X136971496Y-71491495D01*
X136971495Y-71491496D01*
X136938233Y-71541277D01*
X136929500Y-71585180D01*
X135894452Y-71585180D01*
X135774731Y-71521187D01*
X135586133Y-71463976D01*
X135390000Y-71444659D01*
X135193866Y-71463976D01*
X135005268Y-71521187D01*
X134831463Y-71614089D01*
X134679117Y-71739117D01*
X134554089Y-71891463D01*
X134461187Y-72065268D01*
X134403976Y-72253866D01*
X134384659Y-72450000D01*
X133855341Y-72450000D01*
X133836024Y-72253868D01*
X133778814Y-72065273D01*
X133778812Y-72065270D01*
X133778812Y-72065268D01*
X133727048Y-71968426D01*
X133685910Y-71891462D01*
X133560883Y-71739117D01*
X133408538Y-71614090D01*
X133398597Y-71608776D01*
X133234731Y-71521187D01*
X133046133Y-71463976D01*
X132850000Y-71444659D01*
X132653866Y-71463976D01*
X132465268Y-71521187D01*
X132291463Y-71614089D01*
X132139117Y-71739117D01*
X132014089Y-71891463D01*
X131921187Y-72065268D01*
X131863976Y-72253866D01*
X131844659Y-72450000D01*
X131315341Y-72450000D01*
X131296024Y-72253868D01*
X131238814Y-72065273D01*
X131238812Y-72065270D01*
X131238812Y-72065268D01*
X131187048Y-71968426D01*
X131145910Y-71891462D01*
X131020883Y-71739117D01*
X130868538Y-71614090D01*
X130858597Y-71608776D01*
X130694731Y-71521187D01*
X130506133Y-71463976D01*
X130310000Y-71444659D01*
X130113866Y-71463976D01*
X129925268Y-71521187D01*
X129751463Y-71614089D01*
X129599117Y-71739117D01*
X129474089Y-71891463D01*
X129381187Y-72065268D01*
X129323976Y-72253866D01*
X129304659Y-72450000D01*
X125346718Y-72450000D01*
X125337018Y-68568028D01*
X172555833Y-68568028D01*
X172563091Y-68568384D01*
G37*
%TD.AperFunction*%
%TD*%
M02*
